<svg width="40" height="40" fill="none" xmlns="http://www.w3.org/2000/svg"><path fill-rule="evenodd" clip-rule="evenodd" d="M0 16C0 7.163 7.163 0 16 0h8c8.837 0 16 7.163 16 16v8c0 8.837-7.163 16-16 16h-8C7.163 40 0 32.837 0 24v-8Z" fill="#0E0F18"/><g clip-path="url(#a)"><path d="M9.694 22.226a2.99 2.99 0 0 1-3.022-2.948c-.032-1.71 1.251-3.035 3.023-3.08v6.03l-.001-.002Zm20.211-.02v-5.972c1.598-.133 3.04 1.276 3.057 2.94.015 1.704-1.405 3.135-3.057 3.031Zm-6.15-4.558a1.578 1.578 0 0 0-1.615 1.554c-.008.853.726 1.593 1.591 1.6a1.6 1.6 0 0 0 1.494-2.187 1.548 1.548 0 0 0-1.47-.967Zm-9.431 1.597a1.572 1.572 0 0 0 1.613 1.554 1.618 1.618 0 0 0 1.574-1.62c-.016-.872-.732-1.548-1.637-1.537a1.534 1.534 0 0 0-1.55 1.603Zm2.3 7.645v-1.367c-.254-.015-.488-.034-.72-.037-1.232-.003-2.466.006-3.699-.003-.75-.008-1.003-.252-1.003-.981-.003-3.52-.003-7.038 0-10.561 0-.767.239-.986 1.049-.986 2.399-.003 4.796 0 7.297 0 0-1.028.01-1.201-.016-2.196-.005-.106-.218-.235-.354-.314-.762-.42-1.095-1.095-.89-1.844a1.585 1.585 0 0 1 1.546-1.198c.73.01 1.358.513 1.53 1.22.186.764-.155 1.425-.915 1.837-.16.089-.373.282-.376.427-.037.933-.018 1.049-.018 2.06H27.3c.906 0 1.13.211 1.132 1.12.007 3.412.007 6.824 0 10.235 0 .973-.22 1.173-1.223 1.175-1.32.004-2.64.007-3.961.015-.065 0-.126.028-.24.059v1.439c.474 0 .948-.003 1.42 0 .561.004.86.284.863.849.005 1.244 0 1.671.005 2.919 0 .598-.326.889-.901.889-3.061.004-6.12.004-9.184 0-.582 0-.887-.29-.881-.898.013-1.226-.003-1.63.007-2.852.006-.669.239-.887.928-.904.415-.01.835-.015 1.255-.024.007.001.025-.02.103-.08v.001Z" fill="#fff"/></g><defs><clipPath id="a"><path fill="#fff" transform="translate(6.672 6.666)" d="M0 0h26.665v26.665H0z"/></clipPath></defs></svg>