<svg width="254" height="220" fill="none" xmlns="http://www.w3.org/2000/svg"><path stroke="#fff" stroke-opacity=".06" stroke-dasharray="4 4" d="M0 9.5h254M0 39.5h254M0 69.5h254M0 99.5h254m-254 30h254m-254 30h254m-254 30h254"/><path stroke="#fff" stroke-opacity=".1" d="M0 219.5h254"/><path d="m10.913 183.683-3.191-9.966h61.402l-1.98 3.45-1.871 9.583-.44 9.2-1.981 6.133h-1.43L60.54 204l-2.53-1.917-1.101-3.45-2.201 3.45-.99-3.45v-2.683l-2.311-6.133-9.684-8.434h-2.2l-1.321 2.3-.55 6.134h-1.43l-1.211-1.917H31.38l-1.32 4.217h-3.632l-1.21 1.916-.881 1.917-3.191-6.133h-3.521l-1.761-1.917-2.641-4.217h-2.31Z" fill="url(#a)"/><path d="m7.722 173.717 3.191 9.966h2.311l2.641 4.217 1.76 1.917h3.522l3.191 6.133.88-1.917 1.21-1.916h3.632l1.32-4.217h3.631l1.211 1.917h1.43l.551-6.134 1.32-2.3h2.201l9.684 8.434 2.31 6.133v2.683l.99 3.45 2.202-3.45 1.1 3.45L60.541 204l.88-1.917h1.43l1.981-6.133.44-9.2 1.871-9.583 1.981-3.45" stroke="#FF4834" stroke-width="2"/><path d="M3.54 169.5 2 160.3v13.417h5.722l-1.76-4.217H3.54Z" fill="url(#b)"/><path d="m2 160.3 1.54 9.2h2.421l1.761 4.217" stroke="#00D77C" stroke-width="2"/><path d="m74.736 164.133-5.612 9.584H253V33.033l-3.081 3.45h-4.952L241.996 20l-8.693 3.067-11.444 1.916-6.603 3.067-7.152 8.433-5.502-3.45-3.411 12.65-7.153 10.734h-6.162l-4.952 12.266-3.411 2.684-6.052 8.433-4.732 2.3-2.861-2.3-3.851-4.6h-3.302l-4.511 2.3-6.933-6.133-4.951 14.95-3.302 7.283-4.401 8.05h-4.842l-1.981-8.05-3.411-5.367-2.311 2.3-1.87 8.817-2.861 4.983h-4.622l-4.952 7.284-1.65 8.433-2.311 5.367-2.861 3.066-1.54 12.267-3.082 14.183-3.301-6.9h-2.2l-1.872 6.9-2.97 9.2h-2.532l-1.54-3.833-1.54 3.833h-3.632Z" fill="url(#c)"/><path d="m69.124 173.717 5.612-9.584h3.631l1.54-3.833 1.541 3.833h2.531l2.971-9.2 1.871-6.9h2.2l3.302 6.9 3.081-14.183 1.54-12.267 2.862-3.066 2.311-5.367 1.65-8.433 4.952-7.284h4.622l2.861-4.983 1.87-8.817 2.311-2.3 3.411 5.367 1.981 8.05h4.842l4.401-8.05 3.302-7.283 4.951-14.95 6.933 6.133 4.511-2.3h3.302l3.851 4.6 2.861 2.3 4.732-2.3 6.052-8.433 3.411-2.684 4.952-12.266h6.162l7.153-10.734 3.411-12.65 5.502 3.45 7.152-8.433 6.603-3.067 11.444-1.916L241.996 20l2.971 16.483h4.952l3.081-3.45" stroke="#00D77C" stroke-width="2"/><circle cx="61" cy="205" r="4" fill="#FF4834"/><circle cx="241" cy="20" r="4" fill="#00D77C"/><path d="M67.752 204.484h6.06v.816h-6.06v-.816Zm10.386-5.22c.792 0 1.444.228 1.956.684.512.464.768 1.068.768 1.812 0 .736-.28 1.408-.84 2.016-.328.344-.92.804-1.776 1.38-1.088.728-1.712 1.384-1.872 1.968h4.5V208h-5.712c0-.792.284-1.5.852-2.124.368-.416.988-.924 1.86-1.524.68-.488 1.128-.844 1.344-1.068.44-.48.66-.992.66-1.536 0-.52-.156-.924-.468-1.212-.312-.288-.748-.432-1.308-.432-.6 0-1.052.2-1.356.6-.344.392-.52.964-.528 1.716h-.984c0-.952.268-1.716.804-2.292.528-.576 1.228-.864 2.1-.864Zm7.16 0c.831 0 1.495.208 1.991.624.496.424.744.992.744 1.704 0 .968-.468 1.608-1.404 1.92.512.16.896.404 1.152.732.288.336.432.756.432 1.26 0 .776-.272 1.412-.816 1.908-.552.504-1.272.756-2.16.756-.8 0-1.464-.208-1.992-.624-.608-.504-.948-1.236-1.02-2.196h.996c.024.672.248 1.184.672 1.536.368.296.816.444 1.344.444.608 0 1.1-.176 1.476-.528.344-.344.516-.764.516-1.26 0-.512-.168-.912-.504-1.2-.328-.28-.792-.42-1.392-.42h-.696v-.768h.66c.568 0 1.004-.128 1.308-.384.304-.264.456-.636.456-1.116 0-.472-.148-.844-.444-1.116-.304-.28-.74-.42-1.308-.42-.584 0-1.032.152-1.344.456-.328.304-.524.748-.588 1.332h-.972c.072-.824.376-1.472.912-1.944.496-.464 1.156-.696 1.98-.696Zm5.095 7.308a.7.7 0 0 1 .516.204.642.642 0 0 1 .216.504.68.68 0 0 1-.216.516.753.753 0 0 1-1.032 0 .704.704 0 0 1-.216-.516c0-.208.072-.376.216-.504a.7.7 0 0 1 .516-.204Zm5.912-7.14V208h-.984v-7.368c-.528.544-1.2.936-2.016 1.176v-.984c.376-.104.776-.28 1.2-.528a4.49 4.49 0 0 0 1.032-.864h.768Zm6.547-.168c.832 0 1.496.208 1.992.624.496.424.744.992.744 1.704 0 .968-.468 1.608-1.404 1.92.512.16.896.404 1.152.732.288.336.432.756.432 1.26 0 .776-.272 1.412-.816 1.908-.552.504-1.272.756-2.16.756-.8 0-1.464-.208-1.992-.624-.608-.504-.948-1.236-1.02-2.196h.996c.024.672.248 1.184.672 1.536.368.296.816.444 1.344.444.608 0 1.1-.176 1.476-.528.344-.344.516-.764.516-1.26 0-.512-.168-.912-.504-1.2-.328-.28-.792-.42-1.392-.42h-.696v-.768h.66c.568 0 1.004-.128 1.308-.384.304-.264.456-.636.456-1.116 0-.472-.148-.844-.444-1.116-.304-.28-.74-.42-1.308-.42-.584 0-1.032.152-1.344.456-.328.304-.524.748-.588 1.332h-.972c.072-.824.376-1.472.912-1.944.496-.464 1.156-.696 1.98-.696Zm12.379 4.044c.64 0 1.132.236 1.476.708.304.416.456.964.456 1.644 0 .672-.152 1.22-.456 1.644-.352.464-.844.696-1.476.696-.64 0-1.132-.232-1.476-.696-.304-.424-.456-.972-.456-1.644 0-.696.152-1.244.456-1.644.328-.472.82-.708 1.476-.708Zm-1.032-4.044h.768l-4.8 8.904h-.78l4.812-8.904Zm-5.064.168c.64 0 1.132.236 1.476.708.304.416.456.964.456 1.644 0 .672-.152 1.22-.456 1.644-.352.464-.844.696-1.476.696-.64 0-1.132-.232-1.476-.696-.304-.424-.456-.972-.456-1.644 0-.696.152-1.244.456-1.644.328-.472.82-.708 1.476-.708Zm6.096 4.524c-.368 0-.636.168-.804.504-.152.28-.228.68-.228 1.2 0 .504.076.896.228 1.176.176.344.444.516.804.516.352 0 .62-.176.804-.528.152-.304.228-.692.228-1.164 0-.488-.076-.884-.228-1.188-.176-.344-.444-.516-.804-.516Zm-6.096-3.876c-.368 0-.636.168-.804.504-.152.28-.228.68-.228 1.2 0 .504.076.896.228 1.176.176.344.444.516.804.516.352 0 .62-.176.804-.528.152-.304.228-.692.228-1.164 0-.496-.08-.892-.24-1.188-.168-.344-.432-.516-.792-.516Z" fill="#FF4834"/><path d="M206.922 2.264c1.032 0 1.812.384 2.34 1.152.504.72.756 1.744.756 3.072 0 1.344-.268 2.456-.804 3.336-.584.896-1.352 1.344-2.304 1.344-1.592 0-2.504-.764-2.736-2.292h.972c.184.976.776 1.464 1.776 1.464.656 0 1.184-.332 1.584-.996.376-.64.564-1.44.564-2.4l-.012-.312h-.048a2.561 2.561 0 0 1-.924 1.032c-.4.248-.844.372-1.332.372-.824 0-1.488-.272-1.992-.816-.488-.512-.732-1.184-.732-2.016 0-.856.272-1.556.816-2.1.536-.56 1.228-.84 2.076-.84Zm.024.828c-.584 0-1.056.196-1.416.588-.352.384-.528.892-.528 1.524 0 .616.176 1.1.528 1.452.352.376.824.564 1.416.564a1.91 1.91 0 0 0 1.404-.576c.368-.392.552-.88.552-1.464 0-.592-.176-1.084-.528-1.476-.36-.408-.836-.612-1.428-.612Zm7.267-.828c1.024 0 1.796.452 2.316 1.356.456.768.684 1.8.684 3.096s-.228 2.328-.684 3.096c-.528.904-1.3 1.356-2.316 1.356-1.024 0-1.796-.452-2.316-1.356-.456-.768-.684-1.8-.684-3.096s.228-2.328.684-3.096c.512-.904 1.284-1.356 2.316-1.356Zm0 .84c-.768 0-1.32.412-1.656 1.236-.24.576-.36 1.368-.36 2.376 0 .992.12 1.784.36 2.376.336.824.888 1.236 1.656 1.236.768 0 1.32-.412 1.656-1.236.248-.608.372-1.4.372-2.376 0-.992-.124-1.784-.372-2.376-.336-.824-.888-1.236-1.656-1.236Zm5.18 6.468a.7.7 0 0 1 .516.204.642.642 0 0 1 .216.504.68.68 0 0 1-.216.516.753.753 0 0 1-1.032 0 .704.704 0 0 1-.216-.516c0-.208.072-.376.216-.504a.7.7 0 0 1 .516-.204Zm5.264-7.308c.832 0 1.496.208 1.992.624.496.424.744.992.744 1.704 0 .968-.468 1.608-1.404 1.92.512.16.896.404 1.152.732.288.336.432.756.432 1.26 0 .776-.272 1.412-.816 1.908-.552.504-1.272.756-2.16.756-.8 0-1.464-.208-1.992-.624-.608-.504-.948-1.236-1.02-2.196h.996c.024.672.248 1.184.672 1.536.368.296.816.444 1.344.444.608 0 1.1-.176 1.476-.528.344-.344.516-.764.516-1.26 0-.512-.168-.912-.504-1.2-.328-.28-.792-.42-1.392-.42h-.696v-.768h.66c.568 0 1.004-.128 1.308-.384.304-.264.456-.636.456-1.116 0-.472-.148-.844-.444-1.116-.304-.28-.74-.42-1.308-.42-.584 0-1.032.152-1.344.456-.328.304-.524.748-.588 1.332h-.972c.072-.824.376-1.472.912-1.944.496-.464 1.156-.696 1.98-.696Zm7.231 0c1.584 0 2.496.764 2.736 2.292h-.972c-.192-.976-.784-1.464-1.776-1.464-.68 0-1.208.332-1.584.996-.376.608-.564 1.408-.564 2.4 0 .104.004.208.012.312h.048c.224-.456.532-.8.924-1.032.376-.248.82-.372 1.332-.372.816 0 1.476.264 1.98.792.496.536.744 1.216.744 2.04 0 .84-.272 1.54-.816 2.1-.56.56-1.252.84-2.076.84-1.032 0-1.816-.388-2.352-1.164-.496-.72-.744-1.74-.744-3.06 0-1.376.268-2.488.804-3.336.56-.896 1.328-1.344 2.304-1.344Zm-.036 3.948c-.56 0-1.028.192-1.404.576-.368.376-.552.864-.552 1.464 0 .608.176 1.1.528 1.476.36.408.836.612 1.428.612.568 0 1.036-.196 1.404-.588.36-.408.54-.916.54-1.524 0-.6-.176-1.084-.528-1.452-.352-.376-.824-.564-1.416-.564Zm12.379.096c.64 0 1.132.236 1.476.708.304.416.456.964.456 1.644 0 .672-.152 1.22-.456 1.644-.352.464-.844.696-1.476.696-.64 0-1.132-.232-1.476-.696-.304-.424-.456-.972-.456-1.644 0-.696.152-1.244.456-1.644.328-.472.82-.708 1.476-.708Zm-1.032-4.044h.768l-4.8 8.904h-.78l4.812-8.904Zm-5.064.168c.64 0 1.132.236 1.476.708.304.416.456.964.456 1.644 0 .672-.152 1.22-.456 1.644-.352.464-.844.696-1.476.696-.64 0-1.132-.232-1.476-.696-.304-.424-.456-.972-.456-1.644 0-.696.152-1.244.456-1.644.328-.472.82-.708 1.476-.708Zm6.096 4.524c-.368 0-.636.168-.804.504-.152.28-.228.68-.228 1.2 0 .504.076.896.228 1.176.176.344.444.516.804.516.352 0 .62-.176.804-.528.152-.304.228-.692.228-1.164 0-.488-.076-.884-.228-1.188-.176-.344-.444-.516-.804-.516Zm-6.096-3.876c-.368 0-.636.168-.804.504-.152.28-.228.68-.228 1.2 0 .504.076.896.228 1.176.176.344.444.516.804.516.352 0 .62-.176.804-.528.152-.304.228-.692.228-1.164 0-.496-.08-.892-.24-1.188-.168-.344-.432-.516-.792-.516Z" fill="#00D77C"/><path stroke="#9CA3AC" stroke-dasharray="10 10" d="M124.5 0v219"/><defs><linearGradient id="a" x1="40.294" y1="174.1" x2="40.294" y2="198.633" gradientUnits="userSpaceOnUse"><stop stop-color="#FF4834" stop-opacity="0"/><stop offset="1" stop-color="#FF4834" stop-opacity=".3"/></linearGradient><linearGradient id="b" x1="2.88" y1="174.1" x2=".298" y2="160.757" gradientUnits="userSpaceOnUse"><stop stop-color="#00D77C" stop-opacity="0"/><stop offset="1" stop-color="#00D77C" stop-opacity=".3"/></linearGradient><linearGradient id="c" x1="191.928" y1="10.8" x2="183.933" y2="173.74" gradientUnits="userSpaceOnUse"><stop stop-color="#00D77C" stop-opacity=".3"/><stop offset="1" stop-color="#00D77C" stop-opacity="0"/></linearGradient></defs></svg>