<svg width="24" height="24" viewBox="0 0 24 24" fill="none" xmlns="http://www.w3.org/2000/svg">
<g clip-path="url(#clip0_1440_30453)">
<path fill-rule="evenodd" clip-rule="evenodd" d="M7 1C3.68629 1 1 3.68629 1 7V17C1 20.3137 3.68629 23 7 23H17C20.3137 23 23 20.3137 23 17V7C23 3.68629 20.3137 1 17 1H7ZM14.5667 14.3833H8.51667V16.5833H11.2667V18.7833H13.4667V16.5833H14.5667C16.0855 16.5833 17.3167 15.3521 17.3167 13.8333C17.3167 12.3145 16.0855 11.0833 14.5667 11.0833H10.1667C9.86291 11.0833 9.61666 10.8371 9.61666 10.5333C9.61666 10.2296 9.86291 9.98327 10.1667 9.98327H16.2167V7.78333H13.4667V5.58333H11.2667V7.78333H10.1667C8.64788 7.78333 7.41667 9.01454 7.41667 10.5333C7.41667 12.0522 8.64788 13.2833 10.1667 13.2833H14.5667C14.8704 13.2833 15.1167 13.5296 15.1167 13.8333C15.1167 14.1371 14.8704 14.3833 14.5667 14.3833Z" fill="white"/>
</g>
<defs>
<clipPath id="clip0_1440_30453">
<rect width="24" height="24" fill="white"/>
</clipPath>
</defs>
</svg>
