<svg width="24" height="24" viewBox="0 0 24 24" fill="none" xmlns="http://www.w3.org/2000/svg">
<g clip-path="url(#clip0_1591_17643)">
<path d="M16.2857 7.35429C15.5863 3.03429 13.9303 0 12.0051 0C10.08 0 8.42229 3.03429 7.72114 7.35429H16.2857ZM8.57829 0.502286C6.8771 1.00879 5.30928 1.88596 3.98758 3.07072C2.66587 4.25549 1.62311 5.71841 0.934286 7.35429H6.16286C6.58286 4.60114 7.39543 2.13771 8.57657 0.502286H8.57829ZM23.0743 7.35429C22.3842 5.71831 21.3404 4.25545 20.0179 3.07074C18.6954 1.88603 17.1269 1.00889 15.4251 0.502286C16.6046 2.13771 17.4189 4.59943 17.844 7.35429H23.0726H23.0743ZM5.80971 12C5.80971 10.9611 5.868 9.91714 5.96914 8.904H0.416571C0.144191 9.9136 0.00416163 10.9543 0 12C0 13.0731 0.154286 14.1051 0.416571 15.096H5.96229C5.8627 14.067 5.81121 13.0338 5.808 12H5.80971ZM7.356 12C7.356 13.0749 7.416 14.1051 7.51714 15.096H16.4829C16.5857 14.1017 16.644 13.0731 16.644 12C16.644 10.9286 16.5857 9.89486 16.4829 8.904H7.51714C7.41429 9.89486 7.356 10.9269 7.356 12ZM23.5869 8.904H18.0377C18.1406 9.92057 18.1989 10.9611 18.1989 12C18.1989 13.0389 18.1389 14.0829 18.0377 15.096H23.5834C23.8491 14.1017 24 13.0731 24 12C24 10.9286 23.8491 9.89486 23.5869 8.904ZM15.4286 23.4943C17.1295 22.9865 18.6972 22.1089 20.0193 20.9243C21.3414 19.7397 22.3852 18.2775 23.076 16.6423H17.8457C17.4189 19.3989 16.6097 21.8623 15.4286 23.4943ZM0.934286 16.6457C1.62436 18.2817 2.66815 19.7446 3.99068 20.9293C5.31321 22.114 6.88167 22.9911 8.58343 23.4977C7.40057 21.8623 6.588 19.4006 6.16286 16.6457H0.934286ZM7.71943 16.6457C8.42229 20.9657 10.08 24 12.0034 24C13.9286 24 15.5829 20.9657 16.2857 16.6457H7.71943Z" fill="white"/>
</g>
<defs>
<clipPath id="clip0_1591_17643">
<rect width="24" height="24" fill="white"/>
</clipPath>
</defs>
</svg>
