<svg width="24" height="24" viewBox="0 0 24 24" fill="none" xmlns="http://www.w3.org/2000/svg">
<g clip-path="url(#clip0_1440_30526)">
<path d="M14.4 0C19.702 0 24 4.29807 24 9.59999C24 13.4935 21.6821 16.8457 18.3509 18.3518C16.8448 21.6828 13.4929 24 9.60001 24C4.29806 24 0 19.702 0 14.4C0 10.5071 2.31722 7.15528 5.6476 5.64877C7.15431 2.31789 10.5065 0 14.4 0ZM10.8 8.4H8.39999V9.59999C6.74314 9.59999 5.39999 10.9432 5.39999 12.6C5.39999 14.1906 6.63784 15.492 8.20275 15.5936L8.39999 15.6H10.8L10.9079 15.6097C11.1877 15.6605 11.4 15.9054 11.4 16.2C11.4 16.4946 11.1877 16.7395 10.9079 16.7904L10.8 16.8H5.99999V19.2H8.39999V20.4H10.8V19.2C12.4569 19.2 13.8 17.8568 13.8 16.2C13.8 14.6094 12.5621 13.308 10.9973 13.2064L10.8 13.2H8.39999L8.29215 13.1904C8.01225 13.1395 7.79999 12.8946 7.79999 12.6C7.79999 12.3054 8.01225 12.0605 8.29215 12.0097L8.39999 12H13.2V9.59999H10.8V8.4ZM14.4 2.4C12.2598 2.4 10.3377 3.33379 9.0189 4.81618C9.21173 4.8058 9.40518 4.8 9.60001 4.8C14.902 4.8 19.2 9.09807 19.2 14.4C19.2 14.5952 19.1941 14.789 19.1827 14.9814C20.6659 13.6628 21.6 11.7406 21.6 9.59999C21.6 5.62355 18.3764 2.4 14.4 2.4Z" fill="#888888"/>
</g>
<defs>
<clipPath id="clip0_1440_30526">
<rect width="24" height="24" fill="white"/>
</clipPath>
</defs>
</svg>
