<svg width="24" height="24" viewBox="0 0 24 24" fill="none" xmlns="http://www.w3.org/2000/svg">
<path fill-rule="evenodd" clip-rule="evenodd" d="M23 13.1395C23 12.7598 22.892 12.388 22.6885 12.0675C22.5477 11.8457 22.3646 11.6539 22.1496 11.5029C21.9346 11.3519 21.692 11.2448 21.4356 11.1875C21.1792 11.1303 20.9141 11.1242 20.6553 11.1695C20.3965 11.2148 20.1492 11.3106 19.9275 11.4515L11.979 16.5L4.075 11.4605C3.77268 11.2678 3.42412 11.1599 3.0658 11.1481C2.70748 11.1363 2.35258 11.2211 2.03824 11.3935C1.7239 11.5659 1.46169 11.8196 1.27903 12.1281C1.09638 12.4366 1 12.7885 1 13.147V20C1 20.7956 1.31607 21.5587 1.87868 22.1213C2.44129 22.6839 3.20435 23 4 23H20C20.7956 23 21.5587 22.6839 22.1213 22.1213C22.6839 21.5587 23 20.7956 23 20V13.1395ZM19.1213 2.87868C18.5587 2.31607 17.7956 2 17 2H7C6.20435 2 5.44129 2.31607 4.87868 2.87868C4.31607 3.44129 4 4.20435 4 5V10L12.0165 15L20 10V5C20 4.20435 19.6839 3.44129 19.1213 2.87868ZM11.9999 10.9977C12.2327 10.9977 12.4561 10.9057 12.6214 10.7417V10.7422L14.8994 8.47722L14.9359 8.43972C15.3039 8.05535 15.5063 7.54185 15.4995 7.00975C15.4927 6.47765 15.2772 5.96951 14.8994 5.59472C14.5138 5.21235 13.9927 4.99781 13.4497 4.99781C12.9066 4.99781 12.3855 5.21235 11.9999 5.59472C11.6143 5.21235 11.0932 4.99781 10.5502 4.99781C10.0071 4.99781 9.48604 5.21235 9.10042 5.59472C8.72176 5.97032 8.50613 6.47985 8.50014 7.01316C8.49416 7.54647 8.69829 8.06071 9.06842 8.44472L9.10042 8.47672L11.3784 10.7417C11.5437 10.9057 11.7671 10.9977 11.9999 10.9977Z" fill="#888888"/>
</svg>
