<svg width="24" height="24" viewBox="0 0 24 24" fill="none" xmlns="http://www.w3.org/2000/svg">
<g clip-path="url(#clip0_1440_30514)">
<path d="M10.7838 0.0599879C5.24833 0.605992 0.740844 5.02417 0.0861712 10.5483C-0.312204 13.9135 0.69627 17.0307 2.58228 19.4209L1.90254 22.9281C1.83011 23.2986 2.1867 23.6078 2.54328 23.4852L5.90858 22.3264C8.10104 23.6217 10.7309 24.2569 13.5362 23.9031C19.0494 23.2067 23.4343 18.6771 23.9469 13.1446C24.6461 5.59246 18.3418 -0.683804 10.7838 0.0599879ZM19.211 14.7018C19.211 15.0361 18.9407 15.3063 18.6064 15.3063H16.3638C16.0295 15.3063 15.7593 15.0361 15.7593 14.7018V11.4397C15.7593 11.1361 15.985 10.8965 16.2747 10.8519C15.8986 9.01613 14.2689 7.62883 12.3244 7.62883C10.3771 7.62883 8.75014 9.01334 8.37405 10.8519C8.66378 10.8965 8.88943 11.1361 8.88943 11.4397V14.7018C8.88943 15.0361 8.6192 15.3063 8.2849 15.3063H7.90603C7.9896 16.6463 8.99808 17.7271 10.3074 17.9193C10.3771 17.7411 10.5498 17.6129 10.7559 17.6129H12.6141C12.8815 17.6129 13.0988 17.8302 13.0988 18.0976V19.1089C13.0988 19.3763 12.8815 19.5936 12.6141 19.5936H10.7476C10.5247 19.5936 10.3464 19.4404 10.2879 19.2342C8.26819 19.0281 6.68304 17.3594 6.59668 15.3091H6.03394C5.69964 15.3091 5.42942 15.0389 5.42942 14.7046V11.4397C5.42942 11.1054 5.69964 10.8352 6.03394 10.8352H6.08687C6.49639 7.75419 9.1318 5.36682 12.3216 5.36682C15.5114 5.36682 18.1468 7.75141 18.5563 10.8324H18.6092C18.9435 10.8324 19.2138 11.1026 19.2138 11.4369V14.7018H19.211Z" fill="#888888"/>
</g>
<defs>
<clipPath id="clip0_1440_30514">
<rect width="24" height="24" fill="white"/>
</clipPath>
</defs>
</svg>
