<svg width="24" height="24" viewBox="0 0 24 24" fill="none" xmlns="http://www.w3.org/2000/svg">
<path fill-rule="evenodd" clip-rule="evenodd" d="M7 1C3.68629 1 1 3.68629 1 7V17C1 20.3137 3.68629 23 7 23H17C20.3137 23 23 20.3137 23 17V7C23 3.68629 20.3137 1 17 1H7ZM5.58333 17.5637C6.16763 17.9721 6.79463 18.3235 7.45628 18.61C8.41937 17.2019 10.0383 16.2778 11.8731 16.2778C13.6568 16.2778 15.2365 17.1511 16.2079 18.4935C16.8612 18.1896 17.4787 17.8216 18.0523 17.3977C16.7035 15.4298 14.439 14.1389 11.8731 14.1389C9.23569 14.1389 6.91682 15.5028 5.58333 17.5637ZM8.02078 9.32639C8.02078 11.3936 9.6966 13.0694 11.7638 13.0694C13.8311 13.0694 15.5069 11.3936 15.5069 9.32639C15.5069 7.25915 13.8311 5.58333 11.7638 5.58333C9.6966 5.58333 8.02078 7.25915 8.02078 9.32639ZM13.368 9.32639C13.368 10.2123 12.6498 10.9306 11.7638 10.9306C10.8779 10.9306 10.1597 10.2123 10.1597 9.32639C10.1597 8.44043 10.8779 7.72222 11.7638 7.72222C12.6498 7.72222 13.368 8.44043 13.368 9.32639Z" fill="white"/>
</svg>
