<svg width="32" height="32" fill="none" xmlns="http://www.w3.org/2000/svg"><g clip-path="url(#a)"><path d="M31.952 16c0 8.793-7.128 15.922-15.922 15.922C7.237 31.922.108 24.793.108 16 .108 7.206 7.237.078 16.03.078 24.824.078 31.952 7.206 31.952 16Z" fill="#8AC072"/><path d="M21.92 16.397a1.74 1.74 0 0 1 .116 1.334 1.735 1.735 0 0 1-.86 1.026l-4.151 2.158-1.615-3.104 4.15-2.159a1.752 1.752 0 0 1 2.36.745m-3.693-5.99a1.738 1.738 0 0 1 1.026.861c.445.856.11 1.914-.745 2.36l-4.15 2.158-1.616-3.104 4.151-2.159a1.74 1.74 0 0 1 1.334-.116Zm.687-2.176a4.006 4.006 0 0 0-3.074.268l-.549.285-1.343-2.58-1.972 1.025 1.342 2.581-1.684.876-1.342-2.581-.473.246-1.914.995L9.2 11.834l-2.332 1.214 1.15 2.21 2.332-1.213 4.186 8.047-2.333 1.213 1.15 2.211 2.333-1.213 1.092 2.1.472-.245 1.915-.996-1.141-2.193 1.688-.878 1.14 2.193 1.965-1.022-1.14-2.193.552-.288a4.012 4.012 0 0 0 1.984-2.363 4.003 4.003 0 0 0-.267-3.074 4.017 4.017 0 0 0-2.421-1.997 4.02 4.02 0 0 0-.247-3.132 4.006 4.006 0 0 0-2.363-1.984" fill="#fff"/></g><defs><clipPath id="a"><path fill="#fff" d="M0 0h32v32H0z"/></clipPath></defs></svg>