<svg width="32" height="32" fill="none" xmlns="http://www.w3.org/2000/svg"><g clip-path="url(#a)"><path d="M.03 16.006a16 16 0 1 0 32 0 16 16 0 0 0-32 0Z" fill="#F7931A"/><path d="m20.392 16.073-.18-.048a2.928 2.928 0 0 0 1.463-5.668l-1.3-.348.772-2.885-1.854-.497-.773 2.885-1.487-.399.774-2.89-1.857-.497-.775 2.89-3.404-.912-.542 2.021 2.37.635-2.478 9.248-2.37-.636-.541 2.022 3.404.913-.8 2.989 1.857.497.8-2.989 1.488.398-.801 2.989 1.855.497.8-2.989 1.533.411a3.96 3.96 0 0 0 4.85-2.8 3.95 3.95 0 0 0-2.804-4.837Zm-3.736-4.963 1.339.36.888.238c.36.096.655.286.887.555.407.44.58 1.08.414 1.698a1.815 1.815 0 0 1-1.208 1.264 1.74 1.74 0 0 1-1.045.037l-.889-.238-1.339-.359.953-3.554Zm.806 9.769a.293.293 0 0 1-.107-.015l-1.751-.47-1.34-.358.953-3.555 1.34.359 1.75.47c.04.01.065.016.1.04.917.287 1.454 1.272 1.202 2.213-.252.94-1.21 1.525-2.147 1.316Z" fill="#fff"/></g><defs><clipPath id="a"><path fill="#fff" d="M0 0h32v32H0z"/></clipPath></defs></svg>