<svg width="32" height="32" fill="none" xmlns="http://www.w3.org/2000/svg"><g clip-path="url(#a)"><path d="M31.99 16.077c0 8.793-7.128 15.92-15.92 15.92-8.793 0-15.921-7.127-15.921-15.92S7.277.157 16.069.157c8.793 0 15.92 7.127 15.92 15.92Z" fill="#C3A723"/><path d="M17.712 21.503h-3.519v-4.537h3.49v-1.83h-3.49v-4.458H17.5s4.07 0 4.07 5.036c0 5.94-3.858 5.789-3.858 5.789m-.547-14.01h-6.21v7.642H8.887v1.83h2.07v7.722h6.607s7.244.239 7.244-9.194c0-8-7.642-8-7.642-8Z" fill="#fff"/></g><defs><clipPath id="a"><path fill="#fff" d="M0 0h32v32H0z"/></clipPath></defs></svg>