<svg width="32" height="32" fill="none" xmlns="http://www.w3.org/2000/svg"><g clip-path="url(#a)"><path d="M31.971 15.995c0 8.793-7.127 15.92-15.92 15.92S.131 24.788.131 15.995 7.258.075 16.05.075s15.92 7.127 15.92 15.92Z" fill="#659172"/><path d="m9.82 17.927 6.133 3.07v4.938l-6.132-8.008Zm12.662 0-6.154 8.008v-4.937l6.154-3.07Z" fill="#fff"/><path d="M22.897 14.227 16.132 3.524l-6.96 10.703 6.96-2.885 6.765 2.885ZM9.445 17.175l6.766 10.479 6.96-10.479-6.96 4.166-6.766-4.166Z" fill="#fff"/><path d="m23.171 15.8-7.04-2.933-6.96 2.932 6.96 4.17 7.04-4.17Z" fill="#fff"/></g><defs><clipPath id="a"><path fill="#fff" d="M0 0h32v32H0z"/></clipPath></defs></svg>