<svg width="32" height="32" viewBox="0 0 32 32" fill="none" xmlns="http://www.w3.org/2000/svg">
<g clip-path="url(#clip0_696_7370)">
<path d="M31.9714 15.9946C31.9714 24.7875 24.8438 31.915 16.051 31.915C7.25843 31.915 0.130554 24.7875 0.130554 15.9946C0.130554 7.20194 7.25843 0.0742188 16.051 0.0742188C24.8438 0.0742188 31.9714 7.20194 31.9714 15.9946Z" fill="#659172"/>
<path d="M9.8208 17.9272L15.9532 20.9978V25.9353L9.8208 17.9272ZM22.4823 17.9272L16.328 25.9354V20.9978L22.4823 17.9272Z" fill="white"/>
<path d="M22.8972 14.2269L16.132 3.52393L9.17139 14.2269L16.132 11.3416L22.8972 14.2269ZM9.44533 17.1751L16.2106 27.6539L23.1712 17.1751L16.2106 21.3412L9.44533 17.1751Z" fill="white"/>
<path d="M23.1711 15.7995L16.1317 12.8667L9.17114 15.7995L16.1317 19.9682L23.1711 15.7995Z" fill="white"/>
</g>
<defs>
<clipPath id="clip0_696_7370">
<rect width="32" height="32" fill="white"/>
</clipPath>
</defs>
</svg>
