<svg width="32" height="32" fill="none" xmlns="http://www.w3.org/2000/svg"><g clip-path="url(#a)"><path d="M31.971 15.995c0 8.793-7.127 15.92-15.92 15.92S.131 24.788.131 15.995 7.258.075 16.05.075s15.92 7.127 15.92 15.92Z" fill="#1BA27A"/><path d="M23.523 8.102H8.448v3.64h5.718v5.349h3.639v-5.35h5.718V8.103Z" fill="#fff"/><path d="M16.02 17.66c-4.73 0-8.565-.748-8.565-1.672 0-.923 3.835-1.672 8.565-1.672 4.73 0 8.564.749 8.564 1.672 0 .924-3.834 1.672-8.564 1.672Zm9.617-1.393c0-1.19-4.306-2.156-9.617-2.156-5.311 0-9.617.965-9.617 2.156 0 1.049 3.339 1.922 7.763 2.116v7.679h3.639v-7.676c4.458-.188 7.832-1.065 7.832-2.12Z" fill="#fff"/><g clip-path="url(#b)"><g clip-path="url(#c)"><path d="M15.934 0C9.2 0 3.497 4.147 1.037 10.104h29.666C28.503 4.147 22.672 0 15.934 0Z" fill="#F93"/><path d="M.91 21.12C2.98 27.465 9.071 32 16.065 32c6.993 0 12.953-4.534 15.156-10.88H.909Z" fill="#138808"/><path d="M32 16.065c0-2.071-.388-4.146-1.165-5.959H1.165C.388 11.922 0 13.994 0 16.066c0 1.815.26 3.496.907 5.053H31.09c.65-1.557.909-3.369.909-5.053Z" fill="#fff"/><path d="m20.631 14.047-.49-.153.28-.269.492.153-.282.269Zm.485 1.169-.4-.219.4-.218.403.218-.403.219Zm-.081 1.2-.288-.272.49-.153.285.269-.487.156Zm-.66 1.147-.147-.303.55-.079.15.3c0-.003-.553.082-.553.082Z" fill="#006"/><path d="m20.406 14.047-.268-.153.153-.27.268.154-.153.269Zm.266 1.169-.219-.222.219-.219.219.219-.219.222Zm-.047 1.2-.156-.272.269-.153.156.268c-.003 0-.269.157-.269.157Zm-.356 1.146-.079-.303.3-.078.082.3-.303.081Zm-4.598-6.509-.218.222-.222-.222.222-.219.219.22Zm1.204.05-.269.153-.153-.268.269-.153.153.268Zm1.144.353-.3.081-.079-.3.3-.08.079.3Zm.706.332h.31v.309h-.31v-.31Zm1.122 1.193-.3-.08.081-.301.3.081-.081.3Zm-.216 5.597v-.31h.31v.31h-.31Zm-.884.813.078-.3.3.081-.078.3-.3-.081Zm-1.063.56.156-.27.27.153-.154.27c-.003 0-.272-.154-.272-.154Zm-1.175.265.222-.219.219.219-.219.218-.222-.218Zm-1.197-.047.273-.156.153.268-.27.154c0-.004-.155-.266-.155-.266Zm-1.15-.356.3-.081.079.3-.3.08-.078-.3Zm-1.015-.64h.309v.308h-.31v-.309Zm-.813-.886.3.082-.081.3-.3-.082.081-.3Zm-.56-1.062.27.153-.157.269-.268-.153.156-.27Zm-.261-1.172.221.219-.222.219-.218-.22.218-.218Zm.043-1.197.157.272-.27.153-.152-.268.265-.157Zm.06-1.065.3-.081.08.3-.299.08-.082-.3Zm.94-1.1V13h-.31v-.31h.31Zm.881-.813-.078.3-.3-.081.079-.3.3.081Zm1.066-.56-.153.273-.269-.153.153-.27.269.15Zm1.494 4.304.131-1.831-.144-2.757-.128 2.76.14 1.828Zm0 0 .6-1.737.575-2.7-.838 2.63c-.003.004-.337 1.807-.337 1.807Z" fill="#006"/><path d="m15.997 15.622 1.028-1.519 1.256-2.459-1.493 2.325-.791 1.653Zm0 0 1.388-1.2 1.846-2.054-2.04 1.863-1.194 1.39Zm0 0 1.65-.803 2.313-1.5-2.454 1.268c.003 0-1.51 1.035-1.51 1.035Zm0 0 1.8-.35 2.628-.854-2.697.588-1.731.616Z" fill="#006"/><path d="m15.997 15.622 1.831.131 2.757-.144-2.757-.128-1.831.141Zm0 0 1.737.6 2.703.575-2.63-.837-1.81-.338Zm0 0 1.522 1.031 2.46 1.257-2.326-1.488-1.656-.8Zm0 0 1.2 1.387 2.053 1.85-1.862-2.043c.002 0-1.391-1.194-1.391-1.194Zm0 0 .803 1.65 1.503 2.312-1.268-2.453c0 .003-1.038-1.51-1.038-1.51Zm0 0 .346 1.803.854 2.625-.587-2.697-.613-1.73v-.001Z" fill="#006"/><path d="m16.056 15.622-.134 1.831.153 2.76.135-2.76-.154-1.831Zm0 0-.63 1.735-.607 2.703.88-2.632.357-1.806Zm-.059 0-1.032 1.52-1.25 2.459 1.488-2.325.793-1.654h.001Zm0 0-1.387 1.2-1.851 2.053 2.044-1.856 1.194-1.397Zm0 0-1.65.803-2.319 1.503 2.454-1.269 1.515-1.037Zm0 0-1.8.35-2.628.854 2.697-.588a273.93 273.93 0 0 1 1.73-.616h.001Zm0 0-1.829-.131-2.758.147 2.758.128 1.829-.144Zm0 0-1.735-.6-2.7-.572 2.632.835 1.803.337Zm0 0-1.52-1.031-2.458-1.25 2.325 1.488c-.003 0 1.653.793 1.653.793Zm0 0-1.2-1.387-2.053-1.847 1.862 2.04c-.003 0 1.39 1.194 1.39 1.194h.001Zm0 0-.803-1.65-1.503-2.312 1.268 2.453 1.038 1.51v-.001Zm0 0-.347-1.803-.856-2.628.59 2.7.613 1.73Z" fill="#006"/><path d="M17.44 10.607a5.201 5.201 0 0 0-5.48 1.862 5.217 5.217 0 0 0-.38 5.775 5.21 5.21 0 0 0 7.947 1.311 5.2 5.2 0 0 0 1.595-2.57 5.204 5.204 0 0 0-.522-3.954 5.185 5.185 0 0 0-3.16-2.425Zm-2.546 9.488a4.62 4.62 0 0 1 1.494-9.07 4.613 4.613 0 0 1 4.155 5.8 4.609 4.609 0 0 1-5.65 3.27Z" fill="#006"/><path d="M16.988 15.875a.926.926 0 1 1-1.7.225.934.934 0 0 1 .507-1.346.926.926 0 0 1 1.1.418.929.929 0 0 1 .093.703Zm1.03-4.419-.3.081-.078-.3.3-.08.079.3Zm.707.332h.31v.309h-.31v-.31Zm1.122 1.193-.3-.08.081-.301.3.081-.081.3Zm-.216 5.597v-.31h.31v.31h-.31Zm-.884.813.078-.3.3.081-.078.3-.3-.081Zm-1.063.56.156-.27.27.153-.154.27c-.003 0-.272-.154-.272-.154Zm-1.175.265.222-.219.219.219-.219.218-.222-.218Zm-1.197-.047.273-.156.153.268-.27.154c0-.004-.155-.266-.155-.266Zm-1.15-.356.3-.081.079.3-.3.08-.078-.3Zm-1.015-.64h.309v.308h-.31v-.309Zm-.813-.886.3.082-.081.3-.3-.082.081-.3Zm-.56-1.062.27.153-.157.269-.268-.153.156-.27Zm-.261-1.172.221.219-.222.219-.218-.22.218-.218Zm.043-1.197.157.272-.27.153-.152-.268.265-.157Zm.06-1.065.3-.081.08.3-.299.08-.082-.3Zm.94-1.1V13h-.31v-.31h.31Zm.881-.813-.078.3-.3-.081.079-.3.3.081Zm1.066-.56-.153.273-.269-.153.153-.27.269.15Zm1.169-.265-.219.222-.222-.222.222-.219.219.22Z" fill="#006"/></g></g></g><defs><clipPath id="a"><path fill="#fff" d="M0 0h32v32H0z"/></clipPath><clipPath id="b"><path fill="#fff" d="M0 0h32v32H0z"/></clipPath><clipPath id="c"><path fill="#fff" d="M0 0h32v32H0z"/></clipPath></defs></svg>