<svg width="32" height="32" fill="none" xmlns="http://www.w3.org/2000/svg"><g clip-path="url(#a)"><path d="M16 32c8.837 0 16-7.163 16-16S24.837 0 16 0 0 7.163 0 16s7.163 16 16 16Z" fill="#384182"/><path d="m9.5 27 3.618-16.789 2.03 12.6L9.5 27Zm3.688-16.885 5.497 12.709-3.443-.06-2.054-12.65v.001Zm.082-.096 7.2 1.023-1.668 11.782-5.532-12.805Zm5.66 12.624 1.623-11.493 1.062 1.348-2.685 10.145Zm1.517-11.71-7.026-.999 6.326-2.082.7 3.08Zm-7.06-1.107 4.306-2.985 2.054.903-6.36 2.082Zm-.106-.036.83-1.589 3.512-1.408-4.342 2.997Zm.83-1.66.396-1.24 2.894-.097-3.29 1.336v.001Zm.373-1.337.933-.999 2.008.903-2.941.096Zm.992-1.059 1.4-.686 1.81 2.118-3.21-1.432Zm1.6-.602 2.088.915-.374 1.131-1.715-2.046Zm1.784 2.082.385-1.155.467 1.589-.852-.434ZM16.923 5h1.529l.757.842a.047.047 0 0 1 .01.045.048.048 0 0 1-.032.033.048.048 0 0 1-.032-.002L16.923 5Zm2.416.963 3.11.868a.072.072 0 0 1 .04.114.072.072 0 0 1-.04.026l-2.643.725-.467-1.733Z" fill="#fff"/></g><defs><clipPath id="a"><path fill="#fff" d="M0 0h32v32H0z"/></clipPath></defs></svg>