<svg width="34" height="36" fill="none" xmlns="http://www.w3.org/2000/svg"><path d="M33.964 17.274c-.219-6.035-3.946-10.148-3.946-10.148C24.255.363 16.863.994 16.863.994 8.969.742 4.115 6.75 4.115 6.75.795 10.732.42 14.4.42 14.4c-1.472 6.164 1.597 11.475 1.597 11.475 2.286 4.172 4.698 6.103 8.613 7.933 3.915 1.836 9.868 1.584 13.563-.281 3.696-1.867 5.95-3.922 8.018-7.809 2.066-3.89 1.754-8.444 1.754-8.444M15.266 31.282s-6.202-.347-9.616-6.355c0 0-2.946-4.237-1.724-9.516 1.222-5.28 4.072-7.396 4.637-7.933.564-.537 4.213-2.73 6.702-2.69v6.292h-2.63s-3.571.221-3.697 4.204v5.818s.095 3.573 3.79 3.983h2.537v6.197m-2.13-9.895s-.626.158-.72-.568v-5.565s.094-.6.564-.6h7.736s.659-.129.72.6v5.406s.158.854-.469.727h-7.831m15.067 4.077c-2.507 3.857-7.268 5.628-9.491 5.818v-6.197h2.944s3.134-.631 3.32-3.92v-6.607s-.503-3.318-3.976-3.478H18.71V4.79s3.915.314 7.078 3.256c3.164 2.94 3.977 5.88 4.323 7.461.344 1.581.595 6.1-1.91 9.957Z" fill="#9E1F31"/></svg>