<svg width="34" height="36" fill="none" xmlns="http://www.w3.org/2000/svg"><path d="M15.754 1.912s2.96-2.268 8.049-.619c0 0 1.712.62 3.685 2.372l6.127 6.394-3.27 3.25-9.346-9.438s-1.558-1.908-5.245-1.959Zm13.5 12.531-3.842 3.712s-.623.878-1.143.053l-7.061-6.858s-.623-.825-1.09-.104l-7.114 7.22s-.467.72.104 1.03l6.957 6.91s.572.928 1.091.206l7.217-7.219s.208-.619 1.35-.464h7.373s.312 7.426-5.4 12.067c0 0-7.424 7.373-17.601 2.836 0 0-9.813-3.404-9.709-16.037 0 0 .259-8.457 7.995-12.943 0 0 5.66-4.178 10.177-1.083l10.696 10.674Z" fill="#003A90"/></svg>