<svg width="34" height="34" fill="none" xmlns="http://www.w3.org/2000/svg"><g clip-path="url(#a)"><path d="m3.5 16.943.116-1.38.116-1.263.343-1.38.46-1.146.574-1.265.69-1.034.344-.574.46-.46.806-1.032 1.034-.806L9.476 5.8l1.146-.69 1.15-.575 1.264-.46 1.263-.343.69-.117.688-.115h2.76l1.263.231 1.378.343 1.15.46 1.263.576 1.034.69.574.344.459.46 1.034.804.803 1.033.805 1.034.689 1.034.576 1.264.46 1.148.344 1.379.114.574.115.69v2.757l-.229 1.378-.345 1.265-.46 1.262-.575 1.15-.69 1.15-.345.573-.459.46-.803.918-1.034.919-1.033.804-1.034.69-1.264.575-1.15.46-1.378.344-.574.115h-.689l-.69.115h-.69l-1.379-.115-1.378-.115-1.263-.344-1.263-.46-1.15-.575-1.147-.69-.575-.345-.458-.46-1.034-.918-.807-.918-.803-1.033-.69-1.15-.574-1.15-.46-1.262-.343-1.265-.117-.689v-.69l-.116-.688v-.689Zm-3.33 0 .116 1.723.114.92.114.804.46 1.608.23.803.344.69.345.803.345.691.803 1.377.459.69.575.688 1.034 1.15.574.575.577.46.689.575.689.459.688.459.69.345 1.494.689 1.493.574.804.23.803.229.805.116.918.115 1.723.113 1.724-.113.804-.115.805-.116 1.608-.46.803-.23.805-.343.688-.344.69-.345 1.493-.804.575-.46.69-.574 1.148-1.035.576-.574.574-.575.46-.689.458-.69.46-.689.345-.688.805-1.494.574-1.493.114-.805.23-.803.115-.804.115-.92.115-1.723-.115-1.725-.115-.802-.115-.806-.344-1.607-.345-.805-.23-.804-.344-.688-.46-.689-.805-1.494-.459-.574-.459-.69-1.15-1.149-.574-.575-.574-.574-.69-.46-.575-.46-.688-.458-.804-.344-1.378-.806-1.608-.574-.803-.23-.806-.114-.804-.116-.804-.114L17.056.17l-1.722.114-.918.114-.805.116-1.608.344-.805.345-.688.229-.804.345-.69.461-1.377.802-.69.46-.689.46-1.15 1.15-.574.574-.46.575-.576.69-.459.573-.459.69-.343.805-.69 1.377-.574 1.609-.23.805-.23.802-.114.806-.114.802-.117 1.725Zm26.306-1.15V8.327h-8.27v2.412h5.627v2.757h-5.627v7.468h5.627v2.527h-5.627v2.412h8.27v-7.466H20.85V15.91h5.627v-.117Zm-18.954 0V8.327h8.27v2.412h-5.628v2.757h5.628v7.468h-5.628v2.527h5.628v2.412h-8.27v-7.466h5.629V15.91H7.52v-.117Z" fill="#E50012"/></g><defs><clipPath id="a"><path fill="#fff" transform="matrix(1 0 0 -1 0 34)" d="M0 0h34v34H0z"/></clipPath></defs></svg>