<svg width="34" height="34" fill="none" xmlns="http://www.w3.org/2000/svg"><path fill-rule="evenodd" clip-rule="evenodd" d="M0 17C0 7.611 7.611 0 17 0s17 7.611 17 17-7.611 17-17 17S0 26.389 0 17Z" fill="#fff"/><path d="M26.63 13.04v-1.647a1.46 1.46 0 0 0-1.462-1.461H8.836a1.46 1.46 0 0 0-1.461 1.46v1.648c0 .142.116.258.258.258h18.739a.259.259 0 0 0 .257-.258Zm-.258 1.625H7.632a.259.259 0 0 0-.257.258v8.385c0 .808.653 1.46 1.46 1.46h16.333a1.46 1.46 0 0 0 1.461-1.46v-8.386a.259.259 0 0 0-.258-.257Zm-9.374 5.386-.393 2.23a.258.258 0 0 1-.254.213h-.85a.257.257 0 0 1-.254-.303l.393-2.23a.258.258 0 0 1 .254-.213h.85a.259.259 0 0 1 .254.303Zm2.752 0-.393 2.23a.258.258 0 0 1-.254.213h-.85a.257.257 0 0 1-.254-.303l.393-2.23a.258.258 0 0 1 .254-.213h.85a.259.259 0 0 1 .254.303Zm4.125 0-.393 2.23a.258.258 0 0 1-.254.213h-2.223a.257.257 0 0 1-.254-.303l.393-2.23a.258.258 0 0 1 .254-.213h2.224a.26.26 0 0 1 .253.303Z" fill="#171717"/></svg>