<svg xmlns="http://www.w3.org/2000/svg" width="22" height="22" fill="none"><path d="M20.63 7.04V5.393a1.46 1.46 0 0 0-1.462-1.461H2.836a1.46 1.46 0 0 0-1.461 1.46V7.04c0 .142.116.258.258.258h18.739a.259.259 0 0 0 .257-.258Zm-.258 1.625H1.632a.259.259 0 0 0-.257.257v8.386c0 .808.653 1.46 1.46 1.46h16.333a1.46 1.46 0 0 0 1.461-1.46V8.922a.259.259 0 0 0-.258-.257Zm-9.374 5.386-.393 2.23a.258.258 0 0 1-.254.213h-.85a.257.257 0 0 1-.254-.303l.393-2.23a.258.258 0 0 1 .254-.213h.85a.259.259 0 0 1 .254.303Zm2.752 0-.393 2.23a.258.258 0 0 1-.254.213h-.85a.257.257 0 0 1-.254-.303l.393-2.23a.258.258 0 0 1 .254-.213h.85a.259.259 0 0 1 .254.303Zm4.125 0-.393 2.23a.258.258 0 0 1-.254.213h-2.223a.257.257 0 0 1-.254-.303l.393-2.23a.258.258 0 0 1 .254-.213h2.224a.26.26 0 0 1 .253.303Z" fill="#171717"/></svg>