<svg width="48" height="48" viewBox="0 0 48 48" fill="none" xmlns="http://www.w3.org/2000/svg">
<g clip-path="url(#clip0_1150_13276)">
<path d="M24.0004 0C37.2546 0 48.0004 10.7453 48.0004 24C48.0004 37.2547 37.2546 48 24.0004 48C10.7452 48 0.000366227 37.2542 0.000366227 24C-0.000113773 10.7453 10.7452 0 24.0004 0Z" fill="white"/>
<path d="M25.5222 17.8201C24.48 18.4136 24.1164 19.7395 24.71 20.7817C25.3036 21.8237 26.6296 22.1872 27.6716 21.5937C28.7138 21.0001 29.0774 19.6741 28.4839 18.6319C27.8903 17.5899 26.5641 17.2263 25.5222 17.8199M23.4385 14.1328C22.702 14.5525 22.4447 15.4899 22.8646 16.2265C23.284 16.9632 24.2217 17.2203 24.9582 16.8006C25.695 16.3809 25.9519 15.4435 25.5323 14.7069C25.1126 13.9702 24.1753 13.713 23.4386 14.1328M23.4385 31.2626C22.702 31.6823 22.4447 32.6197 22.8646 33.3564C23.284 34.0932 24.2217 34.3502 24.9582 33.9304C25.695 33.5109 25.9519 32.5733 25.5323 31.8367C25.1126 31.1 24.1753 30.8431 23.4386 31.2626M30.8234 18.3729C30.0867 18.7926 29.8297 19.73 30.2494 20.4667C30.3491 20.6418 30.4824 20.7956 30.6416 20.9193C30.8009 21.043 30.9829 21.134 31.1773 21.1873C31.3717 21.2407 31.5747 21.2551 31.7748 21.23C31.9748 21.2048 32.1679 21.1405 32.3431 21.0407C33.0797 20.6212 33.337 19.6836 32.9171 18.947C32.4974 18.2103 31.56 17.9534 30.8234 18.3729ZM15.9013 26.9505C15.1646 27.3704 14.9076 28.3076 15.3273 29.0442C15.747 29.781 16.6843 30.0381 17.421 29.6183C18.1576 29.1987 18.4149 28.2612 17.995 27.5246C17.5753 26.7881 16.638 26.5311 15.9013 26.9507M15.7998 18.3729C15.0632 18.7926 14.8061 19.73 15.2258 20.4667C15.3256 20.6418 15.4589 20.7956 15.6181 20.9193C15.7773 21.043 15.9593 21.134 16.1538 21.1873C16.3482 21.2407 16.5512 21.2551 16.7512 21.23C16.9512 21.2048 17.1443 21.1405 17.3195 21.0407C18.0562 20.6212 18.3132 19.6836 17.8935 18.947C17.4739 18.2103 16.5365 17.9534 15.7998 18.3729ZM30.8234 26.8491C30.0867 27.2688 29.8297 28.2061 30.2494 28.9428C30.6691 29.6794 31.6064 29.9367 32.3431 29.5168C33.0797 29.0971 33.337 28.1598 32.9171 27.4231C32.4974 26.6864 31.56 26.4294 30.8234 26.8491ZM34.7098 22.9246C34.5705 23.004 34.4483 23.1099 34.35 23.2365C34.2517 23.3631 34.1793 23.5078 34.1369 23.6624C34.0945 23.817 34.083 23.9784 34.103 24.1374C34.123 24.2964 34.1742 24.4499 34.2535 24.5892C34.3329 24.7284 34.4388 24.8507 34.5654 24.949C34.692 25.0473 34.8367 25.1196 34.9913 25.162C35.1459 25.2044 35.3073 25.2159 35.4663 25.1959C35.6253 25.1759 35.7788 25.1247 35.918 25.0454C36.1993 24.8852 36.4053 24.6198 36.4909 24.3076C36.5765 23.9955 36.5345 23.6621 36.3743 23.3809C36.2141 23.0996 35.9487 22.8936 35.6365 22.808C35.3244 22.7225 34.991 22.7644 34.7098 22.9246ZM12.2252 22.9246C12.0859 23.0039 11.9636 23.1099 11.8653 23.2365C11.767 23.3631 11.6946 23.5078 11.6522 23.6623C11.6099 23.8169 11.5983 23.9783 11.6184 24.1373C11.6384 24.2963 11.6895 24.4498 11.7688 24.5891C11.8883 24.7988 12.0673 24.9684 12.2832 25.0764C12.499 25.1844 12.742 25.226 12.9815 25.1959C13.221 25.1657 13.4462 25.0653 13.6286 24.9072C13.811 24.7491 13.9424 24.5405 14.0062 24.3077C14.07 24.0749 14.0634 23.8284 13.9871 23.5994C13.9109 23.3704 13.7684 23.1692 13.5778 23.0211C13.3871 22.8731 13.1569 22.7849 12.9161 22.7677C12.6753 22.7505 12.4349 22.8051 12.2252 22.9246ZM28.5948 14.2981C28.5888 14.6218 28.7117 14.9345 28.9363 15.1676C29.1609 15.4006 29.4689 15.5349 29.7925 15.5408C30.1162 15.5468 30.4289 15.4239 30.662 15.1993C30.895 14.9747 31.0293 14.6667 31.0352 14.3431C31.0412 14.0194 30.9183 13.7067 30.6937 13.4737C30.4691 13.2406 30.1611 13.1063 29.8375 13.1004C29.5138 13.0944 29.2011 13.2173 28.9681 13.4419C28.735 13.6665 28.6007 13.9745 28.5948 14.2981ZM17.1078 33.6271C17.1049 33.7874 17.1335 33.9466 17.1921 34.0958C17.2507 34.245 17.3381 34.3811 17.4493 34.4965C17.5606 34.6119 17.6934 34.7043 17.8403 34.7683C17.9873 34.8324 18.1454 34.8669 18.3056 34.8698C18.4658 34.8728 18.6251 34.8441 18.7743 34.7855C18.9234 34.7269 19.0596 34.6395 19.175 34.5283C19.2904 34.4171 19.3828 34.2842 19.4468 34.1373C19.5109 33.9904 19.5453 33.8323 19.5483 33.672C19.5542 33.3484 19.4314 33.0357 19.2068 32.8026C18.9821 32.5696 18.6741 32.4353 18.3505 32.4294C18.0269 32.4234 17.7142 32.5462 17.4811 32.7709C17.2481 32.9955 17.1138 33.3035 17.1078 33.6271ZM17.7822 15.3397C17.9913 15.4603 18.2314 15.5163 18.4723 15.5004C18.7131 15.4846 18.9439 15.3977 19.1353 15.2507C19.3268 15.1037 19.4704 14.9032 19.5479 14.6747C19.6255 14.4461 19.6335 14.1996 19.5709 13.9665C19.5084 13.7334 19.3781 13.524 19.1966 13.3649C19.0151 13.2058 18.7905 13.1041 18.5511 13.0727C18.3118 13.0412 18.0686 13.0815 17.8521 13.1883C17.6357 13.2951 17.4557 13.4637 17.3351 13.6728C17.1734 13.9532 17.1296 14.2862 17.2135 14.5988C17.2973 14.9114 17.5019 15.1779 17.7822 15.3397ZM29.1408 34.7445C29.2796 34.8246 29.4328 34.8765 29.5917 34.8974C29.7506 34.9183 29.9121 34.9077 30.0669 34.8662C30.2217 34.8247 30.3668 34.7531 30.4939 34.6555C30.621 34.5579 30.7277 34.4362 30.8078 34.2974C30.8879 34.1586 30.9399 34.0054 30.9608 33.8465C30.9817 33.6876 30.9711 33.5261 30.9296 33.3714C30.8881 33.2166 30.8165 33.0715 30.7189 32.9444C30.6213 32.8173 30.4997 32.7106 30.3608 32.6305C30.0806 32.4702 29.7483 32.4275 29.4366 32.5117C29.1249 32.5959 28.8592 32.8001 28.6979 33.0798C28.5365 33.3594 28.4925 33.6916 28.5755 34.0036C28.6585 34.3156 28.8618 34.582 29.1408 34.7445ZM28.0091 22.1638C26.9671 22.7574 26.6035 24.0834 27.1971 25.1254C27.7907 26.1675 29.1167 26.531 30.1589 25.9374C31.2009 25.3437 31.5644 24.0181 30.9709 22.9758C30.3773 21.9338 29.0511 21.5701 28.0091 22.1638ZM25.5222 26.5076C24.48 27.1012 24.1164 28.4272 24.71 29.4692C25.3036 30.5113 26.6296 30.8748 27.6716 30.2812C28.7138 29.6877 29.0774 28.3617 28.4839 27.3196C27.8903 26.2776 26.5641 25.9139 25.5222 26.5076ZM22.6217 17.8201C23.6635 18.4136 24.0272 19.7395 23.4337 20.7817C22.8401 21.8237 21.5139 22.1872 20.4719 21.5937C19.4298 21.0001 19.0663 19.6741 19.6599 18.6319C20.2536 17.5899 21.5796 17.2263 22.6215 17.8199M20.1346 22.1638C21.1766 22.7574 21.5402 24.0834 20.9466 25.1254C20.3531 26.1675 19.027 26.531 17.985 25.9374C16.9428 25.3437 16.5793 24.0181 17.173 22.9758C17.7664 21.9338 19.0926 21.5701 20.1346 22.1638ZM22.6217 26.5076C23.6635 27.1012 24.0272 28.4272 23.4337 29.4692C22.8401 30.5113 21.5139 30.8748 20.4719 30.2812C19.4298 29.6877 19.0663 28.3617 19.6599 27.3196C20.2536 26.2776 21.5796 25.9139 22.6215 26.5076M25.0129 10.3111C25.0129 10.5669 24.9113 10.8122 24.7305 10.9931C24.5496 11.1739 24.3043 11.2755 24.0485 11.2755C23.7927 11.2755 23.5474 11.1739 23.3666 10.9931C23.1857 10.8122 23.0841 10.5669 23.0841 10.3111C23.0841 10.0553 23.1857 9.81002 23.3666 9.62915C23.5474 9.44829 23.7927 9.34668 24.0485 9.34668C24.3043 9.34668 24.5496 9.44829 24.7305 9.62915C24.9113 9.81002 25.0129 10.0553 25.0129 10.3111ZM25.0129 37.5922C25.0129 37.848 24.9113 38.0933 24.7305 38.2741C24.5496 38.455 24.3043 38.5566 24.0485 38.5566C23.7927 38.5566 23.5474 38.455 23.3666 38.2741C23.1857 38.0933 23.0841 37.848 23.0841 37.5922C23.0841 37.3364 23.1857 37.0911 23.3666 36.9102C23.5474 36.7294 23.7927 36.6278 24.0485 36.6278C24.3043 36.6278 24.5496 36.7294 24.7305 36.9102C24.9113 37.0911 25.0129 37.3364 25.0129 37.5922ZM12.6755 16.359C12.7863 16.4213 12.8837 16.5049 12.9622 16.605C13.0406 16.7051 13.0984 16.8197 13.1324 16.9423C13.1664 17.0648 13.1757 17.1928 13.16 17.319C13.1443 17.4452 13.1038 17.567 13.0408 17.6775C12.9778 17.788 12.8936 17.8849 12.7931 17.9627C12.6925 18.0405 12.5775 18.0976 12.4548 18.1308C12.332 18.164 12.2039 18.1726 12.0778 18.1561C11.9517 18.1396 11.8302 18.0983 11.7201 18.0346C11.4996 17.9071 11.3385 17.6975 11.272 17.4516C11.2055 17.2057 11.239 16.9434 11.3652 16.7221C11.4914 16.5008 11.7 16.3384 11.9454 16.2704C12.1909 16.2024 12.4534 16.2342 12.6755 16.359ZM36.3768 29.8685C36.4876 29.9308 36.5851 30.0144 36.6635 30.1145C36.7419 30.2146 36.7998 30.3292 36.8337 30.4517C36.8677 30.5743 36.8771 30.7023 36.8613 30.8285C36.8456 30.9547 36.8051 31.0765 36.7421 31.187C36.6791 31.2974 36.5949 31.3943 36.4944 31.4721C36.3938 31.5499 36.2788 31.6071 36.1561 31.6403C36.0333 31.6734 35.9052 31.682 35.7791 31.6655C35.6531 31.649 35.5315 31.6078 35.4214 31.5441C35.2009 31.4165 35.0398 31.2069 34.9733 30.961C34.9068 30.7151 34.9403 30.4529 35.0665 30.2316C35.1927 30.0103 35.4013 29.8479 35.6468 29.7799C35.8923 29.7118 36.1547 29.7437 36.3768 29.8685ZM11.7176 29.8623C11.8277 29.7972 11.9497 29.7547 12.0765 29.7372C12.2033 29.7197 12.3323 29.7277 12.4559 29.7605C12.5796 29.7934 12.6955 29.8506 12.7969 29.9287C12.8982 30.0068 12.983 30.1043 13.0463 30.2155C13.1096 30.3267 13.1502 30.4494 13.1656 30.5764C13.181 30.7035 13.171 30.8323 13.1361 30.9554C13.1012 31.0785 13.0422 31.1935 12.9625 31.2936C12.8827 31.3937 12.7838 31.4769 12.6716 31.5384C12.4497 31.66 12.1888 31.6895 11.9453 31.6205C11.7018 31.5515 11.4952 31.3896 11.37 31.1697C11.2448 30.9498 11.2111 30.6894 11.2761 30.4448C11.3411 30.2002 11.4997 29.991 11.7176 29.8623ZM35.4254 16.3648C35.5356 16.3001 35.6575 16.2579 35.784 16.2407C35.9106 16.2236 36.0393 16.2317 36.1628 16.2647C36.2862 16.2976 36.4018 16.3548 36.5029 16.4328C36.6041 16.5109 36.6887 16.6082 36.7519 16.7192C36.8151 16.8303 36.8556 16.9527 36.8711 17.0795C36.8866 17.2063 36.8767 17.3349 36.8421 17.4579C36.8075 17.5808 36.7487 17.6957 36.6693 17.7958C36.59 17.8958 36.4915 17.9791 36.3796 18.0409C36.1577 18.1625 35.8968 18.192 35.6533 18.123C35.4098 18.054 35.2032 17.8921 35.078 17.6722C34.9528 17.4522 34.9191 17.1919 34.9841 16.9473C35.0491 16.7027 35.2077 16.4935 35.4256 16.3648M17.1715 10.9202C17.1715 11.1289 17.0886 11.3292 16.941 11.4768C16.7934 11.6244 16.5932 11.7073 16.3844 11.7073C16.1756 11.7073 15.9754 11.6244 15.8278 11.4768C15.6802 11.3292 15.5972 11.1289 15.5972 10.9202C15.5972 10.7114 15.6802 10.5112 15.8278 10.3636C15.9754 10.216 16.1756 10.133 16.3844 10.133C16.5932 10.133 16.7934 10.216 16.941 10.3636C17.0886 10.5112 17.1715 10.7114 17.1715 10.9202ZM32.5455 37.0084C32.5455 37.2172 32.4626 37.4174 32.315 37.565C32.1674 37.7126 31.9672 37.7955 31.7584 37.7955C31.5497 37.7955 31.3495 37.7126 31.2019 37.565C31.0543 37.4174 30.9714 37.2172 30.9714 37.0084C30.9743 36.8016 31.0585 36.6043 31.2058 36.4591C31.3531 36.3139 31.5516 36.2325 31.7584 36.2325C31.9653 36.2325 32.1638 36.3139 32.3111 36.4591C32.4583 36.6043 32.5426 36.8016 32.5455 37.0084ZM32.1091 11.5888C32.0188 11.6391 31.9194 11.6712 31.8168 11.6831C31.7141 11.695 31.61 11.6866 31.5106 11.6583C31.4112 11.63 31.3183 11.5824 31.2373 11.5182C31.1562 11.454 31.0886 11.3745 31.0383 11.2842C30.988 11.1939 30.956 11.0946 30.9441 10.9919C30.9322 10.8892 30.9406 10.7852 30.9689 10.6858C30.9972 10.5863 31.0448 10.4934 31.1089 10.4124C31.1731 10.3314 31.2526 10.2638 31.343 10.2135C31.5253 10.1119 31.7406 10.0869 31.9414 10.144C32.1422 10.2011 32.3121 10.3357 32.4137 10.5181C32.5153 10.7005 32.5403 10.9157 32.4831 11.1165C32.426 11.3174 32.2915 11.4872 32.1091 11.5888ZM16.7999 37.715C16.6176 37.8166 16.4023 37.8416 16.2015 37.7844C16.0007 37.7273 15.8308 37.5928 15.7292 37.4104C15.6276 37.228 15.6026 37.0127 15.6598 36.8119C15.7169 36.6111 15.8514 36.4412 16.0338 36.3396C16.2162 36.238 16.4315 36.2131 16.6323 36.2702C16.8332 36.3273 17.0031 36.4619 17.1046 36.6443C17.2062 36.8267 17.2312 37.042 17.1741 37.2428C17.1169 37.4437 16.9824 37.6136 16.7999 37.7151M38.8144 24.6029C38.6342 24.4975 38.5034 24.3247 38.4506 24.1228C38.3978 23.9208 38.4274 23.7062 38.5329 23.5261C38.6384 23.3459 38.8111 23.2151 39.0131 23.1623C39.215 23.1095 39.4297 23.1391 39.6098 23.2446C39.699 23.2968 39.777 23.3661 39.8394 23.4485C39.9018 23.5309 39.9474 23.6248 39.9735 23.7248C39.9997 23.8248 40.0059 23.9289 39.9917 24.0313C39.9776 24.1337 39.9435 24.2323 39.8912 24.3215C39.839 24.4107 39.7697 24.4887 39.6873 24.5511C39.6049 24.6135 39.5111 24.6591 39.4111 24.6852C39.2091 24.738 38.9945 24.7084 38.8144 24.6029ZM8.53312 24.684C8.35297 24.5785 8.22212 24.4057 8.16936 24.2037C8.11659 24.0017 8.14623 23.787 8.25175 23.6069C8.35728 23.4267 8.53004 23.2959 8.73204 23.2431C8.93404 23.1904 9.14872 23.22 9.32887 23.3255C9.50904 23.431 9.6399 23.6038 9.69269 23.8058C9.74547 24.0078 9.71584 24.2226 9.61031 24.4027C9.50479 24.5829 9.33202 24.7138 9.13 24.7665C8.92799 24.8193 8.71328 24.7897 8.53312 24.6842" fill="black"/>
</g>
<defs>
<clipPath id="clip0_1150_13276">
<rect width="48" height="48" fill="white"/>
</clipPath>
</defs>
</svg>
