<svg width="48" height="48" viewBox="0 0 48 48" fill="none" xmlns="http://www.w3.org/2000/svg">
<g clip-path="url(#clip0_1150_15645)">
<path d="M23.9883 0C37.2381 0 47.9766 10.7385 47.9766 23.9883C47.9766 37.2381 37.2381 47.9766 23.9883 47.9766C10.7385 47.9766 0 37.2381 0 23.9883C0 10.7385 10.7432 0 23.9883 0Z" fill="#3E5BF2"/>
<path d="M19.1345 23.9886L22.3766 39.3561L12.8844 31.8223V16.1549L22.3766 8.62109L19.1345 23.9792V23.9839V23.9886Z" fill="white"/>
<path d="M22.2314 26.7528L33.3728 33.1856L24.991 39.8386L22.2314 26.7528ZM22.1517 21.6038L24.991 8.13379L33.6164 14.9836L22.1517 21.6038ZM35.097 16.9654V31.3443L22.6484 24.1525L35.097 16.9654Z" fill="white"/>
</g>
<defs>
<clipPath id="clip0_1150_15645">
<rect width="48" height="48" fill="white"/>
</clipPath>
</defs>
</svg>
