<svg width="24" height="24" viewBox="0 0 24 24" fill="none" xmlns="http://www.w3.org/2000/svg"><path d="M20.177.225H7.052A2.337 2.337 0 0 0 4.727 2.55v.75h-.675a2.337 2.337 0 0 0-2.325 2.325v15.75A2.337 2.337 0 0 0 4.052 23.7h13.125a2.337 2.337 0 0 0 2.325-2.325v-.75h.675a2.337 2.337 0 0 0 2.325-2.325V2.55c-.075-1.275-1.05-2.325-2.325-2.325zm-2.175 21.15c0 .45-.375.825-.825.825H4.052a.832.832 0 0 1-.825-.825V5.625c0-.45.375-.825.825-.825h13.125c.45 0 .825.375.825.825v15.75zm2.925-3.075c0 .45-.375.825-.825.825h-.675v-13.5A2.337 2.337 0 0 0 17.102 3.3H6.077v-.75c0-.45.375-.825.825-.825h13.125c.45 0 .825.375.825.825l.075 15.75z" fill="#36394C"/><path d="M13.276 13.575c.3 0 .6-.225.6-.525 0-.3-.225-.6-.525-.6h-1.575L13.5 10.2c.225-.225.15-.6-.075-.825-.225-.225-.6-.15-.825.075l-1.875 2.475-1.8-2.4c-.15-.225-.525-.3-.75-.075-.225.15-.3.525-.075.75l1.65 2.175H8.1c-.3 0-.6.225-.6.525 0 .3.225.6.525.6h2.1v1.2h-2.1c-.3 0-.6.225-.6.525 0 .3.225.6.525.6h2.1v2.025c0 .3.225.6.525.6.3 0 .6-.225.6-.525V15.9h2.1c.3 0 .6-.225.6-.525 0-.3-.225-.6-.525-.6h-2.1v-1.2h2.025z" fill="#36394C"/></svg>