<svg width="16" height="16" fill="none" xmlns="http://www.w3.org/2000/svg"><g clip-path="url(#a)"><path d="M7.94 1.454a6.605 6.605 0 0 1 6.596 6.597 6.605 6.605 0 0 1-6.597 6.597A6.605 6.605 0 0 1 1.342 8.05 6.605 6.605 0 0 1 7.94 1.454Zm0-.942a7.54 7.54 0 1 0 0 15.079 7.54 7.54 0 0 0 0-15.08Zm0 1.885a5.654 5.654 0 1 0 0 11.31 5.654 5.654 0 0 0 0-11.31Zm2.055 8.565c-.37.416-.906.66-1.607.734v1.067h-.892v-1.061c-1.168-.12-1.89-.799-2.17-2.036l1.38-.36c.129.778.552 1.166 1.271 1.166.336 0 .584-.082.743-.25a.843.843 0 0 0 .237-.602c0-.244-.079-.429-.237-.554-.159-.126-.511-.285-1.057-.479-.49-.17-.874-.337-1.15-.505a1.9 1.9 0 0 1-.673-.697 2.07 2.07 0 0 1-.259-1.048c0-.522.155-.992.462-1.41.308-.417.792-.671 1.453-.764v-.824h.892v.824c.998.12 1.644.683 1.938 1.693l-1.23.504c-.24-.692-.61-1.038-1.113-1.038-.252 0-.454.078-.606.232a.77.77 0 0 0-.23.562c0 .225.074.397.222.518.146.12.462.268.944.445.53.193.946.377 1.247.549.302.172.542.41.722.713.18.304.27.658.27 1.064 0 .623-.186 1.142-.557 1.557Z" fill="#171717"/></g><defs><clipPath id="a"><path fill="#fff" d="M0 0h16v16H0z"/></clipPath></defs></svg>