<svg width="24" height="23" fill="none" xmlns="http://www.w3.org/2000/svg"><ellipse cx="12" cy="11.5" rx="11.5" ry="12" transform="rotate(90 12 11.5)" fill="#00A609"/><path d="M10.178 7.075c.072-.072.254-.036.254.11v9.672c0 .218-.145.363-.363.363h-.364c-.217 0-.363-.145-.363-.363v-6.545H7.67c-.146 0-.182-.145-.11-.254l2.619-2.983Zm3.526-.036h.363c.218 0 .364.145.364.363v6.545h1.672c.145 0 .181.146.109.255l-2.617 2.982c-.073.073-.254.036-.254-.109V7.402c0-.218.145-.363.363-.363Z" fill="#fff"/></svg>