<svg width="40" height="40" fill="none" xmlns="http://www.w3.org/2000/svg"><rect width="40" height="40" rx="16" fill="#46C1FF"/><path fill-rule="evenodd" clip-rule="evenodd" d="M16.133 15 20 19l3.867-4h5.689c.583 0 1.055.473 1.055 1.055v3.168H9.5v-3.168c0-.582.473-1.055 1.055-1.055h5.578Zm14.478 6.333v7.39c0 .582-.472 1.055-1.055 1.055h-19A1.055 1.055 0 0 1 9.5 28.723v-7.39h21.111Zm-19 3.695h5.806v-2.11h-5.806v2.11Z" fill="#171717"/><path d="M21.111 13.27V8.39a1.056 1.056 0 0 0-2.111 0v4.985l-1.983-1.984a1.054 1.054 0 1 0-1.492 1.493l4.478 4.478 4.478-4.478a1.054 1.054 0 1 0-1.493-1.493l-1.877 1.877Z" fill="#171717"/></svg>