<svg width="14" height="14" fill="none" xmlns="http://www.w3.org/2000/svg"><g clip-path="url(#a)"><path d="M.112 7.308h2.52v5.432a1.26 1.26 0 1 1-2.52 0V7.308Zm12.034 6.642L2.112 14s.848-.731.848-1.793V0h10.883v12.25a1.7 1.7 0 0 1-1.697 1.7ZM5.46 11.872h5.824v-1.568H5.46v1.568Zm3.052-9.856a3.304 3.304 0 1 0 0 6.608 3.304 3.304 0 0 0 0-6.608ZM6.744 5.32l1.768-1.768L10.28 5.32 8.512 7.088 6.744 5.32Z" fill="#171717"/></g><defs><clipPath id="a"><path fill="#fff" d="M0 0h14v14H0z"/></clipPath></defs></svg>