<svg xmlns="http://www.w3.org/2000/svg" width="14" height="14" viewBox="0 0 14 14" fill="none">
  <path d="M11.6667 13.6667H2.33334C1.22877 13.6667 0.333336 12.7713 0.333336 11.6667V1.00004C0.333336 0.631854 0.631816 0.333374 1 0.333374H10.3333C10.7015 0.333374 11 0.631854 11 1.00004V9.00004H13.6667V11.6667C13.6667 12.7713 12.7713 13.6667 11.6667 13.6667ZM11 10.3334V11.6667C11 12.0349 11.2985 12.3334 11.6667 12.3334C12.0349 12.3334 12.3333 12.0349 12.3333 11.6667V10.3334H11ZM3 3.66671V5.00004H8.33334V3.66671H3ZM3 6.33337V7.66671H8.33334V6.33337H3ZM3 9.00004V10.3334H6.33334V9.00004H3Z" fill="#00A609"/>
</svg>