<svg width="13" height="13" fill="none" xmlns="http://www.w3.org/2000/svg"><g clip-path="url(#a)"><path d="M9.849 1.066h1.432c.759 0 1.374.645 1.374 1.441v8.647c0 .796-.615 1.441-1.374 1.441H1.668c-.76 0-1.374-.645-1.374-1.441V2.507c0-.796.615-1.441 1.373-1.441H3.1a1.126 1.126 0 0 0 .13.984c.193.286.507.457.842.457h4.806c.335 0 .648-.17.841-.457a1.126 1.126 0 0 0 .13-.985Zm-1.38 7.098H2.894a.687.687 0 0 0-.593.361.776.776 0 0 0-.09.361c0 .403.307.724.69.724h5.58c.243 0 .472-.14.594-.361a.732.732 0 0 0-.013-.724.686.686 0 0 0-.593-.362Zm2.18-4.75a.669.669 0 0 0-.51.155l-2.54 2.164a.726.726 0 0 0-.226.345L7.057 7.13 8.1 7.028a.753.753 0 0 0 .374-.162l2.54-2.164a.752.752 0 0 0-.108-1.205.675.675 0 0 0-.259-.084Zm-5.1 1.856H2.878a.665.665 0 0 0-.577.361.786.786 0 0 0 0 .724.658.658 0 0 0 .577.362H5.55a.665.665 0 0 0 .576-.362.786.786 0 0 0 0-.724.658.658 0 0 0-.576-.361Zm-.544-3.565h2.967a.704.704 0 0 0 .632-.75.728.728 0 0 0-.18-.513.69.69 0 0 0-.48-.23H4.996a.71.71 0 0 0-.652.75c-.015.387.28.726.66.742Z" fill="#00A609"/></g><defs><clipPath id="a"><path fill="#fff" d="M0 0h13v13H0z"/></clipPath></defs></svg>