<svg width="0.8rem" height="0.8rem" viewBox="0 0 40 40" fill="none" xmlns="http://www.w3.org/2000/svg">
        <rect width="40" height="40" rx="16" fill="#97E180" fill-opacity="0.1"/>
        <g clip-path="url(#clip0_5525_40015)">
            <path d="M25.4248 10.8858H27.9594C29.3014 10.8858 30.3893 12.0277 30.3893 13.4365V28.7338C30.3893 30.1425 29.3014 31.2845 27.9594 31.2845H10.9509C9.60768 31.2845 8.51978 30.1425 8.51978 28.7338V13.4365C8.51978 12.0277 9.60768 10.8858 10.9497 10.8858H13.4855C13.3882 11.1742 13.3583 11.4812 13.3982 11.783C13.4381 12.0848 13.5466 12.3735 13.7155 12.6269C14.0559 13.134 14.6125 13.4365 15.2036 13.4365H23.7078C24.3001 13.4365 24.8544 13.134 25.1959 12.6269C25.365 12.3734 25.4736 12.0845 25.5135 11.7825C25.5533 11.4804 25.5234 11.1733 25.4259 10.8846L25.4248 10.8858ZM22.9833 23.4438H13.1209C12.692 23.4438 12.286 23.6922 12.071 24.0832C11.9698 24.2729 11.9134 24.4972 11.9134 24.7226C11.9134 25.4344 12.4551 26.0025 13.1324 26.0025H23.0052C23.4341 26.0025 23.8401 25.7541 24.0551 25.3631C24.269 24.9606 24.269 24.4742 24.0321 24.0832C23.9302 23.8927 23.7792 23.7329 23.5948 23.6203C23.4104 23.5077 23.1993 23.4463 22.9833 23.4426V23.4438ZM26.8393 15.0396C26.6781 15.0213 26.5149 15.0364 26.3598 15.0839C26.2047 15.1314 26.061 15.2102 25.9377 15.3156L21.4435 19.1428C21.2541 19.3038 21.1154 19.5163 21.0444 19.7546L20.4855 21.6141L22.3336 21.4347C22.5728 21.3991 22.8131 21.3025 22.9948 21.1472L27.489 17.32C27.7397 17.1153 27.8996 16.791 27.9341 16.4552C27.9686 16.1079 27.8651 15.7721 27.6604 15.5076C27.5626 15.3778 27.4393 15.2693 27.2981 15.1889C27.1569 15.1084 27.0008 15.0576 26.8393 15.0396ZM17.8187 18.324H13.0899C12.6736 18.324 12.278 18.5724 12.0698 18.9634C11.8617 19.3659 11.8617 19.8523 12.0698 20.2433C12.278 20.6343 12.6621 20.8839 13.0899 20.8839H17.8187C18.235 20.8839 18.6306 20.6343 18.8387 20.2433C19.0469 19.8408 19.0469 19.3544 18.8387 18.9634C18.7431 18.7739 18.5976 18.6142 18.4178 18.5015C18.238 18.3888 18.0308 18.3274 17.8187 18.324ZM16.855 12.0162H22.1047C22.7648 11.9599 23.2605 11.3734 23.2225 10.6891C23.2378 10.357 23.1241 10.0319 22.9051 9.78175C22.7972 9.66123 22.6664 9.56338 22.5203 9.49388C22.3742 9.42439 22.2157 9.38464 22.0541 9.37695H16.84C16.1684 9.41835 15.659 10.0049 15.6854 10.7018C15.659 11.3872 16.1799 11.9875 16.8538 12.0151L16.855 12.0162Z" fill="#97E180"/>
        </g>
        <defs>
            <clipPath id="clip0_5525_40015">
                <rect width="23" height="23" fill="white" transform="translate(8 9)"/>
            </clipPath>
        </defs>
    </svg>