<svg width="13" height="13" viewBox="0 0 13 13" fill="none" xmlns="http://www.w3.org/2000/svg">
<g clip-path="url(#clip0_382_9307)">
<path d="M9.8487 1.06569H11.2813C12.0399 1.06569 12.6548 1.71114 12.6548 2.50739V11.1537C12.6548 11.9499 12.0399 12.5954 11.2813 12.5954H1.6678C0.908601 12.5954 0.293701 11.9499 0.293701 11.1537V2.50739C0.293701 1.71114 0.908601 1.06569 1.66715 1.06569H3.1004C3.04542 1.22875 3.02855 1.40224 3.05108 1.57284C3.07362 1.74344 3.13496 1.9066 3.2304 2.04979C3.4228 2.33644 3.7374 2.50739 4.0715 2.50739H8.87825C9.213 2.50739 9.5263 2.33644 9.71935 2.04979C9.81489 1.90652 9.87629 1.74325 9.89883 1.57253C9.92137 1.40181 9.90444 1.22819 9.84935 1.06504L9.8487 1.06569ZM8.46875 8.16369H2.89435C2.6519 8.16369 2.42245 8.30409 2.3009 8.52509C2.2437 8.63234 2.21185 8.75909 2.21185 8.88649C2.21185 9.28884 2.518 9.60994 2.90085 9.60994H8.4811C8.72355 9.60994 8.953 9.46954 9.07455 9.24854C9.19545 9.02104 9.19545 8.74609 9.06155 8.52509C9.00393 8.41743 8.9186 8.3271 8.81438 8.26346C8.71017 8.19981 8.59085 8.16514 8.46875 8.16304V8.16369ZM10.6482 3.41349C10.5571 3.40318 10.4649 3.41171 10.3772 3.43854C10.2895 3.46538 10.2083 3.50995 10.1386 3.56949L7.5984 5.73269C7.49134 5.8237 7.41299 5.94383 7.37285 6.07849L7.05695 7.12954L8.1015 7.02814C8.2367 7.00799 8.37255 6.95339 8.47525 6.86564L11.0155 4.70244C11.1572 4.58674 11.2475 4.40344 11.267 4.21364C11.2865 4.01734 11.228 3.82754 11.1123 3.67804C11.057 3.60467 10.9874 3.54337 10.9076 3.49788C10.8277 3.45239 10.7395 3.42367 10.6482 3.41349ZM5.5496 5.26989H2.8768C2.6415 5.26989 2.4179 5.41029 2.30025 5.63129C2.1826 5.85879 2.1826 6.13374 2.30025 6.35474C2.4179 6.57574 2.635 6.71679 2.8768 6.71679H5.5496C5.7849 6.71679 6.0085 6.57574 6.12615 6.35474C6.2438 6.12724 6.2438 5.85229 6.12615 5.63129C6.07213 5.52422 5.98986 5.43395 5.88824 5.37025C5.78662 5.30655 5.66952 5.27185 5.5496 5.26989ZM5.0049 1.70464H7.97215C8.34525 1.67279 8.6254 1.34129 8.60395 0.954541C8.61257 0.766845 8.54829 0.583084 8.42455 0.441691C8.36355 0.373569 8.28961 0.31826 8.20703 0.27898C8.12446 0.2397 8.03489 0.217235 7.94355 0.212891H4.99645C4.61685 0.236291 4.3289 0.567791 4.34385 0.961691C4.3289 1.34909 4.62335 1.68839 5.00425 1.70399L5.0049 1.70464Z" fill="#00A609"/>
</g>
<defs>
<clipPath id="clip0_382_9307">
<rect width="13" height="13" fill="white"/>
</clipPath>
</defs>
</svg>
