<svg width="375" height="812" viewBox="0 0 375 812" fill="none" xmlns="http://www.w3.org/2000/svg">
<rect width="375" height="812" rx="40" fill="#171717"/>
<rect x="121" y="796" width="134" height="5" rx="2.5" fill="#262729"/>
<path d="M29.8314 24.832C29.938 25.3653 30.1674 25.7707 30.5194 26.048C30.8714 26.3253 31.346 26.464 31.9434 26.464C32.7007 26.464 33.2554 26.1653 33.6074 25.568C33.9594 24.9707 34.1354 23.952 34.1354 22.512C33.8794 22.8747 33.5167 23.1573 33.0474 23.36C32.5887 23.552 32.0874 23.648 31.5434 23.648C30.85 23.648 30.2207 23.5093 29.6554 23.232C29.09 22.944 28.642 22.5227 28.3114 21.968C27.9914 21.4027 27.8314 20.72 27.8314 19.92C27.8314 18.7467 28.1727 17.8133 28.8554 17.12C29.5487 16.416 30.498 16.064 31.7034 16.064C33.154 16.064 34.1834 16.5493 34.7914 17.52C35.41 18.48 35.7194 19.9573 35.7194 21.952C35.7194 23.328 35.602 24.4533 35.3674 25.328C35.1434 26.2027 34.7487 26.864 34.1834 27.312C33.618 27.76 32.834 27.984 31.8314 27.984C30.69 27.984 29.81 27.6853 29.1914 27.088C28.5727 26.4907 28.226 25.7387 28.1514 24.832H29.8314ZM31.8634 22.112C32.5034 22.112 33.0047 21.9147 33.3674 21.52C33.7407 21.1147 33.9274 20.5813 33.9274 19.92C33.9274 19.184 33.73 18.6133 33.3354 18.208C32.9514 17.792 32.4234 17.584 31.7514 17.584C31.0794 17.584 30.546 17.7973 30.1514 18.224C29.7674 18.64 29.5754 19.1893 29.5754 19.872C29.5754 20.5227 29.762 21.0613 30.1354 21.488C30.5194 21.904 31.0954 22.112 31.8634 22.112ZM38.2816 28.112C37.951 28.112 37.6736 28 37.4496 27.776C37.2256 27.552 37.1136 27.2747 37.1136 26.944C37.1136 26.6133 37.2256 26.336 37.4496 26.112C37.6736 25.888 37.951 25.776 38.2816 25.776C38.6016 25.776 38.8736 25.888 39.0976 26.112C39.3216 26.336 39.4336 26.6133 39.4336 26.944C39.4336 27.2747 39.3216 27.552 39.0976 27.776C38.8736 28 38.6016 28.112 38.2816 28.112ZM38.2816 21.392C37.951 21.392 37.6736 21.28 37.4496 21.056C37.2256 20.832 37.1136 20.5547 37.1136 20.224C37.1136 19.8933 37.2256 19.616 37.4496 19.392C37.6736 19.168 37.951 19.056 38.2816 19.056C38.6016 19.056 38.8736 19.168 39.0976 19.392C39.3216 19.616 39.4336 19.8933 39.4336 20.224C39.4336 20.5547 39.3216 20.832 39.0976 21.056C38.8736 21.28 38.6016 21.392 38.2816 21.392ZM40.5935 25.568V24.192L45.9695 16.48H48.1775V23.984H49.6655V25.568H48.1775V28H46.3855V25.568H40.5935ZM46.4655 18.336L42.6895 23.984H46.4655V18.336ZM50.5269 18V16.336H53.8549V28H52.0149V18H50.5269Z" fill="white"/>
<path fill-rule="evenodd" clip-rule="evenodd" d="M303 16.333H302C301.448 16.333 301 16.7807 301 17.333V25.9997C301 26.552 301.448 26.9997 302 26.9997H303C303.552 26.9997 304 26.552 304 25.9997V17.333C304 16.7807 303.552 16.333 303 16.333ZM297.333 18.6663H298.333C298.886 18.6663 299.333 19.1141 299.333 19.6663V25.9997C299.333 26.552 298.886 26.9997 298.333 26.9997H297.333C296.781 26.9997 296.333 26.552 296.333 25.9997V19.6663C296.333 19.1141 296.781 18.6663 297.333 18.6663ZM293.667 20.9997H292.667C292.114 20.9997 291.667 21.4474 291.667 21.9997V25.9997C291.667 26.552 292.114 26.9997 292.667 26.9997H293.667C294.219 26.9997 294.667 26.552 294.667 25.9997V21.9997C294.667 21.4474 294.219 20.9997 293.667 20.9997ZM289 22.9997H288C287.448 22.9997 287 23.4474 287 23.9997V25.9997C287 26.552 287.448 26.9997 288 26.9997H289C289.552 26.9997 290 26.552 290 25.9997V23.9997C290 23.4474 289.552 22.9997 289 22.9997Z" fill="white"/>
<path fill-rule="evenodd" clip-rule="evenodd" d="M316.667 18.6175C318.892 18.6176 321.031 19.4717 322.644 21.0033C322.765 21.1215 322.959 21.12 323.079 20.9999L324.239 19.8296C324.3 19.7687 324.334 19.6862 324.333 19.6003C324.333 19.5145 324.298 19.4324 324.237 19.3722C320.005 15.32 313.329 15.32 309.097 19.3722C309.035 19.4323 309.001 19.5144 309 19.6003C308.999 19.6861 309.033 19.7687 309.094 19.8296L310.255 20.9999C310.374 21.1202 310.568 21.1217 310.69 21.0033C312.302 19.4716 314.442 18.6175 316.667 18.6175ZM316.667 22.4251C317.889 22.425 319.068 22.8789 319.974 23.6987C320.097 23.8151 320.29 23.8125 320.409 23.693L321.569 22.5227C321.63 22.4613 321.663 22.378 321.663 22.2915C321.662 22.205 321.626 22.1224 321.564 22.0623C318.805 19.4979 314.532 19.4979 311.773 22.0623C311.71 22.1224 311.675 22.205 311.674 22.2916C311.673 22.3781 311.707 22.4614 311.768 22.5227L312.927 23.693C313.047 23.8125 313.24 23.8151 313.362 23.6987C314.268 22.8795 315.446 22.4256 316.667 22.4251ZM318.989 24.9869C318.991 25.0737 318.957 25.1573 318.895 25.2181L316.89 27.2401C316.831 27.2996 316.751 27.333 316.667 27.333C316.583 27.333 316.503 27.2996 316.445 27.2401L314.439 25.2181C314.377 25.1573 314.343 25.0736 314.345 24.9868C314.347 24.9001 314.384 24.8179 314.449 24.7597C315.729 23.6774 317.605 23.6774 318.886 24.7597C318.95 24.8179 318.988 24.9001 318.989 24.9869Z" fill="white"/>
<rect opacity="0.35" x="329.833" y="16.833" width="21" height="10.3333" rx="2.16667" stroke="white"/>
<path opacity="0.4" d="M352.333 20V24C353.138 23.6612 353.661 22.8731 353.661 22C353.661 21.1269 353.138 20.3388 352.333 20Z" fill="white"/>
<rect x="331.333" y="18.333" width="18" height="7.33333" rx="1.33333" fill="white"/>
<path d="M162.766 59.186C163.162 59.966 163.498 60.77 163.774 61.598H170.722V62.516H161.794C160.522 64.808 159.436 66.404 158.536 67.304C161.584 67.16 164.524 66.938 167.356 66.638C166.768 65.762 166.15 64.916 165.502 64.1L166.312 63.596C167.8 65.516 168.928 67.184 169.696 68.6L168.886 69.176C168.67 68.768 168.34 68.204 167.896 67.484L165.304 67.736V73.568C165.304 74.192 165.658 74.504 166.366 74.504H168.724C169.096 74.504 169.39 74.414 169.606 74.234C169.906 73.946 170.092 73.01 170.164 71.426L171.082 71.732C170.962 73.472 170.716 74.546 170.344 74.954C170.044 75.254 169.582 75.416 168.958 75.44H166.096C164.932 75.44 164.35 74.876 164.35 73.748V67.808L161.272 68.042C161.128 70.154 160.69 71.732 159.958 72.776C159.142 73.892 157.78 74.858 155.872 75.674L155.242 74.9C157.03 74.18 158.302 73.334 159.058 72.362C159.742 71.426 160.156 70.01 160.3 68.114L157.168 68.276L156.952 67.376L157.15 67.304C158.05 66.716 159.244 65.12 160.732 62.516H155.296V61.598H162.802C162.466 60.734 162.112 59.99 161.74 59.366L162.766 59.186ZM182.872 59.366H183.844V61.13H188.596V62.03H183.844V63.74H187.354V74.288H189.172V75.206H177.328V74.288H179.236V63.74H182.872V62.03H178.102V61.13H182.872V59.366ZM180.172 74.288H186.418V72.506H180.172V74.288ZM180.172 71.696H186.418V69.932H180.172V71.696ZM180.172 69.104H186.418V67.34H180.172V69.104ZM180.172 66.512H186.418V64.64H180.172V66.512ZM175.366 64.838C174.694 65.954 173.956 66.968 173.152 67.88L172.828 66.854C174.652 64.61 175.96 62.09 176.752 59.294L177.634 59.708C177.274 60.86 176.842 61.964 176.338 63.02V75.8H175.366V64.838ZM201.412 63.812H197.056V62.894H202.834C203.494 61.766 204.07 60.548 204.562 59.24L205.498 59.564C204.994 60.836 204.424 61.946 203.788 62.894H206.83V63.812H202.384V66.71H206.254V67.646H202.384V70.67H207.19V71.606H202.384V75.71H201.412V71.606H196.714V70.67H201.412V67.646H197.578V66.71H201.412V63.812ZM198.964 59.33C199.624 60.206 200.26 61.196 200.872 62.3L200.062 62.696C199.438 61.556 198.802 60.566 198.154 59.726L198.964 59.33ZM192.844 59.654C193.924 60.53 194.878 61.436 195.706 62.372L195.022 63.038C194.302 62.162 193.348 61.25 192.16 60.302L192.844 59.654ZM190.792 64.946H194.392V73.028C194.92 72.5 195.472 71.894 196.048 71.21L196.282 72.2C195.37 73.28 194.422 74.222 193.438 75.026L193.06 74.18C193.324 73.94 193.456 73.7 193.456 73.46V65.9H190.792V64.946ZM216.892 70.472V71.984H222.904V70.472H216.892ZM222.904 69.734V68.15H216.892V69.734H222.904ZM216.892 72.722V75.71H215.956V67.358H223.822V73.874C223.822 75.05 223.354 75.638 222.418 75.638H221.068L220.834 74.81L222.13 74.846C222.646 74.846 222.904 74.456 222.904 73.676V72.722H216.892ZM219.43 59.222H220.42V60.59H224.704V61.382H220.42V62.876H224.11V63.65H220.42V65.144H225.208V65.936H214.534V65.702L213.994 65.828C213.622 64.76 213.142 63.698 212.554 62.642L213.22 62.426C213.676 63.17 214.114 64.076 214.534 65.144H219.43V63.65H215.686V62.876H219.43V61.382H215.056V60.59H219.43V59.222ZM210.358 62.822C210.286 64.586 209.95 66.266 209.35 67.862L208.612 67.664C209.2 66.14 209.53 64.508 209.602 62.768L210.358 62.822ZM211.24 59.402H212.212V75.674H211.24V59.402Z" fill="white"/>
<circle cx="35" cy="65" r="15" fill="white" fill-opacity="0.1"/>
<path d="M37.7417 70.517L32.138 65L37.7417 59.483C38.0861 59.1439 38.0861 58.5933 37.7417 58.2543C37.3973 57.9152 36.8381 57.9152 36.4937 58.2543L30.3582 64.2948C30.3252 64.3192 30.2921 64.349 30.259 64.3789C30.0855 64.5497 30.0001 64.7749 30.0001 65C29.9973 65.2251 30.0855 65.4503 30.259 65.6211C30.2893 65.651 30.3224 65.6808 30.3582 65.7052L36.4937 71.7457C36.8381 72.0848 37.3973 72.0848 37.7417 71.7457C38.0861 71.4067 38.0861 70.856 37.7417 70.517Z" fill="white"/>
<rect x="20" y="265" width="335" height="250" rx="16" fill="white" fill-opacity="0.1"/>
<path d="M35.568 277.004H41.224V277.788H36.282L35.932 281.47H35.974C36.2727 281.115 36.6413 280.849 37.08 280.672C37.472 280.495 37.906 280.406 38.382 280.406C39.334 280.406 40.104 280.7 40.692 281.288C41.2987 281.913 41.602 282.758 41.602 283.822C41.602 284.802 41.2613 285.619 40.58 286.272C39.9267 286.888 39.11 287.196 38.13 287.196C37.2713 287.196 36.5387 286.958 35.932 286.482C35.2507 285.969 34.8727 285.259 34.798 284.354H35.652C35.7267 285.035 36.0067 285.563 36.492 285.936C36.94 286.281 37.486 286.454 38.13 286.454C38.886 286.454 39.5113 286.207 40.006 285.712C40.5007 285.199 40.748 284.569 40.748 283.822C40.748 282.973 40.5147 282.305 40.048 281.82C39.6 281.363 38.9887 281.134 38.214 281.134C37.71 281.134 37.2527 281.246 36.842 281.47C36.422 281.703 36.1 282.035 35.876 282.464H35.064L35.568 277.004ZM46.6925 276.808C47.6259 276.808 48.3772 277.051 48.9465 277.536C49.5065 278.021 49.7865 278.675 49.7865 279.496C49.7865 280.644 49.2452 281.4 48.1625 281.764C48.7412 281.941 49.1892 282.235 49.5065 282.646C49.8332 283.057 49.9965 283.551 49.9965 284.13C49.9965 285.026 49.6839 285.763 49.0585 286.342C48.4145 286.911 47.6025 287.196 46.6225 287.196C45.7359 287.196 44.9939 286.963 44.3965 286.496C43.6779 285.945 43.2765 285.101 43.1925 283.962H44.0605C44.0979 284.811 44.3965 285.46 44.9565 285.908C45.4045 286.272 45.9552 286.454 46.6085 286.454C47.3645 286.454 47.9852 286.235 48.4705 285.796C48.9185 285.357 49.1425 284.811 49.1425 284.158C49.1425 283.542 48.9279 283.047 48.4985 282.674C48.0879 282.319 47.5232 282.142 46.8045 282.142H45.9225V281.442H46.7205C47.4205 281.442 47.9712 281.279 48.3725 280.952C48.7459 280.607 48.9325 280.135 48.9325 279.538C48.9325 278.95 48.7412 278.474 48.3585 278.11C47.9572 277.746 47.4019 277.564 46.6925 277.564C45.9832 277.564 45.4279 277.765 45.0265 278.166C44.6065 278.558 44.3545 279.113 44.2705 279.832H43.4165C43.5005 278.899 43.8459 278.157 44.4525 277.606C45.0312 277.074 45.7779 276.808 46.6925 276.808ZM55.1151 276.808C56.0204 276.808 56.7624 277.069 57.3411 277.592C57.9291 278.105 58.2231 278.796 58.2231 279.664C58.2231 280.523 57.8917 281.307 57.2291 282.016C56.9024 282.361 56.2117 282.893 55.1571 283.612C53.7384 284.573 52.9497 285.441 52.7911 286.216H58.2371V287H51.7411C51.7411 286.141 52.0724 285.348 52.7351 284.62C53.1457 284.153 53.8457 283.579 54.8351 282.898C55.6751 282.301 56.2397 281.857 56.5291 281.568C57.0797 280.971 57.3551 280.331 57.3551 279.65C57.3551 278.987 57.1497 278.474 56.7391 278.11C56.3377 277.746 55.7917 277.564 55.1011 277.564C54.3731 277.564 53.7991 277.807 53.3791 278.292C52.9311 278.777 52.7071 279.487 52.7071 280.42H51.8391C51.8391 279.3 52.1471 278.418 52.7631 277.774C53.3511 277.13 54.1351 276.808 55.1151 276.808ZM63.5096 276.808C64.4149 276.808 65.1569 277.069 65.7356 277.592C66.3236 278.105 66.6176 278.796 66.6176 279.664C66.6176 280.523 66.2863 281.307 65.6236 282.016C65.2969 282.361 64.6063 282.893 63.5516 283.612C62.1329 284.573 61.3443 285.441 61.1856 286.216H66.6316V287H60.1356C60.1356 286.141 60.4669 285.348 61.1296 284.62C61.5403 284.153 62.2403 283.579 63.2296 282.898C64.0696 282.301 64.6343 281.857 64.9236 281.568C65.4743 280.971 65.7496 280.331 65.7496 279.65C65.7496 278.987 65.5443 278.474 65.1336 278.11C64.7323 277.746 64.1863 277.564 63.4956 277.564C62.7676 277.564 62.1936 277.807 61.7736 278.292C61.3256 278.777 61.1016 279.487 61.1016 280.42H60.2336C60.2336 279.3 60.5416 278.418 61.1576 277.774C61.7456 277.13 62.5296 276.808 63.5096 276.808ZM73.0941 277.004H73.9201V283.948H75.6141V284.662H73.9201V287H73.0941V284.662H67.9421V283.836L73.0941 277.004ZM73.0521 278.166L68.7121 283.948H73.0941V278.166H73.0521ZM77.5407 277.004H83.1967V277.788H78.2547L77.9047 281.47H77.9467C78.2453 281.115 78.614 280.849 79.0527 280.672C79.4447 280.495 79.8787 280.406 80.3547 280.406C81.3067 280.406 82.0767 280.7 82.6647 281.288C83.2713 281.913 83.5747 282.758 83.5747 283.822C83.5747 284.802 83.234 285.619 82.5527 286.272C81.8993 286.888 81.0827 287.196 80.1027 287.196C79.244 287.196 78.5113 286.958 77.9047 286.482C77.2233 285.969 76.8453 285.259 76.7707 284.354H77.6247C77.6993 285.035 77.9793 285.563 78.4647 285.936C78.9127 286.281 79.4587 286.454 80.1027 286.454C80.8587 286.454 81.484 286.207 81.9787 285.712C82.4733 285.199 82.7207 284.569 82.7207 283.822C82.7207 282.973 82.4873 282.305 82.0207 281.82C81.5727 281.363 80.9613 281.134 80.1867 281.134C79.6827 281.134 79.2253 281.246 78.8147 281.47C78.3947 281.703 78.0727 282.035 77.8487 282.464H77.0367L77.5407 277.004ZM88.7212 276.808C90.5039 276.808 91.5352 277.685 91.8152 279.44H90.9612C90.7279 278.18 89.9765 277.55 88.7072 277.55C87.8485 277.55 87.1812 277.975 86.7052 278.824C86.2385 279.617 86.0052 280.649 86.0052 281.918V282.408H86.0612C86.2852 281.82 86.6492 281.358 87.1532 281.022C87.6292 280.686 88.1892 280.518 88.8332 280.518C89.7852 280.518 90.5459 280.821 91.1152 281.428C91.6939 282.035 91.9832 282.823 91.9832 283.794C91.9832 284.774 91.6752 285.586 91.0592 286.23C90.4432 286.874 89.6592 287.196 88.7072 287.196C87.4939 287.196 86.5839 286.734 85.9772 285.81C85.4359 284.979 85.1652 283.794 85.1652 282.254C85.1652 280.677 85.4639 279.393 86.0612 278.404C86.7052 277.34 87.5919 276.808 88.7212 276.808ZM88.6932 281.246C87.9839 281.246 87.3959 281.493 86.9292 281.988C86.4439 282.464 86.2012 283.071 86.2012 283.808C86.2012 284.545 86.4159 285.161 86.8452 285.656C87.3119 286.188 87.9232 286.454 88.6792 286.454C89.4165 286.454 90.0092 286.202 90.4572 285.698C90.9052 285.194 91.1292 284.559 91.1292 283.794C91.1292 283.029 90.9099 282.413 90.4712 281.946C90.0325 281.479 89.4399 281.246 88.6932 281.246ZM93.7417 277.004H100.196V277.718L96.4157 287H95.4777L99.2997 277.802H93.7417V277.004ZM105.356 276.808C106.383 276.808 107.181 277.074 107.75 277.606C108.273 278.082 108.534 278.679 108.534 279.398C108.534 279.921 108.399 280.383 108.128 280.784C107.839 281.185 107.428 281.47 106.896 281.638V281.694C107.438 281.806 107.904 282.1 108.296 282.576C108.688 283.052 108.884 283.617 108.884 284.27C108.884 285.129 108.586 285.829 107.988 286.37C107.363 286.921 106.486 287.196 105.356 287.196C104.227 287.196 103.35 286.921 102.724 286.37C102.127 285.838 101.828 285.138 101.828 284.27C101.828 283.617 102.024 283.052 102.416 282.576C102.79 282.1 103.261 281.806 103.83 281.694V281.638C103.289 281.47 102.874 281.185 102.584 280.784C102.314 280.401 102.178 279.939 102.178 279.398C102.178 278.67 102.44 278.073 102.962 277.606C103.522 277.074 104.32 276.808 105.356 276.808ZM105.356 277.536C104.572 277.536 103.97 277.732 103.55 278.124C103.186 278.46 103.004 278.894 103.004 279.426C103.004 279.977 103.172 280.42 103.508 280.756C103.919 281.148 104.535 281.344 105.356 281.344C106.168 281.344 106.784 281.148 107.204 280.756C107.54 280.42 107.708 279.977 107.708 279.426C107.708 278.894 107.526 278.46 107.162 278.124C106.733 277.732 106.131 277.536 105.356 277.536ZM105.356 282.044C104.479 282.044 103.807 282.263 103.34 282.702C102.892 283.094 102.668 283.617 102.668 284.27C102.668 284.933 102.888 285.455 103.326 285.838C103.802 286.267 104.479 286.482 105.356 286.482C106.234 286.482 106.915 286.267 107.4 285.838C107.83 285.437 108.044 284.914 108.044 284.27C108.044 283.617 107.82 283.094 107.372 282.702C106.906 282.263 106.234 282.044 105.356 282.044ZM113.751 276.808C114.777 276.808 115.575 277.074 116.145 277.606C116.667 278.082 116.929 278.679 116.929 279.398C116.929 279.921 116.793 280.383 116.523 280.784C116.233 281.185 115.823 281.47 115.291 281.638V281.694C115.832 281.806 116.299 282.1 116.691 282.576C117.083 283.052 117.279 283.617 117.279 284.27C117.279 285.129 116.98 285.829 116.383 286.37C115.757 286.921 114.88 287.196 113.751 287.196C112.621 287.196 111.744 286.921 111.119 286.37C110.521 285.838 110.223 285.138 110.223 284.27C110.223 283.617 110.419 283.052 110.811 282.576C111.184 282.1 111.655 281.806 112.225 281.694V281.638C111.683 281.47 111.268 281.185 110.979 280.784C110.708 280.401 110.573 279.939 110.573 279.398C110.573 278.67 110.834 278.073 111.357 277.606C111.917 277.074 112.715 276.808 113.751 276.808ZM113.751 277.536C112.967 277.536 112.365 277.732 111.945 278.124C111.581 278.46 111.399 278.894 111.399 279.426C111.399 279.977 111.567 280.42 111.903 280.756C112.313 281.148 112.929 281.344 113.751 281.344C114.563 281.344 115.179 281.148 115.599 280.756C115.935 280.42 116.103 279.977 116.103 279.426C116.103 278.894 115.921 278.46 115.557 278.124C115.127 277.732 114.525 277.536 113.751 277.536ZM113.751 282.044C112.873 282.044 112.201 282.263 111.735 282.702C111.287 283.094 111.063 283.617 111.063 284.27C111.063 284.933 111.282 285.455 111.721 285.838C112.197 286.267 112.873 286.482 113.751 286.482C114.628 286.482 115.309 286.267 115.795 285.838C116.224 285.437 116.439 284.914 116.439 284.27C116.439 283.617 116.215 283.094 115.767 282.702C115.3 282.263 114.628 282.044 113.751 282.044ZM122.019 276.808C123.233 276.808 124.138 277.265 124.735 278.18C125.286 279.029 125.561 280.219 125.561 281.75C125.561 283.29 125.263 284.573 124.665 285.6C124.021 286.664 123.135 287.196 122.005 287.196C120.223 287.196 119.191 286.319 118.911 284.564H119.765C119.989 285.824 120.741 286.454 122.019 286.454C122.859 286.454 123.527 286.029 124.021 285.18C124.488 284.359 124.721 283.327 124.721 282.086V281.596H124.665C124.432 282.165 124.068 282.627 123.573 282.982C123.088 283.318 122.528 283.486 121.893 283.486C120.941 283.486 120.176 283.178 119.597 282.562C119.028 281.965 118.743 281.181 118.743 280.21C118.743 279.23 119.051 278.418 119.667 277.774C120.283 277.13 121.067 276.808 122.019 276.808ZM122.047 277.55C121.31 277.55 120.717 277.802 120.269 278.306C119.821 278.81 119.597 279.445 119.597 280.21C119.597 280.975 119.817 281.591 120.255 282.058C120.703 282.525 121.296 282.758 122.033 282.758C122.715 282.758 123.303 282.511 123.797 282.016C124.283 281.512 124.525 280.905 124.525 280.196C124.525 279.477 124.311 278.861 123.881 278.348C123.405 277.816 122.794 277.55 122.047 277.55ZM130.414 276.808C131.627 276.808 132.533 277.265 133.13 278.18C133.681 279.029 133.956 280.219 133.956 281.75C133.956 283.29 133.657 284.573 133.06 285.6C132.416 286.664 131.529 287.196 130.4 287.196C128.617 287.196 127.586 286.319 127.306 284.564H128.16C128.384 285.824 129.135 286.454 130.414 286.454C131.254 286.454 131.921 286.029 132.416 285.18C132.883 284.359 133.116 283.327 133.116 282.086V281.596H133.06C132.827 282.165 132.463 282.627 131.968 282.982C131.483 283.318 130.923 283.486 130.288 283.486C129.336 283.486 128.571 283.178 127.992 282.562C127.423 281.965 127.138 281.181 127.138 280.21C127.138 279.23 127.446 278.418 128.062 277.774C128.678 277.13 129.462 276.808 130.414 276.808ZM130.442 277.55C129.705 277.55 129.112 277.802 128.664 278.306C128.216 278.81 127.992 279.445 127.992 280.21C127.992 280.975 128.211 281.591 128.65 282.058C129.098 282.525 129.691 282.758 130.428 282.758C131.109 282.758 131.697 282.511 132.192 282.016C132.677 281.512 132.92 280.905 132.92 280.196C132.92 279.477 132.705 278.861 132.276 278.348C131.8 277.816 131.189 277.55 130.442 277.55ZM138.934 276.808C140.138 276.808 141.034 277.359 141.622 278.46C142.108 279.356 142.35 280.537 142.35 282.002C142.35 283.449 142.108 284.629 141.622 285.544C141.025 286.645 140.129 287.196 138.934 287.196C137.74 287.196 136.844 286.645 136.246 285.544C135.761 284.657 135.518 283.477 135.518 282.002C135.518 280.518 135.761 279.337 136.246 278.46C136.834 277.359 137.73 276.808 138.934 276.808ZM138.934 277.564C137.964 277.564 137.268 278.059 136.848 279.048C136.54 279.776 136.386 280.761 136.386 282.002C136.386 283.225 136.54 284.209 136.848 284.956C137.268 285.945 137.964 286.44 138.934 286.44C139.886 286.44 140.582 285.945 141.02 284.956C141.338 284.191 141.496 283.206 141.496 282.002C141.496 280.779 141.338 279.795 141.02 279.048C140.591 278.059 139.896 277.564 138.934 277.564ZM147.329 276.808C148.533 276.808 149.429 277.359 150.017 278.46C150.502 279.356 150.745 280.537 150.745 282.002C150.745 283.449 150.502 284.629 150.017 285.544C149.42 286.645 148.524 287.196 147.329 287.196C146.134 287.196 145.238 286.645 144.641 285.544C144.156 284.657 143.913 283.477 143.913 282.002C143.913 280.518 144.156 279.337 144.641 278.46C145.229 277.359 146.125 276.808 147.329 276.808ZM147.329 277.564C146.358 277.564 145.663 278.059 145.243 279.048C144.935 279.776 144.781 280.761 144.781 282.002C144.781 283.225 144.935 284.209 145.243 284.956C145.663 285.945 146.358 286.44 147.329 286.44C148.281 286.44 148.976 285.945 149.415 284.956C149.732 284.191 149.891 283.206 149.891 282.002C149.891 280.779 149.732 279.795 149.415 279.048C148.986 278.059 148.29 277.564 147.329 277.564ZM155.723 276.808C156.927 276.808 157.823 277.359 158.411 278.46C158.897 279.356 159.139 280.537 159.139 282.002C159.139 283.449 158.897 284.629 158.411 285.544C157.814 286.645 156.918 287.196 155.723 287.196C154.529 287.196 153.633 286.645 153.035 285.544C152.55 284.657 152.307 283.477 152.307 282.002C152.307 280.518 152.55 279.337 153.035 278.46C153.623 277.359 154.519 276.808 155.723 276.808ZM155.723 277.564C154.753 277.564 154.057 278.059 153.637 279.048C153.329 279.776 153.175 280.761 153.175 282.002C153.175 283.225 153.329 284.209 153.637 284.956C154.057 285.945 154.753 286.44 155.723 286.44C156.675 286.44 157.371 285.945 157.809 284.956C158.127 284.191 158.285 283.206 158.285 282.002C158.285 280.779 158.127 279.795 157.809 279.048C157.38 278.059 156.685 277.564 155.723 277.564Z" fill="white" fill-opacity="0.5"/>
<path d="M174.331 279.333H176.331V287.333H168.331V285.333H166.331V277.333H174.331V279.333ZM174.331 280V285.333H168.998V286.666H175.665V280H174.331ZM166.998 278V284.666H173.665V278H166.998Z" fill="#97E180"/>
<rect x="26" y="309" width="323" height="200" rx="16" fill="#171717"/>
<path d="M46.818 333.478C47.126 334.085 47.3873 334.71 47.602 335.354H53.006V336.068H46.062C45.0727 337.851 44.228 339.092 43.528 339.792C45.8987 339.68 48.1853 339.507 50.388 339.274C49.9307 338.593 49.45 337.935 48.946 337.3L49.576 336.908C50.7333 338.401 51.6107 339.699 52.208 340.8L51.578 341.248C51.41 340.931 51.1533 340.492 50.808 339.932L48.792 340.128V344.664C48.792 345.149 49.0673 345.392 49.618 345.392H51.452C51.7413 345.392 51.97 345.322 52.138 345.182C52.3713 344.958 52.516 344.23 52.572 342.998L53.286 343.236C53.1927 344.589 53.0013 345.425 52.712 345.742C52.4787 345.975 52.1193 346.101 51.634 346.12H49.408C48.5027 346.12 48.05 345.681 48.05 344.804V340.184L45.656 340.366C45.544 342.009 45.2033 343.236 44.634 344.048C43.9993 344.916 42.94 345.667 41.456 346.302L40.966 345.7C42.3567 345.14 43.346 344.482 43.934 343.726C44.466 342.998 44.788 341.897 44.9 340.422L42.464 340.548L42.296 339.848L42.45 339.792C43.15 339.335 44.0787 338.093 45.236 336.068H41.008V335.354H46.846C46.5847 334.682 46.3093 334.103 46.02 333.618L46.818 333.478ZM62.456 333.618H63.212V334.99H66.908V335.69H63.212V337.02H65.942V345.224H67.356V345.938H58.144V345.224H59.628V337.02H62.456V335.69H58.746V334.99H62.456V333.618ZM60.356 345.224H65.214V343.838H60.356V345.224ZM60.356 343.208H65.214V341.836H60.356V343.208ZM60.356 341.192H65.214V339.82H60.356V341.192ZM60.356 339.176H65.214V337.72H60.356V339.176ZM56.618 337.874C56.0953 338.742 55.5213 339.531 54.896 340.24L54.644 339.442C56.0627 337.697 57.08 335.737 57.696 333.562L58.382 333.884C58.102 334.78 57.766 335.639 57.374 336.46V346.4H56.618V337.874ZM71.374 337.58H78.654V338.266H75.392V340.534H80.474V341.248H75.392V345.238H77.142C77.6553 344.323 78.108 343.297 78.5 342.158L79.186 342.424C78.8033 343.507 78.3787 344.445 77.912 345.238H80.964V345.966H69.05V345.238H72.088C71.752 344.258 71.3413 343.353 70.856 342.522L71.542 342.27C72.0273 343.091 72.4567 344.081 72.83 345.238H74.636V341.248H69.54V340.534H74.636V338.266H71.374V337.58ZM75.322 333.744C76.6847 335.443 78.6773 336.852 81.3 337.972L80.88 338.602C78.4533 337.566 76.498 336.189 75.014 334.472C73.3713 336.208 71.4067 337.594 69.12 338.63L68.7 338.014C71.1267 336.913 73.1287 335.489 74.706 333.744H75.322ZM84.17 339.064C83.8247 339.428 83.4653 339.755 83.092 340.044L82.686 339.498C83.8807 338.593 84.6833 337.496 85.094 336.208L85.78 336.292C85.668 336.656 85.528 337.006 85.36 337.342H88.076V337.874C87.684 338.649 87.2453 339.311 86.76 339.862C87.6933 340.413 88.51 340.963 89.21 341.514L88.734 341.99C88.09 341.449 87.2873 340.889 86.326 340.31C85.3647 341.206 84.2073 341.836 82.854 342.2L82.56 341.612C83.792 341.304 84.856 340.753 85.752 339.96C85.3507 339.708 84.8233 339.409 84.17 339.064ZM86.2 339.526C86.6107 339.059 86.9793 338.537 87.306 337.958H85.024C84.856 338.219 84.702 338.439 84.562 338.616C85.2993 339.008 85.8453 339.311 86.2 339.526ZM88.734 335.004V337.188H88.048V335.662H83.694V337.202H83.036V335.004H85.64C85.472 334.556 85.2433 334.113 84.954 333.674L85.724 333.534C85.9667 333.982 86.186 334.472 86.382 335.004H88.734ZM88.062 342.144V346.288H87.362V345.546H84.576V346.288H83.89V342.144H88.062ZM84.576 344.888H87.362V342.802H84.576V344.888ZM89.322 334.262H95.398V334.962H92.766C92.682 335.578 92.57 336.166 92.43 336.726H94.838V343.208H94.152V337.398H90.428V343.222H89.728V336.726H91.716C91.8747 336.138 91.982 335.55 92.038 334.962H89.322V334.262ZM93.032 343.488C93.984 344.263 94.8053 345.061 95.496 345.882L94.992 346.386C94.4227 345.639 93.6153 344.823 92.57 343.936L93.032 343.488ZM91.912 338.28H92.598V340.87C92.57 342.373 92.2947 343.558 91.772 344.426C91.268 345.247 90.428 345.896 89.252 346.372L88.86 345.77C89.9707 345.322 90.764 344.715 91.24 343.95C91.6693 343.166 91.8933 342.139 91.912 340.87V338.28Z" fill="white" fill-opacity="0.5"/>
<path d="M275.622 334.08C276.612 334.08 277.427 334.365 278.067 334.935C278.707 335.515 279.027 336.27 279.027 337.2C279.027 338.12 278.677 338.96 277.977 339.72C277.567 340.15 276.827 340.725 275.757 341.445C274.397 342.355 273.617 343.175 273.417 343.905H279.042V345H271.902C271.902 344.01 272.257 343.125 272.967 342.345C273.427 341.825 274.202 341.19 275.292 340.44C276.142 339.83 276.702 339.385 276.972 339.105C277.522 338.505 277.797 337.865 277.797 337.185C277.797 336.535 277.602 336.03 277.212 335.67C276.822 335.31 276.277 335.13 275.577 335.13C274.827 335.13 274.262 335.38 273.882 335.88C273.452 336.37 273.232 337.085 273.222 338.025H271.992C271.992 336.835 272.327 335.88 272.997 335.16C273.657 334.44 274.532 334.08 275.622 334.08ZM284.466 334.08C285.746 334.08 286.711 334.645 287.361 335.775C287.931 336.735 288.216 338.025 288.216 339.645C288.216 341.265 287.931 342.555 287.361 343.515C286.701 344.645 285.736 345.21 284.466 345.21C283.186 345.21 282.221 344.645 281.571 343.515C281.001 342.555 280.716 341.265 280.716 339.645C280.716 338.025 281.001 336.735 281.571 335.775C282.211 334.645 283.176 334.08 284.466 334.08ZM284.466 335.13C283.506 335.13 282.816 335.645 282.396 336.675C282.096 337.395 281.946 338.385 281.946 339.645C281.946 340.885 282.096 341.875 282.396 342.615C282.816 343.645 283.506 344.16 284.466 344.16C285.426 344.16 286.116 343.645 286.536 342.615C286.846 341.855 287.001 340.865 287.001 339.645C287.001 338.405 286.846 337.415 286.536 336.675C286.116 335.645 285.426 335.13 284.466 335.13ZM293.46 334.08C294.74 334.08 295.705 334.645 296.355 335.775C296.925 336.735 297.21 338.025 297.21 339.645C297.21 341.265 296.925 342.555 296.355 343.515C295.695 344.645 294.73 345.21 293.46 345.21C292.18 345.21 291.215 344.645 290.565 343.515C289.995 342.555 289.71 341.265 289.71 339.645C289.71 338.025 289.995 336.735 290.565 335.775C291.205 334.645 292.17 334.08 293.46 334.08ZM293.46 335.13C292.5 335.13 291.81 335.645 291.39 336.675C291.09 337.395 290.94 338.385 290.94 339.645C290.94 340.885 291.09 341.875 291.39 342.615C291.81 343.645 292.5 344.16 293.46 344.16C294.42 344.16 295.11 343.645 295.53 342.615C295.84 341.855 295.995 340.865 295.995 339.645C295.995 338.405 295.84 337.415 295.53 336.675C295.11 335.645 294.42 335.13 293.46 335.13ZM303.813 336.432H304.797V341.724C304.797 342.572 304.985 343.208 305.361 343.632C305.761 344.08 306.385 344.304 307.233 344.304C308.073 344.304 308.697 344.08 309.105 343.632C309.481 343.192 309.669 342.556 309.669 341.724V336.432H310.653V341.712C310.653 342.824 310.369 343.676 309.801 344.268C309.217 344.868 308.361 345.168 307.233 345.168C306.105 345.168 305.253 344.872 304.677 344.28C304.101 343.68 303.813 342.824 303.813 341.712V336.432ZM315.26 336.264C316.236 336.264 316.996 336.484 317.54 336.924C318.108 337.38 318.436 338.06 318.524 338.964H317.552C317.448 338.348 317.208 337.888 316.832 337.584C316.456 337.28 315.916 337.128 315.212 337.128C314.564 337.128 314.068 337.232 313.724 337.44C313.316 337.68 313.112 338.044 313.112 338.532C313.112 338.964 313.356 339.312 313.844 339.576C314.052 339.696 314.576 339.876 315.416 340.116C316.544 340.452 317.288 340.728 317.648 340.944C318.36 341.376 318.716 341.98 318.716 342.756C318.716 343.508 318.416 344.1 317.816 344.532C317.208 344.956 316.4 345.168 315.392 345.168C314.384 345.168 313.592 344.952 313.016 344.52C312.344 344 311.972 343.216 311.9 342.168H312.872C312.96 342.912 313.22 343.46 313.652 343.812C314.06 344.132 314.64 344.292 315.392 344.292C316.096 344.292 316.664 344.16 317.096 343.896C317.528 343.632 317.744 343.272 317.744 342.816C317.744 342.28 317.46 341.86 316.892 341.556C316.676 341.428 316.072 341.22 315.08 340.932C314.072 340.628 313.416 340.396 313.112 340.236C312.456 339.852 312.128 339.3 312.128 338.58C312.128 337.828 312.444 337.248 313.076 336.84C313.644 336.456 314.372 336.264 315.26 336.264ZM319.962 336.432H323.034C324.394 336.432 325.418 336.824 326.106 337.608C326.746 338.336 327.066 339.372 327.066 340.716C327.066 342.036 326.722 343.072 326.034 343.824C325.314 344.608 324.282 345 322.938 345H319.962V336.432ZM320.946 337.284V344.148H322.77C323.882 344.148 324.722 343.852 325.29 343.26C325.826 342.676 326.094 341.828 326.094 340.716C326.094 339.572 325.846 338.72 325.35 338.16C324.822 337.576 323.998 337.284 322.878 337.284H320.946ZM327.774 336.432H334.794V337.284H331.77V345H330.798V337.284H327.774V336.432Z" fill="white"/>
<path d="M46.818 379.478C47.126 380.085 47.3873 380.71 47.602 381.354H53.006V382.068H46.062C45.0727 383.851 44.228 385.092 43.528 385.792C45.8987 385.68 48.1853 385.507 50.388 385.274C49.9307 384.593 49.45 383.935 48.946 383.3L49.576 382.908C50.7333 384.401 51.6107 385.699 52.208 386.8L51.578 387.248C51.41 386.931 51.1533 386.492 50.808 385.932L48.792 386.128V390.664C48.792 391.149 49.0673 391.392 49.618 391.392H51.452C51.7413 391.392 51.97 391.322 52.138 391.182C52.3713 390.958 52.516 390.23 52.572 388.998L53.286 389.236C53.1927 390.589 53.0013 391.425 52.712 391.742C52.4787 391.975 52.1193 392.101 51.634 392.12H49.408C48.5027 392.12 48.05 391.681 48.05 390.804V386.184L45.656 386.366C45.544 388.009 45.2033 389.236 44.634 390.048C43.9993 390.916 42.94 391.667 41.456 392.302L40.966 391.7C42.3567 391.14 43.346 390.482 43.934 389.726C44.466 388.998 44.788 387.897 44.9 386.422L42.464 386.548L42.296 385.848L42.45 385.792C43.15 385.335 44.0787 384.093 45.236 382.068H41.008V381.354H46.846C46.5847 380.682 46.3093 380.103 46.02 379.618L46.818 379.478ZM62.456 379.618H63.212V380.99H66.908V381.69H63.212V383.02H65.942V391.224H67.356V391.938H58.144V391.224H59.628V383.02H62.456V381.69H58.746V380.99H62.456V379.618ZM60.356 391.224H65.214V389.838H60.356V391.224ZM60.356 389.208H65.214V387.836H60.356V389.208ZM60.356 387.192H65.214V385.82H60.356V387.192ZM60.356 385.176H65.214V383.72H60.356V385.176ZM56.618 383.874C56.0953 384.742 55.5213 385.531 54.896 386.24L54.644 385.442C56.0627 383.697 57.08 381.737 57.696 379.562L58.382 379.884C58.102 380.78 57.766 381.639 57.374 382.46V392.4H56.618V383.874ZM77.618 390.678L77.422 389.908L78.612 389.936C79.0227 389.936 79.228 389.731 79.228 389.32V384.616H75.406V392.4H74.65V384.616H70.814V390.706H70.058V383.888H74.65V381.452C72.8767 381.601 71.0613 381.676 69.204 381.676L68.952 380.948C73.5627 380.939 77.3473 380.533 80.306 379.73L80.698 380.402C79.214 380.841 77.45 381.167 75.406 381.382V383.888H79.984V389.474C79.984 390.277 79.6107 390.678 78.864 390.678H77.618ZM91.254 379.646H91.996V382.194H94.838V388.382H94.096V387.612H91.996V392.372H91.254V387.612H89.196V388.382H88.468V382.194H91.254V379.646ZM89.196 386.912H91.254V382.922H89.196V386.912ZM91.996 386.912H94.096V382.922H91.996V386.912ZM82.798 380.752C84.5527 380.556 86.0787 380.215 87.376 379.73L87.628 380.43C87.0587 380.635 86.4333 380.822 85.752 380.99V383.51H87.642V384.252H85.752V385.05C86.424 385.713 87.152 386.515 87.936 387.458L87.502 388.088C86.8487 387.117 86.2653 386.333 85.752 385.736V392.456H84.996V385.652C84.4827 387.136 83.7593 388.475 82.826 389.67L82.518 388.872C83.6567 387.528 84.464 385.988 84.94 384.252H82.756V383.51H84.996V381.144C84.296 381.284 83.61 381.391 82.938 381.466L82.798 380.752Z" fill="white" fill-opacity="0.5"/>
<path d="M296.017 380.29H297.247V386.905C297.247 387.965 297.482 388.76 297.952 389.29C298.452 389.85 299.232 390.13 300.292 390.13C301.342 390.13 302.122 389.85 302.632 389.29C303.102 388.74 303.337 387.945 303.337 386.905V380.29H304.567V386.89C304.567 388.28 304.212 389.345 303.502 390.085C302.772 390.835 301.702 391.21 300.292 391.21C298.882 391.21 297.817 390.84 297.097 390.1C296.377 389.35 296.017 388.28 296.017 386.89V380.29ZM310.325 380.08C311.545 380.08 312.495 380.355 313.175 380.905C313.885 381.475 314.295 382.325 314.405 383.455H313.19C313.06 382.685 312.76 382.11 312.29 381.73C311.82 381.35 311.145 381.16 310.265 381.16C309.455 381.16 308.835 381.29 308.405 381.55C307.895 381.85 307.64 382.305 307.64 382.915C307.64 383.455 307.945 383.89 308.555 384.22C308.815 384.37 309.47 384.595 310.52 384.895C311.93 385.315 312.86 385.66 313.31 385.93C314.2 386.47 314.645 387.225 314.645 388.195C314.645 389.135 314.27 389.875 313.52 390.415C312.76 390.945 311.75 391.21 310.49 391.21C309.23 391.21 308.24 390.94 307.52 390.4C306.68 389.75 306.215 388.77 306.125 387.46H307.34C307.45 388.39 307.775 389.075 308.315 389.515C308.825 389.915 309.55 390.115 310.49 390.115C311.37 390.115 312.08 389.95 312.62 389.62C313.16 389.29 313.43 388.84 313.43 388.27C313.43 387.6 313.075 387.075 312.365 386.695C312.095 386.535 311.34 386.275 310.1 385.915C308.84 385.535 308.02 385.245 307.64 385.045C306.82 384.565 306.41 383.875 306.41 382.975C306.41 382.035 306.805 381.31 307.595 380.8C308.305 380.32 309.215 380.08 310.325 380.08ZM316.202 380.29H320.042C321.742 380.29 323.022 380.78 323.882 381.76C324.682 382.67 325.082 383.965 325.082 385.645C325.082 387.295 324.652 388.59 323.792 389.53C322.892 390.51 321.602 391 319.922 391H316.202V380.29ZM317.432 381.355V389.935H319.712C321.102 389.935 322.152 389.565 322.862 388.825C323.532 388.095 323.867 387.035 323.867 385.645C323.867 384.215 323.557 383.15 322.937 382.45C322.277 381.72 321.247 381.355 319.847 381.355H317.432ZM325.968 380.29H334.743V381.355H330.963V391H329.748V381.355H325.968V380.29Z" fill="white"/>
<path d="M46.818 425.478C47.126 426.085 47.3873 426.71 47.602 427.354H53.006V428.068H46.062C45.0727 429.851 44.228 431.092 43.528 431.792C45.8987 431.68 48.1853 431.507 50.388 431.274C49.9307 430.593 49.45 429.935 48.946 429.3L49.576 428.908C50.7333 430.401 51.6107 431.699 52.208 432.8L51.578 433.248C51.41 432.931 51.1533 432.492 50.808 431.932L48.792 432.128V436.664C48.792 437.149 49.0673 437.392 49.618 437.392H51.452C51.7413 437.392 51.97 437.322 52.138 437.182C52.3713 436.958 52.516 436.23 52.572 434.998L53.286 435.236C53.1927 436.589 53.0013 437.425 52.712 437.742C52.4787 437.975 52.1193 438.101 51.634 438.12H49.408C48.5027 438.12 48.05 437.681 48.05 436.804V432.184L45.656 432.366C45.544 434.009 45.2033 435.236 44.634 436.048C43.9993 436.916 42.94 437.667 41.456 438.302L40.966 437.7C42.3567 437.14 43.346 436.482 43.934 435.726C44.466 434.998 44.788 433.897 44.9 432.422L42.464 432.548L42.296 431.848L42.45 431.792C43.15 431.335 44.0787 430.093 45.236 428.068H41.008V427.354H46.846C46.5847 426.682 46.3093 426.103 46.02 425.618L46.818 425.478ZM62.456 425.618H63.212V426.99H66.908V427.69H63.212V429.02H65.942V437.224H67.356V437.938H58.144V437.224H59.628V429.02H62.456V427.69H58.746V426.99H62.456V425.618ZM60.356 437.224H65.214V435.838H60.356V437.224ZM60.356 435.208H65.214V433.836H60.356V435.208ZM60.356 433.192H65.214V431.82H60.356V433.192ZM60.356 431.176H65.214V429.72H60.356V431.176ZM56.618 429.874C56.0953 430.742 55.5213 431.531 54.896 432.24L54.644 431.442C56.0627 429.697 57.08 427.737 57.696 425.562L58.382 425.884C58.102 426.78 57.766 427.639 57.374 428.46V438.4H56.618V429.874ZM74.706 435.222C74.2113 434.457 73.7073 433.71 73.194 432.982C72.6713 434.401 72.0227 435.637 71.248 436.692L70.758 436.104C71.542 435.012 72.186 433.733 72.69 432.268C71.934 431.26 71.248 430.415 70.632 429.734L71.108 429.258C71.6773 429.855 72.2887 430.593 72.942 431.47C73.2313 430.481 73.4787 429.333 73.684 428.026L74.398 428.152C74.1647 429.636 73.8567 430.98 73.474 432.184C73.978 432.865 74.5567 433.715 75.21 434.732L74.706 435.222ZM78.864 435.866C78.3693 435.035 77.842 434.181 77.282 433.304C76.7033 434.741 76.0033 435.983 75.182 437.028L74.706 436.44C75.5273 435.367 76.218 434.074 76.778 432.562C76.078 431.535 75.4013 430.635 74.748 429.86L75.238 429.384C75.854 430.093 76.4607 430.882 77.058 431.75C77.4127 430.658 77.6973 429.431 77.912 428.068L78.626 428.194C78.3647 429.771 78.0147 431.209 77.576 432.506C78.1733 433.411 78.7707 434.363 79.368 435.362L78.864 435.866ZM77.926 438.274L77.73 437.532L79.116 437.574C79.5267 437.574 79.732 437.364 79.732 436.944V426.962H70.268V438.33H69.512V426.22H80.488V437.112C80.488 437.887 80.11 438.274 79.354 438.274H77.926ZM87.642 436.454C86.2607 436.986 84.6973 437.42 82.952 437.756L82.854 437.028C84.674 436.701 86.27 436.267 87.642 435.726V436.454ZM85.99 425.87C85.2713 427.746 84.534 429.235 83.778 430.336C84.394 430.261 85.108 430.131 85.92 429.944L86.676 428.446L87.334 428.698C86.0833 431.181 85.038 432.926 84.198 433.934C85.2433 433.729 86.3027 433.439 87.376 433.066V433.752C85.9293 434.247 84.5713 434.587 83.302 434.774L83.092 434.06C83.2227 434.004 83.3393 433.934 83.442 433.85C84.0207 433.225 84.7207 432.165 85.542 430.672C84.5713 430.868 83.7407 431.013 83.05 431.106L82.868 430.406C82.9987 430.341 83.106 430.247 83.19 430.126C84.002 428.819 84.6973 427.307 85.276 425.59L85.99 425.87ZM94.166 433.234V438.288H93.438V437.63H89.28V438.288H88.552V433.234H94.166ZM89.28 436.93H93.438V433.92H89.28V436.93ZM90.694 425.688C90.5633 426.099 90.4093 426.509 90.232 426.92H94.152V427.494C93.6107 428.679 92.8313 429.734 91.814 430.658C92.822 431.433 94.0587 432.03 95.524 432.45L95.09 433.066C93.5687 432.609 92.2947 431.955 91.268 431.106C90.2133 431.918 88.9907 432.599 87.6 433.15L87.124 432.534C88.5053 432.011 89.7 431.372 90.708 430.616C90.1107 430.047 89.5973 429.398 89.168 428.67C88.748 429.174 88.3 429.631 87.824 430.042L87.376 429.454C88.664 428.381 89.5273 427.083 89.966 425.562L90.694 425.688ZM89.588 428.096C90.0453 428.899 90.596 429.594 91.24 430.182C92.1267 429.417 92.822 428.563 93.326 427.62H89.882L89.588 428.096Z" fill="white" fill-opacity="0.5"/>
<path d="M286.93 426.29H295.705V427.355H291.925V437H290.71V427.355H286.93V426.29ZM297.042 426.29H301.662C302.732 426.29 303.572 426.535 304.182 427.025C304.822 427.545 305.142 428.295 305.142 429.275C305.142 429.865 304.977 430.395 304.647 430.865C304.297 431.335 303.812 431.645 303.192 431.795V431.825C304.212 432.055 304.782 432.705 304.902 433.775L305.067 435.425C305.127 436.075 305.317 436.6 305.637 437H304.302C304.052 436.63 303.907 436.155 303.867 435.575L303.732 434.15C303.672 433.51 303.447 433.055 303.057 432.785C302.707 432.525 302.192 432.395 301.512 432.395H298.272V437H297.042V426.29ZM298.272 427.355V431.33H301.512C302.292 431.33 302.897 431.145 303.327 430.775C303.707 430.425 303.897 429.94 303.897 429.32C303.897 428.66 303.712 428.17 303.342 427.85C302.952 427.52 302.342 427.355 301.512 427.355H298.272ZM311.799 426.08C312.989 426.08 313.989 426.395 314.799 427.025C315.609 427.655 316.089 428.505 316.239 429.575H315.054C314.904 428.805 314.524 428.205 313.914 427.775C313.334 427.375 312.624 427.175 311.784 427.175C310.544 427.175 309.584 427.61 308.904 428.48C308.274 429.29 307.959 430.36 307.959 431.69C307.959 433.04 308.269 434.1 308.889 434.87C309.549 435.7 310.504 436.115 311.754 436.115C312.604 436.115 313.329 435.89 313.929 435.44C314.569 434.95 314.994 434.245 315.204 433.325H316.389C316.149 434.585 315.589 435.555 314.709 436.235C313.879 436.885 312.894 437.21 311.754 437.21C310.094 437.21 308.819 436.66 307.929 435.56C307.129 434.58 306.729 433.29 306.729 431.69C306.729 430.09 307.139 428.785 307.959 427.775C308.849 426.645 310.129 426.08 311.799 426.08ZM321.662 426.08C322.652 426.08 323.467 426.365 324.107 426.935C324.747 427.515 325.067 428.27 325.067 429.2C325.067 430.12 324.717 430.96 324.017 431.72C323.607 432.15 322.867 432.725 321.797 433.445C320.437 434.355 319.657 435.175 319.457 435.905H325.082V437H317.942C317.942 436.01 318.297 435.125 319.007 434.345C319.467 433.825 320.242 433.19 321.332 432.44C322.182 431.83 322.742 431.385 323.012 431.105C323.562 430.505 323.837 429.865 323.837 429.185C323.837 428.535 323.642 428.03 323.252 427.67C322.862 427.31 322.317 427.13 321.617 427.13C320.867 427.13 320.302 427.38 319.922 427.88C319.492 428.37 319.272 429.085 319.262 430.025H318.032C318.032 428.835 318.367 427.88 319.037 427.16C319.697 426.44 320.572 426.08 321.662 426.08ZM330.506 426.08C331.786 426.08 332.751 426.645 333.401 427.775C333.971 428.735 334.256 430.025 334.256 431.645C334.256 433.265 333.971 434.555 333.401 435.515C332.741 436.645 331.776 437.21 330.506 437.21C329.226 437.21 328.261 436.645 327.611 435.515C327.041 434.555 326.756 433.265 326.756 431.645C326.756 430.025 327.041 428.735 327.611 427.775C328.251 426.645 329.216 426.08 330.506 426.08ZM330.506 427.13C329.546 427.13 328.856 427.645 328.436 428.675C328.136 429.395 327.986 430.385 327.986 431.645C327.986 432.885 328.136 433.875 328.436 434.615C328.856 435.645 329.546 436.16 330.506 436.16C331.466 436.16 332.156 435.645 332.576 434.615C332.886 433.855 333.041 432.865 333.041 431.645C333.041 430.405 332.886 429.415 332.576 428.675C332.156 427.645 331.466 427.13 330.506 427.13Z" fill="white"/>
<path d="M46.818 471.478C47.126 472.085 47.3873 472.71 47.602 473.354H53.006V474.068H46.062C45.0727 475.851 44.228 477.092 43.528 477.792C45.8987 477.68 48.1853 477.507 50.388 477.274C49.9307 476.593 49.45 475.935 48.946 475.3L49.576 474.908C50.7333 476.401 51.6107 477.699 52.208 478.8L51.578 479.248C51.41 478.931 51.1533 478.492 50.808 477.932L48.792 478.128V482.664C48.792 483.149 49.0673 483.392 49.618 483.392H51.452C51.7413 483.392 51.97 483.322 52.138 483.182C52.3713 482.958 52.516 482.23 52.572 480.998L53.286 481.236C53.1927 482.589 53.0013 483.425 52.712 483.742C52.4787 483.975 52.1193 484.101 51.634 484.12H49.408C48.5027 484.12 48.05 483.681 48.05 482.804V478.184L45.656 478.366C45.544 480.009 45.2033 481.236 44.634 482.048C43.9993 482.916 42.94 483.667 41.456 484.302L40.966 483.7C42.3567 483.14 43.346 482.482 43.934 481.726C44.466 480.998 44.788 479.897 44.9 478.422L42.464 478.548L42.296 477.848L42.45 477.792C43.15 477.335 44.0787 476.093 45.236 474.068H41.008V473.354H46.846C46.5847 472.682 46.3093 472.103 46.02 471.618L46.818 471.478ZM62.456 471.618H63.212V472.99H66.908V473.69H63.212V475.02H65.942V483.224H67.356V483.938H58.144V483.224H59.628V475.02H62.456V473.69H58.746V472.99H62.456V471.618ZM60.356 483.224H65.214V481.838H60.356V483.224ZM60.356 481.208H65.214V479.836H60.356V481.208ZM60.356 479.192H65.214V477.82H60.356V479.192ZM60.356 477.176H65.214V475.72H60.356V477.176ZM56.618 475.874C56.0953 476.742 55.5213 477.531 54.896 478.24L54.644 477.442C56.0627 475.697 57.08 473.737 57.696 471.562L58.382 471.884C58.102 472.78 57.766 473.639 57.374 474.46V484.4H56.618V475.874ZM80.754 474.096C80.754 477.008 80.698 478.772 80.586 479.388C80.4553 479.995 79.9747 480.298 79.144 480.298H78.794L78.57 479.528C78.9433 479.547 79.186 479.556 79.298 479.556C79.6247 479.556 79.83 479.379 79.914 479.024C79.9887 478.669 80.026 477.363 80.026 475.104L77.828 475.762V481.348H77.1V475.986L75.056 476.602V482.692C75.056 483.168 75.2847 483.406 75.742 483.406H79.466C79.8113 483.406 80.054 483.308 80.194 483.112C80.3713 482.841 80.4927 482.085 80.558 480.844L81.272 481.068C81.188 482.496 81.006 483.378 80.726 483.714C80.4833 483.985 80.11 484.12 79.606 484.12H75.518C74.7247 484.12 74.328 483.695 74.328 482.846V476.812L73.208 477.148V476.406L74.328 476.07V473.018H75.056V475.846L77.1 475.216V471.604H77.828V474.992L80.754 474.096ZM73.25 481.11C71.8407 481.745 70.352 482.253 68.784 482.636L68.588 481.88C69.204 481.749 69.848 481.586 70.52 481.39V476.224H68.77V475.482H70.52V471.646H71.276V475.482H72.928V476.224H71.276V481.138C71.892 480.923 72.55 480.662 73.25 480.354V481.11ZM91.408 471.562H92.164V476.126H94.95V476.868H92.164V483.014H95.342V483.756H86.578V483.014H88.272V474.53H89.028V483.014H91.408V471.562ZM87.25 481.278C85.8033 481.81 84.2727 482.239 82.658 482.566L82.448 481.782C83.204 481.642 83.876 481.497 84.464 481.348V476.028H82.602V475.272H84.464V471.646H85.22V475.272H87.054V476.028H85.22V481.152C85.892 480.947 86.5687 480.723 87.25 480.48V481.278Z" fill="white" fill-opacity="0.5"/>
<path d="M161.257 472.08H162.457V476.52C162.727 476.02 163.087 475.645 163.537 475.395C163.957 475.155 164.427 475.035 164.947 475.035C165.867 475.035 166.562 475.3 167.032 475.83C167.512 476.35 167.752 477.11 167.752 478.11V483H166.552V478.29C166.552 477.58 166.382 477.025 166.042 476.625C165.682 476.235 165.182 476.04 164.542 476.04C163.942 476.04 163.447 476.28 163.057 476.76C162.657 477.23 162.457 477.835 162.457 478.575V483H161.257V472.08ZM170.732 472.32C171.002 472.32 171.222 472.405 171.392 472.575C171.562 472.725 171.647 472.935 171.647 473.205C171.647 473.445 171.562 473.66 171.392 473.85C171.202 474.02 170.982 474.105 170.732 474.105C170.492 474.105 170.277 474.02 170.087 473.85C169.917 473.68 169.832 473.465 169.832 473.205C169.832 472.925 169.917 472.715 170.087 472.575C170.257 472.405 170.472 472.32 170.732 472.32ZM170.132 475.245H171.332V483.9C171.332 485.28 170.607 485.97 169.157 485.97H168.437V484.965H169.067C169.777 484.965 170.132 484.595 170.132 483.855V475.245ZM174.731 472.32C175.001 472.32 175.221 472.405 175.391 472.575C175.561 472.725 175.646 472.935 175.646 473.205C175.646 473.445 175.561 473.66 175.391 473.85C175.201 474.02 174.981 474.105 174.731 474.105C174.491 474.105 174.276 474.02 174.086 473.85C173.916 473.68 173.831 473.465 173.831 473.205C173.831 472.925 173.916 472.715 174.086 472.575C174.256 472.405 174.471 472.32 174.731 472.32ZM174.131 475.245H175.331V483.9C175.331 485.28 174.606 485.97 173.156 485.97H172.436V484.965H173.066C173.776 484.965 174.131 484.595 174.131 483.855V475.245ZM182.18 472.29V473.325H180.845C180.495 473.325 180.25 473.41 180.11 473.58C179.96 473.74 179.885 474.01 179.885 474.39V475.245H182.075V476.25H179.885V483H178.685V476.25H176.735V475.245H178.685V474.36C178.685 473.71 178.85 473.205 179.18 472.845C179.52 472.475 180.025 472.29 180.695 472.29H182.18ZM183.186 472.08H184.386V476.52C184.656 476.02 185.016 475.645 185.466 475.395C185.886 475.155 186.356 475.035 186.876 475.035C187.796 475.035 188.491 475.3 188.961 475.83C189.441 476.35 189.681 477.11 189.681 478.11V483H188.481V478.29C188.481 477.58 188.311 477.025 187.971 476.625C187.611 476.235 187.111 476.04 186.471 476.04C185.871 476.04 185.376 476.28 184.986 476.76C184.586 477.23 184.386 477.835 184.386 478.575V483H183.186V472.08ZM194.266 475.035C196.176 475.035 197.236 475.84 197.446 477.45H196.276C196.166 476.95 195.966 476.6 195.676 476.4C195.346 476.16 194.871 476.04 194.251 476.04C193.701 476.04 193.281 476.14 192.991 476.34C192.661 476.53 192.496 476.8 192.496 477.15C192.496 477.49 192.716 477.77 193.156 477.99C193.406 478.11 193.941 478.28 194.761 478.5C195.681 478.72 196.346 478.96 196.756 479.22C197.376 479.61 197.686 480.14 197.686 480.81C197.686 482.41 196.591 483.21 194.401 483.21C192.361 483.21 191.251 482.315 191.071 480.525H192.241C192.331 481.125 192.546 481.565 192.886 481.845C193.216 482.085 193.711 482.205 194.371 482.205C195.761 482.205 196.456 481.765 196.456 480.885C196.456 480.455 196.211 480.12 195.721 479.88C195.471 479.76 194.921 479.595 194.071 479.385C193.141 479.155 192.501 478.925 192.151 478.695C191.561 478.345 191.266 477.84 191.266 477.18C191.266 476.53 191.556 476.01 192.136 475.62C192.676 475.23 193.386 475.035 194.266 475.035ZM200.234 472.32C200.504 472.32 200.724 472.405 200.894 472.575C201.064 472.725 201.149 472.935 201.149 473.205C201.149 473.445 201.064 473.66 200.894 473.85C200.704 474.02 200.484 474.105 200.234 474.105C199.994 474.105 199.779 474.02 199.589 473.85C199.419 473.68 199.334 473.465 199.334 473.205C199.334 472.925 199.419 472.715 199.589 472.575C199.759 472.405 199.974 472.32 200.234 472.32ZM199.634 475.245H200.834V483.9C200.834 485.28 200.109 485.97 198.659 485.97H197.939V484.965H198.569C199.279 484.965 199.634 484.595 199.634 483.855V475.245ZM203.093 472.08H204.293V478.845L208.178 475.245H209.768L206.348 478.365L210.098 483H208.553L205.523 479.145L204.293 480.255V483H203.093V472.08ZM214.228 475.035C215.398 475.035 216.268 475.55 216.838 476.58V475.245H218.038V482.46C218.038 484.94 216.858 486.18 214.498 486.18C213.438 486.18 212.638 485.97 212.098 485.55C211.548 485.13 211.203 484.5 211.063 483.66H212.263C212.353 484.19 212.573 484.575 212.923 484.815C213.273 485.075 213.798 485.205 214.498 485.205C216.058 485.205 216.838 484.345 216.838 482.625V481.26C216.268 482.3 215.398 482.82 214.228 482.82C213.148 482.82 212.293 482.45 211.663 481.71C211.043 481 210.733 480.08 210.733 478.95C210.733 477.81 211.043 476.885 211.663 476.175C212.293 475.415 213.148 475.035 214.228 475.035ZM214.408 476.025C213.628 476.025 213.023 476.305 212.593 476.865C212.173 477.375 211.963 478.07 211.963 478.95C211.963 479.78 212.148 480.445 212.518 480.945C212.948 481.525 213.573 481.815 214.393 481.815C215.163 481.815 215.773 481.545 216.223 481.005C216.643 480.475 216.853 479.79 216.853 478.95C216.853 478.07 216.643 477.375 216.223 476.865C215.783 476.305 215.178 476.025 214.408 476.025ZM219.895 472.08H221.095V476.52C221.365 476.02 221.725 475.645 222.175 475.395C222.595 475.155 223.065 475.035 223.585 475.035C224.505 475.035 225.2 475.3 225.67 475.83C226.15 476.35 226.39 477.11 226.39 478.11V483H225.19V478.29C225.19 477.58 225.02 477.025 224.68 476.625C224.32 476.235 223.82 476.04 223.18 476.04C222.58 476.04 222.085 476.28 221.695 476.76C221.295 477.23 221.095 477.835 221.095 478.575V483H219.895V472.08ZM229.37 472.32C229.64 472.32 229.86 472.405 230.03 472.575C230.2 472.725 230.285 472.935 230.285 473.205C230.285 473.445 230.2 473.66 230.03 473.85C229.84 474.02 229.62 474.105 229.37 474.105C229.13 474.105 228.915 474.02 228.725 473.85C228.555 473.68 228.47 473.465 228.47 473.205C228.47 472.925 228.555 472.715 228.725 472.575C228.895 472.405 229.11 472.32 229.37 472.32ZM228.77 475.245H229.97V483.9C229.97 485.28 229.245 485.97 227.795 485.97H227.075V484.965H227.705C228.415 484.965 228.77 484.595 228.77 483.855V475.245ZM234.974 475.035C236.884 475.035 237.944 475.84 238.154 477.45H236.984C236.874 476.95 236.674 476.6 236.384 476.4C236.054 476.16 235.579 476.04 234.959 476.04C234.409 476.04 233.989 476.14 233.699 476.34C233.369 476.53 233.204 476.8 233.204 477.15C233.204 477.49 233.424 477.77 233.864 477.99C234.114 478.11 234.649 478.28 235.469 478.5C236.389 478.72 237.054 478.96 237.464 479.22C238.084 479.61 238.394 480.14 238.394 480.81C238.394 482.41 237.299 483.21 235.109 483.21C233.069 483.21 231.959 482.315 231.779 480.525H232.949C233.039 481.125 233.254 481.565 233.594 481.845C233.924 482.085 234.419 482.205 235.079 482.205C236.469 482.205 237.164 481.765 237.164 480.885C237.164 480.455 236.919 480.12 236.429 479.88C236.179 479.76 235.629 479.595 234.779 479.385C233.849 479.155 233.209 478.925 232.859 478.695C232.269 478.345 231.974 477.84 231.974 477.18C231.974 476.53 232.264 476.01 232.844 475.62C233.384 475.23 234.094 475.035 234.974 475.035ZM240.942 472.32C241.212 472.32 241.432 472.405 241.602 472.575C241.772 472.725 241.857 472.935 241.857 473.205C241.857 473.445 241.772 473.66 241.602 473.85C241.412 474.02 241.192 474.105 240.942 474.105C240.702 474.105 240.487 474.02 240.297 473.85C240.127 473.68 240.042 473.465 240.042 473.205C240.042 472.925 240.127 472.715 240.297 472.575C240.467 472.405 240.682 472.32 240.942 472.32ZM240.342 475.245H241.542V483.9C241.542 485.28 240.817 485.97 239.367 485.97H238.647V484.965H239.277C239.987 484.965 240.342 484.595 240.342 483.855V475.245ZM243.801 472.08H245.001V478.845L248.886 475.245H250.476L247.056 478.365L250.806 483H249.261L246.231 479.145L245.001 480.255V483H243.801V472.08ZM257.471 472.08H258.671V483H257.546V481.725C257.006 482.715 256.146 483.21 254.966 483.21C253.836 483.21 252.951 482.8 252.311 481.98C251.731 481.24 251.441 480.28 251.441 479.1C251.441 477.96 251.731 477.02 252.311 476.28C252.931 475.45 253.796 475.035 254.906 475.035C256.016 475.035 256.871 475.58 257.471 476.67V472.08ZM255.161 476.025C254.301 476.025 253.661 476.325 253.241 476.925C252.861 477.435 252.671 478.16 252.671 479.1C252.671 480.04 252.856 480.775 253.226 481.305C253.656 481.915 254.286 482.22 255.116 482.22C255.896 482.22 256.501 481.92 256.931 481.32C257.311 480.77 257.501 480.065 257.501 479.205V479.055C257.501 478.165 257.286 477.435 256.856 476.865C256.426 476.305 255.861 476.025 255.161 476.025ZM265.12 472.29V473.325H263.785C263.435 473.325 263.19 473.41 263.05 473.58C262.9 473.74 262.825 474.01 262.825 474.39V475.245H265.015V476.25H262.825V483H261.625V476.25H259.675V475.245H261.625V474.36C261.625 473.71 261.79 473.205 262.12 472.845C262.46 472.475 262.965 472.29 263.635 472.29H265.12ZM268.87 475.035C270.78 475.035 271.84 475.84 272.05 477.45H270.88C270.77 476.95 270.57 476.6 270.28 476.4C269.95 476.16 269.475 476.04 268.855 476.04C268.305 476.04 267.885 476.14 267.595 476.34C267.265 476.53 267.1 476.8 267.1 477.15C267.1 477.49 267.32 477.77 267.76 477.99C268.01 478.11 268.545 478.28 269.365 478.5C270.285 478.72 270.95 478.96 271.36 479.22C271.98 479.61 272.29 480.14 272.29 480.81C272.29 482.41 271.195 483.21 269.005 483.21C266.965 483.21 265.855 482.315 265.675 480.525H266.845C266.935 481.125 267.15 481.565 267.49 481.845C267.82 482.085 268.315 482.205 268.975 482.205C270.365 482.205 271.06 481.765 271.06 480.885C271.06 480.455 270.815 480.12 270.325 479.88C270.075 479.76 269.525 479.595 268.675 479.385C267.745 479.155 267.105 478.925 266.755 478.695C266.165 478.345 265.87 477.84 265.87 477.18C265.87 476.53 266.16 476.01 266.74 475.62C267.28 475.23 267.99 475.035 268.87 475.035ZM274.839 472.32C275.109 472.32 275.329 472.405 275.499 472.575C275.669 472.725 275.754 472.935 275.754 473.205C275.754 473.445 275.669 473.66 275.499 473.85C275.309 474.02 275.089 474.105 274.839 474.105C274.599 474.105 274.384 474.02 274.194 473.85C274.024 473.68 273.939 473.465 273.939 473.205C273.939 472.925 274.024 472.715 274.194 472.575C274.364 472.405 274.579 472.32 274.839 472.32ZM274.239 475.245H275.439V483.9C275.439 485.28 274.714 485.97 273.264 485.97H272.544V484.965H273.174C273.884 484.965 274.239 484.595 274.239 483.855V475.245ZM282.288 472.29V473.325H280.953C280.603 473.325 280.358 473.41 280.218 473.58C280.068 473.74 279.993 474.01 279.993 474.39V475.245H282.183V476.25H279.993V483H278.793V476.25H276.843V475.245H278.793V474.36C278.793 473.71 278.958 473.205 279.288 472.845C279.628 472.475 280.133 472.29 280.803 472.29H282.288ZM283.293 472.08H284.493V476.52C284.763 476.02 285.123 475.645 285.573 475.395C285.993 475.155 286.463 475.035 286.983 475.035C287.903 475.035 288.598 475.3 289.068 475.83C289.548 476.35 289.788 477.11 289.788 478.11V483H288.588V478.29C288.588 477.58 288.418 477.025 288.078 476.625C287.718 476.235 287.218 476.04 286.578 476.04C285.978 476.04 285.483 476.28 285.093 476.76C284.693 477.23 284.493 477.835 284.493 478.575V483H283.293V472.08ZM297.358 472.08H298.558V483H297.433V481.725C296.893 482.715 296.033 483.21 294.853 483.21C293.723 483.21 292.838 482.8 292.198 481.98C291.618 481.24 291.328 480.28 291.328 479.1C291.328 477.96 291.618 477.02 292.198 476.28C292.818 475.45 293.683 475.035 294.793 475.035C295.903 475.035 296.758 475.58 297.358 476.67V472.08ZM295.048 476.025C294.188 476.025 293.548 476.325 293.128 476.925C292.748 477.435 292.558 478.16 292.558 479.1C292.558 480.04 292.743 480.775 293.113 481.305C293.543 481.915 294.173 482.22 295.003 482.22C295.783 482.22 296.388 481.92 296.818 481.32C297.198 480.77 297.388 480.065 297.388 479.205V479.055C297.388 478.165 297.173 477.435 296.743 476.865C296.313 476.305 295.748 476.025 295.048 476.025ZM300.417 472.08H301.617V478.845L305.502 475.245H307.092L303.672 478.365L307.422 483H305.877L302.847 479.145L301.617 480.255V483H300.417V472.08ZM311.102 475.035C313.012 475.035 314.072 475.84 314.282 477.45H313.112C313.002 476.95 312.802 476.6 312.512 476.4C312.182 476.16 311.707 476.04 311.087 476.04C310.537 476.04 310.117 476.14 309.827 476.34C309.497 476.53 309.332 476.8 309.332 477.15C309.332 477.49 309.552 477.77 309.992 477.99C310.242 478.11 310.777 478.28 311.597 478.5C312.517 478.72 313.182 478.96 313.592 479.22C314.212 479.61 314.522 480.14 314.522 480.81C314.522 482.41 313.427 483.21 311.237 483.21C309.197 483.21 308.087 482.315 307.907 480.525H309.077C309.167 481.125 309.382 481.565 309.722 481.845C310.052 482.085 310.547 482.205 311.207 482.205C312.597 482.205 313.292 481.765 313.292 480.885C313.292 480.455 313.047 480.12 312.557 479.88C312.307 479.76 311.757 479.595 310.907 479.385C309.977 479.155 309.337 478.925 308.987 478.695C308.397 478.345 308.102 477.84 308.102 477.18C308.102 476.53 308.392 476.01 308.972 475.62C309.512 475.23 310.222 475.035 311.102 475.035Z" fill="white"/>
<path d="M332.6 473.4H335V483H325.4V480.6H323V471H332.6V473.4ZM332.6 474.2V480.6H326.2V482.2H334.2V474.2H332.6ZM323.8 471.8V479.8H331.8V471.8H323.8Z" fill="#97E180"/>
<path d="M237.685 278.264C238.477 278.264 239.129 278.492 239.641 278.948C240.153 279.412 240.409 280.016 240.409 280.76C240.409 281.496 240.129 282.168 239.569 282.776C239.241 283.12 238.649 283.58 237.793 284.156C236.705 284.884 236.081 285.54 235.921 286.124H240.421V287H234.709C234.709 286.208 234.993 285.5 235.561 284.876C235.929 284.46 236.549 283.952 237.421 283.352C238.101 282.864 238.549 282.508 238.765 282.284C239.205 281.804 239.425 281.292 239.425 280.748C239.425 280.228 239.269 279.824 238.957 279.536C238.645 279.248 238.209 279.104 237.649 279.104C237.049 279.104 236.597 279.304 236.293 279.704C235.949 280.096 235.773 280.668 235.765 281.42H234.781C234.781 280.468 235.049 279.704 235.585 279.128C236.113 278.552 236.813 278.264 237.685 278.264ZM244.76 278.264C245.784 278.264 246.556 278.716 247.076 279.62C247.532 280.388 247.76 281.42 247.76 282.716C247.76 284.012 247.532 285.044 247.076 285.812C246.548 286.716 245.776 287.168 244.76 287.168C243.736 287.168 242.964 286.716 242.444 285.812C241.988 285.044 241.76 284.012 241.76 282.716C241.76 281.42 241.988 280.388 242.444 279.62C242.956 278.716 243.728 278.264 244.76 278.264ZM244.76 279.104C243.992 279.104 243.44 279.516 243.104 280.34C242.864 280.916 242.744 281.708 242.744 282.716C242.744 283.708 242.864 284.5 243.104 285.092C243.44 285.916 243.992 286.328 244.76 286.328C245.528 286.328 246.08 285.916 246.416 285.092C246.664 284.484 246.788 283.692 246.788 282.716C246.788 281.724 246.664 280.932 246.416 280.34C246.08 279.516 245.528 279.104 244.76 279.104ZM252.075 278.264C252.867 278.264 253.519 278.492 254.031 278.948C254.543 279.412 254.799 280.016 254.799 280.76C254.799 281.496 254.519 282.168 253.959 282.776C253.631 283.12 253.039 283.58 252.183 284.156C251.095 284.884 250.471 285.54 250.311 286.124H254.811V287H249.099C249.099 286.208 249.383 285.5 249.951 284.876C250.319 284.46 250.939 283.952 251.811 283.352C252.491 282.864 252.939 282.508 253.155 282.284C253.595 281.804 253.815 281.292 253.815 280.748C253.815 280.228 253.659 279.824 253.347 279.536C253.035 279.248 252.599 279.104 252.039 279.104C251.439 279.104 250.987 279.304 250.683 279.704C250.339 280.096 250.163 280.668 250.155 281.42H249.171C249.171 280.468 249.439 279.704 249.975 279.128C250.503 278.552 251.203 278.264 252.075 278.264ZM260.159 278.432H261.083V284.252H262.475V285.056H261.083V287H260.147V285.056H255.839V284.12L260.159 278.432ZM260.111 279.716L256.667 284.252H260.147V279.716H260.111ZM263.346 283.484H269.406V284.3H263.346V283.484ZM274.344 278.432V287H273.36V279.632C272.832 280.176 272.16 280.568 271.344 280.808V279.824C271.72 279.72 272.12 279.544 272.544 279.296C272.936 279.056 273.28 278.768 273.576 278.432H274.344ZM280.807 278.264C281.831 278.264 282.603 278.716 283.123 279.62C283.579 280.388 283.807 281.42 283.807 282.716C283.807 284.012 283.579 285.044 283.123 285.812C282.595 286.716 281.823 287.168 280.807 287.168C279.783 287.168 279.011 286.716 278.491 285.812C278.035 285.044 277.807 284.012 277.807 282.716C277.807 281.42 278.035 280.388 278.491 279.62C279.003 278.716 279.775 278.264 280.807 278.264ZM280.807 279.104C280.039 279.104 279.487 279.516 279.151 280.34C278.911 280.916 278.791 281.708 278.791 282.716C278.791 283.708 278.911 284.5 279.151 285.092C279.487 285.916 280.039 286.328 280.807 286.328C281.575 286.328 282.127 285.916 282.463 285.092C282.711 284.484 282.835 283.692 282.835 282.716C282.835 281.724 282.711 280.932 282.463 280.34C282.127 279.516 281.575 279.104 280.807 279.104ZM285.002 283.484H291.062V284.3H285.002V283.484ZM295.388 278.264C296.18 278.264 296.832 278.492 297.344 278.948C297.856 279.412 298.112 280.016 298.112 280.76C298.112 281.496 297.832 282.168 297.272 282.776C296.944 283.12 296.352 283.58 295.496 284.156C294.408 284.884 293.784 285.54 293.624 286.124H298.124V287H292.412C292.412 286.208 292.696 285.5 293.264 284.876C293.632 284.46 294.252 283.952 295.124 283.352C295.804 282.864 296.252 282.508 296.468 282.284C296.908 281.804 297.128 281.292 297.128 280.748C297.128 280.228 296.972 279.824 296.66 279.536C296.348 279.248 295.912 279.104 295.352 279.104C294.752 279.104 294.3 279.304 293.996 279.704C293.652 280.096 293.476 280.668 293.468 281.42H292.484C292.484 280.468 292.752 279.704 293.288 279.128C293.816 278.552 294.516 278.264 295.388 278.264ZM302.463 278.264C303.487 278.264 304.259 278.716 304.779 279.62C305.235 280.388 305.463 281.42 305.463 282.716C305.463 284.012 305.235 285.044 304.779 285.812C304.251 286.716 303.479 287.168 302.463 287.168C301.439 287.168 300.667 286.716 300.147 285.812C299.691 285.044 299.463 284.012 299.463 282.716C299.463 281.42 299.691 280.388 300.147 279.62C300.659 278.716 301.431 278.264 302.463 278.264ZM302.463 279.104C301.695 279.104 301.143 279.516 300.807 280.34C300.567 280.916 300.447 281.708 300.447 282.716C300.447 283.708 300.567 284.5 300.807 285.092C301.143 285.916 301.695 286.328 302.463 286.328C303.231 286.328 303.783 285.916 304.119 285.092C304.367 284.484 304.491 283.692 304.491 282.716C304.491 281.724 304.367 280.932 304.119 280.34C303.783 279.516 303.231 279.104 302.463 279.104ZM314.387 278.432V287H313.403V279.632C312.875 280.176 312.203 280.568 311.387 280.808V279.824C311.763 279.72 312.163 279.544 312.587 279.296C312.979 279.056 313.323 278.768 313.619 278.432H314.387ZM320.85 278.264C321.874 278.264 322.646 278.716 323.166 279.62C323.622 280.388 323.85 281.42 323.85 282.716C323.85 284.012 323.622 285.044 323.166 285.812C322.638 286.716 321.866 287.168 320.85 287.168C319.826 287.168 319.054 286.716 318.534 285.812C318.078 285.044 317.85 284.012 317.85 282.716C317.85 281.42 318.078 280.388 318.534 279.62C319.046 278.716 319.818 278.264 320.85 278.264ZM320.85 279.104C320.082 279.104 319.53 279.516 319.194 280.34C318.954 280.916 318.834 281.708 318.834 282.716C318.834 283.708 318.954 284.5 319.194 285.092C319.53 285.916 320.082 286.328 320.85 286.328C321.618 286.328 322.17 285.916 322.506 285.092C322.754 284.484 322.878 283.692 322.878 282.716C322.878 281.724 322.754 280.932 322.506 280.34C322.17 279.516 321.618 279.104 320.85 279.104ZM326.029 281.18C326.237 281.18 326.409 281.248 326.545 281.384C326.689 281.512 326.761 281.68 326.761 281.888C326.761 282.096 326.689 282.268 326.545 282.404C326.393 282.54 326.221 282.608 326.029 282.608C325.837 282.608 325.665 282.54 325.513 282.404C325.369 282.26 325.297 282.088 325.297 281.888C325.297 281.68 325.369 281.512 325.513 281.384C325.649 281.248 325.821 281.18 326.029 281.18ZM326.029 285.572C326.237 285.572 326.409 285.64 326.545 285.776C326.689 285.904 326.761 286.072 326.761 286.28C326.761 286.488 326.689 286.66 326.545 286.796C326.393 286.932 326.221 287 326.029 287C325.837 287 325.665 286.932 325.513 286.796C325.369 286.652 325.297 286.48 325.297 286.28C325.297 286.072 325.369 285.904 325.513 285.776C325.649 285.64 325.821 285.572 326.029 285.572ZM331.329 278.264C332.121 278.264 332.773 278.492 333.285 278.948C333.797 279.412 334.053 280.016 334.053 280.76C334.053 281.496 333.773 282.168 333.213 282.776C332.885 283.12 332.293 283.58 331.437 284.156C330.349 284.884 329.725 285.54 329.565 286.124H334.065V287H328.353C328.353 286.208 328.637 285.5 329.205 284.876C329.573 284.46 330.193 283.952 331.065 283.352C331.745 282.864 332.193 282.508 332.409 282.284C332.849 281.804 333.069 281.292 333.069 280.748C333.069 280.228 332.913 279.824 332.601 279.536C332.289 279.248 331.853 279.104 331.293 279.104C330.693 279.104 330.241 279.304 329.937 279.704C329.593 280.096 329.417 280.668 329.409 281.42H328.425C328.425 280.468 328.693 279.704 329.229 279.128C329.757 278.552 330.457 278.264 331.329 278.264ZM338.405 278.264C339.429 278.264 340.201 278.716 340.721 279.62C341.177 280.388 341.405 281.42 341.405 282.716C341.405 284.012 341.177 285.044 340.721 285.812C340.193 286.716 339.421 287.168 338.405 287.168C337.381 287.168 336.609 286.716 336.089 285.812C335.633 285.044 335.405 284.012 335.405 282.716C335.405 281.42 335.633 280.388 336.089 279.62C336.601 278.716 337.373 278.264 338.405 278.264ZM338.405 279.104C337.637 279.104 337.085 279.516 336.749 280.34C336.509 280.916 336.389 281.708 336.389 282.716C336.389 283.708 336.509 284.5 336.749 285.092C337.085 285.916 337.637 286.328 338.405 286.328C339.173 286.328 339.725 285.916 340.061 285.092C340.309 284.484 340.433 283.692 340.433 282.716C340.433 281.724 340.309 280.932 340.061 280.34C339.725 279.516 339.173 279.104 338.405 279.104Z" fill="white" fill-opacity="0.5"/>
<line x1="20" y1="298.5" x2="355" y2="298.5" stroke="#353537"/>
<path d="M164.455 199.64C164.725 200.19 164.98 200.82 165.22 201.53H170.965V202.565H163.555C162.625 204.285 161.8 205.525 161.08 206.285C163.17 206.175 165.43 205.99 167.86 205.73C167.49 205.17 167.045 204.54 166.525 203.84L167.41 203.285C168.61 204.875 169.54 206.255 170.2 207.425L169.285 208.055C169.045 207.605 168.775 207.14 168.475 206.66L166.555 206.855V211.46C166.555 211.95 166.83 212.195 167.38 212.195H169.21C169.46 212.195 169.675 212.12 169.855 211.97C170.075 211.75 170.215 211.02 170.275 209.78L171.295 210.095C171.165 211.595 170.96 212.505 170.68 212.825C170.41 213.075 170.015 213.21 169.495 213.23H167.065C166.015 213.23 165.49 212.7 165.49 211.64V206.945L163.12 207.125C163 208.845 162.645 210.13 162.055 210.98C161.355 211.92 160.22 212.725 158.65 213.395L157.975 212.54C159.385 211.98 160.415 211.3 161.065 210.5C161.605 209.79 161.935 208.69 162.055 207.2C161.545 207.24 160.73 207.29 159.61 207.35L159.355 206.375C159.405 206.365 159.485 206.33 159.595 206.27C160.295 205.83 161.23 204.595 162.4 202.565H158.05V201.53H164.14C163.9 200.93 163.62 200.36 163.3 199.82L164.455 199.64ZM180.925 199.775H182.005V201.155H185.89V202.145H182.005V203.39H184.9V212.06H186.355V213.05H176.44V212.06H177.985V203.39H180.925V202.145H177.085V201.155H180.925V199.775ZM179.02 212.06H183.865V210.8H179.02V212.06ZM179.02 209.93H183.865V208.67H179.02V209.93ZM179.02 207.8H183.865V206.555H179.02V207.8ZM179.02 205.685H183.865V204.365H179.02V205.685ZM174.685 204.8C174.175 205.58 173.615 206.32 173.005 207.02L172.66 205.865C174.11 204.075 175.165 202.02 175.825 199.7L176.8 200.15C176.48 201.2 176.125 202.125 175.735 202.925V213.53H174.685V204.8ZM191.725 200.45C191.495 201.1 191.23 201.745 190.93 202.385H193.96V199.76H195.07V202.385H200.095V203.435H195.07V204.41C195.04 205.17 194.975 205.845 194.875 206.435H201.07V207.47H195.49C196.23 209.63 198.165 211.31 201.295 212.51L200.695 213.455C197.425 212.045 195.385 210.13 194.575 207.71C194.295 208.7 193.89 209.555 193.36 210.275C192.32 211.645 190.62 212.71 188.26 213.47L187.675 212.555C190.035 211.765 191.675 210.755 192.595 209.525C192.995 208.915 193.305 208.23 193.525 207.47H187.945V206.435H193.75C193.86 205.875 193.93 205.2 193.96 204.41V203.435H190.375C189.825 204.345 189.235 205.09 188.605 205.67L187.69 204.875C189.03 203.685 190.04 202.08 190.72 200.06L191.725 200.45ZM211.465 203.105L211.3 203.585C211.52 205.585 212.055 207.325 212.905 208.805C213.695 207.195 214.12 205.295 214.18 203.105H211.465ZM210.625 205.19C210.315 205.78 209.99 206.265 209.65 206.645L209.02 205.835C210.12 204.375 210.82 202.325 211.12 199.685L212.185 199.82C212.075 200.58 211.93 201.33 211.75 202.07H216.145V203.105H215.185C215.115 205.745 214.57 207.975 213.55 209.795C214.34 210.855 215.295 211.755 216.415 212.495L215.83 213.515C214.69 212.745 213.73 211.83 212.95 210.77C212.22 211.83 211.28 212.74 210.13 213.5L209.545 212.555C210.675 211.845 211.605 210.94 212.335 209.84C211.525 208.49 210.955 206.94 210.625 205.19ZM208.765 200.345V209.735H207.775V201.35H204.22V209.735H203.23V200.345H208.765ZM207.04 210.17C207.91 211.02 208.63 211.85 209.2 212.66L208.405 213.44C207.915 212.64 207.225 211.78 206.335 210.86L207.04 210.17ZM205.54 202.475H206.485V207.05C206.455 208.8 206.195 210.185 205.705 211.205C205.195 212.175 204.385 212.93 203.275 213.47L202.69 212.54C203.75 212.03 204.49 211.35 204.91 210.5C205.3 209.62 205.51 208.47 205.54 207.05V202.475Z" fill="white"/>
<path d="M118.708 228.59H119.45V229.584H122.992V230.228H119.45V231.334H122.474V231.964H119.45V233.098H123.356V233.756H114.844V233.098H118.708V231.964H115.782V231.334H118.708V230.228H115.222V229.584H118.708V228.59ZM116.692 237.284V238.488H121.508V237.284H116.692ZM121.508 236.682V235.464H116.692V236.682H121.508ZM116.692 239.104V241.358H115.978V234.82H122.236V240.266C122.236 240.947 121.877 241.288 121.158 241.288H119.982L119.786 240.602L120.934 240.644C121.317 240.644 121.508 240.467 121.508 240.112V239.104H116.692ZM112.156 228.772C113.136 229.509 113.953 230.233 114.606 230.942L114.088 231.474C113.453 230.765 112.632 230.037 111.624 229.29L112.156 228.772ZM110.616 232.958H113.444V239.342C113.864 238.969 114.363 238.479 114.942 237.872L115.138 238.684C114.391 239.468 113.584 240.182 112.716 240.826L112.422 240.14C112.609 239.972 112.702 239.79 112.702 239.594V233.7H110.616V232.958ZM126.24 232.748H130.608V231.684H125.036V231.012H130.608V229.822C128.825 229.925 127.309 230.004 126.058 230.06L125.932 229.416C129.507 229.295 132.713 229.075 135.55 228.758L135.788 229.388C134.136 229.556 132.661 229.687 131.364 229.78V231.012H136.964V231.684H131.364V232.748H135.746V237.256H131.364V238.39H136.488V239.02H131.364V240.294H137.174V240.966H124.826V240.294H130.608V239.02H125.526V238.39H130.608V237.256H126.24V232.748ZM135.018 236.626V235.296H131.364V236.626H135.018ZM130.608 236.626V235.296H126.982V236.626H130.608ZM126.982 234.68H130.608V233.378H126.982V234.68ZM131.364 233.378V234.68H135.018V233.378H131.364ZM150.908 229.444C149.639 229.985 148.243 230.298 146.722 230.382V233.126H151.496V233.84H149.858V241.428H149.116V233.84H146.722V235.688C146.657 238.059 146.129 239.949 145.14 241.358L144.594 240.784C145.462 239.561 145.924 237.863 145.98 235.688V229.752C147.641 229.715 149.163 229.383 150.544 228.758L150.908 229.444ZM138.882 229.878H141.738C141.458 229.337 141.183 228.893 140.912 228.548L141.682 228.408C141.934 228.781 142.195 229.271 142.466 229.878H145.126V230.606H138.882V229.878ZM138.756 233.056H140.45C140.207 232.403 139.932 231.833 139.624 231.348L140.296 231.082C140.604 231.642 140.884 232.3 141.136 233.056H142.83C143.157 232.421 143.437 231.749 143.67 231.04L144.356 231.278C144.113 231.941 143.833 232.533 143.516 233.056H145.224V233.77H142.438V235.562H144.972V236.262H142.438V240.308C142.438 241.055 142.074 241.428 141.346 241.428H140.576L140.408 240.714C140.725 240.751 140.954 240.77 141.094 240.77C141.486 240.77 141.682 240.555 141.682 240.126V236.262H138.952V235.562H141.682V233.77H138.756V233.056ZM140.758 237.27C140.385 238.679 139.843 239.916 139.134 240.98L138.504 240.574C139.204 239.566 139.722 238.418 140.058 237.13L140.758 237.27ZM143.796 237.018C144.263 237.961 144.622 238.81 144.874 239.566L144.23 239.818C143.941 238.941 143.581 238.063 143.152 237.186L143.796 237.018ZM158.818 228.478C159.126 229.085 159.387 229.71 159.602 230.354H165.006V231.068H158.062C157.073 232.851 156.228 234.092 155.528 234.792C157.899 234.68 160.185 234.507 162.388 234.274C161.931 233.593 161.45 232.935 160.946 232.3L161.576 231.908C162.733 233.401 163.611 234.699 164.208 235.8L163.578 236.248C163.41 235.931 163.153 235.492 162.808 234.932L160.792 235.128V239.664C160.792 240.149 161.067 240.392 161.618 240.392H163.452C163.741 240.392 163.97 240.322 164.138 240.182C164.371 239.958 164.516 239.23 164.572 237.998L165.286 238.236C165.193 239.589 165.001 240.425 164.712 240.742C164.479 240.975 164.119 241.101 163.634 241.12H161.408C160.503 241.12 160.05 240.681 160.05 239.804V235.184L157.656 235.366C157.544 237.009 157.203 238.236 156.634 239.048C155.999 239.916 154.94 240.667 153.456 241.302L152.966 240.7C154.357 240.14 155.346 239.482 155.934 238.726C156.466 237.998 156.788 236.897 156.9 235.422L154.464 235.548L154.296 234.848L154.45 234.792C155.15 234.335 156.079 233.093 157.236 231.068H153.008V230.354H158.846C158.585 229.682 158.309 229.103 158.02 228.618L158.818 228.478ZM174.456 228.618H175.212V229.99H178.908V230.69H175.212V232.02H177.942V240.224H179.356V240.938H170.144V240.224H171.628V232.02H174.456V230.69H170.746V229.99H174.456V228.618ZM172.356 240.224H177.214V238.838H172.356V240.224ZM172.356 238.208H177.214V236.836H172.356V238.208ZM172.356 236.192H177.214V234.82H172.356V236.192ZM172.356 234.176H177.214V232.72H172.356V234.176ZM168.618 232.874C168.095 233.742 167.521 234.531 166.896 235.24L166.644 234.442C168.063 232.697 169.08 230.737 169.696 228.562L170.382 228.884C170.102 229.78 169.766 230.639 169.374 231.46V241.4H168.618V232.874ZM182.506 238.6C183.066 238.6 183.346 238.987 183.346 239.762C183.346 240.863 182.879 241.671 181.946 242.184L181.652 241.694C182.324 241.246 182.679 240.677 182.716 239.986L182.506 240C182.301 240 182.128 239.939 181.988 239.818C181.857 239.697 181.792 239.529 181.792 239.314C181.792 239.071 181.857 238.899 181.988 238.796C182.109 238.665 182.282 238.6 182.506 238.6ZM195.54 232.888H200.524V237.046H195.54V232.888ZM199.782 236.346V233.602H196.31V236.346H199.782ZM201.028 238.796C199.143 239.328 197.141 239.757 195.022 240.084L194.84 239.314C196.968 239.043 199.031 238.628 201.028 238.068V238.796ZM205.774 241.33C205.093 241.302 204.444 240.849 203.828 239.972C203.604 239.664 203.417 239.333 203.268 238.978C202.447 239.995 201.555 240.793 200.594 241.372L200.16 240.728C201.187 240.112 202.111 239.263 202.932 238.18C202.736 237.657 202.563 237.055 202.414 236.374C202.115 234.927 201.961 233.215 201.952 231.236H194.812V230.48H201.952V228.604H202.708V230.48H205.046C204.785 229.892 204.505 229.383 204.206 228.954L204.962 228.828C205.242 229.304 205.517 229.855 205.788 230.48H207.174V231.236H202.708C202.736 233.103 202.871 234.689 203.114 235.996C203.217 236.519 203.333 236.99 203.464 237.41C204.295 236.094 204.999 234.484 205.578 232.58L206.25 232.944C205.578 235.081 204.752 236.864 203.772 238.292C203.912 238.665 204.089 239.034 204.304 239.398C204.808 240.145 205.27 240.518 205.69 240.518C206.082 240.518 206.418 239.678 206.698 237.998L207.328 238.418C206.973 240.359 206.455 241.33 205.774 241.33ZM214.482 231.712H217.996C218.547 230.751 219.009 229.724 219.382 228.632L220.096 228.884C219.648 230.041 219.195 230.984 218.738 231.712H220.978V232.44H218.038V233C218.038 233.737 217.996 234.437 217.912 235.1H221.23V235.842H218.178C218.533 237.466 219.611 239.118 221.412 240.798L220.908 241.344C219.144 239.655 218.075 237.984 217.702 236.332C217.179 238.628 216.078 240.317 214.398 241.4L213.936 240.784C215.588 239.776 216.629 238.129 217.058 235.842H214.258V235.1H217.17C217.245 234.484 217.287 233.84 217.296 233.168V232.44H214.482V231.712ZM215.728 228.73C216.307 229.57 216.75 230.303 217.058 230.928L216.484 231.334C216.157 230.643 215.705 229.901 215.126 229.108L215.728 228.73ZM208.686 229.234H214.188V229.948H213.194V237.914L214.216 237.592V238.334C213.983 238.409 213.642 238.511 213.194 238.642V241.47H212.452V238.838C211.397 239.118 210.203 239.379 208.868 239.622L208.686 238.908L209.624 238.754V229.948H208.686V229.234ZM210.338 238.614C210.982 238.493 211.687 238.329 212.452 238.124V235.856H210.338V238.614ZM210.338 235.156H212.452V232.944H210.338V235.156ZM210.338 232.23H212.452V229.948H210.338V232.23ZM226.914 241.316L226.746 240.588C227.418 240.625 227.903 240.644 228.202 240.644C228.594 240.644 228.79 240.453 228.79 240.07V236.374L224.324 236.612L224.114 235.94C224.385 235.912 224.609 235.865 224.786 235.8C226.093 235.249 227.511 234.386 229.042 233.21C228.015 233.285 226.611 233.373 224.828 233.476L224.66 232.79C224.865 232.762 225.043 232.715 225.192 232.65C226.023 232.258 226.97 231.474 228.034 230.298C226.69 230.373 225.346 230.41 224.002 230.41L223.778 229.752C227.829 229.733 231.137 229.421 233.704 228.814L234.082 229.458C232.682 229.813 230.988 230.069 229 230.228C228.011 231.357 227.021 232.225 226.032 232.832C227.32 232.757 228.589 232.673 229.84 232.58C230.484 232.048 231.156 231.474 231.856 230.858L232.556 231.194C230.073 233.415 227.894 234.983 226.018 235.898C228.538 235.758 230.699 235.59 232.5 235.394C232.099 234.871 231.707 234.386 231.324 233.938L231.884 233.574C233.051 234.918 233.928 236.08 234.516 237.06L233.914 237.48C233.634 237.004 233.312 236.514 232.948 236.01C232.071 236.103 230.932 236.206 229.532 236.318V240.252C229.532 240.961 229.177 241.316 228.468 241.316H226.914ZM231.506 237.326C232.906 238.362 234.096 239.407 235.076 240.462L234.53 241.008C233.681 240.019 232.5 238.955 230.988 237.816L231.506 237.326ZM226.914 237.928C225.962 239.057 224.772 240.061 223.344 240.938L222.868 240.308C224.231 239.515 225.397 238.558 226.368 237.438L226.914 237.928ZM247.032 237.144V241.4H246.29V240.77H239.976V241.4H239.234V237.144H247.032ZM239.976 240.07H246.29V237.83H239.976V240.07ZM242.104 230.998C241.899 231.325 241.656 231.67 241.376 232.034H246.654V232.664C246.019 233.513 245.128 234.26 243.98 234.904C245.557 235.585 247.359 236.01 249.384 236.178L249.202 236.878C246.934 236.682 244.937 236.155 243.21 235.296C241.53 236.089 239.43 236.715 236.91 237.172L236.616 236.472C239.005 236.071 240.951 235.543 242.454 234.89C241.67 234.442 240.919 233.91 240.2 233.294C239.621 233.817 239.01 234.279 238.366 234.68L237.89 234.106C239.346 233.238 240.503 232.141 241.362 230.816L242.104 230.998ZM243.21 234.54C244.274 234.008 245.123 233.397 245.758 232.706H240.788C240.732 232.762 240.69 232.809 240.662 232.846C241.446 233.518 242.295 234.083 243.21 234.54ZM248.6 229.738V232.244H247.83V230.424H238.17V232.244H237.4V229.738H242.636C242.487 229.365 242.295 228.996 242.062 228.632L242.888 228.492C243.047 228.791 243.224 229.206 243.42 229.738H248.6ZM252.436 233.238V235.786H254.928V233.238H252.436ZM254.928 232.552V229.976H252.436V232.552H254.928ZM252.422 236.5C252.357 238.469 252.039 240.098 251.47 241.386L250.882 240.868C251.451 239.543 251.741 237.881 251.75 235.884V229.262H255.642V240.154C255.642 240.938 255.278 241.33 254.55 241.33H253.43L253.248 240.658C253.771 240.677 254.13 240.686 254.326 240.686C254.727 240.686 254.928 240.425 254.928 239.902V236.5H252.422ZM257.686 235.114V241.372H256.972V229.262H262.488C262.488 230.914 262.404 232.015 262.236 232.566C262.087 233.126 261.564 233.406 260.668 233.406H259.59L259.38 232.748H260.318C260.682 232.748 260.953 232.72 261.13 232.664C261.307 232.608 261.443 232.468 261.536 232.244C261.657 231.861 261.723 231.101 261.732 229.962H257.686V234.428H262.488V235.072C262.189 236.593 261.695 237.867 261.004 238.894C261.676 239.566 262.479 240.163 263.412 240.686L263.048 241.316C262.059 240.747 261.237 240.131 260.584 239.468C259.959 240.233 259.203 240.854 258.316 241.33L257.924 240.728C258.792 240.233 259.511 239.636 260.08 238.936C259.128 237.816 258.484 236.542 258.148 235.114H257.686ZM258.806 235.114C259.114 236.318 259.679 237.401 260.5 238.362C261.097 237.438 261.531 236.355 261.802 235.114H258.806Z" fill="white" fill-opacity="0.5"/>
<g clip-path="url(#clip0_370_4414)">
<path fill-rule="evenodd" clip-rule="evenodd" d="M157 150C157 157.956 160.161 165.587 165.787 171.213C171.413 176.839 179.044 180 187 180C194.956 180 202.587 176.839 208.213 171.213C213.839 165.587 217 157.956 217 150C217 142.044 213.839 134.413 208.213 128.787C202.587 123.161 194.956 120 187 120C179.044 120 171.413 123.161 165.787 128.787C160.161 134.413 157 142.044 157 150ZM186.918 146.438L194.5 138.857C195.786 137.571 197.714 137.571 199 138.857C200.286 140.143 200.286 142.071 199 143.357L191.37 150.987L199 158.785C200.286 160.071 200.286 162 199 163.285C197.714 164.571 195.786 164.571 194.5 163.285L186.786 155.571L179.286 163.071C178 164.357 176.071 164.357 174.786 163.071C173.714 162 173.714 159.857 174.786 158.571L182.286 151.071L174.786 143.571C173.714 142.285 173.714 140.143 175 138.857C176.286 137.571 178.214 137.571 179.5 138.857L186.918 146.438Z" fill="#ABB3B4"/>
<path fill-rule="evenodd" clip-rule="evenodd" d="M157 150C157 157.956 160.161 165.587 165.787 171.213C171.413 176.839 179.044 180 187 180C194.956 180 202.587 176.839 208.213 171.213C213.839 165.587 217 157.956 217 150C217 142.044 213.839 134.413 208.213 128.787C202.587 123.161 194.956 120 187 120C179.044 120 171.413 123.161 165.787 128.787C160.161 134.413 157 142.044 157 150ZM186.918 146.438L194.5 138.857C195.786 137.571 197.714 137.571 199 138.857C200.286 140.143 200.286 142.071 199 143.357L191.37 150.987L199 158.785C200.286 160.071 200.286 162 199 163.285C197.714 164.571 195.786 164.571 194.5 163.285L186.786 155.571L179.286 163.071C178 164.357 176.071 164.357 174.786 163.071C173.714 162 173.714 159.857 174.786 158.571L182.286 151.071L174.786 143.571C173.714 142.285 173.714 140.143 175 138.857C176.286 137.571 178.214 137.571 179.5 138.857L186.918 146.438Z" fill="#ABB3B4"/>
</g>
<defs>
<clipPath id="clip0_370_4414">
<rect width="60" height="60" fill="white" transform="translate(157 120)"/>
</clipPath>
</defs>
</svg>
