<svg xmlns="http://www.w3.org/2000/svg" width="41" height="41" viewBox="0 0 41 41" fill="none">
  <path d="M34.5056 6.19448C26.7129 -1.59819 13.9873 -1.59819 6.1946 6.19448C-1.59807 13.9872 -1.59807 26.7128 6.1946 34.5055C13.9873 42.2981 26.7129 42.2981 34.5056 34.5055C42.2983 26.7128 42.2983 13.9872 34.5056 6.19448ZM27.4278 25.4259C27.9998 25.9979 27.9998 26.8558 27.4278 27.4277C27.1419 27.7137 26.7844 27.8567 26.427 27.8567C26.0695 27.8567 25.712 27.7137 25.4261 27.4277L20.3501 22.3518L15.2741 27.4277C14.7022 27.9997 13.8443 27.9997 13.2724 27.4277C12.7004 26.8558 12.7004 25.9979 13.2724 25.4259L18.3483 20.35L13.2724 15.274C12.7004 14.7021 12.7004 13.8442 13.2724 13.2722C13.8443 12.7003 14.7022 12.7003 15.2741 13.2722L20.3501 18.3482L25.4261 13.2722C25.998 12.7003 26.8559 12.7003 27.4278 13.2722C27.9998 13.8442 27.9998 14.7021 27.4278 15.274L22.3519 20.35L27.4278 25.4259Z" fill="white" fill-opacity="0.5"/>
</svg>