<svg width="30" height="30" viewBox="0 0 30 30" fill="none" xmlns="http://www.w3.org/2000/svg">
<g clip-path="url(#clip0_6250_43964)">
<path fill-rule="evenodd" clip-rule="evenodd" d="M0 15C0 18.9782 1.58035 22.7936 4.3934 25.6066C7.20644 28.4196 11.0218 30 15 30C18.9782 30 22.7936 28.4196 25.6066 25.6066C28.4196 22.7936 30 18.9782 30 15C30 11.0218 28.4196 7.20644 25.6066 4.3934C22.7936 1.58035 18.9782 0 15 0C11.0218 0 7.20644 1.58035 4.3934 4.3934C1.58035 7.20644 0 11.0218 0 15ZM14.9592 13.2192L18.75 9.42843C19.3928 8.78557 20.3571 8.78557 21 9.42843C21.6428 10.0713 21.6428 11.0356 21 11.6784L17.1848 15.4936L21 19.3927C21.6428 20.0356 21.6428 20.9999 21 21.6427C20.3571 22.2856 19.3928 22.2856 18.75 21.6427L14.8928 17.7856L11.1428 21.5356C10.5 22.1784 9.5357 22.1784 8.89284 21.5356C8.35713 20.9999 8.35713 19.9284 8.89284 19.2856L12.6428 15.5356L8.89285 11.7856C8.35713 11.1427 8.35713 10.0713 8.99999 9.42843C9.64285 8.78557 10.6071 8.78557 11.25 9.42843L14.9592 13.2192Z" fill="url(#paint0_linear_6250_43964)"/>
<path fill-rule="evenodd" clip-rule="evenodd" d="M0 15C0 18.9782 1.58035 22.7936 4.3934 25.6066C7.20644 28.4196 11.0218 30 15 30C18.9782 30 22.7936 28.4196 25.6066 25.6066C28.4196 22.7936 30 18.9782 30 15C30 11.0218 28.4196 7.20644 25.6066 4.3934C22.7936 1.58035 18.9782 0 15 0C11.0218 0 7.20644 1.58035 4.3934 4.3934C1.58035 7.20644 0 11.0218 0 15ZM14.9592 13.2192L18.75 9.42843C19.3928 8.78557 20.3571 8.78557 21 9.42843C21.6428 10.0713 21.6428 11.0356 21 11.6784L17.1848 15.4936L21 19.3927C21.6428 20.0356 21.6428 20.9999 21 21.6427C20.3571 22.2856 19.3928 22.2856 18.75 21.6427L14.8928 17.7856L11.1428 21.5356C10.5 22.1784 9.5357 22.1784 8.89284 21.5356C8.35713 20.9999 8.35713 19.9284 8.89284 19.2856L12.6428 15.5356L8.89285 11.7856C8.35713 11.1427 8.35713 10.0713 8.99999 9.42843C9.64285 8.78557 10.6071 8.78557 11.25 9.42843L14.9592 13.2192Z" fill="url(#paint1_linear_6250_43964)"/>
<mask id="mask0_6250_43964" style="mask-type:alpha" maskUnits="userSpaceOnUse" x="0" y="0" width="30" height="30">
<path fill-rule="evenodd" clip-rule="evenodd" d="M0 15C0 18.9782 1.58035 22.7936 4.3934 25.6066C7.20644 28.4196 11.0218 30 15 30C18.9782 30 22.7936 28.4196 25.6066 25.6066C28.4196 22.7936 30 18.9782 30 15C30 11.0218 28.4196 7.20644 25.6066 4.3934C22.7936 1.58035 18.9782 0 15 0C11.0218 0 7.20644 1.58035 4.3934 4.3934C1.58035 7.20644 0 11.0218 0 15ZM14.9592 13.2192L18.75 9.42843C19.3928 8.78557 20.3571 8.78557 21 9.42843C21.6428 10.0713 21.6428 11.0356 21 11.6784L17.1848 15.4936L21 19.3927C21.6428 20.0356 21.6428 20.9999 21 21.6427C20.3571 22.2856 19.3928 22.2856 18.75 21.6427L14.8928 17.7856L11.1428 21.5356C10.5 22.1784 9.5357 22.1784 8.89284 21.5356C8.35713 20.9999 8.35713 19.9284 8.89284 19.2856L12.6428 15.5356L8.89285 11.7856C8.35713 11.1427 8.35713 10.0713 8.99999 9.42843C9.64285 8.78557 10.6071 8.78557 11.25 9.42843L14.9592 13.2192Z" fill="url(#paint2_linear_6250_43964)"/>
<path fill-rule="evenodd" clip-rule="evenodd" d="M0 15C0 18.9782 1.58035 22.7936 4.3934 25.6066C7.20644 28.4196 11.0218 30 15 30C18.9782 30 22.7936 28.4196 25.6066 25.6066C28.4196 22.7936 30 18.9782 30 15C30 11.0218 28.4196 7.20644 25.6066 4.3934C22.7936 1.58035 18.9782 0 15 0C11.0218 0 7.20644 1.58035 4.3934 4.3934C1.58035 7.20644 0 11.0218 0 15ZM14.9592 13.2192L18.75 9.42843C19.3928 8.78557 20.3571 8.78557 21 9.42843C21.6428 10.0713 21.6428 11.0356 21 11.6784L17.1848 15.4936L21 19.3927C21.6428 20.0356 21.6428 20.9999 21 21.6427C20.3571 22.2856 19.3928 22.2856 18.75 21.6427L14.8928 17.7856L11.1428 21.5356C10.5 22.1784 9.5357 22.1784 8.89284 21.5356C8.35713 20.9999 8.35713 19.9284 8.89284 19.2856L12.6428 15.5356L8.89285 11.7856C8.35713 11.1427 8.35713 10.0713 8.99999 9.42843C9.64285 8.78557 10.6071 8.78557 11.25 9.42843L14.9592 13.2192Z" fill="url(#paint3_linear_6250_43964)"/>
</mask>
<g mask="url(#mask0_6250_43964)">
<rect x="31.7397" y="2.5" width="19.5" height="43.5" transform="rotate(50.8617 31.7397 2.5)" fill="white" fill-opacity="0.1"/>
</g>
</g>
<defs>
<linearGradient id="paint0_linear_6250_43964" x1="15" y1="0" x2="15" y2="30" gradientUnits="userSpaceOnUse">
<stop stop-color="#C1C6DC"/>
<stop offset="1" stop-color="#8F92A1"/>
</linearGradient>
<linearGradient id="paint1_linear_6250_43964" x1="15" y1="0" x2="15" y2="30" gradientUnits="userSpaceOnUse">
<stop stop-color="#C1C6DC"/>
<stop offset="1" stop-color="#8F92A1"/>
</linearGradient>
<linearGradient id="paint2_linear_6250_43964" x1="15" y1="0" x2="15" y2="30" gradientUnits="userSpaceOnUse">
<stop stop-color="#C1C6DC"/>
<stop offset="1" stop-color="#8F92A1"/>
</linearGradient>
<linearGradient id="paint3_linear_6250_43964" x1="15" y1="0" x2="15" y2="30" gradientUnits="userSpaceOnUse">
<stop stop-color="#C1C6DC"/>
<stop offset="1" stop-color="#8F92A1"/>
</linearGradient>
<clipPath id="clip0_6250_43964">
<rect width="30" height="30" fill="white"/>
</clipPath>
</defs>
</svg>