<svg width="60" height="60" fill="none" xmlns="http://www.w3.org/2000/svg"><g clip-path="url(#a)"><path fill-rule="evenodd" clip-rule="evenodd" d="M8.787 51.213A30 30 0 1 1 51.213 8.787 30 30 0 0 1 8.787 51.213Zm23.462-7.689a2.336 2.336 0 1 0-4.672.001 2.336 2.336 0 0 0 4.672-.001Zm-8.898-4.132a2.785 2.785 0 0 0-2.786-2.784 2.785 2.785 0 1 0 2.786 2.784Zm17.796.54a1.887 1.887 0 1 0-3.773 0 1.887 1.887 0 0 0 3.773 0Zm-21.031-9.298a3.28 3.28 0 0 0-3.28-3.278 3.28 3.28 0 1 0 3.28 3.278Zm23.907-.09a1.393 1.393 0 1 0-2.787 0 1.393 1.393 0 0 0 2.787 0Zm-19.773-9.25a3.729 3.729 0 0 0-3.73-3.728 3.729 3.729 0 1 0 3.73 3.728Zm10.336-3.458a4.67 4.67 0 0 0-4.673-4.67 4.672 4.672 0 0 0-4.674 4.67c0 2.58 2.092 4.67 4.674 4.67a4.672 4.672 0 0 0 4.673-4.67Zm5.303 3.548a.944.944 0 1 0-1.887 0 .944.944 0 0 0 1.887 0Z" fill="#FFA346"/></g><defs><clipPath id="a"><path fill="#fff" d="M0 0h60v60H0z"/></clipPath></defs></svg>