<svg xmlns="http://www.w3.org/2000/svg" width="40" height="40" viewBox="0 0 40 40" fill="none">
  <g clip-path="url(#clip0_80_493)">
    <path d="M20 0C8.94545 0 0 8.94545 0 20C0 31.0545 8.94545 40 20 40C31.0545 40 40 31.0545 40 20C40 8.94545 31.0545 0 20 0ZM30.1818 16.6182L19.2727 27.5273C19.0545 27.7455 18.7636 27.8909 18.4364 27.8909C18.0364 27.9636 17.6364 27.8545 17.3455 27.5636L10.4727 20.6545C10.3604 20.5424 10.2712 20.4092 10.2104 20.2626C10.1496 20.1159 10.1182 19.9587 10.1182 19.8C10.1182 19.6412 10.1496 19.4841 10.2104 19.3374C10.2712 19.1908 10.3604 19.0576 10.4727 18.9455L11.0545 18.3636C11.5273 17.8909 12.2909 17.8909 12.7636 18.3636L18.2909 23.8909L27.8545 14.3273C28.3273 13.8545 29.0909 13.8545 29.5636 14.3273L30.1818 14.9091C30.6545 15.3818 30.6545 16.1455 30.1818 16.6182Z" fill="#97E180"/>
  </g>
  <defs>
    <clipPath id="clip0_80_493">
      <rect width="40" height="40" fill="white"/>
    </clipPath>
  </defs>
</svg>