<svg width="60" height="60" fill="none" xmlns="http://www.w3.org/2000/svg"><path d="M30 0C13.431 0 0 13.431 0 30c0 16.569 13.431 30 30 30 16.566 0 30-13.431 30-30C60 13.431 46.566 0 30 0Zm14.736 21.153c-2.631 3.519-12 14.514-16.812 19.524-2.112 1.665-3.168.777-3.657.318-2.943-2.985-6.642-7.794-8.214-10.116-.345-.342-.237-.726.057-1.041l1.71-1.773c.39-.336.681-.297 1.143.039l6.411 4.995c.714.555.312.624 1.206-.201l15.48-14.277c1.05-.837 1.908.399 1.5-.027l1.194 1.245a1.02 1.02 0 0 1-.018 1.314Z" fill="#00D77C"/></svg>