<svg width="30" height="30" viewBox="0 0 30 30" fill="none" xmlns="http://www.w3.org/2000/svg">
<g clip-path="url(#clip0_6250_43736)">
<path d="M15 0C6.7155 0 0 6.7155 0 15C0 23.2845 6.7155 30 15 30C23.283 30 30 23.2845 30 15C30 6.7155 23.283 0 15 0ZM22.368 10.5765C21.0525 12.336 16.368 17.8335 13.962 20.3385C12.906 21.171 12.378 20.727 12.1335 20.4975C10.662 19.005 8.8125 16.6005 8.0265 15.4395C7.854 15.2685 7.908 15.0765 8.055 14.919L8.91 14.0325C9.105 13.8645 9.2505 13.884 9.4815 14.052L12.687 16.5495C13.044 16.827 12.843 16.8615 13.29 16.449L21.03 9.3105C21.555 8.892 21.984 9.51 21.78 9.297L22.377 9.9195C22.4532 10.0125 22.494 10.1294 22.4924 10.2496C22.4908 10.3699 22.4467 10.4856 22.368 10.5765Z" fill="url(#paint0_linear_6250_43736)"/>
<mask id="mask0_6250_43736" style="mask-type:alpha" maskUnits="userSpaceOnUse" x="0" y="0" width="30" height="30">
<path d="M15 0C6.7155 0 0 6.7155 0 15C0 23.2845 6.7155 30 15 30C23.283 30 30 23.2845 30 15C30 6.7155 23.283 0 15 0ZM22.368 10.5765C21.0525 12.336 16.368 17.8335 13.962 20.3385C12.906 21.171 12.378 20.727 12.1335 20.4975C10.662 19.005 8.8125 16.6005 8.0265 15.4395C7.854 15.2685 7.908 15.0765 8.055 14.919L8.91 14.0325C9.105 13.8645 9.2505 13.884 9.4815 14.052L12.687 16.5495C13.044 16.827 12.843 16.8615 13.29 16.449L21.03 9.3105C21.555 8.892 21.984 9.51 21.78 9.297L22.377 9.9195C22.4532 10.0125 22.494 10.1294 22.4924 10.2496C22.4908 10.3699 22.4467 10.4856 22.368 10.5765Z" fill="url(#paint1_linear_6250_43736)"/>
</mask>
<g mask="url(#mask0_6250_43736)">
<rect x="31.7397" y="2.5" width="19.5" height="43.5" transform="rotate(50.8617 31.7397 2.5)" fill="white" fill-opacity="0.1"/>
</g>
</g>
<defs>
<linearGradient id="paint0_linear_6250_43736" x1="15" y1="0" x2="15" y2="30" gradientUnits="userSpaceOnUse">
<stop stop-color="#61E8A0"/>
<stop offset="1" stop-color="#18B762"/>
</linearGradient>
<linearGradient id="paint1_linear_6250_43736" x1="15" y1="0" x2="15" y2="30" gradientUnits="userSpaceOnUse">
<stop stop-color="#6392FF"/>
<stop offset="1" stop-color="#97E180"/>
</linearGradient>
<clipPath id="clip0_6250_43736">
<rect width="30" height="30" fill="white"/>
</clipPath>
</defs>
</svg>