<svg width="60" height="60" fill="none" xmlns="http://www.w3.org/2000/svg"><g clip-path="url(#a)" fill-rule="evenodd" clip-rule="evenodd"><path d="M0 30a30 30 0 1 0 60 0 30 30 0 0 0-60 0Zm29.919-3.562 7.581-7.581c1.286-1.286 3.214-1.286 4.5 0s1.286 3.214 0 4.5l-7.63 7.63L42 38.785c1.286 1.286 1.286 3.215 0 4.5-1.286 1.286-3.214 1.286-4.5 0l-7.714-7.714-7.5 7.5c-1.286 1.286-3.215 1.286-4.5 0-1.072-1.071-1.072-3.214 0-4.5l7.5-7.5-7.5-7.5c-1.072-1.286-1.072-3.428.214-4.714 1.286-1.286 3.214-1.286 4.5 0l7.419 7.581Z" fill="url(#b)"/><path d="M0 30a30 30 0 1 0 60 0 30 30 0 0 0-60 0Zm29.919-3.562 7.581-7.581c1.286-1.286 3.214-1.286 4.5 0s1.286 3.214 0 4.5l-7.63 7.63L42 38.785c1.286 1.286 1.286 3.215 0 4.5-1.286 1.286-3.214 1.286-4.5 0l-7.714-7.714-7.5 7.5c-1.286 1.286-3.215 1.286-4.5 0-1.072-1.071-1.072-3.214 0-4.5l7.5-7.5-7.5-7.5c-1.072-1.286-1.072-3.428.214-4.714 1.286-1.286 3.214-1.286 4.5 0l7.419 7.581Z" fill="#fff" fill-opacity=".5"/></g><defs><linearGradient id="b" x1="30" y1="0" x2="30" y2="60" gradientUnits="userSpaceOnUse"><stop stop-color="#C1C6DC"/><stop offset="1" stop-color="#8F92A1"/></linearGradient><clipPath id="a"><path fill="#fff" d="M0 0h60v60H0z"/></clipPath></defs></svg>