<svg width="18" height="18" fill="none" xmlns="http://www.w3.org/2000/svg"><path d="M4.8 14.04H2.76c-.12 0-.24-.12-.24-.24v-3.76c0-.12.12-.24.24-.24H4.8c.12 0 .24.12.24.24v3.76c0 .12-.08.24-.24.24Zm3.44 0H6.16c-.12 0-.24-.12-.24-.24V5.08c0-.12.12-.24.24-.24h2.08c.12 0 .24.12.24.24v8.72c0 .12-.12.24-.24.24Zm3.44 0H9.6c-.12 0-.24-.12-.24-.24V7.52c0-.12.12-.24.24-.24h2.08c.12 0 .24.12.24.24v6.28c0 .12-.12.24-.24.24Zm3.44 0h-2.08c-.12 0-.24-.12-.24-.24V2.64c0-.12.12-.24.24-.24h2.08c.12 0 .24.12.24.24V13.8c0 .12-.12.24-.24.24Zm.36 1.76H2.36c-.12 0-.24-.12-.24-.24v-.48c0-.12.12-.24.24-.24h13.12c.12 0 .24.12.24.24v.52c0 .12-.08.2-.24.2Z" fill="#171717"/></svg>