<svg width="24" height="24" viewBox="0 0 24 24" fill="none" xmlns="http://www.w3.org/2000/svg"><path d="M1.893 11.38a.884.884 0 0 1-.523-1.605l6.725-4.897a1.151 1.151 0 0 1 1.148-.12l3.425 1.523 6.068-4.168-4.772-.34a.887.887 0 1 1 .126-1.77l6.54.467a1.152 1.152 0 0 1 .57 2.096l-7.815 5.37a1.142 1.142 0 0 1-1.115.105l-3.424-1.52-6.434 4.687a.884.884 0 0 1-.52.17zm.446 12.382a.886.886 0 0 1-.887-.886v-5.212a.887.887 0 0 1 1.773 0v5.212a.887.887 0 0 1-.886.886zm6.179 0a.886.886 0 0 1-.886-.886v-10a.887.887 0 0 1 1.772 0v10a.886.886 0 0 1-.885.886h-.001zm6.18 0a.886.886 0 0 1-.887-.886v-8.214a.887.887 0 0 1 1.773 0v8.214a.886.886 0 0 1-.886.886zm6.179 0a.886.886 0 0 1-.886-.886V9.08a.887.887 0 0 1 1.773 0v13.797a.887.887 0 0 1-.887.886z" fill="#36394C"/></svg>