<svg width="0.8rem" height="0.8rem" viewBox="0 0 40 40" fill="none" xmlns="http://www.w3.org/2000/svg">
            <rect width="40" height="40" rx="16" fill="#E8503A"/>
            <path d="M22.6669 9.91152L28.5713 18.418C29.0118 19.0527 28.7402 19.572 27.9676 19.572L27.7456 19.572L26.8023 19.572L25.6738 19.572L25.2327 19.572C25.1807 19.572 25.1287 19.5718 25.0767 19.572C24.9505 19.5725 24.9417 19.6476 24.9417 19.7605L24.9417 21.2683C24.9417 21.2683 25.3153 27.9033 18.9606 29.7547C18.9606 29.7547 15.9417 30.9006 11.1791 30.1339C11.1993 30.1372 11.228 30.1279 11.2479 30.1251C11.3138 30.1157 11.3794 30.105 11.4449 30.0929C11.5482 30.0742 11.6511 30.0528 11.7535 30.0294C11.8889 29.9985 12.0235 29.9641 12.1572 29.9264C12.3193 29.8808 12.4802 29.8306 12.6395 29.7759C12.8231 29.7129 13.0046 29.6441 13.1839 29.5696C13.3837 29.4866 13.5805 29.3966 13.7739 29.2996C13.9847 29.1939 14.1913 29.0798 14.393 28.9576C14.6097 28.8264 14.8205 28.6856 15.0247 28.5357C15.2421 28.376 15.4516 28.2057 15.6524 28.0256C15.8654 27.8344 16.0682 27.632 16.2597 27.4193C16.4631 27.1934 16.6535 26.9561 16.8301 26.7087C17.0184 26.4447 17.191 26.1698 17.347 25.8856C17.5147 25.5804 17.6636 25.2649 17.794 24.942C17.9352 24.5922 18.0549 24.2337 18.1545 23.8698C18.2633 23.4722 18.3482 23.0681 18.412 22.6609C18.4823 22.2125 18.527 21.7603 18.5501 21.307C18.5757 20.8052 18.5748 20.3022 18.5522 19.8003C18.5474 19.693 18.542 19.5815 18.4088 19.5722C18.3468 19.5679 18.283 19.572 18.2209 19.572L17.7353 19.572L16.5636 19.572L15.764 19.572C14.9915 19.572 14.7198 19.0527 15.1604 18.418L21.0648 9.9115C21.5053 9.27688 22.2262 9.2769 22.6668 9.91154L22.6669 9.91152Z" fill="white"/>
        </svg>