<svg width="40" height="40" fill="none" xmlns="http://www.w3.org/2000/svg"><rect width="40" height="40" rx="16" fill="#DC5959"/><path d="m22.667 9.912 5.904 8.506c.44.635.17 1.154-.603 1.154h-2.891c-.126 0-.135.076-.135.189v1.507s.373 6.635-5.981 8.487c0 0-3.02 1.146-7.782.379.02.003.05-.006.069-.009a6.916 6.916 0 0 0 .506-.096 8.256 8.256 0 0 0 .886-.253 9.178 9.178 0 0 0 1.753-.818 8.556 8.556 0 0 0 1.26-.932 8.06 8.06 0 0 0 1.694-2.14 8.79 8.79 0 0 0 .447-.944c.141-.35.26-.708.36-1.072.11-.398.194-.802.258-1.21.07-.448.115-.9.138-1.353.026-.502.025-1.005.002-1.507-.005-.107-.01-.219-.143-.228-.062-.004-.126 0-.188 0h-2.457c-.772 0-1.044-.52-.604-1.154l5.905-8.506c.44-.635 1.161-.635 1.602 0Z" fill="#171717"/></svg>