<svg width="24" height="24" viewBox="0 0 24 24" fill="none" xmlns="http://www.w3.org/2000/svg">
<circle cx="12" cy="12" r="12" fill="#878C90" opacity="0.4"/>
<path d="M9.08331 17.5413C7.63357 17.5413 6.45831 16.3661 6.45831 14.9163C6.45831 13.4666 7.63357 12.2913 9.08331 12.2913C10.5331 12.2913 11.7083 13.4666 11.7083 14.9163C11.7083 16.3661 10.5331 17.5413 9.08331 17.5413ZM14.9166 11.708C13.4669 11.708 12.2916 10.5328 12.2916 9.08301C12.2916 7.63326 13.4669 6.45801 14.9166 6.45801C16.3664 6.45801 17.5416 7.63326 17.5416 9.08301C17.5416 10.5328 16.3664 11.708 14.9166 11.708ZM6.74998 9.66634C6.74998 8.05551 8.05582 6.74967 9.66665 6.74967H11.4166V7.91634H9.66665C8.70015 7.91634 7.91665 8.69985 7.91665 9.66634V11.4163H6.74998V9.66634ZM16.0833 12.583V14.333C16.0833 15.2995 15.2998 16.083 14.3333 16.083H12.5833V17.2497H14.3333C15.9441 17.2497 17.25 15.9438 17.25 14.333V12.583H16.0833Z" fill="#878C90"/>
<path d="M14.9166 11.708C13.4669 11.708 12.2916 10.5328 12.2916 9.08301C12.2916 7.63326 13.4669 6.45801 14.9166 6.45801C16.3664 6.45801 17.5416 7.63326 17.5416 9.08301C17.5416 10.5328 16.3664 11.708 14.9166 11.708ZM16.0833 12.583V14.333C16.0833 15.2995 15.2998 16.083 14.3333 16.083H12.5833V17.2497H14.3333C15.9441 17.2497 17.25 15.9438 17.25 14.333V12.583H16.0833Z" fill="#00A609"/>
</svg>
