<svg width="40" height="40" fill="none" xmlns="http://www.w3.org/2000/svg"><rect width="40" height="40" rx="16" fill="#00A609"/><path d="m17.333 30.088-5.904-8.506c-.44-.635-.17-1.154.603-1.154h2.891c.126 0 .135-.076.135-.189v-1.507s-.373-6.635 5.981-8.487c0 0 3.02-1.146 7.782-.379-.02-.003-.05.006-.069.009a7.031 7.031 0 0 0-.91.199 8.91 8.91 0 0 0-1.026.356 9.12 9.12 0 0 0-1.209.612 8.556 8.556 0 0 0-1.26.932 8.06 8.06 0 0 0-1.694 2.14 8.79 8.79 0 0 0-.447.944c-.141.35-.26.708-.36 1.072-.11.398-.194.802-.258 1.21-.07.448-.115.9-.138 1.353a15.741 15.741 0 0 0-.002 1.507c.005.107.01.219.143.228.062.004.126 0 .188 0h2.457c.773 0 1.044.52.604 1.154l-5.905 8.506c-.44.635-1.161.635-1.602 0Z" fill="#171717"/></svg>