<svg width="40" height="40" fill="none" xmlns="http://www.w3.org/2000/svg"><rect width="40" height="40" rx="16" fill="#FFA346"/><path d="M21.111 12.428v4.878a1.056 1.056 0 1 1-2.111 0v-4.985l-1.983 1.984a1.055 1.055 0 1 1-1.493-1.493l4.479-4.478 4.478 4.478a1.056 1.056 0 0 1-1.493 1.493l-1.877-1.877Zm1.055 3.294h7.39c.583 0 1.055.473 1.055 1.056v3.167H9.5v-3.167c0-.583.473-1.055 1.055-1.055h7.39v1.583a2.112 2.112 0 1 0 4.221 0v-1.584Zm8.445 6.334v7.39c0 .582-.472 1.054-1.055 1.054h-19A1.055 1.055 0 0 1 9.5 29.445v-7.39h21.111Zm-19 3.694h5.806v-2.11h-5.806v2.11Z" fill="#171717"/></svg>