<svg width="20" height="20" fill="none" xmlns="http://www.w3.org/2000/svg"><path d="m18.028 7.217-3.049-1.549 1.707-3.384a.634.634 0 0 0 .006-.881.639.639 0 0 0-.885-.014l-1.89 3.74-2.629-1.33c-.282-.141-.546-.213-.786-.213-.435 0-.718.227-.84.442l-.022.043c-1.933 4.26-7.51 6.606-7.568 6.63a.842.842 0 0 0-.484.536c-.113.39.1.739.145.805l.068.103 10.185 6.307c.358.22.664.328.932.328a.75.75 0 0 0 .49-.16l.028-.025c3.683-3.508 4.869-8.665 4.985-9.854.098-1.02-.201-1.39-.393-1.524Zm-.73 1.412c0 .008-.115.868-.51 2.16-1.84-.904-6.042-3.327-7.42-4.127a10.74 10.74 0 0 0 1.209-1.93c.046.012.114.036.207.082.581.293 4.961 2.512 6.292 3.186l.22.111c.015.085.029.245.003.518Zm-5.13 5.745a.635.635 0 0 0 .014-.89.638.638 0 0 0-.885-.014l-1.956 1.905a.56.56 0 0 0-.06.07L6.302 13.6l2.002-1.372a.633.633 0 0 0-.01-1.046.625.625 0 0 0-.695.006L5.35 12.73a.611.611 0 0 0-.169.175L2.975 11.54c1.112-.519 3.623-1.841 5.643-4.003 1.422.827 5.895 3.412 7.802 4.333-.598 1.603-1.702 3.874-3.598 5.744a1.69 1.69 0 0 1-.246-.129l-2.203-1.364 1.795-1.747Z" fill="#8F92A1"/></svg>