<svg xmlns="http://www.w3.org/2000/svg" width="16" height="16" fill="none"><path d="M8 4a6.513 6.513 0 0 1 5.88 3.666 6.432 6.432 0 0 1-1.607 2.08l.94.94a7.867 7.867 0 0 0 2.12-3.02c-1.153-2.927-4-5-7.333-5a7.9 7.9 0 0 0-2.427.38l1.1 1.1A6.739 6.739 0 0 1 8 4Zm-.713.76 1.38 1.38c.38.166.686.473.853.853l1.38 1.38c.053-.227.093-.467.093-.714A2.989 2.989 0 0 0 8 4.666c-.247 0-.48.033-.713.093ZM1.34 2.58l1.787 1.786c-1.1.86-1.95 2-2.46 3.3 1.153 2.927 4 5 7.333 5a7.82 7.82 0 0 0 2.88-.546l2.28 2.28.94-.94L2.28 1.633l-.94.946Zm5 5 1.74 1.74a.334.334 0 0 1-.08.013 1.667 1.667 0 0 1-1.667-1.667c0-.033.007-.053.007-.087ZM4.073 5.312 5.24 6.479a3.005 3.005 0 0 0 3.94 3.947l.653.653A6.95 6.95 0 0 1 8 11.333a6.513 6.513 0 0 1-5.88-3.667 6.601 6.601 0 0 1 1.953-2.353Z" fill="#888"/></svg>