<svg xmlns="http://www.w3.org/2000/svg" width="16" height="17" viewBox="0 0 16 17" fill="none">
  <path d="M3.75798 3.30609L8.00065 7.53767L12.2433 3.30609C12.3581 3.19159 12.5108 3.1228 12.6729 3.11264C12.8349 3.10248 12.995 3.15164 13.1233 3.25089L13.186 3.30609C13.311 3.4308 13.3812 3.59992 13.3812 3.77626C13.3812 3.95261 13.311 4.12173 13.186 4.24644L8.94331 8.47868L13.186 12.7109C13.3055 12.8306 13.375 12.9912 13.3801 13.1601C13.3853 13.329 13.3258 13.4935 13.2138 13.6202C13.1018 13.7469 12.9456 13.8264 12.777 13.8424C12.6084 13.8584 12.44 13.8098 12.306 13.7065L12.2433 13.6513L8.00065 9.41903L3.75798 13.6513L3.69531 13.7065C3.56132 13.8098 3.39291 13.8584 3.2243 13.8424C3.05568 13.8264 2.8995 13.7469 2.78748 13.6202C2.67546 13.4935 2.61599 13.329 2.62116 13.1601C2.62633 12.9912 2.69575 12.8306 2.81531 12.7109L7.05731 8.47868L2.81531 4.24644C2.69387 4.12101 2.62668 3.95303 2.6282 3.77866C2.62972 3.60429 2.69983 3.43749 2.82343 3.31419C2.94704 3.19089 3.11425 3.12095 3.28905 3.11943C3.46384 3.11792 3.63224 3.18495 3.75798 3.30609Z" fill="white"/>
</svg>