<svg width="16" height="16" fill="none" xmlns="http://www.w3.org/2000/svg"><path fill-rule="evenodd" clip-rule="evenodd" d="M16 8A8 8 0 1 1 0 8a8 8 0 0 1 16 0Zm-7.637.006 2.561 2.553a.258.258 0 0 1 .076.182v.003-.003a.256.256 0 0 0-.076-.182l-2.56-2.553ZM5 10.73a.256.256 0 0 1 .076-.169l2.409-2.403.152-.152-.152.152-2.41 2.403a.256.256 0 0 0-.075.17Zm-.1-5.135 2.397 2.41-2.39 2.385a.499.499 0 0 0 0 .705.497.497 0 0 0 .702 0L8 8.7l2.391 2.391a.497.497 0 1 0 .702-.704l-2.39-2.383 2.391-2.403.006-.006a.498.498 0 0 0-.703-.703L8 7.294l-2.397-2.4-.007-.005a.497.497 0 0 0-.703.7l.006.006Z" fill="#fff" fill-opacity=".7"/></svg>