<svg width="16" height="16" viewBox="0 0 16 16" fill="none" xmlns="http://www.w3.org/2000/svg">
<path d="M8.00008 3.99997C9.22591 3.99589 10.428 4.33782 11.4682 4.98645C12.5083 5.63508 13.3443 6.56407 13.8801 7.66663C13.4934 8.46317 12.9464 9.17129 12.2734 9.74663L13.2134 10.6866C14.1401 9.86663 14.8734 8.83997 15.3334 7.66663C14.1801 4.73997 11.3334 2.66663 8.00008 2.66663C7.15342 2.66663 6.34008 2.79997 5.57342 3.04663L6.67342 4.14663C7.10675 4.05997 7.54675 3.99997 8.00008 3.99997ZM7.28675 4.75997L8.66675 6.13997C9.04675 6.30663 9.35342 6.6133 9.52008 6.9933L10.9001 8.3733C10.9534 8.14663 10.9934 7.90663 10.9934 7.65997C11.0001 6.00663 9.65342 4.66663 8.00008 4.66663C7.75342 4.66663 7.52008 4.69997 7.28675 4.75997ZM1.34008 2.57997L3.12675 4.36663C2.02696 5.22741 1.17758 6.36682 0.666748 7.66663C1.82008 10.5933 4.66675 12.6666 8.00008 12.6666C9.01342 12.6666 9.98675 12.4733 10.8801 12.12L13.1601 14.4L14.1001 13.46L2.28008 1.6333L1.34008 2.57997ZM6.34008 7.57997L8.08008 9.31997C8.05342 9.32663 8.02675 9.3333 8.00008 9.3333C7.55805 9.3333 7.13413 9.15771 6.82157 8.84515C6.50901 8.53258 6.33342 8.10866 6.33342 7.66663C6.33342 7.6333 6.34008 7.6133 6.34008 7.57997ZM4.07342 5.3133L5.24008 6.47997C5.08202 6.85564 5.00043 7.25906 5.00008 7.66663C5.00095 8.16265 5.1246 8.65074 5.36 9.08734C5.5954 9.52394 5.93522 9.89547 6.34915 10.1688C6.76307 10.4421 7.23822 10.6087 7.73219 10.6537C8.22616 10.6987 8.72359 10.6207 9.18008 10.4266L9.83342 11.08C9.24675 11.24 8.63342 11.3333 8.00008 11.3333C6.77426 11.3374 5.57217 10.9954 4.532 10.3468C3.49184 9.69819 2.65583 8.76919 2.12008 7.66663C2.58675 6.7133 3.26675 5.92663 4.07342 5.3133Z" fill="#D0D8E2"/>
</svg>
