<svg width="30" height="30" viewBox="0 0 30 30" fill="none" xmlns="http://www.w3.org/2000/svg">
<rect width="30" height="30" rx="15" fill="white" fill-opacity="0.1"/>
<path d="M10.2278 10.1669L15.0008 14.9392L19.7738 10.1669C19.9029 10.0378 20.0747 9.96021 20.257 9.94874C20.4393 9.93728 20.6195 9.99272 20.7638 10.1047L20.8343 10.1669C20.9749 10.3076 21.0538 10.4983 21.0538 10.6972C21.0538 10.896 20.9749 11.0868 20.8343 11.2274L16.0613 16.0004L20.8343 20.7734C20.9688 20.9084 21.0469 21.0895 21.0527 21.2799C21.0585 21.4704 20.9916 21.6559 20.8656 21.7989C20.7395 21.9418 20.5638 22.0314 20.3742 22.0495C20.1845 22.0675 19.995 22.0127 19.8443 21.8962L19.7738 21.8339L15.0008 17.0609L10.2278 21.8339L10.1573 21.8962C10.0065 22.0127 9.81706 22.0675 9.62736 22.0495C9.43767 22.0314 9.26197 21.9418 9.13594 21.7989C9.00992 21.6559 8.94302 21.4704 8.94884 21.2799C8.95465 21.0895 9.03275 20.9084 9.16726 20.7734L13.9395 16.0004L9.16726 11.2274C9.03064 11.086 8.95504 10.8965 8.95675 10.6999C8.95846 10.5032 9.03734 10.3151 9.17639 10.176C9.31545 10.037 9.50356 9.95812 9.70021 9.95641C9.89685 9.9547 10.0863 10.0303 10.2278 10.1669Z" fill="white"/>
</svg>
