<svg width="20" height="23" viewBox="0 0 20 23" fill="none" xmlns="http://www.w3.org/2000/svg">
<path d="M10.4725 10.6146L16.6182 4.43813C16.7272 4.32104 16.7865 4.16618 16.7837 4.00617C16.7809 3.84615 16.7161 3.69348 16.6031 3.58032C16.49 3.46716 16.3375 3.40233 16.1777 3.39951C16.0178 3.39669 15.8631 3.45608 15.7461 3.56518L9.60039 9.7211L3.45465 3.5693C3.33685 3.46783 3.18514 3.41459 3.02982 3.42022C2.87451 3.42586 2.72704 3.48995 2.61689 3.59969C2.50673 3.70944 2.44201 3.85674 2.43565 4.01218C2.42928 4.16762 2.48175 4.31973 2.58257 4.43813L8.7283 10.6146L2.58257 16.7458C2.52486 16.8029 2.47904 16.8709 2.44777 16.9458C2.41649 17.0207 2.40039 17.1011 2.40039 17.1823C2.40039 17.2635 2.41649 17.3439 2.44777 17.4188C2.47904 17.4937 2.52486 17.5617 2.58257 17.6188C2.69826 17.7344 2.85509 17.7994 3.01861 17.7994C3.18213 17.7994 3.33896 17.7344 3.45465 17.6188L9.60039 11.467L15.7461 17.6147C15.8618 17.7303 16.0187 17.7953 16.1822 17.7953C16.3457 17.7953 16.5025 17.7303 16.6182 17.6147C16.6759 17.5576 16.7217 17.4896 16.753 17.4147C16.7843 17.3398 16.8004 17.2594 16.8004 17.1782C16.8004 17.097 16.7843 17.0166 16.753 16.9417C16.7217 16.8667 16.6759 16.7988 16.6182 16.7417L10.4725 10.6146Z" fill="#161616"/>
</svg>
