<svg xmlns="http://www.w3.org/2000/svg" viewBox="0 0 18 17"><path d="M14.481 3.595H3.52a.254.254 0 0 0-.251.252v11.575c0 .755.612 1.367 1.367 1.367h8.741a1.34 1.34 0 0 0 1.346-1.356V3.836c.01-.131-.098-.24-.24-.24Zm-7.68 9.486a.506.506 0 0 1-.142.35.48.48 0 0 1-.35.142.49.49 0 0 1-.492-.492V6.998a.49.49 0 0 1 .492-.492.49.49 0 0 1 .492.492v6.083Zm2.692 0a.49.49 0 0 1-.493.492.49.49 0 0 1-.492-.492V6.998A.49.49 0 0 1 9 6.506a.49.49 0 0 1 .493.492v6.083Zm2.702 0a.49.49 0 0 1-.493.492.509.509 0 0 1-.503-.503V6.998c0-.274.219-.492.503-.492a.49.49 0 0 1 .493.492v6.083Z" fill="#fff"/><path d="M16.593 3.092h-3.6V2.12c0-.668-.547-1.204-1.203-1.204H6.243c-.667 0-1.203.547-1.203 1.204v.973H1.408a.56.56 0 0 0-.558.558.56.56 0 0 0 .558.558h15.185a.56.56 0 0 0 .558-.558.56.56 0 0 0-.558-.558Zm-4.716 0H6.156V2.02h5.721v1.072Z" fill="#fff"/></svg>