<svg xmlns="http://www.w3.org/2000/svg" width="22" height="22" viewBox="0 0 22 22" fill="none">
  <g clip-path="url(#clip0_2569_9402)">
    <path d="M14.7033 11.2181C16.2285 10.1288 17.2084 8.27718 17.2084 6.20759C17.2084 2.72218 14.3768 -0.000488281 11 -0.000488281C7.51495 -0.000488281 4.79227 2.83149 4.79227 6.20759C4.79227 8.27718 5.77224 10.1285 7.29702 11.2181C3.37611 12.7426 0.544136 16.5545 0.544136 21.0202C0.543635 21.1491 0.568664 21.2768 0.617778 21.396C0.666892 21.5152 0.739118 21.6234 0.830289 21.7145C0.921461 21.8056 1.02977 21.8778 1.14897 21.9268C1.26817 21.9758 1.3959 22.0008 1.52479 22.0002C1.65365 22.0007 1.78135 21.9758 1.90051 21.9267C2.01967 21.8777 2.12794 21.8055 2.21907 21.7144C2.31021 21.6233 2.3824 21.5151 2.4315 21.3959C2.48059 21.2768 2.50561 21.1491 2.50511 21.0202C2.50476 16.3369 6.31705 12.416 11 12.416C15.6837 12.416 19.4956 16.228 19.4956 20.9113C19.4951 21.0401 19.52 21.1679 19.5691 21.2871C19.6182 21.4062 19.6904 21.5145 19.7815 21.6057C19.8726 21.6968 19.9809 21.769 20.1001 21.8181C20.2193 21.8671 20.347 21.8921 20.4759 21.8916C20.6048 21.8921 20.7325 21.8671 20.8517 21.8181C20.9709 21.769 21.0792 21.6968 21.1703 21.6057C21.2615 21.5145 21.3336 21.4062 21.3827 21.2871C21.4318 21.1679 21.4568 21.0401 21.4562 20.9113C21.3469 16.4455 18.6242 12.7426 14.7033 11.2181ZM11 1.85118C13.3965 1.85118 15.3568 3.8118 15.3568 6.20759C15.3568 8.60406 13.3965 10.5643 11 10.5643C8.60422 10.5643 6.6436 8.60406 6.6436 6.20759C6.6436 3.81146 8.60457 1.85118 11 1.85118Z" fill="white"/>
  </g>
  <defs>
    <clipPath id="clip0_2569_9402">
      <rect width="22" height="22" fill="white"/>
    </clipPath>
  </defs>
</svg>