<svg width="16" height="16" fill="none" xmlns="http://www.w3.org/2000/svg"><circle cx="8" cy="8" r="8" fill="#A4ACB9"/><path d="M8 7.464 5.524 4.986l-.006-.006a.377.377 0 0 0-.533.53l.006.007 2.476 2.489-2.475 2.47a.375.375 0 0 0 0 .534.377.377 0 0 0 .532 0L8 8.53l2.476 2.477a.377.377 0 0 0 .533 0l-.085-.085M8 7.464l.085.982 2.476 2.477a.257.257 0 0 0 .363 0M8 7.464l2.476-2.48.003-.003a.377.377 0 0 1 .533.534l-.003.002-2.476 2.489 2.476 2.468M8 7.464l3.008 3.01m-.084.449a.258.258 0 0 0 .056-.28.258.258 0 0 0-.056-.084m0 .364.085.085a.375.375 0 0 0 0-.534l-.085.085m0 0 .085-.085m-.085.085.085-.085m-5.57.45 2.476-2.478-.278-.44-2.561 2.555a.256.256 0 0 0 .182.439.257.257 0 0 0 .181-.075Z" fill="#161616" stroke="#161616" stroke-width=".24"/></svg>