<svg xmlns="http://www.w3.org/2000/svg" width="18" height="18" viewBox="0 0 18 18" fill="none">
  <path d="M12.5699 7.43555L8.99448 11.0109L5.41909 7.43555C5.19937 7.21582 4.84253 7.21582 4.6228 7.43555C4.40308 7.65527 4.40308 8.01211 4.6228 8.23184L8.53745 12.1465C8.55327 12.1676 8.57261 12.1887 8.59194 12.2098C8.70269 12.3205 8.84858 12.375 8.99448 12.375C9.14038 12.3768 9.28628 12.3205 9.39702 12.2098C9.41636 12.1904 9.43569 12.1693 9.45151 12.1465L13.3662 8.23184C13.5859 8.01211 13.5859 7.65527 13.3662 7.43555C13.1464 7.21582 12.7896 7.21582 12.5699 7.43555Z" fill="#C4C4C4"/>
</svg>