<svg width="84" height="64" viewBox="0 0 84 64" fill="none" xmlns="http://www.w3.org/2000/svg">
<g clip-path="url(#clip0_392_4171)">
<ellipse cx="43" cy="52.543" rx="34" ry="14.5" fill="url(#paint0_linear_392_4171)"/>
<path fill-rule="evenodd" clip-rule="evenodd" d="M13.6843 15.1086L13.7651 14.0074L13.9771 13.0796L14.1891 12.5086L14.4415 11.9988L14.7241 11.5502L15.0471 11.1219L15.3904 10.7549L15.7437 10.4286L16.1172 10.1329L16.8542 9.67412L17.3993 9.39883L17.8636 9.20511L18.3078 9.06236L18.9034 8.90942L19.4284 8.94001L19.9331 9.01138L20.4379 9.12354L20.9224 9.28667L21.5483 9.55177L22.1641 9.87804L22.7496 10.2451L23.3149 10.6631L24.3446 11.5706L25.0412 12.2945L25.657 12.998L26.6463 14.3133L27.4943 15.6591L23.0222 16.7705L23.3553 17.1171L23.5673 17.3924L23.7591 17.7085L23.9408 18.0858L24.0317 18.3611L24.0923 18.6669L24.1124 18.983L24.0923 19.1869L23.9812 19.7069L23.85 20.0128L23.4966 20.594L23.0424 21.0426L22.7698 21.2261L22.4367 21.3994L22.043 21.5524L21.6291 21.6543L21.1344 21.7257L20.5489 21.7563L19.9432 21.6849L18.9741 21.481L18.3785 21.3077L17.7627 21.0834L17.1166 20.7877L16.6926 20.5532L15.8547 19.9618L15.4711 19.6253L15.1077 19.2277L14.7544 18.7893L14.4616 18.3203L14.1992 17.7901L13.9771 17.1885L13.8559 16.7399L13.7146 15.6999L13.6843 15.1086Z" fill="#90A7DB"/>
<path fill-rule="evenodd" clip-rule="evenodd" d="M27.4842 15.6079L22.9718 16.7702L23.3049 17.1169L23.5169 17.3922L23.7188 17.7083L23.8904 18.0957L23.9813 18.371L24.062 18.993L23.9712 19.411L23.7289 20.0227L23.3554 20.5937L22.9112 21.0423L22.6386 21.2259L22.3257 21.3992L21.9522 21.5521L21.5686 21.6541L21.1143 21.7255L20.5894 21.7561L21.2657 21.7255L29.4931 19.6353L27.4842 15.6079Z" fill="#C9D5EF"/>
<path fill-rule="evenodd" clip-rule="evenodd" d="M13.6843 14.9148V14.3438L13.7247 13.8952L13.7954 13.416L13.9367 12.8348L14.2295 12.0395L14.4515 11.6011L14.6938 11.1933L14.9967 10.7752L15.3702 10.3572L15.774 9.96975L16.2485 9.5925L16.8138 9.22545L17.7425 8.76663L18.9034 8.36899L47.7145 3.18945L48.4313 3.35259L49.6023 3.74003L50.844 4.29061L51.9443 4.91257L53.0548 5.69765L53.6302 6.18706L54.1753 6.69686L54.7103 7.28822L55.2353 7.94076L55.9419 9.00113L56.5779 10.245L56.8505 10.8976L57.1029 11.6113L57.3249 12.3658L57.5167 13.1917L57.6581 13.9971L57.7691 14.874L57.8398 15.812L57.86 16.8316L57.7994 18.3304L57.5975 20.808L57.3451 22.7554L56.9918 24.6825L56.7697 25.5593L56.2852 27.0377L55.8814 28.5671L55.6896 29.4236L55.4574 30.9326L55.3867 32.4722L55.417 33.4612L55.5886 34.9498L55.7501 35.8062L55.9924 36.7749L56.1842 37.4172L56.7091 38.7937L57.0221 39.487L57.4057 40.1803L57.8398 40.8838L58.3143 41.5567L58.8594 42.2195L59.4752 42.8822L60.4948 43.7897L61.7062 44.6563L44.4235 50.1111L44.7466 50.417L45.0393 50.7535L45.3018 51.1205L45.5239 51.4978L45.7157 51.9056L45.8671 52.3237L45.9681 52.7621L46.0387 53.2005L46.0488 54.0162L45.9075 54.9848L45.7561 55.5354L45.4532 56.2593L45.2513 56.6263L45.0192 56.9628L44.7365 57.2891L44.4135 57.595L44.05 57.8601L43.6361 58.0946L43.1516 58.2985L42.7781 58.4106L41.9099 58.5432L41.4052 58.5636L40.4865 58.2781L39.7496 57.9722L38.6391 57.4012L37.9325 56.9832L37.2561 56.5448L36.5091 55.9942L35.6813 55.3315L34.8939 54.6279L34.056 53.8021L32.4812 52.1299L31.4313 50.8656L30.3713 49.3974L29.5032 47.9496L29.0994 47.1747L28.7057 46.3284L28.3321 45.421L27.999 44.5034L27.7063 43.5246L27.464 42.4948L27.3226 41.7097L27.2217 40.9042L27.151 40.0681L27.1107 37.7435L27.1712 36.1529L27.3428 34.1749L27.4842 33.0941L27.676 31.9624L27.9183 30.8102L28.2817 29.4746L28.423 28.8424L28.5845 27.6597L28.7158 25.7836L28.7561 24.6009L28.7864 21.8888L28.6855 20.5837L28.5845 19.8292L28.423 18.983L28.211 18.1265L27.9283 17.2293L27.7063 16.6379L27.4337 16.0567L26.9289 15.1187L26.3535 14.2215L25.4349 12.9979L24.8595 12.3352L24.2033 11.6623L23.214 10.8262L22.679 10.4388L22.1136 10.0921L21.518 9.78622L20.9022 9.54152L20.4177 9.38858L19.9331 9.28662L19.4183 9.21525L18.9034 9.19486L18.3785 9.29682L17.9848 9.41917L17.0661 9.80661L16.3898 10.2145L16.0264 10.4795L15.35 11.1117L15.0169 11.5093L14.7241 11.9274L14.4515 12.4168L14.1891 12.9674L13.9872 13.5383L13.8156 14.1807L13.6843 14.9148Z" fill="url(#paint1_linear_392_4171)"/>
<path fill-rule="evenodd" clip-rule="evenodd" d="M31.5222 16.4954L32.35 18.708L53.4687 13.9974L52.9236 11.7849L31.5222 16.4954ZM33.1677 21.7565L33.4403 23.9691L53.7514 19.544L53.4788 17.3213L33.1677 21.7565ZM33.4403 27.3031L54.2965 22.5926L54.5691 24.8051L33.7128 29.5156L33.4403 27.3031ZM32.8951 32.5642L40.5774 30.627L40.85 32.8395L33.1677 34.7767L32.8951 32.5642Z" fill="#A6B4D5"/>
<path fill-rule="evenodd" clip-rule="evenodd" d="M61.7063 44.432L44.4035 50.1214L44.7265 50.4374L44.9991 50.7739L45.2313 51.1308L45.4231 51.508L45.5745 51.8955L45.7663 52.7417L45.8269 53.639L45.7966 53.9143L45.6553 54.6178L45.3625 55.5762L45.1303 56.0962L44.8376 56.6264L44.353 57.2789L44.0502 57.5848L43.717 57.8601L43.3435 58.0946L42.9195 58.2883L42.2331 58.4922L41.4053 58.5636H43.0508L69.3886 49.4179L69.6208 49.3057L69.8428 49.163L70.3678 48.7347L70.812 48.2045L71.0038 47.8987L71.1855 47.5316L71.3571 47.1034L71.4782 46.6548L71.5489 46.145L71.5792 45.5434L71.559 45.2477L71.4479 44.4932L71.2259 43.494L71.0441 42.9842L70.8221 42.4846L70.6403 42.1787L70.4384 41.9035L70.2164 41.6689L61.7063 44.432Z" fill="url(#paint2_linear_392_4171)"/>
<g clip-path="url(#clip1_392_4171)">
<path d="M71.6957 58.4861L72.6173 57.2713V47.395H73.8697V57.2713L74.7913 58.4861H71.6957Z" fill="#9EB5EA"/>
<path d="M68.6315 46.5546L68.6867 46.122L68.7418 45.914L68.9308 45.5312L69.1986 45.2067L69.5374 44.9571L69.3956 44.6825L69.301 44.3997L69.2538 44.1001V43.7923L69.301 43.4927L69.3956 43.2015L69.5374 42.9269L69.7106 42.694L69.9312 42.486L70.1675 42.3279L70.4353 42.2114L70.7189 42.1365L70.8055 41.8786L70.9158 41.6456L71.0576 41.4293L71.2309 41.2379L71.4278 41.0715L71.6483 40.9384L71.7114 40.6638L71.8138 40.4142L71.9477 40.1812L72.1131 39.9732L72.3021 39.7985L72.5148 39.6487L72.7432 39.5406L72.9953 39.4657L73.2631 39.4241L73.5309 39.4324L73.783 39.4823L74.0193 39.5738L74.2477 39.6986L74.4525 39.8484L74.6337 40.0398L74.7912 40.2561L74.9172 40.4974L75.0039 40.7637L75.3032 40.8053L75.5789 40.9051L75.8231 41.0465L76.0515 41.2296L76.2405 41.4459L76.3981 41.6955L76.5162 41.9618L76.5871 42.2613L76.6186 42.5775L76.5714 43.0101L76.7919 43.1433L76.9888 43.3014L77.1621 43.5011L77.3118 43.7174L77.4221 43.9504L77.5087 44.2083L77.5481 44.4829L77.556 44.7491L77.5245 45.007L77.4536 45.265L77.3512 45.5063L77.2173 45.7392L77.3827 45.9056L77.6426 46.2884L77.7371 46.4964L77.8474 46.954L77.8395 47.4199L77.7923 47.6612L77.6111 48.0939L77.3354 48.46L76.981 48.7429L76.5635 48.9176L76.3429 48.9592L76.3193 49.2421L76.272 49.4917L76.1854 49.7247L76.0751 49.9493L75.9333 50.149L75.7679 50.3321L75.5789 50.4818L75.3662 50.615L75.1378 50.7065L74.8936 50.773L74.6494 50.7897L74.4131 50.7814L74.1768 50.7314L73.9484 50.6482L73.7357 50.5401L73.5388 50.3903L73.3655 50.2156L73.208 50.0159L73.0268 50.2489L72.8141 50.4402L72.5857 50.59L72.3336 50.6982L72.0816 50.7647L71.8059 50.7897L71.5381 50.773L71.2703 50.7065L71.0024 50.59L70.7661 50.4319L70.5535 50.2405L70.3802 50.0159L70.2463 49.7746L70.1517 49.5084L70.0887 49.2338L70.073 48.9426L70.0966 48.6597L70.1754 48.3685L69.8839 48.3019L69.624 48.2021L69.3877 48.0606L69.1671 47.8776L68.986 47.6612L68.8363 47.4199L68.726 47.1454L68.6551 46.8625L68.6315 46.5546Z" fill="url(#paint3_linear_392_4171)"/>
</g>
<g clip-path="url(#clip2_392_4171)">
<path d="M17.6714 60.4342L18.174 59.7716V54.3845H18.8572V59.7716L19.3599 60.4342H17.6714Z" fill="#9EB5EA"/>
<path d="M16 53.9263L16.0301 53.6903L16.0602 53.5768L16.1633 53.368L16.3093 53.191L16.4941 53.0549L16.4168 52.9051L16.3652 52.7508L16.3394 52.5874V52.4195L16.3652 52.2561L16.4168 52.0973L16.4941 51.9475L16.5886 51.8204L16.7089 51.707L16.8378 51.6208L16.9839 51.5572L17.1386 51.5164L17.1858 51.3757L17.246 51.2486L17.3233 51.1306L17.4178 51.0262L17.5252 50.9355L17.6455 50.8629L17.6799 50.7131L17.7358 50.5769L17.8088 50.4499L17.899 50.3364L18.0022 50.2411L18.1182 50.1594L18.2428 50.1004L18.3802 50.0596L18.5263 50.0369L18.6724 50.0414L18.8099 50.0686L18.9388 50.1186L19.0634 50.1866L19.1751 50.2683L19.2739 50.3727L19.3598 50.4907L19.4286 50.6223L19.4758 50.7675L19.6391 50.7902L19.7895 50.8447L19.9227 50.9218L20.0473 51.0217L20.1504 51.1397L20.2363 51.2758L20.3008 51.4211L20.3394 51.5845L20.3566 51.7569L20.3308 51.9929L20.4511 52.0655L20.5585 52.1518L20.6531 52.2607L20.7347 52.3787L20.7948 52.5057L20.8421 52.6464L20.8636 52.7962L20.8679 52.9414L20.8507 53.0821L20.812 53.2228L20.7562 53.3544L20.6831 53.4815L20.7734 53.5723L20.9151 53.781L20.9667 53.8945L21.0269 54.1441L21.0226 54.3983L20.9968 54.5299L20.898 54.7659L20.7476 54.9655L20.5542 55.1199L20.3265 55.2152L20.2062 55.2379L20.1933 55.3922L20.1676 55.5283L20.1203 55.6554L20.0602 55.7779L19.9828 55.8868L19.8926 55.9867L19.7895 56.0684L19.6735 56.141L19.5489 56.1909L19.4157 56.2272L19.2825 56.2363L19.1536 56.2318L19.0247 56.2045L18.9001 56.1591L18.7841 56.1001L18.6767 56.0185L18.5822 55.9231L18.4962 55.8142L18.3974 55.9413L18.2814 56.0457L18.1568 56.1274L18.0193 56.1864L17.8819 56.2227L17.7315 56.2363L17.5854 56.2272L17.4393 56.1909L17.2932 56.1274L17.1643 56.0411L17.0483 55.9368L16.9538 55.8142L16.8808 55.6826L16.8292 55.5374L16.7948 55.3876L16.7863 55.2288L16.7991 55.0745L16.8421 54.9156L16.6831 54.8793L16.5414 54.8249L16.4125 54.7477L16.2922 54.6479L16.1933 54.5299L16.1117 54.3983L16.0516 54.2485L16.0129 54.0942L16 53.9263Z" fill="url(#paint4_linear_392_4171)"/>
</g>
<path d="M9.47375 8.55104L9.44786 8.96934L9.37021 9.37456L9.24079 9.76671L9.0596 10.1458L8.82664 10.4856L8.55485 10.7994L8.2313 11.0869L7.8948 11.3092L7.53242 11.4922L7.13121 11.6229L6.73 11.7144L6.31585 11.7405L5.9017 11.7144L5.5005 11.6229L5.11223 11.4922L4.73691 11.3092L4.40041 11.0869L4.0898 10.7994L3.80507 10.4856L3.58505 10.1458L3.40386 9.76671L3.27444 9.37456L3.18384 8.96934L3.15796 8.55104L3.19679 8.10661L3.27444 7.70139L3.40386 7.30924L3.59799 6.94324L3.81801 6.60338L4.38747 6.02823L4.72396 5.79294L5.08635 5.60993L5.47461 5.47922L5.88876 5.38772L6.31585 5.36157L6.75589 5.38772L7.15709 5.47922L7.54536 5.60993L7.90774 5.79294L8.55485 6.28966L8.8137 6.60338L9.04666 6.94324L9.22785 7.30924L9.35727 7.70139L9.44786 8.10661L9.47375 8.55104Z" fill="#CAD6F0"/>
<path d="M81.0526 20.2456L81.0181 20.8033L80.9146 21.3436L80.742 21.8664L80.5004 22.3719L80.1898 22.825L79.8275 23.2433L79.396 23.6267L78.9474 23.923L78.4642 24.167L77.9293 24.3413L77.3943 24.4633L76.8421 24.4982L76.2899 24.4633L75.755 24.3413L75.2373 24.167L74.7369 23.923L74.2882 23.6267L73.874 23.2433L73.4944 22.825L73.201 22.3719L72.9595 21.8664L72.7869 21.3436L72.6661 20.8033L72.6316 20.2456L72.6834 19.653L72.7869 19.1127L72.9595 18.5898L73.2183 18.1018L73.5117 17.6487L74.2709 16.8818L74.7196 16.5681L75.2028 16.3241L75.7205 16.1498L76.2727 16.0278L76.8421 15.9929L77.4288 16.0278L77.9638 16.1498L78.4815 16.3241L78.9646 16.5681L79.8275 17.2304L80.1726 17.6487L80.4832 18.1018L80.7248 18.5898L80.8973 19.1127L81.0181 19.653L81.0526 20.2456Z" fill="#CAD6F0"/>
</g>
<defs>
<linearGradient id="paint0_linear_392_4171" x1="43" y1="38.043" x2="43" y2="67.043" gradientUnits="userSpaceOnUse">
<stop stop-color="#E6ECFA"/>
<stop offset="1" stop-color="white"/>
</linearGradient>
<linearGradient id="paint1_linear_392_4171" x1="172315" y1="-23165.9" x2="172379" y2="-23344.6" gradientUnits="userSpaceOnUse">
<stop stop-color="#C9D5EF"/>
<stop offset="1" stop-color="#9CB3E7"/>
</linearGradient>
<linearGradient id="paint2_linear_392_4171" x1="107915" y1="-7558.06" x2="107915" y2="-7619.89" gradientUnits="userSpaceOnUse">
<stop stop-color="#E4EBFA"/>
<stop offset="1" stop-color="#BBC9F3"/>
</linearGradient>
<linearGradient id="paint3_linear_392_4171" x1="73.2395" y1="39.4241" x2="73.2395" y2="50.7897" gradientUnits="userSpaceOnUse">
<stop stop-color="#CAD6F0"/>
<stop offset="1" stop-color="#B0C5F7"/>
</linearGradient>
<linearGradient id="paint4_linear_392_4171" x1="18.5134" y1="50.0369" x2="18.5134" y2="56.2363" gradientUnits="userSpaceOnUse">
<stop stop-color="#CAD6F0"/>
<stop offset="1" stop-color="#B0C5F7"/>
</linearGradient>
<clipPath id="clip0_392_4171">
<rect width="84" height="63.3684" fill="white"/>
</clipPath>
<clipPath id="clip1_392_4171">
<rect width="11.5789" height="19.1368" fill="white" transform="matrix(-1 0 0 1 77.8948 39.3826)"/>
</clipPath>
<clipPath id="clip2_392_4171">
<rect width="6.31579" height="10.4383" fill="white" transform="matrix(-1 0 0 1 21.0527 50.0142)"/>
</clipPath>
</defs>
</svg>
