<svg width="94" height="70" fill="none" xmlns="http://www.w3.org/2000/svg" class="svg-class"><path d="M10.453 10.922h55.568V44.4c0 8.96 0 13.441-1.744 16.864a16 16 0 0 1-6.992 6.992C53.862 70 49.382 70 40.42 70H16.853c-2.24 0-3.36 0-4.216-.436a4 4 0 0 1-1.748-1.748c-.436-.856-.436-1.976-.436-4.216V10.922Z" fill="#fff" fill-opacity=".04"/><path d="M10.922 70C4.89 70 0 65.11 0 59.076h47.04C47.04 70 57.494 70 57.494 70H10.922Z" fill="url(#a)"/><path d="M21.375 0c-6.032 0-10.922 4.89-10.922 10.922h55.568C66.021 0 76.475 0 76.475 0h-55.1Z" fill="url(#b)"/><rect x="18.825" y="18.667" width="25.295" height="3.5" rx="1.75" fill="#fff" fill-opacity=".06"/><rect x="18.825" y="30.917" width="17.648" height="3.5" rx="1.75" fill="#fff" fill-opacity=".06"/><rect x="18.825" y="43.166" width="23.531" height="3.5" rx="1.75" fill="#fff" fill-opacity=".06"/><path fill-rule="evenodd" clip-rule="evenodd" d="M84.777 40.612c0 8.045-6.495 14.567-14.507 14.567s-14.507-6.522-14.507-14.567 6.495-14.567 14.507-14.567 14.507 6.522 14.507 14.567Zm-5.232.239c0 5.275-4.259 9.552-9.513 9.552s-9.513-4.277-9.513-9.552c0-5.276 4.26-9.552 9.513-9.552 5.254 0 9.513 4.276 9.513 9.552Z" fill="#00A609"/><path d="M70.032 50.403c5.254 0 9.513-4.277 9.513-9.552 0-5.276-4.259-9.552-9.513-9.552s-9.513 4.276-9.513 9.552c0 5.275 4.26 9.552 9.513 9.552Z" fill="#00A609" fill-opacity=".1"/><path fill-rule="evenodd" clip-rule="evenodd" d="M84.466 55.627 80.4 51.432l1.145-1.104 4.066 4.195-1.145 1.104Z" fill="#00A609"/><path fill-rule="evenodd" clip-rule="evenodd" d="M88.052 54.716a2.294 2.294 0 0 0-1.63-.678 2.313 2.313 0 0 0-2.305 2.315c0 .592.225 1.184.675 1.636l5.273 5.295c.45.452 1.04.678 1.63.678A2.313 2.313 0 0 0 94 61.647c0-.593-.225-1.185-.675-1.637l-5.273-5.294Z" fill="#00A609"/><defs><linearGradient id="a" x1="32.22" y1="59.077" x2="32.22" y2="69.999" gradientUnits="userSpaceOnUse"><stop stop-color="#fff" stop-opacity=".08"/><stop offset="1" stop-color="#fff" stop-opacity=".04"/></linearGradient><linearGradient id="b" x1="47.453" y1="10.922" x2="47.453" y2="0" gradientUnits="userSpaceOnUse"><stop stop-color="#fff" stop-opacity=".04"/><stop offset="1" stop-color="#fff" stop-opacity=".08"/></linearGradient></defs></svg>