<svg xmlns="http://www.w3.org/2000/svg" width="108" height="81" viewBox="0 0 108 81" fill="none">
  <path d="M108 80.1869L107.856 79.2553L107.649 78.3237L107.396 77.4103L107.09 76.4968L106.72 75.5924L106.306 74.6879L105.846 73.8287L105.332 72.9695L104.783 72.1193L104.17 71.2692L103.503 70.4281L102.782 69.596L102.043 68.8091L101.259 68.0313L100.43 67.2625L99.5467 66.4938L98.6095 65.7431L97.6182 65.0015L96.4376 64.1694L95.1849 63.3464L93.8601 62.5504L92.4813 61.7726L91.0214 61.0129L89.5704 60.3075L88.0564 59.6291L86.4883 58.9689L84.8571 58.3358L83.1629 57.7298L81.4866 57.1781L79.7563 56.6445L77.972 56.1561L76.1335 55.6858L74.25 55.2607L72.3755 54.8718L70.465 54.5281L68.5093 54.2116L66.5087 53.9403L64.463 53.6961L62.4352 53.5061L60.3805 53.3614L58.2897 53.2438L56.1629 53.1805L54 53.1624L51.8371 53.1805L49.7103 53.2438L47.6195 53.3614L45.5648 53.5061L43.537 53.6961L41.4913 53.9403L39.4907 54.2116L37.535 54.5281L35.6245 54.8718L33.75 55.2607L31.8575 55.6858L30.028 56.1561L28.2437 56.6445L26.5133 57.1781L24.8371 57.7298L23.1429 58.3358L21.5117 58.9689L19.9436 59.6291L18.4296 60.3075L16.9786 61.0129L15.5187 61.7726L14.1308 62.5504L12.8151 63.3464L11.5624 64.1694L10.3818 65.0015L9.39052 65.7431L8.45327 66.4938L7.57009 67.2625L6.74099 68.0313L5.95694 68.8091L5.21796 69.596L4.497 70.4281L3.83011 71.2692L3.21729 72.1193L2.65854 72.9695L2.15387 73.8287L1.69426 74.6879L1.27069 75.5924L0.910214 76.4968L0.603805 77.4103L0.351469 78.3237L0.144192 79.2553L0 80.1869H108Z" fill="url(#paint0_linear_187_1311)"/>
  <path d="M90.2194 14.7151L90.6519 14.688L91.4811 14.5523L91.8776 14.4257L92.3822 14.2267L92.8599 13.9735L93.3015 13.666L93.716 13.3223L94.0945 12.9424L94.428 12.5264L94.7254 12.0742L94.9687 11.5948L95.167 11.0793L95.3652 10.2743L95.4103 9.85831L95.4283 9.41514L95.3652 8.56497L95.167 7.76002L94.9687 7.2445L94.7254 6.76515L94.428 6.31293L94.0945 5.88785L93.716 5.50799L93.3015 5.16431L92.8599 4.86584L92.3822 4.6126L91.8776 4.40458L91.4811 4.28701L90.6519 4.1423L90.2194 4.12421L89.931 4.15134L89.7688 3.69008L89.5795 3.25595L89.3632 2.84896L89.1109 2.46005L88.5161 1.7546L88.1827 1.43805L87.4527 0.895387L86.6416 0.470304L86.209 0.298463L85.7584 0.171842L85.3078 0.0813983L84.8392 0.0180884L84.3525 0L83.8749 0.0180884L83.4063 0.0813983L82.9557 0.171842L82.5051 0.298463L81.658 0.660236L81.2614 0.895387L80.8829 1.14863L80.198 1.7546L79.6032 2.46005L79.3509 2.84896L79.1346 3.25595L78.9363 3.69008L78.7831 4.15134L78.4947 4.12421L78.0171 4.13325L77.5485 4.19656L77.0979 4.28701L76.6563 4.42267L76.2327 4.59451L75.8182 4.81158L75.4307 5.04673L75.0612 5.3271L74.7187 5.63461L74.4033 5.9783L74.1239 6.34911L73.8626 6.74706L73.6373 7.17214L73.457 7.60627L73.3218 8.04944L73.2227 8.50166L73.1596 8.96292L73.1416 9.41514L73.1596 9.8764L73.2227 10.3377L73.3218 10.7899L73.457 11.233L73.6373 11.6672L73.8626 12.0832L74.1239 12.4902L74.4033 12.861L74.7187 13.1957L75.0612 13.5032L75.4307 13.7835L75.8182 14.0277L76.2327 14.2358L76.6563 14.4076L77.0979 14.5523L77.5485 14.6428L78.0171 14.697L78.4947 14.7151H90.2194Z" fill="url(#paint1_linear_187_1311)"/>
  <path d="M24.9811 33.3373L25.4227 33.3101L26.2428 33.1654L26.6393 33.0479L27.144 32.8398L27.6216 32.5866L28.0632 32.2881L28.4778 31.9445L28.8563 31.5646L29.1897 31.1486L29.4871 30.6963L29.7304 30.2079L29.9287 29.7015L30.127 28.8965L30.181 28.4714L30.1991 28.0373L30.127 27.1781L29.9287 26.3822L29.7304 25.8667L29.4871 25.3873L29.1897 24.9351L28.8563 24.51L28.4778 24.1302L28.0632 23.7865L27.6216 23.488L27.144 23.2348L26.6393 23.0268L26.2428 22.9092L25.4227 22.7645L24.9811 22.7373L24.6927 22.7735L24.5395 22.3123L24.3412 21.8781L24.1249 21.4711L23.8726 21.0822L23.2778 20.3768L22.9444 20.0602L22.2144 19.5085L21.8179 19.2824L21.4033 19.0834L20.9707 18.9206L20.5201 18.794L20.0695 18.6945L19.6009 18.6403L19.1233 18.6222L18.6366 18.6403L18.168 18.6945L17.7174 18.794L17.2668 18.9206L16.4197 19.2824L15.6446 19.7708L14.9597 20.3768L14.3649 21.0822L14.1126 21.4711L13.8963 21.8781L13.7071 22.3123L13.5448 22.7735L13.2565 22.7373L12.7788 22.7554L12.3102 22.8097L11.8596 22.9092L11.418 23.0448L10.9944 23.2167L10.5889 23.4247L10.2014 23.6689L9.83189 23.9493L9.48042 24.2568L9.17401 24.6005L8.88563 24.9713L8.62428 25.3692L8.39898 25.7943L8.22775 26.2284L8.08356 26.6716L7.98443 27.1238L7.92134 27.5761L7.90332 28.0373L7.92134 28.4986L7.98443 28.9598L8.08356 29.4121L8.22775 29.8552L8.39898 30.2803L8.62428 30.7054L8.88563 31.1124L9.17401 31.4832L9.48042 31.8178L9.83189 32.1253L10.2014 32.4057L10.5889 32.6499L10.9944 32.8579L11.418 33.0298L11.8596 33.1654L12.3102 33.2649L12.7788 33.3192L13.2565 33.3373H24.9811Z" fill="url(#paint2_linear_187_1311)"/>
  <path d="M95.2481 42.3456L95.6266 42.3275L95.9871 42.2732L96.3385 42.1737L96.672 42.029L96.9874 41.8481L97.2848 41.6401L97.5552 41.3869L97.7895 41.1065L97.9967 40.7899L98.168 40.4553L98.2941 40.1116L98.3752 39.7589L98.4203 39.3881V39.0263L98.3752 38.6645L98.2941 38.3118L98.168 37.9681L97.9967 37.6244L97.7895 37.3169L97.5552 37.0365L97.2848 36.7833L96.9874 36.5753L96.672 36.3944L96.3385 36.2497L95.9871 36.1502L95.6266 36.0959H95.0768L94.9507 35.7342L94.7795 35.3995L94.5902 35.092L94.3649 34.8116L94.1126 34.5494L93.8332 34.3142L93.5358 34.1152L93.2114 33.9524L92.8689 33.8168L92.5265 33.7173L92.157 33.654L91.7785 33.6359L91.3999 33.654L91.0305 33.7173L90.679 33.8168L90.3455 33.9524L90.0211 34.1152L89.7237 34.3142L89.4443 34.5494L89.192 34.8116L88.9667 35.092L88.7684 35.3995L88.6062 35.7342L88.4801 36.0959H87.9303L87.5698 36.1502L87.2184 36.2497L86.8849 36.3944L86.5695 36.5753L86.2721 36.7833L86.0018 37.0365L85.7674 37.3169L85.5602 37.6244L85.3889 37.9681L85.2628 38.3118L85.1726 38.6645L85.1366 39.0263V39.3881L85.1726 39.7589L85.2628 40.1116L85.3889 40.4553L85.5602 40.7899L85.7674 41.1065L86.0018 41.3869L86.2721 41.6401L86.5695 41.8481L86.8849 42.029L87.2184 42.1737L87.5698 42.2732L87.9303 42.3275L88.3088 42.3456H95.2481Z" fill="url(#paint3_linear_187_1311)"/>
  <path d="M101.881 14.1181L101.863 14.3533L101.746 14.8055L101.511 15.2125L101.349 15.3934L101.178 15.5471L100.772 15.7823L100.322 15.8999L100.087 15.918L99.8441 15.8999L99.3935 15.7823L98.9969 15.5471L98.8167 15.3934L98.6545 15.2125L98.4292 14.8055L98.303 14.3533L98.285 14.1181L98.303 13.8739L98.4292 13.4217L98.6545 13.0238L98.8167 12.8429L98.9969 12.6801L99.3935 12.454L99.8441 12.3274L100.087 12.3183L100.322 12.3274L100.772 12.454L101.178 12.6801L101.349 12.8429L101.511 13.0238L101.746 13.4217L101.863 13.8739L101.881 14.1181Z" fill="url(#paint4_linear_187_1311)"/>
  <path d="M29.1625 3.30114L29.1355 3.71718L29.0544 4.10609L28.9282 4.47691L28.748 4.82059L28.5407 5.13714L28.2883 5.42656L28 5.6798L27.6845 5.89686L27.3331 6.06871L26.9636 6.20437L26.5761 6.27672L26.1705 6.30386L25.756 6.27672L25.3684 6.20437L24.999 6.06871L24.6565 5.89686L24.3411 5.6798L24.0527 5.42656L23.8004 5.13714L23.5841 4.82059L23.4128 4.47691L23.2777 4.10609L23.2056 3.71718L23.1785 3.30114L23.2056 2.89415L23.2777 2.50524L23.4128 2.13443L23.5841 1.7817L23.8004 1.46515L24.0527 1.17573L24.3411 0.922489L24.6565 0.714469L24.999 0.533583L25.3684 0.406963L25.756 0.325565L26.1705 0.298431L26.5761 0.325565L26.9636 0.406963L27.3331 0.533583L27.6845 0.714469L28 0.922489L28.2883 1.17573L28.5407 1.46515L28.748 1.7817L28.9282 2.13443L29.0544 2.50524L29.1355 2.89415L29.1625 3.30114Z" fill="url(#paint5_linear_187_1311)"/>
  <path d="M74.8716 58.0375L74.7905 58.2365L74.4841 58.4626L74.1867 58.6073L73.7271 58.7701L73.0872 58.9419L71.3569 59.2766L69.0679 59.5841L66.0489 59.8554L62.6423 60.0544L58.9384 60.181L55.0542 60.2172L51.179 60.181L47.4751 60.0544L44.0686 59.8554L41.0495 59.5841L38.7605 59.2766L37.0302 58.9419L36.3903 58.7701L35.9217 58.6073L35.4441 58.345L35.3269 58.2365L35.2638 58.1279L35.2458 58.0375L35.2638 57.938L35.4441 57.73L35.9217 57.4677L36.3903 57.3049L37.0302 57.133L37.8953 56.9431L39.8059 56.6447L41.0495 56.4909L44.0686 56.2196L47.4751 56.0206L51.179 55.894L55.0542 55.8488L58.9384 55.894L62.6423 56.0206L66.0489 56.2196L69.0679 56.4909L71.3569 56.7984L73.0872 57.133L73.7271 57.3049L74.1867 57.4677L74.4841 57.6034L74.6734 57.73L74.7905 57.8385L74.8536 57.938L74.8716 58.0375Z" fill="url(#paint6_linear_187_1311)"/>
  <path d="M67.9958 13.8559H44.8619L44.2671 13.883L43.6813 13.9554L43.1136 14.082L42.5548 14.2629L42.0141 14.4799L41.5004 14.7513L41.0048 15.0678L40.5362 15.4296L40.1036 15.8275L39.698 16.2707L39.3466 16.741L39.0311 17.2384L38.7608 17.754L38.5355 18.2966L38.3643 18.8574L38.2291 19.4272L38.157 20.015L38.1299 20.612V50.3135L38.157 50.9104L38.2291 51.4893L38.3643 52.0591L38.5355 52.6198L38.7608 53.1625L39.0311 53.687L39.3466 54.1754L39.698 54.6457L40.1036 55.0889L40.5362 55.4869L41.0048 55.8486L41.5004 56.1652L42.0231 56.4365L42.5548 56.6536L43.1136 56.8345L43.6813 56.9611L44.2671 57.0425L44.8619 57.0696H67.9958L68.5906 57.0425L69.1673 56.9611L69.7441 56.8345L70.3028 56.6536L70.8345 56.4365L71.3573 56.1652L71.8529 55.8486L72.3125 55.4869L72.7541 55.0889L73.1597 54.6457L73.5111 54.1754L73.8265 53.687L74.0969 53.1625L74.3222 52.6198L74.4934 52.0591L74.6196 51.4893L74.7007 50.9104L74.7277 50.3135V20.612L74.7007 20.015L74.6196 19.4272L74.4934 18.8574L74.3222 18.2966L74.0969 17.754L73.8265 17.2384L73.5111 16.741L73.1597 16.2707L72.7541 15.8275L72.3125 15.4296L71.8529 15.0678L71.3573 14.7513L70.8345 14.4799L70.3028 14.2629L69.7441 14.082L69.1673 13.9554L68.5906 13.883L67.9958 13.8559Z" fill="url(#paint7_linear_187_1311)"/>
  <path d="M65.1297 13.8559H42.0049L41.4101 13.883L40.8243 13.9554L40.2565 14.082L39.6978 14.2629L39.1571 14.4799L38.6344 14.7513L38.1477 15.0678L37.6791 15.4296L37.2375 15.8275L36.841 16.2707L36.4805 16.741L36.1651 17.2384L35.8947 17.754L35.6784 18.2966L35.4982 18.8574L35.372 19.4272L35.2909 20.015L35.2729 20.612V50.3135L35.2909 50.9104L35.372 51.4893L35.4982 52.0591L35.6784 52.6198L35.8947 53.1625L36.1651 53.687L36.4805 54.1754L36.841 54.6457L37.2375 55.0889L37.6791 55.4869L38.1477 55.8486L38.6344 56.1652L39.1571 56.4365L39.6978 56.6536L40.2565 56.8345L40.8243 56.9611L41.4101 57.0425L42.0049 57.0696H65.1297L65.6884 57.0425L66.2292 56.9792L66.7519 56.8706L67.2565 56.7169L67.7522 56.536L68.2298 56.3099L68.6804 56.0566L69.104 55.7582L69.5095 55.4326L69.888 55.0889L70.2395 54.709L70.5639 54.302L70.8523 53.8679L71.1137 53.4157L71.33 52.9454L71.5192 52.448L71.6634 51.9324L71.7716 51.4079L71.8346 50.8743L71.8617 50.3135V20.612L71.8346 20.0512L71.7716 19.5086L71.6634 18.984L71.5192 18.4775L71.33 17.9801L71.1137 17.5007L70.8523 17.0485L70.5639 16.6234L70.2395 16.2074L69.888 15.8366L69.5095 15.4838L69.104 15.1582L68.6804 14.8688L68.2298 14.6065L67.7522 14.3895L67.2565 14.1995L66.7519 14.0458L66.2292 13.9463L65.6884 13.874L65.1297 13.8559Z" fill="#BABABA"/>
  <path d="M65.1298 13.8559H57.5057L44.5464 57.0696H65.1298L65.6886 57.0425L66.2293 56.9792L66.752 56.8706L67.2567 56.7169L67.7523 56.536L68.23 56.3099L68.6806 56.0566L69.1041 55.7582L69.5097 55.4326L69.8882 55.0889L70.2396 54.709L70.5641 54.302L70.8525 53.8679L71.1138 53.4157L71.3301 52.9454L71.5194 52.448L71.6635 51.9324L71.7717 51.4079L71.8348 50.8743L71.8618 50.3135V20.612L71.8348 20.0512L71.7717 19.5086L71.6635 18.984L71.5194 18.4775L71.3301 17.9801L71.1138 17.5007L70.8525 17.0485L70.5641 16.6234L70.2396 16.2074L69.8882 15.8366L69.5097 15.4838L69.1041 15.1582L68.6806 14.8688L68.23 14.6065L67.7523 14.3895L67.2567 14.1995L66.752 14.0458L66.2293 13.9463L65.6886 13.874L65.1298 13.8559Z" fill="url(#paint8_linear_187_1311)"/>
  <path d="M42.0049 13.8559L41.4101 13.883L40.8243 13.9554L40.2565 14.082L39.6978 14.2629L39.1571 14.4799L38.6344 14.7513L38.1477 15.0678L37.6791 15.4296L37.2375 15.8275L36.841 16.2707L36.4805 16.741L36.1651 17.2384L35.8947 17.754L35.6784 18.2966L35.4982 18.8574L35.372 19.4272L35.2909 20.015L35.2729 20.612V50.3135L35.2909 50.9104L35.372 51.4893L35.4982 52.0591L35.6784 52.6198L35.8947 53.1625L36.1651 53.687L36.4805 54.1754L36.841 54.6457L37.2375 55.0889L37.6791 55.4869L38.1477 55.8486L38.6344 56.1652L39.1571 56.4365L39.6978 56.6536L40.2565 56.8345L40.8243 56.9611L41.4101 57.0425L42.0049 57.0696H44.5463L57.5055 13.8559H42.0049Z" fill="#515151"/>
  <mask id="mask0_187_1311" style="mask-type:alpha" maskUnits="userSpaceOnUse" x="35" y="13" width="23" height="45">
    <path d="M42.0049 13.8559L41.4101 13.883L40.8243 13.9554L40.2565 14.082L39.6978 14.2629L39.1571 14.4799L38.6344 14.7513L38.1477 15.0678L37.6791 15.4296L37.2375 15.8275L36.841 16.2707L36.4805 16.741L36.1651 17.2384L35.8947 17.754L35.6784 18.2966L35.4982 18.8574L35.372 19.4272L35.2909 20.015L35.2729 20.612V50.3135L35.2909 50.9104L35.372 51.4893L35.4982 52.0591L35.6784 52.6198L35.8947 53.1625L36.1651 53.687L36.4805 54.1754L36.841 54.6457L37.2375 55.0889L37.6791 55.4869L38.1477 55.8486L38.6344 56.1652L39.1571 56.4365L39.6978 56.6536L40.2565 56.8345L40.8243 56.9611L41.4101 57.0425L42.0049 57.0696H44.5463L57.5055 13.8559H42.0049Z" fill="#2F4166"/>
  </mask>
  <g mask="url(#mask0_187_1311)">
    <g filter="url(#filter0_f_187_1311)">
      <path d="M47.6193 13.8559H39.9952L27.0359 57.0696H47.6193L48.1781 57.0425L48.7188 56.9792L49.2415 56.8706L49.7462 56.7169L50.2418 56.536L50.7195 56.3099L51.1701 56.0566L51.5936 55.7582L51.9992 55.4326L52.3777 55.0889L52.7291 54.709L53.0536 54.302L53.342 53.8679L53.6033 53.4157L53.8196 52.9454L54.0089 52.448L54.153 51.9324L54.2612 51.4079L54.3243 50.8743L54.3513 50.3135V20.612L54.3243 20.0512L54.2612 19.5086L54.153 18.984L54.0089 18.4775L53.8196 17.9801L53.6033 17.5007L53.342 17.0485L53.0536 16.6234L52.7291 16.2074L52.3777 15.8366L51.9992 15.4838L51.5936 15.1582L51.1701 14.8688L50.7195 14.6065L50.2418 14.3895L49.7462 14.1995L49.2415 14.0458L48.7188 13.9463L48.1781 13.874L47.6193 13.8559Z" fill="#767676"/>
    </g>
  </g>
  <path d="M64.5258 41.3507L64.7692 41.3688L65.2108 41.5135L65.418 41.6311L65.6614 41.8391L65.8686 42.0833L66.0489 42.3818L66.175 42.6983L66.2562 43.042L66.2832 43.4309L66.2562 43.8108L66.175 44.1544L66.0489 44.48L65.8686 44.7785L65.6614 45.0227L65.418 45.2217L65.2108 45.3483L64.7692 45.484L64.5258 45.5111H50.5392L50.0706 45.4297L49.656 45.2217L49.4127 45.0227L49.1964 44.7695L49.0252 44.48L48.89 44.1544L48.8089 43.8108L48.7819 43.4309L48.8089 43.042L48.89 42.6983L49.0252 42.3818L49.1964 42.0833L49.4127 41.8391L49.656 41.6311L49.8633 41.5135L50.3049 41.3688L50.5392 41.3507H64.5258Z" fill="#CCCCCC"/>
  <path d="M44.2761 41.2966L44.5735 41.3147L44.9069 41.4052L45.2133 41.5318L45.4927 41.7036L45.745 41.9207L45.9613 42.1649L46.1325 42.4453L46.2587 42.7528L46.3398 43.0784L46.3669 43.4311L46.3398 43.7748L46.2587 44.1004L46.1325 44.4079L45.9613 44.6882L45.745 44.9324L45.4927 45.1495L45.2133 45.3214L44.9069 45.457L44.5735 45.5384L44.2761 45.5565L43.9877 45.5384L43.7083 45.4842L43.447 45.3847L43.2036 45.2671L42.7711 44.9324L42.4466 44.5074L42.3205 44.2541L42.2303 43.9918L42.1763 43.7205L42.1492 43.4311L42.1763 43.1326L42.2303 42.8613L42.3205 42.599L42.4466 42.3458L42.7711 41.9207L43.2036 41.5861L43.447 41.4685L43.7083 41.369L43.9877 41.3147L44.2761 41.2966Z" fill="#CCCCCC"/>
  <path d="M64.5258 32.8037L64.7692 32.8308L65.2108 32.9665L65.418 33.0931L65.6614 33.2921L65.8686 33.5363L66.0489 33.8347L66.175 34.1603L66.2562 34.504L66.2832 34.8839L66.2562 35.2728L66.175 35.6164L66.0489 35.933L65.8686 36.2315L65.6614 36.4757L65.418 36.6837L65.2108 36.8013L64.7692 36.946L64.5258 36.9641H50.5392L50.0706 36.8917L49.656 36.6837L49.4127 36.4757L49.1964 36.2315L49.0252 35.933L48.89 35.6164L48.8089 35.2728L48.7819 34.8839L48.8089 34.504L48.89 34.1603L49.0252 33.8347L49.1964 33.5453L49.4127 33.2921L49.656 33.0931L49.8633 32.9665L50.3049 32.8308L50.5392 32.8037H64.5258Z" fill="#CCCCCC"/>
  <path d="M44.2762 32.7587L44.5736 32.7768L44.907 32.8582L45.2134 32.9848L45.4928 33.1657L45.7451 33.3828L45.9614 33.6269L46.1327 33.9073L46.2588 34.2148L46.3399 34.5404L46.367 34.8841L46.3399 35.2368L46.2588 35.5624L46.1327 35.8609L45.9614 36.1413L45.7451 36.3945L45.4928 36.6116L45.2134 36.7834L44.907 36.91L44.5736 36.9914L44.2762 37.0186L43.9878 36.9914L43.7084 36.9372L43.4471 36.8467L43.2038 36.7201L42.7712 36.3945L42.4468 35.9604L42.3206 35.7162L42.2305 35.4539L42.1764 35.1735L42.1494 34.8841L42.1764 34.5947L42.2305 34.3143L42.3206 34.052L42.4468 33.8078L42.7712 33.3828L43.2038 33.0481L43.4471 32.9215L43.7084 32.8311L43.9878 32.7768L44.2762 32.7587Z" fill="#CCCCCC"/>
  <path d="M64.5258 24.266L64.7692 24.2841L65.2108 24.4288L65.418 24.5464L65.6614 24.7544L65.8686 24.9986L66.0489 25.2971L66.1751 25.6136L66.2562 25.9664L66.2832 26.3462L66.2562 26.7261L66.1751 27.0788L66.0489 27.3954L65.8686 27.6938L65.6614 27.938L65.418 28.1461L65.2108 28.2636L64.7692 28.4083L64.5258 28.4264H50.5392L50.0706 28.3541L49.656 28.1461L49.4127 27.938L49.1964 27.6938L49.0252 27.3954L48.89 27.0788L48.8089 26.7261L48.7819 26.3462L48.8089 25.9664L48.89 25.6136L49.0252 25.2971L49.1964 24.9986L49.4127 24.7544L49.656 24.5464L49.8633 24.4288L50.3049 24.2841L50.5392 24.266H64.5258Z" fill="#CCCCCC"/>
  <path d="M44.2762 24.2117L44.5736 24.2388L44.907 24.3202L45.2134 24.4468L45.4928 24.6186L45.7451 24.8357L45.9614 25.0799L46.1327 25.3693L46.2588 25.6678L46.3399 25.9934L46.367 26.3461L46.3399 26.6898L46.2588 27.0154L46.1327 27.3229L45.9614 27.6033L45.7451 27.8475L45.4928 28.0645L45.2134 28.2454L44.907 28.372L44.5736 28.4534L44.2762 28.4715L43.9878 28.4534L43.7084 28.3992L43.4471 28.3087L43.2038 28.1821L42.7712 27.8475L42.4468 27.4224L42.3206 27.1691L42.2305 26.9159L42.1764 26.6355L42.1494 26.3461L42.1764 26.0477L42.2305 25.7763L42.3206 25.514L42.4468 25.2698L42.7712 24.8357L43.2038 24.5011L43.4471 24.3835L43.7084 24.2931L43.9878 24.2297L44.2762 24.2117Z" fill="#CCCCCC"/>
  <defs>
    <filter id="filter0_f_187_1311" x="-22.9641" y="-36.1441" width="127.315" height="143.214" filterUnits="userSpaceOnUse" color-interpolation-filters="sRGB">
      <feFlood flood-opacity="0" result="BackgroundImageFix"/>
      <feBlend mode="normal" in="SourceGraphic" in2="BackgroundImageFix" result="shape"/>
      <feGaussianBlur stdDeviation="25" result="effect1_foregroundBlur_187_1311"/>
    </filter>
    <linearGradient id="paint0_linear_187_1311" x1="54.115" y1="53.1624" x2="54.115" y2="80.1869" gradientUnits="userSpaceOnUse">
      <stop stop-color="#969696" stop-opacity="0.1"/>
      <stop offset="1" stop-color="#565656" stop-opacity="0"/>
    </linearGradient>
    <linearGradient id="paint1_linear_187_1311" x1="84.3087" y1="0" x2="84.3087" y2="14.7151" gradientUnits="userSpaceOnUse">
      <stop stop-color="#8F8F8F" stop-opacity="0.3"/>
      <stop offset="1" stop-color="#353535" stop-opacity="0"/>
    </linearGradient>
    <linearGradient id="paint2_linear_187_1311" x1="19.0749" y1="18.6222" x2="19.0749" y2="33.3373" gradientUnits="userSpaceOnUse">
      <stop stop-color="#8F8F8F" stop-opacity="0.3"/>
      <stop offset="1" stop-color="#353535" stop-opacity="0"/>
    </linearGradient>
    <linearGradient id="paint3_linear_187_1311" x1="91.7926" y1="33.6359" x2="91.7926" y2="42.3456" gradientUnits="userSpaceOnUse">
      <stop stop-color="#8F8F8F" stop-opacity="0.3"/>
      <stop offset="1" stop-color="#353535" stop-opacity="0"/>
    </linearGradient>
    <linearGradient id="paint4_linear_187_1311" x1="100.087" y1="12.3183" x2="100.087" y2="15.918" gradientUnits="userSpaceOnUse">
      <stop stop-color="#8F8F8F" stop-opacity="0.3"/>
      <stop offset="1" stop-color="#353535" stop-opacity="0"/>
    </linearGradient>
    <linearGradient id="paint5_linear_187_1311" x1="26.1769" y1="0.298431" x2="26.1769" y2="6.30386" gradientUnits="userSpaceOnUse">
      <stop stop-color="#8F8F8F" stop-opacity="0.3"/>
      <stop offset="1" stop-color="#353535" stop-opacity="0"/>
    </linearGradient>
    <linearGradient id="paint6_linear_187_1311" x1="55.1009" y1="55.8488" x2="55.1009" y2="60.2172" gradientUnits="userSpaceOnUse">
      <stop stop-color="#8F8F8F" stop-opacity="0.3"/>
      <stop offset="1" stop-color="#353535" stop-opacity="0"/>
    </linearGradient>
    <linearGradient id="paint7_linear_187_1311" x1="56.4288" y1="13.8559" x2="56.4288" y2="57.0696" gradientUnits="userSpaceOnUse">
      <stop stop-color="#525252"/>
      <stop offset="1" stop-color="#363636"/>
    </linearGradient>
    <linearGradient id="paint8_linear_187_1311" x1="58.2041" y1="13.8559" x2="58.2041" y2="57.0696" gradientUnits="userSpaceOnUse">
      <stop stop-color="#A0A0A0"/>
      <stop offset="1" stop-color="#5F5F5F"/>
    </linearGradient>
  </defs>
</svg>