<svg xmlns="http://www.w3.org/2000/svg" viewBox="0 0 16 16"><path d="M13.43 12.813H3.508a.857.857 0 0 1-.794-1.177l.81-2v-3.04a4.762 4.762 0 0 1 1.4-3.363 4.762 4.762 0 0 1 3.363-1.4h.011a4.763 4.763 0 0 1 3.363 1.4 4.761 4.761 0 0 1 1.4 3.364v3l1.111 1.934a.847.847 0 0 1-.001.856.845.845 0 0 1-.74.426ZM3.8 11.76h9.288l-1.081-1.88V6.597c0-.987-.387-1.917-1.09-2.62a3.682 3.682 0 0 0-2.62-1.09h-.011c-.986 0-1.916.387-2.62 1.09a3.682 3.682 0 0 0-1.09 2.62V9.84L3.8 11.76Zm3.182-8.723a.465.465 0 0 1-.458-.386A1.78 1.78 0 0 1 8.276.564a1.779 1.779 0 0 1 1.752 2.086.466.466 0 0 1-.534.379l-.935-.151a1.73 1.73 0 0 0-.568 0l-.935.151a.376.376 0 0 1-.074.007Zm1.292-1.112c.145 0 .29.012.433.035l.35.056a.85.85 0 0 0-1.565 0l.35-.056c.144-.023.29-.035.432-.035Zm2.416 12.853H6.058a.528.528 0 0 1-.526-.527c0-.29.237-.527.526-.527h4.632a.528.528 0 0 1 0 1.054Z" fill="#00A609"/></svg>