<svg xmlns="http://www.w3.org/2000/svg" viewBox="0 0 22 22"><path d="M18.4674 17.6193H4.82183C4.43021 17.6193 4.06576 17.4246 3.84618 17.1009C3.6266 16.7749 3.58359 16.3652 3.73073 16.0007L4.84447 13.2503V9.07153C4.84447 8.19096 5.01877 7.33528 5.36285 6.52714C5.69335 5.74843 6.16647 5.04894 6.76861 4.4468C7.37076 3.84465 8.07024 3.37154 8.84895 3.04104C9.65709 2.69696 10.5128 2.52266 11.3933 2.52266H11.4092C12.2898 2.52266 13.1454 2.69696 13.9536 3.04104C14.7323 3.37154 15.4318 3.84465 16.0339 4.4468C16.6361 5.04894 17.1092 5.74843 17.4397 6.52714C17.7838 7.33528 17.9581 8.19096 17.9581 9.07153V13.1983L19.4861 15.8558C19.6989 16.2248 19.6966 16.664 19.4838 17.033C19.2733 17.3997 18.8907 17.6193 18.4674 17.6193ZM5.22477 16.1705H17.9966L16.5093 13.5853V9.07153C16.5093 7.71558 15.9773 6.43659 15.0107 5.46999C14.0441 4.50339 12.7651 3.97142 11.4092 3.97142H11.3933C10.0374 3.97142 8.7584 4.50339 7.7918 5.46999C6.8252 6.43659 6.29323 7.71558 6.29323 9.07153V13.5333L5.22477 16.1705ZM9.6005 4.17515C9.2949 4.17515 9.02552 3.95558 8.97119 3.64545C8.94629 3.5051 8.93497 3.36249 8.93497 3.22214C8.93497 1.87524 10.0306 0.777344 11.3798 0.777344C12.7289 0.777344 13.8246 1.87297 13.8246 3.22214C13.8246 3.36249 13.811 3.5051 13.7883 3.64545C13.7272 3.98953 13.4012 4.22269 13.0549 4.1661L11.7691 3.95784C11.5111 3.91483 11.2485 3.91483 10.9881 3.95784L9.70236 4.1661C9.66841 4.17289 9.63445 4.17515 9.6005 4.17515ZM11.3775 2.64716C11.5767 2.64716 11.7759 2.663 11.9729 2.6947L12.4528 2.77166C12.2762 2.35288 11.8619 2.05633 11.3775 2.05633C10.8931 2.05633 10.4788 2.35288 10.3022 2.77166L10.7821 2.6947C10.9814 2.663 11.1806 2.64716 11.3775 2.64716ZM14.6983 20.3198H8.33056C7.93215 20.3198 7.60618 19.9939 7.60618 19.5955C7.60618 19.1971 7.93215 18.8711 8.33056 18.8711H14.6983C15.0968 18.8711 15.4227 19.1971 15.4227 19.5955C15.4227 19.9939 15.0968 20.3198 14.6983 20.3198Z" fill="#666D80"/><circle cx="16.5" cy="4.5" r="2.5" fill="#E8503A"/></svg>