<svg width="36" height="36" fill="none" xmlns="http://www.w3.org/2000/svg"><circle cx="18" cy="18" r="18" fill="#fff" fill-opacity=".1"/><path d="M25.468 24.62H11.823A1.178 1.178 0 0 1 10.732 23l1.113-2.75v-4.178a6.546 6.546 0 0 1 1.924-4.625 6.548 6.548 0 0 1 4.625-1.924h.016a6.548 6.548 0 0 1 4.625 1.924 6.548 6.548 0 0 1 1.924 4.624v4.127l1.528 2.658c.213.369.21.808-.002 1.177a1.16 1.16 0 0 1-1.017.586Zm-13.242-1.45h12.771l-1.487-2.585v-4.514a5.063 5.063 0 0 0-1.498-3.601 5.063 5.063 0 0 0-3.602-1.499h-.016a5.063 5.063 0 0 0-3.601 1.499 5.063 5.063 0 0 0-1.499 3.601v4.462l-1.068 2.637Zm4.376-11.995a.64.64 0 0 1-.63-.53 2.448 2.448 0 0 1 2.409-2.868 2.446 2.446 0 0 1 2.408 2.868.64.64 0 0 1-.733.521l-1.286-.208a2.38 2.38 0 0 0-.78 0l-1.287.208a.515.515 0 0 1-.101.01Zm1.776-1.528c.2 0 .399.016.596.048l.48.077a1.168 1.168 0 0 0-1.076-.716c-.484 0-.898.297-1.075.716l.48-.077c.2-.032.398-.048.595-.048ZM21.7 27.32h-6.368a.726.726 0 0 1-.724-.724c0-.399.326-.725.725-.725H21.7c.399 0 .725.326.725.725a.726.726 0 0 1-.725.724Z" fill="#fff"/><circle cx="23.5" cy="11.5" r="2.5" fill="#CC3639"/></svg>