<svg width="22" height="22" viewBox="0 0 22 22" fill="none" xmlns="http://www.w3.org/2000/svg">
<path d="M18.4684 17.6193H4.82281C4.43119 17.6193 4.06673 17.4246 3.84715 17.1009C3.62758 16.7749 3.58456 16.3652 3.73171 16.0007L4.84544 13.2503V9.07153C4.84544 8.19096 5.01975 7.33528 5.36383 6.52714C5.69433 5.74843 6.16744 5.04894 6.76959 4.4468C7.37173 3.84465 8.07121 3.37154 8.84993 3.04104C9.65807 2.69696 10.5137 2.52266 11.3943 2.52266H11.4102C12.2907 2.52266 13.1464 2.69696 13.9546 3.04104C14.7333 3.37154 15.4328 3.84465 16.0349 4.4468C16.637 5.04894 17.1102 5.74843 17.4407 6.52714C17.7847 7.33528 17.959 8.19096 17.959 9.07153V13.1983L19.487 15.8558C19.6998 16.2248 19.6976 16.664 19.4848 17.033C19.2743 17.3997 18.8917 17.6193 18.4684 17.6193ZM5.22575 16.1705H17.9975L16.5103 13.5853V9.07153C16.5103 7.71558 15.9783 6.43659 15.0117 5.46999C14.0451 4.50339 12.7661 3.97142 11.4102 3.97142H11.3943C10.0384 3.97142 8.75938 4.50339 7.79278 5.46999C6.82618 6.43659 6.29421 7.71558 6.29421 9.07153V13.5333L5.22575 16.1705ZM9.60147 4.17515C9.29587 4.17515 9.02649 3.95558 8.97217 3.64545C8.94727 3.5051 8.93595 3.36249 8.93595 3.22214C8.93595 1.87524 10.0316 0.777344 11.3807 0.777344C12.7299 0.777344 13.8255 1.87297 13.8255 3.22214C13.8255 3.36249 13.812 3.5051 13.7893 3.64545C13.7282 3.98953 13.4022 4.22269 13.0559 4.1661L11.7701 3.95784C11.512 3.91483 11.2494 3.91483 10.9891 3.95784L9.70334 4.1661C9.66938 4.17289 9.63543 4.17515 9.60147 4.17515ZM11.3785 2.64716C11.5777 2.64716 11.7769 2.663 11.9738 2.6947L12.4537 2.77166C12.2772 2.35288 11.8629 2.05633 11.3785 2.05633C10.894 2.05633 10.4798 2.35288 10.3032 2.77166L10.7831 2.6947C10.9823 2.663 11.1815 2.64716 11.3785 2.64716ZM14.6993 20.3198H8.33154C7.93313 20.3198 7.60716 19.9939 7.60716 19.5955C7.60716 19.1971 7.93313 18.8711 8.33154 18.8711H14.6993C15.0977 18.8711 15.4237 19.1971 15.4237 19.5955C15.4237 19.9939 15.0977 20.3198 14.6993 20.3198Z" fill="white"/>
<circle cx="16.5" cy="4.5" r="2.5" fill="#CC3639"/>
</svg>
