<svg width="16" height="16" viewBox="0 0 16 16" fill="none" xmlns="http://www.w3.org/2000/svg">
<path d="M7.99996 3.99984C9.22578 3.99576 10.4279 4.33769 11.468 4.98632C12.5082 5.63495 13.3442 6.56394 13.88 7.6665C12.78 9.91317 10.5266 11.3332 7.99996 11.3332C5.47329 11.3332 3.21996 9.91317 2.11996 7.6665C2.6557 6.56394 3.49171 5.63495 4.53188 4.98632C5.57204 4.33769 6.77414 3.99576 7.99996 3.99984ZM7.99996 2.6665C4.66663 2.6665 1.81996 4.73984 0.666626 7.6665C1.81996 10.5932 4.66663 12.6665 7.99996 12.6665C11.3333 12.6665 14.18 10.5932 15.3333 7.6665C14.18 4.73984 11.3333 2.6665 7.99996 2.6665ZM7.99996 5.99984C8.44196 5.99988 8.86584 6.17549 9.17837 6.48805C9.49089 6.80061 9.66646 7.2245 9.66646 7.6665C9.66646 8.1085 9.49089 8.5324 9.17837 8.84496C8.86584 9.15751 8.44196 9.33313 7.99996 9.33317C7.55796 9.33313 7.13408 9.15751 6.82155 8.84496C6.50903 8.5324 6.33345 8.1085 6.33345 7.6665C6.33345 7.2245 6.50903 6.80061 6.82155 6.48805C7.13408 6.17549 7.55796 5.99988 7.99996 5.99984ZM7.99996 4.6665C6.34663 4.6665 4.99996 6.01317 4.99996 7.6665C4.99996 9.31984 6.34663 10.6665 7.99996 10.6665C9.65329 10.6665 11 9.31984 11 7.6665C11 6.01317 9.65329 4.6665 7.99996 4.6665Z" fill="#8F92A1"/>
</svg>
