<svg width="375" height="29" fill="none" xmlns="http://www.w3.org/2000/svg"><mask id="a" style="mask-type:alpha" maskUnits="userSpaceOnUse" x="0" y="0" width="375" height="29"><path fill="#0E0F18" d="M0 0h375v29H0z"/></mask><g mask="url(#a)"><path fill-rule="evenodd" clip-rule="evenodd" d="M157.667 5.5a7.196 7.196 0 0 0-6.993-5.5H30C13.431 0 0 13.431 0 30v368c0 11.046 8.954 20 20 20h335c11.046 0 20-8.954 20-20V30c0-16.569-13.431-30-30-30H224.326a7.196 7.196 0 0 0-6.993 5.5 7.194 7.194 0 0 1-6.992 5.5h-45.682a7.194 7.194 0 0 1-6.992-5.5Z" fill="url(#b)"/><rect x="172" width="32" height="4" rx="2" fill="#0E0F18"/></g><defs><linearGradient id="b" x1="188" y1="418" x2="188" y2="2.5" gradientUnits="userSpaceOnUse"><stop stop-color="#1C1C1C"/><stop offset="1" stop-color="#0E0F18"/></linearGradient></defs></svg>