<svg width="30" height="30" fill="none" xmlns="http://www.w3.org/2000/svg"><path d="m1.182 5.513.26.398a.476.476 0 0 1-.375.738c-.263.012-.495-.197-.413-.447a1.31 1.31 0 0 1 .528-.689Zm13.821-3.271-.052-1.31h-.016l-.032.003-.12.006c-.102.007-.25.016-.433.03-.37.032-.894.083-1.528.171-1.263.174-2.98.491-4.77 1.065-1.805.578-3.521 1.407-4.771 2.08-.658.354-1.304.729-1.938 1.124l-.116.073-.032.02-.009.007a.004.004 0 0 0-.002.005L1.9 6.61l-1.3.06a.009.009 0 0 0-.01.01l.003.02.003.076.018.282a52.01 52.01 0 0 0 .503 4.42c.416 2.631 1.171 5.988 2.558 8.402 1.473 2.561 4.197 4.997 6.43 6.736a52.268 52.268 0 0 0 4.19 2.935l.02.012.005.003.004-.001.679-1.118-.309.508c-.206.338-.087.803.309.803.395 0 .514-.465.309-.803l-.309-.508.679 1.118c0 .002.003.002.004 0l.006-.002.019-.012a52.328 52.328 0 0 0 4.19-2.935c2.233-1.74 4.957-4.175 6.43-6.736 1.387-2.413 2.142-5.77 2.559-8.402a51.883 51.883 0 0 0 .524-4.778v-.02a.008.008 0 0 0-.007-.009l-1.3-.062.629.03c.375.017.709-.291.538-.626-.171-.334-.617-.246-.823.069l-.345.526.718-1.096-.001-.001-.003-.002-.01-.006-.03-.02a19.362 19.362 0 0 0-.542-.337c-.497-.3-1.002-.587-1.513-.861-1.25-.672-2.966-1.501-4.77-2.08a28.726 28.726 0 0 0-4.77-1.064 28.263 28.263 0 0 0-1.529-.17 19.02 19.02 0 0 0-.552-.038h-.034l-.01-.001a.005.005 0 0 0-.005.005l-.052 1.305Zm0 0-.052-1.31a.098.098 0 0 1 .1.105l-.048 1.205Zm0 0s-3.155.124-6.552 1.213C5.054 4.543 1.9 6.61 1.9 6.61s.391 8.233 2.911 12.618c2.675 4.653 10.192 9.22 10.192 9.22s7.517-4.567 10.192-9.22c2.52-4.385 2.911-12.619 2.911-12.619s-3.154-2.066-6.551-3.154c-3.397-1.089-6.552-1.213-6.552-1.213Z" fill="url(#a)"/><defs><linearGradient id="a" x1="15.003" y1=".932" x2="15.003" y2="29.759" gradientUnits="userSpaceOnUse"><stop stop-color="#42A965" stop-opacity=".588"/><stop offset="1" stop-color="#00A609"/></linearGradient></defs></svg>