<svg width="23" height="23" viewBox="0 0 23 23" fill="none" xmlns="http://www.w3.org/2000/svg">
<path fill-rule="evenodd" clip-rule="evenodd" d="M15.0893 17.8637C13.7154 18.8645 12.0508 19.4134 10.3297 19.4134C8.18582 19.4134 6.12972 18.5617 4.61374 17.0457C3.09776 15.5298 2.24609 13.4737 2.24609 11.3297C2.24609 9.18582 3.09776 7.12972 4.61374 5.61374C6.12972 4.09776 8.18582 3.24609 10.3297 3.24609C12.4737 3.24609 14.5298 4.09776 16.0457 5.61374C17.5617 7.12972 18.4134 9.18582 18.4134 11.3297C18.4134 13.4019 17.6177 15.3921 16.1956 16.8918L19.0036 19.6998C19.0097 19.7057 19.0157 19.7117 19.0217 19.7179C19.0919 19.7857 19.1478 19.8667 19.1864 19.9564C19.2249 20.0461 19.2451 20.1425 19.246 20.2401C19.2468 20.3376 19.2282 20.4344 19.1913 20.5247C19.1543 20.615 19.0998 20.6971 19.0308 20.7661C18.9618 20.8351 18.8797 20.8897 18.7894 20.9266C18.6991 20.9636 18.6023 20.9821 18.5048 20.9813C18.4072 20.9805 18.3107 20.9602 18.2211 20.9217C18.1314 20.8832 18.0503 20.8272 17.9826 20.757C17.9764 20.7511 17.9704 20.745 17.9645 20.7389L15.0893 17.8637ZM5.65301 16.0065C6.89336 17.2468 8.57563 17.9436 10.3297 17.9436C12.0839 17.9436 13.7661 17.2468 15.0065 16.0065C16.2468 14.7661 16.9436 13.0839 16.9436 11.3297C16.9436 9.57563 16.2468 7.89336 15.0065 6.65301C13.7661 5.41267 12.0839 4.71585 10.3297 4.71585C8.57563 4.71585 6.89336 5.41267 5.65301 6.65301C4.41267 7.89336 3.71585 9.57563 3.71585 11.3297C3.71585 13.0839 4.41267 14.7661 5.65301 16.0065Z" fill="#666D80"/>
</svg>
