<svg width="16" height="16" viewBox="0 0 16 16" fill="none" xmlns="http://www.w3.org/2000/svg">
<g id="Frame" clip-path="url(#clip0_2152_12259)">
<path id="Vector" d="M11.1114 9.61829L8 7.544L4.88857 9.61829C4.76248 9.7024 4.60814 9.73297 4.4595 9.70329C4.31087 9.67361 4.18011 9.58609 4.096 9.46C4.01189 9.33391 3.98131 9.17957 4.011 9.03093C4.04068 8.8823 4.12819 8.75154 4.25429 8.66743L7.68286 6.38171C7.77676 6.31906 7.88712 6.28563 8 6.28563C8.11288 6.28563 8.22324 6.31906 8.31714 6.38171L11.7457 8.66743C11.8081 8.70908 11.8618 8.76261 11.9035 8.82498C11.9453 8.88735 11.9743 8.95734 11.989 9.03093C12.0037 9.10453 12.0038 9.1803 11.9892 9.25392C11.9746 9.32754 11.9456 9.39757 11.904 9.46C11.8624 9.52243 11.8088 9.57605 11.7464 9.6178C11.6841 9.65954 11.6141 9.68859 11.5405 9.70329C11.4669 9.71799 11.3911 9.71805 11.3175 9.70346C11.2439 9.68888 11.1739 9.65993 11.1114 9.61829ZM8 14.8571C11.7869 14.8571 14.8571 11.7869 14.8571 8C14.8571 4.21314 11.7869 1.14286 8 1.14286C4.21314 1.14286 1.14286 4.21314 1.14286 8C1.14286 11.7869 4.21314 14.8571 8 14.8571ZM8 16C3.58171 16 0 12.4183 0 8C0 3.58171 3.58171 0 8 0C12.4183 0 16 3.58171 16 8C16 12.4183 12.4183 16 8 16Z" fill="#888888"/>
</g>
<defs>
<clipPath id="clip0_2152_12259">
<rect width="16" height="16" fill="white"/>
</clipPath>
</defs>
</svg>
