<svg width="12" height="12" viewBox="0 0 12 12" fill="none" xmlns="http://www.w3.org/2000/svg">
<g id="Frame" clip-path="url(#clip0_1524_8125)">
<path id="Vector" d="M1.7586 1.75723C2.38474 1.13165 3.14154 0.65236 3.97474 0.353733C4.80794 0.055106 5.6969 -0.0554617 6.57787 0.0299578C7.45883 0.115377 8.30999 0.394668 9.0703 0.847803C9.83061 1.30094 10.4812 1.91669 10.9755 2.65091C11.4698 3.38513 11.7955 4.21962 11.9293 5.09456C12.0631 5.96949 12.0016 6.86318 11.7493 7.71155C11.497 8.55993 11.0601 9.34196 10.4699 10.0016C9.87971 10.6612 9.15089 11.1821 8.3357 11.5268C6.86958 12.1449 5.2181 12.1558 3.74392 11.5572C2.26974 10.9587 1.09337 9.79952 0.473125 8.33433C0.00810337 7.23465 -0.117974 6.02117 0.111047 4.84939C0.340069 3.67761 0.913756 2.60089 1.7586 1.75723ZM0.984488 5.99505C0.982533 6.98757 1.27506 7.95837 1.82505 8.78457C2.37505 9.61078 3.15778 10.2552 4.07419 10.6364C4.9906 11.0176 5.9995 11.1184 6.97319 10.9259C7.94688 10.7335 8.8416 10.2565 9.54411 9.5554C10.2466 8.85427 10.7254 7.9605 10.9197 6.98719C11.1141 6.01388 11.0153 5.00479 10.6359 4.08762C10.2566 3.17046 9.61363 2.38646 8.78852 1.83484C7.9634 1.28322 6.99318 0.988772 6.00066 0.98877C4.67123 0.989514 3.39635 1.51738 2.45551 2.45663C1.51467 3.39588 0.984654 4.66987 0.981664 5.99929L0.984488 5.99505Z" fill="#888888"/>
<path id="Vector_2" d="M6.00065 3.85458C6.13079 3.85496 6.25546 3.90691 6.34735 3.99906C6.43923 4.09121 6.49083 4.21604 6.49083 4.34617V9.30442C6.49083 9.43555 6.43874 9.5613 6.34602 9.65402C6.2533 9.74674 6.12754 9.79883 5.99642 9.79883C5.86529 9.79883 5.73953 9.74674 5.64681 9.65402C5.55409 9.5613 5.502 9.43555 5.502 9.30442V4.34617C5.502 4.28101 5.51494 4.21651 5.54009 4.1564C5.56523 4.09629 5.60208 4.04178 5.64848 3.99604C5.69487 3.9503 5.7499 3.91424 5.81036 3.88995C5.87082 3.86567 5.93551 3.85365 6.00065 3.85458ZM6.00065 1.92779C6.13079 1.92816 6.25546 1.98012 6.34735 2.07227C6.43923 2.16442 6.49083 2.28924 6.49083 2.41937V2.69483C6.49083 2.82596 6.43874 2.95171 6.34602 3.04443C6.2533 3.13715 6.12754 3.18924 5.99642 3.18924C5.86529 3.18924 5.73953 3.13715 5.64681 3.04443C5.55409 2.95171 5.502 2.82596 5.502 2.69483V2.41937C5.502 2.35422 5.51494 2.28971 5.54009 2.2296C5.56523 2.1695 5.60208 2.11499 5.64848 2.06925C5.69487 2.0235 5.7499 1.98744 5.81036 1.96316C5.87082 1.93887 5.93551 1.92685 6.00065 1.92779Z" fill="#888888"/>
</g>
<defs>
<clipPath id="clip0_1524_8125">
<rect width="12" height="12" fill="white" transform="matrix(-1 0 0 1 12 0)"/>
</clipPath>
</defs>
</svg>
