<svg width="49" height="49" viewBox="0 0 49 49" fill="none" xmlns="http://www.w3.org/2000/svg"><circle cx="24.5" cy="24.5" r="24.5" fill="#014CFA" fill-opacity="0.1"/><path d="M2 24.5C2 36.9226 12.0773 47 24.5 47C36.9226 47 47 36.9226 47 24.5C47 12.0773 36.9226 2 24.5 2C12.0773 2 2 12.0768 2 24.5Z" fill="#6C8CD6"/><path d="M21.1109 30.5918H28.1698V36.4168H21.0875L21.1109 30.5918ZM16.6293 22.794C16.6293 23.8301 16.0025 24.6695 15.213 24.6695C14.4236 24.6695 13.7988 23.8301 13.7988 22.794C13.7988 21.758 14.4257 20.9191 15.2151 20.9191C16.0045 20.9191 16.6313 21.7585 16.6313 22.794M35.5089 22.768C35.5089 23.8036 34.8816 24.643 34.0921 24.643C33.3027 24.643 32.6744 23.802 32.6744 22.768C32.6744 21.734 33.3012 20.8926 34.0906 20.8926C34.88 20.8926 35.5089 21.7585 35.5089 22.768Z" fill="#F8ECEC"/><path d="M21.1104 31.4277C21.1104 31.4277 22.4573 32.124 24.3842 32.124C26.6597 32.2172 28.1458 31.4512 28.1458 31.4512V32.1475C28.1458 32.1475 25.6384 33.4932 24.5239 33.4932C23.3859 33.4932 21.1094 31.9142 21.1094 31.9142L21.1104 31.4277Z" fill="#E9CFCF"/><path d="M40.9156 39.8521C39.7781 38.947 37.7458 36.3885 35.6094 35.3667C32.1496 33.6726 28.1449 34.1667 28.1449 34.1667V34.2803C27.8661 34.5823 26.4963 35.928 24.6387 35.928C22.804 35.928 21.4112 34.675 21.1095 34.349L21.0861 34.1865C21.0861 34.1865 16.6686 33.6695 13.1869 35.3637C10.8186 36.5245 9.12922 39.0601 8.10742 39.9418C10.2042 42.1793 12.7398 43.9608 15.5561 45.1753C18.3724 46.3898 21.4089 47.0111 24.4761 47.0005C30.9779 46.9771 36.8289 44.2387 40.9156 39.8521Z" fill="#485B80"/><path d="M33.8572 21.2681C33.8572 23.6687 33.1304 26.922 31.9104 28.6798C30.2286 31.1023 26.436 32.2218 24.662 32.2218C22.8686 32.2218 19.4562 31.3086 17.7723 29.1657C16.3372 27.3386 15.4668 23.8953 15.4668 21.2706C15.4668 15.5617 19.5769 10.9199 24.662 10.9199C29.747 10.9199 33.8572 15.5617 33.8572 21.2706" fill="#F8ECEC"/><path d="M34.6712 16.5275C34.6712 16.5275 34.5912 12.9539 32.5527 10.4071C31.1288 8.6284 26.5901 7.33717 23.3397 7.59287C23.3397 7.59287 16.9729 7.84755 16.8404 12.0752C15.677 12.7715 14.4814 13.9726 14.3535 15.9912C14.0987 20.0528 14.8177 21.1204 14.8177 21.1204C14.8177 21.1204 15.8395 21.1204 16.0954 22.6516C16.0954 22.6516 16.5596 22.9307 16.605 22.6516C16.6743 22.1875 16.1871 19.9596 17.162 17.9176C17.2823 17.6593 17.4026 17.4291 17.5188 17.2238C20.7111 13.6746 30.0744 14.0424 32.2684 17.9232C32.3582 18.1933 32.4232 18.471 32.4625 18.7529C32.648 20.0773 32.8804 22.5823 32.8804 22.5823C32.8804 22.5823 33.2285 22.8141 33.4609 22.2573C33.6933 21.6772 33.6469 21.1204 33.8558 20.958C35.0423 20.17 34.7406 16.8759 34.6712 16.5275Z" fill="#485B80"/></svg>