<svg width="36" height="36" viewBox="0 0 36 36" fill="none" xmlns="http://www.w3.org/2000/svg">
<path fill-rule="evenodd" clip-rule="evenodd" d="M32.6667 13.293V11.418C32.6667 10.4233 32.2716 9.46954 31.5684 8.76642C30.8652 8.06307 29.9112 7.66797 28.9167 7.66797H6.41675C5.42225 7.66797 4.46825 8.06307 3.76505 8.76642C3.06185 9.46954 2.66675 10.4233 2.66675 11.418V13.293H32.6667ZM12.0417 24.543V22.6681C12.0417 22.1709 11.8443 21.6939 11.4924 21.3422C11.1408 20.9905 10.6641 20.793 10.1667 20.793H8.29175C7.79435 20.793 7.31765 20.9905 6.96605 21.3422C6.61415 21.6939 6.41675 22.1709 6.41675 22.6681V24.543C6.41675 25.0403 6.61415 25.5173 6.96605 25.869C7.31765 26.2204 7.79435 26.418 8.29175 26.418H10.1667C10.6641 26.418 11.1408 26.2204 11.4924 25.869C11.8443 25.5173 12.0417 25.0403 12.0417 24.543ZM2.66675 17.043H32.6667V26.4178C32.6667 27.4125 32.2716 28.3663 31.5684 29.0694C30.8652 29.7728 29.9112 30.1679 28.9167 30.1679H6.41675C5.42225 30.1679 4.46825 29.7728 3.76505 29.0694C3.06185 28.3663 2.66675 27.4125 2.66675 26.4178V17.043Z" fill="#014CFA"/>
</svg>
