<svg width="26" height="26" viewBox="0 0 26 26" fill="none" xmlns="http://www.w3.org/2000/svg"><circle cx="13" cy="13" r="13" fill="#E22D2D"/><mask id="mask0_585_12466" style="mask-type:alpha" maskUnits="userSpaceOnUse" x="0" y="0" width="26" height="26"><circle cx="13" cy="13" r="13" fill="#CE1126"/></mask><g mask="url(#mask0_585_12466)"><path fill-rule="evenodd" clip-rule="evenodd" d="M17.5763 4.02505L17.2186 3L16.8597 4.02531L15.7273 4.03332L16.5812 4.70997L16.2593 5.82851L17.2186 5.17071L18.1779 5.82851L17.8337 4.72469L18.7087 4.03306L17.5763 4.02505ZM21.8676 8.22082L21.51 7.19576L21.151 8.22107L20.0186 8.22908L20.8726 8.90573L20.5507 10.0243L21.51 9.36648L22.4692 10.0243L22.1251 8.92045L23 8.22882L21.8676 8.22082ZM21.7196 14.3104L21.3619 13.2854L21.003 14.3107L19.8706 14.3187L20.7246 14.9954L20.4026 16.1139L21.3619 15.4561L22.3212 16.1139L21.977 15.0101L22.852 14.3184L21.7196 14.3104ZM17.5763 18.4693L17.2186 17.4442L16.8597 18.4695L15.7273 18.4775L16.5812 19.1542L16.2593 20.2727L17.2186 19.6149L18.1779 20.2727L17.8337 19.1689L18.7087 18.4773L17.5763 18.4693ZM8.63639 8.11307L7.54533 4.81818L6.45452 8.11255L3 8.13888L5.60066 10.314L4.61906 13.9091L7.54533 11.7951L10.4716 13.9091L9.42162 10.3614L12.0909 8.13941L8.63639 8.11307Z" fill="#FCD116"/></g></svg>