<svg xmlns="http://www.w3.org/2000/svg" width="12" height="12" viewBox="0 0 12 12" fill="none"><path d="M5.64645 4.93934L6 5.29289L6.35355 4.93934L10.6464 0.646447C10.8417 0.451185 11.1583 0.451185 11.3536 0.646446L11.7062 0.293812L11.3536 0.646447C11.5488 0.841709 11.5488 1.15829 11.3536 1.35355L11.675 1.67497L11.3536 1.35355L7.06066 5.64645L6.70711 6L7.06066 6.35355L11.3536 10.6464C11.5488 10.8417 11.5488 11.1583 11.3536 11.3536C11.1583 11.5488 10.8417 11.5488 10.6464 11.3536L6.35355 7.06066L6 6.70711L5.64645 7.06066L1.35355 11.3536L1.67497 11.675L1.35355 11.3536C1.15829 11.5488 0.841709 11.5488 0.646447 11.3536L0.292893 11.7071L0.646446 11.3536C0.451185 11.1583 0.451185 10.8417 0.646446 10.6464L4.93934 6.35355L5.29289 6L4.93934 5.64645L0.646447 1.35355C0.451184 1.15829 0.451184 0.841709 0.646447 0.646447C0.841709 0.451184 1.15829 0.451184 1.35355 0.646447L5.64645 4.93934Z" stroke="#121826"/></svg>