<svg xmlns="http://www.w3.org/2000/svg" width="21" height="20" viewBox="0 0 21 20" fill="none"><path d="M10.8729 9.61463L17.0186 3.43813C17.1276 3.32104 17.1869 3.16618 17.1841 3.00617C17.1813 2.84615 17.1165 2.69348 17.0035 2.58032C16.8904 2.46716 16.7379 2.40233 16.5781 2.39951C16.4182 2.39669 16.2635 2.45608 16.1465 2.56518L10.0008 8.7211L3.85504 2.5693C3.73724 2.46783 3.58553 2.41459 3.43021 2.42022C3.2749 2.42586 3.12743 2.48995 3.01728 2.59969C2.90712 2.70944 2.8424 2.85674 2.83604 3.01218C2.82967 3.16762 2.88214 3.31973 2.98296 3.43813L9.1287 9.61463L2.98296 15.7458C2.92525 15.8029 2.87943 15.8709 2.84816 15.9458C2.81688 16.0207 2.80078 16.1011 2.80078 16.1823C2.80078 16.2635 2.81688 16.3439 2.84816 16.4188C2.87943 16.4937 2.92525 16.5617 2.98296 16.6188C3.09865 16.7344 3.25548 16.7994 3.419 16.7994C3.58252 16.7994 3.73935 16.7344 3.85504 16.6188L10.0008 10.467L16.1465 16.6147C16.2622 16.7303 16.419 16.7953 16.5826 16.7953C16.7461 16.7953 16.9029 16.7303 17.0186 16.6147C17.0763 16.5576 17.1221 16.4896 17.1534 16.4147C17.1847 16.3398 17.2008 16.2594 17.2008 16.1782C17.2008 16.097 17.1847 16.0166 17.1534 15.9417C17.1221 15.8667 17.0763 15.7988 17.0186 15.7417L10.8729 9.61463Z" fill="#161616"/></svg>