<svg xmlns="http://www.w3.org/2000/svg" viewBox="0 0 20 13"><path d="M9.99967 2.00065C11.532 1.99556 13.0346 2.42297 14.3348 3.23376C15.635 4.04454 16.68 5.20578 17.3497 6.58398C15.9747 9.39232 13.158 11.1673 9.99967 11.1673C6.84134 11.1673 4.02467 9.39232 2.64967 6.58398C3.31936 5.20578 4.36437 4.04454 5.66457 3.23376C6.96478 2.42297 8.46739 1.99556 9.99967 2.00065ZM9.99967 0.333984C5.83301 0.333984 2.27467 2.92565 0.833008 6.58398C2.27467 10.2423 5.83301 12.834 9.99967 12.834C14.1663 12.834 17.7247 10.2423 19.1663 6.58398C17.7247 2.92565 14.1663 0.333984 9.99967 0.333984ZM9.99967 4.50065C10.5522 4.5007 11.082 4.72022 11.4727 5.11092C11.8633 5.50161 12.0828 6.03149 12.0828 6.58398C12.0828 7.13648 11.8633 7.66636 11.4727 8.05705C11.082 8.44775 10.5522 8.66726 9.99967 8.66732C9.44718 8.66726 8.91732 8.44775 8.52667 8.05705C8.13601 7.66636 7.91654 7.13648 7.91654 6.58398C7.91654 6.03149 8.13601 5.50161 8.52667 5.11092C8.91732 4.72022 9.44718 4.5007 9.99967 4.50065ZM9.99967 2.83398C7.93301 2.83398 6.24967 4.51732 6.24967 6.58398C6.24967 8.65065 7.93301 10.334 9.99967 10.334C12.0663 10.334 13.7497 8.65065 13.7497 6.58398C13.7497 4.51732 12.0663 2.83398 9.99967 2.83398Z" fill="#8F92A1"/></svg>