<svg xmlns="http://www.w3.org/2000/svg" viewBox="0 0 20 16"><path d="M10.0007 2.99935C11.5329 2.99425 13.0355 3.42167 14.3358 4.23245C15.636 5.04324 16.681 6.20448 17.3507 7.58268C16.8673 8.57836 16.1836 9.4635 15.3423 10.1827L16.5173 11.3577C17.6757 10.3327 18.5923 9.04935 19.1673 7.58268C17.7257 3.92435 14.1673 1.33268 10.0007 1.33268C8.94232 1.33268 7.92565 1.49935 6.96732 1.80768L8.34232 3.18268C8.88399 3.07435 9.43399 2.99935 10.0007 2.99935ZM9.10899 3.94935L10.834 5.67435C11.309 5.88268 11.6923 6.26602 11.9007 6.74102L13.6257 8.46601C13.6923 8.18268 13.7423 7.88268 13.7423 7.57435C13.7507 5.50768 12.0673 3.83268 10.0007 3.83268C9.69232 3.83268 9.40065 3.87435 9.10899 3.94935ZM1.67565 1.22435L3.90898 3.45768C2.53425 4.53365 1.47253 5.95792 0.833984 7.58268C2.27565 11.241 5.83399 13.8327 10.0007 13.8327C11.2673 13.8327 12.484 13.591 13.6007 13.1493L16.4507 15.9993L17.6257 14.8243L2.85065 0.0410156L1.67565 1.22435ZM7.92565 7.47435L10.1007 9.64935C10.0673 9.65768 10.034 9.66602 10.0007 9.66602C9.44812 9.66602 8.91821 9.44652 8.52751 9.05582C8.13681 8.66512 7.91732 8.13522 7.91732 7.58268C7.91732 7.54102 7.92565 7.51602 7.92565 7.47435ZM5.09232 4.64102L6.55065 6.09935C6.35307 6.56895 6.25109 7.07322 6.25065 7.58268C6.25173 8.2027 6.4063 8.81281 6.70055 9.35856C6.99479 9.90431 7.41957 10.3687 7.93698 10.7104C8.45439 11.052 9.04832 11.2602 9.66579 11.3165C10.2833 11.3727 10.905 11.2752 11.4757 11.0327L12.2923 11.8493C11.559 12.0493 10.7923 12.166 10.0007 12.166C8.46837 12.1711 6.96576 11.7437 5.66555 10.9329C4.36535 10.1221 3.32033 8.96088 2.65065 7.58268C3.23398 6.39102 4.08398 5.40768 5.09232 4.64102Z" fill="#C0C3D3"/></svg>