<svg width="2.01rem" height="2.26rem" viewBox="0 0 106 113" fill="none" xmlns="http://www.w3.org/2000/svg">
            <path d="M113 64.91V84.2651L107.326 78.8533C96.5423 91.6666 87.1754 100.206 78.9465 104.758C47.1652 122.41 11.9776 109.597 2.61071 86.2588C-6.75218 62.9164 9.70553 21.9219 41.7734 4.26976C44.328 2.84919 47.1652 1.4246 49.7198 0.569032C50.1075 0.214145 50.6108 0.0119615 51.1363 0C53.4084 0 55.1115 2.27613 55.1115 4.83879C55.1115 7.40145 53.4084 9.67758 51.1363 9.67758H51.9879L50.2888 10.5372C23.8951 25.0535 9.14052 54.9418 17.3694 77.4327C25.5982 99.9196 53.9734 106.183 80.6496 91.6666C86.6104 88.2484 93.4186 82.558 101.365 74.5835L94.2702 67.7551L113 64.91ZM75.8269 53.2347C77.8125 54.3728 79.229 56.0799 80.3671 58.0735C81.5011 60.0672 82.0702 62.6258 82.0702 65.479C82.0702 67.7551 81.5011 70.0313 80.0846 72.0249C78.8389 73.8863 77.189 75.4425 75.2579 76.5771C73.2723 77.7152 71.0042 78.5708 68.7321 79.4223C67.029 79.9913 65.3259 79.9913 63.6229 80.2819V82.2715C63.6229 82.8405 63.3404 83.4096 63.0579 83.9826C62.7713 84.2651 62.2063 84.5517 61.3548 84.5517H57.3796C56.8146 84.5517 56.2455 84.2651 55.6805 83.9826C55.394 83.6961 55.1115 83.1271 55.1115 82.2715V80.2819C50.8538 79.9913 46.8827 78.8533 43.759 76.8637C40.0933 74.6329 37.4455 71.0567 36.3817 66.8996C36.3817 66.3305 36.0992 65.7615 36.0992 64.91C36.0992 64.3369 36.0992 63.7679 35.8127 63.1948C35.8127 62.6258 35.8126 62.0568 36.3817 61.4877C36.6642 60.9187 37.5157 60.6362 38.0848 60.6362H43.4765C44.0415 60.6362 44.6105 60.9187 45.1796 61.2093C45.4621 61.4877 45.7446 62.0568 45.7446 62.9164C45.7446 64.0544 46.0311 65.1925 46.5961 66.3305C47.1652 67.4686 47.7342 68.3242 48.8682 69.1757C49.7198 70.0313 50.8538 70.6003 52.2744 71.1693C52.8394 71.4559 54.26 71.7384 55.1115 71.7384V55.7974C53.4084 55.5109 51.7054 54.9418 50.0023 54.6553C47.8823 54.1536 45.8655 53.2879 44.0415 52.0967C42.3425 50.9586 40.6394 49.534 39.7878 47.8269C38.6282 45.8419 38.0389 43.5754 38.0848 41.277C38.0848 39.0009 38.6498 37.0113 39.7878 35.0177C40.9219 33.3106 42.3425 31.6035 44.0415 30.4614C45.7446 29.3233 47.7342 28.1852 50.0023 27.6122C51.7054 27.0431 53.1259 27.0431 54.829 26.7647V25.0535C54.829 24.4845 55.1115 23.9155 55.394 23.3464C55.963 23.0599 56.528 22.7734 57.3796 22.7734H61.3548C61.9198 22.7734 62.4888 23.0599 63.0579 23.3464C63.3404 23.6289 63.6229 24.198 63.6229 25.0535V27.0431C65.3259 27.0431 67.029 27.3337 68.4496 27.9027C70.5677 28.4062 72.5829 29.2718 74.4063 30.4614C76.1094 31.6035 77.53 33.024 78.664 35.0177C79.7981 36.7247 80.3671 39.0009 80.3671 40.9945C80.3671 41.5635 80.0846 42.1326 79.7981 42.7016C79.5156 43.2706 78.664 43.2706 78.095 43.2706H72.7032C72.1774 43.2605 71.6734 43.0581 71.2867 42.7016C71.0042 42.4191 70.7177 41.846 70.7177 40.9945C70.7177 40.1389 70.4352 39.5699 70.1486 38.7184C69.5836 37.8628 69.0146 37.2938 68.4496 36.7247C67.598 36.1557 66.7465 35.5867 65.6084 35.3001C65.0434 35.3001 64.7609 35.0177 64.1919 35.0177V48.965C66.1775 49.534 68.4496 49.8206 70.1486 50.3896C71.8517 51.2411 73.8413 52.0967 75.8269 53.2347ZM53.4084 46.9714C53.9734 47.2579 54.5425 47.2579 55.1115 47.5404V35.3001C54.5425 35.3001 53.9734 35.5867 53.4084 35.5867C52.2962 35.8837 51.2417 36.3653 50.2888 37.0113C49.4373 37.5803 48.8682 38.1493 48.5817 39.0009C48.2992 39.5699 48.0167 40.4255 48.0167 41.277C48.0167 42.4191 48.2992 43.2706 48.5817 43.8397C48.8682 44.4127 49.4373 44.9818 50.2888 45.5508C51.1363 46.1198 51.9879 46.6889 53.4084 46.9714ZM69.0146 70.0313C69.8661 69.4622 70.7177 68.6067 71.2867 67.7551C71.8517 66.8996 72.1382 66.048 72.1382 64.91C72.1382 63.4854 71.8517 62.6258 71.5692 61.7783C71.0598 60.9765 70.3824 60.2948 69.5836 59.7806C68.5525 59.0872 67.3952 58.6032 66.1775 58.356C65.3259 58.0735 64.7609 58.0735 63.9094 57.787V72.3074C64.7609 72.3074 65.3259 72.0249 65.895 71.7384C66.7465 71.1693 67.8805 70.6003 69.0146 70.0313Z" fill="#18B762" fill-opacity="0.05"/>
        </svg>