<svg width="0.64rem" height="0.64rem" viewBox="0 0 32 32" fill="none" xmlns="http://www.w3.org/2000/svg">
        <g clip-path="url(#clip0_11_699)">
            <path d="M0 16C0 11.7565 1.68571 7.68687 4.68629 4.68629C7.68687 1.68571 11.7565 0 16 0C20.2435 0 24.3131 1.68571 27.3137 4.68629C30.3143 7.68687 32 11.7565 32 16C32 20.2435 30.3143 24.3131 27.3137 27.3137C24.3131 30.3143 20.2435 32 16 32C11.7565 32 7.68687 30.3143 4.68629 27.3137C1.68571 24.3131 0 20.2435 0 16Z" fill="#ED4C5C"/>
            <path d="M14.9548 18.2513C15.3166 19.2161 16.2412 19.3568 16.7035 20.6031C16.9045 21.1458 16.5226 22.191 16.7035 22.7337C16.8324 23.0755 17.0738 23.3633 17.388 23.5496C17.7022 23.7359 18.0704 23.8097 18.4322 23.7588C17.3864 24.1253 16.239 24.0701 15.2334 23.6048C14.2277 23.1394 13.4428 22.3007 13.0452 21.2664C12.8512 20.7509 12.7625 20.2018 12.7844 19.6515C12.8062 19.1012 12.9381 18.5609 13.1724 18.0624C13.4066 17.5639 13.7384 17.1175 14.1481 16.7495C14.5578 16.3814 15.0372 16.0993 15.5578 15.9196C15.2405 16.2069 15.0143 16.5808 14.9072 16.9952C14.8 17.4095 14.8166 17.8462 14.9548 18.2513Z" fill="white"/>
            <path d="M14.6332 21.7085C14.6332 21.6426 14.6462 21.5772 14.6714 21.5162C14.6967 21.4553 14.7337 21.3999 14.7803 21.3532C14.827 21.3066 14.8824 21.2695 14.9434 21.2443C15.0043 21.219 15.0697 21.206 15.1357 21.206C15.2017 21.206 15.267 21.219 15.328 21.2443C15.3889 21.2695 15.4443 21.3066 15.491 21.3532C15.5377 21.3999 15.5747 21.4553 15.5999 21.5162C15.6252 21.5772 15.6382 21.6426 15.6382 21.7085C15.6382 21.7745 15.6252 21.8399 15.5999 21.9008C15.5747 21.9618 15.5377 22.0172 15.491 22.0639C15.4443 22.1105 15.3889 22.1476 15.328 22.1728C15.267 22.1981 15.2017 22.2111 15.1357 22.2111C15.0697 22.2111 15.0043 22.1981 14.9434 22.1728C14.8824 22.1476 14.827 22.1105 14.7803 22.0639C14.7337 22.0172 14.6967 21.9618 14.6714 21.9008C14.6462 21.8399 14.6332 21.7745 14.6332 21.7085Z" fill="#ED4C5C"/>
            <path d="M13.1658 16.1205C12.3417 16.7437 12.4824 17.6482 11.397 18.4723C10.9347 18.8341 9.80904 18.7939 9.38693 19.1557C9.07601 19.3754 8.85833 19.7033 8.77653 20.0751C8.69473 20.4469 8.75471 20.8359 8.94472 21.1658C8.59503 20.7434 8.33542 20.254 8.18187 19.7277C8.02833 19.2013 7.98408 18.6491 8.05186 18.105C8.11964 17.5608 8.29801 17.0364 8.576 16.5637C8.85399 16.0911 9.22572 15.6804 9.66834 15.3567C10.1099 15.0055 10.6165 14.7451 11.159 14.5903C11.7015 14.4355 12.2693 14.3895 12.8297 14.4549C13.39 14.5202 13.932 14.6957 14.4243 14.9712C14.9166 15.2467 15.3497 15.6168 15.6985 16.0602C15.32 15.8123 14.8751 15.6853 14.4228 15.6961C13.9704 15.7068 13.5321 15.8549 13.1658 16.1205Z" fill="white"/>
            <path d="M9.56784 17.3669C9.56784 17.3009 9.58084 17.2355 9.60609 17.1746C9.63135 17.1136 9.66836 17.0582 9.71502 17.0115C9.76169 16.9649 9.81708 16.9279 9.87805 16.9026C9.93902 16.8774 10.0044 16.8644 10.0704 16.8644C10.1363 16.8644 10.2017 16.8774 10.2627 16.9026C10.3236 16.9279 10.379 16.9649 10.4257 17.0115C10.4723 17.0582 10.5094 17.1136 10.5346 17.1746C10.5599 17.2355 10.5729 17.3009 10.5729 17.3669C10.5729 17.4329 10.5599 17.4982 10.5346 17.5592C10.5094 17.6201 10.4723 17.6755 10.4257 17.7222C10.379 17.7689 10.3236 17.8059 10.2627 17.8311C10.2017 17.8564 10.1363 17.8694 10.0704 17.8694C10.0044 17.8694 9.93902 17.8564 9.87805 17.8311C9.81708 17.8059 9.76169 17.7689 9.71502 17.7222C9.66836 17.6755 9.63135 17.6201 9.60609 17.5592C9.58084 17.4982 9.56784 17.4329 9.56784 17.3669Z" fill="#ED4C5C"/>
            <path d="M14.6734 13.7889C13.809 13.206 12.9648 13.6281 11.8392 12.8844C11.3568 12.5628 11.0352 11.4974 10.5327 11.1758C10.2314 10.9606 9.8629 10.8604 9.4941 10.8936C9.12529 10.9268 8.78061 11.0911 8.52261 11.3567C9.15772 10.4367 10.1289 9.80312 11.2269 9.59255C12.3248 9.38199 13.4615 9.61132 14.392 10.2311C14.8511 10.5201 15.2471 10.899 15.556 11.345C15.8648 11.791 16.0802 12.295 16.1891 12.8265C16.298 13.358 16.2983 13.906 16.1898 14.4376C16.0813 14.9692 15.8663 15.4733 15.5578 15.9196C15.6231 15.5173 15.5749 15.1048 15.4187 14.7284C15.2625 14.352 15.0044 14.0267 14.6734 13.7889Z" fill="white"/>
            <path d="M12.3216 11.5979C12.3792 11.6787 12.4595 11.7405 12.5522 11.7758C12.645 11.811 12.7461 11.8179 12.8428 11.7958C12.9395 11.7736 13.0274 11.7234 13.0956 11.6513C13.1638 11.5793 13.2091 11.4886 13.2259 11.3909C13.2426 11.2931 13.2301 11.1925 13.1898 11.1019C13.1495 11.0112 13.0833 10.9345 12.9995 10.8815C12.9157 10.8284 12.8181 10.8013 12.7189 10.8036C12.6197 10.8059 12.5234 10.8375 12.4422 10.8944C12.3879 10.9325 12.3416 10.981 12.3061 11.037C12.2706 11.0931 12.2465 11.1556 12.2353 11.2211C12.2241 11.2865 12.2259 11.3534 12.2408 11.4181C12.2556 11.4828 12.283 11.5439 12.3216 11.5979Z" fill="#ED4C5C"/>
            <path d="M17.3869 14.4724C17.6884 13.4874 17.0251 12.8442 17.3869 11.5578C17.5477 10.995 18.4724 10.3719 18.6332 9.80905C18.7332 9.4634 18.7096 9.09371 18.5665 8.76355C18.4235 8.4334 18.1698 8.1634 17.8492 8C18.3774 8.14395 18.8718 8.3912 19.3037 8.72744C19.7357 9.06368 20.0967 9.48224 20.3659 9.95891C20.6351 10.4356 20.8071 10.9609 20.8719 11.5044C20.9368 12.048 20.8932 12.599 20.7437 13.1256C20.414 14.1754 19.6874 15.0549 18.7187 15.5768C17.75 16.0987 16.6158 16.2217 15.5578 15.9196C15.9696 15.8798 16.3611 15.7222 16.6856 15.4655C17.01 15.2088 17.2535 14.864 17.3869 14.4724Z" fill="white"/>
            <path d="M19.0352 11.598C18.9639 11.6678 18.915 11.7574 18.8948 11.8551C18.8746 11.9529 18.884 12.0544 18.9217 12.1468C18.9595 12.2392 19.0239 12.3183 19.1067 12.374C19.1896 12.4296 19.2871 12.4594 19.3869 12.4594C19.4868 12.4594 19.5843 12.4296 19.6672 12.374C19.75 12.3183 19.8144 12.2392 19.8522 12.1468C19.8899 12.0544 19.8993 11.9529 19.879 11.8551C19.8588 11.7574 19.81 11.6678 19.7387 11.598C19.6448 11.5059 19.5185 11.4543 19.3869 11.4543C19.2554 11.4543 19.1291 11.5059 19.0352 11.598Z" fill="#ED4C5C"/>
            <path d="M17.5678 17.2261C18.6131 17.2261 19.0553 16.3819 20.402 16.3417C20.9849 16.3417 21.8894 16.9849 22.4121 16.9648C22.7771 16.9597 23.1285 16.8259 23.4044 16.5868C23.6803 16.3477 23.8627 16.0188 23.9196 15.6582C23.8142 16.6742 23.3441 17.6175 22.5963 18.3133C21.8485 19.009 20.8738 19.41 19.8528 19.4419C18.8319 19.4738 17.8341 19.1345 17.0443 18.4868C16.2545 17.8391 15.7264 16.9269 15.5578 15.9195C15.7338 16.306 16.0164 16.6343 16.3724 16.8657C16.7285 17.0971 17.1432 17.2222 17.5678 17.2261Z" fill="white"/>
            <path d="M21.0854 17.9297C20.9913 17.8995 20.8903 17.8978 20.7952 17.9248C20.7 17.9518 20.615 18.0062 20.5507 18.0813C20.4863 18.1564 20.4456 18.2488 20.4335 18.3469C20.4214 18.445 20.4386 18.5445 20.4828 18.633C20.527 18.7214 20.5963 18.7948 20.6821 18.8441C20.7678 18.8933 20.8662 18.9161 20.9649 18.9097C21.0635 18.9033 21.1581 18.8679 21.2368 18.808C21.3154 18.7481 21.3746 18.6663 21.407 18.5729C21.4459 18.4449 21.4343 18.3068 21.3744 18.1872C21.3146 18.0675 21.2112 17.9753 21.0854 17.9297Z" fill="#ED4C5C"/>
        </g>
        <defs>
            <clipPath id="clip0_11_699">
                <rect width="32" height="32" fill="white" transform="matrix(1 0 0 -1 0 32)"/>
            </clipPath>
        </defs>
    </svg>