<svg width="51" height="29" viewBox="0 0 51 29" fill="none" xmlns="http://www.w3.org/2000/svg"><rect width="51" height="29" rx="4" fill="url(#paint0_linear_33_31172)"/><path d="M38.8292 3.98242C40.7925 3.98242 42.384 5.54797 42.384 7.47892C42.384 9.41025 40.7925 10.9759 38.8292 10.9759C36.8659 10.9759 35.2744 9.41026 35.2744 7.47892C35.2744 5.54752 36.8664 3.98242 38.8292 3.98242ZM38.8292 3.98242C40.7925 3.98242 42.384 5.54797 42.384 7.47892C42.384 9.41025 40.7925 10.9759 38.8292 10.9759C36.8659 10.9759 35.2744 9.41026 35.2744 7.47892C35.2744 5.54752 36.8664 3.98242 38.8292 3.98242ZM37.4962 12.1417H40.4591C42.9953 12.1417 45.051 14.1634 45.051 16.6582V16.9492C45.051 17.9324 42.9949 17.9697 40.4591 17.9697H37.4962C34.9599 17.9697 32.9043 17.9683 32.9043 16.9492V16.6582C32.9043 14.1634 34.9599 12.1417 37.4962 12.1417Z" fill="white"/><rect x="4" y="4" width="3" height="3" rx="1.5" fill="white"/><rect x="4" y="10" width="10" height="2" rx="1" fill="white"/><rect x="4" y="14" width="17" height="2" rx="1" fill="white"/><rect x="4" y="23" width="43" height="2" rx="1" fill="white"/><rect x="8" y="4" width="3" height="3" rx="1.5" fill="white"/><rect x="12" y="4" width="3" height="3" rx="1.5" fill="white"/><defs><linearGradient id="paint0_linear_33_31172" x1="46" y1="-1.25303e-06" x2="2" y2="27" gradientUnits="userSpaceOnUse"><stop stop-color="#D3DCF0"/><stop offset="0.515" stop-color="#F1DBDB"/><stop offset="1" stop-color="#D3DCF0"/></linearGradient></defs></svg>