<svg xmlns="http://www.w3.org/2000/svg" viewBox="0 0 22 22"><g clip-path="url(#clip0_129_5851)"><path d="M10.8912 0.306641C4.98556 0.306641 0.199219 5.09298 0.199219 10.9986C0.199219 16.9043 4.98556 21.6906 10.8912 21.6906C16.7969 21.6906 21.5832 16.9043 21.5832 10.9986C21.5832 5.09298 16.7969 0.306641 10.8912 0.306641ZM20.1075 10.2858H17.2814C17.1588 7.20075 16.2567 4.47207 14.8952 2.65108C17.7993 4.04606 19.8458 6.91396 20.1075 10.2858ZM15.8446 10.2858H11.604V1.83805C13.8956 2.44782 15.6664 5.94778 15.8446 10.2858ZM10.1784 1.83805V10.2858H5.93782C6.11602 5.94778 7.88688 2.44782 10.1784 1.83805ZM6.88729 2.65108C5.52294 4.47207 4.62359 7.19797 4.50108 10.2858H1.67494C1.93667 6.91396 3.98318 4.04606 6.88729 2.65108ZM1.67494 11.7114H4.49829C4.62081 14.7965 5.52294 17.5252 6.8845 19.3462C3.98318 17.9512 1.93667 15.0833 1.67494 11.7114ZM5.93782 11.7114H10.1784V20.1592C7.88688 19.5495 6.11602 16.0495 5.93782 11.7114ZM11.604 20.1592V11.7114H15.8446C15.6664 16.0495 13.8956 19.5495 11.604 20.1592ZM14.8952 19.3462C16.2595 17.5252 17.1588 14.7993 17.2814 11.7114H20.1047C19.8458 15.0833 17.7993 17.9512 14.8952 19.3462Z" fill="#666D80"/></g><defs><clipPath id="clip0_129_5851"><rect width="21.6" height="21.6" fill="white" transform="translate(0.199219 0.199219)"/></clipPath></defs></svg>