<svg xmlns="http://www.w3.org/2000/svg" viewBox="0 0 30 30" v-bind="attrs" aria-hidden="true">
            <path d="M22.9549 19.4193L21.1871 17.6515L22.9549 15.8838C25.3956 13.443 25.3956 9.48572 22.9549 7.04495C20.5141 4.60416 16.5567 4.60416 14.116 7.04495L12.3482 8.81271L10.5805 7.04495L12.3482 5.27717C15.7654 1.86008 21.3055 1.86008 24.7226 5.27717C28.1397 8.69426 28.1397 14.2344 24.7226 17.6515L22.9549 19.4193ZM19.4192 22.9549L17.6515 24.7226C14.2345 28.1396 8.69426 28.1396 5.27717 24.7226C1.86008 21.3055 1.86008 15.7653 5.27717 12.3482L7.04493 10.5805L8.81271 12.3482L7.04493 14.116C4.60416 16.5568 4.60416 20.514 7.04493 22.9549C9.48571 25.3956 13.443 25.3956 15.8837 22.9549L17.6515 21.187L19.4192 22.9549ZM18.5354 9.6966L20.3032 11.4644L11.4644 20.3031L9.69658 18.5354L18.5354 9.6966Z"/>
        </svg>