<svg xmlns="http://www.w3.org/2000/svg" viewBox="0 0 12 12"><path d="M11.25 4.87489V2.24989L10.3939 3.10601C9.91589 2.38181 9.26575 1.78747 8.50169 1.37622C7.73762 0.96496 6.88347 0.74963 6.01576 0.749512C3.11626 0.749512 0.765381 3.10001 0.765381 5.99989C0.765381 8.89976 3.11626 11.2503 6.01576 11.2503C7.06067 11.2505 8.08189 10.9389 8.94873 10.3554C9.81558 9.77198 10.4886 8.94315 10.8818 7.97501C10.9267 7.86447 10.9258 7.74061 10.8794 7.63069C10.833 7.52077 10.7448 7.43379 10.6343 7.38889C10.5795 7.36665 10.5209 7.35542 10.4619 7.35582C10.4028 7.35623 10.3444 7.36826 10.2899 7.39125C10.18 7.43766 10.093 7.52584 10.0481 7.63639C9.72223 8.43857 9.16445 9.1253 8.44613 9.60874C7.72781 10.0922 6.88161 10.3504 6.01576 10.3503C3.61313 10.3503 1.66538 8.40251 1.66538 5.99989C1.66538 3.59726 3.61313 1.64951 6.01576 1.64951C7.56788 1.64951 8.96813 2.47076 9.74251 3.75701L8.62501 4.87489H11.25Z" fill="#014CFA"/></svg>