<svg width="24" height="24" viewBox="0 0 24 24" fill="none" xmlns="http://www.w3.org/2000/svg"><path d="M22.1365 11.0525L17.8625 3.30255C17.7137 3.03111 17.4948 2.80457 17.2286 2.64657C16.9625 2.48857 16.6588 2.4049 16.3492 2.4043H7.86173C7.5522 2.4049 7.2485 2.48857 6.98232 2.64657C6.71615 2.80457 6.49725 3.03111 6.34848 3.30255L2.07448 11.0525C1.93081 11.3134 1.85547 11.6065 1.85547 11.9043C1.85547 12.2021 1.93081 12.4951 2.07448 12.756L6.34848 20.506C6.49725 20.7775 6.71615 21.004 6.98232 21.162C7.2485 21.32 7.5522 21.4037 7.86173 21.4043H16.3492C16.6588 21.4037 16.9625 21.32 17.2286 21.162C17.4948 21.004 17.7137 20.7775 17.8625 20.506L22.1365 12.756C22.2802 12.4951 22.3555 12.2021 22.3555 11.9043C22.3555 11.6065 22.2802 11.3134 22.1365 11.0525ZM20.8242 11.7825C20.8447 11.8198 20.8555 11.8616 20.8555 11.9042C20.8555 11.9467 20.8447 11.9885 20.8242 12.0258L16.5577 19.7758C16.5366 19.8146 16.5054 19.847 16.4674 19.8696C16.4295 19.8922 16.3862 19.9042 16.342 19.9043H7.86898C7.82481 19.9042 7.78147 19.8922 7.74352 19.8696C7.70556 19.847 7.67438 19.8146 7.65323 19.7758L3.38673 12.0258C3.36625 11.9885 3.35551 11.9467 3.35551 11.9042C3.35551 11.8616 3.36625 11.8198 3.38673 11.7825L7.65323 4.03255C7.67441 3.99381 7.70561 3.96147 7.74356 3.93891C7.78151 3.91635 7.82483 3.90439 7.86898 3.9043H16.342C16.3861 3.90439 16.4294 3.91635 16.4674 3.93891C16.5054 3.96147 16.5366 3.99381 16.5577 4.03255L20.8242 11.7825ZM12.041 8.0008C9.83173 8.0008 8.04098 9.79155 8.04098 12.0008C8.04098 14.21 9.83173 16.0008 12.041 16.0008C14.25 16.0008 16.041 14.21 16.041 12.0008C16.041 9.79155 14.25 8.0008 12.041 8.0008ZM12.041 9.5008C13.4217 9.5008 14.541 10.62 14.541 12.0008C14.541 13.3815 13.4217 14.5008 12.041 14.5008C10.6602 14.5008 9.54098 13.3815 9.54098 12.0008C9.54098 10.62 10.6602 9.5008 12.041 9.5008Z" fill="black"/></svg>