<svg width="18" height="17" viewBox="0 0 18 17" fill="none" xmlns="http://www.w3.org/2000/svg"><path fill-rule="evenodd" clip-rule="evenodd" d="M10.5184 3.03281C10.9628 4.14068 11.185 4.69462 11.6379 5.0313C12.0907 5.368 12.6852 5.42124 13.8741 5.52771L14.089 5.54696C16.0349 5.72122 17.0078 5.80835 17.2159 6.42734C17.4241 7.04632 16.7016 7.70366 15.2565 9.01835L14.7743 9.45713C14.0428 10.1226 13.677 10.4554 13.5065 10.8915C13.4747 10.9729 13.4483 11.0562 13.4274 11.141C13.3153 11.5957 13.4225 12.0784 13.6367 13.0439L13.7033 13.3444C14.097 15.1188 14.2938 16.0059 13.9502 16.3886C13.8217 16.5316 13.6548 16.6345 13.4694 16.6851C12.9732 16.8205 12.2687 16.2465 10.8598 15.0984C9.93462 14.3445 9.47203 13.9676 8.94093 13.8828C8.73202 13.8494 8.51914 13.8494 8.31023 13.8828C7.77914 13.9676 7.31655 14.3445 6.39138 15.0984C4.98243 16.2465 4.27794 16.8205 3.78175 16.6851C3.59633 16.6345 3.42943 16.5316 3.30099 16.3886C2.95732 16.0059 3.15415 15.1188 3.54782 13.3444L3.6145 13.0439C3.82871 12.0784 3.93582 11.5957 3.82375 11.141C3.80286 11.0562 3.77642 10.9729 3.74462 10.8915C3.57415 10.4554 3.20839 10.1226 2.47689 9.45713L1.99461 9.01835C0.54957 7.70366 -0.17296 7.04632 0.0352269 6.42734C0.243397 5.80835 1.21631 5.72122 3.16212 5.54696L3.37705 5.52771C4.56597 5.42124 5.16043 5.368 5.61329 5.0313C6.06613 4.69462 6.28833 4.14068 6.73272 3.03281L6.76936 2.9415C7.55596 0.980495 7.94925 0 8.62558 0C9.30191 0 9.69521 0.980495 10.4818 2.9415L10.5184 3.03281Z" fill="#2752E7"/></svg>