<svg width="20" height="20" viewBox="0 0 20 20" fill="none" xmlns="http://www.w3.org/2000/svg">
<g id="Frame" clip-path="url(#clip0_885_5868)">
<path id="Vector" d="M19.9814 7.68806C19.9406 7.56221 19.8656 7.45018 19.7648 7.36449C19.664 7.2788 19.5414 7.22283 19.4106 7.20282L13.3308 6.33224L10.6192 0.837609C10.555 0.728074 10.4632 0.637236 10.3531 0.574114C10.2429 0.510993 10.1182 0.477783 9.9912 0.477783C9.86424 0.477783 9.73948 0.510993 9.62933 0.574114C9.51917 0.637236 9.42744 0.728074 9.36324 0.837609L6.6516 6.33224L0.60037 7.14573C0.469584 7.16574 0.346937 7.22172 0.246127 7.3074C0.145317 7.39309 0.0703151 7.50512 0.0294985 7.63097C-0.00747435 7.75554 -0.00973462 7.88783 0.0229615 8.01359C0.0556576 8.13934 0.122069 8.25378 0.215032 8.34456L4.59647 12.6261L3.55463 18.7059C3.5348 18.8353 3.55094 18.9676 3.60128 19.0884C3.65163 19.2092 3.73423 19.3139 3.84006 19.3909C3.96049 19.4774 4.10572 19.5225 4.25394 19.5194C4.36413 19.5176 4.47211 19.4882 4.56792 19.4337L9.9912 16.5794L15.4145 19.4337C15.5229 19.5038 15.6493 19.541 15.7784 19.541C15.9075 19.541 16.0339 19.5038 16.1423 19.4337C16.2482 19.3567 16.3308 19.2521 16.3811 19.1312C16.4315 19.0104 16.4476 18.8781 16.4278 18.7487L15.3859 12.7117L19.7674 8.43019C19.8705 8.34008 19.9455 8.22219 19.9835 8.0906C20.0215 7.959 20.0207 7.81926 19.9814 7.68806Z" fill="#014CFA"/>
</g>
<defs>
<clipPath id="clip0_885_5868">
<rect width="20" height="20" fill="white"/>
</clipPath>
</defs>
</svg>
