<svg width="0.8rem" height="0.8rem" viewBox="0 0 40 40" fill="none" xmlns="http://www.w3.org/2000/svg">
            <rect width="40" height="40" rx="16" fill="#014CFA" fill-opacity="0.1"/>
            <circle cx="20" cy="20" r="12" fill="#014CFA"/>
            <path d="M26.7685 18.3977C26.8077 18.3946 26.8452 18.381 26.8773 18.3584C26.9093 18.3357 26.9346 18.3049 26.9506 18.269C26.9665 18.2332 26.9725 18.1937 26.9678 18.1547C26.9631 18.1157 26.948 18.0788 26.9241 18.0477L22.8408 14.4621C22.693 14.3688 22.4908 14.4155 22.4908 14.6177V16.8888H13.5308C13.4606 16.8804 13.3895 16.8878 13.3226 16.9104C13.2557 16.933 13.1947 16.9702 13.144 17.0194C13.0933 17.0686 13.0543 17.1285 13.0297 17.1947C13.0051 17.2609 12.9956 17.3318 13.0019 17.4021V17.8999C12.9985 17.9662 13.0091 18.0324 13.033 18.0943C13.0568 18.1562 13.0933 18.2124 13.1402 18.2593C13.1871 18.3062 13.2434 18.3428 13.3053 18.3666C13.3672 18.3904 13.4334 18.401 13.4997 18.3977H26.7685ZM13.2352 21.6021C13.1961 21.6052 13.1585 21.6188 13.1265 21.6414C13.0945 21.664 13.0691 21.6949 13.0532 21.7308C13.0373 21.7666 13.0313 21.8061 13.036 21.8451C13.0406 21.8841 13.0557 21.921 13.0797 21.9521L17.163 25.5377C17.3108 25.631 17.513 25.5843 17.513 25.3821V23.111H26.473C26.5392 23.1144 26.6055 23.1038 26.6674 23.0799C26.7293 23.0561 26.7855 23.0196 26.8324 22.9727C26.8793 22.9257 26.9159 22.8695 26.9397 22.8076C26.9635 22.7457 26.9741 22.6795 26.9708 22.6132V22.0999C26.9741 22.0336 26.9635 21.9674 26.9397 21.9055C26.9159 21.8436 26.8793 21.7874 26.8324 21.7405C26.7855 21.6936 26.7293 21.657 26.6674 21.6332C26.6055 21.6094 26.5392 21.5988 26.473 21.6021H13.2352Z" fill="white"/>
        </svg>