<svg xmlns="http://www.w3.org/2000/svg" width="0.8rem" height="0.8rem" viewBox="0 0 40 40" fill="none"><path fill-rule="evenodd" clip-rule="evenodd" d="M21.8934 14.7188C22.3378 15.8267 22.56 16.3807 23.0129 16.7173C23.4657 17.054 24.0602 17.1073 25.2491 17.2137L25.464 17.233C27.4099 17.4073 28.3828 17.4944 28.5909 18.1134C28.7991 18.7324 28.0766 19.3897 26.6315 20.7044L26.1493 21.1432C25.4178 21.8087 25.052 22.1414 24.8815 22.5776C24.8497 22.6589 24.8233 22.7423 24.8024 22.8271C24.6903 23.2817 24.7975 23.7645 25.0117 24.7299L25.0783 25.0305C25.472 26.8048 25.6688 27.692 25.3252 28.0746C25.1967 28.2176 25.0298 28.3206 24.8444 28.3712C24.3482 28.5066 23.6437 27.9325 22.2348 26.7844C21.3096 26.0305 20.847 25.6536 20.3159 25.5688C20.107 25.5354 19.8941 25.5354 19.6852 25.5688C19.1541 25.6536 18.6915 26.0305 17.7664 26.7844C16.3574 27.9325 15.6529 28.5066 15.1567 28.3712C14.9713 28.3206 14.8044 28.2176 14.676 28.0746C14.3323 27.692 14.5292 26.8048 14.9228 25.0305L14.9895 24.7299C15.2037 23.7645 15.3108 23.2817 15.1988 22.8271C15.1779 22.7423 15.1514 22.6589 15.1196 22.5776C14.9491 22.1414 14.5834 21.8087 13.8519 21.1432L13.3696 20.7044C11.9246 19.3897 11.202 18.7324 11.4102 18.1134C11.6184 17.4944 12.5913 17.4073 14.5371 17.233L14.7521 17.2137C15.941 17.1073 16.5354 17.054 16.9883 16.7173C17.4411 16.3807 17.6633 15.8267 18.1077 14.7188L18.1444 14.6275C18.931 12.6665 19.3242 11.686 20.0006 11.686C20.6769 11.686 21.0702 12.6665 21.8568 14.6275L21.8934 14.7188V14.7188Z" stroke="#666D80" stroke-width="1"/></svg>