<svg width="2.08rem" height="2.36rem" viewBox="0 0 104 118" fill="none" xmlns="http://www.w3.org/2000/svg">
            <path d="M41.0869 1.4958C36.7152 2.54299 32.6349 4.5687 29.1564 7.41885C28.9797 7.55729 29.1369 7.82337 29.3503 7.7548C43.187 3.3933 58.5734 8.87263 66.0116 21.7559C73.6374 34.9642 70.3512 51.4973 59.005 61.22C60.893 60.5596 62.7144 59.7265 64.4455 58.7307C78.6226 50.5456 84.3531 33.0965 77.6796 18.4389C71.9084 5.79493 54.8171 -1.77367 41.0869 1.4958ZM18.1 127.67C13.6745 126.062 10.8598 120.717 12.1692 116.305C15.1607 106.202 21.1424 90.4579 28.4894 86.2162C39.4694 79.8659 77.227 58.4853 81.0508 59.9776C84.7629 61.4287 87.7377 70.8292 77.7341 77.8357C73.1392 81.053 67.6524 84.3701 63.0045 87.1847C60.7055 88.5557 58.4282 89.9579 56.1686 91.3972C55.2763 91.9853 55.8851 93.6367 57.0017 93.6657C62.3968 93.7774 72.5411 93.0662 81.7613 87.2112C89.4454 82.3342 94.6115 74.0165 96.8648 64.2669C98.7315 56.2226 101.926 44.6296 105.267 42.7008C107.719 41.2848 109.628 40.875 110.956 40.8328C112.116 40.7968 113.198 41.9671 113.138 43.2473C112.807 51.5009 110.681 82.8053 97.483 98.4147C86.5114 111.402 70.1739 118.57 61.8362 121.585C58.3505 122.843 55.6825 125.582 54.3272 129.292L52.7468 133.635C51.5054 137.028 48.0759 138.55 44.5657 137.277L18.0988 127.674L18.0956 127.669L18.1 127.67ZM59.1446 25.7242C62.0203 30.4962 63.5561 35.9563 63.5922 41.5367C63.6284 47.1172 62.1636 52.614 59.3502 57.4555C56.5293 62.3312 52.4701 66.3849 47.5836 69.2061C42.6972 72.0273 37.157 73.5158 31.524 73.5209C25.9248 73.536 20.4324 72.0557 15.6182 69.2339C10.804 66.4121 6.84382 62.3519 4.14945 57.4757C-3.99915 42.5809 1.43132 23.7864 16.3783 15.1568C31.3224 6.52879 50.3141 11.2231 59.1419 25.7258L59.1446 25.7242ZM35.6635 34.6343L38.7155 32.8722L41.0556 36.9253L35.9001 39.9019L36.0049 42.5472L37.197 44.612L43.4194 41.0195L45.7611 45.0754L39.5414 48.6663L42.845 54.3882L37.1478 57.6775L33.8442 51.9556L27.5888 55.5671L25.2471 51.5112L31.508 47.8965L30.3159 45.8317L28.0735 44.4242L22.8877 47.4182L20.5413 43.3541L23.6319 41.5698L11.6629 33.888L17.888 30.2939L30.075 38.8295L28.7682 24.0122L34.9549 20.4403L35.6662 34.6327L35.6635 34.6343Z" fill="#E8503A" fill-opacity="0.05"/>
        </svg>