<svg width="2.24rem" height="2.34rem" viewBox="0 0 112 117" fill="none" xmlns="http://www.w3.org/2000/svg">
            <path d="M4.86159 45.5385L80.339 1.96154C84.456 -0.415382 88.7787 0.733322 91.1458 4.83331L138.094 86.1496C140.461 90.2496 139.294 94.5676 135.177 96.9445C133.805 97.7368 133.119 98.1329 131.352 98.2419L90.612 98.9856C87.7645 98.8074 85.0198 100.392 83.7504 102.947L62.7363 137.857C60.4891 141.888 55.5831 142.898 51.552 140.67C50.4713 140.383 49.6823 139.016 48.8932 137.65L1.94521 56.3333C-0.421916 52.2333 0.744634 47.9154 4.86159 45.5385ZM35.2235 55.3422C32.4789 56.9268 31.604 60.1653 33.182 62.8986C34.7601 65.6319 38.0022 66.4935 41.433 64.5127L79.1717 42.7242C81.9163 41.1396 83.4774 37.505 81.8993 34.7717C80.3212 32.0384 76.393 31.573 73.6484 33.1576L35.2235 55.3422ZM51.0043 82.6754C48.2597 84.2601 47.3848 87.4985 48.9629 90.2318C50.541 92.9652 54.1775 94.51 57.6083 92.5293L95.347 70.7408C98.0917 69.1562 99.6527 65.5216 97.6801 62.1049C95.7075 58.6883 92.1739 58.9062 89.4292 60.4908L51.0043 82.6754Z" fill="#FFAF2A" fill-opacity="0.05"/>
        </svg>