<svg width="2rem" height="2.42rem" viewBox="0 0 100 121" fill="none" xmlns="http://www.w3.org/2000/svg">
            <path d="M117.096 89.438L33.1844 137.887C31.1753 139.044 28.2682 138.258 27.1042 136.253L13.3491 112.428C11.1148 108.558 11.886 105.413 15.0434 106.177L31.5565 108.571C33.836 108.998 37.1543 109.454 37.5342 107.167L41.4089 83.8406C41.7892 81.5536 42.8259 78.0359 45.11 78.443L61.9367 81.7408C64.2192 82.1465 68.7032 82.567 69.045 80.2722L77.4865 30.5809C78.765 24.1087 83.5426 22.6957 86.5846 27.9646C88.8514 31.8909 118.605 83.4248 118.605 83.4248C119.764 85.4332 119.104 88.2811 117.096 89.438ZM60.6036 67.011C60.3363 68.9287 59.3016 70.6514 57.7381 71.7878C56.1847 72.9486 54.2137 73.3732 52.3113 73.0345L33.5387 69.6744L30.5366 93.7579C30.2947 95.6786 29.2886 97.42 27.74 98.5782C27.5146 98.7458 27.2805 98.9011 27.0378 99.0412C25.6242 99.8574 23.9604 100.165 22.33 99.8951L6.02852 97.2159C2.14835 96.5797 -0.48623 92.9134 0.145067 89.0306C0.772621 85.1451 4.43319 82.5167 8.31343 83.1551L17.3244 84.635L20.3377 60.447C20.579 58.5063 21.6052 56.7558 23.1746 55.5986C24.7582 54.4382 26.7245 53.9836 28.6435 54.3226L47.5192 57.7026L52.0244 27.6314L45.2588 26.4679C40.4587 25.6431 39.4919 22.3051 43.1114 19.0511L63.9729 0.293057C67.5915 -2.96053 70.0367 -1.67059 69.4079 3.16159L60.6036 67.011Z" fill="#014CFA" fill-opacity="0.05"/>
        </svg>