<svg width="24" height="25" viewBox="0 0 24 25" fill="none" xmlns="http://www.w3.org/2000/svg">
<path fill-rule="evenodd" clip-rule="evenodd" d="M21.5239 10.015C20.8848 6.0342 17.5438 3.0727 13.5605 2.95612C13.3711 2.94861 13.1865 3.01762 13.0475 3.14794C12.9084 3.27827 12.8262 3.45921 12.8191 3.65089V3.65089V3.71574L13.2676 10.506C13.297 10.963 13.6853 11.3105 14.1372 11.2841L20.8649 10.8302C21.0544 10.816 21.2306 10.7259 21.3543 10.5798C21.478 10.4338 21.539 10.2438 21.5239 10.052V10.015Z" stroke="#111111" stroke-width="1.5" stroke-linecap="round" stroke-linejoin="round"/>
<path d="M8.90151 6.99513C9.32947 6.89494 9.76741 7.11655 9.94499 7.52315C9.9915 7.61879 10.0195 7.72256 10.0274 7.82885C10.1189 9.14428 10.3111 12.0253 10.421 13.5815C10.4397 13.8619 10.5681 14.1231 10.7777 14.3074C10.9872 14.4917 11.2608 14.5838 11.5377 14.5635V14.5635L17.1853 14.2115C17.4374 14.1961 17.6846 14.2869 17.8683 14.4623C18.052 14.6377 18.156 14.8822 18.1555 15.1378V15.1378C17.9266 18.5893 15.4764 21.4747 12.1392 22.2226C8.80201 22.9705 5.37718 21.4018 3.72988 18.3708C3.23813 17.4985 2.92672 16.5341 2.81455 15.5362C2.7666 15.2299 2.74821 14.9197 2.75963 14.6098C2.76935 10.9239 5.32714 7.74805 8.89236 6.99513" stroke="#111111" stroke-width="1.5" stroke-linecap="round" stroke-linejoin="round"/>
</svg>
