<svg xmlns="http://www.w3.org/2000/svg" width="28" height="28" fill="none"><g clip-path="url(#a)"><g filter="url(#b)"><rect x="2" y="2" width="23.33" height="23.33" rx="6" fill="#00A609"/></g><path d="M9.2 15.6h6.6a.6.6 0 1 0 0-1.2H11a3 3 0 1 1 0-6h1.2V6h2.4v2.4h3v2.4H11a.6.6 0 0 0 0 1.2h4.8a3 3 0 0 1 0 6h-1.2v2.4h-2.4V18h-3v-2.4Z" fill="#fff"/></g><defs><clipPath id="a"><path fill="#fff" d="M0 0h28v28H0z"/></clipPath><filter id="b" x="-2" y="2" width="31.33" height="31.33" filterUnits="userSpaceOnUse" color-interpolation-filters="sRGB"><feFlood flood-opacity="0" result="BackgroundImageFix"/><feColorMatrix in="SourceAlpha" values="0 0 0 0 0 0 0 0 0 0 0 0 0 0 0 0 0 0 127 0" result="hardAlpha"/><feOffset dy="4"/><feGaussianBlur stdDeviation="2"/><feComposite in2="hardAlpha" operator="out"/><feColorMatrix values="0 0 0 0 0 0 0 0 0 0 0 0 0 0 0 0 0 0 0.25 0"/><feBlend in2="BackgroundImageFix" result="effect1_dropShadow_54_1972"/><feBlend in="SourceGraphic" in2="effect1_dropShadow_54_1972" result="shape"/></filter></defs></svg>