<svg width="28" height="28" viewBox="0 0 28 28" fill="none" xmlns="http://www.w3.org/2000/svg">
<g clip-path="url(#clip0_42_680)">
<path fill-rule="evenodd" clip-rule="evenodd" d="M19.33 4.2H8C5.90132 4.2 4.2 5.90132 4.2 7.99999V19.33C4.2 21.4287 5.90132 23.13 7.99999 23.13H19.33C21.4287 23.13 23.13 21.4287 23.13 19.33V8C23.13 5.90132 21.4287 4.2 19.33 4.2ZM8 2C4.68629 2 2 4.68629 2 7.99999V19.33C2 22.6437 4.68629 25.33 7.99999 25.33H19.33C22.6437 25.33 25.33 22.6437 25.33 19.33V8C25.33 4.68629 22.6437 2 19.33 2H8Z" fill="#888888"/>
<path d="M9.13896 15.7364H15.739C16.0703 15.7364 16.339 15.4678 16.339 15.1364C16.339 14.8051 16.0703 14.5364 15.739 14.5364H10.939C9.28211 14.5364 7.93896 13.1934 7.93896 11.5364C7.93896 9.87961 9.28211 8.53647 10.939 8.53647H12.139V6.13647H14.539V8.53647H17.539V10.9364H10.939C10.6076 10.9364 10.339 11.2051 10.339 11.5364C10.339 11.8678 10.6076 12.1364 10.939 12.1364H15.739C17.3958 12.1364 18.739 13.4796 18.739 15.1364C18.739 16.7934 17.3958 18.1364 15.739 18.1364H14.539V20.5364H12.139V18.1364H9.13896V15.7364Z" fill="#888888"/>
</g>
<defs>
<clipPath id="clip0_42_680">
<rect width="28" height="28" fill="white"/>
</clipPath>
</defs>
</svg>
