<svg width="24" height="24" viewBox="0 0 24 24" fill="none" xmlns="http://www.w3.org/2000/svg">
<path d="M17.9238 17.1116C17.8728 17.5416 17.5138 17.8616 17.0938 17.8616C16.6628 17.8616 16.3038 17.5416 16.2638 17.1116V13.8316C16.2238 13.5106 16.3728 13.2116 16.6438 13.0416C16.9238 12.8716 17.2638 12.8716 17.5328 13.0416C17.8038 13.2116 17.9528 13.5106 17.9238 13.8316V17.1116Z" fill="#111111"/>
<path d="M13.3228 17.1075C13.2828 17.5375 12.9238 17.8575 12.4928 17.8575C12.0728 17.8575 11.7138 17.5375 11.6628 17.1075V6.9175C11.6338 6.6075 11.7828 6.2965 12.0538 6.1275C12.3228 5.9575 12.6628 5.9575 12.9438 6.1275C13.2138 6.2965 13.3628 6.6075 13.3228 6.9175V17.1075Z" fill="#111111"/>
<path d="M8.66281 17.1087C8.62281 17.5387 8.26381 17.8588 7.83281 17.8588C7.40281 17.8588 7.04281 17.5387 7.00381 17.1087V10.1988C6.97381 9.88775 7.12281 9.57875 7.39381 9.40875C7.66281 9.23875 8.00381 9.23875 8.27381 9.40875C8.54281 9.57875 8.69381 9.88775 8.66281 10.1988V17.1087Z" fill="#111111"/>
<path d="M16.669 2H7.33C3.929 2 2 3.929 2 7.33V16.67C2 20.07 3.929 22 7.33 22H16.669C20.07 22 22 20.07 22 16.67V7.33C21.99 3.929 20.07 2 16.669 2V2Z" stroke="#111111" stroke-width="1.5" stroke-linecap="round" stroke-linejoin="round"/>
</svg>
