<svg width="24" height="25" viewBox="0 0 24 25" fill="none" xmlns="http://www.w3.org/2000/svg">
<path fill-rule="evenodd" clip-rule="evenodd" d="M7.33049 2.16895H16.6695C20.0705 2.16895 21.9905 4.12119 22.0005 7.56316V17.0157C22.0005 20.4567 20.0705 22.4099 16.6695 22.4099H7.33049C3.92949 22.4099 2.00049 20.4567 2.00049 17.0157V7.56316C2.00049 4.12119 3.92949 2.16895 7.33049 2.16895ZM12.0495 18.22C12.4805 18.22 12.8395 17.8962 12.8795 17.461V7.14822C12.9195 6.83449 12.7705 6.51974 12.5005 6.3487C12.2195 6.17666 11.8795 6.17666 11.6105 6.3487C11.3395 6.51974 11.1905 6.83449 11.2195 7.14822V17.461C11.2705 17.8962 11.6295 18.22 12.0495 18.22ZM16.6505 18.22C17.0705 18.22 17.4295 17.8962 17.4805 17.461V14.1415C17.5095 13.8166 17.3605 13.514 17.0895 13.342C16.8205 13.1699 16.4805 13.1699 16.2005 13.342C15.9295 13.514 15.7805 13.8166 15.8205 14.1415V17.461C15.8605 17.8962 16.2195 18.22 16.6505 18.22ZM8.21949 17.461C8.17949 17.8962 7.82049 18.22 7.38949 18.22C6.95949 18.22 6.59949 17.8962 6.56049 17.461V10.4677C6.53049 10.153 6.67949 9.84027 6.95049 9.66822C7.21949 9.49617 7.56049 9.49617 7.83049 9.66822C8.09949 9.84027 8.25049 10.153 8.21949 10.4677V17.461Z" fill="#014CFA"/>
</svg>
