<svg width="28" height="28" viewBox="0 0 28 28" fill="none" xmlns="http://www.w3.org/2000/svg">
<g id="Frame" clip-path="url(#clip0_2438_480)">
<g id="Rectangle 1000001188 (Stroke)" filter="url(#filter0_d_2438_480)">
<path fill-rule="evenodd" clip-rule="evenodd" d="M19.33 4.2H8C5.90132 4.2 4.2 5.90132 4.2 7.99999V19.33C4.2 21.4287 5.90132 23.13 7.99999 23.13H19.33C21.4287 23.13 23.13 21.4287 23.13 19.33V8C23.13 5.90132 21.4287 4.2 19.33 4.2ZM8 2C4.68629 2 2 4.68629 2 7.99999V19.33C2 22.6437 4.68629 25.33 7.99999 25.33H19.33C22.6437 25.33 25.33 22.6437 25.33 19.33V8C25.33 4.68629 22.6437 2 19.33 2H8Z" fill="white" fill-opacity="0.5" shape-rendering="crispEdges"/>
</g>
<path id="Vector" d="M18.1762 10L20 11.8237L14.7895 17.0341L12.2104 14.4547L8.82372 17.8417L7 16.0179L12.2104 10.8076L14.7895 13.387L18.1762 10Z" fill="#888888"/>
</g>
<defs>
<filter id="filter0_d_2438_480" x="-2" y="2" width="31.33" height="31.3301" filterUnits="userSpaceOnUse" color-interpolation-filters="sRGB">
<feFlood flood-opacity="0" result="BackgroundImageFix"/>
<feColorMatrix in="SourceAlpha" type="matrix" values="0 0 0 0 0 0 0 0 0 0 0 0 0 0 0 0 0 0 127 0" result="hardAlpha"/>
<feOffset dy="4"/>
<feGaussianBlur stdDeviation="2"/>
<feComposite in2="hardAlpha" operator="out"/>
<feColorMatrix type="matrix" values="0 0 0 0 0 0 0 0 0 0 0 0 0 0 0 0 0 0 0.25 0"/>
<feBlend mode="normal" in2="BackgroundImageFix" result="effect1_dropShadow_2438_480"/>
<feBlend mode="normal" in="SourceGraphic" in2="effect1_dropShadow_2438_480" result="shape"/>
</filter>
<clipPath id="clip0_2438_480">
<rect width="28" height="28" fill="white"/>
</clipPath>
</defs>
</svg>
