<svg width="28" height="28" viewBox="0 0 28 28" fill="none" xmlns="http://www.w3.org/2000/svg">
<path d="M14 2.33334C20.4432 2.33334 25.6666 7.55669 25.6666 14C25.6666 20.4433 20.4432 25.6667 14 25.6667C7.55665 25.6667 2.33331 20.4433 2.33331 14C2.33331 7.55669 7.55665 2.33334 14 2.33334ZM14.1863 18.6667C11.8117 18.6667 9.67377 19.6802 8.18153 21.2982C9.7771 22.572 11.7996 23.3333 14 23.3333C16.2977 23.3333 18.4015 22.503 20.0277 21.1261C18.5448 19.6086 16.4755 18.6667 14.1863 18.6667ZM14 4.66668C8.84532 4.66668 4.66665 8.84535 4.66665 14C4.66665 16.1124 5.3684 18.0608 6.55148 19.625C8.46577 17.5981 11.1783 16.3333 14.1863 16.3333C17.0848 16.3333 19.7088 17.5077 21.6087 19.4066C22.6947 17.8812 23.3333 16.0152 23.3333 14C23.3333 8.84535 19.1547 4.66668 14 4.66668ZM14 5.83334C16.5773 5.83334 18.6666 7.92268 18.6666 10.5C18.6666 13.0773 16.5773 15.1667 14 15.1667C11.4227 15.1667 9.33331 13.0773 9.33331 10.5C9.33331 7.92268 11.4227 5.83334 14 5.83334ZM14 8.16668C12.7113 8.16668 11.6666 9.21135 11.6666 10.5C11.6666 11.7887 12.7113 12.8333 14 12.8333C15.2887 12.8333 16.3333 11.7887 16.3333 10.5C16.3333 9.21135 15.2887 8.16668 14 8.16668Z" fill="white" fill-opacity="0.5"/>
</svg>
