<svg xmlns="http://www.w3.org/2000/svg" width="28" height="28" fill="none"><g clip-path="url(#a)"><g filter="url(#b)"><path fill-rule="evenodd" clip-rule="evenodd" d="M19.33 4.2H8A3.8 3.8 0 0 0 4.2 8v11.33a3.8 3.8 0 0 0 3.8 3.8h11.33a3.8 3.8 0 0 0 3.8-3.8V8a3.8 3.8 0 0 0-3.8-3.8ZM8 2a6 6 0 0 0-6 6v11.33a6 6 0 0 0 6 6h11.33a6 6 0 0 0 6-6V8a6 6 0 0 0-6-6H8Z" fill="#888"/></g><path d="M9.043 21.21A11.64 11.64 0 0 1 7 20.07a8.16 8.16 0 0 1 6.862-3.737 8.156 8.156 0 0 1 6.74 3.555c-.625.463-1.299.864-2.012 1.196a5.825 5.825 0 0 0-4.728-2.417 5.827 5.827 0 0 0-4.819 2.544Zm4.7-6.043a4.083 4.083 0 1 1 0-8.167 4.083 4.083 0 0 1 0 8.167Zm0-2.334a1.75 1.75 0 1 0 0-3.5 1.75 1.75 0 0 0 0 3.5Z" fill="#888"/></g><defs><clipPath id="a"><path fill="#fff" d="M0 0h28v28H0z"/></clipPath><filter id="b" x="-2" y="2" width="31.33" height="31.33" filterUnits="userSpaceOnUse" color-interpolation-filters="sRGB"><feFlood flood-opacity="0" result="BackgroundImageFix"/><feColorMatrix in="SourceAlpha" values="0 0 0 0 0 0 0 0 0 0 0 0 0 0 0 0 0 0 127 0" result="hardAlpha"/><feOffset dy="4"/><feGaussianBlur stdDeviation="2"/><feComposite in2="hardAlpha" operator="out"/><feColorMatrix values="0 0 0 0 0 0 0 0 0 0 0 0 0 0 0 0 0 0 0.25 0"/><feBlend in2="BackgroundImageFix" result="effect1_dropShadow_54_1989"/><feBlend in="SourceGraphic" in2="effect1_dropShadow_54_1989" result="shape"/></filter></defs></svg>