<svg width="28" height="28" viewBox="0 0 28 28" fill="none" xmlns="http://www.w3.org/2000/svg">
<g clip-path="url(#clip0_748_5937)">
<g filter="url(#filter0_d_748_5937)">
<rect x="2" y="4" width="23.33" height="23.33" rx="6" fill="#97E180"/>
</g>
<path d="M9.04322 23.2109C8.32141 22.8984 7.63742 22.515 7 22.0695C8.45472 19.8212 10.9844 18.3333 13.8616 18.3333C16.6608 18.3333 19.1311 19.7416 20.6025 21.8884C19.9768 22.3509 19.3032 22.7523 18.5904 23.0838C17.5308 21.6194 15.8074 20.6667 13.8616 20.6667C11.8599 20.6667 10.0939 21.6748 9.04322 23.2109ZM13.7424 17.1667C11.4872 17.1667 9.65903 15.3385 9.65903 13.0833C9.65903 10.8282 11.4872 9 13.7424 9C15.9975 9 17.8257 10.8282 17.8257 13.0833C17.8257 15.3385 15.9975 17.1667 13.7424 17.1667ZM13.7424 14.8333C14.7088 14.8333 15.4924 14.0498 15.4924 13.0833C15.4924 12.1168 14.7088 11.3333 13.7424 11.3333C12.7759 11.3333 11.9924 12.1168 11.9924 13.0833C11.9924 14.0498 12.7759 14.8333 13.7424 14.8333Z" fill="#171717"/>
</g>
<defs>
<filter id="filter0_d_748_5937" x="-2" y="4" width="31.33" height="31.3301" filterUnits="userSpaceOnUse" color-interpolation-filters="sRGB">
<feFlood flood-opacity="0" result="BackgroundImageFix"/>
<feColorMatrix in="SourceAlpha" type="matrix" values="0 0 0 0 0 0 0 0 0 0 0 0 0 0 0 0 0 0 127 0" result="hardAlpha"/>
<feOffset dy="4"/>
<feGaussianBlur stdDeviation="2"/>
<feComposite in2="hardAlpha" operator="out"/>
<feColorMatrix type="matrix" values="0 0 0 0 0 0 0 0 0 0 0 0 0 0 0 0 0 0 0.25 0"/>
<feBlend mode="normal" in2="BackgroundImageFix" result="effect1_dropShadow_748_5937"/>
<feBlend mode="normal" in="SourceGraphic" in2="effect1_dropShadow_748_5937" result="shape"/>
</filter>
<clipPath id="clip0_748_5937">
<rect width="28" height="28" fill="white"/>
</clipPath>
</defs>
</svg>
