<svg width="28" height="28" viewBox="0 0 28 28" fill="none" xmlns="http://www.w3.org/2000/svg">
<path d="M14.0057 25.6698C7.5624 25.6698 2.33905 20.4465 2.33905 14.0032C2.33905 7.55989 7.5624 2.33655 14.0057 2.33655C20.449 2.33655 25.6724 7.55989 25.6724 14.0032C25.6724 20.4465 20.449 25.6698 14.0057 25.6698ZM14.0057 23.3365C19.1604 23.3365 23.3391 19.1578 23.3391 14.0032C23.3391 8.84855 19.1604 4.66988 14.0057 4.66988C8.85106 4.66988 4.67238 8.84855 4.67238 14.0032C4.67238 19.1578 8.85106 23.3365 14.0057 23.3365ZM14.0057 8.22851L19.7804 14.0032L14.0057 19.7779L8.23102 14.0032L14.0057 8.22851ZM14.0057 11.5283L11.5308 14.0032L14.0057 16.4781L16.4806 14.0032L14.0057 11.5283Z" fill="white" fill-opacity="0.5"/>
</svg>
