<svg width="48" height="48" fill="none" xmlns="http://www.w3.org/2000/svg"><g clip-path="url(#a)"><path d="M0 24a24 24 0 1 0 47.999 0A24 24 0 0 0 0 24Z" fill="#4DA2BD"/><path d="M15.657 22.509h6.913c.948 0 1.423.474 1.423 1.423 0 .95-.475 1.424-1.423 1.424h-6.913c-.948 0-1.423-.474-1.423-1.423v-.001c0-.949.475-1.423 1.423-1.423Z" fill="#fff"/><path d="m16.813 33.46 7.18-17.725 7.1 17.724s.614 2.17 2.213 1.744c1.33-.389.98-1.744.98-1.744L26.332 14.3c-.864-2.083-3.815-2.083-4.68 0l-7.958 19.16s-.327 1.675 1.33 1.802c1.297.085 1.79-1.802 1.79-1.802Z" fill="#fff"/></g><defs><clipPath id="a"><path fill="#fff" d="M0 0h48v48H0z"/></clipPath></defs></svg>