<svg width="48" height="48" fill="none" xmlns="http://www.w3.org/2000/svg"><g clip-path="url(#a)"><path d="M24 0c13.255 0 24 10.745 24 24S37.255 48 24 48 0 37.254 0 24C0 10.745 10.745 0 24 0Z" fill="#fff"/><path d="M25.522 17.82a2.171 2.171 0 1 0 2.15 3.774 2.171 2.171 0 0 0-2.15-3.774m-2.083-3.687a1.535 1.535 0 1 0 1.519 2.667 1.535 1.535 0 0 0-1.52-2.667m0 17.13a1.535 1.535 0 1 0 1.52 2.667 1.535 1.535 0 0 0-1.52-2.667m7.385-12.89a1.535 1.535 0 1 0 1.52 2.668 1.535 1.535 0 0 0-1.52-2.668ZM15.901 26.95a1.535 1.535 0 1 0 1.52 2.667 1.535 1.535 0 0 0-1.52-2.667m-.101-8.578a1.535 1.535 0 1 0 1.52 2.668 1.535 1.535 0 0 0-1.52-2.668Zm15.023 8.476a1.535 1.535 0 1 0 1.52 2.668 1.535 1.535 0 0 0-1.52-2.668Zm3.887-3.924a1.22 1.22 0 1 0 1.208 2.12 1.22 1.22 0 0 0-1.208-2.12Zm-22.485 0a1.22 1.22 0 1 0 1.207 2.12 1.22 1.22 0 0 0-1.207-2.12Zm16.37-8.627a1.22 1.22 0 1 0 2.44.045 1.22 1.22 0 0 0-2.44-.045Zm-11.487 19.33a1.221 1.221 0 1 0 2.442.044 1.221 1.221 0 0 0-2.442-.045Zm.674-18.288a1.22 1.22 0 1 0 1.22-2.114 1.22 1.22 0 0 0-1.22 2.114Zm11.359 19.405a1.22 1.22 0 0 0 1.22-2.114 1.22 1.22 0 0 0-1.22 2.114Zm-1.132-12.581a2.172 2.172 0 1 0 2.15 3.773 2.172 2.172 0 0 0-2.15-3.773Zm-2.487 4.344a2.171 2.171 0 1 0 2.15 3.773 2.171 2.171 0 0 0-2.15-3.773Zm-2.9-8.688a2.172 2.172 0 1 1-2.15 3.774 2.172 2.172 0 0 1 2.15-3.774m-2.487 4.344a2.172 2.172 0 1 1-2.15 3.773 2.172 2.172 0 0 1 2.15-3.773Zm2.487 4.344a2.172 2.172 0 1 1-2.15 3.773 2.172 2.172 0 0 1 2.15-3.773m2.39-16.197a.965.965 0 1 1-1.929 0 .965.965 0 0 1 1.93 0Zm0 27.281a.964.964 0 1 1-1.928 0 .964.964 0 0 1 1.929 0ZM12.676 16.36a.966.966 0 0 1 .118 1.604.965.965 0 1 1-.117-1.604Zm23.702 13.51a.965.965 0 1 1-.946 1.682.965.965 0 0 1 .946-1.682Zm-24.66-.007a.964.964 0 1 1 .982 1.66.964.964 0 0 1-.981-1.66Zm23.708-13.497a.965.965 0 1 1 .955 1.676.964.964 0 0 1-.954-1.676M17.17 10.92a.787.787 0 1 1-1.574 0 .787.787 0 0 1 1.575 0Zm15.374 26.088a.787.787 0 1 1-1.574 0 .787.787 0 0 1 1.574 0Zm-.436-25.42a.787.787 0 1 1-.766-1.375.787.787 0 0 1 .766 1.376ZM16.8 37.716a.787.787 0 1 1-.765-1.374.787.787 0 0 1 .766 1.374m22.014-13.112a.787.787 0 1 1 .795-1.358.787.787 0 0 1-.795 1.358Zm-30.28.081a.787.787 0 1 1 .795-1.359.787.787 0 0 1-.796 1.36" fill="#000"/></g><defs><clipPath id="a"><path fill="#fff" d="M0 0h48v48H0z"/></clipPath></defs></svg>