<svg width="42" height="42" viewBox="0 0 42 42" fill="none" xmlns="http://www.w3.org/2000/svg">
<g id="Frame" clip-path="url(#clip0_1044_20583)">
<path id="Vector" d="M0.0244562 21.0004C0.0244562 25.1535 1.25597 29.2132 3.56325 32.6663C5.87054 36.1194 9.14997 38.8107 12.9868 40.4C16.8237 41.9893 21.0457 42.4051 25.1189 41.5949C29.1921 40.7847 32.9336 38.7849 35.8702 35.8482C38.8068 32.9116 40.8067 29.1701 41.6169 25.0969C42.4271 21.0237 42.0113 16.8017 40.422 12.9649C38.8327 9.128 36.1414 5.84856 32.6883 3.54128C29.2352 1.23399 25.1754 0.00248357 21.0224 0.00248357C18.2634 -0.00305114 15.5304 0.536299 12.9803 1.58959C10.4302 2.64287 8.11322 4.18936 6.16227 6.1403C4.21133 8.09125 2.66484 10.4082 1.61156 12.9583C0.558272 15.5084 0.0189215 18.2414 0.0244562 21.0004Z" fill="white"/>
<path id="Vector_2" d="M21.0224 0.752411C17.0181 0.756213 13.1046 1.94621 9.77593 4.17221C6.44729 6.3982 3.85269 9.56041 2.31965 13.2597C0.786597 16.959 0.383811 21.0295 1.16213 24.9575C1.94045 28.8855 3.86498 32.4949 6.69281 35.3301C10.5055 39.0713 15.6411 41.156 20.9827 41.1308C26.3244 41.1056 31.4401 38.9724 35.2172 35.1952C38.9944 31.4181 41.1275 26.3024 41.1528 20.9608C41.178 15.6191 39.0933 10.4835 35.352 6.67084C33.4735 4.78583 31.2397 3.29215 28.7801 2.27625C26.3204 1.26035 23.6836 0.742408 21.0224 0.752411ZM21.0224 0.00248357C25.1754 0.00248357 29.2352 1.23399 32.6883 3.54128C36.1414 5.84856 38.8327 9.128 40.422 12.9649C42.0113 16.8017 42.4271 21.0237 41.6169 25.0969C40.8067 29.1701 38.8068 32.9116 35.8702 35.8482C32.9336 38.7849 29.1921 40.7847 25.1189 41.5949C21.0457 42.4051 16.8237 41.9893 12.9868 40.4C9.14997 38.8107 5.87054 36.1194 3.56325 32.6663C1.25597 29.2132 0.0244562 25.1535 0.0244562 21.0004C0.0189215 18.2414 0.558272 15.5084 1.61156 12.9583C2.66484 10.4082 4.21133 8.09125 6.16227 6.1403C8.11322 4.18936 10.4302 2.64287 12.9803 1.58959C15.5304 0.536299 18.2634 -0.00305114 21.0224 0.00248357Z" fill="#DEDEDE"/>
<path id="Vector_3" d="M17.6882 41.7348C22.5391 42.5097 27.5082 41.5619 31.7333 39.0559C35.9584 36.55 39.1728 32.644 40.819 28.0156H17.6882V41.7348Z" fill="#231815"/>
<path id="Vector_4" d="M17.6882 14.01H40.828C39.186 9.37543 35.9719 5.46275 31.7445 2.95199C27.5171 0.441227 22.5435 -0.508879 17.6882 0.266806V14.01Z" fill="#009C42"/>
<path id="Vector_5" d="M17.6882 14.0098V0.266602C12.7563 1.05495 8.26689 3.57546 5.02591 7.37564C1.78493 11.1758 0.00463867 16.0068 0.00463867 21.0013C0.00463867 25.9959 1.78493 30.8269 5.02591 34.627C8.26689 38.4272 12.7563 40.9477 17.6882 41.7361V14.0098Z" fill="#CC303C"/>
</g>
<defs>
<clipPath id="clip0_1044_20583">
<rect width="42" height="42" fill="white"/>
</clipPath>
</defs>
</svg>
