<svg width="48" height="48" fill="none" xmlns="http://www.w3.org/2000/svg"><g clip-path="url(#a)"><path d="M24 0c13.255 0 24 10.745 24 24S37.255 48 24 48 0 37.254 0 24C0 10.745 10.745 0 24 0Z" fill="#3DB39E"/><path d="M36.331 19.501a28.833 28.833 0 0 0-3.198-.823c.373-1.111.681-2.188.897-3.196.783-3.676.386-6.092-1.15-6.985a2.568 2.568 0 0 0-1.314-.338c-.722 0-1.541.256-2.428.736-.927.574-2.118 1.45-2.917 2.163A28.926 28.926 0 0 0 24 13.355c-2.819-3.235-5.57-5.195-7.566-5.195-.488 0-.93.112-1.315.337-1.534.893-1.931 3.31-1.149 6.985.215 1.01.523 2.085.897 3.196-1.147.23-2.22.505-3.198.823-3.552 1.155-5.429 2.71-5.429 4.497 0 1.226.885 2.343 2.589 3.297 1.02.52 1.99.93 3.464 1.39a29.4 29.4 0 0 0 2.574.63 29.444 29.444 0 0 0-.896 3.196c-.783 3.678-.386 6.093 1.15 6.987.385.223.826.336 1.314.336 1.997 0 4.747-1.959 7.566-5.195 2.819 3.236 5.568 5.196 7.565 5.196.488 0 .93-.113 1.314-.336 1.17-.68 1.677-2.246 1.507-4.576-.024-.414-.453-2.897-.65-3.624-.18-.667-.38-1.328-.603-1.982a28.67 28.67 0 0 0 3.198-.824c3.552-1.154 5.429-2.709 5.429-4.496 0-1.787-1.877-3.34-5.43-4.496Zm-9.407-7.534c.908-.786 1.502-1.234 2.863-2.12.686-.359 1.29-.544 1.78-.544.29 0 .533.06.748.183 1.022.596 1.248 2.748.607 5.757a28.688 28.688 0 0 1-.914 3.228 45.05 45.05 0 0 0-4.541-.521 45.412 45.412 0 0 0-2.723-3.713 27.793 27.793 0 0 1 2.18-2.27Zm1.388 14.54a55.25 55.25 0 0 1-1.48 2.433 51.858 51.858 0 0 1-5.664 0 52.835 52.835 0 0 1-2.827-4.947 53.21 53.21 0 0 1 2.827-4.937 52.365 52.365 0 0 1 5.665 0 53.811 53.811 0 0 1 2.826 4.937 52.38 52.38 0 0 1-1.347 2.514Zm1.969-1.237c.486 1.035.932 2.09 1.336 3.16-1.12.182-2.248.32-3.38.413a51.775 51.775 0 0 0 2.044-3.573Zm-4.232 4.848A43.482 43.482 0 0 1 24 32.871a42.84 42.84 0 0 1-2.048-2.753 53.235 53.235 0 0 0 4.097 0Zm-6.286-1.275c-1.195-.1-2.325-.24-3.38-.414a43.56 43.56 0 0 1 1.337-3.159 50.93 50.93 0 0 0 2.043 3.573Zm-2.04-6.123a44.057 44.057 0 0 1-1.338-3.154c1.12-.183 2.247-.32 3.378-.413a55.3 55.3 0 0 0-1.057 1.765 55.735 55.735 0 0 0-.983 1.802Zm4.229-4.843A43.122 43.122 0 0 1 24 15.123c.72.89 1.403 1.81 2.05 2.754a53.462 53.462 0 0 0-4.098 0Zm7.342 3.04a56.278 56.278 0 0 0-1.056-1.765c1.194.1 2.323.24 3.378.413a44.4 44.4 0 0 1-1.338 3.153 55.053 55.053 0 0 0-.984-1.8ZM15.08 15.243c-.642-3.01-.415-5.162.607-5.757a1.45 1.45 0 0 1 .748-.184c1.496 0 4.024 1.698 6.822 4.934a45.712 45.712 0 0 0-2.72 3.712 45.147 45.147 0 0 0-4.542.522 28.56 28.56 0 0 1-.915-3.227Zm-2.552 12.315c-1.34-.48-1.934-.71-3.095-1.248-1.325-.732-2.06-1.537-2.06-2.313 0-1.573 3.002-3.264 7.876-4.227a45.83 45.83 0 0 0 1.821 4.227 45.696 45.696 0 0 0-1.821 4.227c-.918-.178-1.825-.4-2.721-.666Zm3.907 11.135c-.29 0-.534-.06-.748-.184-1.351-.787-1.305-4.25.306-8.986 1.504.251 3.02.426 4.543.523a45.814 45.814 0 0 0 2.721 3.712c-2.799 3.237-5.327 4.934-6.822 4.934ZM32.63 31.57c.106.53.475 2.178.619 3.488.12 1.794-.2 3.022-.936 3.451a1.45 1.45 0 0 1-.747.184c-1.495 0-4.023-1.698-6.822-4.934a45.775 45.775 0 0 0 2.721-3.712 45.087 45.087 0 0 0 4.543-.523c.231.675.439 1.357.622 2.046Zm.122-3.345a46.07 46.07 0 0 0-1.822-4.227 46.19 46.19 0 0 0 1.822-4.227c4.874.962 7.875 2.653 7.875 4.227 0 1.573-3 3.264-7.875 4.227Z" fill="#FDFEFE"/><path d="M20.4 9.12a1.68 1.68 0 1 0 0 3.36 1.68 1.68 0 0 0 0-3.36Zm-5.76 23.04a1.68 1.68 0 1 0 0 3.36 1.68 1.68 0 0 0 0-3.36Zm22.56-6.72a1.68 1.68 0 1 0 0 3.36 1.68 1.68 0 0 0 0-3.36Z" fill="#E2574C"/><path d="M20.88 9.6a.72.72 0 1 0 0 1.441.72.72 0 0 0 0-1.44Zm-5.76 23.041a.72.72 0 1 0 0 1.44.72.72 0 0 0 0-1.44Zm22.56-6.72a.72.72 0 0 0 0 1.44.72.72 0 0 0 0-1.44Z" fill="#EB9891"/><path d="M24 20.64a3.362 3.362 0 0 1 1.286 6.464 3.358 3.358 0 0 1-3.662-.728A3.36 3.36 0 0 1 24 20.64Z" fill="#324D5B"/><path d="M24.96 22.08a.96.96 0 1 1 .001 1.92.96.96 0 0 1-.001-1.92Z" fill="#6E818B"/><path d="M24.48 26.88a3.36 3.36 0 0 1-2.602-5.483 3.348 3.348 0 0 0-1.238 2.602 3.36 3.36 0 0 0 5.963 2.123 3.339 3.339 0 0 1-2.123.758Z" fill="#2D4552"/><path d="M20.4 9.12a1.68 1.68 0 1 1 0 3.36 1.68 1.68 0 0 1 0-3.36Zm16.8 16.32a1.68 1.68 0 1 1 0 3.36 1.68 1.68 0 0 1 0-3.36Zm-22.56 6.72a1.68 1.68 0 1 1 0 3.36 1.68 1.68 0 0 1 0-3.36m5.76-24a2.643 2.643 0 0 0-2.64 2.64 2.643 2.643 0 0 0 2.64 2.64 2.643 2.643 0 0 0 2.64-2.64 2.643 2.643 0 0 0-2.64-2.64Zm16.8 16.32a2.643 2.643 0 0 0-2.64 2.64 2.643 2.643 0 0 0 2.64 2.64 2.643 2.643 0 0 0 2.64-2.64 2.644 2.644 0 0 0-2.64-2.64ZM14.64 31.2A2.643 2.643 0 0 0 12 33.84a2.643 2.643 0 0 0 2.64 2.64 2.643 2.643 0 0 0 2.64-2.64 2.643 2.643 0 0 0-2.64-2.64Z" fill="#FDFEFE"/><path d="M20.88 12a1.68 1.68 0 0 1-1.402-2.602 1.676 1.676 0 0 0-.266 2.59 1.679 1.679 0 0 0 2.59-.265 1.663 1.663 0 0 1-.922.277Zm-5.76 23.041a1.68 1.68 0 0 1-1.402-2.603 1.676 1.676 0 0 0-.266 2.59 1.68 1.68 0 0 0 2.59-.265 1.667 1.667 0 0 1-.922.278Zm22.56-6.72a1.679 1.679 0 0 1-1.402-2.603 1.678 1.678 0 1 0 2.325 2.325 1.67 1.67 0 0 1-.923.278Z" fill="#CB4E44"/></g><defs><clipPath id="a"><path fill="#fff" d="M0 0h48v48H0z"/></clipPath></defs></svg>