<svg width="42" height="42" viewBox="0 0 42 42" fill="none" xmlns="http://www.w3.org/2000/svg">
<g id="Frame" clip-path="url(#clip0_1044_20589)">
<path id="Vector" d="M41.8107 20.9058C41.8107 32.4532 32.4515 41.8117 20.9073 41.8117C9.36107 41.8117 0.000244141 32.4534 0.000244141 20.9058C0.000244141 9.36182 9.36107 0 20.9073 0C32.4515 0 41.8107 9.36202 41.8107 20.9058Z" fill="black"/>
<path id="Vector_2" d="M24.6279 0.61724V2.66488L17.3802 7.49648H24.6279V13.6851H17.3525L24.6279 18.5351V20.9057H21.0519L12.2502 15.04V20.9055H6.06179V15.04L0.378133 18.828C0.30857 19.5182 0.273831 20.2115 0.274049 20.9053C0.274049 32.2999 9.51239 41.5361 20.9064 41.5361C32.2987 41.5361 41.5352 32.2999 41.5352 20.9053C41.5352 10.7836 34.2434 2.37005 24.6281 0.61724H24.6279ZM11.2771 35.7632L9.1566 33.5343L7.03792 35.7632L7.45822 32.7163L4.39565 32.4503L7.0397 30.8799L5.33736 28.3178L8.21649 29.4071L9.1566 26.4795L10.1005 29.4071L12.9768 28.3178L11.2745 30.8799L13.9187 32.4503L10.8572 32.7163L11.2775 35.7632H11.2771ZM33.4082 20.5638L32.3713 19.4729L31.3344 20.5638L31.5455 19.0726L30.0442 18.9416L31.3392 18.1748L30.5077 16.9232L31.9106 17.4565L32.3713 16.0238L32.8331 17.4565L34.2367 16.9232L33.4062 18.1748L34.7023 18.9416L33.1998 19.0726L33.4082 20.5638ZM20.906 0.274911C17.9168 0.272201 14.9629 0.921347 12.2502 2.17711V6.15803L21.073 0.279066C21.0156 0.278077 20.9614 0.274911 20.906 0.274911Z" fill="#004990"/>
<path id="Vector_3" d="M15.4466 8.78519H24.628V7.49641H17.3803L15.4466 8.78519ZM10.9611 14.1809V20.9054H12.2505V15.0399L10.9611 14.1809ZM17.3526 13.6851H24.628V12.3957H15.4189L17.3526 13.6851ZM12.2505 6.15816V2.17725C11.8138 2.3799 11.3838 2.59656 10.9611 2.82688V7.01854L12.2505 6.15816ZM7.35202 5.35913C6.99544 5.6692 6.64519 5.98897 6.31058 6.32458L7.35202 7.01854V5.35913ZM2.1126 12.3957C2.00246 12.6377 1.89704 12.8818 1.79639 13.1278L2.89421 12.3957H2.1126ZM6.06165 15.0399V20.9054H7.35202V14.1809L6.06165 15.0399Z" fill="white"/>
<path id="Vector_4" d="M15.4189 12.396H10.9611V14.1812L12.2504 15.04L21.052 20.9057H24.6277V20.8468L13.8625 13.6853H16.3123L24.6281 19.2174V18.5353L17.3525 13.6853L15.4189 12.396ZM7.35195 7.01883L6.31052 6.32487C5.54651 7.08611 4.84978 7.91087 4.21479 8.78549H7.35195V7.01883ZM10.9611 7.01883V8.78549H15.4466L17.3802 7.49671L24.6279 2.66511V0.617471C24.4941 0.592538 24.3633 0.56721 24.2288 0.545641L13.7765 7.49671H12.2502V6.88131L22.1263 0.314519C21.7761 0.293742 21.4239 0.282265 21.073 0.279297L12.2502 6.15826L10.9609 7.01883H10.9611ZM7.35195 14.1812V12.396H2.89415L1.79632 13.1281C1.40501 14.088 1.08735 15.0763 0.84611 16.0844L4.45343 13.6853H6.06159V14.2453L0.488544 17.9522C0.44516 18.2433 0.40828 18.5354 0.37793 18.8282L6.06159 15.04L7.35195 14.181V14.1812Z" fill="white"/>
<path id="Vector_5" d="M7.35197 12.3959V20.9057H10.9611V12.3959H24.6279V8.78546H10.9611V2.82715C9.67104 3.5399 8.4611 4.38882 7.35197 5.3594V8.78546H4.21481C3.39291 9.91421 2.68849 11.124 2.11255 12.3959H7.35197Z" fill="#EF3E42"/>
<path id="Vector_6" d="M13.8624 13.6855L24.628 20.8469V19.2176L16.312 13.6855H13.8624ZM12.2505 7.49684H13.7768L24.2287 0.545971C23.5325 0.432332 22.8309 0.355055 22.1266 0.314453L12.2505 6.88164V7.49684ZM6.06169 13.6855H4.45353L0.846213 16.0844C0.699784 16.6978 0.579869 17.3195 0.488647 17.9525L6.06169 14.2455V13.6855Z" fill="#EF3E42"/>
<path id="Vector_7" d="M11.2743 30.88L12.9767 28.3179L10.1003 29.4072L9.15646 26.4796L8.21654 29.4072L5.33741 28.3179L7.03956 30.88L4.39551 32.4504L7.45807 32.7163L7.03778 35.7633L9.15646 33.5344L11.2773 35.7633L10.857 32.7163L13.9186 32.4504L11.2743 30.88ZM33.4062 18.1751L34.2367 16.9233L32.8332 17.4566L32.3713 16.0239L31.9107 17.4566L30.5077 16.9233L31.3392 18.1749L30.0443 18.9416L31.5456 19.0726L31.3345 20.5638L32.3713 19.4729L33.4082 20.5638L33.1999 19.0726L34.7021 18.9416L33.4062 18.1751Z" fill="white"/>
</g>
<defs>
<clipPath id="clip0_1044_20589">
<rect width="42" height="42" fill="white"/>
</clipPath>
</defs>
</svg>
