<svg width="48" height="48" fill="none" xmlns="http://www.w3.org/2000/svg"><g clip-path="url(#a)"><path d="M0 23.996a23.996 23.996 0 1 0 47.993.002A23.996 23.996 0 0 0 0 23.996Z" fill="#E84142"/><path d="M13.487 35.52c-.986 0-1.948.024-2.934 0-1.83-.023-2.417-.96-1.501-2.577 2.417-4.31 4.88-8.596 7.345-12.907 2.018-3.513 4.013-7.05 6.031-10.564 1.033-1.78 2.112-1.757 3.145.023a357.14 357.14 0 0 1 2.91 5.084c.986 1.78 1.01 3.583-.023 5.34a2326.298 2326.298 0 0 1-7.487 12.954c-1.009 1.71-2.534 2.6-4.529 2.624-1.01.023-1.971.023-2.957.023Z" fill="#FEFDFD"/><path d="M32.262 35.52c-1.526 0-3.05.024-4.576 0-1.62-.047-2.206-.984-1.409-2.413a403.755 403.755 0 0 1 4.694-8.105c.798-1.335 1.924-1.335 2.723 0a279.004 279.004 0 0 1 4.646 8.129c.751 1.335.165 2.319-1.384 2.366-1.573.047-3.122.023-4.694.023Z" fill="#FEFCFC"/></g><defs><clipPath id="a"><path fill="#fff" d="M0 0h48v48H0z"/></clipPath></defs></svg>