<svg width="48" height="48" fill="none" xmlns="http://www.w3.org/2000/svg"><g clip-path="url(#a)"><path d="M47.928 24c0 13.19-10.692 23.883-23.883 23.883C10.855 47.883.162 37.191.162 24 .162 10.81 10.855.117 24.045.117S47.928 10.81 47.928 24Z" fill="#8AC072"/><path d="M32.88 24.596a2.609 2.609 0 0 1 .175 2 2.605 2.605 0 0 1-1.292 1.539l-6.226 3.238-2.421-4.657 6.225-3.238a2.628 2.628 0 0 1 3.54 1.118m-5.54-8.986a2.607 2.607 0 0 1 1.538 1.292 2.629 2.629 0 0 1-1.117 3.54l-6.226 3.238-2.422-4.657 6.226-3.238a2.61 2.61 0 0 1 2-.175Zm1.03-3.264a6.009 6.009 0 0 0-4.611.402l-.824.429-2.013-3.872-2.96 1.539 2.014 3.871-2.525 1.314-2.014-3.872-.709.369-2.871 1.493 1.94 3.733-3.498 1.82 1.724 3.316 3.5-1.82 6.278 12.07-3.5 1.82 1.726 3.317 3.499-1.82 1.638 3.15.709-.369 2.871-1.493-1.711-3.29 2.532-1.317 1.711 3.29 2.947-1.533-1.711-3.29.83-.431a6.018 6.018 0 0 0 2.976-3.545 6.006 6.006 0 0 0-.402-4.61 6.026 6.026 0 0 0-3.632-2.997 6.029 6.029 0 0 0-.37-4.697 6.008 6.008 0 0 0-3.544-2.977" fill="#fff"/></g><defs><clipPath id="a"><path fill="#fff" d="M0 0h48v48H0z"/></clipPath></defs></svg>