<svg width="48" height="48" fill="none" xmlns="http://www.w3.org/2000/svg"><g clip-path="url(#a)"><path d="M24 0c13.255 0 24 10.745 24 24S37.255 48 24 48 0 37.254 0 24C0 10.745 10.745 0 24 0Z" fill="#CD9938"/><path d="M15.25 12.55 24 7.5l8.75 5.05-3.216 1.866L24 11.232l-5.532 3.183-3.217-1.864Zm17.5 6.37-3.216-1.867L24 20.238l-5.532-3.183-3.217 1.864v3.731l5.533 3.184v6.37L24 34.069l3.218-1.866v-6.369l5.531-3.184v-3.73Zm0 10.1v-3.732l-3.216 1.866v3.731l3.215-1.865Zm2.284 1.319L29.5 33.523v3.731l8.75-5.049V22.104l-3.218 1.866v6.369h.002Zm-3.219-14.604 3.217 1.866v3.73l3.218-1.866v-3.73l-3.218-1.866-3.215 1.866h-.002Zm-11.031 19.14v3.73L24 40.472l3.218-1.867v-3.731L24 36.739l-3.216-1.864Zm-5.533-5.855 3.217 1.865v-3.73l-3.217-1.867v3.732Zm5.533-13.285L24 17.601l3.218-1.866L24 13.869l-3.216 1.866Zm-7.818 1.866 3.219-1.866-3.219-1.866-3.216 1.866v3.73l3.216 1.866v-3.73Zm0 6.369L9.75 22.104v10.1l8.75 5.05v-3.729l-5.534-3.184V23.97Z" fill="#fff"/></g><defs><clipPath id="a"><path fill="#fff" d="M0 0h48v48H0z"/></clipPath></defs></svg>