<svg width="42" height="42" viewBox="0 0 42 42" fill="none" xmlns="http://www.w3.org/2000/svg">
<g id="Frame" clip-path="url(#clip0_1044_20646)">
<path id="Vector" d="M21 0C32.5983 0 42 9.40185 42 20.9999C42 32.5982 32.5983 42 21 42C9.40213 42 0 32.5981 0 20.9999C0 9.40189 9.40213 0 21 0Z" fill="#6DA544"/>
<path id="Vector_2" d="M20.9796 8.22998L38.3107 20.9998L20.9796 33.7709L3.64746 20.9998L20.9796 8.22998Z" fill="#FFDA44"/>
<path id="Vector_3" d="M20.9796 13.7026C25.0105 13.7026 28.2774 16.97 28.2774 21.0004C28.2774 25.031 25.0104 28.2985 20.9796 28.2985C16.9492 28.2985 13.6818 25.0309 13.6818 21.0004C13.6817 16.9701 16.9492 13.7027 20.9796 13.7027" fill="#F0F0F0"/>
<path id="Vector_4" d="M17.3303 20.544C16.0625 20.544 14.8376 20.7377 13.6844 21.0952C13.7359 25.0822 16.9813 28.2981 20.9795 28.2981C23.4522 28.2981 25.6353 27.066 26.9543 25.1865C24.697 22.3588 21.2213 20.544 17.3303 20.544ZM28.1412 22.3982C28.2311 21.9375 28.2764 21.4693 28.2767 21C28.2767 16.9695 25.0097 13.7021 20.9789 13.7021C17.9713 13.7021 15.3905 15.5214 14.2738 18.12C15.2798 17.912 16.3044 17.8073 17.3317 17.8076C21.5694 17.8076 25.4034 19.5698 28.1412 22.3982Z" fill="#0052B4"/>
</g>
<defs>
<clipPath id="clip0_1044_20646">
<rect width="42" height="42" fill="white"/>
</clipPath>
</defs>
</svg>
