<svg width="48" height="48" fill="none" xmlns="http://www.w3.org/2000/svg"><g clip-path="url(#a)"><path d="M.045 24.009a24 24 0 1 0 48 0 24 24 0 0 0-48 0Z" fill="#F7931A"/><path d="m30.588 24.108-.27-.072c2.309.578 4.685-.794 5.306-3.113a4.386 4.386 0 0 0-3.111-5.389l-1.952-.523 1.16-4.327-2.782-.746-1.16 4.328-2.23-.598 1.162-4.335-2.787-.746-1.161 4.335-5.106-1.368-.813 3.033 3.555.952-3.717 13.87-3.554-.952-.813 3.033 5.106 1.368-1.201 4.484 2.786.746 1.201-4.483 2.23.597-1.2 4.482 2.782.746 1.2-4.482 2.3.616a5.94 5.94 0 0 0 7.275-4.2c.849-3.169-1.038-6.407-4.206-7.256Zm-5.605-7.444 2.01.539 1.332.357c.54.145.983.429 1.33.833.61.66.87 1.62.622 2.547a2.722 2.722 0 0 1-1.813 1.896 2.61 2.61 0 0 1-1.568.056l-1.332-.357-2.01-.539 1.43-5.332Zm1.21 14.652a.44.44 0 0 1-.16-.022l-2.628-.704-2.009-.538 1.43-5.332 2.008.538 2.628.704c.057.016.096.026.15.061 1.374.43 2.18 1.91 1.801 3.32-.378 1.41-1.814 2.288-3.22 1.973Z" fill="#fff"/></g><defs><clipPath id="a"><path fill="#fff" d="M0 0h48v48H0z"/></clipPath></defs></svg>