<svg width="42" height="42" viewBox="0 0 42 42" fill="none" xmlns="http://www.w3.org/2000/svg">
<g id="Frame" clip-path="url(#clip0_1044_20608)">
<path id="Vector" d="M21 0C9.42858 0 0 9.42856 0 21C0 32.5714 9.42858 42 21 42C32.5714 42 42 32.5714 42 21C42 9.42856 32.7857 0 21 0Z" fill="#FAFAFA"/>
<path id="Vector_2" d="M31.2803 3V39C37.7077 35.4418 41.9927 28.7442 41.9927 21C42.2069 13.2559 37.7077 6.55817 31.2803 3.00005M28.9235 17.8605C26.1383 18.2791 25.9241 18.6977 25.9241 16.814C25.067 17.6512 23.9958 19.3256 23.3531 19.7442C22.9245 20.1628 22.7103 19.7442 22.9245 19.5349C22.9245 19.3256 24.4243 16.3954 24.4243 14.9303C22.9246 15.9768 22.2818 15.3489 20.7821 12C19.4966 15.1396 18.6396 15.7675 17.1398 14.9303C17.3541 16.6047 18.6396 19.3256 18.6396 19.5349C18.6396 19.7442 18.6396 20.1628 18.2111 19.7442C17.5683 19.3256 16.4971 17.4419 15.6401 16.814C15.8544 18.6977 15.4259 18.2791 12.6407 17.8605C12.8549 19.9535 13.7119 20.7907 11.9979 21.2093C16.0686 24.7675 16.2829 24.9767 14.7832 26.6512C17.9968 26.2325 19.9251 25.3953 19.9251 25.3953C20.1393 25.3953 20.1393 25.6047 20.1393 25.6047V30.4186H21.4248V25.6047C21.4248 25.3953 21.4248 25.186 21.6391 25.3953C21.6391 25.3953 23.3531 26.2325 26.7811 26.6512C25.2813 25.1861 25.4955 24.7675 29.5663 21.2093C28.0665 20.7907 28.7093 19.9535 28.9235 17.8605ZM10.7124 3V39C4.28493 35.4418 0 28.7442 0 21C0 13.2559 4.28493 6.55817 10.7124 3.00005" fill="#EB0000"/>
</g>
<defs>
<clipPath id="clip0_1044_20608">
<rect width="42" height="42" fill="white"/>
</clipPath>
</defs>
</svg>
