<svg width="42" height="42" viewBox="0 0 42 42" fill="none" xmlns="http://www.w3.org/2000/svg">
<g id="Frame 1618873321">
<g id="Group 1420071530">
<circle id="Ellipse 3915" cx="21" cy="21" r="21" fill="#E22D2D"/>
<g id="Mask group">
<g id="Mask group_2">
<mask id="mask0_1044_20429" style="mask-type:alpha" maskUnits="userSpaceOnUse" x="0" y="1" width="37" height="37">
<circle id="Ellipse 3916" cx="18.2" cy="19.5999" r="18.2" fill="#CE1126"/>
</mask>
<g mask="url(#mask0_1044_20429)">
<path id="Union" fill-rule="evenodd" clip-rule="evenodd" d="M24.7924 7.03517L24.2904 5.6001L23.7866 7.03553L22.1969 7.04674L23.3957 7.99405L22.9438 9.56002L24.2904 8.6391L25.637 9.56002L25.1539 8.01466L26.3821 7.04638L24.7924 7.03517ZM30.8164 12.9092L30.3143 11.4742L29.8105 12.9096L28.2209 12.9208L29.4196 13.8681L28.9677 15.4341L30.3143 14.5132L31.6609 15.4341L31.1778 13.8887L32.406 12.9204L30.8164 12.9092ZM30.6086 21.4347L30.1066 19.9996L29.6027 21.4351L28.0131 21.4463L29.2118 22.3936L28.76 23.9596L30.1066 23.0386L31.4532 23.9596L30.97 22.4142L32.1982 21.4459L30.6086 21.4347ZM24.7924 27.2571L24.2904 25.822L23.7866 27.2574L22.1969 27.2686L23.3957 28.216L22.9438 29.7819L24.2904 28.861L25.637 29.7819L25.1539 28.2366L26.3821 27.2683L24.7924 27.2571ZM12.2431 12.7586L10.7115 8.1458L9.18031 12.7579L4.33105 12.7948L7.98171 15.8399L6.60379 20.8731L10.7115 17.9135L14.8193 20.8731L13.3454 15.9063L17.0924 12.7955L12.2431 12.7586Z" fill="#FCD116"/>
</g>
</g>
</g>
</g>
</g>
</svg>
