<svg width="24" height="24" viewBox="0 0 24 24" fill="none" xmlns="http://www.w3.org/2000/svg"><path d="M10.18 21.609c0 .442-.326.81-.749.879v.012h-6.35c-.88 0-1.604-.748-1.604-1.674V1.686c0-.921.719-1.674 1.605-1.674h17.813c.882 0 1.605.747 1.605 1.674v8.8c0 .47-.385.855-.856.855a.858.858 0 0 1-.855-.855V6.285c0-.018 0-.034.002-.051l-.038-4.465-17.483.046-.054 18.931 1.756-.008a.885.885 0 0 1 .187-.02h4.272v.012c.423.068.75.437.75.879zM6.21 4.406a.94.94 0 0 0-.937.937.94.94 0 0 0 .938.938h11.625a.94.94 0 0 0 .937-.938.94.94 0 0 0-.937-.937H6.21zm6.634 5.858a.94.94 0 0 0-.938-.938H6.193a.94.94 0 0 0-.937.938.94.94 0 0 0 .937.937h5.713a.94.94 0 0 0 .938-.937zm-2.625 3.986H6.182a.94.94 0 0 0-.938.937.94.94 0 0 0 .938.938h4.037a.94.94 0 0 0 .937-.938.94.94 0 0 0-.937-.938zm5.55-.445-3.546 3.674a.81.81 0 0 0 0 1.12l4.944 5.16c.3.313.774.313 1.049 0l.524-.547-2.647-2.762a.26.26 0 0 1 0-.365c.1-.104.25-.104.35 0l2.647 2.762.699-.73-3.521-3.7a.26.26 0 0 1 0-.365c.1-.104.25-.104.35 0l3.545 3.7.7-.729-2.647-2.788a.26.26 0 0 1 0-.365c.1-.104.25-.104.35 0l2.67 2.762.974-1.094-5.393-5.733c-.3-.313-.774-.313-1.049 0zm7.99 2.97-2.123-2.215c-.3-.313-.774-.313-1.048 0l-1.199 1.277 3.171 3.336 1.199-1.251c.3-.339.3-.834 0-1.147z" fill="#36394C"/></svg>