<svg width="32" height="32" fill="none" xmlns="http://www.w3.org/2000/svg"><g clip-path="url(#a)"><path d="M31.864 15.957c0 8.793-7.128 15.92-15.92 15.92-8.793 0-15.92-7.127-15.92-15.92C.023 7.165 7.15.037 15.943.037c8.792 0 15.92 7.128 15.92 15.92Z" fill="#0986D3"/><path d="m26.38 13.78-2.261 6.551a3.414 3.414 0 0 1-3.226 2.3H7.04l1.067-3.433h12.77l2.25-6.512H10.128l1.067-3.434h11.96a3.42 3.42 0 0 1 3.377 2.927 3.414 3.414 0 0 1-.152 1.601Z" fill="#fff"/><path d="M15.585 14.225v.217l-.998 3.217H5.319l1.067-3.434h9.2Z" fill="#fff"/></g><defs><clipPath id="a"><path fill="#fff" d="M0 0h32v32H0z"/></clipPath></defs></svg>