<svg width="42" height="42" viewBox="0 0 42 42" fill="none" xmlns="http://www.w3.org/2000/svg">
<g id="Frame" clip-path="url(#clip0_1044_20815)">
<path id="Vector" d="M20.9998 0C32.5978 0 42 9.40201 42 21C42 32.5982 32.5978 42 20.9998 42C9.40187 42 0 32.5982 0 21C0 9.40201 9.40187 0 20.9998 0Z" fill="#F0F0F0"/>
<path id="Vector_2" d="M16.3965 18.2609H42C40.646 7.9566 31.7611 0 21.0006 0C19.4183 0 17.8789 0.172077 16.3965 0.498842L16.3965 18.2609ZM10.8714 18.2604V2.55279C5.0567 5.699 0.893283 11.4699 0 18.2604H10.8714ZM10.8714 23.739H0C0.893283 30.5295 5.05674 36.3004 10.8714 39.4478V23.739ZM16.3965 23.739V41.5012C17.8789 41.828 19.4184 42 21.0007 42C31.7612 42 40.6461 34.0434 42 23.739H16.3965Z" fill="#D80027"/>
</g>
<defs>
<clipPath id="clip0_1044_20815">
<rect width="42" height="42" fill="white"/>
</clipPath>
</defs>
</svg>
