<svg width="42" height="42" viewBox="0 0 42 42" fill="none" xmlns="http://www.w3.org/2000/svg">
<g id="Frame" clip-path="url(#clip0_1044_20389)">
<path id="Vector" d="M1.38147 13.5005C2.90007 9.52884 5.58864 6.11179 9.09151 3.70138C12.5944 1.29096 16.7465 0.000766337 20.9986 0.00146584C25.2512 0.000158792 29.4039 1.29007 32.9074 3.70053C36.4109 6.11098 39.0999 9.52837 40.6187 13.5005H1.38147Z" fill="#040000"/>
<path id="Vector_2" d="M1.37988 28.4994C0.465735 26.1049 -0.00146211 23.563 0.00147929 21C-0.00152999 18.4369 0.465669 15.895 1.37988 13.5005H40.6186C41.5328 15.895 42 18.4369 41.997 21C41.9999 23.563 41.5327 26.1049 40.6186 28.4994H1.37988Z" fill="#CB1428"/>
<path id="Vector_3" d="M1.37988 28.4995H40.6186C39.1 32.4712 36.4114 35.8882 32.9085 38.2986C29.4057 40.7091 25.2536 41.9992 21.0015 41.9985C16.7489 41.9991 12.5962 40.7089 9.09268 38.2986C5.58912 35.8883 2.89965 32.4713 1.37988 28.4995Z" fill="#F5D34B"/>
</g>
<defs>
<clipPath id="clip0_1044_20389">
<rect width="42" height="42" fill="white"/>
</clipPath>
</defs>
</svg>
