<svg width="48" height="48" fill="none" xmlns="http://www.w3.org/2000/svg"><g clip-path="url(#a)"><path d="M47.985 24.117c0 13.189-10.691 23.88-23.88 23.88-13.19 0-23.881-10.691-23.881-23.88 0-13.19 10.691-23.88 23.88-23.88 13.19 0 23.88 10.69 23.88 23.88Z" fill="#C3A723"/><path d="M26.568 32.255H21.29v-6.806h5.233v-2.746H21.29v-6.686h4.96s6.104 0 6.104 7.555c0 8.908-5.787 8.683-5.787 8.683m-.82-21.015h-9.313v11.463h-3.105v2.746h3.105v11.582h9.91s10.866.358 10.866-13.79c0-12-11.463-12-11.463-12Z" fill="#fff"/></g><defs><clipPath id="a"><path fill="#fff" d="M0 0h48v48H0z"/></clipPath></defs></svg>