<svg width="32" height="32" viewBox="0 0 32 32" fill="none" xmlns="http://www.w3.org/2000/svg">
<g clip-path="url(#clip0_696_7409)">
<path d="M31.9898 16.0771C31.9898 24.8697 24.8623 31.9975 16.0694 31.9975C7.27693 31.9975 0.149048 24.8697 0.149048 16.0771C0.149048 7.2843 7.27693 0.156738 16.0694 0.156738C24.8623 0.156738 31.9898 7.2843 31.9898 16.0771Z" fill="#C3A723"/>
<path d="M17.7117 21.503H14.193V16.966H17.6821V15.1351H14.193V10.6777H17.4995C17.4995 10.6777 21.5693 10.6777 21.5693 15.7145C21.5693 21.6531 17.7116 21.5028 17.7116 21.5028M17.1647 7.49316H10.9558V15.135H8.88611V16.9658H10.9558V24.6872H17.5627C17.5627 24.6872 24.8065 24.926 24.8065 15.4932C24.8065 7.49316 17.1647 7.49316 17.1647 7.49316Z" fill="white"/>
</g>
<defs>
<clipPath id="clip0_696_7409">
<rect width="32" height="32" fill="white"/>
</clipPath>
</defs>
</svg>
