<svg width="48" height="48" fill="none" xmlns="http://www.w3.org/2000/svg"><g clip-path="url(#a)"><path d="M47.958 24c0 13.19-10.693 23.883-23.883 23.883S.192 37.19.192 23.998C.192 10.81 10.884.116 24.075.116 37.265.116 47.958 10.81 47.958 24Z" fill="#4A4E57"/><path d="m14.925 18.073 1.868 5.76-5.22 9.178 3.352-14.938Zm16.431 5.76 1.868-5.76 3.352 14.938-5.22-9.177Zm-.432 1.332 6.216 10.93-12.145 7.354 5.93-18.284ZM23.155 43.45l-12.146-7.354 6.216-10.93 5.93 18.285Zm.92-30.326 6.157 10.826-6.157 18.986-6.158-18.986 6.158-10.827Zm-.517-1.183-6.073 10.677-2.078-6.41 8.15-11.227v6.96Zm1.034-6.96 8.15 11.228-2.078 6.409L24.59 11.94V4.98Zm13.75 31.183-4.522-20.16a.517.517 0 0 0-.086-.19l-9.24-12.729a.517.517 0 0 0-.837 0l-9.24 12.728a.517.517 0 0 0-.086.19l-4.523 20.16a.518.518 0 0 0 .237.555l13.763 8.335.019.01a.474.474 0 0 0 .07.032l.027.01a.742.742 0 0 0 .05.012l.025.005a.56.56 0 0 0 .153 0l.025-.006a.495.495 0 0 0 .05-.011l.027-.01a.508.508 0 0 0 .044-.018l.027-.014.018-.01 13.764-8.335a.517.517 0 0 0 .236-.555Z" fill="#fff"/></g><defs><clipPath id="a"><path fill="#fff" d="M0 0h48v48H0z"/></clipPath></defs></svg>