<svg width="48" height="48" viewBox="0 0 48 48" fill="none" xmlns="http://www.w3.org/2000/svg">
<g clip-path="url(#clip0_1168_4674)">
<path d="M47.957 23.9919C47.957 37.1812 37.2657 47.8725 24.0764 47.8725C10.8876 47.8725 0.195801 37.1812 0.195801 23.9919C0.195801 10.8029 10.8876 0.111328 24.0764 0.111328C37.2657 0.111328 47.957 10.8029 47.957 23.9919Z" fill="#659172"/>
<path d="M14.7312 26.8906L23.9299 31.4965V38.9027L14.7312 26.8906ZM33.7235 26.8906L24.492 38.9029V31.4965L33.7235 26.8906Z" fill="white"/>
<path d="M34.3458 21.3397L24.1979 5.28516L13.7571 21.3397L24.1979 17.0117L34.3458 21.3397ZM14.168 25.762L24.3159 41.4802L34.7568 25.762L24.3159 32.0111L14.168 25.762Z" fill="white"/>
<path d="M34.7566 23.698L24.1976 19.2988L13.7567 23.698L24.1976 29.9511L34.7566 23.698Z" fill="white"/>
</g>
<defs>
<clipPath id="clip0_1168_4674">
<rect width="48" height="48" fill="white"/>
</clipPath>
</defs>
</svg>
