<svg width="48" height="48" fill="none" xmlns="http://www.w3.org/2000/svg"><g clip-path="url(#a)"><path d="M47.957 23.992c0 13.19-10.691 23.88-23.88 23.88-13.19 0-23.881-10.69-23.881-23.88S10.888.112 24.076.112c13.19 0 23.881 10.69 23.881 23.88Z" fill="#659172"/><path d="m14.731 26.89 9.199 4.607v7.406l-9.2-12.013Zm18.992 0-9.231 12.013v-7.406l9.232-4.606Z" fill="#fff"/><path d="M34.346 21.34 24.198 5.285 13.758 21.34l10.44-4.328 10.148 4.328Zm-20.178 4.422L24.316 41.48l10.44-15.718-10.44 6.25-10.148-6.25Z" fill="#fff"/><path d="m34.757 23.698-10.56-4.4-10.44 4.4 10.44 6.253 10.56-6.253Z" fill="#fff"/></g><defs><clipPath id="a"><path fill="#fff" d="M0 0h48v48H0z"/></clipPath></defs></svg>