<svg width="42" height="42" viewBox="0 0 42 42" fill="none" xmlns="http://www.w3.org/2000/svg">
<g id="Frame" clip-path="url(#clip0_1044_20578)">
<path id="Vector" d="M21 42C9.4017 42 -4.92188e-08 32.5983 0 21C4.92188e-08 9.4017 9.4017 0 21 0C32.5983 0 42 9.4017 42 21C42 32.5983 32.5983 42 21 42ZM16.905 18.9C17.0869 18.0068 17.4983 17.1764 18.0985 16.4904C18.6988 15.8045 19.4674 15.2866 20.3285 14.9878C21.1897 14.689 22.1138 14.6196 23.01 14.7864C23.9061 14.9532 24.7434 15.3504 25.4394 15.939L29.0094 13.5597C27.7828 12.2236 26.1976 11.2687 24.443 10.8091C22.6884 10.3494 20.8387 10.4044 19.1145 10.9674C17.3903 11.5305 15.8646 12.5779 14.7195 13.9844C13.5745 15.391 12.8583 17.0975 12.6567 18.9H10.5V23.1H12.6567C12.858 24.903 13.574 26.6099 14.7192 28.0169C15.8645 29.424 17.3905 30.4716 19.1151 31.0347C20.8396 31.5978 22.6899 31.6526 24.4447 31.1926C26.1996 30.7325 27.785 29.7771 29.0115 28.4403L25.4394 26.0589C24.7434 26.6475 23.9061 27.0447 23.01 27.2115C22.1138 27.3783 21.1897 27.3089 20.3285 27.0101C19.4674 26.7113 18.6988 26.1934 18.0985 25.5075C17.4983 24.8215 17.0869 23.9911 16.905 23.0979H27.3V18.8979H16.905V18.9Z" fill="#3C74E4"/>
</g>
<defs>
<clipPath id="clip0_1044_20578">
<rect width="42" height="42" fill="white"/>
</clipPath>
</defs>
</svg>
