<svg width="42" height="42" viewBox="0 0 42 42" fill="none" xmlns="http://www.w3.org/2000/svg">
<g id="Frame" clip-path="url(#clip0_1044_20315)">
<path id="Vector" d="M1.60042 29.0537H40.4014C39.9324 30.1824 39.3689 31.2622 38.7161 32.2807H3.28567C2.63467 31.2622 2.06942 30.1824 1.60042 29.0537ZM5.81792 35.5077H36.1839C35.0082 36.7386 33.6878 37.8227 32.2516 38.7364H9.74842C8.31224 37.8227 6.99189 36.7386 5.81617 35.5077H5.81792ZM0.0604248 22.5927H41.9414C41.8591 23.6952 41.6911 24.7715 41.4461 25.8197H0.555674C0.306968 24.7585 0.141383 23.6796 0.0604248 22.5927ZM9.82017 3.22021H32.1834C33.6293 4.13152 34.9591 5.21512 36.1436 6.44721H5.85992C7.04443 5.21512 8.37426 4.13152 9.82017 3.22021ZM3.31367 9.67771H38.6881C39.3444 10.698 39.9131 11.7795 40.3856 12.9117H1.61617C2.08867 11.7795 2.65742 10.698 3.31367 9.67771ZM0.567924 16.13H41.4339C41.6824 17.1782 41.8539 18.2562 41.9379 19.357H0.0639248C0.149675 18.2545 0.319425 17.1782 0.567924 16.13Z" fill="white"/>
<path id="Vector_2" d="M0.557391 25.8265H41.4444C41.1819 26.9378 40.8319 28.0175 40.4014 29.0535H1.60039C1.16563 28.008 0.816806 26.9287 0.557391 25.8265ZM9.75013 38.7363H32.2534C29.2518 40.6455 25.8122 41.7563 22.2609 41.9632H19.7444C16.193 41.7563 12.7535 40.6455 9.75188 38.7363H9.75013ZM3.28039 32.2735H38.7214C37.9829 33.432 37.1341 34.5135 36.1909 35.5005H5.81089C4.86457 34.5096 4.01706 33.4288 3.28039 32.2735ZM1.61614 12.9098H40.3856C40.8196 13.9458 41.1714 15.0238 41.4356 16.1368H0.566141C0.83039 15.0238 1.18214 13.9458 1.61614 12.9098ZM5.85989 6.44703H36.1419C37.0921 7.43578 37.9444 8.51727 38.6881 9.67577H3.31364C4.05564 8.51727 4.90964 7.43578 5.85989 6.44703ZM0.0638909 19.3638H41.9379C42.0207 20.4384 42.0219 21.5177 41.9414 22.5925H0.0603909C-0.0201426 21.5177 -0.0189726 20.4384 0.0638909 19.3638ZM32.1816 3.22003H9.81838C13.1659 1.1098 17.0437 -0.0068087 21.0009 3.12365e-05C25.1099 3.12365e-05 28.9441 1.17953 32.1816 3.22003Z" fill="#BF0A30"/>
<path id="Vector_3" d="M0.0621088 22.6275C0.020944 22.086 0.000512412 21.5431 0.000858824 21C0.000858824 9.40274 9.4036 0 21.0008 0C21.7096 0 22.4096 0.035 23.1008 0.105V22.6275H0.0621088Z" fill="#002868"/>
<path id="Vector_4" d="M0.00260446 21.2748C0.00138785 21.143 0.00138785 21.0112 0.00260446 20.8793V20.8741C0.00260446 20.7603 0.00260446 20.6466 0.00610449 20.5346H0.105854L0.286104 20.0096L0.452354 20.5346H1.01235L0.555604 20.8741L0.728854 21.3991L0.286104 21.0666L0.000854492 21.2766L0.00260446 21.2748ZM0.457604 16.6198C0.504854 16.3976 0.555604 16.1771 0.609854 15.9566H1.01585L0.559104 16.2821L0.732354 16.8228L0.461104 16.6181L0.457604 16.6198ZM12.2578 1.90235C12.4678 1.80435 12.6813 1.70985 12.8948 1.62235L12.9333 1.73785H13.4881L13.0436 2.07035L13.2098 2.6041L12.7601 2.2646L12.3173 2.6041L12.4836 2.07035L12.2561 1.9006L12.2578 1.90235ZM16.9233 1.2041L17.0896 1.7361H17.6496L17.2068 2.0686L17.3731 2.60235L16.9303 2.26285L16.4718 2.60235L16.6468 2.0686L16.2023 1.7361H16.7571L16.9233 1.2076V1.2041ZM16.9233 5.89935L17.0896 6.4331H17.6496L17.2068 6.7656L17.3731 7.2976L16.9303 6.9651L16.4718 7.2976L16.6468 6.7656L16.2023 6.4331H16.7571L16.9233 5.89935ZM16.9233 10.6086L17.0896 11.1423H17.6496L17.2068 11.4748L17.3731 12.0068L16.9303 11.6743L16.4718 12.0068L16.6468 11.4748L16.2023 11.1423H16.7571L16.9233 10.6086ZM16.9233 15.4158L17.0896 15.9478H17.6496L17.2068 16.2733L17.3731 16.8141L16.9303 16.4816L16.4718 16.8141L16.6468 16.2733L16.2023 15.9478H16.7571L16.9233 15.4158ZM16.9233 20.0061L17.0896 20.5328H17.6496L17.2068 20.8723L17.3731 21.3973L16.9303 21.0648L16.4718 21.3973L16.6468 20.8723L16.2023 20.5328H16.7571L16.9233 20.0078V20.0061ZM12.7583 5.9011L12.9316 6.43485H13.4863L13.0418 6.76735L13.2081 7.29935L12.7583 6.96685L12.3156 7.29935L12.4818 6.76735L12.0373 6.43485H12.6008L12.7601 5.9011H12.7583ZM12.7583 10.6103L12.9316 11.1441H13.4863L13.0418 11.4766L13.2081 12.0086L12.7583 11.6761L12.3156 12.0086L12.4818 11.4766L12.0373 11.1441H12.6008L12.7601 10.6103H12.7583ZM12.7583 15.4176L12.9316 15.9496H13.4863L13.0418 16.2751L13.2081 16.8158L12.7583 16.4833L12.3156 16.8158L12.4818 16.2751L12.0373 15.9496H12.6008L12.7601 15.4176H12.7583ZM12.7583 20.0078L12.9316 20.5346H13.4863L13.0418 20.8741L13.2081 21.3991L12.7583 21.0666L12.3156 21.3991L12.4818 20.8741L12.0373 20.5346H12.6008L12.7601 20.0096L12.7583 20.0078ZM8.6056 5.9011L8.77185 6.43485H9.32485L8.8821 6.76735L9.05535 7.29935L8.6056 6.96685L8.1471 7.29935L8.3221 6.76735L7.8636 6.43485H8.4236L8.6056 5.9011ZM8.6056 10.6103L8.77185 11.1441H9.32485L8.8821 11.4766L9.05535 12.0086L8.6056 11.6761L8.1471 12.0086L8.3221 11.4766L7.8636 11.1441H8.4236L8.6056 10.6103ZM8.6056 15.4176L8.77185 15.9496H9.32485L8.8821 16.2751L9.05535 16.8158L8.6056 16.4833L8.1471 16.8158L8.3221 16.2751L7.8636 15.9496H8.4236L8.6056 15.4176ZM8.6056 20.0078L8.77185 20.5346H9.32485L8.8821 20.8741L9.05535 21.3991L8.6056 21.0666L8.1471 21.3991L8.3221 20.8741L7.8636 20.5346H8.4236L8.6056 20.0096V20.0078ZM4.44235 10.6103L4.6156 11.1441H5.1756L4.7206 11.4766L4.8921 12.0086L4.4371 11.6761L3.9926 12.0086L4.16585 11.4766L3.7091 11.1441H4.2691L4.4441 10.6103H4.44235ZM4.44235 15.4176L4.6156 15.9496H5.1756L4.7206 16.2751L4.8921 16.8158L4.4371 16.4833L3.9926 16.8158L4.16585 16.2751L3.7091 15.9496H4.2691L4.4441 15.4176H4.44235ZM4.44235 20.0078L4.6156 20.5346H5.1756L4.7206 20.8741L4.8921 21.3991L4.4371 21.0666L3.9926 21.3991L4.16585 20.8741L3.7091 20.5346H4.2691L4.4441 20.0096L4.44235 20.0078ZM19.0426 3.5526L19.2088 4.08635H19.7688L19.3261 4.41885L19.4923 4.9526L19.0426 4.6201L18.5841 4.9526L18.7591 4.41885L18.3146 4.08635H18.8693L19.0426 3.5526ZM19.0426 8.40709L19.2088 8.94084H19.7688L19.3261 9.27334L19.4923 9.80709L19.0426 9.4746L18.5841 9.80709L18.7591 9.27334L18.3146 8.94084H18.8693L19.0426 8.40709ZM19.0006 13.1583L19.1668 13.6921H19.7268L19.2841 14.0246L19.4503 14.5583L19.0076 14.2258L18.5578 14.5583L18.7241 14.0246L18.2796 13.6921H18.8343L19.0006 13.1583ZM18.9586 17.8623L19.1318 18.3943H19.6866L19.2351 18.7268L19.4013 19.2606L18.9586 18.9281L18.5088 19.2606L18.6751 18.7268L18.2323 18.3943H18.7853L18.9603 17.8623H18.9586ZM14.8811 3.5526L15.0456 4.08635H15.6056L15.1628 4.41885L15.3291 4.9526L14.8793 4.6201L14.4226 4.9526L14.5958 4.41885L14.1461 4.08635H14.6991L14.8793 3.5526H14.8811ZM14.8811 8.40709L15.0456 8.94084H15.6056L15.1628 9.27334L15.3291 9.80709L14.8793 9.4746L14.4226 9.80709L14.5958 9.27334L14.1461 8.94084H14.6991L14.8793 8.40709H14.8811ZM14.8356 13.1601L15.0106 13.6938H15.5636L15.1208 14.0263L15.2941 14.5601L14.8356 14.2276L14.3928 14.5601L14.5591 14.0263L14.1163 13.6938H14.6693L14.8356 13.1601ZM14.7953 17.8641L14.9686 18.3961H15.5216L15.0718 18.7286L15.2451 19.2623L14.7883 18.9298L14.3368 19.2623L14.5031 18.7286L14.0603 18.3961H14.6151L14.7953 17.8641ZM10.7248 3.38635L10.8963 3.9201H11.4511L11.0013 4.2526L11.1746 4.78635L10.7178 4.45385L10.2733 4.78635L10.4396 4.2526L9.98985 3.9201H10.5446L10.7248 3.38635ZM10.7248 8.24085L10.8963 8.77459H11.4511L11.0013 9.10709L11.1746 9.64084L10.7178 9.30834L10.2733 9.64084L10.4396 9.10709L9.98985 8.77459H10.5446L10.7248 8.24085ZM10.6828 12.9921L10.8561 13.5258H11.4091L10.9663 13.8583L11.1396 14.3921L10.6828 14.0596L10.2261 14.3921L10.3993 13.8583L9.94785 13.5258H10.5026L10.6828 12.9921ZM10.6408 17.6961L10.8141 18.2281H11.3688L10.9243 18.5536L11.0993 19.0943L10.6408 18.7618L10.1911 19.0943L10.3573 18.5536L9.9146 18.2281H10.4676L10.6426 17.6961H10.6408ZM6.56335 8.1866L6.73485 8.72035H7.29485L6.83985 9.05284L7.01135 9.58484L6.55635 9.25235L6.10485 9.58484L6.2781 9.05284L5.82135 8.72035H6.38135L6.5616 8.1866H6.56335ZM6.51785 12.9501L6.69285 13.4751H7.25285L6.7961 13.8076L6.96935 14.3413L6.51085 14.0088L6.0681 14.3413L6.23435 13.8076L5.7846 13.4751H6.3446L6.5196 12.9501H6.51785ZM6.4776 17.6453L6.65085 18.1791H7.21085L6.7541 18.5116L6.92735 19.0436L6.4706 18.7111L6.0261 19.0436L6.2011 18.5116L5.7426 18.1791H6.3026L6.4776 17.6453ZM2.35635 12.8678L2.5296 13.3998H3.0896L2.6346 13.7323L2.8061 14.2661L2.34935 13.9266L1.9066 14.2661L2.07285 13.7323L1.62135 13.3998H2.18135L2.35635 12.8661V12.8678ZM2.32135 17.5613L2.4876 18.0951H3.0476L2.5926 18.4276L2.7641 18.9613L2.31435 18.6288L1.8576 18.9613L2.03085 18.4276L1.5741 18.0951H2.1341L2.32135 17.5613ZM21.0848 1.2076L21.2511 1.7396H21.8111L21.3613 2.0721L21.5276 2.60585L21.0848 2.26635L20.6281 2.60585L20.8013 2.0721L20.3586 1.7396H20.9116L21.0848 1.2076ZM21.0848 5.90285L21.2511 6.4366H21.8111L21.3613 6.7691L21.5276 7.3011L21.0848 6.9686L20.6281 7.3011L20.8013 6.7691L20.3586 6.4366H20.9116L21.0848 5.90285ZM21.0848 10.6121L21.2511 11.1458H21.8111L21.3613 11.4783L21.5276 12.0103L21.0848 11.6778L20.6281 12.0103L20.8013 11.4783L20.3586 11.1458H20.9116L21.0848 10.6121ZM21.0848 15.4193L21.2511 15.9513H21.8111L21.3613 16.2768L21.5276 16.8176L21.0848 16.4851L20.6281 16.8176L20.8013 16.2768L20.3586 15.9513H20.9116L21.0848 15.4193ZM21.0848 20.0096L21.2511 20.5363H21.8111L21.3613 20.8758L21.5276 21.4008L21.0848 21.0683L20.6281 21.4008L20.8013 20.8758L20.3586 20.5363H20.9116L21.0848 20.0113V20.0096Z" fill="white"/>
</g>
<defs>
<clipPath id="clip0_1044_20315">
<rect width="42" height="42" fill="white"/>
</clipPath>
</defs>
</svg>
