<svg width="48" height="48" fill="none" xmlns="http://www.w3.org/2000/svg"><g clip-path="url(#a)"><path d="M24 0c13.255 0 24 10.745 24 24S37.255 48 24 48 0 37.254 0 24C0 10.745 10.745 0 24 0Z" fill="#3D47B3"/><path d="M28.728 31.053a1.866 1.866 0 0 0-1.328.544l-7.52 7.52a1.881 1.881 0 1 0 2.657 2.657l7.52-7.52a1.815 1.815 0 0 0 .554-1.299 1.911 1.911 0 0 0-.554-1.358 1.864 1.864 0 0 0-1.329-.544ZM19.353 13.8a8.473 8.473 0 1 0 8.473 8.473 8.483 8.483 0 0 0-8.473-8.473Zm13.008-2.18a2.507 2.507 0 1 0 .025 0h-.025Z" fill="#fff"/></g><defs><clipPath id="a"><path fill="#fff" d="M0 0h48v48H0z"/></clipPath></defs></svg>