<svg width="48" height="48" viewBox="0 0 48 48" fill="none" xmlns="http://www.w3.org/2000/svg">
<g clip-path="url(#clip0_1150_13408)">
<path d="M24.0004 0C37.2546 0 48.0004 10.7453 48.0004 24C48.0004 37.2547 37.2546 48 24.0004 48C10.7452 48 0.000366227 37.2542 0.000366227 24C-0.000113773 10.7453 10.7452 0 24.0004 0Z" fill="#3D47B3"/>
<path d="M28.7283 31.0527C28.4819 31.0512 28.2377 31.0984 28.0096 31.1918C27.7816 31.2851 27.5743 31.4228 27.3997 31.5967L19.8794 39.1171C19.6947 39.2892 19.5465 39.4968 19.4437 39.7274C19.341 39.958 19.2857 40.207 19.2813 40.4594C19.2768 40.7119 19.3233 40.9626 19.4178 41.1967C19.5124 41.4308 19.6531 41.6435 19.8317 41.822C20.0102 42.0005 20.2228 42.1413 20.457 42.2358C20.6911 42.3304 20.9418 42.3768 21.1942 42.3724C21.4467 42.3679 21.6956 42.3127 21.9263 42.2099C22.1569 42.1072 22.3645 41.959 22.5366 41.7743L30.0569 34.2539C30.2313 34.0855 30.3702 33.8838 30.4654 33.6607C30.5605 33.4377 30.61 33.1979 30.6109 32.9554C30.6126 32.7036 30.5645 32.454 30.4694 32.2208C30.3743 31.9877 30.2342 31.7756 30.0569 31.5967C29.8824 31.4228 29.6751 31.2851 29.4471 31.1918C29.219 31.0984 28.9748 31.0512 28.7283 31.0527ZM19.353 13.801C17.6772 13.801 16.039 14.298 14.6456 15.229C13.2523 16.16 12.1663 17.4833 11.525 19.0315C10.8837 20.5797 10.7159 22.2834 11.0428 23.927C11.3697 25.5706 12.1767 27.0803 13.3617 28.2653C14.5466 29.4502 16.0564 30.2572 17.7 30.5841C19.3436 30.911 21.0472 30.7433 22.5954 30.102C24.1436 29.4607 25.4669 28.3747 26.398 26.9813C27.329 25.5879 27.8259 23.9498 27.8259 22.274C27.8232 20.0276 26.9297 17.874 25.3413 16.2856C23.7529 14.6972 21.5993 13.8037 19.353 13.801ZM32.3607 11.6201C31.6969 11.6234 31.0616 11.8899 30.594 12.361C30.1264 12.8321 29.8648 13.4694 29.8664 14.1331C29.8681 14.7969 30.1329 15.4329 30.6029 15.9017C31.0728 16.3704 31.7095 16.6337 32.3732 16.6337C33.037 16.6337 33.6736 16.3704 34.1436 15.9017C34.6135 15.4329 34.8783 14.7969 34.88 14.1331C34.8817 13.4694 34.62 12.8321 34.1524 12.361C33.6848 11.8899 33.0495 11.6234 32.3858 11.6201H32.3607Z" fill="white"/>
</g>
<defs>
<clipPath id="clip0_1150_13408">
<rect width="48" height="48" fill="white"/>
</clipPath>
</defs>
</svg>
