<svg width="42" height="42" viewBox="0 0 42 42" fill="none" xmlns="http://www.w3.org/2000/svg">
<g id="Frame" clip-path="url(#clip0_1044_20282)">
<path id="Vector" d="M0 21C0 26.5695 2.21249 31.911 6.15076 35.8492C10.089 39.7875 15.4305 42 21 42C26.5695 42 31.911 39.7875 35.8492 35.8492C39.7875 31.911 42 26.5695 42 21C42 15.4305 39.7875 10.089 35.8492 6.15076C31.911 2.21249 26.5695 0 21 0C15.4305 0 10.089 2.21249 6.15076 6.15076C2.21249 10.089 0 15.4305 0 21Z" fill="#D80027"/>
<path id="Vector_2" d="M23.1681 15.8867C22.6909 17.8717 21.8429 17.4932 21.4268 19.2243C18.9754 18.635 17.4657 16.1699 18.0551 13.7184C18.6443 11.2671 21.1095 9.75737 23.561 10.3468C22.7286 13.8091 23.5951 14.1113 23.1681 15.8867ZM16.8072 17.3576C18.5476 18.4249 17.9255 19.1145 19.4432 20.0453C18.1252 22.1946 15.3144 22.8685 13.165 21.5505C11.0157 20.2325 10.3416 17.4215 11.6597 15.2722C14.6954 17.1337 15.2503 16.403 16.8072 17.3576ZM16.2404 23.8621C17.7933 22.5366 18.2567 23.3413 19.611 22.1855C21.2479 24.1032 21.0202 26.9848 19.1026 28.6217C17.1849 30.2586 14.3033 30.0307 12.6666 28.1132C15.3748 25.8013 14.8514 25.0475 16.2404 23.8621ZM22.2513 26.411C21.4704 24.5246 22.379 24.3323 21.6982 22.6873C24.0278 21.7232 26.6981 22.8301 27.6623 25.1597C28.6264 27.4893 27.5193 30.1595 25.1897 31.1237C23.8282 27.8335 22.9497 28.0984 22.2513 26.411ZM26.533 21.4818C24.4976 21.6416 24.5953 20.7179 22.8205 20.8572C22.6234 18.3438 24.5014 16.1461 27.015 15.9488C29.5284 15.752 31.726 17.6299 31.9231 20.1435C28.373 20.4218 28.3534 21.3392 26.533 21.4818Z" fill="#F0F0F0"/>
</g>
<defs>
<clipPath id="clip0_1044_20282">
<rect width="42" height="42" fill="white"/>
</clipPath>
</defs>
</svg>
