<svg width="42" height="42" viewBox="0 0 42 42" fill="none" xmlns="http://www.w3.org/2000/svg">
<g id="Frame" clip-path="url(#clip0_1044_20444)">
<path id="Vector" d="M20.9138 0C12.0749 0 4.58985 5.4432 1.36145 13.2608H40.2976C37.4101 5.4432 29.7569 0 20.9138 0Z" fill="#FF9933"/>
<path id="Vector_2" d="M1.19348 27.7188C3.91298 36.0487 11.907 42.0009 21.0861 42.0009C30.2652 42.0009 38.087 36.0494 40.9787 27.7188H1.19348Z" fill="#138808"/>
<path id="Vector_3" d="M42 21.0862C42 18.3674 41.4911 15.6437 40.4705 13.2651H1.5288C0.5096 15.6479 0 18.3674 0 21.0869C0 23.4697 0.3402 25.6761 1.19 27.7187H40.8065C41.6598 25.6761 42 23.2975 42 21.0869V21.0862Z" fill="white"/>
<path id="Vector_4" d="M27.0788 18.4365L26.4348 18.2356L26.8037 17.8828L27.4477 18.0837L27.0788 18.4365ZM27.7144 19.9709L27.1894 19.6839L27.7144 19.3969L28.2436 19.6839L27.7144 19.9709ZM27.608 21.5459L27.23 21.1889L27.874 20.988L28.2471 21.3408L27.608 21.5459ZM26.7421 23.0509L26.5496 22.6533L27.2713 22.5504L27.468 22.9445C27.468 22.9403 26.7421 23.0509 26.7421 23.0509Z" fill="#000066"/>
<path id="Vector_5" d="M26.7834 18.4368L26.4306 18.2359L26.6315 17.8831L26.9843 18.084L26.7834 18.4368ZM27.132 19.9712L26.845 19.68L27.132 19.393L27.419 19.68L27.132 19.9712ZM27.0704 21.5462L26.8653 21.1892L27.2181 20.9883L27.4232 21.3411C27.419 21.3411 27.0704 21.5462 27.0704 21.5462ZM26.6028 23.0512L26.4999 22.6536L26.894 22.5507L27.0004 22.9448L26.6028 23.0512ZM20.5688 14.5077L20.2818 14.7989L19.9913 14.5077L20.2825 14.2207L20.5695 14.5077H20.5688ZM22.1487 14.5735L21.7959 14.7744L21.595 14.4216L21.9471 14.2207L22.1487 14.5735ZM23.6495 15.0369L23.2561 15.1433L23.1532 14.7499L23.5473 14.6435L23.6495 15.0369ZM24.5763 15.4716H24.9823V15.8776H24.5763V15.4716ZM26.0491 17.0382L25.655 16.9318L25.7621 16.5377L26.1555 16.6448L26.0491 17.0382ZM25.7663 24.384V23.978H26.1723V24.384H25.7663ZM24.605 25.4508L24.7079 25.0567L25.1013 25.1638L24.9991 25.5572L24.605 25.4508ZM23.2106 26.1851L23.4157 25.8323L23.7685 26.0332L23.5676 26.386C23.5634 26.386 23.2106 26.1851 23.2106 26.1851ZM21.6685 26.5337L21.9597 26.2467L22.2467 26.5337L21.9597 26.8207L21.6685 26.5337ZM20.0977 26.4721L20.4547 26.267L20.6556 26.6198L20.3028 26.8207C20.3028 26.8165 20.0977 26.4721 20.0977 26.4721ZM18.5885 26.0045L18.9819 25.8981L19.0848 26.2915L18.6907 26.3979L18.5885 26.0045ZM17.255 25.1638H17.661V25.5698H17.255V25.1638ZM16.1889 24.0025L16.583 24.1096L16.4759 24.503L16.0825 24.3966L16.1889 24.0025ZM15.4546 22.6081L15.8074 22.8097L15.6023 23.1618L15.2495 22.9609L15.4546 22.6081ZM15.1102 21.0702L15.4014 21.3572L15.1102 21.6442L14.8232 21.3572L15.1102 21.0702ZM15.1676 19.4994L15.3727 19.8564L15.0199 20.0573L14.819 19.7045L15.1676 19.4994ZM15.2453 18.1008L15.6394 17.9944L15.7458 18.3878L15.3524 18.4942L15.2453 18.1008ZM16.4801 16.6567V17.0627H16.0741V16.6567H16.4801ZM17.6365 15.5906L17.5343 15.9847L17.1402 15.8776L17.2431 15.4842L17.6365 15.5906ZM19.0351 14.8563L18.8342 15.2133L18.4814 15.0124L18.6823 14.6596L19.0351 14.8563ZM20.9958 20.5046L21.168 18.1008L20.979 14.4832L20.811 18.105L20.9958 20.5039V20.5046ZM20.9958 20.5046L21.7833 18.224L22.5379 14.6799L21.4389 18.1337C21.4347 18.1379 20.9958 20.5039 20.9958 20.5039V20.5046Z" fill="#000066"/>
<path id="Vector_6" d="M20.9958 20.5038L22.3454 18.5109L23.9939 15.2832L22.0339 18.3345L20.9958 20.5045V20.5038ZM20.9958 20.5038L22.8172 18.9288L25.2413 16.2338L22.5624 18.6789L20.9958 20.5038ZM20.9958 20.5038L23.1616 19.4503L26.1968 17.4812L22.9769 19.1465C22.9811 19.1465 20.9958 20.5045 20.9958 20.5045V20.5038ZM20.9958 20.5038L23.3583 20.0446L26.8079 18.9246L23.268 19.696L20.9958 20.5038Z" fill="#000066"/>
<path id="Vector_7" d="M20.9958 20.5039L23.3996 20.6768L27.0172 20.4878L23.3996 20.3198L20.9958 20.5046V20.5039ZM20.9958 20.5039L23.2764 21.2914L26.824 22.0467L23.3709 20.9477L20.9958 20.5039ZM20.9958 20.5039L22.9937 21.8577L26.2214 23.5069L23.1693 21.5539L20.9958 20.5039ZM20.9958 20.5039L22.5708 22.3253L25.2658 24.7536L22.8214 22.0712C22.8249 22.0712 20.9958 20.5039 20.9958 20.5039ZM20.9958 20.5039L22.05 22.6697L24.0226 25.7049L22.358 22.4849C22.358 22.4891 20.9958 20.5039 20.9958 20.5039ZM20.9958 20.5039L21.4508 22.8706L22.5708 26.316L21.8001 22.7768L20.9958 20.5046V20.5039Z" fill="#000066"/>
<path id="Vector_8" d="M21.0735 20.5036L20.8971 22.9074L21.0987 26.5292L21.2751 22.9074L21.0735 20.5036ZM21.0735 20.5036L20.2454 22.7807L19.4495 26.3283L20.6059 22.8745L21.0735 20.5043V20.5036ZM20.9965 20.5036L19.642 22.4979L18.0012 25.7256L19.9535 22.6743L20.9951 20.5043L20.9965 20.5036ZM20.9965 20.5036L19.1751 22.0786L16.7461 24.7736L19.4292 22.3376L20.9958 20.5036H20.9965ZM20.9965 20.5036L18.83 21.5578L15.7871 23.5311L19.0071 21.8651L20.9958 20.5036H20.9965ZM20.9965 20.5036L18.6333 20.9635L15.1837 22.0835L18.7236 21.3121C19.4801 21.0401 20.2375 20.7706 20.9958 20.5036H20.9965ZM20.9965 20.5036L18.5962 20.3314L14.9751 20.5246L18.5962 20.6926L20.9958 20.5036H20.9965ZM20.9965 20.5036L18.7194 19.7161L15.176 18.9657L18.6291 20.0612L20.9958 20.5043L20.9965 20.5036ZM20.9965 20.5036L19.0022 19.1505L15.7752 17.5097L18.8258 19.4627C18.8223 19.4627 20.9958 20.5043 20.9958 20.5043L20.9965 20.5036ZM20.9965 20.5036L19.4215 18.6829L16.7265 16.2588L19.1709 18.937C19.1667 18.937 20.9958 20.5036 20.9958 20.5036H20.9965ZM20.9965 20.5036L19.9416 18.3385L17.969 15.3033L19.6343 18.5233L20.9958 20.5043L20.9965 20.5036ZM20.9965 20.5036L20.5408 18.1376L19.4166 14.688L20.1922 18.2314L20.9958 20.5036H20.9965Z" fill="#000066"/>
<path id="Vector_9" d="M22.8907 13.921C21.5843 13.5699 20.2031 13.6148 18.9223 14.05C17.6414 14.4852 16.5188 15.2911 15.6968 16.3654C14.8749 17.4387 14.3891 18.7313 14.3007 20.0803C14.2122 21.4293 14.5251 22.7742 15.1998 23.9457C15.8762 25.1162 16.8845 26.06 18.0972 26.6578C19.3098 27.2556 20.6724 27.4806 22.0129 27.3043C23.3541 27.1289 24.613 26.5588 25.6296 25.6664C26.6461 24.774 27.3745 23.5995 27.7221 22.2923C27.9547 21.4249 28.0139 20.5202 27.8965 19.6299C27.779 18.7396 27.4871 17.8812 27.0375 17.1039C26.5902 16.3261 25.9936 15.6445 25.2819 15.0983C24.5703 14.552 23.7576 14.1519 22.8907 13.921ZM19.5482 26.374C18.3904 26.0636 17.3507 25.4171 16.5603 24.5159C15.77 23.6148 15.2645 22.4997 15.1078 21.3113C14.9511 20.123 15.1501 18.9149 15.6798 17.8397C16.2095 16.7645 17.0461 15.8705 18.0838 15.2706C19.1211 14.6705 20.3131 14.3918 21.5089 14.4696C22.7047 14.5474 23.8506 14.9783 24.8013 15.7078C25.7521 16.4372 26.4651 17.4324 26.8499 18.5673C27.2348 19.7021 27.2742 20.9257 26.9633 22.083C26.1065 25.3191 22.7843 27.2392 19.5482 26.374Z" fill="#000066"/>
<path id="Vector_10" d="M22.2964 20.8364C22.3958 21.0096 22.451 21.2047 22.4572 21.4043C22.4634 21.6039 22.4203 21.802 22.3318 21.9811C22.2433 22.1601 22.1121 22.3146 21.9497 22.4309C21.7873 22.5473 21.5988 22.6218 21.4008 22.648C21.2028 22.6742 21.0014 22.6513 20.8144 22.5812C20.6273 22.5112 20.4604 22.3961 20.3284 22.2463C20.1963 22.0964 20.1032 21.9164 20.0572 21.722C20.0113 21.5276 20.0139 21.3249 20.0648 21.1318C19.9448 20.9224 19.8893 20.6821 19.9054 20.4413C19.9214 20.2004 20.0083 19.9697 20.1551 19.778C20.3017 19.5863 20.5021 19.4426 20.7308 19.3653C20.9595 19.288 21.206 19.2806 21.4389 19.344C21.7501 19.4287 22.0152 19.6334 22.1759 19.9131C22.3366 20.1928 22.3799 20.5248 22.2964 20.8364ZM23.6495 15.0369L23.2561 15.1433L23.1532 14.7499L23.5473 14.6435L23.6495 15.0369ZM24.5763 15.4716H24.9823V15.8776H24.5763V15.4716ZM26.0491 17.0382L25.655 16.9318L25.7621 16.5377L26.1555 16.6448L26.0491 17.0382ZM25.7663 24.384V23.978H26.1723V24.384H25.7663ZM24.605 25.4508L24.7079 25.0567L25.1013 25.1638L24.9991 25.5572L24.605 25.4508ZM23.2106 26.1851L23.4157 25.8323L23.7685 26.0332L23.5676 26.386C23.5634 26.386 23.2106 26.1851 23.2106 26.1851ZM21.6685 26.5337L21.9597 26.2467L22.2467 26.5337L21.9597 26.8207L21.6685 26.5337ZM20.0977 26.4721L20.4547 26.267L20.6556 26.6198L20.3028 26.8207C20.3028 26.8165 20.0977 26.4721 20.0977 26.4721ZM18.5885 26.0045L18.9819 25.8981L19.0848 26.2915L18.6907 26.3979L18.5885 26.0045ZM17.255 25.1638H17.661V25.5698H17.255V25.1638ZM16.1889 24.0025L16.583 24.1096L16.4759 24.503L16.0825 24.3966L16.1889 24.0025ZM15.4546 22.6081L15.8074 22.8097L15.6023 23.1618L15.2495 22.9609L15.4546 22.6081ZM15.1102 21.0702L15.4014 21.3572L15.1102 21.6442L14.8232 21.3572L15.1102 21.0702ZM15.1676 19.4994L15.3727 19.8564L15.0199 20.0573L14.819 19.7045L15.1676 19.4994ZM15.2453 18.1008L15.6394 17.9944L15.7458 18.3878L15.3524 18.4942L15.2453 18.1008ZM16.4801 16.6567V17.0627H16.0741V16.6567H16.4801ZM17.6365 15.5906L17.5343 15.9847L17.1402 15.8776L17.2431 15.4842L17.6365 15.5906ZM19.0351 14.8563L18.8342 15.2133L18.4814 15.0124L18.6823 14.6596L19.0351 14.8563ZM20.5695 14.5077L20.2825 14.7989L19.9913 14.5077L20.2825 14.2207L20.5695 14.5077Z" fill="#000066"/>
</g>
<defs>
<clipPath id="clip0_1044_20444">
<rect width="42" height="42" fill="white"/>
</clipPath>
</defs>
</svg>
