<svg width="42" height="42" viewBox="0 0 42 42" fill="none" xmlns="http://www.w3.org/2000/svg">
<g id="Frame" clip-path="url(#clip0_1044_20572)">
<path id="Vector" d="M20.9804 0.0214844C32.5675 0.0214844 41.9595 9.41374 41.9595 21.0004C41.9595 32.5875 32.5675 41.9795 20.9804 41.9795C9.3932 41.9795 0 32.5875 0 21.0004C0 9.41374 9.3932 0.0214844 20.9804 0.0214844Z" fill="#F0F0F0"/>
<path id="Vector_2" d="M27.7937 15.5278H25.0486C25.0723 15.8299 25.0841 16.134 25.0841 16.44C25.0841 18.4687 24.5768 20.4353 23.6925 21.8357C23.4216 22.2678 22.9617 22.8785 22.3483 23.2895V15.5278H19.6112V23.2895C18.9978 22.8785 18.5393 22.2677 18.2671 21.8357C17.3828 20.4353 16.8753 18.4687 16.8753 16.44C16.8753 16.134 16.8884 15.8299 16.911 15.5278H14.1659C14.1484 15.8316 14.1395 16.1357 14.1393 16.44C14.1393 22.0657 17.1435 26.472 20.9804 26.472C24.8159 26.472 27.8227 22.0657 27.8227 16.44C27.8227 16.1313 27.8108 15.8284 27.7937 15.5278Z" fill="#D80027"/>
<path id="Vector_3" d="M8.66638 10.0547H11.4022V11.8794H14.1393V10.0547H16.8754V11.8794H19.6113V10.0547H22.3484V11.8794H25.0842V10.0547H27.8215V11.8794H30.5574V10.0547H33.2933V11.8794H39.8792C36.4837 4.86186 29.2979 0.0205078 20.9804 0.0205078C12.6632 0.0205078 5.47563 4.86186 2.08313 11.8794H8.66638V10.0547Z" fill="#6DA544"/>
<path id="Vector_4" d="M33.2944 30.1226V31.9463H30.5573V30.1226H27.8214V31.9463H25.0841V30.1226H22.3483V31.9463H19.6123V30.1226H16.8752V31.9463H14.1392V30.1226H11.4021V31.9463H8.66627V30.1226H2.08154C5.4756 37.139 12.6631 41.9793 20.9804 41.9793C29.2978 41.9793 36.4824 37.1391 39.8777 30.1226H33.2944Z" fill="#D80027"/>
</g>
<defs>
<clipPath id="clip0_1044_20572">
<rect width="42" height="42" fill="white"/>
</clipPath>
</defs>
</svg>
