<svg width="42" height="42" viewBox="0 0 42 42" fill="none" xmlns="http://www.w3.org/2000/svg">
<g id="Frame" clip-path="url(#clip0_1044_20371)">
<path id="Vector" d="M20.993 0C32.5899 0 41.9895 9.3996 41.9895 20.993C41.9895 32.5885 32.592 41.9881 20.993 41.9881C9.3989 41.9881 0 32.5885 0 20.993C0 9.3996 9.3996 0 20.993 0Z" fill="#F3F3F3"/>
<path id="Vector_2" d="M20.993 11.8652C22.2051 11.8439 23.4094 12.0644 24.5354 12.5135C25.6615 12.9627 26.6868 13.6317 27.5515 14.4814C28.4163 15.3311 29.1031 16.3446 29.5719 17.4626C30.0408 18.5806 30.2823 19.7808 30.2823 20.9932C30.2823 22.2055 30.0408 23.4057 29.5719 24.5237C29.1031 25.6418 28.4163 26.6552 27.5515 27.5049C26.6868 28.3546 25.6615 29.0236 24.5354 29.4728C23.4094 29.922 22.2051 30.1424 20.993 30.1212C18.609 30.0659 16.3412 29.0801 14.6747 27.3745C13.0081 25.6689 12.0751 23.3789 12.0751 20.9942C12.0751 18.6096 13.0081 16.3196 14.6747 14.614C16.3412 12.9084 18.609 11.9225 20.993 11.8673" fill="#D80027"/>
</g>
<defs>
<clipPath id="clip0_1044_20371">
<rect width="42" height="42" fill="white"/>
</clipPath>
</defs>
</svg>
