<svg width="48" height="48" fill="none" xmlns="http://www.w3.org/2000/svg"><g clip-path="url(#a)"><path d="M23.988 0c13.25 0 23.989 10.739 23.989 23.988 0 13.25-10.739 23.989-23.989 23.989S0 37.238 0 23.988 10.743 0 23.988 0Z" fill="#3E5BF2"/><path d="m19.134 23.989 3.243 15.367-9.493-7.534V16.155l9.493-7.534-3.242 15.358v.01Z" fill="#fff"/><path d="m22.231 26.753 11.142 6.433-8.382 6.653-2.76-13.086Zm-.08-5.15 2.84-13.47 8.625 6.85-11.464 6.62Zm12.946-4.638v14.38l-12.449-7.192 12.449-7.188Z" fill="#fff"/></g><defs><clipPath id="a"><path fill="#fff" d="M0 0h48v48H0z"/></clipPath></defs></svg>