<svg width="32" height="32" fill="none" xmlns="http://www.w3.org/2000/svg"><g clip-path="url(#a)"><g clip-path="url(#b)"><g clip-path="url(#c)"><path d="M15.982 0c8.828 0 15.983 7.156 15.983 15.982 0 8.827-7.155 15.984-15.983 15.984C7.155 31.966 0 24.809 0 15.982 0 7.156 7.155 0 15.982 0Z" fill="#F0F0F0"/><path d="M21.542 15.982c0 1.391-2.49 4.865-5.56 4.865-3.07 0-5.558-3.474-5.558-4.865a5.56 5.56 0 1 1 11.118 0Z" fill="#D80027"/><path d="M21.542 15.982a5.56 5.56 0 1 1-11.119 0" fill="#0052B4"/><path d="m21.879 20.897 1.475-1.474.982.983-1.474 1.474-.983-.983Zm-2.458 2.457 1.475-1.474.983.983-1.475 1.474-.983-.983Zm5.407.49 1.473-1.474.982.983-1.472 1.474-.983-.983Zm-2.458 2.457 1.475-1.474.982.983-1.474 1.474-.983-.983Zm.983-3.93 1.475-1.475.982.983-1.474 1.474-.983-.983Zm.001 1.964-1.474 1.474-.982-.983 1.474-1.474.982.983Zm1.474-13.266-3.93-3.932.982-.982 3.93 3.931-.982.983Zm-3.93-.982-1.476-1.474.983-.983 1.475 1.474-.983.983Zm2.456 2.456-1.475-1.474.983-.983 1.475 1.474-.983.983Zm-.002-7.861 1.474 1.474-.983.983-1.474-1.474.983-.983Zm2.95 4.914-1.475-1.474.983-.983 1.475 1.474-.983.983ZM5.664 22.37l3.932 3.931-.985.983-3.93-3.93.983-.984Zm3.93.982 1.474 1.474-.98.983-1.476-1.474.983-.983Zm-2.456-2.457 1.475 1.474-.983.983-1.475-1.474.983-.983Zm1.474-1.474 3.932 3.931-.985.983-3.93-3.931.983-.983Zm.983-13.758-3.932 3.93-.983-.982 3.932-3.93.983.982Zm-3.44 4.422 3.93-3.93.983.982-3.931 3.931-.983-.983Zm6.389-1.473-3.932 3.932-.983-.984 3.932-3.93.983.982Z" fill="#000"/></g></g></g><defs><clipPath id="a"><path fill="#fff" d="M0 0h32v32H0z"/></clipPath><clipPath id="b"><path fill="#fff" d="M0 0h32v32H0z"/></clipPath><clipPath id="c"><path fill="#fff" d="M0 0h32v32H0z"/></clipPath></defs></svg>