<svg width="42" height="42" viewBox="0 0 42 42" fill="none" xmlns="http://www.w3.org/2000/svg">
<g id="Frame" clip-path="url(#clip0_1044_20341)">
<path id="Vector" d="M20.9769 0C32.563 0 41.9539 9.39217 41.9539 20.9769C41.9539 32.5616 32.563 41.9552 20.9769 41.9552C9.39094 41.9552 0 32.5616 0 20.9769C0 9.39217 9.39094 0 20.9769 0Z" fill="#F0F0F0"/>
<path id="Vector_2" d="M28.2734 20.977C28.2734 22.802 25.0064 27.3614 20.9757 27.3614C16.9476 27.3614 13.6808 22.802 13.6808 20.977C13.6808 16.9476 16.9476 13.6807 20.9757 13.6807C25.0064 13.6807 28.2734 16.9476 28.2734 20.977Z" fill="#D80027"/>
<path id="Vector_3" d="M28.2734 20.9771C28.2734 25.0091 25.0064 28.2747 20.9757 28.2747C16.9476 28.2747 13.6808 25.0091 13.6808 20.9771" fill="#0052B4"/>
<path id="Vector_4" d="M28.7159 27.4276L30.652 25.4929L31.9406 26.7827L30.0059 28.7174L28.7159 27.4276ZM25.4901 30.6522L27.4261 28.7174L28.7159 30.0074L26.78 31.942L25.4901 30.6522ZM32.5867 31.2958L34.5202 29.3611L35.8087 30.6509L33.8766 32.5857L32.5867 31.2958ZM29.361 34.5204L31.2969 32.5857L32.5855 33.8755L30.6508 35.8102L29.361 34.5204ZM30.6508 29.3611L32.5867 27.4264L33.8753 28.7162L31.9406 30.6509L30.6508 29.3611ZM30.6525 31.9394L28.7178 33.8741L27.428 32.5843L29.3627 30.6496L30.6525 31.9394ZM32.5867 14.528L27.4275 9.3673L28.7173 8.07891L33.8766 13.2381L32.5867 14.528ZM27.4275 13.2395L25.4914 11.3048L26.7812 10.015L28.7173 11.9497L27.4275 13.2395ZM30.652 16.4628L28.7159 14.528L30.0059 13.2381L31.9418 15.173L30.652 16.4628ZM30.6492 6.14519L32.584 8.0799L31.2941 9.36968L29.3594 7.43497L30.6492 6.14519ZM34.5216 12.5946L32.5855 10.6599L33.8753 9.36996L35.8114 11.3048L34.5216 12.5946ZM7.43375 29.3625L12.5944 34.5216L11.3019 35.8116L6.14397 30.6522L7.43375 29.3625ZM12.5931 30.6509L14.5266 32.5857L13.2394 33.8755L11.3033 31.9407L12.5931 30.6509ZM9.36846 27.4264L11.3046 29.3611L10.0147 30.6509L8.07868 28.7162L9.36846 27.4264ZM11.3033 25.4915L16.4639 30.6509L15.1715 31.9407L10.0134 26.7815L11.3033 25.4915ZM12.5931 7.43398L7.43236 12.5932L6.14258 11.3034L11.3033 6.14404L12.5931 7.43398ZM8.07724 13.2381L13.2366 8.07883L14.5264 9.36869L9.3671 14.528L8.07724 13.2381ZM16.4639 11.3048L11.3033 16.4654L10.0134 15.1742L15.1741 10.015L16.4639 11.3048Z" fill="black"/>
</g>
<defs>
<clipPath id="clip0_1044_20341">
<rect width="42" height="42" fill="white"/>
</clipPath>
</defs>
</svg>
