<svg width="42" height="42" viewBox="0 0 42 42" fill="none" xmlns="http://www.w3.org/2000/svg">
<g id="Frame" clip-path="url(#clip0_1044_20824)">
<path id="Vector" d="M18.4398 41.9999C10.4012 41.0155 3.7634 35.4549 1.17078 27.9824H40.8293C38.2367 35.4549 31.5989 41.0155 23.5603 41.9999H18.4398Z" fill="#CC303C"/>
<path id="Vector_2" d="M40.8109 28.0351C41.6007 25.7738 42.0027 23.3953 42 21.0001C42 18.5527 41.5879 16.2033 40.8293 14.0176H1.17076C0.393076 16.2633 -0.00265713 18.6235 1.34265e-05 21.0001C1.34265e-05 23.4658 0.419138 25.8336 1.18914 28.0351H40.81H40.8109Z" fill="white"/>
<path id="Vector_3" d="M40.8293 14.0175H1.17078C3.7634 6.545 10.3994 0.98525 18.438 0H23.562C31.5998 0.98525 38.2375 6.545 40.8293 14.0175Z" fill="#009D8C"/>
<path id="Vector_4" d="M4.48529 34.0699C1.57006 30.3378 -0.0092327 25.7358 4.06061e-05 21.0001C-0.0092327 16.2643 1.57006 11.6623 4.48529 7.93018L11.3558 14.0176V27.9826L4.48529 34.0699Z" fill="#231815"/>
</g>
<defs>
<clipPath id="clip0_1044_20824">
<rect width="42" height="42" fill="white"/>
</clipPath>
</defs>
</svg>
