<svg width="48" height="48" viewBox="0 0 48 48" fill="none" xmlns="http://www.w3.org/2000/svg">
<path d="M0 24C0 30.3652 2.52856 36.4697 7.02944 40.9706C11.5303 45.4714 17.6348 48 24 48C30.3652 48 36.4697 45.4714 40.9706 40.9706C45.4714 36.4697 48 30.3652 48 24C48 17.6348 45.4714 11.5303 40.9706 7.02944C36.4697 2.52856 30.3652 0 24 0C17.6348 0 11.5303 2.52856 7.02944 7.02944C2.52856 11.5303 0 17.6348 0 24Z" fill="#D88C22"/>
<path d="M36.2172 37.4476L37.7783 31.6372L22.5155 31.6659L24.4813 24.3812L28.9902 22.7625L30.2045 18.3108L25.6377 20.0451L28.8456 7.875H19.6826L15.462 23.7454L11.9926 24.9594L10.7783 29.4112L14.3059 28.0815L11.877 37.3896L36.2172 37.4476Z" fill="white"/>
</svg>
