<svg width="48" height="48" fill="none" xmlns="http://www.w3.org/2000/svg"><g clip-path="url(#a)"><path d="M0 24a24 24 0 1 0 48 0 24 24 0 0 0-48 0Z" fill="#172852"/><path d="M19.332 10.726c2.81-1.051 5.974-1.054 8.837-.19 3.727 1.157 6.873 3.97 8.517 7.5.454 1.006.888 2.055.932 3.173-2.096-1.214-4.392-2.002-6.694-2.72-3.682-1.326-7.536-2.248-11.02-4.072-.812-.485-1.846-.982-2.067-1.992-.089-.873.835-1.36 1.495-1.7Zm-8.484 8.496c.814-2.208 2.148-4.258 3.96-5.777.46 3.79 2.074 7.452 4.738 10.207 3.194 3.32 7.744 5.357 12.374 5.28 1.838.058 3.636-.367 5.429-.71-1.764 6.374-8.75 10.605-15.223 9.588-3.908-.5-7.515-2.813-9.692-6.08-2.455-3.609-3.074-8.402-1.586-12.508Z" fill="#FFD83D"/><path d="M30.924 18.49c2.302.717 4.598 1.504 6.694 2.719l.141.074c.195 1.461.336 2.952.077 4.416-1.054-.447-1.908-1.231-2.8-1.925-1.72-1.43-3.474-3.067-4.112-5.285Z" fill="#FF6F03"/></g><defs><clipPath id="a"><path fill="#fff" d="M0 0h48v48H0z"/></clipPath></defs></svg>