<svg width="42" height="42" viewBox="0 0 42 42" fill="none" xmlns="http://www.w3.org/2000/svg">
<g id="Frame" clip-path="url(#clip0_1044_20629)">
<path id="Vector" d="M42 21.0004C42 32.5982 32.5976 42 21.0001 42C9.40161 42 0 32.5982 0 21.0004C0 9.40164 9.40161 0 20.9999 0C32.5976 0 42 9.40164 42 21.0004Z" fill="black"/>
<path id="Vector_2" d="M31.0059 20.4249L32.3458 19.4523L33.6866 20.4249L33.1727 18.8501L34.5125 17.8766H32.8587L32.3458 16.3013L31.8357 17.8768H30.1782L31.5179 18.8503L31.0059 20.4249ZM30.9149 18.12H32.0078L32.3458 17.0756L32.6838 18.12H33.7814L32.8937 18.7627L33.2299 19.8023L32.3458 19.1604L31.4619 19.8023L31.7988 18.7627L30.9147 18.12H30.9149Z" fill="white"/>
<path id="Vector_3" d="M31.4619 19.8024L32.3459 19.1605L33.23 19.8024L32.8938 18.7628L33.7815 18.1201H32.6838L32.3459 17.0757L32.0079 18.1201H30.9148L31.7989 18.7628L31.4619 19.8024Z" fill="#E31937"/>
<path id="Vector_4" d="M24.6113 0.702391V2.74489L17.365 7.57569H24.6113V13.7594H17.3383L24.6113 18.605V20.9744H21.0356L12.2413 15.1133V20.9744H6.05765V15.1133L0.376957 18.8985C0.307907 19.5882 0.273236 20.281 0.273071 20.9742C0.274852 32.3582 9.50468 41.5888 20.8886 41.5888C32.2726 41.5888 41.5032 32.3582 41.5032 20.9742C41.5032 10.8603 34.2163 2.45282 24.6115 0.702193L24.6113 0.702391ZM33.6866 20.4247L32.3458 19.4521L31.0061 20.4247L31.518 18.85L30.1782 17.8764H31.8356L32.3458 16.3011L32.8587 17.8766H34.5125L33.1729 18.8502L33.6866 20.4247ZM20.928 0.359863H20.8488C17.8757 0.362439 14.9386 1.01164 12.2413 2.26246V6.23962L21.0558 0.364612C21.0135 0.363623 20.9711 0.359863 20.928 0.359863Z" fill="#004990"/>
<path id="Vector_5" d="M10.9522 14.253V20.9744H12.2414V15.1132L10.9522 14.253ZM17.3383 13.7593H24.6113V12.4711H15.4064L17.3383 13.7593ZM6.05787 15.113V20.9744H7.34606V14.253L6.05787 15.113ZM12.2414 6.23956V2.26221C11.8041 2.46268 11.3741 2.67864 10.9522 2.90966V7.09776L12.2414 6.23956ZM2.11079 12.4711C2.00169 12.7133 1.89614 12.957 1.79419 13.2023L2.89004 12.4711H2.11079ZM24.6113 7.57563H17.365L15.4322 8.86224H24.6113V7.57563ZM7.34606 5.44033C6.987 5.74898 6.63981 6.07116 6.30522 6.40617L7.34606 7.09776V5.44033Z" fill="white"/>
<path id="Vector_6" d="M15.4065 12.471H10.9522V14.2529L12.2414 15.1129L21.0357 20.9743H24.6114V20.9145L13.8529 13.7592H16.2997L24.6114 19.2891V18.6049L17.3384 13.7592L15.4065 12.471ZM7.3461 7.09766L6.30526 6.40607C5.54379 7.16865 4.84339 7.98987 4.21052 8.86214H7.3461V7.09766ZM10.9522 7.09766V8.86214H15.4322L17.3653 7.57553L24.6116 2.74473V0.702234C24.477 0.67651 24.3444 0.650786 24.2099 0.628623L13.7657 7.57553H12.2416V6.96152L22.1078 0.398293C21.7577 0.3763 21.4069 0.36495 21.0561 0.364258L12.2416 6.23926L10.9524 7.09766H10.9522ZM7.3461 14.2529V12.471H2.88988L1.79443 13.2022C1.40318 14.1616 1.08669 15.1499 0.847781 16.1581L4.45015 13.7592H6.05811V14.3192L0.487445 18.0245C0.445891 18.3128 0.407304 18.6037 0.376831 18.8985L6.05792 15.1127L7.3461 14.2527V14.2529Z" fill="white"/>
<path id="Vector_7" d="M7.34603 12.4711V20.9744H10.9522V12.4711H24.6113V8.86224H10.9522V2.90967C9.66351 3.62254 8.45462 4.47089 7.34603 5.44033V8.86224H4.21045C3.39006 9.99091 2.68661 11.2001 2.11096 12.4711H7.34623H7.34603Z" fill="#E31937"/>
<path id="Vector_8" d="M13.8529 13.7594L24.6116 20.9147V19.2891L16.2995 13.7594H13.8529ZM12.2414 7.57568H13.7655L24.2101 0.628768C23.5137 0.515492 22.8119 0.438611 22.1076 0.398438L12.2414 6.96166V7.57568ZM6.0579 13.7594H4.44994L0.847565 16.1583C0.699156 16.7697 0.578451 17.3914 0.487427 18.0248L6.0577 14.3194V13.7594H6.0579Z" fill="#E31937"/>
</g>
<defs>
<clipPath id="clip0_1044_20629">
<rect width="42" height="42" fill="white"/>
</clipPath>
</defs>
</svg>
