<svg width="48" height="48" fill="none" xmlns="http://www.w3.org/2000/svg"><path d="M24 0c13.254 0 24 10.745 24 24S37.254 48 24 48C10.745 48 0 37.254 0 24 0 10.745 10.745 0 24 0Z" fill="#F23838"/><path d="M26.09 16.499h7.079c3.448 0 5.769 2.202 5.769 5.65 0 3.416-2.46 5.619-6.08 5.619h-2.213V32H26.09V16.499Zm4.555 3.427v4.48h1.278c1.515 0 2.417-.763 2.417-2.246 0-1.471-.903-2.234-2.385-2.234h-1.31ZM16.508 16.23c4.79 0 7.81 3.073 7.81 8.025s-3.02 8.014-7.81 8.014c-4.802 0-7.81-3.062-7.81-8.014s3.019-8.024 7.81-8.024Zm0 3.631c-1.902 0-3.17 1.708-3.17 4.394 0 2.675 1.258 4.383 3.17 4.383s3.169-1.708 3.169-4.383c0-2.686-1.268-4.394-3.17-4.394Z" fill="#fff"/></svg>