<svg width="42" height="42" viewBox="0 0 42 42" fill="none" xmlns="http://www.w3.org/2000/svg">
<g id="Frame" clip-path="url(#clip0_1044_20837)">
<path id="Vector" d="M1.02843e-05 20.9997C-0.017864 23.7687 0.512084 26.5139 1.55935 29.0772C2.60662 31.6406 4.15052 33.9715 6.1022 35.9358C8.05388 37.9001 10.3748 39.4591 12.9313 40.5228C15.4879 41.5866 18.2296 42.1343 20.9986 42.1343C23.7676 42.1343 26.5093 41.5866 29.0659 40.5228C31.6224 39.4591 33.9433 37.9001 35.895 35.9358C37.8467 33.9715 39.3906 31.6406 40.4379 29.0772C41.4851 26.5139 42.0151 23.7687 41.9972 20.9997C41.9614 15.454 39.7333 10.1477 35.7992 6.23886C31.865 2.33006 26.5444 0.13623 20.9986 0.13623C15.4528 0.13623 10.1322 2.33006 6.19805 6.23886C2.26393 10.1477 0.0358087 15.454 1.02843e-05 20.9997Z" fill="white"/>
<path id="Vector_2" d="M20.999 20.9995L5.87183 35.5632C8.83338 38.6458 12.6668 40.7491 16.8578 41.5908C23.371 42.8936 30.4092 41.0851 35.5618 36.1267C39.8404 32.0056 41.9788 26.5021 41.9788 20.9995H20.999Z" fill="#CC303C"/>
<path id="Vector_3" d="M20.999 20.9997L5.87183 6.43775C8.83323 3.35477 12.6667 1.25121 16.8578 0.40928C23.371 -0.893535 30.4092 0.915007 35.5618 5.8734C39.8404 9.99446 41.9788 15.498 41.9788 20.9997H20.999Z" fill="#0053A3"/>
<path id="Vector_4" d="M5.48339 29.5166L4.7248 29.1859L4.19982 29.8079L4.27769 29.0117L3.5191 28.7002L4.31619 28.5051L4.37481 27.7089L4.78342 28.4089L5.57963 28.1945L5.03628 28.8157L5.48251 29.5157L5.48339 29.5166ZM11.6274 21.467L11.9581 21.0977L11.4909 20.7285C11.161 20.7862 10.7909 20.8055 10.461 20.8641C10.1303 20.9227 10.1495 20.767 10.461 20.7084C10.7716 20.6506 11.063 20.6121 11.3745 20.5526C11.1601 20.3584 11.1409 20.3199 10.888 20.3978C10.6168 20.4756 10.2082 20.7276 10.1102 20.417C10.0332 20.2035 9.87744 20.1449 10.0909 20.0285C10.2467 19.9498 10.4024 19.8334 10.5582 19.7748C10.8294 19.6199 10.8294 19.6199 10.888 19.2892L10.188 19.7555L9.87744 19.9699C9.72169 20.0661 9.87744 19.7757 9.89669 19.7555C10.1688 19.5228 10.461 19.3093 10.7524 19.0757C10.9659 18.9199 10.888 18.7056 10.888 18.472L10.3245 18.4921C10.1111 18.745 9.87744 19.0363 9.66307 19.2892C9.44958 19.5613 9.35246 19.4449 9.56683 19.1536C9.76107 18.8998 9.93518 18.6671 10.1111 18.395C9.85731 18.4142 9.79957 18.395 9.66307 18.6286C9.56545 18.7797 9.47494 18.9354 9.39183 19.0949C9.25534 19.3084 9.33321 19.3084 9.11885 19.1728C8.90536 19.0757 8.71112 19.1536 8.74961 18.9007C8.80417 18.7282 8.84973 18.553 8.88611 18.3757C8.9631 18.0642 8.9631 18.0642 8.74961 17.772C8.69099 18.045 8.65249 18.3171 8.59387 18.6085L8.516 18.9978C8.49675 19.1921 8.38038 18.8613 8.38038 18.8027C8.43813 18.4335 8.45825 18.0642 8.516 17.7143C8.53612 17.4614 8.36113 17.3835 8.18614 17.1893L7.81603 17.6758C7.87465 18.0056 7.89478 18.3757 7.95253 18.7056C8.01115 19.0363 7.8554 19.0171 7.79678 18.7056C7.73816 18.395 7.69966 18.1027 7.64104 17.7921C7.48617 18.0056 7.4083 18.0257 7.48617 18.2786C7.54392 18.4728 7.58242 18.6085 7.62179 18.8036C7.68041 19.0363 7.71891 18.9978 7.48617 19.0748C7.27181 19.1536 7.17469 19.3286 7.03819 19.1334C6.9612 18.9777 6.84395 18.8228 6.7862 18.6671C6.63046 18.395 6.59109 18.395 6.29973 18.3556C6.45547 18.5892 6.61121 18.8027 6.7862 19.0363L6.99969 19.3478C7.09681 19.5035 6.80545 19.3478 6.7862 19.3286L6.08624 18.4728C5.93049 18.2585 5.71613 18.3364 5.48251 18.3757L5.56126 18.9777C5.8325 19.1921 6.10548 19.3863 6.39685 19.6007C6.68821 19.8142 6.55259 19.9113 6.29973 19.6969C6.04686 19.5035 5.81325 19.3671 5.54114 19.1719C5.56126 19.4257 5.54114 19.4834 5.77475 19.6199C6.02761 19.7757 6.51322 19.8535 6.33822 20.1641C6.24198 20.3776 6.31898 20.5526 6.08624 20.4949C5.91373 20.4403 5.7385 20.3947 5.56126 20.3584C5.1719 20.2621 5.1719 20.2621 4.89979 20.4555C5.1719 20.5141 5.44402 20.5526 5.73625 20.6112L6.10548 20.6699C6.31898 20.6891 5.96899 20.8055 5.91124 20.8055C5.54114 20.7862 5.1719 20.7285 4.82192 20.7092C4.56906 20.6891 4.49118 20.8641 4.29694 21.0391L4.7633 21.4083C5.09403 21.3506 5.46326 21.3305 5.794 21.2727C6.12473 21.2141 6.10549 21.369 5.794 21.4276C5.48339 21.4862 5.19115 21.5256 4.88054 21.5833C5.09403 21.7391 5.11328 21.8169 5.36614 21.7391C5.63826 21.6612 6.04686 21.4083 6.14486 21.7198C6.22185 21.9333 6.3776 21.9911 6.20261 22.1276C6.04686 22.2063 5.89112 22.3227 5.73625 22.3813C5.46326 22.5362 5.46326 22.5362 5.40552 22.8669L6.10548 22.4005L6.4161 22.1862C6.57184 22.0891 6.4161 22.3804 6.39685 22.4005C6.12473 22.6333 5.83337 22.8669 5.54114 23.0804C5.32765 23.2361 5.40552 23.4505 5.44489 23.6841L6.04686 23.6054C6.26123 23.3341 6.49397 23.0611 6.70833 22.7698C6.92182 22.4977 7.01894 22.614 6.80458 22.9054C6.6121 23.1457 6.43668 23.3992 6.2796 23.664C6.53334 23.6447 6.59109 23.664 6.72758 23.4304C6.8247 23.2755 6.92182 23.1198 6.98044 22.964C7.11606 22.7505 7.03819 22.7505 7.25168 22.8669C7.46605 22.964 7.66116 22.8861 7.58329 23.1198C7.52871 23.2923 7.48315 23.4675 7.4468 23.6447C7.36893 23.9553 7.36893 23.9755 7.58329 24.2476C7.64104 23.9755 7.67954 23.7034 7.73816 23.4111L7.79678 23.0419C7.81603 22.8284 7.93328 23.1775 7.93328 23.2361C7.91315 23.6054 7.85453 23.9755 7.83616 24.3254C7.81603 24.5783 7.99102 24.6553 8.20539 24.8111L8.57462 24.3447C8.516 24.014 8.4775 23.6447 8.43813 23.314C8.38038 22.9833 8.53612 23.0034 8.59387 23.314C8.65249 23.6255 8.69099 23.9168 8.78811 24.2275C8.94385 24.014 9.00248 23.9947 8.94385 23.7418C8.88611 23.5476 8.84761 23.4111 8.78811 23.2169C8.73036 22.9833 8.69187 23.0226 8.9246 22.9448C9.13809 22.866 9.23609 22.691 9.33321 22.8861C9.42946 23.0419 9.52745 23.1976 9.60445 23.3534C9.79957 23.6246 9.79957 23.6246 10.1294 23.664C9.97402 23.4325 9.81209 23.2055 9.64382 22.9833L9.43033 22.6726C9.33321 22.5169 9.62457 22.6726 9.64382 22.6919L10.3438 23.5476C10.4995 23.7611 10.713 23.6439 10.9475 23.6439L10.8495 23.1189C10.5774 22.9054 10.3053 22.7111 10.0131 22.4977C9.74182 22.2833 9.85819 22.2255 10.1102 22.4005C10.3639 22.5948 10.6352 22.7304 10.8688 22.9255C10.8495 22.6718 10.8688 22.614 10.636 22.4775C10.3823 22.3227 9.89668 22.2448 10.0717 21.9333C10.1688 21.7391 10.0909 21.5448 10.3245 21.6227C10.5188 21.6804 10.6553 21.7189 10.8495 21.7583C11.161 21.8371 11.1601 21.8371 11.4524 21.6227C11.2188 21.5641 10.9851 21.544 10.7524 21.4862L10.363 21.4083C10.3053 21.4083 10.1111 21.2141 10.286 21.2535L11.6274 21.467ZM15.0878 21.6612L15.5551 21.0006L15.0878 20.3391L15.8464 20.592L16.3128 19.9113V20.7084L17.0915 20.9621L16.3329 21.1948V22.0304L15.8464 21.3506L15.0878 21.6612ZM5.48339 12.4837L4.7248 12.8145L4.19982 12.1924L4.27769 12.9895L3.53835 13.3395L4.33632 13.4952L4.39406 14.2914L4.80267 13.5914L5.59976 13.7866L5.05553 13.1837L5.48339 12.4837Z" fill="#FAD400"/>
</g>
<defs>
<clipPath id="clip0_1044_20837">
<rect width="42" height="42" fill="white"/>
</clipPath>
</defs>
</svg>
