<svg width="42" height="42" viewBox="0 0 42 42" fill="none" xmlns="http://www.w3.org/2000/svg">
<g id="Frame" clip-path="url(#clip0_1044_20488)">
<path id="Vector" d="M-0.000854492 21.0008C-0.000854492 30.0308 5.6989 37.7273 13.6938 40.6935L15.5225 20.9999L13.6938 1.30713C5.6989 4.27425 2.04941e-05 11.9716 2.04941e-05 20.9999L-0.000854492 21.0008Z" fill="#6DA544"/>
<path id="Vector_2" d="M41.9991 21.0009C41.9991 9.401 32.5972 0 20.9991 0C18.431 0 15.9696 0.46375 13.6946 1.30725V40.6945C15.9696 41.5389 18.431 42.0009 20.9991 42.0009C32.5972 42.0009 41.9991 32.5981 41.9991 21.0009Z" fill="#D80027"/>
<path id="Vector_3" d="M13.6946 13.6962C15.6179 13.7173 17.4553 14.4961 18.8079 15.8636C20.1605 17.2311 20.9192 19.0769 20.9192 21.0003C20.9192 22.9237 20.1605 24.7695 18.8079 26.137C17.4553 27.5045 15.6179 28.2833 13.6946 28.3044C12.7287 28.3149 11.7703 28.1338 10.8749 27.7715C9.97942 27.4092 9.16473 26.8728 8.47796 26.1936C7.79119 25.5143 7.24598 24.7055 6.87388 23.8141C6.50178 22.9226 6.31018 21.9663 6.31018 21.0003C6.31018 20.0343 6.50178 19.078 6.87388 18.1865C7.24598 17.2951 7.79119 16.4863 8.47796 15.8071C9.16473 15.1278 9.97942 14.5914 10.8749 14.2291C11.7703 13.8668 12.7287 13.6857 13.6946 13.6962Z" fill="#FFDA44"/>
<path id="Vector_4" d="M9.58557 17.3477V21.9134C9.58557 23.0029 10.0184 24.0479 10.7888 24.8183C11.5592 25.5887 12.6042 26.0215 13.6937 26.0215C14.7832 26.0215 15.8282 25.5887 16.5986 24.8183C17.369 24.0479 17.8018 23.0029 17.8018 21.9134V17.3477H9.58557Z" fill="#D80027"/>
<path id="Vector_5" d="M13.6946 23.2839C13.3314 23.2834 12.9832 23.1389 12.7265 22.882C12.4697 22.6251 12.3254 22.2768 12.3252 21.9136V20.0884H15.0639V21.9136C15.0639 22.6696 14.4506 23.283 13.6946 23.283V23.2839Z" fill="#F0F0F0"/>
</g>
<defs>
<clipPath id="clip0_1044_20488">
<rect width="42" height="42" fill="white"/>
</clipPath>
</defs>
</svg>
