<svg width="42" height="42" viewBox="0 0 42 42" fill="none" xmlns="http://www.w3.org/2000/svg">
<g id="Frame" clip-path="url(#clip0_1044_20424)">
<path id="Vector" d="M20.9314 0C32.4898 0 41.8614 9.3702 41.8614 20.93C41.8614 32.4884 32.4898 41.86 20.9314 41.86C9.3716 41.86 0 32.4884 0 20.93C0 9.3702 9.3716 0 20.9314 0Z" fill="#F0F0F0"/>
<path id="Vector_2" d="M40.5594 28.2099C41.4008 25.9419 41.8614 23.4919 41.8614 20.9299C41.8614 18.3679 41.4008 15.9179 40.5594 13.6499H1.3034C0.462 15.9179 0 18.3679 0 20.9299C0 23.4919 0.462 25.9419 1.302 28.2099L20.93 30.0299L40.5594 28.2099Z" fill="#0A4FA2"/>
<path id="Vector_3" d="M20.9313 41.86C29.9291 41.86 37.6025 36.1816 40.5593 28.21H1.30334C4.25874 36.1816 11.9307 41.86 20.9313 41.86Z" fill="#CB1428"/>
</g>
<defs>
<clipPath id="clip0_1044_20424">
<rect width="42" height="42" fill="white"/>
</clipPath>
</defs>
</svg>
