<svg width="42" height="42" viewBox="0 0 42 42" fill="none" xmlns="http://www.w3.org/2000/svg">
<g id="Frame" clip-path="url(#clip0_1044_20806)">
<path id="Vector" d="M21.0003 0C32.6001 0 42.0006 9.4014 42.0006 20.9998C42.0006 32.5986 32.6001 42 21.0003 42C9.40287 42 0 32.5986 0 20.9998C0 9.4014 9.40283 0 21.0003 0Z" fill="#FFDA44"/>
<path id="Vector_2" d="M16.436 18.2613H41.8232C40.48 7.95642 31.6704 0 21.0003 0C19.4326 0 17.9058 0.171937 16.435 0.498873V18.2613H16.436H16.436ZM10.9573 18.2613V2.55343C5.19059 5.69937 1.06236 11.4704 0.177368 18.2613H10.9573ZM10.9573 23.7387H0.177368C1.06236 30.5296 5.19059 36.2992 10.9573 39.4465V23.7387ZM16.4349 23.7387V41.5011C17.9058 41.8266 19.4327 41.9986 21.0003 41.9986C31.6704 41.9986 40.48 34.0436 41.8232 23.7387H16.4349H16.4349Z" fill="#0052B4"/>
</g>
<defs>
<clipPath id="clip0_1044_20806">
<rect width="42" height="42" fill="white"/>
</clipPath>
</defs>
</svg>
