<svg width="32" height="32" fill="none" xmlns="http://www.w3.org/2000/svg"><path d="M0 16a16 16 0 1 0 32 0 16 16 0 0 0-32 0Z" fill="#D80917"/><path d="M14.722 25.873a.667.667 0 0 1-.629-.444l-6.5-18.415A.667.667 0 0 1 8.4 6.15l13.097 3.653a.658.658 0 0 1 .234.12l2.462 1.955c.278.22.335.619.13.907L15.267 25.59a.666.666 0 0 1-.544.282ZM9.276 7.78l5.645 15.991 7.95-11.24-1.863-1.479L9.276 7.78Z" fill="#fff"/><path d="M14.723 25.874a.667.667 0 0 1-.664-.738l.98-9.078a.676.676 0 0 1 .735-.591c.366.04.63.368.59.734l-.98 9.078a.666.666 0 0 1-.661.595Z" fill="#fff"/><path d="M15.702 16.796a.665.665 0 0 1-.474-1.135l5.615-5.685a.667.667 0 0 1 .948.938l-5.615 5.684a.665.665 0 0 1-.474.198Z" fill="#fff"/><path d="M15.702 16.796a.667.667 0 0 1-.28-1.272l8.077-3.729a.666.666 0 1 1 .56 1.211l-8.077 3.729a.674.674 0 0 1-.28.06Z" fill="#fff"/><path d="M15.798 16.912a.663.663 0 0 1-.52-.25L7.702 7.21a.666.666 0 1 1 1.04-.833l7.577 9.452a.665.665 0 0 1-.52 1.083Z" fill="#fff"/></svg>