<svg width="42" height="42" viewBox="0 0 42 42" fill="none" xmlns="http://www.w3.org/2000/svg">
<g id="Frame" clip-path="url(#clip0_1044_20518)">
<path id="Vector" d="M0.288452 21.2427C0.288452 26.8122 2.50095 32.1537 6.43921 36.0919C10.3775 40.0302 15.7189 42.2427 21.2885 42.2427C26.858 42.2427 32.1994 40.0302 36.1377 36.0919C40.076 32.1537 42.2885 26.8122 42.2885 21.2427C42.2885 15.6731 40.076 10.3317 36.1377 6.39343C32.1994 2.45517 26.858 0.242676 21.2885 0.242676C15.7189 0.242676 10.3775 2.45517 6.43921 6.39343C2.50095 10.3317 0.288452 15.6731 0.288452 21.2427Z" fill="#E30A17"/>
<path id="Vector_2" d="M27.4387 14.3348C26.5902 13.3811 25.5496 12.6177 24.3851 12.0946C23.2207 11.5716 21.9587 11.3007 20.6822 11.2999C19.0899 11.2999 17.5267 11.7199 16.1499 12.5179C14.7712 13.3175 13.627 14.4656 12.8322 15.847C12.0373 17.2284 11.6197 18.7945 11.6212 20.3883C11.6202 21.982 12.0381 23.5479 12.8329 24.9292C13.6277 26.3105 14.7716 27.4587 16.1499 28.2587C17.9521 29.3026 20.0595 29.6921 22.1158 29.3614C24.1721 29.0306 26.0511 28 27.4351 26.4436C26.4445 27.9348 25.1005 29.1578 23.5227 30.0037C21.945 30.8496 20.1825 31.2921 18.3923 31.2919C12.3863 31.2919 7.51978 26.4107 7.51978 20.3883C7.51978 14.364 12.3863 9.48291 18.3923 9.48291C20.1833 9.48224 21.9466 9.92477 23.5251 10.771C25.1035 11.6173 26.448 12.841 27.4387 14.333V14.3348ZM34.6061 23.1621L31.6497 22.0153L29.6483 24.5974L29.8382 21.3452L26.7868 20.1984L29.9332 19.3365L30.0299 16.181L31.8414 18.858L34.8928 17.998L32.8914 20.4833L34.608 23.1621H34.6061Z" fill="white"/>
</g>
<defs>
<clipPath id="clip0_1044_20518">
<rect width="42" height="42" fill="white"/>
</clipPath>
</defs>
</svg>
