<svg width="48" height="48" fill="none" xmlns="http://www.w3.org/2000/svg"><g clip-path="url(#a)"><path d="M0 24a24 24 0 1 0 48 0 24 24 0 0 0-48 0Z" fill="#1296DB"/><path d="M25.586 28.542v-8.79h1.155c3.817 0 4.758-3.56 4.758-3.56H21.474c-4.758 0-5.565 3.561-5.565 3.561h5.915V32.98s3.762-1.13 3.762-4.437Z" fill="#fff"/><path d="M36.593 35.391c3.371-3.504 4.664-8.37 3.451-13.024a14.01 14.01 0 0 0-3.72-6.42c-.162-.16-.324-.321-.513-.48l-.162-.16a3.286 3.286 0 0 0-.351-.295l-.216-.16-.322-.24-.191-.135a6.154 6.154 0 0 1-.377-.267l-.244-.16a1.837 1.837 0 0 0-.322-.187l-.243-.16c-.108-.054-.217-.135-.325-.188l-.242-.135c-.108-.052-.217-.106-.352-.159l-.082-.027c.297.24.593.509.863.776a13.126 13.126 0 0 1 0 18.64c-6.58 6.525-17.258 6.525-23.84 0-.243-.24-.459-.48-.7-.72l-.19-.214a8.598 8.598 0 0 1-.405-.509 17.781 17.781 0 0 0 3.264 4.493c6.876 6.819 18.04 6.819 24.915 0a.921.921 0 0 0 .303-.27v.001Z" fill="#fff"/><path d="M15.6 33.579c-.3-.245-.588-.504-.864-.776a13.138 13.138 0 0 1 0-18.658c6.587-6.531 17.274-6.531 23.86 0 .46.456.89.937 1.295 1.446a17.673 17.673 0 0 0-3.265-4.47c-6.882-6.827-18.057-6.827-24.94 0-.08.08-.162.187-.27.267C6.855 16.153 6.234 23.274 9.88 28.68c1.431 2.085 3.426 3.825 5.721 4.898Z" fill="#fff"/></g><defs><clipPath id="a"><path fill="#fff" d="M0 0h48v48H0z"/></clipPath></defs></svg>