<svg width="48" height="48" viewBox="0 0 48 48" fill="none" xmlns="http://www.w3.org/2000/svg">
<g clip-path="url(#clip0_1632_9490)">
<path d="M0 24C-4.69644e-08 27.1517 0.620778 30.2726 1.82689 33.1844C3.033 36.0962 4.80083 38.742 7.02944 40.9706C9.25804 43.1992 11.9038 44.967 14.8156 46.1731C17.7274 47.3792 20.8483 48 24 48C27.1517 48 30.2726 47.3792 33.1844 46.1731C36.0962 44.967 38.742 43.1992 40.9706 40.9706C43.1992 38.742 44.967 36.0962 46.1731 33.1844C47.3792 30.2726 48 27.1517 48 24C48 20.8483 47.3792 17.7274 46.1731 14.8156C44.967 11.9038 43.1992 9.25804 40.9706 7.02944C38.742 4.80083 36.0962 3.033 33.1844 1.82689C30.2726 0.620778 27.1517 0 24 0C20.8483 0 17.7274 0.620778 14.8156 1.82689C11.9038 3.033 9.25804 4.80083 7.02944 7.02944C4.80083 9.25804 3.033 11.9038 1.82689 14.8156C0.620778 17.7274 -4.69644e-08 20.8483 0 24Z" fill="white"/>
<path d="M24 42C14.0586 42 6 33.9414 6 24C6 14.0586 14.0586 6 24 6C33.9414 6 42 14.0586 42 24C42 33.9414 33.9414 42 24 42ZM24 16.3626L16.3626 24L24 31.6374L31.6356 24L24 16.3626Z" fill="#0E0F18"/>
</g>
<defs>
<clipPath id="clip0_1632_9490">
<rect width="48" height="48" fill="white"/>
</clipPath>
</defs>
</svg>
