<svg width="32" height="32" fill="none" xmlns="http://www.w3.org/2000/svg"><g clip-path="url(#a)"><path d="M31.971 15.995c0 8.793-7.127 15.92-15.92 15.92S.131 24.788.131 15.995 7.258.075 16.05.075s15.92 7.127 15.92 15.92Z" fill="#1BA27A"/><path d="M23.523 8.102H8.448v3.64h5.718v5.349h3.639v-5.35h5.718V8.103Z" fill="#fff"/><path d="M16.02 17.66c-4.73 0-8.565-.748-8.565-1.672 0-.923 3.835-1.672 8.565-1.672 4.73 0 8.564.749 8.564 1.672 0 .924-3.834 1.672-8.564 1.672Zm9.617-1.393c0-1.19-4.306-2.156-9.617-2.156-5.311 0-9.617.965-9.617 2.156 0 1.049 3.339 1.922 7.763 2.116v7.679h3.639v-7.676c4.458-.188 7.832-1.065 7.832-2.12Z" fill="#fff"/><g clip-path="url(#b)"><path d="M16 0h-.094C7.116 0 0 7.134 0 15.906V16h16V0Z" fill="#2F0F7D"/><path d="M15.981 13.61V16H32c0-.81-.056-1.619-.17-2.39H15.982Z" fill="#DE001A"/><path d="M31.266 11.219H15.98v2.39h15.83a14.676 14.676 0 0 0-.545-2.39Z" fill="#fff"/><path d="M30.306 8.828H15.98v2.39h15.285c-.245-.828-.584-1.618-.96-2.39Z" fill="#DE001A"/><path d="M28.838 6.438H15.98v2.39h14.325a18.064 18.064 0 0 0-1.468-2.39Z" fill="#fff"/><path d="M26.635 4.047H15.981v2.39H28.82a15.46 15.46 0 0 0-2.184-2.39Z" fill="#DE001A"/><path d="M23.096 1.657h-7.115v2.39h10.654a16.24 16.24 0 0 0-3.539-2.39Z" fill="#fff"/><path d="M8.903 30.344h14.193a16.7 16.7 0 0 0 3.54-2.39H5.364a16.238 16.238 0 0 0 3.538 2.39Z" fill="#DE001A"/><path d="M5.365 27.953h21.27a15.46 15.46 0 0 0 2.184-2.39H3.162a16.59 16.59 0 0 0 2.203 2.39ZM16 32c2.541 0 4.97-.602 7.096-1.656H8.903A16.002 16.002 0 0 0 16 32Z" fill="#fff"/><path d="M3.162 25.563H28.82a16.392 16.392 0 0 0 1.487-2.391H1.694c.433.847.923 1.637 1.468 2.39Z" fill="#DE001A"/><path d="M1.694 23.172h28.612c.376-.772.715-1.563.96-2.39H.734c.245.828.583 1.618.96 2.39Z" fill="#fff"/><path d="M.734 20.782h30.55c.245-.772.434-1.563.547-2.39H.169c.132.827.32 1.618.565 2.39Z" fill="#DE001A"/><path d="M31.83 18.39c.114-.771.17-1.58.17-2.39H0c0 .81.056 1.619.17 2.39h31.66Z" fill="#fff"/><path d="M23.096 1.656A16.001 16.001 0 0 0 16 0h-.019v1.656h7.115Z" fill="#DE001A"/><path d="m2.635 9.054-.282.565-.64.094.47.452-.113.621.565-.301.565.301-.113-.621.452-.452-.64-.094-.264-.565Zm.282 5.12-.282-.564-.282.564-.64.094.47.452-.113.621.565-.3.565.3-.113-.62.452-.453-.622-.094Zm1.318-5.779.565-.3.565.3-.095-.64.452-.451-.64-.076-.282-.564-.283.564-.64.094.452.452-.094.621Zm1.487 3.596-.64-.094-.282-.565-.283.565-.64.094.452.452-.113.62.565-.3.565.3-.076-.62.452-.452Zm4.838-7.624-.283.565-.64.094.471.452-.113.64.565-.301.565.3-.113-.64.451-.451-.64-.094-.263-.565Zm-.565-2.485.565-.3.565.3-.113-.62.451-.453-.32-.056c-.376.113-.753.264-1.129.414l.094.094c-.019-.019-.113.621-.113.621Zm.565 7.172-.283.565-.64.094.471.452-.113.621.565-.301.565.301-.095-.621.452-.452-.64-.094-.282-.565Zm.282 5.12-.282-.564-.283.564-.64.094.471.452-.113.621.565-.3.565.3-.113-.62.451-.453-.62-.094Zm1.318-5.779.565-.3.564.3-.113-.64.452-.451-.64-.094-.282-.565-.283.565-.64.094.452.451-.075.64Zm0-4.235.565-.301.564.301-.113-.621.452-.452-.64-.094-.282-.565-.283.565-.64.094.452.452-.075.621Zm1.506 7.83-.64-.093-.283-.565-.282.565-.64.094.452.452-.113.62.565-.3.564.3-.113-.62.49-.452ZM1.148 13.065l-.113-.621.452-.452-.64-.094-.207-.415c-.132.471-.245.942-.358 1.431l.264-.15c.019 0 .602.3.602.3Zm5.497-8.697-.283.565-.64.094.452.452-.113.64.565-.301.564.3-.113-.64.452-.451-.64-.094-.244-.565Zm0 4.687-.283.565-.64.094.452.452-.113.621.565-.301.564.301-.075-.621.452-.452-.64-.094-.282-.565Zm.282 5.12-.282-.564-.283.564-.64.094.452.452-.113.621.565-.3.564.3-.113-.62.452-.453-.602-.094Zm1.318-5.779.564-.3.565.3-.113-.64.47-.451-.64-.094-.282-.565-.282.565-.621.112.47.452-.131.621Zm0-4.235.564-.301.565.301-.113-.621.47-.452-.64-.094-.282-.565-.282.565-.621.094.47.452-.131.621Zm1.505 7.83-.64-.093-.282-.565-.282.565-.64.094.47.452-.113.62.565-.3.565.3-.113-.62.47-.452Zm4.725-7.623-.282.565-.64.113.452.452-.113.64.564-.302.565.302-.113-.64.47-.452-.64-.094-.263-.584Zm0-4.235-.282.583-.64.094.452.452-.095.621.565-.3.565.3-.113-.62.47-.453-.64-.094-.282-.583Zm0 8.922-.282.565-.64.094.452.452-.113.621.564-.301.565.301-.094-.621.47-.452-.64-.094-.282-.565Zm.283 5.12-.283-.564-.282.564-.64.094.452.452-.113.621.564-.3.565.3-.113-.62.47-.453-.62-.094Z" fill="#fff"/></g></g><defs><clipPath id="a"><path fill="#fff" d="M0 0h32v32H0z"/></clipPath><clipPath id="b"><path fill="#fff" d="M0 0h32v32H0z"/></clipPath></defs></svg>