<svg width="48" height="48" fill="none" xmlns="http://www.w3.org/2000/svg"><g clip-path="url(#a)"><path d="M0 24c0 13.245 10.755 24 24 24s24-10.755 24-24S37.245 0 24 0 0 10.755 0 24Z" fill="#2775C9"/><path d="M22.56 15.09v-1.508c0-.802.638-1.44 1.44-1.44.802 0 1.44.638 1.44 1.44v1.493c2.61.383 4.387 1.875 4.867 3.983a.859.859 0 0 1-.637 1.027c-.068.015-.128.015-.195.015h-.788c-.622 0-1.2-.367-1.47-.93-.494-1.058-1.68-1.665-3.247-1.665-1.965 0-3.277.96-3.277 2.4 0 1.155.877 1.822 3.007 2.332l2.003.466c3.517.802 5.01 2.257 5.01 4.845 0 2.865-2.003 4.8-5.28 5.265v1.724a1.43 1.43 0 0 1-1.44 1.44 1.43 1.43 0 0 1-1.44-1.44v-1.71c-2.91-.352-4.883-1.89-5.326-4.237a.699.699 0 0 1 .563-.832c.045-.015.098-.015.143-.015h1.184c.525 0 1.028.307 1.245.787.548 1.155 1.936 1.852 3.683 1.852 2.092 0 3.555-1.042 3.555-2.482 0-1.245-.893-1.965-3.075-2.497l-2.258-.525c-3.202-.736-4.717-2.273-4.717-4.756 0-2.647 2.017-4.567 5.01-5.032ZM6 24c0-7.935 5.182-14.67 12.367-17.04a.866.866 0 0 1 1.133.817v.51c0 .765-.465 1.47-1.185 1.763-5.52 2.242-9.428 7.635-9.428 13.95 0 6.308 3.886 11.715 9.405 13.935.72.285 1.2.99 1.2 1.777v.413a.914.914 0 0 1-1.2.87C11.152 38.64 6 31.92 6 24Zm36 0c0 7.905-5.123 14.61-12.24 16.995a.96.96 0 0 1-1.215-.592 1.09 1.09 0 0 1-.045-.308v-.337c0-.803.48-1.523 1.215-1.823 5.505-2.242 9.39-7.635 9.39-13.935 0-6.285-3.87-11.678-9.375-13.92a1.99 1.99 0 0 1-1.23-1.838v-.307c0-.525.435-.96.96-.96.113 0 .21.015.307.045C36.877 9.405 42 16.11 42 24Z" fill="#fff"/></g><defs><clipPath id="a"><path fill="#fff" d="M0 0h48v48H0z"/></clipPath></defs></svg>