<svg width="32" height="32" fill="none" xmlns="http://www.w3.org/2000/svg"><g clip-path="url(#a)"><path d="M31.971 15.995c0 8.793-7.127 15.92-15.92 15.92S.13 24.788.13 15.995 7.257.075 16.05.075s15.92 7.127 15.92 15.92Z" fill="#1BA27A"/><path d="M23.523 8.102H8.448v3.64h5.718v5.349h3.64v-5.35h5.717V8.103Z" fill="#fff"/><path d="M16.02 17.66c-4.73 0-8.565-.748-8.565-1.672 0-.923 3.835-1.672 8.565-1.672 4.73 0 8.564.749 8.564 1.672 0 .924-3.834 1.672-8.564 1.672Zm9.617-1.393c0-1.19-4.306-2.156-9.617-2.156-5.311 0-9.617.965-9.617 2.156 0 1.049 3.339 1.922 7.763 2.116v7.679h3.639v-7.676c4.458-.188 7.832-1.065 7.832-2.12Z" fill="#fff"/><g clip-path="url(#b)"><path d="M31.971 15.995c0 8.793-7.127 15.92-15.92 15.92S.13 24.788.13 15.995 7.257.075 16.05.075s15.92 7.127 15.92 15.92Z" fill="#1BA27A"/><path d="M23.523 8.102H8.448v3.64h5.718v5.349h3.64v-5.35h5.717V8.103Z" fill="#fff"/><path d="M16.02 17.66c-4.73 0-8.565-.748-8.565-1.672 0-.923 3.835-1.672 8.565-1.672 4.73 0 8.564.749 8.564 1.672 0 .924-3.834 1.672-8.564 1.672Zm9.617-1.393c0-1.19-4.306-2.156-9.617-2.156-5.311 0-9.617.965-9.617 2.156 0 1.049 3.339 1.922 7.763 2.116v7.679h3.639v-7.676c4.458-.188 7.832-1.065 7.832-2.12Z" fill="#fff"/></g></g><defs><clipPath id="a"><path fill="#fff" d="M0 0h32v32H0z"/></clipPath><clipPath id="b"><path fill="#fff" d="M0 0h32v32H0z"/></clipPath></defs></svg>