<svg width="42" height="42" viewBox="0 0 42 42" fill="none" xmlns="http://www.w3.org/2000/svg">
<g id="Frame" clip-path="url(#clip0_1044_20554)">
<path id="Vector" d="M0 21C0 26.5695 2.21249 31.911 6.15076 35.8492C10.089 39.7875 15.4305 42 21 42C26.5695 42 31.911 39.7875 35.8492 35.8492C39.7875 31.911 42 26.5695 42 21C42 15.4305 39.7875 10.089 35.8492 6.15076C31.911 2.21249 26.5695 0 21 0C15.4305 0 10.089 2.21249 6.15076 6.15076C2.21249 10.089 0 15.4305 0 21Z" fill="#F42F4C"/>
<path id="Vector_2" d="M21 25.8746L27.93 30.8018L25.2945 22.792L32.1983 17.6803H23.66L21 9.80176L18.4179 17.6803H9.80176L16.6793 22.792L14.07 30.8018L21 25.8746Z" fill="#FFE62E"/>
</g>
<defs>
<clipPath id="clip0_1044_20554">
<rect width="42" height="42" fill="white"/>
</clipPath>
</defs>
</svg>
