<svg width="48" height="48" fill="none" xmlns="http://www.w3.org/2000/svg"><g clip-path="url(#a)"><path d="M47.276 29.806C44.072 42.663 31.05 50.487 18.19 47.282 5.337 44.076-2.488 31.052.72 18.197 3.923 5.338 16.945-2.487 29.8.718c12.858 3.206 20.682 16.23 17.476 29.088Z" fill="#23292F"/><path d="M35.8 10h4.844l-10.08 9.98c-3.65 3.612-9.567 3.612-13.22 0L7.262 10h4.847l7.658 7.58a5.963 5.963 0 0 0 8.371 0L35.801 10ZM12.048 37.75H7.2l10.144-10.041c3.65-3.612 9.568-3.612 13.22 0l10.146 10.04h-4.844l-7.722-7.642a5.964 5.964 0 0 0-8.372 0l-7.725 7.643Z" fill="#fff"/></g><defs><clipPath id="a"><path fill="#fff" d="M0 0h48v48H0z"/></clipPath></defs></svg>