<svg width="48" height="48" fill="none" xmlns="http://www.w3.org/2000/svg"><g clip-path="url(#a)"><path d="M24 0c13.255 0 24 10.745 24 24S37.255 48 24 48 0 37.254 0 24C0 10.745 10.745 0 24 0Z" fill="#445EDD"/><path d="M19.5 15V9h-3v6h-3.75v3h3.75v7.5a6 6 0 0 0 10 4.471l-2-2.235a3 3 0 0 1-5-2.236V18h9.938l-6.188 5.962v2.288h1.5c4.6 0 7.5 3.27 7.5 6 0 2.825-2.44 5.25-5.625 5.25-2.735 0-4.94-1.803-5.49-4.1l-2.918.7c.893 3.715 4.36 6.4 8.408 6.4 4.686 0 8.625-3.618 8.625-8.25 0-3.848-3.051-7.398-7.371-8.583l6.621-6.38V15h-15Z" fill="#fff"/></g><defs><clipPath id="a"><path fill="#fff" d="M0 0h48v48H0z"/></clipPath></defs></svg>