<svg width="30" height="30" viewBox="0 0 30 30" fill="none" xmlns="http://www.w3.org/2000/svg">
<path d="M25.5333 3.4668H4.19995C3.06662 3.4668 2.19995 4.33346 2.19995 5.4668V24.0668C2.19995 25.1335 3.06662 26.0668 4.19995 26.0668H25.5333C26.6 26.0668 27.5333 25.1335 27.5333 24.0668V5.4668C27.5333 4.40013 26.6666 3.4668 25.5333 3.4668ZM8.73328 6.8668C9.86662 6.8668 10.8666 7.80013 10.8666 9.00013C10.8666 10.2001 9.93328 11.1335 8.73328 11.1335C7.59995 11.1335 6.59995 10.2001 6.59995 9.00013C6.59995 7.80013 7.59995 6.8668 8.73328 6.8668ZM7.19995 23.0668C6.99995 23.0668 6.79995 23.0001 6.59995 22.8668C6.19995 22.5335 6.19995 22.0668 6.53328 21.6668L10.6666 15.8668C11 15.5335 11.4666 15.4668 11.8666 15.7335L15.4666 18.2668L21.9333 11.3335C22.2666 11.0001 23.8666 9.2668 24.8 11.2001V23.0001C24.8 23.0668 7.19995 23.0668 7.19995 23.0668Z" fill="#666D80"/>
</svg>
