<svg width="30" height="30" viewBox="0 0 30 30" fill="none" xmlns="http://www.w3.org/2000/svg">
<path d="M26.8217 4.18458L2.87734 13.4242C1.52797 13.9449 1.56177 14.7016 2.94615 15.1124L8.73163 16.829L11.0839 23.8284C11.3919 24.7447 12.1964 24.938 12.8846 24.2562L15.9193 21.25L21.9098 25.6399C22.6881 26.2102 23.4882 25.9101 23.6983 24.9634L28.0697 5.26581C28.2792 4.32186 27.7213 3.83748 26.8217 4.18458ZM23.178 8.63814L12.9645 17.7381C12.7808 17.9017 12.6146 18.2259 12.5891 18.466L12.1382 22.7052C12.0876 23.1812 11.9235 23.2008 11.7721 22.7446L9.79582 16.7874C9.71851 16.5543 9.82441 16.2687 10.0308 16.1449L22.9834 8.3759C23.8088 7.88084 23.8967 7.99775 23.178 8.63814Z" fill="#97E180"/>
</svg>
