<svg width="40" height="40" fill="none" xmlns="http://www.w3.org/2000/svg"><circle cx="20" cy="20" r="20" fill="#00A609" fill-opacity=".1"/><path d="M2 20c0 9.938 8.062 18 18 18s18-8.062 18-18S29.938 2 20 2 2 10.062 2 20Z" fill="#6C8CD6"/><path d="M17.288 24.873h5.647v4.66H17.27l.02-4.66Zm-3.585-6.238c0 .829-.502 1.5-1.133 1.5-.632 0-1.132-.671-1.132-1.5s.502-1.5 1.133-1.5c.632 0 1.133.671 1.133 1.5m15.102-.02c0 .828-.501 1.5-1.133 1.5-.631 0-1.134-.674-1.134-1.5 0-.828.501-1.501 1.133-1.501.631 0 1.134.692 1.134 1.5Z" fill="#F8ECEC"/><path d="M17.288 25.541s1.078.558 2.62.558c1.82.074 3.008-.539 3.008-.539v.557s-2.005 1.077-2.897 1.077c-.91 0-2.732-1.263-2.732-1.263l.001-.39Z" fill="#E9CFCF"/><path d="M33.133 32.281c-.91-.724-2.536-2.77-4.245-3.588-2.768-1.355-5.972-.96-5.972-.96v.09c-.223.242-1.319 1.319-2.805 1.319-1.468 0-2.582-1.002-2.823-1.263l-.019-.13s-3.534-.414-6.32.941c-1.894.93-3.245 2.958-4.063 3.663A17.856 17.856 0 0 0 19.981 38c5.202-.019 9.882-2.21 13.152-5.719Z" fill="#485B80"/><path d="M27.486 17.414c0 1.92-.581 4.523-1.557 5.93-1.346 1.938-4.38 2.833-5.799 2.833-1.435 0-4.165-.73-5.512-2.445-1.148-1.461-1.844-4.216-1.844-6.316 0-4.567 3.288-8.28 7.356-8.28s7.356 3.713 7.356 8.28" fill="#F8ECEC"/><path d="M28.137 13.622s-.064-2.859-1.695-4.896c-1.14-1.423-4.77-2.456-7.37-2.251 0 0-5.094.203-5.2 3.585-.93.557-1.887 1.518-1.99 3.133-.203 3.25.372 4.104.372 4.104s.817 0 1.022 1.225c0 0 .372.223.408 0 .055-.372-.334-2.154.445-3.788a8.52 8.52 0 0 1 .286-.555c2.554-2.839 10.044-2.545 11.8.56.071.216.123.438.155.664.148 1.06.334 3.063.334 3.063s.279.185.465-.26c.185-.464.148-.91.316-1.04.949-.63.707-3.265.652-3.544Z" fill="#485B80"/></svg>