<svg width="8" height="14" viewBox="0 0 8 14" fill="none" xmlns="http://www.w3.org/2000/svg">
<path d="M7.74171 12.517L2.13797 7L7.74172 1.483C8.08609 1.14395 8.08609 0.593335 7.74172 0.254287C7.39734 -0.0847622 6.83806 -0.0847622 6.49368 0.254286L0.358217 6.29478C0.325156 6.31919 0.292097 6.34903 0.259036 6.37886C0.085469 6.54974 6.21695e-05 6.77487 6.21597e-05 7C-0.00269254 7.22513 0.0854689 7.45026 0.259036 7.62114C0.289342 7.65097 0.322402 7.68081 0.358217 7.70522L6.49368 13.7457C6.83806 14.0848 7.39734 14.0848 7.74171 13.7457C8.08609 13.4067 8.08609 12.856 7.74171 12.517Z" fill="white"/>
</svg>
