<svg width="16" height="16" fill="none" xmlns="http://www.w3.org/2000/svg"><g clip-path="url(#a)" fill="#666D80"><path d="M13.684 15.04H2.392A1.553 1.553 0 0 1 .84 13.49V3.75c0-.856.696-1.552 1.552-1.552h11.292c.852 0 1.548.696 1.548 1.548v9.74c0 .856-.696 1.552-1.548 1.552ZM2.392 3.16a.593.593 0 0 0-.592.591v9.74c0 .324.264.588.588.588H13.68a.589.589 0 0 0 .588-.588v-9.74a.589.589 0 0 0-.588-.588H2.392V3.16Z"/><path d="M14.74 7.112H1.44a.481.481 0 0 1-.48-.48c0-.264.217-.48.48-.48h13.3a.48.48 0 0 1 0 .96Zm-9.943-2.58a.478.478 0 0 1-.48-.476l-.02-2.812c0-.264.212-.48.476-.484.264 0 .48.212.484.476l.02 2.812c0 .264-.212.48-.48.484Zm6.404 0a.478.478 0 0 1-.48-.476l-.02-2.812c0-.264.212-.48.476-.484h.004c.264 0 .48.212.48.476l.02 2.812a.48.48 0 0 1-.48.484c.004 0 .004 0 0 0ZM5.325 9.64h-1.64a.481.481 0 0 1-.48-.48c0-.264.216-.48.48-.48h1.64c.264 0 .48.216.48.48s-.216.48-.48.48Zm0 2.48h-1.64a.481.481 0 0 1-.48-.48c0-.264.216-.48.48-.48h1.64c.264 0 .48.216.48.48s-.216.48-.48.48ZM8.72 9.644H7.08a.481.481 0 0 1-.48-.48c0-.264.216-.48.48-.48h1.64c.264 0 .48.216.48.48s-.216.48-.48.48Zm0 2.476H7.08a.481.481 0 0 1-.48-.48c0-.264.216-.48.48-.48h1.64c.264 0 .48.216.48.48s-.216.48-.48.48Zm3.576-2.476h-1.64a.481.481 0 0 1-.48-.48c0-.264.216-.48.48-.48h1.64c.264 0 .48.216.48.48s-.216.48-.48.48Zm0 2.476h-1.64a.481.481 0 0 1-.48-.48c0-.264.216-.48.48-.48h1.64c.264 0 .48.216.48.48s-.216.48-.48.48Z"/></g><defs><clipPath id="a"><path fill="#fff" d="M0 0h16v16H0z"/></clipPath></defs></svg>