<svg width="35" height="35" fill="none" xmlns="http://www.w3.org/2000/svg"><circle cx="17.5" cy="17.5" r="17.5" fill="#fff"/><path d="M16.967 14.975a2.866 2.866 0 0 0-2.863 2.863 2.865 2.865 0 0 0 2.863 2.863 2.865 2.865 0 0 0 2.863-2.863 2.866 2.866 0 0 0-2.863-2.863Z" fill="#171717"/><path d="M22.824 12.424h-.562a.433.433 0 0 1-.375-.219l-.805-1.43a1.526 1.526 0 0 0-1.328-.777H14.18c-.551 0-1.059.297-1.328.777l-.803 1.43a.43.43 0 0 1-.375.219h-.563a2.894 2.894 0 0 0-2.89 2.89v5.825a2.894 2.894 0 0 0 2.89 2.89h11.713a2.894 2.894 0 0 0 2.89-2.89v-5.824a2.894 2.894 0 0 0-2.89-2.891Zm-5.857 9.369a3.962 3.962 0 0 1-3.957-3.957 3.962 3.962 0 0 1 3.957-3.957 3.962 3.962 0 0 1 3.957 3.957 3.962 3.962 0 0 1-3.957 3.957Z" fill="#171717"/></svg>