<svg width="16" height="15" fill="none" xmlns="http://www.w3.org/2000/svg"><path d="M12.218 3.447H3.785a.193.193 0 0 0-.193.189v8.681a1.04 1.04 0 0 0 1.052 1.026h6.724c.277 0 .538-.107.732-.296.193-.189.303-.451.303-.722V3.628c.008-.099-.076-.18-.185-.18ZM6.31 10.561a.375.375 0 0 1-.11.263.373.373 0 0 1-.269.106.372.372 0 0 1-.378-.369V6c0-.205.168-.37.378-.37s.379.165.379.37v4.562Zm2.07 0c0 .205-.168.37-.378.37a.372.372 0 0 1-.38-.37V6c0-.205.17-.37.38-.37s.378.165.378.37v4.562Zm2.079 0c0 .205-.168.37-.379.37a.387.387 0 0 1-.387-.378V5.999c0-.205.168-.37.387-.37.21 0 .379.165.379.37v4.562Z" fill="#fff"/><path d="M13.84 3.068h-2.768v-.73c0-.5-.421-.902-.926-.902H5.879a.917.917 0 0 0-.925.902v.73H2.16a.426.426 0 0 0-.43.419c0 .23.194.418.43.418h11.68c.236 0 .43-.188.43-.418a.426.426 0 0 0-.43-.419Zm-3.627 0H5.812v-.804h4.401v.804Z" fill="#fff"/></svg>