<svg width="9" height="9" fill="none" xmlns="http://www.w3.org/2000/svg"><path d="M7.722 8.495a.644.644 0 0 1-.469-.2L.384 1.131a.645.645 0 0 1-.18-.463.645.645 0 0 1 .2-.456L.412.205c.12-.116.28-.18.449-.18.18 0 .346.07.469.2l6.869 7.164a.65.65 0 0 1-.02.918l-.007.008a.647.647 0 0 1-.45.18ZM.861.03c.178 0 .343.07.465.198l6.869 7.165a.64.64 0 0 1 .178.459.64.64 0 0 1-.197.451l-.008.008a.64.64 0 0 1-.446.178.638.638 0 0 1-.465-.197L.388 1.127A.64.64 0 0 1 .21.667a.64.64 0 0 1 .197-.45L.415.208A.64.64 0 0 1 .861.03Zm0-.01A.652.652 0 0 0 .408.2L.4.208a.657.657 0 0 0-.02.926L7.25 8.3a.653.653 0 0 0 .925.02l.008-.008a.657.657 0 0 0 .02-.926L1.333.22a.653.653 0 0 0-.472-.2ZM.662 8.403a.644.644 0 0 1-.47-.199l-.007-.008a.645.645 0 0 1-.18-.463.645.645 0 0 1 .2-.455L7.603.185c.12-.116.28-.18.449-.18a.64.64 0 0 1 .469.2l.008.007c.119.125.183.29.18.464a.645.645 0 0 1-.2.455L1.111 8.223a.646.646 0 0 1-.449.18ZM8.052.011c.178 0 .343.07.465.197l.007.008a.64.64 0 0 1 .179.46.64.64 0 0 1-.198.45L1.107 8.22a.64.64 0 0 1-.445.178.638.638 0 0 1-.465-.198l-.008-.007a.64.64 0 0 1-.178-.46.64.64 0 0 1 .197-.451L7.606.189a.64.64 0 0 1 .446-.178Zm0-.011a.652.652 0 0 0-.453.181L.2 7.274a.657.657 0 0 0-.02.926l.008.008a.653.653 0 0 0 .926.02l7.398-7.093a.657.657 0 0 0 .02-.926L8.524.2a.653.653 0 0 0-.472-.2Z" fill="#E8503A"/></svg>