<svg width="26" height="26" viewBox="0 0 26 26" fill="none" xmlns="http://www.w3.org/2000/svg">
<path d="M17.8859 2.00082C19.1631 2.00447 20.3868 2.52113 21.2886 3.43755C22.1904 4.35396 22.6969 5.59534 22.6969 6.88952C22.6969 8.18371 22.1904 9.42508 21.2886 10.3415C20.3868 11.2579 19.1631 11.7746 17.8859 11.7782C17.209 11.7369 16.5428 11.5869 15.9123 11.3338C16.1389 10.1055 16.0344 8.83802 15.6099 7.66481C15.1853 6.49161 14.4565 5.45612 13.5 4.66739C13.9109 3.85104 14.54 3.16817 15.3155 2.69668C16.091 2.22519 16.9817 1.98407 17.8859 2.00082ZM9.11405 4.8896C10.0683 4.8896 11.001 5.17631 11.7944 5.71349C12.5878 6.25067 13.2062 7.01419 13.5714 7.90749C13.9365 8.80078 14.0321 9.78374 13.8459 10.7321C13.6597 11.6804 13.2002 12.5515 12.5255 13.2352C11.8508 13.9189 10.9911 14.3845 10.0553 14.5731C9.1194 14.7617 8.14934 14.6649 7.26777 14.2949C6.3862 13.9249 5.6327 13.2983 5.10258 12.4944C4.57245 11.6904 4.28949 10.7452 4.28949 9.77832C4.30094 8.48534 4.81291 7.2486 5.71522 6.33429C6.61753 5.41998 7.83804 4.90119 9.11405 4.8896ZM14.3771 24H4.0702C2.97375 24 1.00005 23.1112 1.00005 22.2223C0.996855 21.4335 1.14782 20.6518 1.44425 19.9225C1.74068 19.1931 2.17669 18.5304 2.72715 17.9726C3.2776 17.4148 3.9316 16.973 4.65141 16.6726C5.37122 16.3722 6.1426 16.2193 6.92106 16.2225H11.0877C11.8662 16.2193 12.6375 16.3722 13.3574 16.6726C14.0772 16.973 14.7312 17.4148 15.2816 17.9726C15.8321 18.5304 16.2681 19.1931 16.5645 19.9225C16.861 20.6518 17.0119 21.4335 17.0087 22.2223C17.228 23.3333 15.2543 24 14.3771 24ZM22.9297 21.1112H19.6403C19.2697 19.6538 18.4942 18.3347 17.4057 17.3106C16.3173 16.2865 14.9618 15.6004 13.5 15.3337C14.1959 14.7764 14.7898 14.0994 15.2543 13.3337H20.0789C20.8574 13.3305 21.6287 13.4835 22.3486 13.7838C23.0684 14.0842 23.7224 14.526 24.2728 15.0838C24.8233 15.6416 25.2593 16.3043 25.5557 17.0337C25.8522 17.7631 26.0031 18.5447 26 19.3335C26 20.2224 24.0262 21.1112 22.9297 21.1112Z" fill="url(#paint0_linear_481_5187)"/>
<mask id="mask0_481_5187" style="mask-type:alpha" maskUnits="userSpaceOnUse" x="1" y="2" width="25" height="22">
<path d="M17.8859 2.00082C19.1631 2.00447 20.3868 2.52113 21.2886 3.43755C22.1904 4.35396 22.6969 5.59534 22.6969 6.88952C22.6969 8.18371 22.1904 9.42508 21.2886 10.3415C20.3868 11.2579 19.1631 11.7746 17.8859 11.7782C17.209 11.7369 16.5428 11.5869 15.9123 11.3338C16.1389 10.1055 16.0344 8.83802 15.6099 7.66481C15.1853 6.49161 14.4565 5.45612 13.5 4.66739C13.9109 3.85104 14.54 3.16817 15.3155 2.69668C16.091 2.22519 16.9817 1.98407 17.8859 2.00082ZM9.11405 4.8896C10.0683 4.8896 11.001 5.17631 11.7944 5.71349C12.5878 6.25067 13.2062 7.01419 13.5714 7.90749C13.9365 8.80078 14.0321 9.78374 13.8459 10.7321C13.6597 11.6804 13.2002 12.5515 12.5255 13.2352C11.8508 13.9189 10.9911 14.3845 10.0553 14.5731C9.1194 14.7617 8.14934 14.6649 7.26777 14.2949C6.3862 13.9249 5.6327 13.2983 5.10258 12.4944C4.57245 11.6904 4.28949 10.7452 4.28949 9.77832C4.30094 8.48534 4.81291 7.2486 5.71522 6.33429C6.61753 5.41998 7.83804 4.90119 9.11405 4.8896ZM14.3771 24H4.0702C2.97375 24 1.00005 23.1112 1.00005 22.2223C0.996855 21.4335 1.14782 20.6518 1.44425 19.9225C1.74068 19.1931 2.17669 18.5304 2.72715 17.9726C3.2776 17.4148 3.9316 16.973 4.65141 16.6726C5.37122 16.3722 6.1426 16.2193 6.92106 16.2225H11.0877C11.8662 16.2193 12.6375 16.3722 13.3574 16.6726C14.0772 16.973 14.7312 17.4148 15.2816 17.9726C15.8321 18.5304 16.2681 19.1931 16.5645 19.9225C16.861 20.6518 17.0119 21.4335 17.0087 22.2223C17.228 23.3333 15.2543 24 14.3771 24ZM22.9297 21.1112H19.6403C19.2697 19.6538 18.4942 18.3347 17.4057 17.3106C16.3173 16.2865 14.9618 15.6004 13.5 15.3337C14.1959 14.7764 14.7898 14.0994 15.2543 13.3337H20.0789C20.8574 13.3305 21.6287 13.4835 22.3486 13.7838C23.0684 14.0842 23.7224 14.526 24.2728 15.0838C24.8233 15.6416 25.2593 16.3043 25.5557 17.0337C25.8522 17.7631 26.0031 18.5447 26 19.3335C26 20.2224 24.0262 21.1112 22.9297 21.1112Z" fill="url(#paint1_linear_481_5187)"/>
</mask>
<g mask="url(#mask0_481_5187)">
<rect x="15.79" y="-17" width="16" height="42" transform="rotate(37.8828 15.79 -17)" fill="white" fill-opacity="0.1"/>
</g>
<defs>
<linearGradient id="paint0_linear_481_5187" x1="13.6822" y1="2.72131" x2="11.9096" y2="23.8574" gradientUnits="userSpaceOnUse">
<stop stop-color="#6794FB"/>
<stop offset="1" stop-color="#014CFA"/>
</linearGradient>
<linearGradient id="paint1_linear_481_5187" x1="13.6822" y1="2.72131" x2="11.9096" y2="23.8574" gradientUnits="userSpaceOnUse">
<stop stop-color="#6794FB"/>
<stop offset="1" stop-color="#014CFA"/>
</linearGradient>
</defs>
</svg>
