<svg width="24" height="24" fill="none" xmlns="http://www.w3.org/2000/svg"><path d="M23.128 11.468a2 2 0 0 1 .312 1.072v6.86a3 3 0 0 1-3 3h-16a3 3 0 0 1-3-3v-6.853a2 2 0 0 1 3.075-1.686l7.904 5.04 7.948-5.05a2 2 0 0 1 2.761.617ZM17.44 1.4a3 3 0 0 1 3 3v5l-7.984 5-8.016-5v-5a3 3 0 0 1 3-3h10Z" fill="#000"/><path d="M13.062 10.142a.882.882 0 0 1-1.243 0L9.54 7.877l-.032-.032a2.03 2.03 0 0 1 .032-2.85 2.059 2.059 0 0 1 2.899 0 2.059 2.059 0 0 1 2.9 0 2.03 2.03 0 0 1 .036 2.845l-.037.038-2.277 2.265Z" fill="#00A609"/><mask id="a" style="mask-type:alpha" maskUnits="userSpaceOnUse" x="1" y="1" width="23" height="22"><path fill-rule="evenodd" clip-rule="evenodd" d="M23.44 12.54a2 2 0 0 0-3.073-1.688L12.42 15.9l-7.904-5.04a2 2 0 0 0-3.075 1.687V19.4a3 3 0 0 0 3 3h16a3 3 0 0 0 3-3v-6.86ZM19.561 2.28a3 3 0 0 0-2.121-.88h-10a3 3 0 0 0-3 3v5l8.017 5 7.983-5v-5a3 3 0 0 0-.879-2.12ZM12.44 10.4a.883.883 0 0 0 .622-.257l2.277-2.264.037-.038a2.03 2.03 0 0 0-.037-2.845 2.059 2.059 0 0 0-2.899 0 2.059 2.059 0 0 0-2.9 0 2.03 2.03 0 0 0-.031 2.85l.032.032 2.277 2.265a.883.883 0 0 0 .622.256Z" fill="#000"/></mask><g mask="url(#a)"><path fill="#fff" fill-opacity=".1" d="m14.79-18 12.628 9.825-25.79 33.149L-11 15.149z"/></g></svg>