<svg width="24" height="24" viewBox="0 0 24 24" fill="none" xmlns="http://www.w3.org/2000/svg">
<path d="M10.235 11.9871C10.235 11.3973 10.4681 10.8316 10.8831 10.4146C11.2981 9.9975 11.861 9.7632 12.4479 9.7632C13.0348 9.7632 13.5977 9.9975 14.0127 10.4146C14.4277 10.8316 14.6608 11.3973 14.6608 11.9871C14.6608 12.5769 14.4277 13.1425 14.0127 13.5596C13.5977 13.9766 13.0348 14.2109 12.4479 14.2109C11.861 14.2109 11.2981 13.9766 10.8831 13.5596C10.4681 13.1425 10.235 12.5769 10.235 11.9871ZM12.483 10.5804H18.8407C19.134 10.5804 19.4291 10.5769 19.7224 10.5804H19.7347C20.0596 10.5804 20.4003 10.7216 20.6286 10.9528C20.7516 11.0675 20.8394 11.2034 20.8903 11.3623C20.9694 11.5141 21.0062 11.6764 20.9992 11.8512C20.9852 12.1795 20.8763 12.5201 20.6286 12.7495C20.381 12.9772 20.0772 13.1219 19.7347 13.1219H13.377C13.0837 13.1219 12.7886 13.1255 12.4953 13.1219H12.483C12.1581 13.1219 11.8174 12.9808 11.5891 12.7495C11.4661 12.6348 11.3783 12.4989 11.3274 12.3401C11.2484 12.1883 11.2115 12.0259 11.2185 11.8512C11.2326 11.5229 11.3414 11.1822 11.5891 10.9528C11.8367 10.7251 12.1405 10.5804 12.483 10.5804Z" fill="#666D80"/>
<path fill-rule="evenodd" clip-rule="evenodd" d="M11.8278 4.8C7.92745 4.8 4.76557 8.02355 4.76557 12C4.76557 15.9764 7.92745 19.2 11.8278 19.2C14.1024 19.2 16.1257 18.1047 17.4188 16.3995C17.717 16.0063 18.2714 15.934 18.6571 16.238C19.0428 16.542 19.1138 17.1072 18.8156 17.5005C17.2025 19.6276 14.6722 21 11.8278 21C6.95235 21 3 16.9706 3 12C3 7.02944 6.95235 3 11.8278 3C14.6722 3 17.2025 4.37244 18.8156 6.49952C19.1138 6.89276 19.0428 7.458 18.6571 7.76202C18.2714 8.06604 17.717 7.99372 17.4188 7.60048C16.1257 5.89531 14.1024 4.8 11.8278 4.8Z" fill="#666D80"/>
</svg>
