<svg width="24" height="24" fill="none" xmlns="http://www.w3.org/2000/svg"><path d="M5.02 3.499a10.998 10.998 0 0 1 14.33.319l-3.527 3.275a6.221 6.221 0 0 0-10.044 4.91 6.218 6.218 0 0 0 12.128 1.945h-5.822V9.452h10.614a11 11 0 0 1-20.155 8.167A10.999 10.999 0 0 1 5.02 3.499Zm7.163 16.099a1.012 1.012 0 0 0-.716 1.73 1.01 1.01 0 0 0 1.434 0 1.013 1.013 0 0 0-.717-1.73Zm-5.888-2.466a1.013 1.013 0 1 0 0 2.026 1.013 1.013 0 0 0 0-2.026Zm11.828 0a1.013 1.013 0 1 0 0 2.026 1.013 1.013 0 0 0 0-2.026ZM3.846 11.204a1.013 1.013 0 1 0 0 2.027 1.013 1.013 0 0 0 0-2.027Zm16.766 0a1.013 1.013 0 1 0 0 2.026 1.013 1.013 0 0 0 0-2.026ZM6.295 5.26a1.013 1.013 0 1 0 0 2.026 1.013 1.013 0 0 0 0-2.026Zm5.889-2.427a1.013 1.013 0 1 0 0 2.027 1.013 1.013 0 0 0 0-2.027Z" fill="#171717"/><path d="M12.183 19.599a1.014 1.014 0 1 0 .001 2.027 1.014 1.014 0 0 0 0-2.027Zm-8.337-8.394a1.013 1.013 0 1 0 .001 2.027 1.013 1.013 0 0 0 0-2.027Zm16.766 0a1.013 1.013 0 1 0 0 2.026 1.013 1.013 0 0 0 0-2.026Zm-8.428-8.371a1.013 1.013 0 1 0 0 2.027 1.013 1.013 0 0 0 0-2.027Z" fill="#00A609"/><mask id="b" style="mask-type:alpha" maskUnits="userSpaceOnUse" x="0" y="1" width="24" height="22"><path d="M5.02 3.499a10.998 10.998 0 0 1 14.331.319l-3.528 3.275a6.222 6.222 0 0 0-10.043 4.91 6.218 6.218 0 0 0 12.127 1.946h-5.822V9.452H22.7A11 11 0 0 1 2.544 17.62 11 11 0 0 1 5.02 3.499Zm7.164 16.1a1.014 1.014 0 1 0 0 2.028 1.014 1.014 0 0 0 0-2.028Zm-5.889-2.466a1.013 1.013 0 1 0 0 2.026 1.013 1.013 0 0 0 0-2.026Zm11.829 0a1.013 1.013 0 1 0 0 2.026 1.013 1.013 0 0 0 0-2.026ZM3.846 11.205a1.013 1.013 0 1 0 0 2.026 1.013 1.013 0 0 0 0-2.027Zm16.766 0a1.013 1.013 0 1 0 0 2.026 1.013 1.013 0 0 0 0-2.027ZM6.295 5.26a1.013 1.013 0 1 0 0 2.026 1.013 1.013 0 0 0 0-2.026Zm5.889-2.427a1.013 1.013 0 1 0 0 2.027 1.013 1.013 0 0 0 0-2.027Z" fill="url(#a)"/></mask><g mask="url(#b)"><path fill="#fff" fill-opacity=".1" d="m15.79-17 12.628 9.825-25.79 33.149L-10 16.149z"/></g><defs><linearGradient id="a" x1="12.16" y1="1.721" x2="10.15" y2="22.814" gradientUnits="userSpaceOnUse"><stop stop-color="#6794FB"/><stop offset="1" stop-color="#014CFA"/></linearGradient></defs></svg>