<svg width="24" height="24" viewBox="0 0 24 24" fill="none" xmlns="http://www.w3.org/2000/svg">
<path d="M5.01954 3.49883C9.21918 0.049929 15.308 0.185135 19.3505 3.81782L15.8227 7.09302C14.9035 6.37754 13.8019 5.93449 12.6432 5.81429C11.4846 5.69409 10.3155 5.90156 9.26897 6.4131C8.22244 6.92464 7.34054 7.7197 6.72362 8.70778C6.10671 9.69586 5.77958 10.8373 5.77944 12.0021C5.77693 13.4823 6.30253 14.9149 7.26173 16.0422C8.22094 17.1695 9.55084 17.9177 11.0123 18.1523C12.4738 18.3868 13.971 18.0923 15.2348 17.3216C16.4986 16.551 17.446 15.3549 17.9067 13.9482H12.0846V9.45202H22.6995C23.9576 14.7379 21.1664 20.1516 16.1294 22.193C11.0928 24.2335 5.32066 22.2902 2.54412 17.6185C-0.232413 12.9468 0.819444 6.94773 5.01954 3.49883ZM12.1832 19.598C12.0501 19.598 11.9183 19.6243 11.7954 19.6753C11.6725 19.7263 11.5608 19.801 11.4668 19.8951C11.3727 19.9892 11.2981 20.101 11.2472 20.224C11.1964 20.3469 11.1702 20.4787 11.1703 20.6118C11.1703 20.7449 11.1966 20.8766 11.2476 20.9996C11.2986 21.1225 11.3733 21.2342 11.4674 21.3282C11.5615 21.4223 11.6733 21.4969 11.7963 21.5477C11.9192 21.5986 12.051 21.6248 12.1841 21.6247C12.4528 21.6247 12.7106 21.5179 12.9006 21.3279C13.0907 21.1378 13.1974 20.8801 13.1974 20.6113C13.1974 20.3426 13.0907 20.0848 12.9006 19.8948C12.7106 19.7047 12.4528 19.598 12.1841 19.598H12.1832ZM6.29506 17.1322C6.02636 17.1322 5.76867 17.2389 5.57867 17.4289C5.38867 17.6189 5.28193 17.8766 5.28193 18.1453C5.28193 18.414 5.38867 18.6717 5.57867 18.8617C5.76867 19.0517 6.02636 19.1584 6.29506 19.1584C6.56376 19.1584 6.82145 19.0517 7.01145 18.8617C7.20145 18.6717 7.30819 18.414 7.30819 18.1453C7.30819 17.8766 7.20145 17.6189 7.01145 17.4289C6.82145 17.2389 6.56376 17.1322 6.29506 17.1322ZM18.1231 17.1322C17.8544 17.1322 17.5967 17.2389 17.4067 17.4289C17.2167 17.6189 17.1099 17.8766 17.1099 18.1453C17.1099 18.414 17.2167 18.6717 17.4067 18.8617C17.5967 19.0517 17.8544 19.1584 18.1231 19.1584C18.3918 19.1584 18.6495 19.0517 18.8395 18.8617C19.0295 18.6717 19.1362 18.414 19.1362 18.1453C19.1362 17.8766 19.0295 17.6189 18.8395 17.4289C18.6495 17.2389 18.3918 17.1322 18.1231 17.1322ZM3.84623 11.2042C3.71318 11.2042 3.58144 11.2305 3.45854 11.2814C3.33563 11.3323 3.22396 11.407 3.1299 11.5011C3.03585 11.5952 2.96125 11.7069 2.91036 11.8298C2.85947 11.9528 2.8333 12.0845 2.83333 12.2176C2.83336 12.3506 2.85959 12.4823 2.91053 12.6052C2.96148 12.7282 3.03613 12.8398 3.13023 12.9339C3.22433 13.0279 3.33603 13.1025 3.45896 13.1534C3.58189 13.2043 3.71364 13.2305 3.84669 13.2305C4.11538 13.2305 4.37308 13.1237 4.56308 12.9337C4.75307 12.7437 4.85981 12.486 4.85981 12.2173C4.85981 11.9486 4.75307 11.6909 4.56308 11.5009C4.37308 11.3109 4.11538 11.2042 3.84669 11.2042H3.84623ZM20.6118 11.2042C20.3431 11.2042 20.0854 11.3109 19.8954 11.5009C19.7054 11.6909 19.5986 11.9486 19.5986 12.2173C19.5986 12.486 19.7054 12.7437 19.8954 12.9337C20.0854 13.1237 20.3431 13.2305 20.6118 13.2305C20.8805 13.2305 21.1382 13.1237 21.3282 12.9337C21.5182 12.7437 21.6249 12.486 21.6249 12.2173C21.6249 11.9486 21.5182 11.6909 21.3282 11.5009C21.1382 11.3109 20.8805 11.2042 20.6118 11.2042ZM6.2946 5.25972C6.0259 5.25972 5.76821 5.36646 5.57821 5.55646C5.38821 5.74645 5.28147 6.00415 5.28147 6.27285C5.28147 6.54154 5.38821 6.79924 5.57821 6.98924C5.76821 7.17923 6.0259 7.28597 6.2946 7.28597C6.5633 7.28597 6.82099 7.17923 7.01099 6.98924C7.20099 6.79924 7.30773 6.54154 7.30773 6.27285C7.30773 6.00415 7.20099 5.74645 7.01099 5.55646C6.82099 5.36646 6.5633 5.25972 6.2946 5.25972ZM12.1836 2.83334C11.9149 2.83334 11.6571 2.9401 11.4671 3.13015C11.277 3.32019 11.1703 3.57794 11.1703 3.8467C11.1703 4.11546 11.277 4.37321 11.4671 4.56325C11.6571 4.75329 11.9149 4.86006 12.1836 4.86006C12.4524 4.86006 12.7101 4.75329 12.9002 4.56325C13.0902 4.37321 13.197 4.11546 13.197 3.8467C13.197 3.57794 13.0902 3.32019 12.9002 3.13015C12.7101 2.9401 12.4524 2.83334 12.1836 2.83334Z" fill="#171717"/>
<path d="M12.1832 19.5986C12.0501 19.5987 11.9183 19.6249 11.7954 19.6759C11.6725 19.7269 11.5608 19.8016 11.4667 19.8957C11.3727 19.9899 11.2981 20.1016 11.2472 20.2246C11.1963 20.3476 11.1702 20.4794 11.1703 20.6124C11.1703 20.7455 11.1966 20.8773 11.2476 21.0002C11.2985 21.1231 11.3732 21.2348 11.4674 21.3289C11.5615 21.4229 11.6733 21.4975 11.7962 21.5484C11.9192 21.5992 12.051 21.6254 12.1841 21.6253C12.4528 21.6253 12.7106 21.5186 12.9006 21.3285C13.0907 21.1385 13.1974 20.8807 13.1974 20.612C13.1974 20.3432 13.0907 20.0855 12.9006 19.8954C12.7106 19.7054 12.4519 19.5986 12.1832 19.5986ZM3.84621 11.2048C3.71317 11.2049 3.58143 11.2311 3.45852 11.2821C3.33562 11.333 3.22395 11.4076 3.12989 11.5017C3.03583 11.5958 2.96123 11.7075 2.91035 11.8305C2.85946 11.9534 2.83328 12.0852 2.83331 12.2182C2.83334 12.3512 2.85958 12.483 2.91052 12.6059C2.96146 12.7288 3.03611 12.8405 3.13021 12.9345C3.22431 13.0286 3.33602 13.1032 3.45895 13.1541C3.58188 13.205 3.71363 13.2311 3.84667 13.2311C4.11537 13.2311 4.37306 13.1244 4.56306 12.9344C4.75306 12.7444 4.8598 12.4867 4.8598 12.218C4.8598 11.9493 4.75306 11.6916 4.56306 11.5016C4.37306 11.3116 4.11491 11.2048 3.84621 11.2048ZM20.6118 11.2048C20.3431 11.2048 20.0854 11.3116 19.8954 11.5016C19.7054 11.6916 19.5986 11.9493 19.5986 12.218C19.5986 12.4867 19.7054 12.7444 19.8954 12.9344C20.0854 13.1244 20.3431 13.2311 20.6118 13.2311C20.8805 13.2311 21.1382 13.1244 21.3282 12.9344C21.5182 12.7444 21.6249 12.4867 21.6249 12.218C21.6249 11.9493 21.5182 11.6916 21.3282 11.5016C21.1382 11.3116 20.8805 11.2048 20.6118 11.2048ZM12.1836 2.83398C11.9149 2.83398 11.6571 2.94075 11.4671 3.13079C11.277 3.32083 11.1703 3.57858 11.1703 3.84734C11.1703 4.1161 11.277 4.37385 11.4671 4.56389C11.6571 4.75394 11.9149 4.8607 12.1836 4.8607C12.4524 4.8607 12.7101 4.75394 12.9002 4.56389C13.0902 4.37385 13.197 4.1161 13.197 3.84734C13.197 3.57858 13.0902 3.32083 12.9002 3.13079C12.7101 2.94075 12.4524 2.83398 12.1836 2.83398Z" fill="#00A609"/>
<mask id="mask0_384_8704" style="mask-type:alpha" maskUnits="userSpaceOnUse" x="0" y="1" width="24" height="22">
<path d="M5.01966 3.49891C9.21943 0.0498999 15.3085 0.18511 19.351 3.81791L15.8232 7.0932C14.9039 6.37771 13.8023 5.93464 12.6436 5.81444C11.4849 5.69423 10.3158 5.90171 9.26922 6.41327C8.22266 6.92482 7.34073 7.7199 6.7238 8.70802C6.10687 9.69613 5.77972 10.8376 5.77959 12.0025C5.77708 13.4827 6.30269 14.9153 7.26193 16.0427C8.22116 17.17 9.5511 17.9182 11.0126 18.1528C12.4742 18.3873 13.9714 18.0928 15.2353 17.3221C16.4991 16.5515 17.4465 15.3553 17.9073 13.9486H12.085V9.45228H22.7001C23.9583 14.7383 21.167 20.1522 16.1298 22.1937C11.0931 24.2342 5.32079 22.2908 2.54417 17.619C-0.232451 12.9471 0.819439 6.94791 5.01966 3.49891ZM12.1835 19.5985C12.0504 19.5986 11.9187 19.6249 11.7957 19.6759C11.6728 19.7268 11.5611 19.8015 11.4671 19.8957C11.373 19.9898 11.2984 20.1016 11.2475 20.2246C11.1967 20.3475 11.1705 20.4793 11.1706 20.6124C11.1706 20.7455 11.1969 20.8772 11.2479 21.0002C11.2989 21.1231 11.3736 21.2348 11.4677 21.3288C11.5619 21.4229 11.6736 21.4975 11.7966 21.5484C11.9196 21.5992 12.0513 21.6254 12.1844 21.6253C12.4532 21.6253 12.711 21.5186 12.901 21.3285C13.0911 21.1385 13.1978 20.8807 13.1978 20.6119C13.1978 20.3432 13.0911 20.0854 12.901 19.8954C12.711 19.7053 12.4532 19.5985 12.1844 19.5985H12.1835ZM6.29522 17.1327C6.02652 17.1327 5.76882 17.2394 5.57881 17.4294C5.38881 17.6194 5.28206 17.8771 5.28206 18.1458C5.28206 18.4145 5.38881 18.6722 5.57881 18.8622C5.76882 19.0523 6.02652 19.159 6.29522 19.159C6.56393 19.159 6.82163 19.0523 7.01163 18.8622C7.20164 18.6722 7.30838 18.4145 7.30838 18.1458C7.30838 17.8771 7.20164 17.6194 7.01163 17.4294C6.82163 17.2394 6.56393 17.1327 6.29522 17.1327ZM18.1236 17.1327C17.8549 17.1327 17.5972 17.2394 17.4072 17.4294C17.2172 17.6194 17.1104 17.8771 17.1104 18.1458C17.1104 18.4145 17.2172 18.6722 17.4072 18.8622C17.5972 19.0523 17.8549 19.159 18.1236 19.159C18.3923 19.159 18.65 19.0523 18.84 18.8622C19.03 18.6722 19.1368 18.4145 19.1368 18.1458C19.1368 17.8771 19.03 17.6194 18.84 17.4294C18.65 17.2394 18.3923 17.1327 18.1236 17.1327ZM3.84631 11.2045C3.71326 11.2045 3.58152 11.2308 3.45861 11.2817C3.3357 11.3327 3.22403 11.4073 3.12997 11.5014C3.03591 11.5955 2.96131 11.7072 2.91042 11.8302C2.85953 11.9531 2.83335 12.0849 2.83338 12.2179C2.83341 12.351 2.85965 12.4827 2.91059 12.6056C2.96154 12.7285 3.03619 12.8402 3.13029 12.9342C3.22439 13.0283 3.3361 13.1029 3.45904 13.1538C3.58197 13.2047 3.71372 13.2309 3.84677 13.2308C4.11548 13.2308 4.37318 13.1241 4.56318 12.9341C4.75319 12.7441 4.85993 12.4864 4.85993 12.2177C4.85993 11.949 4.75319 11.6913 4.56318 11.5013C4.37318 11.3113 4.11548 11.2045 3.84677 11.2045H3.84631ZM20.6124 11.2045C20.3437 11.2045 20.086 11.3113 19.896 11.5013C19.706 11.6913 19.5992 11.949 19.5992 12.2177C19.5992 12.4864 19.706 12.7441 19.896 12.9341C20.086 13.1241 20.3437 13.2308 20.6124 13.2308C20.8811 13.2308 21.1388 13.1241 21.3288 12.9341C21.5188 12.7441 21.6255 12.4864 21.6255 12.2177C21.6255 11.949 21.5188 11.6913 21.3288 11.5013C21.1388 11.3113 20.8811 11.2045 20.6124 11.2045ZM6.29476 5.25985C6.02606 5.25985 5.76836 5.36659 5.57835 5.55659C5.38835 5.7466 5.2816 6.0043 5.2816 6.27301C5.2816 6.54171 5.38835 6.79941 5.57835 6.98942C5.76836 7.17942 6.02606 7.28617 6.29476 7.28617C6.56347 7.28617 6.82117 7.17942 7.01118 6.98942C7.20118 6.79941 7.30792 6.54171 7.30792 6.27301C7.30792 6.0043 7.20118 5.7466 7.01118 5.55659C6.82117 5.36659 6.56347 5.25985 6.29476 5.25985ZM12.184 2.8334C11.9152 2.8334 11.6574 2.94016 11.4674 3.13021C11.2773 3.32026 11.1706 3.57802 11.1706 3.84679C11.1706 4.11555 11.2773 4.37331 11.4674 4.56336C11.6574 4.75341 11.9152 4.86017 12.184 4.86017C12.4527 4.86017 12.7105 4.75341 12.9005 4.56336C13.0906 4.37331 13.1974 4.11555 13.1974 3.84679C13.1974 3.57802 13.0906 3.32026 12.9005 3.13021C12.7105 2.94016 12.4527 2.8334 12.184 2.8334Z" fill="url(#paint0_linear_384_8704)"/>
</mask>
<g mask="url(#mask0_384_8704)">
<rect x="15.79" y="-17" width="16" height="42" transform="rotate(37.8828 15.79 -17)" fill="white" fill-opacity="0.1"/>
</g>
<defs>
<linearGradient id="paint0_linear_384_8704" x1="12.1604" y1="1.72131" x2="10.1502" y2="22.8145" gradientUnits="userSpaceOnUse">
<stop stop-color="#6794FB"/>
<stop offset="1" stop-color="#014CFA"/>
</linearGradient>
</defs>
</svg>
