<svg width="24" height="24" fill="none" xmlns="http://www.w3.org/2000/svg"><path d="M10.235 11.987c0-.59.233-1.155.648-1.572a2.207 2.207 0 0 1 3.13 0 2.23 2.23 0 0 1 0 3.145 2.208 2.208 0 0 1-3.13 0 2.23 2.23 0 0 1-.648-1.573Zm2.248-1.407h6.358c.293 0 .588-.003.881 0h.013c.325 0 .665.142.894.373.122.115.21.25.261.41a.957.957 0 0 1 .11.488c-.015.329-.124.67-.371.898-.248.228-.552.373-.894.373h-6.358c-.293 0-.588.004-.882 0h-.012c-.325 0-.666-.141-.894-.373a.949.949 0 0 1-.262-.409.957.957 0 0 1-.109-.489c.014-.328.123-.669.371-.898.248-.228.551-.373.894-.373Z" fill="#fff"/><path fill-rule="evenodd" clip-rule="evenodd" d="M11.828 4.8c-3.9 0-7.062 3.224-7.062 7.2s3.161 7.2 7.062 7.2c2.274 0 4.298-1.095 5.59-2.8a.872.872 0 0 1 1.24-.162c.385.304.456.87.158 1.262-1.613 2.128-4.144 3.5-6.988 3.5C6.952 21 3 16.97 3 12s3.952-9 8.828-9c2.844 0 5.375 1.372 6.988 3.5a.912.912 0 0 1-.159 1.262.871.871 0 0 1-1.238-.162c-1.293-1.705-3.317-2.8-5.591-2.8Z" fill="#fff"/></svg>