<svg width="24" height="24" viewBox="0 0 24 24" fill="none" xmlns="http://www.w3.org/2000/svg">
<g clip-path="url(#clip0_481_5174)">
<path d="M4.38491 2.72595C8.96626 -1.03643 15.6085 -0.88893 20.0184 3.07394L16.17 6.64683C15.1672 5.86632 13.9655 5.383 12.7015 5.25187C11.4376 5.12075 10.1622 5.34708 9.02057 5.90511C7.87893 6.46315 6.91686 7.33047 6.24388 8.40836C5.5709 9.48625 5.21403 10.7314 5.21388 12.0022C5.21114 13.6169 5.78451 15.1796 6.8309 16.4094C7.87729 17.6392 9.32807 18.4554 10.9224 18.7113C12.5167 18.9671 14.15 18.6458 15.5287 17.8052C16.9073 16.9645 17.9408 15.6596 18.4435 14.1251H12.0922V9.22025H23.6718C25.0442 14.9866 21.9993 20.8924 16.5045 23.1193C11.0102 25.3452 4.7134 23.2253 1.68449 18.129C-1.34441 13.0326 -0.196945 6.48833 4.38491 2.72595ZM12.1997 20.2884C12.0545 20.2885 11.9107 20.3171 11.7767 20.3727C11.6426 20.4283 11.5207 20.5098 11.4181 20.6125C11.3155 20.7152 11.2341 20.8371 11.1786 20.9713C11.1232 21.1054 11.0946 21.2492 11.0947 21.3944C11.0948 21.5395 11.1234 21.6833 11.179 21.8174C11.2346 21.9515 11.3161 22.0733 11.4188 22.1759C11.5215 22.2785 11.6434 22.3599 11.7776 22.4154C11.9117 22.4709 12.0555 22.4994 12.2007 22.4993C12.4938 22.4993 12.775 22.3829 12.9823 22.1755C13.1897 21.9682 13.3061 21.687 13.3061 21.3939C13.3061 21.1007 13.1897 20.8195 12.9823 20.6122C12.775 20.4049 12.4938 20.2884 12.2007 20.2884H12.1997ZM5.77636 17.5985C5.48324 17.5985 5.20213 17.7149 4.99486 17.9222C4.78759 18.1295 4.67115 18.4106 4.67115 18.7037C4.67115 18.9968 4.78759 19.2779 4.99486 19.4852C5.20213 19.6925 5.48324 19.8089 5.77636 19.8089C6.06949 19.8089 6.3506 19.6925 6.55787 19.4852C6.76514 19.2779 6.88158 18.9968 6.88158 18.7037C6.88158 18.4106 6.76514 18.1295 6.55787 17.9222C6.3506 17.7149 6.06949 17.5985 5.77636 17.5985ZM18.6795 17.5985C18.3863 17.5985 18.1052 17.7149 17.8979 17.9222C17.6907 18.1295 17.5742 18.4106 17.5742 18.7037C17.5742 18.9968 17.6907 19.2779 17.8979 19.4852C18.1052 19.6925 18.3863 19.8089 18.6795 19.8089C18.9726 19.8089 19.2537 19.6925 19.461 19.4852C19.6682 19.2779 19.7847 18.9968 19.7847 18.7037C19.7847 18.4106 19.6682 18.1295 19.461 17.9222C19.2537 17.7149 18.9726 17.5985 18.6795 17.5985ZM3.10495 11.1317C2.95981 11.1317 2.8161 11.1603 2.68202 11.2159C2.54794 11.2715 2.42612 11.3529 2.32352 11.4556C2.22091 11.5582 2.13953 11.6801 2.08402 11.8142C2.02851 11.9483 1.99995 12.092 1.99998 12.2371C2.00002 12.3823 2.02864 12.526 2.08421 12.6601C2.13978 12.7942 2.22122 12.916 2.32387 13.0186C2.42652 13.1212 2.54838 13.2026 2.68248 13.2581C2.81659 13.3136 2.96031 13.3421 3.10545 13.3421C3.39857 13.3421 3.67969 13.2257 3.88695 13.0184C4.09422 12.8111 4.21066 12.53 4.21066 12.2369C4.21066 11.9438 4.09422 11.6627 3.88695 11.4554C3.67969 11.2481 3.39857 11.1317 3.10545 11.1317H3.10495ZM21.3944 11.1317C21.1012 11.1317 20.8201 11.2481 20.6129 11.4554C20.4056 11.6627 20.2891 11.9438 20.2891 12.2369C20.2891 12.53 20.4056 12.8111 20.6129 13.0184C20.8201 13.2257 21.1012 13.3421 21.3944 13.3421C21.6875 13.3421 21.9686 13.2257 22.1759 13.0184C22.3831 12.8111 22.4996 12.53 22.4996 12.2369C22.4996 11.9438 22.3831 11.6627 22.1759 11.4554C21.9686 11.2481 21.6875 11.1317 21.3944 11.1317ZM5.77586 4.64689C5.48274 4.64689 5.20163 4.76333 4.99436 4.9706C4.78709 5.17787 4.67065 5.45899 4.67065 5.75211C4.67065 6.04523 4.78709 6.32634 4.99436 6.53361C5.20163 6.74088 5.48274 6.85732 5.77586 6.85732C6.06898 6.85732 6.3501 6.74088 6.55737 6.53361C6.76464 6.32634 6.88108 6.04523 6.88108 5.75211C6.88108 5.45899 6.76464 5.17787 6.55737 4.9706C6.3501 4.76333 6.06898 4.64689 5.77586 4.64689ZM12.2002 1.99998C11.907 1.99998 11.6258 2.11645 11.4185 2.32376C11.2112 2.53108 11.0947 2.81225 11.0947 3.10544C11.0947 3.39863 11.2112 3.67981 11.4185 3.88712C11.6258 4.09444 11.907 4.21091 12.2002 4.21091C12.4933 4.21091 12.7745 4.09444 12.9818 3.88712C13.1892 3.67981 13.3056 3.39863 13.3056 3.10544C13.3056 2.81225 13.1892 2.53108 12.9818 2.32376C12.7745 2.11645 12.4933 1.99998 12.2002 1.99998Z" fill="url(#paint0_linear_481_5174)"/>
<mask id="mask0_481_5174" style="mask-type:alpha" maskUnits="userSpaceOnUse" x="-1" y="0" width="25" height="24">
<path d="M4.38491 2.72595C8.96626 -1.03643 15.6085 -0.88893 20.0184 3.07394L16.17 6.64683C15.1672 5.86632 13.9655 5.383 12.7015 5.25187C11.4376 5.12075 10.1622 5.34708 9.02057 5.90511C7.87893 6.46315 6.91686 7.33047 6.24388 8.40836C5.5709 9.48625 5.21403 10.7314 5.21388 12.0022C5.21114 13.6169 5.78451 15.1796 6.8309 16.4094C7.87729 17.6392 9.32807 18.4554 10.9224 18.7113C12.5167 18.9671 14.15 18.6458 15.5287 17.8052C16.9073 16.9645 17.9408 15.6596 18.4435 14.1251H12.0922V9.22025H23.6718C25.0442 14.9866 21.9993 20.8924 16.5045 23.1193C11.0102 25.3452 4.7134 23.2253 1.68449 18.129C-1.34441 13.0326 -0.196945 6.48833 4.38491 2.72595ZM12.1997 20.2884C12.0545 20.2885 11.9107 20.3171 11.7767 20.3727C11.6426 20.4283 11.5207 20.5098 11.4181 20.6125C11.3155 20.7152 11.2341 20.8371 11.1786 20.9713C11.1232 21.1054 11.0946 21.2492 11.0947 21.3944C11.0948 21.5395 11.1234 21.6833 11.179 21.8174C11.2346 21.9515 11.3161 22.0733 11.4188 22.1759C11.5215 22.2785 11.6434 22.3599 11.7776 22.4154C11.9117 22.4709 12.0555 22.4994 12.2007 22.4993C12.4938 22.4993 12.775 22.3829 12.9823 22.1755C13.1897 21.9682 13.3061 21.687 13.3061 21.3939C13.3061 21.1007 13.1897 20.8195 12.9823 20.6122C12.775 20.4049 12.4938 20.2884 12.2007 20.2884H12.1997ZM5.77636 17.5985C5.48324 17.5985 5.20213 17.7149 4.99486 17.9222C4.78759 18.1295 4.67115 18.4106 4.67115 18.7037C4.67115 18.9968 4.78759 19.2779 4.99486 19.4852C5.20213 19.6925 5.48324 19.8089 5.77636 19.8089C6.06949 19.8089 6.3506 19.6925 6.55787 19.4852C6.76514 19.2779 6.88158 18.9968 6.88158 18.7037C6.88158 18.4106 6.76514 18.1295 6.55787 17.9222C6.3506 17.7149 6.06949 17.5985 5.77636 17.5985ZM18.6795 17.5985C18.3863 17.5985 18.1052 17.7149 17.8979 17.9222C17.6907 18.1295 17.5742 18.4106 17.5742 18.7037C17.5742 18.9968 17.6907 19.2779 17.8979 19.4852C18.1052 19.6925 18.3863 19.8089 18.6795 19.8089C18.9726 19.8089 19.2537 19.6925 19.461 19.4852C19.6682 19.2779 19.7847 18.9968 19.7847 18.7037C19.7847 18.4106 19.6682 18.1295 19.461 17.9222C19.2537 17.7149 18.9726 17.5985 18.6795 17.5985ZM3.10495 11.1317C2.95981 11.1317 2.8161 11.1603 2.68202 11.2159C2.54794 11.2715 2.42612 11.3529 2.32352 11.4556C2.22091 11.5582 2.13953 11.6801 2.08402 11.8142C2.02851 11.9483 1.99995 12.092 1.99998 12.2371C2.00002 12.3823 2.02864 12.526 2.08421 12.6601C2.13978 12.7942 2.22122 12.916 2.32387 13.0186C2.42652 13.1212 2.54838 13.2026 2.68248 13.2581C2.81659 13.3136 2.96031 13.3421 3.10545 13.3421C3.39857 13.3421 3.67969 13.2257 3.88695 13.0184C4.09422 12.8111 4.21066 12.53 4.21066 12.2369C4.21066 11.9438 4.09422 11.6627 3.88695 11.4554C3.67969 11.2481 3.39857 11.1317 3.10545 11.1317H3.10495ZM21.3944 11.1317C21.1012 11.1317 20.8201 11.2481 20.6129 11.4554C20.4056 11.6627 20.2891 11.9438 20.2891 12.2369C20.2891 12.53 20.4056 12.8111 20.6129 13.0184C20.8201 13.2257 21.1012 13.3421 21.3944 13.3421C21.6875 13.3421 21.9686 13.2257 22.1759 13.0184C22.3831 12.8111 22.4996 12.53 22.4996 12.2369C22.4996 11.9438 22.3831 11.6627 22.1759 11.4554C21.9686 11.2481 21.6875 11.1317 21.3944 11.1317ZM5.77586 4.64689C5.48274 4.64689 5.20163 4.76333 4.99436 4.9706C4.78709 5.17787 4.67065 5.45899 4.67065 5.75211C4.67065 6.04523 4.78709 6.32634 4.99436 6.53361C5.20163 6.74088 5.48274 6.85732 5.77586 6.85732C6.06898 6.85732 6.3501 6.74088 6.55737 6.53361C6.76464 6.32634 6.88108 6.04523 6.88108 5.75211C6.88108 5.45899 6.76464 5.17787 6.55737 4.9706C6.3501 4.76333 6.06898 4.64689 5.77586 4.64689ZM12.2002 1.99998C11.907 1.99998 11.6258 2.11645 11.4185 2.32376C11.2112 2.53108 11.0947 2.81225 11.0947 3.10544C11.0947 3.39863 11.2112 3.67981 11.4185 3.88712C11.6258 4.09444 11.907 4.21091 12.2002 4.21091C12.4933 4.21091 12.7745 4.09444 12.9818 3.88712C13.1892 3.67981 13.3056 3.39863 13.3056 3.10544C13.3056 2.81225 13.1892 2.53108 12.9818 2.32376C12.7745 2.11645 12.4933 1.99998 12.2002 1.99998Z" fill="url(#paint1_linear_481_5174)"/>
</mask>
<g mask="url(#mask0_481_5174)">
<rect x="15.79" y="-17" width="16" height="42" transform="rotate(37.8828 15.79 -17)" fill="white" fill-opacity="0.1"/>
</g>
</g>
<defs>
<linearGradient id="paint0_linear_481_5174" x1="12.1745" y1="0.78685" x2="9.98164" y2="23.7966" gradientUnits="userSpaceOnUse">
<stop stop-color="#6794FB"/>
<stop offset="1" stop-color="#97E180"/>
</linearGradient>
<linearGradient id="paint1_linear_481_5174" x1="12.1745" y1="0.78685" x2="9.98164" y2="23.7966" gradientUnits="userSpaceOnUse">
<stop stop-color="#6794FB"/>
<stop offset="1" stop-color="#97E180"/>
</linearGradient>
<clipPath id="clip0_481_5174">
<rect width="24" height="24" fill="white"/>
</clipPath>
</defs>
</svg>
