<svg width="0.64rem" height="0.64rem" viewBox="0 0 32 32" fill="none" xmlns="http://www.w3.org/2000/svg"><g clip-path="url(#a)"><path d="M0 16a16 16 0 1 1 32 0 16 16 0 0 1-32 0Z" fill="#ED4C5C"/><path d="M14.955 18.251c.362.965 1.286 1.106 1.748 2.352.201.543-.18 1.588 0 2.13a1.608 1.608 0 0 0 1.73 1.026 4.261 4.261 0 0 1-5.388-2.493 4.12 4.12 0 0 1 2.513-5.346 2.19 2.19 0 0 0-.603 2.331Z" fill="#fff"/><path d="M14.633 21.709a.504.504 0 0 1 .858-.356.502.502 0 1 1-.858.355Z" fill="#ED4C5C"/><path d="M13.166 16.12c-.824.624-.684 1.528-1.769 2.352-.462.362-1.588.322-2.01.684a1.528 1.528 0 0 0-.442 2.01 4.021 4.021 0 0 1 .723-5.81 4.282 4.282 0 0 1 6.03.704 2.231 2.231 0 0 0-2.532.06Z" fill="#fff"/><path d="M9.568 17.367a.502.502 0 1 1 1.004 0 .502.502 0 0 1-1.004 0Z" fill="#ED4C5C"/><path d="M14.673 13.789c-.864-.583-1.708-.16-2.834-.905-.482-.321-.804-1.387-1.306-1.708a1.548 1.548 0 0 0-2.01.18 4.261 4.261 0 0 1 5.869-1.125 4.023 4.023 0 0 1 1.166 5.689 2.192 2.192 0 0 0-.885-2.131Z" fill="#fff"/><path d="M12.322 11.598a.503.503 0 1 0 .818-.584.503.503 0 0 0-.818.584Z" fill="#ED4C5C"/><path d="M17.387 14.472c.301-.985-.362-1.628 0-2.914.16-.563 1.085-1.186 1.246-1.749A1.548 1.548 0 0 0 17.85 8a4.14 4.14 0 0 1 2.895 5.126 4.22 4.22 0 0 1-5.186 2.794 2.151 2.151 0 0 0 1.829-1.448Z" fill="#fff"/><path d="M19.035 11.598a.502.502 0 1 0 .703.718.502.502 0 0 0-.703-.718Z" fill="#ED4C5C"/><path d="M17.568 17.226c1.045 0 1.487-.844 2.834-.884.583 0 1.487.643 2.01.623a1.548 1.548 0 0 0 1.508-1.307 4.222 4.222 0 0 1-8.362.261 2.231 2.231 0 0 0 2.01 1.307Z" fill="#fff"/><path d="M21.085 17.93a.502.502 0 1 0 .322.643.522.522 0 0 0-.322-.643Z" fill="#ED4C5C"/></g><defs><clipPath id="a"><path fill="#fff" transform="matrix(1 0 0 -1 0 32)" d="M0 0h32v32H0z"/></clipPath></defs></svg>