<svg width="24" height="24" fill="none" xmlns="http://www.w3.org/2000/svg"><path d="M20.652 3.123H3.72a2.533 2.533 0 0 0-2.533 2.533v13.257a2.531 2.531 0 0 0 2.533 2.53h16.935a2.533 2.533 0 0 0 2.532-2.53V5.656a2.537 2.537 0 0 0-2.535-2.533Zm-5.376 5.958h3.516c.28 0 .537.38.537.66 0 .279-.257.659-.537.659h-3.516c-.28 0-.537-.38-.537-.66 0-.279.257-.659.537-.659Zm0 2.819h3.516c.28 0 .537.38.537.66 0 .278-.257.659-.537.659h-3.516c-.28 0-.537-.38-.537-.66 0-.279.257-.66.537-.66Zm-11.48 4.9a.506.506 0 0 1-.402-.593c.326-1.706 1.6-3.02 3.207-3.482a2.644 2.644 0 0 1-1.41-2.329 2.654 2.654 0 0 1 2.652-2.651c1.46 0 2.65 1.19 2.65 2.651a2.644 2.644 0 0 1-1.408 2.329 4.515 4.515 0 0 1 3.207 3.495.505.505 0 0 1-.498.6m8.69-.783h-5.208c-.28 0-.537-.38-.537-.66 0-.279.257-.659.537-.659h5.207c.28 0 .537.38.537.66 0 .279-.258.66-.537.66Z" fill="#171717"/><path d="M3.796 16.799a.507.507 0 0 1-.402-.593c.326-1.706 1.6-3.02 3.207-3.482a2.644 2.644 0 0 1-1.41-2.329 2.654 2.654 0 0 1 2.652-2.65c1.46 0 2.65 1.19 2.65 2.65a2.644 2.644 0 0 1-1.408 2.329 4.515 4.515 0 0 1 3.207 3.495.505.505 0 0 1-.498.6" fill="#00A609"/><mask id="a" style="mask-type:alpha" maskUnits="userSpaceOnUse" x="1" y="3" width="23" height="19"><path d="M20.652 3.123H3.72a2.533 2.533 0 0 0-2.533 2.533v13.257a2.531 2.531 0 0 0 2.533 2.53h16.935a2.533 2.533 0 0 0 2.532-2.53V5.656a2.537 2.537 0 0 0-2.535-2.533Zm-5.376 5.958h3.516c.28 0 .537.38.537.66 0 .279-.257.659-.537.659h-3.516c-.28 0-.537-.38-.537-.66 0-.279.257-.659.537-.659Zm0 2.819h3.516c.28 0 .537.38.537.66 0 .278-.257.659-.537.659h-3.516c-.28 0-.537-.38-.537-.66 0-.279.257-.66.537-.66Zm-11.48 4.9a.506.506 0 0 1-.402-.593c.326-1.706 1.6-3.02 3.207-3.482a2.644 2.644 0 0 1-1.41-2.329 2.654 2.654 0 0 1 2.652-2.651c1.46 0 2.65 1.19 2.65 2.651a2.644 2.644 0 0 1-1.408 2.329 4.515 4.515 0 0 1 3.207 3.495.505.505 0 0 1-.498.6m8.69-.783h-5.208c-.28 0-.537-.38-.537-.66 0-.279.257-.659.537-.659h5.207c.28 0 .537.38.537.66 0 .279-.258.66-.537.66Z" fill="#000"/></mask><g mask="url(#a)"><path fill="#fff" fill-opacity=".1" d="m10.79-15 12.628 9.825-25.79 33.149L-15 18.149z"/></g></svg>