<svg width="28" height="28" viewBox="0 0 28 28" fill="none" xmlns="http://www.w3.org/2000/svg">
<path fill-rule="evenodd" clip-rule="evenodd" d="M6.16692 3.81641H22.1451C24.3375 3.81641 26.1211 5.60001 26.1211 7.79381V20.0172C26.1211 22.2096 24.3375 23.9932 22.1451 23.9932H6.16692C3.97452 23.9932 2.19092 22.2096 2.19092 20.0172V7.79241C2.19092 5.60001 3.97452 3.81641 6.16692 3.81641ZM13.5463 11.7812C13.547 12.6446 13.2174 13.4756 12.6251 14.1038C13.8795 14.9172 14.7125 16.3284 14.7125 17.9328C14.7125 18.4312 14.3079 18.8358 13.8095 18.8358C13.3111 18.8358 12.9065 18.4312 12.9065 17.9328C12.9065 16.4138 11.6703 15.1776 10.1513 15.1776C8.63229 15.1776 7.39609 16.4138 7.39609 17.9328C7.39609 18.4312 6.99149 18.8358 6.49309 18.8358C5.99469 18.8358 5.59009 18.4312 5.59009 17.9328C5.59009 16.3284 6.42169 14.9172 7.67609 14.1038C7.10629 13.4962 6.75489 12.6786 6.75489 11.7812C6.75489 9.90797 8.27669 8.38477 10.1499 8.38477C12.0231 8.38477 13.5463 9.90937 13.5463 11.7812ZM10.1513 10.1908C9.27349 10.1908 8.56089 10.9048 8.56089 11.7812C8.56089 12.6576 9.27489 13.3716 10.1513 13.3716C11.0291 13.3716 11.7417 12.6576 11.7417 11.7812C11.7417 10.9048 11.0277 10.1908 10.1513 10.1908ZM17.4761 15.4394H22.1871C22.6855 15.4394 23.0901 15.844 23.0901 16.3424C23.0901 16.8408 22.6855 17.2454 22.1871 17.2454H17.4761C16.9777 17.2454 16.5731 16.8408 16.5731 16.3424C16.5731 15.844 16.9777 15.4394 17.4761 15.4394ZM20.3139 12.3468H17.4761C16.9777 12.3468 16.5731 11.9422 16.5731 11.4438C16.5731 10.9454 16.9777 10.5408 17.4761 10.5408H20.3139C20.8123 10.5408 21.2169 10.9454 21.2169 11.4438C21.2169 11.9422 20.8123 12.3468 20.3139 12.3468Z" fill="url(#paint0_linear_481_5151)"/>
<mask id="mask0_481_5151" style="mask-type:alpha" maskUnits="userSpaceOnUse" x="2" y="3" width="25" height="21">
<path d="M22.1451 3.81641H6.16692C3.97452 3.81641 2.19092 5.60001 2.19092 7.79241V20.0172C2.19092 22.2096 3.97452 23.9932 6.16692 23.9932H22.1451C24.3375 23.9932 26.1211 22.2096 26.1211 20.0172V7.79381C26.1211 5.60001 24.3375 3.81641 22.1451 3.81641Z" fill="#7B79FF"/>
</mask>
<g mask="url(#mask0_481_5151)">
<rect x="12.79" y="-13" width="16" height="42" transform="rotate(37.8828 12.79 -13)" fill="white" fill-opacity="0.1"/>
</g>
<defs>
<linearGradient id="paint0_linear_481_5151" x1="14.3304" y1="4.47794" x2="12.7719" y2="23.8736" gradientUnits="userSpaceOnUse">
<stop stop-color="#6794FB"/>
<stop offset="1" stop-color="#97E180"/>
</linearGradient>
</defs>
</svg>
