<svg width="163" height="98" fill="none" xmlns="http://www.w3.org/2000/svg"><rect width="162.5" height="98" rx="16" fill="#fff" fill-opacity=".1"/><path d="M92.75 62.405V51.45H72.178v10.433l10.305 6.543 10.269-6.398" fill="#505050"/><path d="M94.508 60.738a1.81 1.81 0 0 1-.612-.249l-4.405 2.163a15.243 15.243 0 0 1-13.952-.273l-4.096-2.217c-.302.254-.65.45-1.023.576l-16.88 3.95c-2.047.478-2.95 2.883-2.95 4.992l2.2 28.238s9.275.042 20.616.042H111.2a.989.989 0 0 0 .981-.981V68.492c0-2.114 1.012-3.386-1.048-3.87l-16.624-3.884Z" fill="#404040"/><path d="M72.177 54.474v4.914c12.964 1.605 20.531-6.543 20.531-6.543V51.45H72.177" fill="#474747"/><path d="M112.059 65.047s1.799 1.66 3.065 2.926c.861.86 2.539 3.684 5.071 8.427 1.267 3.72 3.805 9.41 3.805 11.287-9.324 3.805-14.316 5.725-14.928 5.725-1.066-2.126-3.477-6.749-7.24-13.904V76.4a5.703 5.703 0 0 1 1.884-4.21c5.108-4.502 8.343-7.143 8.343-7.143ZM61.283 72.19a5.7 5.7 0 0 1 1.885 4.21v3.108a1090.31 1090.31 0 0 0-7.24 13.904c-.612 0-5.604-1.92-14.928-5.725 0-1.884 2.538-7.567 3.805-11.287 2.538-4.743 4.21-7.567 5.07-8.427 1.267-1.266 2.212-2.538 2.212-2.538s4.083 2.253 9.196 6.755Z" fill="#404040"/><path d="M43.763 97.918h-2.424l.291-10.184h4.665l-2.532 10.184Z" fill="#474747"/><path d="M54.207 75.134c.576-.655 5.277-4.623 9.978-7.282 4.702-2.66 3.508 0 2.927 1.308-.576 1.351-7.046 4.665-7.628 5.974-.612 1.35-5.889.654-5.277 0Zm-3.247 9.96c4.12-4.665 6.58-6.301 7.41-4.908 1.23 2.127.611 6.301 5.567 5.604 4.95-.696 7.41 1.394 6.798 2.084-.649.697-4.338.697-8.064 1.394s-7.446 3.478-8.676 3.478c-.83 0-1.841-2.539-3.035-7.652Z" fill="#505050"/><path d="M54.39 97.92c.326-.534 1.12-8.834 1.12-10.924 0-2.126 1.842-5.604 1.842-5.604h1.841c.612 0 1.23 0 1.23.697 0 .696-3.726.696-3.108 1.393.612.697 3.108 2.78 4.95.697 1.842-2.084 1.842-7.688 1.23-8.385-.612-.697-9.906-.697-11.747 0-2.46 3.272-3.181 3.478-8.53 22.125h11.171Z" fill="#505050"/><path d="M118.905 87.728h4.641l.284 10.185h-2.411l-2.514-10.184Z" fill="#474747"/><path d="M105.534 75.134c-.576-1.309-7.016-4.623-7.591-5.974-.576-1.308-1.763-3.968 2.914-1.308s9.354 6.627 9.93 7.282c.605.654-4.647 1.35-5.253 0Zm6.44 17.612c-1.224 0-4.925-2.781-8.633-3.478-3.702-.697-7.373-.697-8.021-1.394-.612-.696 1.835-2.78 6.761-2.084 4.925.697 4.313-3.477 5.537-5.604.83-1.393 3.272.249 7.373 4.908-1.181 5.113-2.193 7.652-3.017 7.652Z" fill="#505050"/><path d="M121.964 97.92c-5.325-18.648-6.04-18.854-8.487-22.126-1.836-.697-11.081-.697-11.687 0-.612.697-.612 6.3 1.224 8.385 1.835 2.084 4.313 0 4.925-.697.612-.697-3.096-.697-3.096-1.393 0-.697.612-.697 1.224-.697h1.836s1.836 3.478 1.836 5.604c0 2.084.793 10.39 1.114 10.923h11.111ZM68.578 25.441l.981 20.98c.085 1.964 1.067 3.763 2.66 4.95l4.58 3.393a6.592 6.592 0 0 0 3.968 1.309h4.417c1.43 0 2.823-.449 3.968-1.309l4.58-3.393c1.594-1.187 2.539-2.986 2.66-4.95l.981-20.98H68.578Z" fill="#505050"/><path d="m68.699 16.894 1.678 1.145c-7.645 5.604-6.216 15.177-6.216 15.177 2.29 2.247 2.29 7.936 2.29 7.936l2.29-2.247s-.902-6.544 3.436-9.04c4.01-2.332 7.482-1.145 11.044-1.145 9.572 0 12.232-3.556 11.778-7.936-.249-2.248-3.72-6.955-12.56-6.792-3.556.037-10.262 1.103-13.74 2.902Z" fill="#404040"/><path d="m89.394 18.895 1.067 7.482c4.865.981 5.604 8.548 5.683 10.717 0 .412.163.775.37 1.103l1.883 2.865s-.654-4.743 2.29-7.936c-.042.048.982-18.727-11.293-14.231Z" fill="#404040"/><path d="m99.542 40.613-1.308 5.113a1.369 1.369 0 0 1-1.351 1.024c-.697 0-.51-.097-.51-.097l-.187-6.416c.073-1.617.2-2.532.612-2.532 1.557.006 3.108 1.436 2.744 2.908Zm-33.703 0 1.309 5.113a1.369 1.369 0 0 0 1.351 1.024c.697 0 1-.133 1.109-.503l-.352-6.386c.006-1.423-.018-2.283-1.084-2.15-1.587.194-2.702 1.43-2.333 2.902Z" fill="#505050"/><rect x="65.25" y="67.955" width="34.5" height="20.101" rx="1.75" fill="#2B2B2B" stroke="#2B2B2B" stroke-width=".5"/><rect x="68.153" y="72.754" width="1.682" height="1.682" rx=".841" fill="#404040"/><rect x="70.255" y="72.754" width="1.682" height="1.682" rx=".841" fill="#404040"/><rect x="72.357" y="72.754" width="1.682" height="1.682" rx=".841" fill="#404040"/><rect x="68.153" y="75.906" width="10.721" height="1.682" rx=".841" fill="#404040"/><rect x="68.153" y="78.639" width="14.084" height="1.682" rx=".841" fill="#404040"/><rect x="68.153" y="83.891" width="28.589" height="1.682" rx=".841" fill="#404040"/><path d="M89.97 78.65h2.387v1.97H89.96l.008-1.97Zm-1.516-2.638c0 .35-.212.635-.48.635-.266 0-.478-.284-.478-.635 0-.35.212-.634.48-.634.266 0 .478.284.478.634m6.385-.009c0 .35-.212.635-.48.635-.266 0-.479-.285-.479-.635 0-.35.212-.634.48-.634.266 0 .479.293.479.634Z" fill="#505050"/><path d="M89.97 78.934s.455.235 1.107.235c.77.032 1.272-.227 1.272-.227v.235s-.848.455-1.225.455c-.385 0-1.155-.534-1.155-.534v-.164Z" fill="#404040"/><path d="M94.28 75.498c0 .812-.245 1.912-.658 2.506-.568.82-1.851 1.198-2.451 1.198-.607 0-1.76-.308-2.33-1.033-.486-.618-.78-1.783-.78-2.67 0-1.931 1.39-3.501 3.11-3.501s3.11 1.57 3.11 3.5" fill="#505050"/><path d="M94.556 73.894s-.027-1.209-.717-2.07c-.481-.602-2.016-1.038-3.115-.952 0 0-2.154.086-2.199 1.516-.393.236-.797.642-.84 1.325-.087 1.373.156 1.734.156 1.734s.346 0 .432.518c0 0 .157.095.173 0 .023-.157-.142-.91.188-1.6.04-.088.082-.166.12-.236 1.08-1.2 4.247-1.076 4.99.237.03.091.052.185.065.28.063.449.141 1.296.141 1.296s.118.078.197-.11c.078-.196.062-.385.133-.44.401-.266.3-1.38.276-1.498Z" fill="#404040"/><path fill-rule="evenodd" clip-rule="evenodd" d="M96.223 81.362c.173.173.324.325.445.421l-.01.012H85.592c.099-.089.214-.219.347-.368.337-.38.787-.886 1.35-1.162 1.178-.573 2.672-.398 2.672-.398l.007.055c.103.11.574.534 1.194.534.628 0 1.092-.455 1.186-.557v-.038s1.354-.168 2.525.405c.495.237.973.718 1.349 1.096Z" fill="#404040"/></svg>