<svg width="163" height="98" fill="none" xmlns="http://www.w3.org/2000/svg"><rect width="162.5" height="98" rx="16" fill="#fff" fill-opacity=".1"/><rect x="13" y="24" width="8" height="8" rx="4" fill="#404040"/><rect x="23" y="24" width="8" height="8" rx="4" fill="#404040"/><rect x="33" y="24" width="8" height="8" rx="4" fill="#404040"/><rect x="13" y="39" width="51" height="8" rx="4" fill="#404040"/><rect x="13" y="52" width="67" height="8" rx="4" fill="#404040"/><rect x="13" y="77" width="136" height="8" rx="4" fill="#404040"/><path d="M116.783 52.054h11.357v9.372h-11.394l.037-9.372Zm-7.21-12.546c0 1.667-1.009 3.018-2.279 3.018s-2.275-1.35-2.275-3.018c0-1.666 1.008-3.016 2.279-3.016 1.27 0 2.278 1.35 2.278 3.016m30.372-.041c0 1.666-1.009 3.016-2.279 3.016s-2.281-1.353-2.281-3.016c0-1.664 1.008-3.018 2.278-3.018s2.282 1.393 2.282 3.018Z" fill="#505050"/><path d="M116.783 53.398s2.167 1.12 5.268 1.12c3.661.15 6.052-1.082 6.052-1.082v1.12s-4.035 2.166-5.828 2.166c-1.831 0-5.493-2.54-5.493-2.54l.001-.784Z" fill="#404040"/><path d="M137.293 37.053c0 3.863-1.169 9.097-3.132 11.925-2.706 3.898-8.808 5.699-11.662 5.699-2.885 0-8.376-1.47-11.085-4.917-2.309-2.94-3.709-8.48-3.709-12.703 0-9.185 6.613-16.653 14.794-16.653 8.181 0 14.794 7.468 14.794 16.653" fill="#505050"/><path d="M138.601 29.427s-.129-5.75-3.408-9.847c-2.291-2.862-9.594-4.94-14.823-4.528 0 0-10.244.41-10.457 7.212-1.872 1.12-3.795 3.052-4.001 6.3-.41 6.535.747 8.252.747 8.252s1.644 0 2.056 2.464c0 0 .747.449.819 0 .112-.747-.672-4.331.897-7.617.193-.415.387-.785.574-1.116 5.136-5.71 20.2-5.118 23.73 1.125.145.435.249.882.313 1.335.298 2.131.672 6.161.672 6.161s.56.373.934-.522c.374-.934.299-1.83.635-2.091 1.909-1.268 1.424-6.567 1.312-7.128Z" fill="#404040"/><path fill-rule="evenodd" clip-rule="evenodd" d="M146.532 64.944c.822.825 1.541 1.548 2.117 2.007l-.044.047H95.973c.465-.421 1.012-1.036 1.64-1.742 1.605-1.807 3.744-4.214 6.423-5.527 5.602-2.726 12.709-1.894 12.709-1.894l.038.262c.486.524 2.726 2.54 5.678 2.54 2.989 0 5.193-2.165 5.641-2.651v-.183s6.443-.795 12.01 1.931c2.355 1.126 4.631 3.413 6.42 5.21Z" fill="#404040"/></svg>