<svg width="30" height="30" fill="none" xmlns="http://www.w3.org/2000/svg"><circle cx="15" cy="15" r="15" fill="#fff" fill-opacity=".1"/><path d="M15 23.333a8.333 8.333 0 1 1 0-16.666 8.333 8.333 0 0 1 0 16.666Zm-1.908-1.943a14.917 14.917 0 0 1-1.403-5.557H8.385a6.673 6.673 0 0 0 4.707 5.557Zm.267-5.557A13.254 13.254 0 0 0 15 21.46a13.255 13.255 0 0 0 1.641-5.627H13.36Zm8.256 0h-3.304a14.917 14.917 0 0 1-1.403 5.557 6.674 6.674 0 0 0 4.707-5.557Zm-13.23-1.666h3.304a14.91 14.91 0 0 1 1.403-5.556 6.674 6.674 0 0 0-4.707 5.556Zm4.974 0h3.282A13.254 13.254 0 0 0 15 8.54a13.253 13.253 0 0 0-1.641 5.627Zm3.55-5.556a14.917 14.917 0 0 1 1.402 5.556h3.304a6.674 6.674 0 0 0-4.707-5.556Z" fill="#fff"/></svg>