<svg width="24" height="24" fill="none" xmlns="http://www.w3.org/2000/svg"><path d="M2 12C2 6.477 6.477 2 12 2s10 4.477 10 10-4.477 10-10 10S2 17.523 2 12Zm10-8.496a8.496 8.496 0 0 0-8.12 11 .744.744 0 0 1 .078.027c1.173.471 1.653.315 1.841.142.023-.02.088-.105.144-.374.044-.215.065-.454.09-.744l.02-.223c.035-.361.084-.802.223-1.202.143-.417.406-.856.904-1.128.596-.325 1.198-.155 1.611.03.34.154.7.387 1.01.588l.184.12c.385.245.705.426.996.513.263.078.451.063.631-.037a.546.546 0 0 0 .3-.405c.049-.228.033-.525-.017-.943a35.92 35.92 0 0 0-.022-.181c-.043-.343-.097-.764-.08-1.147.023-.48.158-1.048.651-1.478.684-.594 1.502-.643 1.967-.671.07-.003.13-.007.182-.012.25-.024.305-.059.315-.066l.002-.002.003-.003a.159.159 0 0 0 .018-.029.86.86 0 0 0 .072-.257c.024-.155.023-.251.017-.306a.276.276 0 0 0-.01-.05l-.002-.01-.002-.001-.002-.003a1.238 1.238 0 0 0-.175-.125l-.058-.033a3.008 3.008 0 0 1-.64-.476c-.28-.289-.484-.669-.577-1.183V4.83a8.45 8.45 0 0 1-.15-1.21A8.553 8.553 0 0 0 12 3.504Zm0 16.992c.316 0 .629-.018.935-.051a3.684 3.684 0 0 1-.523-1.996c.006-.455.078-.833.22-1.156.147-.33.347-.554.532-.722.105-.096.214-.187.326-.275.123-.098.156-.124.205-.248.03-.082.052-.222.062-.491l.004-.15c.007-.217.014-.493.05-.75.048-.338.153-.737.425-1.096.28-.37.686-.627 1.205-.77 1.03-.28 2.176.006 3.112.46a6.835 6.835 0 0 1 1.616 1.09 8.5 8.5 0 0 0-5.221-10.31c.02.15.048.328.084.533.045.246.121.349.179.408.073.075.151.122.317.223l.077.045c.186.113.508.31.716.685.214.386.244.834.167 1.33-.082.524-.286.969-.683 1.265-.367.272-.789.33-1.072.356l-.296.026c-.469.037-.733.058-1.006.295-.062.054-.124.147-.136.412-.01.242.022.507.065.852l.028.229c.049.409.101.935-.006 1.436-.119.55-.381 1.033-.99 1.374l-.048.03c-.622.346-1.247.326-1.79.166-.516-.153-.996-.444-1.38-.69l-.232-.15c-.306-.196-.545-.35-.768-.45a.843.843 0 0 0-.273-.081h-.004c-.063.034-.134.103-.2.297-.074.21-.113.486-.147.849l-.016.18a8.672 8.672 0 0 1-.118.949c-.077.371-.226.84-.604 1.185-.583.532-1.336.643-2.143.512a8.492 8.492 0 0 0 7.331 4.2v-.001Zm2.608-.408a8.52 8.52 0 0 0 4.95-4.204c-.352-.452-.957-.939-1.661-1.28-.782-.379-1.53-.506-2.058-.362-.257.07-.357.164-.405.228-.056.075-.105.192-.133.397-.024.165-.028.329-.034.531l-.007.216c-.01.266-.031.633-.162.972-.21.546-.647.884-.846 1.037l-.08.064a.593.593 0 0 0-.164.214c-.04.091-.088.259-.092.57-.015.955.486 1.47.615 1.557a.775.775 0 0 1 .077.06Z" fill="#fff"/></svg>