<svg xmlns="http://www.w3.org/2000/svg" viewBox="0 0 32 32"><circle cx="16" cy="16" r="16" fill="#CDD4E3"/><path d="M22.1402 14.867H22.9483C23.3946 14.867 23.7564 15.2288 23.7564 15.6751V23.7559C23.7564 24.2022 23.3946 24.564 22.9483 24.564H10.019C9.57273 24.564 9.21094 24.2022 9.21094 23.7559V15.6751C9.21094 15.2288 9.57273 14.867 10.019 14.867H10.8271V14.0589C10.8271 10.9349 13.3596 8.40234 16.4837 8.40234C19.6077 8.40234 22.1402 10.9349 22.1402 14.0589V14.867ZM10.8271 16.4832V22.9478H22.1402V16.4832H10.8271ZM15.6756 18.0993H17.2917V21.3316H15.6756V18.0993ZM20.5241 14.867V14.0589C20.5241 11.8275 18.7151 10.0185 16.4837 10.0185C14.2522 10.0185 12.4433 11.8275 12.4433 14.0589V14.867H20.5241Z" fill="#97E180"/></svg>