<svg width="94" height="69" viewBox="0 0 94 69" fill="none" xmlns="http://www.w3.org/2000/svg">
<ellipse cx="46" cy="53.543" rx="34" ry="14.5" fill="url(#paint0_linear_553_6409)"/>
<path d="M15.5714 4.32857L15.5363 4.89625L15.4309 5.4462L15.2553 5.9784L15.0094 6.49286L14.6932 6.9541L14.3244 7.37986L13.8852 7.77014L13.4286 8.07172L12.9368 8.32008L12.3923 8.49748L11.8478 8.62166L11.2857 8.65714L10.7237 8.62166L10.1792 8.49748L9.65222 8.32008L9.14286 8.07172L8.68618 7.77014L8.26464 7.37986L7.87822 6.9541L7.57963 6.49286L7.33372 5.9784L7.15808 5.4462L7.03513 4.89625L7 4.32857L7.05269 3.72541L7.15808 3.17547L7.33372 2.64327L7.59719 2.14655L7.89578 1.6853L8.66862 0.904743L9.12529 0.585422L9.6171 0.33706L10.144 0.159659L10.7061 0.0354795L11.2857 0L11.8829 0.0354795L12.4274 0.159659L12.9543 0.33706L13.4461 0.585422L14.3244 1.25954L14.6756 1.6853L14.9918 2.14655L15.2377 2.64327L15.4133 3.17547L15.5363 3.72541L15.5714 4.32857Z" fill="#CAD6F0"/>
<path d="M90 18L89.9754 17.6066L89.9016 17.2254L89.7787 16.8566L89.6066 16.5L89.3852 16.1803L89.127 15.8852L88.8197 15.6148L88.5 15.4057L88.1557 15.2336L87.7746 15.1107L87.3934 15.0246L87 15L86.6066 15.0246L86.2254 15.1107L85.8566 15.2336L85.5 15.4057L85.1803 15.6148L84.8852 15.8852L84.6148 16.1803L84.4057 16.5L84.2336 16.8566L84.1107 17.2254L84.0246 17.6066L84 18L84.0369 18.418L84.1107 18.7992L84.2336 19.168L84.418 19.5123L84.627 19.832L85.168 20.3729L85.4877 20.5943L85.832 20.7664L86.2008 20.8893L86.5943 20.9754L87 21L87.418 20.9754L87.7992 20.8893L88.168 20.7664L88.5123 20.5943L89.127 20.127L89.373 19.832L89.5943 19.5123L89.7664 19.168L89.8893 18.7992L89.9754 18.418L90 18Z" fill="#CAD6F0"/>
<path d="M72.7872 53.3145H22.5935L22.0927 53.2644L21.1746 53.0307L20.7573 52.8137L20.2399 52.4465L19.8225 52.0125L19.4553 51.5117L19.2383 51.0944L18.9879 50.1763L18.9545 49.6756V15.9905L18.9879 15.4897L19.2383 14.5716L19.4553 14.1543L19.8059 13.6369L20.2399 13.2029L20.7573 12.8523L21.6253 12.4851L22.0927 12.3849L22.5935 12.3516H72.7872L73.288 12.3849L74.1894 12.6353L74.6067 12.8523L75.1242 13.2029L75.5582 13.6369L75.9254 14.1543L76.1257 14.5716L76.3761 15.4897L76.4095 15.9905V49.6756L76.3761 50.1763L76.1257 51.0944L75.9254 51.5117L75.5582 52.0125L75.1242 52.4465L74.6234 52.8137L74.1894 53.0307L73.288 53.2644L72.7872 53.3145Z" fill="url(#paint1_linear_553_6409)"/>
<path d="M50.8202 36.7897L37.8669 16.0745L37.6499 15.6572L37.5331 15.2399L37.483 14.8059L37.4997 14.3719L37.5999 13.9546L37.7668 13.554L38.0005 13.1867L38.3009 12.8696L38.6682 12.5858L55.8445 1.85267L56.2452 1.63567L56.6792 1.51882L57.1132 1.46875L57.5472 1.48544L57.9645 1.58559L58.3651 1.75252L58.7323 1.98621L59.0495 2.28667L59.3332 2.6539L72.2865 23.3691L72.4868 23.7697L72.6203 24.2037L72.6704 24.621L72.637 25.0717L72.5369 25.4723L72.3699 25.8729L72.1362 26.2401L71.8358 26.574L71.4685 26.8577L54.3089 37.5909L53.8915 37.7912L53.4742 37.9248L53.0402 37.9748L52.6062 37.9414L52.1889 37.858L51.7883 37.6911L51.4211 37.4574L51.1039 37.1569L50.8202 36.7897Z" fill="url(#paint2_linear_553_6409)"/>
<path d="M47.7488 38.6093L32.7424 14.6225L32.5421 14.2052L32.4085 13.7878L32.3585 13.3538L32.3919 12.9198L32.4753 12.5025L32.6422 12.1019L32.8759 11.7347L33.1764 11.4009L33.5436 11.1338L50.72 0.383926L51.1373 0.183616L51.5546 0.05008L51.9886 0L52.4226 0.0333867L52.8399 0.133542L53.2405 0.300465L53.6078 0.534156L53.9249 0.817922L54.2087 1.20185L69.2151 25.1887L69.4154 25.606L69.5489 26.0233L69.599 26.4573L69.5656 26.8913L69.4822 27.3086L69.3152 27.7092L69.0815 28.0765L68.7811 28.3936L68.4139 28.6774L51.2375 39.4105L50.8202 39.6275L50.4029 39.7444L49.9689 39.7945L49.5349 39.7778L49.1175 39.6776L48.7169 39.5107L48.3497 39.277L48.0325 38.9765L47.7488 38.6093Z" fill="url(#paint3_linear_553_6409)"/>
<path d="M45.2616 3.8071L58.2816 24.7226L60.7855 20.4326L49.1342 1.38672L45.2616 3.8071Z" fill="url(#paint4_linear_553_6409)"/>
<path d="M69.4989 55.5514H19.6389L19.1382 55.518L18.2201 55.2677L17.8028 55.0507L17.2853 54.7001L16.8513 54.2661L16.5008 53.7487L16.2838 53.3314L16.0334 52.4133L16 51.9125V18.9953L16.0334 18.4945L16.2838 17.5931L16.5008 17.1591L16.8513 16.6584L17.2853 16.2244L17.8028 15.8571L18.2201 15.6568L19.1382 15.4064L19.6389 15.373H69.4989L69.9996 15.4064L70.9177 15.6568L71.335 15.8571L71.8525 16.2244L72.2698 16.6584L72.637 17.1591L72.854 17.5764L73.1044 18.4945L73.1378 18.9953V51.9125L73.1044 52.4133L72.854 53.3314L72.637 53.7487L72.2698 54.2661L71.8525 54.7001L71.335 55.0507L70.9177 55.2677L69.9996 55.518L69.4989 55.5514Z" fill="url(#paint5_linear_553_6409)"/>
<path d="M76.4095 39.8115L73.1211 41.8146V32.3L76.4095 30.2969V39.8115Z" fill="url(#paint6_linear_553_6409)"/>
<path d="M52.6563 41.197H73.1378V31.3652H52.6563L52.2056 31.3986L51.7883 31.5155L51.4044 31.6991L51.0539 31.9495L50.7701 32.2332L50.5197 32.5838L50.3361 32.9677L50.2192 33.385L50.1859 33.8357V38.7265L50.2192 39.1772L50.3361 39.5779L50.5197 39.9618L50.7701 40.3123L51.0539 40.6128L51.4044 40.8465L51.7883 41.0301L52.2056 41.1469L52.6563 41.197Z" fill="url(#paint7_linear_553_6409)"/>
<path d="M52.6563 41.8134H73.1378V32.2988H52.6563L52.2056 32.3489L51.7883 32.4491L51.4044 32.6327L51.0539 32.8831L50.7701 33.1835L50.5197 33.5341L50.3361 33.9013L50.2192 34.3186L50.1859 34.7693V39.343L50.2192 39.7937L50.3361 40.211L50.5197 40.5949L50.7701 40.9454L51.0539 41.2292L51.4044 41.4796L51.7883 41.6632L52.2056 41.7801L52.6563 41.8134Z" fill="url(#paint8_linear_553_6409)"/>
<path d="M57.0965 37.0895L57.0631 37.4401L56.796 38.0577L56.579 38.3247L56.3119 38.5417L56.0282 38.692L55.6943 38.7921L55.3605 38.8255L55.0099 38.7921L54.3923 38.5417L54.1252 38.3247L53.9082 38.0577L53.6412 37.4401L53.6078 37.0895L53.6412 36.739L53.9082 36.1214L54.1252 35.8543L54.3923 35.6373L55.0099 35.3869L55.3605 35.3535L55.6943 35.3869L56.3119 35.6373L56.579 35.8543L56.796 36.1214L56.9629 36.4218L57.0631 36.739L57.0965 37.0895Z" fill="#A6B4D4"/>
<path d="M73.1211 31.347L76.4262 29.6777L76.4095 30.6292L73.1378 32.2984L73.1211 31.347Z" fill="url(#paint9_linear_553_6409)"/>
<path d="M86.5048 67.9609L87.619 66.5009V54.6309H89.1333V66.5009L90.2476 67.9609H86.5048Z" fill="#9EB5EA"/>
<path d="M82.8 53.6208L82.8667 53.1008L82.9333 52.8508L83.1619 52.3908L83.4857 52.0008L83.8952 51.7008L83.7238 51.3708L83.6095 51.0308L83.5524 50.6708V50.3008L83.6095 49.9408L83.7238 49.5908L83.8952 49.2608L84.1048 48.9808L84.3714 48.7308L84.6571 48.5408L84.981 48.4008L85.3238 48.3108L85.4286 48.0008L85.5619 47.7208L85.7333 47.4608L85.9429 47.2308L86.181 47.0308L86.4476 46.8708L86.5238 46.5408L86.6476 46.2408L86.8095 45.9608L87.0095 45.7108L87.2381 45.5008L87.4952 45.3208L87.7714 45.1908L88.0762 45.1008L88.4 45.0508L88.7238 45.0608L89.0286 45.1208L89.3143 45.2308L89.5905 45.3808L89.8381 45.5608L90.0571 45.7908L90.2476 46.0508L90.4 46.3408L90.5048 46.6608L90.8667 46.7108L91.2 46.8308L91.4952 47.0008L91.7714 47.2208L92 47.4808L92.1905 47.7808L92.3333 48.1008L92.419 48.4608L92.4571 48.8408L92.4 49.3608L92.6667 49.5208L92.9048 49.7108L93.1143 49.9508L93.2952 50.2108L93.4286 50.4908L93.5333 50.8008L93.581 51.1308L93.5905 51.4508L93.5524 51.7608L93.4667 52.0708L93.3429 52.3608L93.181 52.6408L93.381 52.8408L93.6952 53.3008L93.8095 53.5508L93.9429 54.1008L93.9333 54.6608L93.8762 54.9508L93.6571 55.4708L93.3238 55.9108L92.8952 56.2508L92.3905 56.4608L92.1238 56.5108L92.0952 56.8508L92.0381 57.1508L91.9333 57.4308L91.8 57.7008L91.6286 57.9408L91.4286 58.1608L91.2 58.3408L90.9429 58.5008L90.6667 58.6108L90.3714 58.6908L90.0762 58.7108L89.7905 58.7008L89.5048 58.6408L89.2286 58.5408L88.9714 58.4108L88.7333 58.2308L88.5238 58.0208L88.3333 57.7808L88.1143 58.0608L87.8571 58.2908L87.581 58.4708L87.2762 58.6008L86.9714 58.6808L86.6381 58.7108L86.3143 58.6908L85.9905 58.6108L85.6667 58.4708L85.381 58.2808L85.1238 58.0508L84.9143 57.7808L84.7524 57.4908L84.6381 57.1708L84.5619 56.8408L84.5429 56.4908L84.5714 56.1508L84.6667 55.8008L84.3143 55.7208L84 55.6008L83.7143 55.4308L83.4476 55.2108L83.2286 54.9508L83.0476 54.6608L82.9143 54.3308L82.8286 53.9908L82.8 53.6208Z" fill="url(#paint10_linear_553_6409)"/>
<g clip-path="url(#clip0_553_6409)">
<path d="M3.98251 65.1419L4.66472 64.2426V56.9316H5.59184V64.2426L6.27405 65.1419H3.98251Z" fill="#9EB5EA"/>
<path d="M1.71428 56.3097L1.7551 55.9894L1.79592 55.8355L1.93586 55.5521L2.13411 55.3119L2.38484 55.1271L2.27988 54.9239L2.20991 54.7145L2.17493 54.4927V54.2648L2.20991 54.0431L2.27988 53.8275L2.38484 53.6243L2.51312 53.4518L2.67638 53.2978L2.85131 53.1808L3.04956 53.0946L3.25947 53.0392L3.32361 52.8482L3.40525 52.6758L3.5102 52.5156L3.63848 52.374L3.78426 52.2508L3.94752 52.1522L3.99417 51.949L4.06997 51.7642L4.1691 51.5917L4.29154 51.4378L4.43149 51.3084L4.58892 51.1975L4.75802 51.1175L4.9446 51.062L5.14286 51.0312L5.34111 51.0374L5.5277 51.0744L5.70262 51.1421L5.87172 51.2345L6.02332 51.3454L6.15743 51.487L6.27405 51.6472L6.36735 51.8258L6.43149 52.0229L6.65306 52.0537L6.85714 52.1276L7.0379 52.2323L7.207 52.3678L7.34694 52.5279L7.46356 52.7127L7.55102 52.9098L7.6035 53.1315L7.62682 53.3656L7.59184 53.6859L7.7551 53.7844L7.90087 53.9015L8.02915 54.0493L8.13994 54.2094L8.22157 54.3819L8.28571 54.5728L8.31487 54.7761L8.3207 54.9732L8.29737 55.1641L8.2449 55.355L8.16909 55.5336L8.06997 55.7061L8.19242 55.8293L8.38484 56.1126L8.45481 56.2666L8.53644 56.6054L8.53061 56.9503L8.49563 57.1289L8.36151 57.4492L8.15743 57.7202L7.89504 57.9296L7.586 58.0589L7.42274 58.0897L7.40525 58.2991L7.37026 58.4839L7.30612 58.6564L7.22449 58.8227L7.11953 58.9705L6.99708 59.106L6.85714 59.2169L6.69971 59.3154L6.53061 59.3832L6.34985 59.4324L6.16909 59.4448L5.99417 59.4386L5.81924 59.4016L5.65014 59.3401L5.49271 59.26L5.34694 59.1491L5.21866 59.0198L5.10204 58.872L4.96793 59.0444L4.81049 59.1861L4.6414 59.2969L4.45481 59.377L4.26822 59.4263L4.06414 59.4448L3.86589 59.4324L3.66764 59.3832L3.46939 59.2969L3.29446 59.1799L3.13702 59.0383L3.00874 58.872L2.90962 58.6933L2.83965 58.4962L2.793 58.293L2.78134 58.0774L2.79883 57.868L2.85714 57.6524L2.6414 57.6032L2.44898 57.5292L2.27405 57.4245L2.11079 57.289L1.97668 57.1289L1.86589 56.9503L1.78426 56.747L1.73178 56.5376L1.71428 56.3097Z" fill="url(#paint11_linear_553_6409)"/>
</g>
<defs>
<linearGradient id="paint0_linear_553_6409" x1="46" y1="39.043" x2="46" y2="68.043" gradientUnits="userSpaceOnUse">
<stop stop-color="#E6ECFA"/>
<stop offset="1" stop-color="white"/>
</linearGradient>
<linearGradient id="paint1_linear_553_6409" x1="47.682" y1="12.3516" x2="47.682" y2="53.3145" gradientUnits="userSpaceOnUse">
<stop stop-color="#8294BE"/>
<stop offset="1" stop-color="#5E7ABB"/>
</linearGradient>
<linearGradient id="paint2_linear_553_6409" x1="55.0767" y1="1.46875" x2="55.0767" y2="37.9748" gradientUnits="userSpaceOnUse">
<stop stop-color="#90A7DB"/>
<stop offset="1" stop-color="#121D35"/>
</linearGradient>
<linearGradient id="paint3_linear_553_6409" x1="14036.3" y1="11671" x2="18225.9" y2="18461.9" gradientUnits="userSpaceOnUse">
<stop stop-color="#E5EBF8"/>
<stop offset="1" stop-color="#C4CFE8"/>
</linearGradient>
<linearGradient id="paint4_linear_553_6409" x1="6342.18" y1="6457.6" x2="8322.05" y2="8738.84" gradientUnits="userSpaceOnUse">
<stop offset="0.327" stop-color="#B6C4E4"/>
<stop offset="1" stop-color="#C8D1DB"/>
</linearGradient>
<linearGradient id="paint5_linear_553_6409" x1="44.5689" y1="15.373" x2="44.5689" y2="55.5514" gradientUnits="userSpaceOnUse">
<stop stop-color="#C9D5EF"/>
<stop offset="1" stop-color="#9CB3E7"/>
</linearGradient>
<linearGradient id="paint6_linear_553_6409" x1="1872.73" y1="5688.96" x2="2063.36" y2="5657.54" gradientUnits="userSpaceOnUse">
<stop offset="0.1119" stop-color="#FCFDFD"/>
<stop offset="0.9205" stop-color="#D2D9E3"/>
</linearGradient>
<linearGradient id="paint7_linear_553_6409" x1="9742.43" y1="4747.92" x2="12899.1" y2="4747.92" gradientUnits="userSpaceOnUse">
<stop offset="0.327" stop-color="#D9DFE8"/>
<stop offset="1" stop-color="#C8D1DB"/>
</linearGradient>
<linearGradient id="paint8_linear_553_6409" x1="9742.43" y1="4641.37" x2="12899.1" y2="4641.37" gradientUnits="userSpaceOnUse">
<stop offset="0.1119" stop-color="#F4F6F8"/>
<stop offset="0.9205" stop-color="#D2D9E3"/>
</linearGradient>
<linearGradient id="paint9_linear_553_6409" x1="1923.04" y1="1203.89" x2="1988.25" y2="1203.89" gradientUnits="userSpaceOnUse">
<stop offset="0.1119" stop-color="#C9D5E2"/>
<stop offset="0.9205" stop-color="#DAE0E8"/>
</linearGradient>
<linearGradient id="paint10_linear_553_6409" x1="88.3714" y1="45.0508" x2="88.3714" y2="58.7108" gradientUnits="userSpaceOnUse">
<stop stop-color="#CAD6F0"/>
<stop offset="1" stop-color="#B0C5F7"/>
</linearGradient>
<linearGradient id="paint11_linear_553_6409" x1="5.12536" y1="51.0312" x2="5.12536" y2="59.4448" gradientUnits="userSpaceOnUse">
<stop stop-color="#CAD6F0"/>
<stop offset="1" stop-color="#B0C5F7"/>
</linearGradient>
<clipPath id="clip0_553_6409">
<rect width="8.57143" height="14.1662" fill="white" transform="matrix(-1 0 0 1 8.57143 51)"/>
</clipPath>
</defs>
</svg>
