<svg width="24" height="24" fill="none" xmlns="http://www.w3.org/2000/svg"><path d="M20.28 21.995H4.53C3.72 22.078 3 21.08 3 20.58v-9.415c0-1 1.17-1.666 1.8-1.666h.9v-2.5C5.7 4.167 8.94 2 12 2c3.06 0 6.3 2.166 6.3 4.999v2.5h.9c.72 0 1.8.582 1.8 1.665v9.415c-.09.5.09 1.416-.72 1.416ZM16.41 7c0-1.916-2.43-3.333-4.5-3.333S7.41 5.083 7.41 7v2.5h9V7Zm2.7 4.165H4.71v9.165h14.4l.27.25-.27-9.415Z" fill="#fff"/><path d="m10.056 14.722-.59.529-.767-.904 2.524-2.27v6.722h-1.167v-4.077Zm4.087 1.433.589-.529.768.904-2.524 2.27v-6.722h1.167v4.077Z" fill="#fff"/></svg>