<svg width="24" height="24" fill="none" xmlns="http://www.w3.org/2000/svg"><path d="M20.28 21.995H4.53C3.72 22.078 3 21.08 3 20.58v-9.415c0-1 1.17-1.666 1.8-1.666h.9v-2.5C5.7 4.167 8.94 2 12 2c3.06 0 6.3 2.166 6.3 4.999v2.5h.9c.72 0 1.8.582 1.8 1.665v9.415c-.09.5.09 1.416-.72 1.416ZM16.41 7c0-1.916-2.43-3.333-4.5-3.333S7.41 5.083 7.41 7v2.5h9V7Zm2.7 4.165H4.71v9.165h14.4l.27.25-.27-9.415Zm-6.3 4.75v1.915c0 .5-.36.834-.9.834s-.9-.417-.9-.834v-1.916c-.54-.25-.9-.833-.9-1.416 0-.916.81-1.666 1.8-1.666s1.8.75 1.8 1.666c0 .583-.36 1.166-.9 1.416Z" fill="#fff"/></svg>