<svg width="24" height="24" fill="none" xmlns="http://www.w3.org/2000/svg"><path d="M22.902 19.965c0 .304-.053.588-.157.852a2.11 2.11 0 0 1-1.116 1.164 2.06 2.06 0 0 1-.84.168H3.361a2.284 2.284 0 0 1-2.077-1.332 2.034 2.034 0 0 1-.18-.852V7.985c0-.607.212-1.124.636-1.548a2.108 2.108 0 0 1 1.549-.636h17.428c.608 0 1.125.212 1.548.636.425.425.637.941.637 1.549v3.265h-5.45a2.13 2.13 0 0 0-1.548.624 2.066 2.066 0 0 0-.636 1.536c.015.416.105.785.264 1.104.127.272.34.521.636.745.296.225.725.336 1.284.336h5.45v4.369ZM19.637 4.697H8.738c.864-.449 1.68-.88 2.449-1.296a297.39 297.39 0 0 0 1.992-1.057c.656-.352 1.169-.624 1.537-.816.56-.304 1.06-.444 1.5-.42.44.024.812.1 1.116.228.353.176.656.408.912.696l1.393 2.665Zm-3.265 8.714c0-.304.105-.56.312-.768a1.045 1.045 0 0 1 .768-.312c.305 0 .56.105.768.312.209.208.313.465.313.768 0 .305-.106.564-.313.78a1.025 1.025 0 0 1-.768.324 1.026 1.026 0 0 1-.768-.324 1.087 1.087 0 0 1-.312-.78Z" fill="#171717"/><path d="M15 13.5a2.5 2.5 0 0 1 2.5-2.5h5.398v5H17.5a2.5 2.5 0 0 1-2.5-2.5Z" fill="#00A609"/><circle cx="17.5" cy="13.5" r="1.5" fill="#171717"/><mask id="a" style="mask-type:alpha" maskUnits="userSpaceOnUse" x="1" y="1" width="22" height="22"><path d="M22.902 19.965c0 .304-.053.588-.157.852a2.11 2.11 0 0 1-1.116 1.164 2.06 2.06 0 0 1-.84.168H3.361a2.284 2.284 0 0 1-2.077-1.332 2.034 2.034 0 0 1-.18-.852V7.985c0-.607.212-1.124.636-1.548a2.108 2.108 0 0 1 1.549-.636h17.428c.608 0 1.125.212 1.548.636.425.425.637.941.637 1.549v3.265h-5.45a2.13 2.13 0 0 0-1.548.624 2.066 2.066 0 0 0-.636 1.536c.015.416.105.785.264 1.104.127.272.34.521.636.745.296.225.725.336 1.284.336h5.45v4.369ZM19.637 4.697H8.738c.864-.449 1.68-.88 2.449-1.296a297.39 297.39 0 0 0 1.992-1.057c.656-.352 1.169-.624 1.537-.816.56-.304 1.06-.444 1.5-.42.44.024.812.1 1.116.228.353.176.656.408.912.696l1.393 2.665Zm-3.265 8.714c0-.304.105-.56.312-.768a1.045 1.045 0 0 1 .768-.312c.305 0 .56.105.768.312.209.208.313.465.313.768 0 .305-.106.564-.313.78a1.025 1.025 0 0 1-.768.324 1.026 1.026 0 0 1-.768-.324 1.087 1.087 0 0 1-.312-.78Z" fill="#E29D13"/></mask><g mask="url(#a)"><path fill="#fff" fill-opacity=".1" d="m12.79-17 12.628 9.825-25.79 33.149L-13 16.149z"/></g></svg>