<svg width="24px" height="24px" viewBox="0 0 24 24" fill="none" xmlns="http://www.w3.org/2000/svg">
<g clip-path="url(#clip0_481_5165)">
<path d="M2.1445 1.27734H21.445C22.0138 1.27734 22.5592 1.50328 22.9614 1.90545C23.3636 2.30763 23.5895 2.85309 23.5895 3.42185V7.71085H0V3.42185C0 2.85309 0.225938 2.30763 0.62811 1.90545C1.03028 1.50328 1.57575 1.27734 2.1445 1.27734ZM0 9.85535H23.5895V20.5779C23.5895 21.1466 23.3636 21.6921 22.9614 22.0943C22.5592 22.4964 22.0138 22.7224 21.445 22.7224H2.1445C1.57575 22.7224 1.03028 22.4964 0.62811 22.0943C0.225938 21.6921 0 21.1466 0 20.5779L0 9.85535ZM13.5816 17.7188V19.8633H15.7261V17.7188H13.5816ZM16.4415 17.7188V19.8633H18.586V17.7188H16.4415ZM19.3005 17.7188V19.8633H21.445V17.7188H19.3005Z" fill="url(#paint0_linear_481_5165)"/>
<mask id="mask0_481_5165" style="mask-type:alpha" maskUnits="userSpaceOnUse" x="0" y="1" width="24" height="22">
<path d="M2.1445 1.27734H21.445C22.0138 1.27734 22.5592 1.50328 22.9614 1.90545C23.3636 2.30763 23.5895 2.85309 23.5895 3.42185V7.71085H0V3.42185C0 2.85309 0.225938 2.30763 0.62811 1.90545C1.03028 1.50328 1.57575 1.27734 2.1445 1.27734ZM0 9.85535H23.5895V20.5779C23.5895 21.1466 23.3636 21.6921 22.9614 22.0943C22.5592 22.4964 22.0138 22.7224 21.445 22.7224H2.1445C1.57575 22.7224 1.03028 22.4964 0.62811 22.0943C0.225938 21.6921 0 21.1466 0 20.5779L0 9.85535ZM13.5816 17.7188V19.8633H15.7261V17.7188H13.5816ZM16.4415 17.7188V19.8633H18.586V17.7188H16.4415ZM19.3005 17.7188V19.8633H21.445V17.7188H19.3005Z" fill="#014CFA"/>
</mask>
<g mask="url(#mask0_481_5165)">
<rect x="12.79" y="-17" width="16" height="42" transform="rotate(37.8828 12.79 -17)" fill="white" fill-opacity="0.1"/>
</g>
</g>
<defs>
<linearGradient id="paint0_linear_481_5165" x1="11.9667" y1="1.98046" x2="10.1825" y2="22.5737" gradientUnits="userSpaceOnUse">
<stop stop-color="#6794FB"/>
<stop offset="1" stop-color="#014CFA"/>
</linearGradient>
<clipPath id="clip0_481_5165">
<rect width="24" height="24" fill="white"/>
</clipPath>
</defs>
</svg>
