<svg width="19" height="19" viewBox="0 0 19 19" fill="none" xmlns="http://www.w3.org/2000/svg">
<g clip-path="url(#clip0_370_7777)">
<mask id="path-1-outside-1_370_7777" maskUnits="userSpaceOnUse" x="6.10352e-05" y="0.501953" width="18" height="18" fill="black">
<rect fill="white" x="6.10352e-05" y="0.501953" width="18" height="18"/>
<path d="M17.4964 8.29364C17.4668 7.6083 17.1058 6.95436 16.5236 6.62593C16.2441 6.4677 15.9321 6.38343 15.6146 6.38043H14.9869C14.964 6.26049 14.9376 6.14113 14.9064 6.02235C14.8249 5.72226 14.7231 5.42862 14.6019 5.14364C14.3841 4.61719 14.0852 4.13801 13.7376 3.69623C13.0489 2.82216 12.1135 2.17325 11.0914 1.81227C10.0291 1.43695 8.85272 1.40537 7.76935 1.69969C6.71598 1.98909 5.75983 2.57986 5.00742 3.40617C4.26328 4.22714 3.72935 5.26842 3.51249 6.38023H3.26813C2.92836 6.38023 2.57991 6.36396 2.25656 6.49649C1.93838 6.62612 1.64844 6.81795 1.43509 7.1022C1.19494 7.41719 1.04743 7.79883 1.0106 8.20045C0.993809 8.36844 1.00211 8.54108 1.00211 8.70965V11.135C1.0047 11.7915 1.30553 12.3706 1.80144 12.7593C2.17056 13.048 2.61239 13.123 3.0594 13.123H3.51304C3.53593 13.2429 3.56232 13.3623 3.59333 13.4811C3.67495 13.7808 3.77659 14.0741 3.89748 14.3588C4.11526 14.8855 4.41425 15.3648 4.76177 15.8064C5.45055 16.6807 6.3859 17.3298 7.40798 17.6908C8.0021 17.8972 8.6239 18.0023 9.2497 18.002C9.54001 18.002 9.81796 17.7336 9.80449 17.4195C9.79102 17.1054 9.56087 16.8382 9.2497 16.837C9.03752 16.8365 8.82554 16.8232 8.61482 16.7971C8.19839 16.7313 7.79079 16.6142 7.40042 16.4484C7.18276 16.3483 6.97171 16.2331 6.76867 16.1035C6.65634 16.0315 6.54665 15.9554 6.4396 15.875C6.41303 15.8551 6.38651 15.8348 6.36006 15.8142L6.34585 15.8029L6.3069 15.7706C6.2783 15.7464 6.24969 15.7217 6.22145 15.6968C6.02052 15.5191 5.83231 15.3262 5.65836 15.1195C5.61751 15.0708 5.57753 15.0216 5.5384 14.9717C5.52677 14.9568 5.51533 14.9417 5.5037 14.9265C5.54338 14.9792 5.49909 14.9227 5.48008 14.8961L5.47879 14.8944L5.47639 14.8911C5.46882 14.881 5.46125 14.8717 5.4535 14.8607L5.47454 14.8882C5.39715 14.7801 5.32369 14.669 5.25418 14.5549C5.10372 14.3077 4.97191 14.0486 4.85996 13.7799C4.70097 13.3637 4.58946 12.9293 4.52775 12.4857V7.19423C4.5277 7.15512 4.52355 7.11614 4.51539 7.07798C4.52111 7.05162 4.52572 7.0245 4.52978 6.99621L4.52111 7.06306C4.58184 6.6022 4.69619 6.15092 4.86162 5.71931C4.96006 5.48333 5.07384 5.25473 5.20213 5.03513C5.2714 4.91694 5.34473 4.80158 5.42213 4.68907C5.44058 4.66349 5.45793 4.63792 5.47602 4.61157C5.51496 4.56041 5.55409 4.50945 5.5945 4.45946C5.76502 4.24939 5.95008 4.05283 6.14818 3.87139C6.19457 3.82902 6.24157 3.78743 6.28919 3.74661C6.3034 3.7344 6.31798 3.72219 6.33237 3.71018C6.32319 3.71904 6.31317 3.72689 6.30247 3.73362C6.31769 3.71808 6.3346 3.70449 6.35286 3.69313C6.35581 3.691 6.35877 3.68887 6.36135 3.68673C6.46679 3.60458 6.57507 3.52643 6.68617 3.45228C6.91606 3.2996 7.15668 3.16552 7.40595 3.05119C7.79508 2.88661 8.20124 2.77047 8.61611 2.70513C9.03833 2.65282 9.46495 2.65282 9.88717 2.70513C10.3034 2.77072 10.7109 2.88739 11.1012 3.05274C11.3187 3.1529 11.5296 3.26812 11.7326 3.39764C11.8448 3.46933 11.9544 3.54542 12.0615 3.62589C12.0882 3.64527 12.1146 3.6662 12.141 3.68673L12.1558 3.69855L12.1942 3.73033C12.2228 3.75455 12.2514 3.77916 12.2796 3.80415C12.4805 3.98179 12.6688 4.17472 12.8427 4.38138C12.8834 4.42982 12.9234 4.47903 12.9627 4.52902C12.9743 4.54375 12.9856 4.55867 12.997 4.57359C12.9581 4.52185 13.0022 4.57824 13.021 4.60459L13.0225 4.60672L13.0247 4.60963C13.0324 4.6197 13.0398 4.63017 13.0476 4.64024L13.0267 4.61292C13.1041 4.72104 13.1775 4.832 13.2469 4.94581C13.3975 5.19295 13.5294 5.45209 13.6415 5.72086C13.7954 6.12312 13.905 6.54257 13.968 6.97102L14.0383 8.83754C14.0752 9.83555 14.1127 10.8336 14.1509 11.8318L14.1769 12.5235C14.1883 12.8275 14.424 13.1205 14.7317 13.1059C14.7501 13.1059 14.7669 13.1034 14.7843 13.1009C14.8306 13.1138 14.8783 13.1203 14.9262 13.1203H15.588C16.143 13.1191 16.7076 12.8744 17.0571 12.4113C17.3482 12.0257 17.5001 11.5853 17.5001 11.0914V8.70888C17.4978 8.56995 17.5025 8.4318 17.4964 8.29364ZM2.78606 11.9531C2.7165 11.9391 2.64802 11.9196 2.5812 11.8949C2.53024 11.8692 2.48092 11.84 2.43356 11.8075C2.42581 11.8023 2.41842 11.7965 2.41086 11.7911C2.38594 11.768 2.36102 11.745 2.33703 11.7202C2.31304 11.6954 2.29145 11.6692 2.26948 11.6426C2.26413 11.6347 2.25878 11.627 2.2538 11.6188C2.22289 11.5691 2.19509 11.5173 2.17056 11.4638C2.14725 11.3956 2.12874 11.3256 2.11519 11.2545C2.10726 11.1383 2.11002 11.022 2.11002 10.9058V8.65811C2.11002 8.52248 2.10541 8.3851 2.11501 8.24947C2.12856 8.17807 2.14707 8.1078 2.17037 8.03923C2.19491 7.98573 2.22271 7.93395 2.25361 7.88422C2.25859 7.87628 2.26395 7.86853 2.2693 7.86059C2.29126 7.83423 2.31322 7.80808 2.33685 7.78308C2.36047 7.75808 2.38539 7.73541 2.41067 7.71236C2.41824 7.70674 2.42562 7.70112 2.43337 7.69589C2.48041 7.66343 2.52943 7.63424 2.5801 7.6085C2.64692 7.58383 2.71539 7.5644 2.78496 7.55037C2.98041 7.53371 3.18102 7.54611 3.37555 7.54611H3.41763V11.9581H3.37647C3.18213 11.9571 2.98133 11.9695 2.78606 11.9531ZM4.52812 12.4956C4.52803 12.494 4.52803 12.4925 4.52812 12.4909V12.4956ZM16.0882 11.7903C16.0806 11.7957 16.0732 11.8015 16.0655 11.8068C16.0181 11.8392 15.9688 11.8684 15.9178 11.8942C15.8504 11.9193 15.7813 11.9391 15.7111 11.9534C15.562 11.9651 15.4124 11.9684 15.263 11.9633C15.2467 11.525 15.2302 11.0868 15.2136 10.6486C15.1759 9.65063 15.1383 8.65256 15.1008 7.65442C15.0995 7.61799 15.0982 7.58157 15.0967 7.54514H15.1224C15.3171 7.54514 15.5177 7.53274 15.713 7.5494C15.7825 7.56343 15.851 7.58286 15.9178 7.60753C15.9685 7.63327 16.0175 7.66246 16.0646 7.69492C16.0723 7.70015 16.0797 7.70577 16.0873 7.71119C16.1122 7.73445 16.1373 7.75731 16.1611 7.78211C16.1849 7.80691 16.2065 7.83326 16.2286 7.85962C16.2338 7.86756 16.2392 7.87531 16.2441 7.88326C16.275 7.93303 16.3029 7.9848 16.3276 8.03827C16.3508 8.1066 16.3693 8.1766 16.3829 8.24772C16.391 8.36398 16.3881 8.48024 16.3881 8.5965V10.8455C16.3881 10.9811 16.3927 11.1185 16.3831 11.2542C16.3695 11.3255 16.351 11.3957 16.3277 11.4642C16.3031 11.5177 16.2752 11.5694 16.2443 11.6192C16.2393 11.6273 16.234 11.6351 16.2288 11.643C16.2067 11.6692 16.1849 11.6954 16.1613 11.7205C16.1376 11.7457 16.1131 11.767 16.0882 11.7903Z"/>
</mask>
<path d="M17.4964 8.29364C17.4668 7.6083 17.1058 6.95436 16.5236 6.62593C16.2441 6.4677 15.9321 6.38343 15.6146 6.38043H14.9869C14.964 6.26049 14.9376 6.14113 14.9064 6.02235C14.8249 5.72226 14.7231 5.42862 14.6019 5.14364C14.3841 4.61719 14.0852 4.13801 13.7376 3.69623C13.0489 2.82216 12.1135 2.17325 11.0914 1.81227C10.0291 1.43695 8.85272 1.40537 7.76935 1.69969C6.71598 1.98909 5.75983 2.57986 5.00742 3.40617C4.26328 4.22714 3.72935 5.26842 3.51249 6.38023H3.26813C2.92836 6.38023 2.57991 6.36396 2.25656 6.49649C1.93838 6.62612 1.64844 6.81795 1.43509 7.1022C1.19494 7.41719 1.04743 7.79883 1.0106 8.20045C0.993809 8.36844 1.00211 8.54108 1.00211 8.70965V11.135C1.0047 11.7915 1.30553 12.3706 1.80144 12.7593C2.17056 13.048 2.61239 13.123 3.0594 13.123H3.51304C3.53593 13.2429 3.56232 13.3623 3.59333 13.4811C3.67495 13.7808 3.77659 14.0741 3.89748 14.3588C4.11526 14.8855 4.41425 15.3648 4.76177 15.8064C5.45055 16.6807 6.3859 17.3298 7.40798 17.6908C8.0021 17.8972 8.6239 18.0023 9.2497 18.002C9.54001 18.002 9.81796 17.7336 9.80449 17.4195C9.79102 17.1054 9.56087 16.8382 9.2497 16.837C9.03752 16.8365 8.82554 16.8232 8.61482 16.7971C8.19839 16.7313 7.79079 16.6142 7.40042 16.4484C7.18276 16.3483 6.97171 16.2331 6.76867 16.1035C6.65634 16.0315 6.54665 15.9554 6.4396 15.875C6.41303 15.8551 6.38651 15.8348 6.36006 15.8142L6.34585 15.8029L6.3069 15.7706C6.2783 15.7464 6.24969 15.7217 6.22145 15.6968C6.02052 15.5191 5.83231 15.3262 5.65836 15.1195C5.61751 15.0708 5.57753 15.0216 5.5384 14.9717C5.52677 14.9568 5.51533 14.9417 5.5037 14.9265C5.54338 14.9792 5.49909 14.9227 5.48008 14.8961L5.47879 14.8944L5.47639 14.8911C5.46882 14.881 5.46125 14.8717 5.4535 14.8607L5.47454 14.8882C5.39715 14.7801 5.32369 14.669 5.25418 14.5549C5.10372 14.3077 4.97191 14.0486 4.85996 13.7799C4.70097 13.3637 4.58946 12.9293 4.52775 12.4857V7.19423C4.5277 7.15512 4.52355 7.11614 4.51539 7.07798C4.52111 7.05162 4.52572 7.0245 4.52978 6.99621L4.52111 7.06306C4.58184 6.6022 4.69619 6.15092 4.86162 5.71931C4.96006 5.48333 5.07384 5.25473 5.20213 5.03513C5.2714 4.91694 5.34473 4.80158 5.42213 4.68907C5.44058 4.66349 5.45793 4.63792 5.47602 4.61157C5.51496 4.56041 5.55409 4.50945 5.5945 4.45946C5.76502 4.24939 5.95008 4.05283 6.14818 3.87139C6.19457 3.82902 6.24157 3.78743 6.28919 3.74661C6.3034 3.7344 6.31798 3.72219 6.33237 3.71018C6.32319 3.71904 6.31317 3.72689 6.30247 3.73362C6.31769 3.71808 6.3346 3.70449 6.35286 3.69313C6.35581 3.691 6.35877 3.68887 6.36135 3.68673C6.46679 3.60458 6.57507 3.52643 6.68617 3.45228C6.91606 3.2996 7.15668 3.16552 7.40595 3.05119C7.79508 2.88661 8.20124 2.77047 8.61611 2.70513C9.03833 2.65282 9.46495 2.65282 9.88717 2.70513C10.3034 2.77072 10.7109 2.88739 11.1012 3.05274C11.3187 3.1529 11.5296 3.26812 11.7326 3.39764C11.8448 3.46933 11.9544 3.54542 12.0615 3.62589C12.0882 3.64527 12.1146 3.6662 12.141 3.68673L12.1558 3.69855L12.1942 3.73033C12.2228 3.75455 12.2514 3.77916 12.2796 3.80415C12.4805 3.98179 12.6688 4.17472 12.8427 4.38138C12.8834 4.42982 12.9234 4.47903 12.9627 4.52902C12.9743 4.54375 12.9856 4.55867 12.997 4.57359C12.9581 4.52185 13.0022 4.57824 13.021 4.60459L13.0225 4.60672L13.0247 4.60963C13.0324 4.6197 13.0398 4.63017 13.0476 4.64024L13.0267 4.61292C13.1041 4.72104 13.1775 4.832 13.2469 4.94581C13.3975 5.19295 13.5294 5.45209 13.6415 5.72086C13.7954 6.12312 13.905 6.54257 13.968 6.97102L14.0383 8.83754C14.0752 9.83555 14.1127 10.8336 14.1509 11.8318L14.1769 12.5235C14.1883 12.8275 14.424 13.1205 14.7317 13.1059C14.7501 13.1059 14.7669 13.1034 14.7843 13.1009C14.8306 13.1138 14.8783 13.1203 14.9262 13.1203H15.588C16.143 13.1191 16.7076 12.8744 17.0571 12.4113C17.3482 12.0257 17.5001 11.5853 17.5001 11.0914V8.70888C17.4978 8.56995 17.5025 8.4318 17.4964 8.29364ZM2.78606 11.9531C2.7165 11.9391 2.64802 11.9196 2.5812 11.8949C2.53024 11.8692 2.48092 11.84 2.43356 11.8075C2.42581 11.8023 2.41842 11.7965 2.41086 11.7911C2.38594 11.768 2.36102 11.745 2.33703 11.7202C2.31304 11.6954 2.29145 11.6692 2.26948 11.6426C2.26413 11.6347 2.25878 11.627 2.2538 11.6188C2.22289 11.5691 2.19509 11.5173 2.17056 11.4638C2.14725 11.3956 2.12874 11.3256 2.11519 11.2545C2.10726 11.1383 2.11002 11.022 2.11002 10.9058V8.65811C2.11002 8.52248 2.10541 8.3851 2.11501 8.24947C2.12856 8.17807 2.14707 8.1078 2.17037 8.03923C2.19491 7.98573 2.22271 7.93395 2.25361 7.88422C2.25859 7.87628 2.26395 7.86853 2.2693 7.86059C2.29126 7.83423 2.31322 7.80808 2.33685 7.78308C2.36047 7.75808 2.38539 7.73541 2.41067 7.71236C2.41824 7.70674 2.42562 7.70112 2.43337 7.69589C2.48041 7.66343 2.52943 7.63424 2.5801 7.6085C2.64692 7.58383 2.71539 7.5644 2.78496 7.55037C2.98041 7.53371 3.18102 7.54611 3.37555 7.54611H3.41763V11.9581H3.37647C3.18213 11.9571 2.98133 11.9695 2.78606 11.9531ZM4.52812 12.4956C4.52803 12.494 4.52803 12.4925 4.52812 12.4909V12.4956ZM16.0882 11.7903C16.0806 11.7957 16.0732 11.8015 16.0655 11.8068C16.0181 11.8392 15.9688 11.8684 15.9178 11.8942C15.8504 11.9193 15.7813 11.9391 15.7111 11.9534C15.562 11.9651 15.4124 11.9684 15.263 11.9633C15.2467 11.525 15.2302 11.0868 15.2136 10.6486C15.1759 9.65063 15.1383 8.65256 15.1008 7.65442C15.0995 7.61799 15.0982 7.58157 15.0967 7.54514H15.1224C15.3171 7.54514 15.5177 7.53274 15.713 7.5494C15.7825 7.56343 15.851 7.58286 15.9178 7.60753C15.9685 7.63327 16.0175 7.66246 16.0646 7.69492C16.0723 7.70015 16.0797 7.70577 16.0873 7.71119C16.1122 7.73445 16.1373 7.75731 16.1611 7.78211C16.1849 7.80691 16.2065 7.83326 16.2286 7.85962C16.2338 7.86756 16.2392 7.87531 16.2441 7.88326C16.275 7.93303 16.3029 7.9848 16.3276 8.03827C16.3508 8.1066 16.3693 8.1766 16.3829 8.24772C16.391 8.36398 16.3881 8.48024 16.3881 8.5965V10.8455C16.3881 10.9811 16.3927 11.1185 16.3831 11.2542C16.3695 11.3255 16.351 11.3957 16.3277 11.4642C16.3031 11.5177 16.2752 11.5694 16.2443 11.6192C16.2393 11.6273 16.234 11.6351 16.2288 11.643C16.2067 11.6692 16.1849 11.6954 16.1613 11.7205C16.1376 11.7457 16.1131 11.767 16.0882 11.7903Z" fill="white"/>
<path d="M6.38473 3.73166L6.39082 3.72662L6.32708 3.64956L6.32099 3.6546L6.38473 3.73166ZM17.4964 8.29364L17.3965 8.29795L17.3965 8.29805L17.4964 8.29364ZM16.5236 6.62593L16.4743 6.71295L16.4744 6.71303L16.5236 6.62593ZM15.6146 6.38043L15.6155 6.28043H15.6146V6.38043ZM14.9869 6.38043L14.8887 6.39917L14.9042 6.48043H14.9869V6.38043ZM14.9064 6.02235L15.0032 5.99695L15.0029 5.99612L14.9064 6.02235ZM14.6019 5.14364L14.5095 5.18187L14.5099 5.18277L14.6019 5.14364ZM13.7376 3.69623L13.8162 3.6344L13.8162 3.63434L13.7376 3.69623ZM11.0914 1.81227L11.0581 1.90656L11.0581 1.90656L11.0914 1.81227ZM7.76935 1.69969L7.74313 1.60319L7.74286 1.60327L7.76935 1.69969ZM5.00742 3.40617L4.93348 3.33884L4.93333 3.33901L5.00742 3.40617ZM3.51249 6.38023V6.48023H3.59487L3.61064 6.39938L3.51249 6.38023ZM2.25656 6.49649L2.29429 6.5891L2.29449 6.58902L2.25656 6.49649ZM1.43509 7.1022L1.51462 7.16283L1.51507 7.16223L1.43509 7.1022ZM1.0106 8.20045L1.11011 8.21039L1.11019 8.20958L1.0106 8.20045ZM1.00211 11.135H0.902114L0.902115 11.1354L1.00211 11.135ZM1.80144 12.7593L1.73975 12.838L1.73983 12.8381L1.80144 12.7593ZM3.51304 13.123L3.61127 13.1043L3.59577 13.023H3.51304V13.123ZM3.59333 13.4811L3.49656 13.5063L3.49684 13.5073L3.59333 13.4811ZM3.89748 14.3588L3.9899 14.3206L3.98953 14.3197L3.89748 14.3588ZM4.76177 15.8064L4.68319 15.8683L4.68322 15.8683L4.76177 15.8064ZM7.40798 17.6908L7.37468 17.7851L7.37516 17.7852L7.40798 17.6908ZM9.2497 18.002V17.902H9.24965L9.2497 18.002ZM9.2497 16.837L9.25008 16.737L9.24994 16.737L9.2497 16.837ZM8.61482 16.7971L8.59919 16.896L8.60253 16.8964L8.61482 16.7971ZM7.40042 16.4484L7.35863 16.5393L7.36131 16.5404L7.40042 16.4484ZM6.76867 16.1035L6.71474 16.1877L6.71487 16.1878L6.76867 16.1035ZM6.4396 15.875L6.49963 15.795L6.49953 15.795L6.4396 15.875ZM6.36006 15.8142L6.29803 15.8926L6.29849 15.893L6.36006 15.8142ZM6.34585 15.8029L6.28192 15.8799L6.28382 15.8814L6.34585 15.8029ZM6.3069 15.7706L6.24228 15.8469L6.24299 15.8475L6.3069 15.7706ZM6.22145 15.6968L6.28773 15.6219L6.28769 15.6218L6.22145 15.6968ZM5.65836 15.1195L5.58175 15.1838L5.58186 15.1839L5.65836 15.1195ZM5.5384 14.9717L5.45952 15.0332L5.45973 15.0334L5.5384 14.9717ZM5.5037 14.9265L5.58296 14.8656L5.42381 14.9867L5.5037 14.9265ZM5.48008 14.8961L5.56139 14.8379L5.56043 14.8366L5.48008 14.8961ZM5.47879 14.8944L5.39795 14.9533L5.39843 14.9539L5.47879 14.8944ZM5.47639 14.8911L5.55723 14.8322L5.55635 14.831L5.47639 14.8911ZM5.4535 14.8607L5.53294 14.7999L5.37165 14.9181L5.4535 14.8607ZM5.47454 14.8882L5.3951 14.9489L5.55586 14.83L5.47454 14.8882ZM5.25418 14.5549L5.16876 14.6069L5.16879 14.6069L5.25418 14.5549ZM4.85996 13.7799L4.7665 13.8156L4.76765 13.8183L4.85996 13.7799ZM4.52775 12.4857H4.42679L4.42871 12.4995L4.52775 12.4857ZM4.52775 7.19423H4.62775L4.62775 7.1941L4.52775 7.19423ZM4.51539 7.07798L4.41766 7.05676L4.41309 7.07783L4.4176 7.09891L4.51539 7.07798ZM4.52978 6.99621L4.62895 7.00908L4.4308 6.982L4.52978 6.99621ZM4.52111 7.06306L4.42194 7.05019L4.62025 7.07612L4.52111 7.06306ZM4.86162 5.71931L4.76929 5.68079L4.76824 5.68352L4.86162 5.71931ZM5.20213 5.03513L5.11586 4.98457L5.11579 4.98469L5.20213 5.03513ZM5.42213 4.68907L5.34101 4.63054L5.33974 4.6324L5.42213 4.68907ZM5.47602 4.61157L5.39635 4.55092L5.39357 4.55498L5.47602 4.61157ZM5.5945 4.45946L5.51686 4.39644L5.51674 4.39659L5.5945 4.45946ZM6.14818 3.87139L6.08074 3.79756L6.08064 3.79765L6.14818 3.87139ZM6.28919 3.74661L6.35427 3.82253L6.35435 3.82246L6.28919 3.74661ZM6.33237 3.71018L6.40178 3.78217L6.2683 3.6334L6.33237 3.71018ZM6.30247 3.73362L6.231 3.66368L6.35576 3.81825L6.30247 3.73362ZM6.35286 3.69313L6.4058 3.77824L6.41139 3.77421L6.35286 3.69313ZM6.36135 3.68673L6.29986 3.60782L6.29772 3.60959L6.36135 3.68673ZM6.68617 3.45228L6.63085 3.36898L6.63066 3.3691L6.68617 3.45228ZM7.40595 3.05119L7.36698 2.95905L7.36427 2.9603L7.40595 3.05119ZM8.61611 2.70513L8.60381 2.60584L8.60055 2.60635L8.61611 2.70513ZM9.88717 2.70513L9.90274 2.6063L9.89947 2.60589L9.88717 2.70513ZM11.1012 3.05274L11.143 2.96187L11.1402 2.96066L11.1012 3.05274ZM11.7326 3.39764L11.7864 3.31337L11.7864 3.31334L11.7326 3.39764ZM12.0615 3.62589L12.0014 3.70584L12.0028 3.70689L12.0615 3.62589ZM12.141 3.68673L12.2035 3.60866L12.2024 3.60782L12.141 3.68673ZM12.1558 3.69855L12.2196 3.62151L12.2183 3.62049L12.1558 3.69855ZM12.1942 3.73033L12.2588 3.65401L12.2579 3.6533L12.1942 3.73033ZM12.2796 3.80415L12.2133 3.87903L12.2134 3.87907L12.2796 3.80415ZM12.8427 4.38138L12.9192 4.31702L12.9192 4.31698L12.8427 4.38138ZM12.9627 4.52902L12.884 4.59078L12.8842 4.59099L12.9627 4.52902ZM12.997 4.57359L12.9176 4.63445L13.0769 4.51345L12.997 4.57359ZM13.021 4.60459L13.1032 4.54766L13.1024 4.54646L13.021 4.60459ZM13.0225 4.60672L12.9402 4.6637L12.9429 4.66733L13.0225 4.60672ZM13.0247 4.60963L12.9451 4.67024L12.9454 4.6706L13.0247 4.60963ZM13.0476 4.64024L12.9683 4.70122L13.1271 4.57957L13.0476 4.64024ZM13.0267 4.61292L13.1062 4.55224L12.9454 4.67113L13.0267 4.61292ZM13.2469 4.94581L13.3323 4.89377L13.3323 4.89375L13.2469 4.94581ZM13.6415 5.72086L13.7349 5.6851L13.7338 5.68238L13.6415 5.72086ZM13.968 6.97102L14.0685 6.96723L14.0669 6.95648L13.968 6.97102ZM14.0383 8.83754L14.1382 8.83384L14.1382 8.83377L14.0383 8.83754ZM14.1509 11.8318L14.2508 11.828L14.2508 11.8279L14.1509 11.8318ZM14.1769 12.5235L14.077 12.5273V12.5273L14.1769 12.5235ZM14.7317 13.1059V13.0058L14.727 13.0061L14.7317 13.1059ZM14.7843 13.1009L14.8111 13.0046L14.7908 12.9989L14.7699 13.0019L14.7843 13.1009ZM14.9262 13.1203V13.0203H14.9261L14.9262 13.1203ZM15.588 13.1203V13.2203H15.5882L15.588 13.1203ZM17.0571 12.4113L17.1369 12.4716V12.4716L17.0571 12.4113ZM17.5001 8.70888H17.6001L17.6 8.70729L17.5001 8.70888ZM2.78606 11.9531L2.7662 12.0517L2.77766 12.0527L2.78606 11.9531ZM2.5812 11.8949L2.53581 11.9848L2.54654 11.9887L2.5812 11.8949ZM2.43356 11.8075L2.49007 11.725L2.4895 11.7247L2.43356 11.8075ZM2.41086 11.7911L2.3424 11.865L2.35259 11.8723L2.41086 11.7911ZM2.26948 11.6426L2.18615 11.6988L2.19244 11.7064L2.26948 11.6426ZM2.2538 11.6188L2.33908 11.5666L2.33873 11.566L2.2538 11.6188ZM2.17056 11.4638L2.07545 11.4963L2.07966 11.5055L2.17056 11.4638ZM2.11519 11.2545L2.0147 11.2614L2.01696 11.2733L2.11519 11.2545ZM2.11501 8.24947L2.01609 8.23069L2.01526 8.24241L2.11501 8.24947ZM2.17037 8.03923L2.079 7.99734L2.0757 8.00705L2.17037 8.03923ZM2.25361 7.88422L2.1689 7.83109L2.16867 7.83144L2.25361 7.88422ZM2.2693 7.86059L2.19208 7.79623L2.18636 7.80471L2.2693 7.86059ZM2.41067 7.71236L2.35075 7.63166L2.34329 7.63847L2.41067 7.71236ZM2.43337 7.69589L2.48932 7.77878L2.49016 7.7782L2.43337 7.69589ZM2.5801 7.6085L2.54522 7.51405L2.5348 7.51935L2.5801 7.6085ZM2.78496 7.55037L2.77641 7.45008L2.76519 7.45234L2.78496 7.55037ZM3.41763 7.54611H3.51763V7.44611H3.41763V7.54611ZM3.41763 11.9581V12.0581H3.51763V11.9581H3.41763ZM3.37647 11.9581L3.37597 12.0581H3.37647V11.9581ZM4.52812 12.4956L4.42828 12.5013L4.62812 12.4956H4.52812ZM4.52812 12.4909H4.62812L4.42828 12.4852L4.52812 12.4909ZM16.0882 11.7903L16.1469 11.8722L16.1564 11.8634L16.0882 11.7903ZM16.0655 11.8068L16.0095 11.7239L16.0089 11.7243L16.0655 11.8068ZM15.9178 11.8942L15.953 11.9884L15.9629 11.9834L15.9178 11.8942ZM15.7111 11.9534L15.719 12.0539L15.7311 12.0514L15.7111 11.9534ZM15.263 11.9633L15.1631 11.9671L15.1666 12.0601L15.2596 12.0633L15.263 11.9633ZM15.2136 10.6486L15.1136 10.6524L15.1136 10.6524L15.2136 10.6486ZM15.1008 7.65442L15.0009 7.65797L15.0009 7.65818L15.1008 7.65442ZM15.0967 7.54514V7.44514H14.9926L14.9968 7.54919L15.0967 7.54514ZM15.713 7.5494L15.7329 7.45074L15.7215 7.44976L15.713 7.5494ZM15.9178 7.60753L15.9634 7.51777L15.9525 7.51372L15.9178 7.60753ZM16.0646 7.69492L16.0078 7.77723L16.0086 7.77781L16.0646 7.69492ZM16.0873 7.71119L16.1561 7.63747L16.1455 7.62992L16.0873 7.71119ZM16.2286 7.85962L16.3131 7.80468L16.3052 7.79528L16.2286 7.85962ZM16.2441 7.88326L16.3291 7.83052L16.3288 7.83012L16.2441 7.88326ZM16.3276 8.03827L16.4228 8.00591L16.4184 7.99637L16.3276 8.03827ZM16.3829 8.24772L16.4834 8.24071L16.4811 8.22889L16.3829 8.24772ZM16.3831 11.2542L16.482 11.273L16.4829 11.2612L16.3831 11.2542ZM16.3277 11.4642L16.419 11.5063L16.4224 11.4963L16.3277 11.4642ZM16.2443 11.6192L16.1594 11.5665L16.159 11.567L16.2443 11.6192ZM16.2288 11.643L16.3057 11.7082L16.3126 11.6976L16.2288 11.643ZM17.5963 8.28934C17.5655 7.57397 17.1888 6.88632 16.5727 6.53883L16.4744 6.71303C17.0229 7.02239 17.3682 7.64264 17.3965 8.29795L17.5963 8.28934ZM16.5728 6.53891C16.2788 6.37243 15.9502 6.2836 15.6155 6.28043L15.6137 6.48042C15.914 6.48326 16.2094 6.56297 16.4743 6.71295L16.5728 6.53891ZM15.6146 6.28043H14.9869V6.48043H15.6146V6.28043ZM15.0851 6.36169C15.0619 6.23985 15.035 6.11824 15.0032 5.99696L14.8097 6.04775C14.8403 6.16402 14.8662 6.28113 14.8887 6.39917L15.0851 6.36169ZM15.0029 5.99612C14.9202 5.69165 14.8169 5.3937 14.694 5.10451L14.5099 5.18277C14.6293 5.46354 14.7295 5.75287 14.81 6.04859L15.0029 5.99612ZM14.6943 5.10541C14.4724 4.56886 14.1682 4.08184 13.8162 3.6344L13.659 3.75806C14.0021 4.19417 14.2959 4.66551 14.5095 5.18187L14.6943 5.10541ZM13.8162 3.63434C13.1152 2.74477 12.1639 2.08498 11.1247 1.71798L11.0581 1.90656C12.0631 2.26152 12.9825 2.89956 13.6591 3.75812L13.8162 3.63434ZM11.1247 1.71798C10.0426 1.33566 8.84541 1.30373 7.74314 1.60319L7.79557 1.7962C8.86002 1.50701 10.0156 1.53824 11.0581 1.90656L11.1247 1.71798ZM7.74286 1.60327C6.6708 1.8978 5.69832 2.49887 4.93348 3.33884L5.08136 3.47349C5.82133 2.66084 6.76116 2.08038 7.79584 1.79612L7.74286 1.60327ZM4.93333 3.33901C4.17725 4.17315 3.63478 5.23092 3.41434 6.36109L3.61064 6.39938C3.82392 5.30592 4.3493 4.28113 5.08151 3.47332L4.93333 3.33901ZM3.51249 6.28023H3.26813V6.48023H3.51249V6.28023ZM3.26813 6.28023C2.93682 6.28023 2.56454 6.26219 2.21864 6.40396L2.29449 6.58902C2.59529 6.46573 2.9199 6.48023 3.26813 6.48023V6.28023ZM2.21883 6.40388C1.88857 6.53843 1.58202 6.73985 1.35511 7.04217L1.51507 7.16223C1.71486 6.89604 1.9882 6.71381 2.29429 6.5891L2.21883 6.40388ZM1.35557 7.04157C1.10381 7.37178 0.949529 7.77135 0.911022 8.19131L1.11019 8.20958C1.14533 7.82631 1.28607 7.46259 1.51461 7.16283L1.35557 7.04157ZM0.9111 8.1905C0.893644 8.36511 0.902114 8.54766 0.902114 8.70965H1.10211C1.10211 8.5345 1.09397 8.37177 1.11011 8.21039L0.9111 8.1905ZM0.902114 8.70965V11.135H1.10211V8.70965H0.902114ZM0.902115 11.1354C0.904824 11.8236 1.22072 12.4312 1.73975 12.838L1.86313 12.6806C1.39034 12.31 1.10457 11.7593 1.10211 11.1346L0.902115 11.1354ZM1.73983 12.8381C2.13433 13.1466 2.60252 13.223 3.0594 13.223V13.023C2.62226 13.023 2.20679 12.9494 1.86305 12.6805L1.73983 12.8381ZM3.0594 13.223H3.51304V13.023H3.0594V13.223ZM3.41482 13.1417C3.43806 13.2636 3.46493 13.3851 3.49657 13.5063L3.69009 13.4558C3.65971 13.3395 3.63379 13.2223 3.61127 13.1043L3.41482 13.1417ZM3.49684 13.5073C3.57965 13.8114 3.68276 14.109 3.80544 14.3979L3.98953 14.3197C3.87041 14.0392 3.77025 13.7502 3.68981 13.4548L3.49684 13.5073ZM3.80507 14.397C4.02702 14.9338 4.33119 15.421 4.68319 15.8683L4.84036 15.7446C4.49731 15.3087 4.2035 14.8372 3.98989 14.3206L3.80507 14.397ZM4.68322 15.8683C5.38421 16.7581 6.33552 17.418 7.37468 17.7851L7.44129 17.5965C6.43627 17.2415 5.51689 16.6033 4.84032 15.7445L4.68322 15.8683ZM7.37516 17.7852C7.97979 17.9953 8.6127 18.1023 9.24975 18.102L9.24965 17.902C8.6351 17.9023 8.0244 17.7991 7.44081 17.5963L7.37516 17.7852ZM9.2497 18.102C9.59485 18.102 9.9204 17.7882 9.9044 17.4152L9.70458 17.4238C9.71553 17.679 9.48518 17.902 9.2497 17.902V18.102ZM9.9044 17.4152C9.88912 17.059 9.62522 16.7384 9.25008 16.737L9.24933 16.937C9.49652 16.938 9.69291 17.1518 9.70458 17.4238L9.9044 17.4152ZM9.24994 16.737C9.04179 16.7366 8.83383 16.7235 8.6271 16.6979L8.60253 16.8964C8.81725 16.923 9.03325 16.9365 9.24946 16.937L9.24994 16.737ZM8.63044 16.6984C8.22213 16.6338 7.82241 16.519 7.43952 16.3563L7.36131 16.5404C7.75916 16.7094 8.17465 16.8288 8.5992 16.8959L8.63044 16.6984ZM7.44219 16.3575C7.22871 16.2593 7.02168 16.1463 6.82248 16.0192L6.71487 16.1878C6.92174 16.3198 7.13681 16.4372 7.35864 16.5392L7.44219 16.3575ZM6.82261 16.0193C6.71236 15.9486 6.6047 15.8739 6.49963 15.795L6.37957 15.955C6.48859 16.0368 6.60031 16.1144 6.71474 16.1877L6.82261 16.0193ZM6.49953 15.795C6.47351 15.7755 6.44754 15.7556 6.42162 15.7354L6.29849 15.893C6.32548 15.9141 6.35254 15.9348 6.37968 15.9551L6.49953 15.795ZM6.42209 15.7357L6.40788 15.7245L6.28382 15.8814L6.29803 15.8926L6.42209 15.7357ZM6.40976 15.726L6.37081 15.6937L6.24299 15.8475L6.28194 15.8798L6.40976 15.726ZM6.37152 15.6943C6.3433 15.6704 6.31528 15.6463 6.28773 15.6219L6.15517 15.7716C6.1841 15.7972 6.21329 15.8223 6.24229 15.8469L6.37152 15.6943ZM6.28769 15.6218C6.09046 15.4475 5.90568 15.2581 5.73487 15.0551L5.58186 15.1839C5.75895 15.3943 5.95058 15.5908 6.15522 15.7717L6.28769 15.6218ZM5.73498 15.0553C5.69483 15.0074 5.65552 14.959 5.61707 14.91L5.45973 15.0334C5.49953 15.0841 5.5402 15.1343 5.58175 15.1838L5.73498 15.0553ZM5.61728 14.9102C5.60583 14.8955 5.59528 14.8816 5.58296 14.8656L5.42444 14.9875C5.43537 15.0017 5.44771 15.018 5.45952 15.0332L5.61728 14.9102ZM5.42381 14.9867C5.43477 15.0012 5.43714 15.0046 5.43627 15.0033C5.436 15.0029 5.43538 15.002 5.43462 15.0007C5.43433 15.0003 5.43202 14.9966 5.42963 14.9916C5.42907 14.9905 5.42478 14.9819 5.42213 14.9701C5.42117 14.9658 5.41711 14.9479 5.42229 14.9256C5.42562 14.9143 5.43803 14.8905 5.44768 14.8789C5.46021 14.8679 5.48811 14.8534 5.50254 14.8497C5.53331 14.8444 5.55652 14.8551 5.5611 14.8572C5.56921 14.8609 5.57501 14.8649 5.57754 14.8667C5.58294 14.8705 5.58673 14.874 5.58788 14.8751C5.5908 14.8778 5.59288 14.8801 5.59334 14.8806C5.59415 14.8815 5.59476 14.8822 5.59504 14.8825C5.59536 14.8829 5.5956 14.8832 5.59573 14.8833C5.59586 14.8835 5.59594 14.8836 5.59597 14.8836C5.596 14.8837 5.59573 14.8833 5.59507 14.8825C5.59446 14.8817 5.59368 14.8807 5.59272 14.8795C5.58463 14.8692 5.56975 14.8496 5.56138 14.8379L5.39877 14.9543C5.40942 14.9692 5.42618 14.9912 5.43507 15.0026C5.43723 15.0053 5.43955 15.0083 5.44139 15.0105C5.44187 15.0111 5.44264 15.0121 5.44354 15.0131C5.44399 15.0136 5.44473 15.0145 5.44565 15.0155C5.44623 15.0161 5.4484 15.0185 5.45138 15.0213C5.45257 15.0224 5.45639 15.0259 5.46181 15.0298C5.46435 15.0316 5.47016 15.0356 5.47828 15.0393C5.48286 15.0413 5.50608 15.0521 5.53685 15.0468C5.55128 15.0431 5.57919 15.0286 5.59172 15.0176C5.60137 15.0059 5.61378 14.9821 5.61711 14.9708C5.62229 14.9485 5.61824 14.9306 5.61727 14.9263C5.61462 14.9145 5.61032 14.9059 5.60974 14.9047C5.60731 14.8997 5.60495 14.8959 5.60457 14.8953C5.60372 14.8939 5.60299 14.8928 5.60258 14.8922C5.59945 14.8875 5.59248 14.8782 5.58359 14.8664L5.42381 14.9867ZM5.56043 14.8366L5.55914 14.8348L5.39843 14.9539L5.39973 14.9557L5.56043 14.8366ZM5.55962 14.8355L5.55722 14.8322L5.39556 14.95L5.39796 14.9533L5.55962 14.8355ZM5.55635 14.831C5.54566 14.8168 5.54211 14.8128 5.53535 14.8032L5.37165 14.9181C5.3804 14.9306 5.39198 14.9452 5.39643 14.9511L5.55635 14.831ZM5.37406 14.9214L5.3951 14.9489L5.55398 14.8274L5.53294 14.7999L5.37406 14.9214ZM5.55586 14.83C5.47991 14.7239 5.40781 14.6148 5.33957 14.5029L5.16879 14.6069C5.23958 14.7231 5.31439 14.8363 5.39323 14.9464L5.55586 14.83ZM5.33959 14.5029C5.19179 14.2601 5.06228 14.0055 4.95227 13.7414L4.76765 13.8183C4.88154 14.0917 5.01564 14.3554 5.16876 14.6069L5.33959 14.5029ZM4.95337 13.7442C4.7971 13.3352 4.68747 12.9081 4.6268 12.4719L4.42871 12.4995C4.49145 12.9506 4.60484 13.3923 4.76655 13.8155L4.95337 13.7442ZM4.62775 12.4857V7.19423H4.42775V12.4857H4.62775ZM4.62775 7.1941C4.62769 7.14802 4.62281 7.10206 4.61317 7.05705L4.4176 7.09891C4.4243 7.13021 4.42771 7.16223 4.42775 7.19437L4.62775 7.1941ZM4.61311 7.09919C4.61947 7.06988 4.62448 7.0403 4.62877 7.01042L4.4308 6.982C4.42696 7.0087 4.42274 7.03337 4.41766 7.05676L4.61311 7.09919ZM4.43061 6.98334L4.42194 7.05019L4.62028 7.07592L4.62895 7.00908L4.43061 6.98334ZM4.62025 7.07612C4.67996 6.623 4.79239 6.17934 4.955 5.7551L4.76824 5.68352C4.59999 6.12249 4.48371 6.58141 4.42196 7.04999L4.62025 7.07612ZM4.95391 5.75781C5.05065 5.52592 5.16244 5.30131 5.28848 5.08558L5.11579 4.98469C4.98523 5.20815 4.86948 5.44074 4.76933 5.68081L4.95391 5.75781ZM5.28841 5.0857C5.35646 4.96958 5.4285 4.85626 5.50452 4.74574L5.33974 4.6324C5.26097 4.74691 5.18634 4.8643 5.11586 4.98457L5.28841 5.0857ZM5.50322 4.74759C5.52256 4.72078 5.54081 4.69387 5.55847 4.66815L5.39357 4.55498C5.37505 4.58196 5.3586 4.6062 5.34103 4.63056L5.50322 4.74759ZM5.55558 4.67214C5.59444 4.6211 5.63282 4.57112 5.67227 4.52233L5.51674 4.39659C5.47535 4.44778 5.43548 4.49972 5.39645 4.55099L5.55558 4.67214ZM5.67215 4.52248C5.83958 4.3162 6.02127 4.12323 6.21572 3.94514L6.08064 3.79765C5.87889 3.98243 5.69045 4.18258 5.51686 4.39644L5.67215 4.52248ZM6.21563 3.94523C6.26124 3.90356 6.30745 3.86266 6.35427 3.82253L6.2241 3.67069C6.17569 3.71219 6.1279 3.75448 6.08074 3.79756L6.21563 3.94523ZM6.35435 3.82246C6.36797 3.81076 6.38207 3.79895 6.39644 3.78696L6.2683 3.6334C6.25388 3.64544 6.23882 3.65804 6.22403 3.67075L6.35435 3.82246ZM6.26297 3.63819C6.25866 3.64234 6.25404 3.64595 6.24919 3.649L6.35576 3.81825C6.3723 3.80783 6.38771 3.79573 6.40178 3.78217L6.26297 3.63819ZM6.37395 3.80357C6.38362 3.79368 6.39429 3.78513 6.40568 3.77804L6.30004 3.60822C6.27491 3.62385 6.25175 3.64249 6.231 3.66368L6.37395 3.80357ZM6.41139 3.77421C6.41374 3.77251 6.41944 3.76844 6.42498 3.76388L6.29772 3.60959C6.29809 3.60929 6.29788 3.60948 6.29433 3.61204L6.41139 3.77421ZM6.42281 3.76562C6.52633 3.68497 6.63262 3.60825 6.74168 3.53546L6.63066 3.3691C6.51752 3.44461 6.40726 3.52419 6.29989 3.60785L6.42281 3.76562ZM6.7415 3.53558C6.96707 3.38577 7.20314 3.25423 7.44764 3.14209L7.36427 2.9603C7.11023 3.07681 6.86505 3.21344 6.63085 3.36898L6.7415 3.53558ZM7.44491 3.14329C7.82658 2.98187 8.22488 2.86798 8.63167 2.80391L8.60055 2.60635C8.17759 2.67296 7.76358 2.79136 7.367 2.95909L7.44491 3.14329ZM8.62841 2.80437C9.04246 2.75307 9.46082 2.75307 9.87487 2.80437L9.89947 2.60589C9.46908 2.55256 9.0342 2.55256 8.60381 2.60589L8.62841 2.80437ZM9.8716 2.80391C10.2797 2.86822 10.6793 2.98263 11.0622 3.14482L11.1402 2.96066C10.7424 2.79215 10.3271 2.67322 9.90274 2.60635L9.8716 2.80391ZM11.0594 3.14357C11.2727 3.24182 11.4796 3.35485 11.6788 3.48194L11.7864 3.31334C11.5796 3.18139 11.3647 3.06398 11.143 2.96191L11.0594 3.14357ZM11.6787 3.48191C11.7888 3.55223 11.8963 3.62686 12.0014 3.70582L12.1216 3.54596C12.0125 3.46397 11.9008 3.38644 11.7864 3.31337L11.6787 3.48191ZM12.0028 3.70689C12.0278 3.72495 12.0522 3.74431 12.0796 3.76565L12.2024 3.60782C12.1771 3.58808 12.1487 3.56559 12.1201 3.5449L12.0028 3.70689ZM12.0785 3.7648L12.0933 3.77662L12.2183 3.62049L12.2035 3.60867L12.0785 3.7648ZM12.092 3.77559L12.1304 3.80736L12.2579 3.6533L12.2195 3.62152L12.092 3.77559ZM12.1295 3.80665C12.1578 3.83054 12.1858 3.85465 12.2133 3.87903L12.3459 3.72928C12.317 3.70367 12.2878 3.67856 12.2588 3.65401L12.1295 3.80665ZM12.2134 3.87907C12.4106 4.05344 12.5954 4.24285 12.7662 4.44577L12.9192 4.31698C12.7421 4.1066 12.5505 3.91015 12.3458 3.72923L12.2134 3.87907ZM12.7662 4.44573C12.8062 4.49331 12.8455 4.54166 12.884 4.59078L13.0413 4.46727C13.0014 4.4164 12.9607 4.36632 12.9192 4.31702L12.7662 4.44573ZM12.8842 4.59099C12.8952 4.60498 12.9056 4.6187 12.9176 4.63445L13.0763 4.51273C13.0655 4.49864 13.0534 4.48252 13.0412 4.46705L12.8842 4.59099ZM13.0769 4.51345C13.066 4.49901 13.0639 4.49602 13.065 4.49761C13.0653 4.49805 13.066 4.49915 13.0669 4.50062C13.067 4.50074 13.0703 4.50594 13.0733 4.51297C13.0742 4.5151 13.0758 4.51906 13.0773 4.5242C13.0784 4.52785 13.0818 4.53962 13.0814 4.55513C13.081 4.56873 13.0762 4.61359 13.0309 4.63936C12.9919 4.66161 12.9557 4.64939 12.9486 4.64696C12.9372 4.64297 12.9291 4.63777 12.9262 4.63584C12.9224 4.63332 12.9195 4.63105 12.9179 4.62972C12.9147 4.62706 12.9123 4.62478 12.9114 4.62381C12.9092 4.6217 12.9077 4.61997 12.9072 4.61948C12.9066 4.61874 12.9061 4.61816 12.9058 4.61788C12.9056 4.61756 12.9054 4.61733 12.9053 4.61721C12.9052 4.61708 12.9051 4.617 12.9051 4.61699C12.9051 4.61697 12.9051 4.61707 12.9053 4.61731C12.9055 4.61754 12.9058 4.61784 12.9061 4.61824C12.9067 4.61903 12.9075 4.62004 12.9085 4.62128C12.9166 4.63172 12.9314 4.65117 12.9396 4.66272L13.1024 4.54646C13.0918 4.53166 13.0751 4.50974 13.0662 4.49834C13.064 4.49555 13.0617 4.49264 13.0599 4.49044C13.0595 4.48985 13.0588 4.48899 13.0579 4.48803C13.0579 4.48796 13.0552 4.48476 13.0517 4.48128C13.0506 4.48028 13.0483 4.47797 13.045 4.47529C13.0434 4.47395 13.0405 4.47166 13.0367 4.46914C13.0338 4.46721 13.0257 4.462 13.0142 4.45801C13.0072 4.45557 12.971 4.44335 12.9319 4.4656C12.8867 4.49138 12.8818 4.53624 12.8815 4.54985C12.8811 4.56536 12.8844 4.57714 12.8855 4.5808C12.887 4.58596 12.8887 4.58993 12.8896 4.59207C12.8926 4.59916 12.896 4.60445 12.8961 4.6047C12.8971 4.60629 12.8979 4.60755 12.8983 4.60819C12.9015 4.61294 12.9085 4.6223 12.9171 4.63373L13.0769 4.51345ZM12.9388 4.66151L12.9402 4.66364L13.1047 4.5498L13.1032 4.54767L12.9388 4.66151ZM12.9429 4.66733L12.9451 4.67024L13.1042 4.54902L13.102 4.54611L12.9429 4.66733ZM12.9454 4.6706C12.9486 4.67468 12.9517 4.67898 12.9556 4.68426C12.9593 4.68925 12.9637 4.69522 12.9683 4.70122L13.1268 4.57927C13.1237 4.57519 13.1205 4.57089 13.1166 4.56561C13.1129 4.56062 13.1086 4.55465 13.1039 4.54865L12.9454 4.6706ZM13.1271 4.57957L13.1062 4.55224L12.9472 4.6736L12.9681 4.70092L13.1271 4.57957ZM12.9454 4.67113C13.0214 4.77724 13.0934 4.88616 13.1615 4.99787L13.3323 4.89375C13.2616 4.77785 13.1869 4.66484 13.108 4.55472L12.9454 4.67113ZM13.1615 4.99784C13.3094 5.24062 13.4391 5.49523 13.5492 5.75934L13.7338 5.68238C13.6198 5.40895 13.4855 5.14528 13.3323 4.89377L13.1615 4.99784ZM13.5481 5.7566C13.6994 6.15198 13.8071 6.56433 13.869 6.98556L14.0669 6.95648C14.0029 6.52082 13.8915 6.09425 13.7349 5.68511L13.5481 5.7566ZM13.868 6.97478L13.9384 8.8413L14.1382 8.83377L14.0679 6.96725L13.868 6.97478ZM13.9383 8.84123C13.9753 9.83928 14.0128 10.8374 14.0509 11.8356L14.2508 11.8279C14.2126 10.8298 14.1751 9.83181 14.1382 8.83384L13.9383 8.84123ZM14.0509 11.8355L14.077 12.5273L14.2768 12.5197L14.2508 11.828L14.0509 11.8355ZM14.077 12.5273C14.0898 12.8684 14.3564 13.2238 14.7364 13.2058L14.727 13.0061C14.4917 13.0172 14.2869 12.7867 14.2768 12.5197L14.077 12.5273ZM14.7317 13.2059C14.7586 13.2059 14.7826 13.2022 14.7986 13.1999L14.7699 13.0019C14.7513 13.0046 14.7417 13.0059 14.7317 13.0059V13.2059ZM14.7574 13.1972C14.8125 13.2126 14.8693 13.2204 14.9263 13.2203L14.9261 13.0203C14.8873 13.0203 14.8487 13.0151 14.8111 13.0046L14.7574 13.1972ZM14.9262 13.2203H15.588V13.0203H14.9262V13.2203ZM15.5882 13.2203C16.1707 13.2191 16.7664 12.9625 17.1369 12.4716L16.9773 12.3511C16.6488 12.7863 16.1153 13.0192 15.5878 13.0203L15.5882 13.2203ZM17.1369 12.4716C17.4409 12.0689 17.6001 11.6074 17.6001 11.0914H17.4001C17.4001 11.5632 17.2555 11.9825 16.9773 12.3511L17.1369 12.4716ZM17.6001 11.0914V8.70888H17.4001V11.0914H17.6001ZM17.6 8.70729C17.598 8.5764 17.6024 8.4278 17.5963 8.28924L17.3965 8.29805C17.4025 8.4358 17.3977 8.56351 17.4001 8.71047L17.6 8.70729ZM2.8058 11.855C2.74133 11.842 2.67785 11.824 2.61587 11.8011L2.54654 11.9887C2.61819 12.0152 2.69166 12.0361 2.76633 12.0511L2.8058 11.855ZM2.62631 11.8057C2.57931 11.7819 2.5338 11.755 2.49007 11.725L2.37705 11.89C2.42804 11.925 2.48117 11.9564 2.5361 11.9842L2.62631 11.8057ZM2.4895 11.7247C2.48238 11.7198 2.48251 11.7194 2.46912 11.7098L2.35259 11.8723C2.35434 11.8736 2.36923 11.8848 2.37761 11.8904L2.4895 11.7247ZM2.47878 11.7177C2.45355 11.6943 2.43066 11.6731 2.40891 11.6506L2.26516 11.7897C2.29139 11.8168 2.31833 11.8417 2.34293 11.8645L2.47878 11.7177ZM2.40891 11.6506C2.38808 11.6291 2.36896 11.606 2.34653 11.5789L2.19244 11.7064C2.21394 11.7324 2.238 11.7616 2.26516 11.7897L2.40891 11.6506ZM2.35242 11.5868C2.34618 11.5775 2.34259 11.5723 2.33908 11.5666L2.16851 11.671C2.17497 11.6816 2.18208 11.6919 2.18655 11.6985L2.35242 11.5868ZM2.33873 11.566C2.31006 11.5199 2.28425 11.4718 2.26146 11.4221L2.07966 11.5055C2.10593 11.5628 2.13573 11.6183 2.16886 11.6716L2.33873 11.566ZM2.26519 11.4315C2.2434 11.3677 2.2261 11.3023 2.21342 11.2358L2.01696 11.2733C2.03139 11.3489 2.0511 11.4234 2.07593 11.4961L2.26519 11.4315ZM2.21496 11.2477C2.20733 11.136 2.21002 11.0252 2.21002 10.9058H2.01002C2.01002 11.0188 2.00718 11.1406 2.01542 11.2613L2.21496 11.2477ZM2.21002 10.9058V8.65811H2.01002V10.9058H2.21002ZM2.21002 8.65811C2.21002 8.51795 2.20549 8.38746 2.21476 8.25653L2.01526 8.24241C2.00533 8.38274 2.01002 8.52701 2.01002 8.65811H2.21002ZM2.21325 8.26812C2.22594 8.20129 2.24325 8.13555 2.26505 8.07142L2.0757 8.00705C2.05088 8.08006 2.03118 8.15484 2.01676 8.23082L2.21325 8.26812ZM2.26128 8.08091C2.28406 8.03121 2.30988 7.98314 2.33855 7.937L2.16867 7.83144C2.13554 7.88476 2.10575 7.94025 2.07947 7.99756L2.26128 8.08091ZM2.33833 7.93736C2.34216 7.93124 2.346 7.92571 2.35223 7.91646L2.18636 7.80471C2.18189 7.81135 2.17503 7.82132 2.1689 7.83109L2.33833 7.93736ZM2.34612 7.92461C2.36818 7.89814 2.38831 7.87421 2.40952 7.85177L2.26417 7.71439C2.23814 7.74194 2.21434 7.77033 2.19248 7.79656L2.34612 7.92461ZM2.40952 7.85177C2.43016 7.82994 2.45226 7.80977 2.47805 7.78625L2.34329 7.63847C2.31851 7.66106 2.29079 7.68623 2.26417 7.71439L2.40952 7.85177ZM2.47029 7.79264C2.47918 7.78604 2.48398 7.78237 2.48931 7.77877L2.37743 7.613C2.36726 7.61986 2.3573 7.62744 2.35105 7.63207L2.47029 7.79264ZM2.49016 7.7782C2.53355 7.74827 2.57872 7.72136 2.62539 7.69765L2.5348 7.51935C2.48013 7.54712 2.42728 7.5786 2.37659 7.61357L2.49016 7.7782ZM2.61473 7.70231C2.67673 7.67942 2.74024 7.6614 2.80472 7.6484L2.76519 7.45234C2.69055 7.46739 2.61711 7.48824 2.54546 7.51469L2.61473 7.70231ZM2.79345 7.65001C2.98341 7.63381 3.17244 7.64611 3.37555 7.64611V7.44611C3.1896 7.44611 2.9774 7.4336 2.77646 7.45073L2.79345 7.65001ZM3.37555 7.64611H3.41763V7.44611H3.37555V7.64611ZM3.31763 7.54611V11.9581H3.51763V7.54611H3.31763ZM3.41763 11.8581H3.37647V12.0581H3.41763V11.8581ZM3.37697 11.8581C3.17319 11.8571 2.98482 11.8695 2.79447 11.8534L2.77766 12.0527C2.97784 12.0696 3.19107 12.0572 3.37597 12.0581L3.37697 11.8581ZM4.62796 12.4899C4.62809 12.4921 4.62809 12.4944 4.62796 12.4967L4.42828 12.4852C4.42798 12.4906 4.42798 12.496 4.42828 12.5013L4.62796 12.4899ZM4.42812 12.4909V12.4956H4.62812V12.4909H4.42812ZM16.0299 11.709C16.0166 11.7186 16.0167 11.7191 16.0095 11.7239L16.1214 11.8897C16.1298 11.884 16.1447 11.8728 16.1465 11.8716L16.0299 11.709ZM16.0089 11.7243C15.9652 11.7543 15.9198 11.7812 15.8728 11.8049L15.9629 11.9834C16.0179 11.9557 16.071 11.9242 16.1221 11.8892L16.0089 11.7243ZM15.8828 11.8005C15.8203 11.8238 15.7563 11.8422 15.6912 11.8555L15.7311 12.0514C15.8064 12.0361 15.8806 12.0148 15.9528 11.9878L15.8828 11.8005ZM15.7033 11.8537C15.558 11.8651 15.4121 11.8683 15.2664 11.8634L15.2596 12.0633C15.4128 12.0685 15.5661 12.0651 15.7189 12.0531L15.7033 11.8537ZM15.3629 11.9596C15.3466 11.5213 15.3301 11.083 15.3135 10.6449L15.1136 10.6524C15.1302 11.0906 15.1467 11.5288 15.1631 11.9671L15.3629 11.9596ZM15.3135 10.6449C15.2758 9.64687 15.2382 8.6488 15.2007 7.65066L15.0009 7.65818C15.0384 8.65632 15.076 9.6544 15.1136 10.6524L15.3135 10.6449ZM15.2007 7.65088C15.1994 7.61449 15.1981 7.57781 15.1966 7.54109L14.9968 7.54919C14.9983 7.58532 14.9996 7.6215 15.0009 7.65797L15.2007 7.65088ZM15.0967 7.64514H15.1224V7.44514H15.0967V7.64514ZM15.1224 7.64514C15.3257 7.64514 15.5147 7.63284 15.7045 7.64904L15.7215 7.44976C15.5207 7.43263 15.3085 7.44514 15.1224 7.44514V7.64514ZM15.6932 7.64743C15.7577 7.66043 15.8212 7.67845 15.8832 7.70134L15.9525 7.51372C15.8808 7.48727 15.8074 7.46643 15.7327 7.45137L15.6932 7.64743ZM15.8725 7.69668C15.9192 7.72039 15.9644 7.7473 16.0078 7.77723L16.1213 7.6126C16.0706 7.57763 16.0178 7.54615 15.9631 7.51838L15.8725 7.69668ZM16.0086 7.77781C16.015 7.78211 16.0181 7.78469 16.029 7.79246L16.1455 7.62992C16.1412 7.62685 16.1296 7.61818 16.1205 7.61203L16.0086 7.77781ZM16.019 7.7843C16.0452 7.80873 16.0676 7.8291 16.0889 7.85136L16.2332 7.71286C16.207 7.68552 16.1791 7.66016 16.1555 7.63808L16.019 7.7843ZM16.0889 7.85136C16.1098 7.87314 16.1287 7.89618 16.1521 7.92395L16.3052 7.79528C16.2842 7.77034 16.2599 7.74068 16.2332 7.71286L16.0889 7.85136ZM16.1448 7.91414C16.1524 7.92582 16.1546 7.92873 16.1594 7.93639L16.3288 7.83012C16.3237 7.82189 16.3152 7.8093 16.3125 7.80509L16.1448 7.91414ZM16.1592 7.93599C16.1879 7.98225 16.2138 8.0304 16.2368 8.08016L16.4184 7.99637C16.392 7.9392 16.3622 7.8838 16.3291 7.83052L16.1592 7.93599ZM16.2329 8.07045C16.2546 8.1344 16.2719 8.19994 16.2847 8.26655L16.4811 8.22889C16.4666 8.15326 16.4469 8.07879 16.4222 8.00608L16.2329 8.07045ZM16.2832 8.25469C16.291 8.36635 16.2881 8.47681 16.2881 8.5965H16.4881C16.4881 8.48366 16.4911 8.36161 16.4827 8.24076L16.2832 8.25469ZM16.2881 8.5965V10.8455H16.4881V8.5965H16.2881ZM16.2881 10.8455C16.2881 10.9857 16.2926 11.1162 16.2834 11.2471L16.4829 11.2612C16.4928 11.1209 16.4881 10.9766 16.4881 10.8455H16.2881ZM16.2849 11.2354C16.2721 11.3022 16.2548 11.3679 16.233 11.4321L16.4224 11.4963C16.4472 11.4234 16.4669 11.3487 16.4813 11.2729L16.2849 11.2354ZM16.2369 11.4223C16.214 11.4721 16.1881 11.5202 16.1594 11.5665L16.3293 11.6719C16.3624 11.6187 16.3922 11.5633 16.4185 11.5061L16.2369 11.4223ZM16.159 11.567C16.1549 11.5738 16.1523 11.5773 16.145 11.5885L16.3126 11.6976C16.3157 11.6929 16.3238 11.6809 16.3296 11.6714L16.159 11.567ZM16.1525 11.5784C16.1295 11.6055 16.1098 11.6293 16.0883 11.6521L16.2342 11.7889C16.26 11.7614 16.2838 11.7328 16.3051 11.7077L16.1525 11.5784ZM16.0883 11.6521C16.0677 11.6741 16.0482 11.6909 16.02 11.7172L16.1564 11.8634C16.178 11.8432 16.2075 11.8174 16.2342 11.7889L16.0883 11.6521Z" fill="white" mask="url(#path-1-outside-1_370_7777)"/>
</g>
<defs>
<clipPath id="clip0_370_7777">
<rect width="18" height="18" fill="white" transform="translate(0.250061 0.751953)"/>
</clipPath>
</defs>
</svg>
