<svg width="40" height="40" fill="none" xmlns="http://www.w3.org/2000/svg"><circle cx="20" cy="20" r="20" fill="#96B48D"/><mask id="a" style="mask-type:alpha" maskUnits="userSpaceOnUse" x="0" y="0" width="40" height="40"><circle cx="20" cy="20" r="20" fill="#171717"/></mask><g mask="url(#a)"><path fill-rule="evenodd" clip-rule="evenodd" d="M17.259 19.373h5.454v5.398H17.26v-5.398Z" fill="#FDD9C5"/><path fill-rule="evenodd" clip-rule="evenodd" d="m10.391 26.525.453.085.339.255.254.339.085.452v13l-.085.452-.254.34-.34.254-.452.084H8.978l-.452-.084-.339-.255-.254-.339-.085-.452v-7.207l-.17-.565-.48-1.159L7 30.567v-1.78l.085-.594.226-.537.339-.48.48-.34.537-.226 1.724-.085Zm20.348 0 .594.085.537.226.452.34.339.423.254.537.085.594-.056 2.402-.114.537-.48 1.102-.198 1.102v6.783l-.085.424-.226.367-.339.226-.48.113h-1.413l-.424-.084-.368-.227-.226-.339-.113-.48v-13l.085-.424.226-.367.34-.227.423-.113h1.187Z" fill="#3F6534"/><path fill-rule="evenodd" clip-rule="evenodd" d="M11.522 33.871v6.783l-.085.452-.254.339-.34.254-.452.085H8.978l-.452-.085-.34-.254-.253-.34-.085-.451V33.87h3.674Zm20.63 0v6.783l-.085.424-.226.367-.339.226-.48.113h-1.413l-.424-.085-.368-.226-.226-.339-.113-.48V33.87h3.674Z" fill="#FFE6D9"/><path fill-rule="evenodd" clip-rule="evenodd" d="m19.378 24.83 5.765-.057.34 1.753.17 1.384-.03 1.16-.169.932-.282.763-.424.622-.509.508-.678.396-.791.31-1.018.17-1.243.057-1.526-.142-1.837-.367-.763-.254-.622-.368-.48-.452-.396-.593-.283-.735-.17-.904-.028-1.13.142-1.357.31-1.753 4.522.057Z" fill="#3F6534"/><path fill-rule="evenodd" clip-rule="evenodd" d="m20.65 24.802 1.95-1.866.198-.084.198.056 2.148 1.837-1.16 1.159-.819.593-.678.396-.565.198-.509.056-.17-.282-.593-1.866h-1.3l-.622 1.866-.17.282-.48-.056-.593-.198-.65-.396-.82-.593-1.159-1.159 2.148-1.837.17-.056.226.084 1.95 1.866h1.3Z" fill="#748D6C"/><path fill-rule="evenodd" clip-rule="evenodd" d="m25.115 24.826 4.946 1.3.367.255.226.339.113.452-.452 4.437-.141 2.995-.085.792-.367 1.102-.678 1.554-1.103 2.12-.65.113-4.239.141h-6.104l-3.9-.113-.961-.141-1.13-2.12-.679-1.554-.339-1.102-.113-.792-.141-3.221-.424-4.211.085-.452.254-.34.34-.254 4.973-1.3.48.791.537.65.622.537.707.424.791.311.904.198 1.046.085 1.046-.085.904-.17.791-.31.679-.424.621-.509.537-.622.537-.876Z" fill="#3F6534"/><path fill-rule="evenodd" clip-rule="evenodd" d="m26.782 12.391-.056.961-.198.933-.31.848-.396.82-.509.762-.593.679-.679.593-.763.509-.82.395-.847.311-.933.198-.96.057-.962-.057-.932-.198-.848-.31-.82-.396-.763-.509-.678-.593-.593-.679-.509-.763-.396-.82-.31-.847-.198-.933-.057-.96.057-.961.197-.933.311-.848.396-.82.509-.763.593-.678.678-.593.763-.509.82-.396.848-.31.932-.198.961-.057.961.057.933.198.848.31.82.396.762.509.678.593.594.678.509.764.395.82.311.847.198.933.056.96Z" fill="#372727"/><path fill-rule="evenodd" clip-rule="evenodd" d="m13.924 14.088.65.085.565.254.48.367.368.48.254.566.085.65-.085.65-.254.565-.367.48-.48.368-.566.255-.65.084-.65-.084-.565-.255-.48-.367-.368-.48-.254-.566-.085-.65.085-.65.254-.565.367-.48.48-.368.566-.254.65-.085Z" fill="#372727"/><path fill-rule="evenodd" clip-rule="evenodd" d="M15.704 12.848v2.854H13.98l-.452-.113-.339-.226-.254-.367-.085-.424.085-1.046.254-.34.34-.254.451-.084h1.724Zm10.316 0 .424.084.367.226.226.34.113.48-.085 1.018-.226.339-.339.254-.48.113h-1.724v-2.854h1.724Z" fill="#FBBC9A"/><path fill-rule="evenodd" clip-rule="evenodd" d="m19.435 21.661-.565-.113-.679-.311-1.328-.933-1.554-1.526-.311-.65-.141-1.3V9.735l.084-.452.255-.368.367-.226.424-.113h8.026l.424.085.367.254.227.34.113.48v7.093l-.029.763-.254.933-.565.706-1.074.99-1.3.932-.65.34-.565.169h-1.272Z" fill="#FFE6D9"/><path fill-rule="evenodd" clip-rule="evenodd" d="m27.065 9.99-.085.65-.254.565-.367.48-.48.368-.566.254-.65.085-.65-.085-.565-.254-.48-.367-.368-.48-.254-.566-.085-.65.085-.65.254-.565.367-.48.48-.368.566-.254.65-.085.65.085.565.254.48.367.368.48.254.566.085.65Zm-7.348-3.533-.847.057-1.583.423-.707.368-.876.622-.734.734-.622.876-.368.707-.424 1.583-.056.847 1.13.029 1.018-.17.96-.31.65-.34.594-.424.537-.565.452-.678.368-.707.254-.848.17-1.017.084-1.187Z" fill="#372727"/><path fill-rule="evenodd" clip-rule="evenodd" d="m25.087 7.589-.226 1.187-.565.989-.876.763-.537.226-1.187.226-1.187-.226-.537-.226-.876-.763-.566-.99-.226-1.186.226-1.187.566-.99.876-.763.537-.226 1.187-.226 1.187.226.537.226.876.763.565.99.226 1.187Z" fill="#372727"/><path fill-rule="evenodd" clip-rule="evenodd" d="M18.248 18.018h3.42l.197.084.085.283-.226.48-.283.368-.395.254-.48.141-.594.085-.622-.085-.48-.14-.396-.255-.283-.368-.226-.48.028-.198.255-.17Z" fill="#D58F8F"/><path fill-rule="evenodd" clip-rule="evenodd" d="m19.972 18.95.904.056.593.198-.395.254-.48.17-.622.084-.65-.084-.48-.17-.396-.254.593-.198.933-.057Z" fill="#DA6767"/><path d="m13.726 14.654.057-5.058.17-.792.621-1.413.622-.848.763-.706.876-.594 1.47-.621L20 4.424l1.696.198 1.47.621.875.594.763.706.622.848.622 1.413.17.792.056 5.058h.452l-.085-5.115-.17-.848-.677-1.526-1.046-1.3-1.357-.989-1.61-.65-.848-.17L20 4l-.933.057-.847.17-1.611.65-1.357.988-1.045 1.3-.679 1.526-.17.848-.056.876v4.24h.424Z" fill="#111B31"/><path d="m20 22.284 1.64-.226 1.44-.594.848-.621.707-.707.621-.848.594-1.441.17-.791.056-5.087h.283l-.057 5.115-.17.82-.65 1.526-.988 1.271-1.272.99-1.526.65-.82.17-.876.056v-.283Z" fill="#111B31"/><path fill-rule="evenodd" clip-rule="evenodd" d="M19.576 22.002h1.13l.311.113.085.141.028.453-.028.169-.226.226-1.3.028-.31-.113-.114-.31.028-.453.226-.226.17-.028Zm6.641-10.74h.99l.79.197.566.566.141.367.057.424-.057 2.402-.395.678-.679.396-1.413.057-.226-.057-.282-.283-.057-4.182.17-.396.395-.17Zm-12.434 0h-.99l-.79.197-.566.566-.141.367-.057.424.057 2.402.395.678.679.396 1.413.057.226-.057.282-.283.057-4.182-.17-.396-.395-.17Z" fill="#111B31"/><path fill-rule="evenodd" clip-rule="evenodd" d="M13.217 12.111h.424v3.109h-.424v-3.109Zm13 0h.424v3.109h-.424v-3.109Z" fill="#fff" fill-opacity=".3"/><path fill-rule="evenodd" clip-rule="evenodd" d="M23.391 31.893h5.37v1.413h-5.37v-1.413Z" fill="#00A609"/><path d="m20.141 25.563.057.17 2.063.253.339.255.113.395-.424 1.018-.31.282-.396-.028-.905-.791 1.357 3.702-.029.141-.14.085-1.188.311-.254-.113-.537-3.42-.876 6.67-.142.141-1.44-.31-.17-.255 2.006-6.98-.82.82-.367.056-.339-.255-.452-.763-.057-.424.198-.339.226-.141 2.487-.48Z" fill="#111B31"/><path d="m19.322 26.07.085.31.226.255.339.085.31-.085.227-.254.084-.311-.084-.31-.226-.255-.311-.085-.34.085-.226.254-.084.31Z" fill="#fff"/><circle cx="17.739" cy="14.37" r=".565" fill="#111B31"/><circle cx="22.261" cy="14.37" r=".565" fill="#111B31"/></g></svg>