<svg width="23" height="23" viewBox="0 0 23 23" fill="none" xmlns="http://www.w3.org/2000/svg">
<g clip-path="url(#clip0_33_33884)">
<mask id="path-1-outside-1_33_33884" maskUnits="userSpaceOnUse" x="0.216797" y="0.0175781" width="22" height="22" fill="black">
<rect fill="white" x="0.216797" y="0.0175781" width="22" height="22"/>
<path d="M21.379 9.31853C21.3429 8.4809 20.9016 7.68162 20.19 7.28021C19.8484 7.08682 19.4671 6.98383 19.079 6.98016H18.3118C18.2839 6.83357 18.2516 6.68768 18.2135 6.54251C18.1138 6.17573 17.9894 5.81684 17.8413 5.46853C17.5751 4.82508 17.2097 4.23942 16.7849 3.69947C15.9431 2.63117 14.7999 1.83805 13.5507 1.39685C12.2523 0.938132 10.8145 0.89953 9.49038 1.25926C8.20292 1.61297 7.03429 2.33501 6.11468 3.34495C5.20517 4.34836 4.55259 5.62104 4.28754 6.97992H3.98889C3.57361 6.97992 3.14773 6.96003 2.75252 7.12201C2.36364 7.28045 2.00926 7.5149 1.7485 7.86232C1.45498 8.24731 1.27469 8.71376 1.22968 9.20462C1.20916 9.40995 1.21931 9.62096 1.21931 9.82699V12.7913C1.22246 13.5936 1.59015 14.3015 2.19626 14.7766C2.64741 15.1294 3.18743 15.2211 3.73376 15.2211H4.28822C4.31619 15.3677 4.34845 15.5136 4.38634 15.6587C4.4861 16.025 4.61033 16.3835 4.75809 16.7315C5.02426 17.3752 5.38969 17.9611 5.81444 18.5008C6.65628 19.5694 7.79948 20.3627 9.0487 20.8039C9.77484 21.0562 10.5348 21.1846 11.2997 21.1842C11.6545 21.1842 11.9942 20.8562 11.9778 20.4724C11.9613 20.0885 11.68 19.7619 11.2997 19.7605C11.0404 19.7599 10.7813 19.7436 10.5237 19.7117C10.0148 19.6312 9.51657 19.4881 9.03946 19.2854C8.77343 19.1631 8.51547 19.0223 8.26732 18.8639C8.13002 18.7759 7.99596 18.6829 7.86512 18.5847C7.83264 18.5603 7.80023 18.5355 7.7679 18.5103L7.75053 18.4966L7.70294 18.457C7.66797 18.4274 7.63301 18.3973 7.5985 18.3668C7.35291 18.1497 7.12288 17.9139 6.91028 17.6613C6.86035 17.6018 6.81148 17.5415 6.76365 17.4806C6.74944 17.4624 6.73546 17.4439 6.72125 17.4254C6.76974 17.4898 6.71561 17.4207 6.69237 17.3882L6.69079 17.3861L6.68786 17.3821C6.67861 17.3698 6.66936 17.3584 6.65989 17.3449L6.68561 17.3785C6.59102 17.2464 6.50124 17.1106 6.41627 16.9712C6.23238 16.6691 6.07128 16.3524 5.93445 16.0239C5.74013 15.5153 5.60384 14.9844 5.52842 14.4422V7.97481C5.52836 7.92701 5.52329 7.87936 5.51331 7.83272C5.5203 7.80051 5.52594 7.76735 5.5309 7.73278L5.5203 7.81448C5.59452 7.25122 5.73429 6.69965 5.93648 6.17212C6.0568 5.88371 6.19586 5.60431 6.35266 5.33591C6.43733 5.19145 6.52695 5.05046 6.62154 4.91294C6.6441 4.88168 6.6653 4.85042 6.68741 4.81822C6.73501 4.75569 6.78283 4.69341 6.83223 4.63231C7.04063 4.37555 7.26682 4.13531 7.50895 3.91356C7.56564 3.86177 7.62309 3.81093 7.68128 3.76104C7.69865 3.74612 7.71647 3.7312 7.73407 3.71652C7.72284 3.72735 7.7106 3.73695 7.69752 3.74518C7.71611 3.72618 7.73679 3.70956 7.75911 3.69568C7.76271 3.69308 7.76632 3.69047 7.76948 3.68787C7.89836 3.58745 8.03069 3.49194 8.16649 3.40131C8.44746 3.21471 8.74156 3.05083 9.04622 2.91109C9.52182 2.70994 10.0182 2.56798 10.5253 2.48813C11.0414 2.42419 11.5628 2.42419 12.0788 2.48813C12.5876 2.56829 13.0856 2.71089 13.5626 2.91299C13.8285 3.0354 14.0863 3.17622 14.3343 3.33453C14.4715 3.42215 14.6055 3.51514 14.7363 3.6135C14.769 3.63719 14.8013 3.66276 14.8335 3.68787L14.8516 3.70231L14.8985 3.74115C14.9334 3.77075 14.9684 3.80083 15.0029 3.83138C15.2485 4.04849 15.4785 4.2843 15.6911 4.53687C15.7409 4.59608 15.7898 4.65623 15.8378 4.71733C15.852 4.73533 15.8657 4.75356 15.8797 4.7718C15.8321 4.70857 15.886 4.77748 15.909 4.80969L15.9108 4.8123L15.9136 4.81585C15.923 4.82816 15.932 4.84095 15.9415 4.85327L15.916 4.81987C16.0106 4.95202 16.1003 5.08764 16.1851 5.22673C16.3692 5.5288 16.5305 5.84553 16.6674 6.17402C16.8556 6.66567 16.9895 7.17834 17.0665 7.70199L17.1524 9.98329C17.1975 11.2031 17.2434 12.423 17.29 13.6429L17.3218 14.4883C17.3358 14.8599 17.6238 15.218 17.9999 15.2002C18.0224 15.2002 18.043 15.1972 18.0642 15.1941C18.1208 15.2099 18.1791 15.2178 18.2376 15.2178H19.0465C19.7248 15.2163 20.4149 14.9172 20.8421 14.3512C21.1978 13.88 21.3835 13.3417 21.3835 12.738V9.82604C21.3808 9.65624 21.3864 9.48739 21.379 9.31853ZM3.39969 13.7911C3.31466 13.774 3.23097 13.7503 3.1493 13.7201C3.08702 13.6886 3.02674 13.6529 2.96885 13.6133C2.95937 13.6069 2.95035 13.5998 2.9411 13.5932C2.91065 13.565 2.8802 13.5368 2.85087 13.5065C2.82155 13.4762 2.79516 13.4442 2.76831 13.4118C2.76177 13.4021 2.75523 13.3926 2.74914 13.3826C2.71137 13.3218 2.67739 13.2586 2.64741 13.1932C2.61892 13.1098 2.5963 13.0243 2.57973 12.9374C2.57003 12.7953 2.57342 12.6532 2.57342 12.5111V9.764C2.57342 9.59822 2.56778 9.43031 2.57951 9.26454C2.59607 9.17727 2.61869 9.09139 2.64718 9.00759C2.67716 8.9422 2.71114 8.87891 2.74891 8.81813C2.755 8.80842 2.76155 8.79895 2.76809 8.78924C2.79493 8.75703 2.82177 8.72506 2.85065 8.69451C2.87952 8.66396 2.90997 8.63625 2.94088 8.60807C2.95012 8.6012 2.95915 8.59434 2.96862 8.58794C3.02612 8.54828 3.08602 8.5126 3.14795 8.48113C3.22962 8.45098 3.31332 8.42723 3.39834 8.41009C3.63722 8.38972 3.88242 8.40488 4.12017 8.40488H4.1716V13.7973H4.1213C3.88377 13.7961 3.63835 13.8113 3.39969 13.7911ZM5.52887 14.4542C5.52876 14.4524 5.52876 14.4505 5.52887 14.4486V14.4542ZM19.6578 13.5922C19.6486 13.5988 19.6396 13.606 19.6301 13.6123C19.5722 13.652 19.5119 13.6877 19.4496 13.7192C19.3673 13.7499 19.2828 13.7742 19.197 13.7916C19.0148 13.8059 18.8319 13.8099 18.6493 13.8037C18.6293 13.268 18.6091 12.7324 18.5888 12.1969C18.5428 10.9771 18.4969 9.75721 18.451 8.53726C18.4494 8.49274 18.4479 8.44822 18.4461 8.40369H18.4774C18.7154 8.40369 18.9606 8.38854 19.1992 8.4089C19.2843 8.42605 19.368 8.4498 19.4496 8.47995C19.5116 8.51141 19.5715 8.54709 19.629 8.58676C19.6384 8.59315 19.6475 8.60002 19.6567 8.60665C19.6872 8.63507 19.7178 8.66301 19.7469 8.69333C19.776 8.72364 19.8024 8.75585 19.8295 8.78805C19.8358 8.79776 19.8424 8.80724 19.8484 8.81695C19.8862 8.87778 19.9203 8.94106 19.9504 9.0064C19.9788 9.08992 20.0014 9.17548 20.0181 9.26241C20.028 9.4045 20.0244 9.54659 20.0244 9.68869V12.4375C20.0244 12.6032 20.03 12.7712 20.0183 12.9369C20.0017 13.0241 19.979 13.1099 19.9506 13.1936C19.9205 13.259 19.8864 13.3223 19.8487 13.3831C19.8426 13.3931 19.836 13.4025 19.8297 13.4122C19.8026 13.4442 19.776 13.4762 19.7472 13.507C19.7183 13.5377 19.6883 13.5638 19.6578 13.5922Z"/>
</mask>
<path d="M21.379 9.31853C21.3429 8.4809 20.9016 7.68162 20.19 7.28021C19.8484 7.08682 19.4671 6.98383 19.079 6.98016H18.3118C18.2839 6.83357 18.2516 6.68768 18.2135 6.54251C18.1138 6.17573 17.9894 5.81684 17.8413 5.46853C17.5751 4.82508 17.2097 4.23942 16.7849 3.69947C15.9431 2.63117 14.7999 1.83805 13.5507 1.39685C12.2523 0.938132 10.8145 0.89953 9.49038 1.25926C8.20292 1.61297 7.03429 2.33501 6.11468 3.34495C5.20517 4.34836 4.55259 5.62104 4.28754 6.97992H3.98889C3.57361 6.97992 3.14773 6.96003 2.75252 7.12201C2.36364 7.28045 2.00926 7.5149 1.7485 7.86232C1.45498 8.24731 1.27469 8.71376 1.22968 9.20462C1.20916 9.40995 1.21931 9.62096 1.21931 9.82699V12.7913C1.22246 13.5936 1.59015 14.3015 2.19626 14.7766C2.64741 15.1294 3.18743 15.2211 3.73376 15.2211H4.28822C4.31619 15.3677 4.34845 15.5136 4.38634 15.6587C4.4861 16.025 4.61033 16.3835 4.75809 16.7315C5.02426 17.3752 5.38969 17.9611 5.81444 18.5008C6.65628 19.5694 7.79948 20.3627 9.0487 20.8039C9.77484 21.0562 10.5348 21.1846 11.2997 21.1842C11.6545 21.1842 11.9942 20.8562 11.9778 20.4724C11.9613 20.0885 11.68 19.7619 11.2997 19.7605C11.0404 19.7599 10.7813 19.7436 10.5237 19.7117C10.0148 19.6312 9.51657 19.4881 9.03946 19.2854C8.77343 19.1631 8.51547 19.0223 8.26732 18.8639C8.13002 18.7759 7.99596 18.6829 7.86512 18.5847C7.83264 18.5603 7.80023 18.5355 7.7679 18.5103L7.75053 18.4966L7.70294 18.457C7.66797 18.4274 7.63301 18.3973 7.5985 18.3668C7.35291 18.1497 7.12288 17.9139 6.91028 17.6613C6.86035 17.6018 6.81148 17.5415 6.76365 17.4806C6.74944 17.4624 6.73546 17.4439 6.72125 17.4254C6.76974 17.4898 6.71561 17.4207 6.69237 17.3882L6.69079 17.3861L6.68786 17.3821C6.67861 17.3698 6.66936 17.3584 6.65989 17.3449L6.68561 17.3785C6.59102 17.2464 6.50124 17.1106 6.41627 16.9712C6.23238 16.6691 6.07128 16.3524 5.93445 16.0239C5.74013 15.5153 5.60384 14.9844 5.52842 14.4422V7.97481C5.52836 7.92701 5.52329 7.87936 5.51331 7.83272C5.5203 7.80051 5.52594 7.76735 5.5309 7.73278L5.5203 7.81448C5.59452 7.25122 5.73429 6.69965 5.93648 6.17212C6.0568 5.88371 6.19586 5.60431 6.35266 5.33591C6.43733 5.19145 6.52695 5.05046 6.62154 4.91294C6.6441 4.88168 6.6653 4.85042 6.68741 4.81822C6.73501 4.75569 6.78283 4.69341 6.83223 4.63231C7.04063 4.37555 7.26682 4.13531 7.50895 3.91356C7.56564 3.86177 7.62309 3.81093 7.68128 3.76104C7.69865 3.74612 7.71647 3.7312 7.73407 3.71652C7.72284 3.72735 7.7106 3.73695 7.69752 3.74518C7.71611 3.72618 7.73679 3.70956 7.75911 3.69568C7.76271 3.69308 7.76632 3.69047 7.76948 3.68787C7.89836 3.58745 8.03069 3.49194 8.16649 3.40131C8.44746 3.21471 8.74156 3.05083 9.04622 2.91109C9.52182 2.70994 10.0182 2.56798 10.5253 2.48813C11.0414 2.42419 11.5628 2.42419 12.0788 2.48813C12.5876 2.56829 13.0856 2.71089 13.5626 2.91299C13.8285 3.0354 14.0863 3.17622 14.3343 3.33453C14.4715 3.42215 14.6055 3.51514 14.7363 3.6135C14.769 3.63719 14.8013 3.66276 14.8335 3.68787L14.8516 3.70231L14.8985 3.74115C14.9334 3.77075 14.9684 3.80083 15.0029 3.83138C15.2485 4.04849 15.4785 4.2843 15.6911 4.53687C15.7409 4.59608 15.7898 4.65623 15.8378 4.71733C15.852 4.73533 15.8657 4.75356 15.8797 4.7718C15.8321 4.70857 15.886 4.77748 15.909 4.80969L15.9108 4.8123L15.9136 4.81585C15.923 4.82816 15.932 4.84095 15.9415 4.85327L15.916 4.81987C16.0106 4.95202 16.1003 5.08764 16.1851 5.22673C16.3692 5.5288 16.5305 5.84553 16.6674 6.17402C16.8556 6.66567 16.9895 7.17834 17.0665 7.70199L17.1524 9.98329C17.1975 11.2031 17.2434 12.423 17.29 13.6429L17.3218 14.4883C17.3358 14.8599 17.6238 15.218 17.9999 15.2002C18.0224 15.2002 18.043 15.1972 18.0642 15.1941C18.1208 15.2099 18.1791 15.2178 18.2376 15.2178H19.0465C19.7248 15.2163 20.4149 14.9172 20.8421 14.3512C21.1978 13.88 21.3835 13.3417 21.3835 12.738V9.82604C21.3808 9.65624 21.3864 9.48739 21.379 9.31853ZM3.39969 13.7911C3.31466 13.774 3.23097 13.7503 3.1493 13.7201C3.08702 13.6886 3.02674 13.6529 2.96885 13.6133C2.95937 13.6069 2.95035 13.5998 2.9411 13.5932C2.91065 13.565 2.8802 13.5368 2.85087 13.5065C2.82155 13.4762 2.79516 13.4442 2.76831 13.4118C2.76177 13.4021 2.75523 13.3926 2.74914 13.3826C2.71137 13.3218 2.67739 13.2586 2.64741 13.1932C2.61892 13.1098 2.5963 13.0243 2.57973 12.9374C2.57003 12.7953 2.57342 12.6532 2.57342 12.5111V9.764C2.57342 9.59822 2.56778 9.43031 2.57951 9.26454C2.59607 9.17727 2.61869 9.09139 2.64718 9.00759C2.67716 8.9422 2.71114 8.87891 2.74891 8.81813C2.755 8.80842 2.76155 8.79895 2.76809 8.78924C2.79493 8.75703 2.82177 8.72506 2.85065 8.69451C2.87952 8.66396 2.90997 8.63625 2.94088 8.60807C2.95012 8.6012 2.95915 8.59434 2.96862 8.58794C3.02612 8.54828 3.08602 8.5126 3.14795 8.48113C3.22962 8.45098 3.31332 8.42723 3.39834 8.41009C3.63722 8.38972 3.88242 8.40488 4.12017 8.40488H4.1716V13.7973H4.1213C3.88377 13.7961 3.63835 13.8113 3.39969 13.7911ZM5.52887 14.4542C5.52876 14.4524 5.52876 14.4505 5.52887 14.4486V14.4542ZM19.6578 13.5922C19.6486 13.5988 19.6396 13.606 19.6301 13.6123C19.5722 13.652 19.5119 13.6877 19.4496 13.7192C19.3673 13.7499 19.2828 13.7742 19.197 13.7916C19.0148 13.8059 18.8319 13.8099 18.6493 13.8037C18.6293 13.268 18.6091 12.7324 18.5888 12.1969C18.5428 10.9771 18.4969 9.75721 18.451 8.53726C18.4494 8.49274 18.4479 8.44822 18.4461 8.40369H18.4774C18.7154 8.40369 18.9606 8.38854 19.1992 8.4089C19.2843 8.42605 19.368 8.4498 19.4496 8.47995C19.5116 8.51141 19.5715 8.54709 19.629 8.58676C19.6384 8.59315 19.6475 8.60002 19.6567 8.60665C19.6872 8.63507 19.7178 8.66301 19.7469 8.69333C19.776 8.72364 19.8024 8.75585 19.8295 8.78805C19.8358 8.79776 19.8424 8.80724 19.8484 8.81695C19.8862 8.87778 19.9203 8.94106 19.9504 9.0064C19.9788 9.08992 20.0014 9.17548 20.0181 9.26241C20.028 9.4045 20.0244 9.54659 20.0244 9.68869V12.4375C20.0244 12.6032 20.03 12.7712 20.0183 12.9369C20.0017 13.0241 19.979 13.1099 19.9506 13.1936C19.9205 13.259 19.8864 13.3223 19.8487 13.3831C19.8426 13.3931 19.836 13.4025 19.8297 13.4122C19.8026 13.4442 19.776 13.4762 19.7472 13.507C19.7183 13.5377 19.6883 13.5638 19.6578 13.5922Z" fill="#0C0C0C"/>
<path d="M7.79097 3.73421L7.79842 3.72805L7.73468 3.651L7.72724 3.65715L7.79097 3.73421ZM21.379 9.31853L21.279 9.32284L21.279 9.32294L21.379 9.31853ZM20.19 7.28021L20.1407 7.36723L20.1408 7.36731L20.19 7.28021ZM19.079 6.98016L19.08 6.88016H19.079V6.98016ZM18.3118 6.98016L18.2136 6.9989L18.2291 7.08016H18.3118V6.98016ZM18.2135 6.54251L18.3102 6.51711L18.31 6.51628L18.2135 6.54251ZM17.8413 5.46853L17.7489 5.50676L17.7493 5.50766L17.8413 5.46853ZM16.7849 3.69947L16.8635 3.63764L16.8635 3.63758L16.7849 3.69947ZM13.5507 1.39685L13.5174 1.49114L13.5174 1.49115L13.5507 1.39685ZM9.49038 1.25926L9.46416 1.16276L9.46388 1.16283L9.49038 1.25926ZM6.11468 3.34495L6.04074 3.27762L6.04059 3.27779L6.11468 3.34495ZM4.28754 6.97992V7.07992H4.36992L4.38569 6.99907L4.28754 6.97992ZM2.75252 7.12201L2.79025 7.21462L2.79045 7.21454L2.75252 7.12201ZM1.7485 7.86232L1.82803 7.92295L1.82848 7.92235L1.7485 7.86232ZM1.22968 9.20462L1.32919 9.21457L1.32927 9.21375L1.22968 9.20462ZM1.21931 12.7913H1.11931L1.11931 12.7917L1.21931 12.7913ZM2.19626 14.7766L2.13457 14.8553L2.13465 14.8553L2.19626 14.7766ZM4.28822 15.2211L4.38645 15.2023L4.37094 15.1211H4.28822V15.2211ZM4.38634 15.6587L4.28958 15.684L4.28986 15.685L4.38634 15.6587ZM4.75809 16.7315L4.8505 16.6933L4.85013 16.6924L4.75809 16.7315ZM5.81444 18.5008L5.73586 18.5627L5.73589 18.5627L5.81444 18.5008ZM9.0487 20.8039L9.0154 20.8982L9.01588 20.8984L9.0487 20.8039ZM11.2997 21.1842V21.0842H11.2996L11.2997 21.1842ZM11.2997 19.7605L11.3001 19.6605H11.2999L11.2997 19.7605ZM10.5237 19.7117L10.5081 19.8105L10.5114 19.8109L10.5237 19.7117ZM9.03946 19.2854L8.99766 19.3763L9.00035 19.3774L9.03946 19.2854ZM8.26732 18.8639L8.21339 18.9481L8.21352 18.9482L8.26732 18.8639ZM7.86512 18.5847L7.92516 18.5047L7.92505 18.5046L7.86512 18.5847ZM7.7679 18.5103L7.70587 18.5887L7.70634 18.5891L7.7679 18.5103ZM7.75053 18.4966L7.68661 18.5735L7.68851 18.575L7.75053 18.4966ZM7.70294 18.457L7.63832 18.5333L7.63903 18.5339L7.70294 18.457ZM7.5985 18.3668L7.66478 18.2919L7.66473 18.2919L7.5985 18.3668ZM6.91028 17.6613L6.83366 17.7256L6.83377 17.7257L6.91028 17.6613ZM6.76365 17.4806L6.68478 17.5421L6.68498 17.5423L6.76365 17.4806ZM6.72125 17.4254L6.80051 17.3644L6.64136 17.4856L6.72125 17.4254ZM6.69237 17.3882L6.77369 17.33L6.77272 17.3287L6.69237 17.3882ZM6.69079 17.3861L6.60996 17.445L6.61044 17.4456L6.69079 17.3861ZM6.68786 17.3821L6.7687 17.3232L6.76782 17.322L6.68786 17.3821ZM6.65989 17.3449L6.73933 17.2841L6.57804 17.4023L6.65989 17.3449ZM6.68561 17.3785L6.60617 17.4393L6.76692 17.3203L6.68561 17.3785ZM6.41627 16.9712L6.33085 17.0232L6.33088 17.0232L6.41627 16.9712ZM5.93445 16.0239L5.84099 16.0596L5.84214 16.0624L5.93445 16.0239ZM5.52842 14.4422H5.42746L5.42937 14.4559L5.52842 14.4422ZM5.52842 7.97481H5.62842L5.62842 7.97468L5.52842 7.97481ZM5.51331 7.83272L5.41558 7.8115L5.41101 7.83257L5.41552 7.85365L5.51331 7.83272ZM5.5309 7.73278L5.63007 7.74565L5.43191 7.71857L5.5309 7.73278ZM5.5203 7.81448L5.42113 7.80161L5.61944 7.82755L5.5203 7.81448ZM5.93648 6.17212L5.84415 6.13361L5.8431 6.13633L5.93648 6.17212ZM6.35266 5.33591L6.26639 5.28534L6.26632 5.28546L6.35266 5.33591ZM6.62154 4.91294L6.54043 4.85441L6.53915 4.85627L6.62154 4.91294ZM6.68741 4.81822L6.60775 4.75757L6.60496 4.76163L6.68741 4.81822ZM6.83223 4.63231L6.75458 4.56929L6.75447 4.56944L6.83223 4.63231ZM7.50895 3.91356L7.4415 3.83972L7.44141 3.83981L7.50895 3.91356ZM7.68128 3.76104L7.74637 3.83697L7.74644 3.8369L7.68128 3.76104ZM7.73407 3.71652L7.80347 3.78852L7.67 3.63974L7.73407 3.71652ZM7.69752 3.74518L7.62605 3.67524L7.75081 3.8298L7.69752 3.74518ZM7.75911 3.69568L7.81205 3.78079L7.81763 3.77677L7.75911 3.69568ZM7.76948 3.68787L7.708 3.60895L7.70585 3.61072L7.76948 3.68787ZM8.16649 3.40131L8.11117 3.31801L8.11098 3.31813L8.16649 3.40131ZM9.04622 2.91109L9.00725 2.81895L9.00453 2.8202L9.04622 2.91109ZM10.5253 2.48813L10.513 2.38883L10.5097 2.38935L10.5253 2.48813ZM12.0788 2.48813L12.0944 2.38929L12.0911 2.38889L12.0788 2.48813ZM13.5626 2.91299L13.6045 2.82211L13.6016 2.82091L13.5626 2.91299ZM14.3343 3.33453L14.3882 3.25026L14.3881 3.25023L14.3343 3.33453ZM14.7363 3.6135L14.6762 3.69345L14.6776 3.6945L14.7363 3.6135ZM14.8335 3.68787L14.896 3.60979L14.8949 3.60895L14.8335 3.68787ZM14.8516 3.70231L14.9153 3.62527L14.9141 3.62424L14.8516 3.70231ZM14.8985 3.74115L14.9631 3.66483L14.9622 3.66412L14.8985 3.74115ZM15.0029 3.83138L14.9366 3.90626L14.9367 3.9063L15.0029 3.83138ZM15.6911 4.53687L15.7677 4.47252L15.7676 4.47247L15.6911 4.53687ZM15.8378 4.71733L15.7591 4.77908L15.7593 4.7793L15.8378 4.71733ZM15.8797 4.7718L15.8004 4.83266L15.9596 4.71166L15.8797 4.7718ZM15.909 4.80969L15.9913 4.75276L15.9904 4.75156L15.909 4.80969ZM15.9108 4.8123L15.8285 4.86928L15.8313 4.8729L15.9108 4.8123ZM15.9136 4.81585L15.834 4.87646L15.8343 4.87682L15.9136 4.81585ZM15.9415 4.85327L15.8623 4.91424L16.021 4.79259L15.9415 4.85327ZM15.916 4.81987L15.9955 4.7592L15.8347 4.87808L15.916 4.81987ZM16.1851 5.22673L16.2705 5.1747L16.2705 5.17467L16.1851 5.22673ZM16.6674 6.17402L16.7608 6.13826L16.7597 6.13554L16.6674 6.17402ZM17.0665 7.70199L17.167 7.6982L17.1654 7.68745L17.0665 7.70199ZM17.1524 9.98329L17.2523 9.9796L17.2523 9.97953L17.1524 9.98329ZM17.29 13.6429L17.3899 13.6391L17.3899 13.6391L17.29 13.6429ZM17.3218 14.4883L17.2219 14.4921V14.4921L17.3218 14.4883ZM17.9999 15.2002V15.1001L17.9952 15.1003L17.9999 15.2002ZM18.0642 15.1941L18.091 15.0978L18.0707 15.0921L18.0498 15.0951L18.0642 15.1941ZM18.2376 15.2178V15.1178H18.2375L18.2376 15.2178ZM19.0465 15.2178V15.3178H19.0467L19.0465 15.2178ZM20.8421 14.3512L20.9219 14.4115V14.4115L20.8421 14.3512ZM21.3835 9.82604H21.4835L21.4834 9.82445L21.3835 9.82604ZM3.39969 13.7911L3.37983 13.8898L3.39129 13.8908L3.39969 13.7911ZM3.1493 13.7201L3.10391 13.8099L3.11464 13.8139L3.1493 13.7201ZM2.96885 13.6133L3.02536 13.5308L3.02479 13.5304L2.96885 13.6133ZM2.9411 13.5932L2.87265 13.6671L2.88283 13.6744L2.9411 13.5932ZM2.76831 13.4118L2.68498 13.4679L2.69126 13.4755L2.76831 13.4118ZM2.74914 13.3826L2.83442 13.3304L2.83408 13.3298L2.74914 13.3826ZM2.64741 13.1932L2.55229 13.2257L2.5565 13.2348L2.64741 13.1932ZM2.57973 12.9374L2.47924 12.9443L2.4815 12.9561L2.57973 12.9374ZM2.57951 9.26454L2.48059 9.24576L2.47976 9.25748L2.57951 9.26454ZM2.64718 9.00759L2.5558 8.96569L2.5525 8.9754L2.64718 9.00759ZM2.74891 8.81813L2.6642 8.76499L2.66398 8.76535L2.74891 8.81813ZM2.76809 8.78924L2.69087 8.72488L2.68515 8.73337L2.76809 8.78924ZM2.94088 8.60807L2.88095 8.52738L2.87349 8.53418L2.94088 8.60807ZM2.96862 8.58794L3.02457 8.67083L3.02541 8.67025L2.96862 8.58794ZM3.14795 8.48113L3.11308 8.38669L3.10266 8.39198L3.14795 8.48113ZM3.39834 8.41009L3.38979 8.3098L3.37857 8.31206L3.39834 8.41009ZM4.1716 8.40488H4.2716V8.30488H4.1716V8.40488ZM4.1716 13.7973V13.8973H4.2716V13.7973H4.1716ZM4.1213 13.7973L4.1208 13.8973H4.1213V13.7973ZM5.52887 14.4542L5.42903 14.46L5.62887 14.4542H5.52887ZM5.52887 14.4486H5.62887L5.42903 14.4428L5.52887 14.4486ZM19.6578 13.5922L19.7166 13.6742L19.7261 13.6653L19.6578 13.5922ZM19.6301 13.6123L19.5741 13.5295L19.5735 13.5299L19.6301 13.6123ZM19.4496 13.7192L19.4848 13.8134L19.4947 13.8084L19.4496 13.7192ZM19.197 13.7916L19.2048 13.8921L19.2169 13.8896L19.197 13.7916ZM18.6493 13.8037L18.5494 13.8074L18.5528 13.9005L18.6459 13.9036L18.6493 13.8037ZM18.5888 12.1969L18.4889 12.2006V12.2007L18.5888 12.1969ZM18.451 8.53726L18.3511 8.54081L18.3511 8.54102L18.451 8.53726ZM18.4461 8.40369V8.30369H18.3419L18.3461 8.40774L18.4461 8.40369ZM19.1992 8.4089L19.2191 8.31024L19.2077 8.30927L19.1992 8.4089ZM19.4496 8.47995L19.4952 8.39019L19.4843 8.38614L19.4496 8.47995ZM19.629 8.58676L19.5722 8.66907L19.573 8.66964L19.629 8.58676ZM19.6567 8.60665L19.7255 8.53293L19.715 8.52538L19.6567 8.60665ZM19.8295 8.78805L19.9139 8.73312L19.906 8.72372L19.8295 8.78805ZM19.8484 8.81695L19.9334 8.76421L19.9332 8.76381L19.8484 8.81695ZM19.9504 9.0064L20.0456 8.97404L20.0412 8.96451L19.9504 9.0064ZM20.0181 9.26241L20.1185 9.25539L20.1163 9.24358L20.0181 9.26241ZM20.0183 12.9369L20.1172 12.9558L20.118 12.944L20.0183 12.9369ZM19.9506 13.1936L20.0419 13.2358L20.0453 13.2258L19.9506 13.1936ZM19.8487 13.3831L19.7637 13.3304L19.7634 13.3309L19.8487 13.3831ZM19.8297 13.4122L19.9066 13.4774L19.9135 13.4668L19.8297 13.4122ZM21.4789 9.31423C21.4415 8.44656 20.9846 7.61359 20.2391 7.19311L20.1408 7.36731C20.8187 7.74966 21.2442 8.51523 21.279 9.32284L21.4789 9.31423ZM20.2392 7.19319C19.8831 6.99155 19.4852 6.88399 19.08 6.88016L19.0781 7.08015C19.449 7.08366 19.8137 7.18209 20.1407 7.36723L20.2392 7.19319ZM19.079 6.88016H18.3118V7.08016H19.079V6.88016ZM18.4101 6.96142C18.3817 6.81293 18.349 6.6648 18.3102 6.51711L18.1168 6.56791C18.1542 6.71057 18.186 6.85421 18.2136 6.9989L18.4101 6.96142ZM18.31 6.51628C18.2091 6.14512 18.0832 5.78192 17.9333 5.4294L17.7493 5.50766C17.8956 5.85176 18.0185 6.20634 18.117 6.56875L18.31 6.51628ZM17.9337 5.4303C17.6634 4.77676 17.2927 4.18326 16.8635 3.63764L16.7063 3.7613C17.1266 4.29559 17.4869 4.8734 17.7489 5.50675L17.9337 5.4303ZM16.8635 3.63758C16.0094 2.55377 14.8503 1.74979 13.584 1.30256L13.5174 1.49115C14.7495 1.92632 15.8768 2.70856 16.7064 3.76136L16.8635 3.63758ZM13.584 1.30257C12.2658 0.836838 10.8072 0.79789 9.46416 1.16276L9.51659 1.35576C10.8218 1.00117 12.2388 1.03943 13.5174 1.49114L13.584 1.30257ZM9.46388 1.16283C8.15774 1.52168 6.97278 2.25403 6.04074 3.27762L6.18862 3.41228C7.09579 2.416 8.2481 1.70426 9.51687 1.35569L9.46388 1.16283ZM6.04059 3.27779C5.11915 4.29437 4.45802 5.58354 4.18939 6.96078L4.38569 6.99907C4.64716 5.65854 5.2912 4.40236 6.18877 3.41211L6.04059 3.27779ZM4.28754 6.87992H3.98889V7.07992H4.28754V6.87992ZM3.98889 6.87992C3.58207 6.87992 3.13235 6.85826 2.7146 7.02949L2.79045 7.21454C3.1631 7.0618 3.56514 7.07992 3.98889 7.07992V6.87992ZM2.71479 7.02941C2.31382 7.19276 1.94284 7.43681 1.66852 7.80229L1.82848 7.92235C2.07568 7.59299 2.41345 7.36814 2.79025 7.21462L2.71479 7.02941ZM1.66898 7.80169C1.36385 8.20191 1.17679 8.68628 1.1301 9.19549L1.32927 9.21375C1.37259 8.74124 1.54611 8.29271 1.82802 7.92295L1.66898 7.80169ZM1.13018 9.19468C1.10899 9.40662 1.11931 9.62753 1.11931 9.82699H1.31931C1.31931 9.61438 1.30932 9.41328 1.32919 9.21457L1.13018 9.19468ZM1.11931 9.82699V12.7913H1.31931V9.82699H1.11931ZM1.11931 12.7917C1.12259 13.6258 1.50534 14.3621 2.13457 14.8553L2.25795 14.6979C1.67496 14.2409 1.32234 13.5615 1.31931 12.7909L1.11931 12.7917ZM2.13465 14.8553C2.61118 15.228 3.17756 15.3211 3.73376 15.3211V15.1211C3.1973 15.1211 2.68364 15.0308 2.25787 14.6978L2.13465 14.8553ZM3.73376 15.3211H4.28822V15.1211H3.73376V15.3211ZM4.18999 15.2398C4.21833 15.3883 4.25106 15.5364 4.28959 15.684L4.4831 15.6335C4.44584 15.4907 4.41406 15.347 4.38645 15.2023L4.18999 15.2398ZM4.28986 15.685C4.3908 16.0557 4.51651 16.4184 4.66604 16.7706L4.85013 16.6924C4.70415 16.3486 4.58141 15.9944 4.48283 15.6324L4.28986 15.685ZM4.66568 16.7697C4.93603 17.4235 5.30663 18.0173 5.73586 18.5627L5.89303 18.439C5.47275 17.9049 5.1125 17.3269 4.8505 16.6933L4.66568 16.7697ZM5.73589 18.5627C6.58994 19.6467 7.74911 20.451 9.0154 20.8982L9.08201 20.7096C7.84986 20.2744 6.72262 19.492 5.89299 18.4389L5.73589 18.5627ZM9.01588 20.8984C9.75253 21.1543 10.5236 21.2846 11.2997 21.2842L11.2996 21.0842C10.546 21.0846 9.79715 20.9581 9.08153 20.7094L9.01588 20.8984ZM11.2997 21.2842C11.7094 21.2842 12.0967 20.9109 12.0777 20.4681L11.8779 20.4766C11.8918 20.8016 11.5997 21.0842 11.2997 21.0842V21.2842ZM12.0777 20.4681C12.0594 20.042 11.7444 19.6621 11.3001 19.6605L11.2993 19.8605C11.6157 19.8617 11.8632 20.1349 11.8779 20.4766L12.0777 20.4681ZM11.2999 19.6605C11.0446 19.6599 10.7896 19.6438 10.536 19.6124L10.5114 19.8109C10.773 19.8433 11.0361 19.8598 11.2995 19.8605L11.2999 19.6605ZM10.5393 19.6129C10.0385 19.5337 9.5482 19.3929 9.07856 19.1934L9.00035 19.3774C9.48495 19.5833 9.99101 19.7287 10.5081 19.8105L10.5393 19.6129ZM9.08123 19.1945C8.81938 19.0742 8.56544 18.9355 8.32113 18.7796L8.21352 18.9482C8.4655 19.109 8.72747 19.252 8.99768 19.3763L9.08123 19.1945ZM8.32126 18.7797C8.18605 18.6931 8.05401 18.6014 7.92516 18.5047L7.80509 18.6646C7.9379 18.7643 8.074 18.8588 8.21339 18.9481L8.32126 18.7797ZM7.92505 18.5046C7.89313 18.4807 7.86127 18.4563 7.82947 18.4315L7.70634 18.5891C7.7392 18.6148 7.77216 18.64 7.8052 18.6647L7.92505 18.5046ZM7.82993 18.4319L7.81256 18.4181L7.68851 18.575L7.70587 18.5887L7.82993 18.4319ZM7.81444 18.4196L7.76685 18.3801L7.63903 18.5339L7.68662 18.5735L7.81444 18.4196ZM7.76756 18.3807C7.73298 18.3514 7.6986 18.3218 7.66478 18.2919L7.53222 18.4417C7.56742 18.4728 7.60297 18.5034 7.63832 18.5333L7.76756 18.3807ZM7.66473 18.2919C7.42285 18.078 7.19625 17.8457 6.98678 17.5969L6.83377 17.7257C7.04952 17.982 7.28297 18.2213 7.53226 18.4417L7.66473 18.2919ZM6.98689 17.597C6.93766 17.5383 6.88947 17.4789 6.84232 17.4189L6.68498 17.5423C6.73348 17.6041 6.78304 17.6652 6.83366 17.7256L6.98689 17.597ZM6.84253 17.4191C6.82851 17.4011 6.81541 17.3838 6.80051 17.3644L6.64199 17.4864C6.6555 17.504 6.67038 17.5236 6.68478 17.5421L6.84253 17.4191ZM6.64136 17.4856C6.65451 17.503 6.65793 17.5078 6.65731 17.5069C6.65705 17.5065 6.65645 17.5056 6.6557 17.5044C6.65542 17.5039 6.65312 17.5003 6.65072 17.4953C6.65017 17.4942 6.64588 17.4856 6.64323 17.4738C6.64227 17.4695 6.63821 17.4516 6.64339 17.4293C6.64672 17.418 6.65913 17.3942 6.66878 17.3825C6.68131 17.3715 6.70921 17.357 6.72364 17.3534C6.75441 17.348 6.77762 17.3588 6.7822 17.3609C6.79031 17.3646 6.79611 17.3686 6.79864 17.3703C6.80403 17.3742 6.80782 17.3777 6.80897 17.3788C6.81188 17.3815 6.81395 17.3838 6.8144 17.3843C6.8152 17.3851 6.81578 17.3858 6.81605 17.3861C6.81636 17.3865 6.81657 17.3867 6.81667 17.3869C6.81673 17.3869 6.81677 17.387 6.8168 17.387C6.81682 17.387 6.81684 17.3871 6.81684 17.3871C6.81684 17.3871 6.81681 17.387 6.81674 17.3869C6.81667 17.3868 6.81658 17.3867 6.81646 17.3866C6.81622 17.3863 6.8159 17.3859 6.81551 17.3854C6.81472 17.3844 6.81372 17.3831 6.81253 17.3816C6.80256 17.3688 6.78415 17.3446 6.77368 17.33L6.61107 17.4465C6.62382 17.4643 6.64411 17.4909 6.65488 17.5047C6.65751 17.508 6.6602 17.5115 6.66226 17.514C6.6628 17.5146 6.66362 17.5156 6.66455 17.5167C6.66501 17.5172 6.66577 17.5181 6.66671 17.5191C6.66729 17.5198 6.66948 17.5222 6.67247 17.525C6.67366 17.5261 6.67748 17.5296 6.6829 17.5335C6.68544 17.5353 6.69125 17.5392 6.69937 17.5429C6.70396 17.545 6.72717 17.5558 6.75795 17.5504C6.77238 17.5468 6.80029 17.5323 6.81282 17.5213C6.82247 17.5096 6.83488 17.4858 6.83821 17.4745C6.84339 17.4522 6.83934 17.4343 6.83837 17.43C6.83572 17.4182 6.83142 17.4096 6.83084 17.4084C6.82841 17.4033 6.82603 17.3996 6.82564 17.3989C6.82478 17.3976 6.82404 17.3964 6.82362 17.3958C6.82024 17.3907 6.81223 17.38 6.80114 17.3653L6.64136 17.4856ZM6.77272 17.3287L6.77114 17.3266L6.61044 17.4456L6.61202 17.4478L6.77272 17.3287ZM6.77162 17.3272L6.76869 17.3232L6.60703 17.4409L6.60996 17.445L6.77162 17.3272ZM6.76782 17.322C6.75545 17.3055 6.75022 17.2995 6.74174 17.2874L6.57804 17.4023C6.58851 17.4173 6.60177 17.434 6.6079 17.4421L6.76782 17.322ZM6.58045 17.4056L6.60617 17.4393L6.76504 17.3178L6.73933 17.2841L6.58045 17.4056ZM6.76692 17.3203C6.67377 17.1902 6.58535 17.0565 6.50166 16.9191L6.33088 17.0232C6.41712 17.1647 6.50826 17.3026 6.60429 17.4367L6.76692 17.3203ZM6.50169 16.9192C6.32045 16.6215 6.16165 16.3093 6.02676 15.9854L5.84214 16.0624C5.9809 16.3955 6.1443 16.7167 6.33085 17.0232L6.50169 16.9192ZM6.02786 15.9882C5.83626 15.4867 5.70185 14.9632 5.62747 14.4284L5.42937 14.4559C5.50583 15.0056 5.644 15.5439 5.84104 16.0596L6.02786 15.9882ZM5.62842 14.4422V7.97481H5.42842V14.4422H5.62842ZM5.62842 7.97468C5.62835 7.9199 5.62254 7.86528 5.61109 7.81179L5.41552 7.85365C5.42404 7.89343 5.42837 7.93411 5.42842 7.97494L5.62842 7.97468ZM5.61103 7.85393C5.61867 7.81876 5.62469 7.78315 5.62989 7.74698L5.43191 7.71857C5.42718 7.75155 5.42193 7.78226 5.41558 7.8115L5.61103 7.85393ZM5.43173 7.71991L5.42113 7.80161L5.61947 7.82735L5.63007 7.74565L5.43173 7.71991ZM5.61944 7.82755C5.69265 7.27201 5.83049 6.72807 6.02986 6.20791L5.8431 6.13633C5.63809 6.67122 5.4964 7.23042 5.42115 7.80142L5.61944 7.82755ZM6.02877 6.21063C6.14739 5.9263 6.28446 5.65089 6.43901 5.38635L6.26632 5.28546C6.10725 5.55773 5.96622 5.84112 5.84419 6.13362L6.02877 6.21063ZM6.43894 5.38647C6.52238 5.24409 6.61072 5.10514 6.70393 4.96962L6.53915 4.85627C6.44319 4.99578 6.35227 5.13881 6.26639 5.28534L6.43894 5.38647ZM6.70263 4.97146C6.72608 4.93897 6.74819 4.90638 6.76986 4.8748L6.60496 4.76163C6.58242 4.79447 6.56212 4.82439 6.54045 4.85443L6.70263 4.97146ZM6.76698 4.87879C6.81448 4.81639 6.86156 4.75508 6.90999 4.69518L6.75447 4.56944C6.70409 4.63174 6.65553 4.695 6.60784 4.75764L6.76698 4.87879ZM6.90987 4.69533C7.1152 4.44236 7.33801 4.20571 7.57649 3.9873L7.44141 3.83981C7.19563 4.06492 6.96606 4.30874 6.75459 4.56929L6.90987 4.69533ZM7.57639 3.98739C7.63231 3.93631 7.68897 3.88617 7.74637 3.83697L7.6162 3.68512C7.5572 3.7357 7.49897 3.78723 7.4415 3.83972L7.57639 3.98739ZM7.74644 3.8369C7.76322 3.82249 7.78057 3.80796 7.79814 3.7933L7.67 3.63974C7.65238 3.65445 7.63408 3.66976 7.61612 3.68519L7.74644 3.8369ZM7.66466 3.64453C7.65832 3.65065 7.65147 3.65601 7.64424 3.66056L7.75081 3.8298C7.76973 3.81789 7.78736 3.80404 7.80347 3.78852L7.66466 3.64453ZM7.769 3.81512C7.78205 3.80177 7.79648 3.7902 7.81192 3.78059L7.70629 3.61077C7.6771 3.62893 7.65018 3.65058 7.62605 3.67524L7.769 3.81512ZM7.81763 3.77677C7.82064 3.77459 7.827 3.77005 7.83312 3.76501L7.70585 3.61072C7.70599 3.61061 7.70572 3.61084 7.70472 3.61159C7.70368 3.61236 7.7025 3.61321 7.70058 3.6146L7.81763 3.77677ZM7.83094 3.76675C7.95789 3.66784 8.08824 3.57376 8.222 3.48449L8.11098 3.31813C7.97315 3.41012 7.83883 3.50707 7.70802 3.60898L7.83094 3.76675ZM8.22181 3.48461C8.49847 3.30087 8.78801 3.13954 9.08791 3.00199L9.00453 2.8202C8.6951 2.96212 8.39645 3.12854 8.11117 3.31801L8.22181 3.48461ZM9.08518 3.00319C9.55332 2.80519 10.0419 2.66549 10.5409 2.58691L10.5097 2.38935C9.99459 2.47048 9.49032 2.61469 9.00727 2.81899L9.08518 3.00319ZM10.5376 2.58737C11.0455 2.52444 11.5586 2.52444 12.0665 2.58737L12.0911 2.38889C11.5669 2.32394 11.0372 2.32394 10.513 2.38889L10.5376 2.58737ZM12.0633 2.58691C12.5639 2.6658 13.054 2.80613 13.5236 3.00506L13.6016 2.82091C13.1171 2.61565 12.6112 2.47079 12.0944 2.38935L12.0633 2.58691ZM13.5208 3.00382C13.7825 3.12432 14.0363 3.26296 14.2805 3.41882L14.3881 3.25023C14.1363 3.08949 13.8745 2.94648 13.6045 2.82215L13.5208 3.00382ZM14.2805 3.4188C14.4155 3.50505 14.5474 3.59659 14.6762 3.69344L14.7964 3.53357C14.6635 3.4337 14.5275 3.33926 14.3882 3.25026L14.2805 3.4188ZM14.6776 3.6945C14.7085 3.71687 14.7388 3.74088 14.7721 3.76678L14.8949 3.60895C14.8637 3.58465 14.8295 3.55751 14.7949 3.53251L14.6776 3.6945ZM14.771 3.76593L14.7891 3.78038L14.9141 3.62424L14.896 3.6098L14.771 3.76593ZM14.7878 3.77934L14.8347 3.81818L14.9622 3.66412L14.9153 3.62528L14.7878 3.77934ZM14.8339 3.81747C14.8684 3.84674 14.9028 3.87632 14.9366 3.90626L15.0692 3.7565C15.034 3.72534 14.9984 3.69476 14.9631 3.66483L14.8339 3.81747ZM14.9367 3.9063C15.1786 4.12014 15.4052 4.35242 15.6146 4.60127L15.7676 4.47247C15.5519 4.21617 15.3184 3.97685 15.0691 3.75646L14.9367 3.9063ZM15.6146 4.60122C15.6637 4.65957 15.7118 4.71886 15.7591 4.77908L15.9164 4.65558C15.8678 4.5936 15.8182 4.53258 15.7677 4.47252L15.6146 4.60122ZM15.7593 4.7793C15.7729 4.79656 15.7857 4.81359 15.8004 4.83266L15.9591 4.71094C15.9457 4.69353 15.931 4.67409 15.9162 4.65536L15.7593 4.7793ZM15.9596 4.71166C15.9466 4.69434 15.9435 4.68998 15.9443 4.69122C15.9446 4.69164 15.9453 4.69272 15.9462 4.69418C15.9462 4.69428 15.9495 4.69947 15.9525 4.7065C15.9535 4.70863 15.9551 4.71259 15.9566 4.71773C15.9577 4.72137 15.9611 4.73314 15.9607 4.74865C15.9603 4.76225 15.9554 4.80711 15.9102 4.83288C15.8712 4.85513 15.8349 4.84291 15.8279 4.84048C15.8164 4.83649 15.8084 4.83129 15.8055 4.82936C15.8017 4.82685 15.7988 4.82457 15.7972 4.82324C15.794 4.82059 15.7916 4.81831 15.7906 4.81735C15.7861 4.81286 15.7827 4.80844 15.7846 4.81079C15.785 4.81134 15.7865 4.81315 15.789 4.81643C15.7991 4.82929 15.8173 4.85334 15.8277 4.86782L15.9904 4.75156C15.9777 4.73383 15.9576 4.70732 15.9468 4.69348C15.9441 4.69009 15.9415 4.68671 15.9394 4.68423C15.9389 4.68358 15.9382 4.68266 15.9373 4.68165C15.9372 4.68154 15.9345 4.67831 15.9309 4.67482C15.9299 4.67381 15.9275 4.67149 15.9243 4.66881C15.9226 4.66747 15.9198 4.66519 15.916 4.66267C15.913 4.66073 15.905 4.65553 15.8935 4.65153C15.8865 4.64909 15.8502 4.63687 15.8112 4.65913C15.7659 4.6849 15.7611 4.72976 15.7607 4.74338C15.7603 4.75889 15.7637 4.77067 15.7648 4.77433C15.7663 4.77948 15.7679 4.78345 15.7689 4.7856C15.7719 4.7927 15.7752 4.798 15.7754 4.79826C15.7764 4.79987 15.7772 4.80114 15.7777 4.80181C15.781 4.8069 15.7891 4.81764 15.7998 4.83194L15.9596 4.71166ZM15.8268 4.86661L15.8286 4.86922L15.9931 4.75537L15.9913 4.75277L15.8268 4.86661ZM15.8313 4.8729L15.834 4.87646L15.9931 4.75524L15.9904 4.75169L15.8313 4.8729ZM15.8343 4.87682C15.8383 4.88202 15.8423 4.88746 15.847 4.89388C15.8516 4.90001 15.8568 4.90713 15.8623 4.91424L16.0208 4.79229C16.0168 4.78709 16.0128 4.78165 16.008 4.77523C16.0035 4.7691 15.9983 4.76199 15.9928 4.75487L15.8343 4.87682ZM16.021 4.79259L15.9955 4.7592L15.8365 4.88055L15.862 4.91394L16.021 4.79259ZM15.8347 4.87808C15.9279 5.00822 16.0162 5.14179 16.0998 5.27879L16.2705 5.17467C16.1844 5.03349 16.0934 4.89582 15.9973 4.76167L15.8347 4.87808ZM16.0997 5.27877C16.2811 5.57647 16.4401 5.88867 16.5751 6.2125L16.7597 6.13554C16.6208 5.80239 16.4573 5.48112 16.2705 5.1747L16.0997 5.27877ZM16.574 6.20976C16.7596 6.69453 16.8916 7.20009 16.9675 7.71654L17.1654 7.68745C17.0874 7.15658 16.9516 6.6368 16.7608 6.13827L16.574 6.20976ZM16.9665 7.70576L17.0525 9.98706L17.2523 9.97953L17.1664 7.69823L16.9665 7.70576ZM17.0525 9.98699C17.0976 11.2068 17.1434 12.4267 17.1901 13.6467L17.3899 13.6391C17.3433 12.4192 17.2974 11.1993 17.2523 9.9796L17.0525 9.98699ZM17.1901 13.6467L17.2219 14.4921L17.4217 14.4846L17.3899 13.6391L17.1901 13.6467ZM17.2219 14.4921C17.2373 14.9008 17.5562 15.3213 18.0046 15.3001L17.9952 15.1003C17.6915 15.1147 17.4343 14.8191 17.4217 14.4846L17.2219 14.4921ZM17.9999 15.3002C18.0309 15.3002 18.0586 15.2959 18.0785 15.293L18.0498 15.0951C18.0273 15.0984 18.014 15.1002 17.9999 15.1002V15.3002ZM18.0373 15.2904C18.1026 15.3086 18.17 15.3178 18.2377 15.3178L18.2375 15.1178C18.1881 15.1178 18.1389 15.1111 18.091 15.0978L18.0373 15.2904ZM18.2376 15.3178H19.0465V15.1178H18.2376V15.3178ZM19.0467 15.3178C19.7526 15.3163 20.4737 15.0053 20.9219 14.4115L20.7623 14.291C20.356 14.8292 19.6971 15.1164 19.0463 15.1178L19.0467 15.3178ZM20.9219 14.4115C21.2905 13.9231 21.4835 13.3638 21.4835 12.738H21.2835C21.2835 13.3196 21.1051 13.8368 20.7623 14.291L20.9219 14.4115ZM21.4835 12.738V9.82604H21.2835V12.738H21.4835ZM21.4834 9.82445C21.4809 9.66269 21.4863 9.48339 21.4789 9.31413L21.279 9.32294C21.2865 9.49139 21.2806 9.6498 21.2835 9.82764L21.4834 9.82445ZM3.41942 13.6931C3.3395 13.677 3.26079 13.6547 3.18397 13.6263L3.11464 13.8139C3.20114 13.8459 3.28983 13.871 3.37996 13.8892L3.41942 13.6931ZM3.19441 13.6308C3.13609 13.6014 3.07962 13.568 3.02536 13.5308L2.91234 13.6958C2.97386 13.7379 3.03795 13.7759 3.1042 13.8094L3.19441 13.6308ZM3.02479 13.5304C3.01594 13.5244 3.01443 13.5227 2.99937 13.5119L2.88283 13.6744C2.88627 13.6769 2.9028 13.6894 2.9129 13.6962L3.02479 13.5304ZM3.00902 13.5198C2.97826 13.4913 2.94984 13.465 2.92275 13.437L2.779 13.576C2.81056 13.6086 2.84304 13.6387 2.87318 13.6666L3.00902 13.5198ZM2.92275 13.437C2.89659 13.4099 2.87267 13.381 2.84536 13.348L2.69126 13.4755C2.71765 13.5074 2.74651 13.5424 2.779 13.576L2.92275 13.437ZM2.85125 13.3559C2.84382 13.3449 2.83904 13.338 2.83442 13.3304L2.66386 13.4348C2.67142 13.4472 2.67972 13.4592 2.68538 13.4676L2.85125 13.3559ZM2.83408 13.3298C2.79854 13.2727 2.76654 13.2131 2.73831 13.1515L2.5565 13.2348C2.58823 13.304 2.6242 13.371 2.6642 13.4354L2.83408 13.3298ZM2.74204 13.1608C2.71507 13.0819 2.69365 13.001 2.67797 12.9187L2.4815 12.9561C2.49894 13.0476 2.52276 13.1376 2.55277 13.2255L2.74204 13.1608ZM2.6795 12.9306C2.67011 12.793 2.67342 12.6564 2.67342 12.5111H2.47342C2.47342 12.65 2.46996 12.7976 2.47997 12.9442L2.6795 12.9306ZM2.67342 12.5111V9.764H2.47342V12.5111H2.67342ZM2.67342 9.764C2.67342 9.59369 2.66786 9.43267 2.67926 9.2716L2.47976 9.25748C2.4677 9.42795 2.47342 9.60275 2.47342 9.764H2.67342ZM2.67775 9.28319C2.69345 9.2005 2.71488 9.11914 2.74186 9.03977L2.5525 8.9754C2.5225 9.06365 2.4987 9.15405 2.48126 9.24589L2.67775 9.28319ZM2.73808 9.04926C2.76632 8.98768 2.79831 8.9281 2.83385 8.87091L2.66398 8.76535C2.62398 8.82972 2.588 8.89672 2.55628 8.96591L2.73808 9.04926ZM2.83363 8.87127C2.83857 8.86338 2.8436 8.85613 2.85102 8.84511L2.68515 8.73337C2.67949 8.74177 2.67144 8.75346 2.6642 8.76499L2.83363 8.87127ZM2.84491 8.85326C2.87185 8.82094 2.89686 8.7912 2.92332 8.7632L2.77797 8.62582C2.74669 8.65892 2.71801 8.69313 2.69127 8.72522L2.84491 8.85326ZM2.92332 8.7632C2.94921 8.73581 2.97685 8.71061 3.00826 8.68196L2.87349 8.53418C2.8431 8.5619 2.80983 8.59211 2.77797 8.62582L2.92332 8.7632ZM3.00049 8.68835C3.01107 8.6805 3.01751 8.67559 3.02456 8.67083L2.91268 8.50505C2.90079 8.51308 2.88918 8.5219 2.88126 8.52779L3.00049 8.68835ZM3.02541 8.67025C3.07925 8.63311 3.13532 8.59972 3.19325 8.57029L3.10266 8.39198C3.03673 8.42548 2.97299 8.46344 2.91184 8.50563L3.02541 8.67025ZM3.18259 8.57494C3.25944 8.54657 3.33816 8.52424 3.4181 8.50811L3.37857 8.31206C3.28847 8.33023 3.19981 8.35539 3.11332 8.38732L3.18259 8.57494ZM3.40683 8.50973C3.64023 8.48983 3.87383 8.50488 4.12017 8.50488V8.30488C3.891 8.30488 3.63421 8.28961 3.38984 8.31045L3.40683 8.50973ZM4.12017 8.50488H4.1716V8.30488H4.12017V8.50488ZM4.0716 8.40488V13.7973H4.2716V8.40488H4.0716ZM4.1716 13.6973H4.1213V13.8973H4.1716V13.6973ZM4.1218 13.6973C3.87483 13.6961 3.64183 13.7112 3.4081 13.6915L3.39129 13.8908C3.63486 13.9113 3.8927 13.8962 4.1208 13.8973L4.1218 13.6973ZM5.62871 14.4485C5.62882 14.4504 5.62882 14.4524 5.62871 14.4543L5.42903 14.4428C5.42871 14.4485 5.42871 14.4543 5.42903 14.46L5.62871 14.4485ZM5.42887 14.4486V14.4542H5.62887V14.4486H5.42887ZM19.5996 13.5109C19.5845 13.5217 19.583 13.5235 19.5741 13.5295L19.686 13.6952C19.6961 13.6884 19.7126 13.676 19.7161 13.6735L19.5996 13.5109ZM19.5735 13.5299C19.5193 13.5671 19.4629 13.6005 19.4046 13.6299L19.4947 13.8084C19.561 13.775 19.6251 13.737 19.6867 13.6948L19.5735 13.5299ZM19.4146 13.6255C19.3371 13.6544 19.2577 13.6772 19.177 13.6936L19.2169 13.8896C19.3079 13.8711 19.3974 13.8454 19.4846 13.8128L19.4146 13.6255ZM19.1892 13.6919C19.0107 13.7059 18.8316 13.7098 18.6527 13.7038L18.6459 13.9036C18.8323 13.91 19.0188 13.9058 19.2048 13.8913L19.1892 13.6919ZM18.7492 13.8C18.7292 13.2643 18.7091 12.7286 18.6888 12.1931L18.4889 12.2007C18.5092 12.7362 18.5294 13.2718 18.5494 13.8074L18.7492 13.8ZM18.6888 12.1931C18.6428 10.9733 18.5968 9.75345 18.5509 8.5335L18.3511 8.54102C18.397 9.76097 18.4429 10.9808 18.4889 12.2006L18.6888 12.1931ZM18.551 8.53372C18.5494 8.48923 18.5478 8.44446 18.546 8.39964L18.3461 8.40774C18.3479 8.45197 18.3495 8.49624 18.3511 8.54081L18.551 8.53372ZM18.4461 8.50369H18.4774V8.30369H18.4461V8.50369ZM18.4774 8.50369C18.724 8.50369 18.9576 8.48864 19.1907 8.50854L19.2077 8.30927C18.9636 8.28843 18.7068 8.30369 18.4774 8.30369V8.50369ZM19.1795 8.50693C19.2594 8.52305 19.3381 8.54539 19.415 8.57376L19.4843 8.38614C19.3978 8.3542 19.3091 8.32904 19.219 8.31088L19.1795 8.50693ZM19.4043 8.5691C19.4623 8.59853 19.5183 8.63192 19.5722 8.66907L19.6857 8.50444C19.6246 8.46226 19.5609 8.42429 19.4949 8.3908L19.4043 8.5691ZM19.573 8.66964C19.5811 8.67512 19.5859 8.67894 19.5984 8.68792L19.715 8.52538C19.709 8.5211 19.6957 8.51119 19.6849 8.50387L19.573 8.66964ZM19.5885 8.67976C19.6202 8.70935 19.6481 8.7348 19.6748 8.76258L19.8191 8.62407C19.7875 8.59123 19.7541 8.56078 19.7249 8.53354L19.5885 8.67976ZM19.6748 8.76258C19.701 8.78987 19.7247 8.81877 19.7529 8.85239L19.906 8.72372C19.8802 8.69293 19.8511 8.65741 19.8191 8.62407L19.6748 8.76258ZM19.7457 8.84258C19.7544 8.85602 19.7578 8.86066 19.7637 8.87008L19.9332 8.76381C19.9269 8.75381 19.9172 8.73951 19.9133 8.73353L19.7457 8.84258ZM19.7635 8.86968C19.7991 8.92701 19.8312 8.98666 19.8596 9.0483L20.0412 8.96451C20.0093 8.89545 19.9733 8.82855 19.9334 8.76421L19.7635 8.86968ZM19.8557 9.03859C19.8826 9.11772 19.9041 9.19882 19.9199 9.28124L20.1163 9.24358C20.0988 9.15213 20.075 9.06212 20.0451 8.97422L19.8557 9.03859ZM19.9183 9.26938C19.9279 9.40687 19.9244 9.54317 19.9244 9.68869H20.1244C20.1244 9.55002 20.1281 9.40213 20.1178 9.25544L19.9183 9.26938ZM19.9244 9.68869V12.4375H20.1244V9.68869H19.9244ZM19.9244 12.4375C19.9244 12.6078 19.9299 12.7688 19.9185 12.9299L20.118 12.944C20.1301 12.7735 20.1244 12.5987 20.1244 12.4375H19.9244ZM19.9201 12.9182C19.9043 13.0008 19.8829 13.0822 19.8559 13.1615L20.0453 13.2258C20.0752 13.1376 20.099 13.0474 20.1165 12.9557L19.9201 12.9182ZM19.8598 13.1518C19.8314 13.2134 19.7993 13.273 19.7637 13.3304L19.9336 13.4358C19.9736 13.3715 20.0096 13.3046 20.0414 13.2355L19.8598 13.1518ZM19.7634 13.3309C19.7581 13.3395 19.7543 13.3447 19.7459 13.3577L19.9135 13.4668C19.9177 13.4603 19.927 13.4466 19.9339 13.4353L19.7634 13.3309ZM19.7534 13.3476C19.7255 13.3806 19.7009 13.4101 19.6742 13.4386L19.8201 13.5754C19.8512 13.5423 19.8798 13.5079 19.906 13.4768L19.7534 13.3476ZM19.6742 13.4386C19.6484 13.4661 19.6233 13.4876 19.5896 13.5191L19.7261 13.6653C19.7532 13.64 19.7882 13.6094 19.8201 13.5754L19.6742 13.4386Z" fill="#0C0C0C" mask="url(#path-1-outside-1_33_33884)"/>
</g>
<defs>
<clipPath id="clip0_33_33884">
<rect width="22" height="22" fill="white" transform="translate(0.300781 0.101562)"/>
</clipPath>
</defs>
</svg>
