<svg width="36" height="36" fill="none" xmlns="http://www.w3.org/2000/svg"><circle cx="18" cy="18" r="18" fill="#fff" fill-opacity=".1"/><g clip-path="url(#a)"><mask id="b" maskUnits="userSpaceOnUse" x="6.217" y="8.018" width="22" height="22" fill="#000"><path fill="#fff" d="M6.217 8.018h22v22h-22z"/><path d="M27.379 17.319c-.036-.838-.478-1.637-1.19-2.038a2.297 2.297 0 0 0-1.11-.3h-.767a6.615 6.615 0 0 0-.099-.438 8.34 8.34 0 0 0-.372-1.074 7.514 7.514 0 0 0-1.056-1.769 7.172 7.172 0 0 0-3.234-2.303 6.872 6.872 0 0 0-4.06-.137 7.124 7.124 0 0 0-3.376 2.085 7.64 7.64 0 0 0-1.828 3.635H9.99c-.416 0-.841-.02-1.237.143-.388.158-.743.392-1.004.74a2.608 2.608 0 0 0-.518 1.342c-.021.205-.01.416-.01.623v2.964c.002.802.37 1.51.976 1.985.451.353.991.445 1.538.445h.554c.028.146.06.292.098.437.1.367.224.725.372 1.073.266.644.632 1.23 1.056 1.77a7.172 7.172 0 0 0 3.235 2.302 6.807 6.807 0 0 0 2.25.38.704.704 0 0 0 .679-.711c-.017-.384-.298-.71-.678-.712a6.28 6.28 0 0 1-.776-.049 6.321 6.321 0 0 1-1.485-.426 6.421 6.421 0 0 1-1.271-.775l-.018-.014-.047-.04a6.732 6.732 0 0 1-.94-.976l-.042-.055a.757.757 0 0 1-.029-.037l-.001-.002-.003-.004c-.01-.013-.019-.024-.028-.038l.025.034a7 7 0 0 1-.751-1.355 7.22 7.22 0 0 1-.406-1.581v-6.468a.685.685 0 0 0-.015-.142c.007-.032.013-.065.018-.1l-.01.082a7.227 7.227 0 0 1 .415-1.642 7 7 0 0 1 .685-1.26c.023-.03.044-.062.066-.094a6.703 6.703 0 0 1 .994-1.057l.053-.045a.23.23 0 0 1-.037.029.332.332 0 0 1 .072-.058 6.442 6.442 0 0 1 1.277-.777 6.32 6.32 0 0 1 1.48-.422 6.319 6.319 0 0 1 1.553 0 6.33 6.33 0 0 1 1.483.425 6.444 6.444 0 0 1 1.174.7l.097.074.018.015.047.039.105.09a6.697 6.697 0 0 1 .835.886l.042.054a.753.753 0 0 1 .029.038l.002.003.002.003.028.038-.025-.034a6.992 6.992 0 0 1 .751 1.354c.189.492.322 1.005.4 1.529l.085 2.28.138 3.66.032.846c.014.371.302.73.678.712.022 0 .043-.003.064-.006a.64.64 0 0 0 .174.023h.808c.679-.001 1.369-.3 1.796-.866.356-.472.541-1.01.541-1.614v-2.912c-.002-.17.003-.338-.004-.507Zm-17.98 4.473a1.673 1.673 0 0 1-.25-.071 1.595 1.595 0 0 1-.18-.107l-.028-.02-.09-.087c-.03-.03-.056-.062-.083-.095l-.019-.029a1.708 1.708 0 0 1-.102-.19 1.882 1.882 0 0 1-.067-.255c-.01-.142-.007-.284-.007-.426v-2.747c0-.166-.005-.334.006-.5a1.9 1.9 0 0 1 .068-.257c.03-.065.064-.129.102-.19l.019-.028a1.621 1.621 0 0 1 .173-.181l.027-.02c.058-.04.118-.076.18-.107.082-.03.165-.054.25-.071.24-.02.484-.006.722-.006h.052v5.393h-.05c-.238-.001-.484.014-.722-.006Zm2.13.663v-.006.006Zm14.129-.862-.028.02a1.64 1.64 0 0 1-.18.107 1.68 1.68 0 0 1-.253.072 4.907 4.907 0 0 1-.548.012l-.06-1.607-.138-3.66-.005-.133h.031c.238 0 .483-.015.722.005.085.018.169.041.25.071.062.032.122.068.18.107l.028.02c.03.029.06.056.09.087.029.03.055.062.082.095l.02.028c.037.061.071.125.101.19.029.083.051.169.068.256.01.142.006.284.006.426v2.749c0 .166.006.334-.006.5a2.24 2.24 0 0 1-.067.256c-.03.066-.065.129-.102.19l-.02.029c-.027.032-.053.064-.082.094-.029.031-.059.057-.09.086Z"/></mask><path d="M27.379 17.319c-.036-.838-.478-1.637-1.19-2.038a2.297 2.297 0 0 0-1.11-.3h-.767a6.615 6.615 0 0 0-.099-.438 8.34 8.34 0 0 0-.372-1.074 7.514 7.514 0 0 0-1.056-1.769 7.172 7.172 0 0 0-3.234-2.303 6.872 6.872 0 0 0-4.06-.137 7.124 7.124 0 0 0-3.376 2.085 7.64 7.64 0 0 0-1.828 3.635H9.99c-.416 0-.841-.02-1.237.143-.388.158-.743.392-1.004.74a2.608 2.608 0 0 0-.518 1.342c-.021.205-.01.416-.01.623v2.964c.002.802.37 1.51.976 1.985.451.353.991.445 1.538.445h.554c.028.146.06.292.098.437.1.367.224.725.372 1.073.266.644.632 1.23 1.056 1.77a7.172 7.172 0 0 0 3.235 2.302 6.807 6.807 0 0 0 2.25.38.704.704 0 0 0 .679-.711c-.017-.384-.298-.71-.678-.712a6.28 6.28 0 0 1-.776-.049 6.321 6.321 0 0 1-1.485-.426 6.421 6.421 0 0 1-1.271-.775l-.018-.014-.047-.04a6.732 6.732 0 0 1-.94-.976l-.042-.055a.757.757 0 0 1-.029-.037l-.001-.002-.003-.004c-.01-.013-.019-.024-.028-.038l.025.034a7 7 0 0 1-.751-1.355 7.22 7.22 0 0 1-.406-1.581v-6.468a.685.685 0 0 0-.015-.142c.007-.032.013-.065.018-.1l-.01.082a7.227 7.227 0 0 1 .415-1.642 7 7 0 0 1 .685-1.26c.023-.03.044-.062.066-.094a6.703 6.703 0 0 1 .994-1.057l.053-.045a.23.23 0 0 1-.037.029.332.332 0 0 1 .072-.058 6.442 6.442 0 0 1 1.277-.777 6.32 6.32 0 0 1 1.48-.422 6.319 6.319 0 0 1 1.553 0 6.33 6.33 0 0 1 1.483.425 6.444 6.444 0 0 1 1.174.7l.097.074.018.015.047.039.105.09a6.697 6.697 0 0 1 .835.886l.042.054a.753.753 0 0 1 .029.038l.002.003.002.003.028.038-.025-.034a6.992 6.992 0 0 1 .751 1.354c.189.492.322 1.005.4 1.529l.085 2.28.138 3.66.032.846c.014.371.302.73.678.712.022 0 .043-.003.064-.006a.64.64 0 0 0 .174.023h.808c.679-.001 1.369-.3 1.796-.866.356-.472.541-1.01.541-1.614v-2.912c-.002-.17.003-.338-.004-.507Zm-17.98 4.473a1.673 1.673 0 0 1-.25-.071 1.595 1.595 0 0 1-.18-.107l-.028-.02-.09-.087c-.03-.03-.056-.062-.083-.095l-.019-.029a1.708 1.708 0 0 1-.102-.19 1.882 1.882 0 0 1-.067-.255c-.01-.142-.007-.284-.007-.426v-2.747c0-.166-.005-.334.006-.5a1.9 1.9 0 0 1 .068-.257c.03-.065.064-.129.102-.19l.019-.028a1.621 1.621 0 0 1 .173-.181l.027-.02c.058-.04.118-.076.18-.107.082-.03.165-.054.25-.071.24-.02.484-.006.722-.006h.052v5.393h-.05c-.238-.001-.484.014-.722-.006Zm2.13.663v-.006.006Zm14.129-.862-.028.02a1.64 1.64 0 0 1-.18.107 1.68 1.68 0 0 1-.253.072 4.907 4.907 0 0 1-.548.012l-.06-1.607-.138-3.66-.005-.133h.031c.238 0 .483-.015.722.005.085.018.169.041.25.071.062.032.122.068.18.107l.028.02c.03.029.06.056.09.087.029.03.055.062.082.095l.02.028c.037.061.071.125.101.19.029.083.051.169.068.256.01.142.006.284.006.426v2.749c0 .166.006.334-.006.5a2.24 2.24 0 0 1-.067.256c-.03.066-.065.129-.102.19l-.02.029c-.027.032-.053.064-.082.094-.029.031-.059.057-.09.086Z" fill="#fff"/><path d="m13.79 11.735.008-.006-.063-.077-.008.006.064.077Zm13.589 5.584-.1.004.1-.004Zm-1.19-2.038-.048.087.049-.087Zm-1.11-.3v-.1.1Zm-.767 0-.099.018.016.082h.083v-.1Zm-.099-.438.097-.025v-.001l-.097.026Zm-.372-1.074-.092.038v.001l.092-.039ZM22.785 11.7l.078-.062-.078.062ZM19.55 9.397l-.034.095.034-.095Zm-4.06-.137-.027-.097.026.097Zm-3.376 2.085-.074-.067.074.067Zm-1.828 3.635v.1h.083l.016-.08-.099-.02Zm-1.535.143.038.092-.038-.092Zm-1.004.74.08.06-.08-.06Zm-.518 1.342.1.01-.1-.01Zm-.01 3.587h-.1.1Zm.976 1.985-.062.079.062-.079Zm2.092.445.098-.02-.015-.08h-.083v.1Zm.098.437-.096.026.096-.026Zm.372 1.073.092-.038v-.001l-.092.039Zm1.056 1.77-.078.061.078-.062Zm3.235 2.302-.034.095.034-.095Zm2.25.38v-.1.1Zm0-1.423v-.1.1Zm-.775-.049-.016.099h.003l.013-.099Zm-1.485-.426-.041.09.002.002.04-.092Zm-.772-.422-.054.085.054-.085Zm-.402-.279.06-.08-.06.08Zm-.097-.074-.062.078.062-.078Zm-.018-.014-.063.077.001.002.062-.079Zm-.047-.04-.065.077.065-.076Zm-.105-.09.067-.075-.067.075Zm-.688-.705-.076.064.076-.064Zm-.146-.18-.08.06.08-.06Zm-.043-.056.08-.061-.16.121.08-.06Zm-.029-.037.082-.058-.001-.002-.08.06Zm-.001-.002-.081.058v.001l.08-.06Zm-.003-.004.08-.06-.08.06Zm-.028-.038.08-.06-.162.118.082-.058Zm.025.034-.079.06.16-.118-.08.058Zm-.269-.407-.085.052.085-.052Zm-.482-.948-.093.036.001.003.092-.039Zm-.406-1.581h-.1l.001.013.1-.013Zm0-6.468h.1-.1Zm-.015-.142-.098-.021-.004.021.004.021.098-.02Zm.018-.1.099.013-.198-.027.099.014Zm-.01.082-.1-.013.198.026-.099-.013Zm.415-1.642-.092-.039-.001.003.093.036Zm.416-.837-.086-.05.086.05Zm.27-.423-.082-.058-.001.002.082.056Zm.065-.094-.08-.06-.002.003.082.057Zm.145-.186-.078-.063.078.063Zm.677-.719-.068-.074.068.074Zm.172-.152.065.075-.065-.075Zm.053-.045.07.072-.134-.149.064.077Zm-.037.029-.071-.07.125.154-.054-.084Zm.062-.05.053.085.006-.004-.059-.08Zm.01-.008-.061-.079-.002.002.063.077Zm.397-.286-.055-.083.055.083Zm.88-.49-.039-.093-.003.002.042.09Zm1.48-.423-.013-.1h-.003l.015.1Zm1.553 0 .015-.1h-.003l-.012.1Zm1.483.425.042-.091-.002-.002-.04.093Zm.772.421.054-.084-.054.084Zm.402.279-.06.08.002.001.058-.081Zm.097.074.063-.078h-.001l-.062.078Zm.018.015.064-.077-.001-.001-.063.078Zm.047.039.065-.077-.065.077Zm.105.09-.067.075.067-.075Zm.688.705.077-.064-.077.064Zm.147.18-.079.063.079-.062Zm.042.055-.08.061.16-.12-.08.06Zm.029.038.082-.057v-.001l-.082.058Zm.002.003-.083.057.003.003.08-.06Zm.002.003-.08.06.001.001.08-.06Zm.028.038-.079.06.159-.12-.08.06Zm-.025-.034.08-.06-.161.119.08-.059Zm.269.407.085-.052-.085.052Zm.482.947.094-.035-.001-.003-.093.039Zm.4 1.529.1-.004-.002-.011-.099.014Zm.085 2.28.1-.003-.1.004Zm.138 3.66.1-.003-.1.003Zm.032.846-.1.004.1-.004ZM24 23.2v-.1h-.005l.005.1Zm.064-.006.027-.097-.02-.005-.021.003.014.099Zm.174.023v-.1.1Zm.808 0v.1-.1Zm1.796-.866.08.06-.08-.06Zm.541-4.526h.1v-.001l-.1.002ZM9.4 21.793l-.02.098.011.001.009-.1Zm-.25-.071-.046.09.01.003.035-.093Zm-.181-.107.056-.083-.056.083Zm-.028-.02-.068.074.01.007.058-.081Zm-.173-.182-.083.056.006.008.077-.064Zm-.019-.029.085-.052-.085.052Zm-.102-.19-.095.033.004.01.091-.042Zm-.067-.255-.1.007.001.012.099-.02Zm0-3.673-.1-.019v.012l.1.007Zm.067-.257-.091-.042-.004.01.095.032Zm.102-.19-.085-.053.085.054Zm.019-.028-.077-.065-.006.009.083.056Zm.173-.181-.06-.081-.008.007.068.074Zm.027-.02.056.082h.001l-.056-.083Zm.18-.107-.035-.095-.01.005.045.09Zm.25-.071-.008-.1-.012.002.02.098Zm.774-.006h.1v-.1h-.1v.1Zm0 5.393v.1h.1v-.1h-.1Zm-.05 0-.001.1v-.1Zm1.407.657-.1.006.2-.006h-.1Zm0-.006h.1l-.2-.006.1.006Zm14.129-.856.058.082.01-.01-.068-.072Zm-.028.02-.056-.083.056.083Zm-.18.107.035.094.01-.005-.046-.09Zm-.253.072.008.1.012-.002-.02-.098Zm-.548.012-.1.004.004.093.093.003.003-.1Zm-.06-1.607-.1.004.1-.004Zm-.138-3.66-.1.004.1-.003Zm-.005-.133v-.1h-.104l.004.104.1-.004Zm.753.005.02-.098-.011-.001-.009.1Zm.25.071.046-.09-.01-.003-.035.093Zm.18.107-.057.083.057-.083Zm.028.02.068-.074-.01-.007-.058.081Zm.172.181.085-.054-.008-.01-.077.064Zm.02.03.084-.053-.085.052Zm.101.189.096-.033-.005-.009-.09.042Zm.068.256.1-.007-.002-.012-.098.019Zm0 3.674.1.02v-.012l-.1-.008Zm-.067.257.09.042.004-.01-.095-.032Zm-.102.19-.085-.053.085.053Zm-.02.029.078.065.006-.01-.083-.055Zm1.65-4.098c-.038-.868-.495-1.7-1.24-2.121l-.098.174c.678.382 1.103 1.148 1.138 1.955l.2-.008Zm-1.24-2.121a2.396 2.396 0 0 0-1.16-.313l-.001.2c.37.003.736.102 1.063.287l.098-.174Zm-1.16-.313h-.767v.2h.767v-.2Zm-.67.08a6.635 6.635 0 0 0-.099-.443l-.193.05c.037.143.069.287.096.431l.197-.037Zm-.1-.444a8.44 8.44 0 0 0-.376-1.087l-.184.078c.146.344.27.699.368 1.061l.193-.052Zm-.375-1.086a7.617 7.617 0 0 0-1.07-1.793l-.158.124a7.46 7.46 0 0 1 1.043 1.745l.185-.076Zm-1.07-1.793a7.273 7.273 0 0 0-3.28-2.335l-.067.189a7.073 7.073 0 0 1 3.19 2.27l.156-.124Zm-3.28-2.335a6.973 6.973 0 0 0-4.12-.14l.053.193a6.772 6.772 0 0 1 4 .136l.067-.189Zm-4.12-.14a7.224 7.224 0 0 0-3.423 2.115l.147.135a7.024 7.024 0 0 1 3.329-2.057l-.053-.193Zm-3.424 2.115a7.738 7.738 0 0 0-1.85 3.683l.196.039a7.538 7.538 0 0 1 1.803-3.587l-.149-.135Zm-1.753 3.602H9.99v.2h.298v-.2Zm-.298 0c-.407 0-.857-.021-1.275.15l.076.185c.373-.153.775-.135 1.199-.135v-.2Zm-1.274.15c-.401.163-.772.407-1.047.773l.16.12c.248-.33.585-.554.962-.708l-.075-.185Zm-1.046.772c-.305.4-.492.885-.539 1.394l.2.018c.042-.472.216-.92.498-1.29l-.16-.122Zm-.539 1.393c-.021.212-.01.433-.01.633h.2c0-.213-.01-.414.01-.613l-.2-.02Zm-.01.633v2.964h.2v-2.965h-.2Zm0 2.964c.002.834.385 1.57 1.014 2.064l.124-.158a2.409 2.409 0 0 1-.939-1.907l-.2.001Zm1.015 2.064c.476.372 1.042.466 1.599.466v-.2c-.537 0-1.05-.09-1.476-.424l-.123.158Zm1.599.466h.554v-.2h-.554v.2Zm.456-.082c.028.149.06.297.1.445l.193-.051a6.59 6.59 0 0 1-.097-.431l-.196.037Zm.1.446c.1.37.226.733.376 1.085l.184-.078a8.276 8.276 0 0 1-.367-1.06l-.193.053Zm.376 1.084c.27.654.64 1.248 1.07 1.793l.157-.123a7.407 7.407 0 0 1-1.043-1.746l-.184.076Zm1.07 1.793a7.271 7.271 0 0 0 3.28 2.336l.066-.189a7.07 7.07 0 0 1-3.19-2.27l-.156.123Zm3.28 2.336a6.945 6.945 0 0 0 2.284.386v-.2a6.742 6.742 0 0 1-2.219-.375l-.065.189Zm2.284.386c.41 0 .796-.374.777-.816l-.2.008a.604.604 0 0 1-.577.608v.2Zm.777-.816c-.018-.427-.333-.806-.777-.808v.2c.316.001.563.274.578.616l.2-.008Zm-.777-.808c-.256 0-.51-.017-.764-.048l-.025.198c.262.033.525.05.788.05v-.2Zm-.76-.048a6.187 6.187 0 0 1-1.462-.42l-.078.185c.485.206.99.351 1.508.433l.031-.198Zm-1.459-.418a6.328 6.328 0 0 1-.76-.415l-.108.169c.252.16.514.303.785.428l.083-.182Zm-.76-.415a6.52 6.52 0 0 1-.396-.275l-.12.16c.133.1.269.194.408.284l.108-.169Zm-.396-.275a6.224 6.224 0 0 1-.096-.073l-.123.158.1.075.119-.16Zm-.095-.073-.018-.013-.124.157.018.013.124-.157Zm-.016-.012-.047-.04-.128.154.048.04.127-.154Zm-.047-.039a6.74 6.74 0 0 1-.102-.089l-.133.15.106.092.13-.153Zm-.102-.089a6.594 6.594 0 0 1-.678-.695l-.153.13c.215.256.449.495.698.715l.133-.15Zm-.678-.695a6.987 6.987 0 0 1-.145-.178l-.157.124c.048.062.098.123.149.183l.153-.128Zm-.145-.177-.042-.055-.158.122.043.056.157-.123Zm-.2.066.015.021-.001-.002-.005-.01a.098.098 0 0 1-.008-.065.175.175 0 0 1 .026-.047.174.174 0 0 1 .054-.03c.031-.005.054.006.06.008a.1.1 0 0 1 .026.018l.005.006.002.002v-.001l-.004-.004a1.823 1.823 0 0 1-.038-.052l-.163.117a2.04 2.04 0 0 0 .051.067l.002.003.003.003a.12.12 0 0 0 .016.014.1.1 0 0 0 .075.017.173.173 0 0 0 .055-.03.177.177 0 0 0 .025-.046.099.099 0 0 0-.007-.066l-.005-.01-.003-.003a.989.989 0 0 0-.022-.03l-.16.12Zm.13-.157-.001-.002-.16.12v.001l.162-.119Zm0-.001-.003-.004-.162.117.003.005.162-.118Zm-.004-.005-.026-.035-.164.115.03.04.16-.12Zm-.188.083.026.034.159-.122-.026-.033-.159.121Zm.187-.085a6.485 6.485 0 0 1-.265-.401l-.171.104c.086.141.177.28.273.413l.163-.116Zm-.265-.401a6.883 6.883 0 0 1-.475-.934l-.185.077c.139.333.302.654.489.96l.17-.103Zm-.474-.931a7.121 7.121 0 0 1-.4-1.56l-.199.027c.077.55.215 1.088.412 1.604l.187-.071Zm-.4-1.546v-6.468h-.2v6.468h.2Zm0-6.468a.789.789 0 0 0-.017-.163l-.196.042c.009.04.013.08.013.121h.2Zm-.017-.12a1.56 1.56 0 0 0 .019-.107l-.198-.029c-.005.033-.01.064-.017.093l.196.042Zm-.18-.135-.01.082.198.026.01-.082-.197-.026Zm.188.108c.074-.555.211-1.1.41-1.62l-.186-.071a7.333 7.333 0 0 0-.422 1.665l.198.026Zm.41-1.617c.118-.284.255-.56.41-.824l-.173-.101c-.159.272-.3.556-.422.848l.185.077Zm.41-.824c.083-.142.172-.281.265-.417l-.165-.113a7.07 7.07 0 0 0-.273.429l.173.101Zm.264-.415.067-.097-.165-.113-.065.093.163.117Zm.064-.093c.047-.062.094-.123.143-.183l-.156-.126c-.05.062-.099.125-.146.188l.159.121Zm.143-.183c.205-.253.428-.49.666-.708l-.135-.148a6.786 6.786 0 0 0-.687.73l.156.126Zm.666-.708c.056-.051.113-.101.17-.15l-.13-.152c-.059.05-.117.102-.175.154l.135.148Zm.17-.15.052-.044-.128-.154a5.99 5.99 0 0 0-.054.046l.13.151Zm-.082-.193a.124.124 0 0 1-.02.016l.107.17a.328.328 0 0 0 .052-.042l-.139-.144Zm.105.17a.231.231 0 0 1 .043-.034l-.106-.17a.432.432 0 0 0-.08.065l.143.14Zm.049-.038.015-.011-.127-.155-.001.001-.005.003.118.162Zm.013-.01c.127-.099.257-.193.39-.282l-.11-.166a6.761 6.761 0 0 0-.403.29l.123.158Zm.39-.282c.277-.184.567-.345.867-.482l-.084-.182a6.55 6.55 0 0 0-.893.498l.11.166Zm.864-.481a6.221 6.221 0 0 1 1.456-.417l-.031-.197a6.426 6.426 0 0 0-1.503.43l.078.184Zm1.453-.416a6.208 6.208 0 0 1 1.528 0l.025-.199a6.41 6.41 0 0 0-1.578 0l.024.199Zm1.525 0c.5.078.99.219 1.46.418l.079-.185a6.43 6.43 0 0 0-1.508-.431l-.03.197Zm1.458.416c.261.12.515.26.76.415l.107-.168a6.566 6.566 0 0 0-.784-.428l-.083.181Zm.76.415a6.5 6.5 0 0 1 .395.275l.12-.16a6.535 6.535 0 0 0-.408-.283l-.108.168Zm.396.276c.031.022.062.046.095.072l.123-.158-.1-.076-.118.162Zm.094.071.018.015.125-.156-.018-.015-.125.156Zm.017.014.047.039.127-.154-.047-.04-.127.155Zm.046.038.102.089.133-.15a6.735 6.735 0 0 0-.106-.092l-.13.153Zm.103.089c.241.214.468.446.677.695l.153-.129a6.8 6.8 0 0 0-.698-.716l-.132.15Zm.677.695c.05.058.098.117.145.178l.157-.124a7.147 7.147 0 0 0-.148-.183l-.154.129Zm.145.178.041.053.159-.122-.043-.055-.157.124Zm.2-.068-.015-.02.002.003.006.012a.098.098 0 0 1 .008.042.1.1 0 0 1-.17.069l-.005-.007.004.006.038.051.163-.116a2.352 2.352 0 0 0-.043-.058l-.008-.01-.002-.002-.006-.007a.113.113 0 0 0-.007-.006l-.008-.006a.1.1 0 0 0-.151.112l.004.011a.09.09 0 0 0 .006.013l.003.003a.89.89 0 0 0 .022.03l.16-.12Zm-.132.155.001.003.165-.114-.002-.003-.164.114Zm.004.006.003.004.159-.121-.003-.004-.159.121Zm.003.004a.708.708 0 0 1 .028.038l.159-.122a.956.956 0 0 1-.013-.017l-.015-.02-.159.121Zm.187-.084-.026-.033-.159.121.026.033.159-.12Zm-.186.086c.093.13.181.263.265.4l.17-.104a6.67 6.67 0 0 0-.273-.413l-.162.117Zm.265.4c.181.298.34.61.475.934l.185-.077a7.093 7.093 0 0 0-.49-.96l-.17.103Zm.474.931c.185.485.317.99.393 1.507l.198-.03a7.312 7.312 0 0 0-.404-1.548l-.187.071Zm.392 1.496.086 2.282.2-.008-.086-2.281-.2.007Zm.086 2.282.138 3.66.2-.008-.138-3.66-.2.008Zm.138 3.66.032.845.2-.008-.032-.845-.2.007Zm.032.845c.015.408.334.829.782.808l-.009-.2c-.304.014-.56-.281-.573-.616l-.2.008ZM24 23.3c.03 0 .058-.005.078-.007l-.028-.198a.34.34 0 0 1-.05.005v.2Zm.037-.01a.742.742 0 0 0 .2.027v-.2a.54.54 0 0 1-.146-.02l-.054.193Zm.2.027h.81v-.2h-.81v.2Zm.81 0c.705-.001 1.427-.312 1.875-.906l-.16-.12c-.406.538-1.065.825-1.716.826v.2Zm1.875-.906a2.715 2.715 0 0 0 .561-1.674h-.2c0 .582-.178 1.1-.52 1.553l.159.121Zm.561-1.674v-2.912h-.2v2.912h.2Zm0-2.913c-.002-.162.003-.341-.004-.51l-.2.008c.007.169.002.327.004.505l.2-.003ZM9.42 21.694a1.577 1.577 0 0 1-.235-.067l-.07.187c.087.032.176.058.266.076l.04-.196Zm-.225-.063a1.482 1.482 0 0 1-.169-.1l-.113.165c.062.042.126.08.192.114l.09-.179Zm-.17-.1L9 21.512l-.116.163.03.022.112-.166Zm-.015-.01c-.03-.03-.06-.056-.086-.084l-.144.14c.031.032.064.062.094.09l.136-.147Zm-.086-.084a1.506 1.506 0 0 1-.078-.088l-.154.127c.027.032.055.067.088.1l.144-.139Zm-.072-.08-.017-.026-.17.104c.007.013.016.025.021.033l.166-.112Zm-.017-.027a1.605 1.605 0 0 1-.096-.178l-.182.083c.032.07.068.137.108.2l.17-.105Zm-.092-.169a1.782 1.782 0 0 1-.064-.242l-.197.038c.018.091.042.181.072.269l.189-.065Zm-.063-.23c-.009-.137-.006-.274-.006-.42h-.2c0 .14-.003.287.007.434l.2-.014Zm-.006-.42v-2.746h-.2v2.747h.2Zm0-2.746c0-.17-.005-.332.006-.493l-.2-.014c-.011.17-.006.345-.006.507h.2Zm.005-.481c.015-.083.037-.164.064-.244l-.19-.064c-.03.088-.053.178-.07.27l.196.038Zm.06-.234a1.54 1.54 0 0 1 .096-.179l-.17-.105a1.83 1.83 0 0 0-.108.2l.182.084Zm.096-.178c.004-.008.01-.015.017-.026l-.166-.112-.02.031.169.107Zm.01-.018c.028-.033.053-.062.08-.09l-.146-.138c-.031.033-.06.068-.087.1l.154.128Zm.08-.09c.025-.028.053-.053.084-.082l-.135-.147c-.03.027-.063.058-.095.091l.145.138ZM9 16.689l.024-.018-.111-.165-.032.022.12.16Zm.025-.018c.054-.037.11-.07.168-.1l-.09-.179a1.75 1.75 0 0 0-.191.114l.113.165Zm.157-.096a1.59 1.59 0 0 1 .236-.066l-.04-.197c-.09.019-.178.044-.265.076l.07.187Zm.225-.065c.233-.02.467-.005.713-.005v-.2c-.23 0-.486-.015-.73.006l.017.2Zm.713-.005h.052v-.2h-.052v.2Zm-.048-.1v5.393h.2v-5.393h-.2Zm.1 5.293h-.05v.2h.05v-.2Zm-.05 0c-.247-.001-.48.014-.714-.006l-.017.2c.244.02.502.005.73.006v-.2Zm1.507.751v.006l-.2-.012v.017l.2-.011Zm-.2 0v.006h.2v-.006h-.2Zm14.17-.938-.025.019.112.166.03-.022-.117-.163Zm-.026.02a1.46 1.46 0 0 1-.169.1l.09.178a1.65 1.65 0 0 0 .192-.114l-.113-.165Zm-.159.095a1.581 1.581 0 0 1-.237.068l.04.196c.09-.018.18-.044.268-.077l-.07-.187Zm-.225.066a4.778 4.778 0 0 1-.536.012l-.007.2c.186.006.373.002.559-.012l-.016-.2Zm-.44.108-.06-1.606-.2.007.06 1.607.2-.008Zm-.06-1.606-.138-3.66-.2.008.138 3.66.2-.008Zm-.138-3.66a20.78 20.78 0 0 0-.005-.134l-.2.008.005.133.2-.007Zm-.105-.03h.031v-.2h-.031v.2Zm.031 0c.247 0 .48-.015.714.005l.017-.2c-.244-.02-.501-.005-.73-.005v.2Zm.702.003c.08.016.159.039.236.067l.07-.187a1.779 1.779 0 0 0-.266-.076l-.04.196Zm.225.063c.058.029.114.062.168.1l.114-.165a1.657 1.657 0 0 0-.191-.114l-.09.179Zm.169.1.025.018.117-.162-.03-.022-.112.166Zm.015.01c.032.03.06.055.087.083l.144-.138a2.562 2.562 0 0 0-.094-.091l-.137.146Zm.087.083c.026.027.05.056.078.09l.153-.129c-.026-.03-.055-.066-.087-.1l-.144.14Zm.07.08.019.028.169-.107-.02-.03-.168.11Zm.018.027c.036.057.068.117.096.179l.182-.084a1.852 1.852 0 0 0-.108-.2l-.17.105Zm.093.17c.026.078.048.16.064.242l.196-.038a2.038 2.038 0 0 0-.071-.27l-.19.065Zm.062.23c.01.137.006.274.006.42h.2c0-.14.004-.287-.006-.434l-.2.014Zm.006.42v2.748h.2v-2.749h-.2Zm0 2.748c0 .17.006.331-.006.492l.2.015c.012-.171.006-.346.006-.507h-.2Zm-.004.48a1.814 1.814 0 0 1-.064.244l.19.064c.03-.088.053-.178.07-.27l-.196-.037Zm-.06.234a1.64 1.64 0 0 1-.096.179l.17.105c.04-.064.075-.13.107-.2l-.181-.084Zm-.097.18-.017.026.167.11a.261.261 0 0 0 .02-.032l-.17-.105Zm-.01.016c-.028.033-.052.063-.079.091l.146.137c.031-.033.06-.068.086-.099l-.153-.129Zm-.079.091a1.1 1.1 0 0 1-.084.08l.136.147c.027-.026.062-.056.094-.09l-.146-.137Z" fill="#fff" mask="url(#b)"/></g><defs><clipPath id="a"><path fill="#fff" transform="translate(6.3 8.102)" d="M0 0h22v22H0z"/></clipPath></defs></svg>