<svg width="36" height="36" viewBox="0 0 36 36" fill="none" xmlns="http://www.w3.org/2000/svg">
<circle cx="18" cy="18" r="18" fill="white" fill-opacity="0.1"/>
<g clip-path="url(#clip0_472_893)">
<mask id="path-2-outside-1_472_893" maskUnits="userSpaceOnUse" x="6.21667" y="8.01807" width="22" height="22" fill="black">
<rect fill="white" x="6.21667" y="8.01807" width="22" height="22"/>
<path d="M27.3788 17.319C27.3427 16.4814 26.9015 15.6821 26.1898 15.2807C25.8483 15.0873 25.4669 14.9843 25.0789 14.9806H24.3117C24.2837 14.8341 24.2515 14.6882 24.2134 14.543C24.1136 14.1762 23.9893 13.8173 23.8412 13.469C23.575 12.8256 23.2096 12.2399 22.7848 11.7C21.943 10.6317 20.7998 9.83854 19.5506 9.39734C18.2522 8.93862 16.8144 8.90002 15.4903 9.25975C14.2028 9.61346 13.0342 10.3355 12.1146 11.3454C11.2051 12.3489 10.5525 13.6215 10.2874 14.9804H9.98876C9.57348 14.9804 9.1476 14.9605 8.7524 15.1225C8.36351 15.2809 8.00914 15.5154 7.74838 15.8628C7.45486 16.2478 7.27457 16.7143 7.22956 17.2051C7.20903 17.4104 7.21918 17.6214 7.21918 17.8275V20.7918C7.22234 21.5941 7.59003 22.302 8.19614 22.7771C8.64728 23.1299 9.1873 23.2216 9.73364 23.2216H10.2881C10.3161 23.3682 10.3483 23.514 10.3862 23.6592C10.486 24.0255 10.6102 24.384 10.758 24.732C11.0241 25.3757 11.3896 25.9616 11.8143 26.5013C12.6562 27.5698 13.7994 28.3632 15.0486 28.8044C15.7747 29.0567 16.5347 29.1851 17.2996 29.1847C17.6544 29.1847 17.9941 28.8567 17.9776 28.4728C17.9612 28.089 17.6799 27.7624 17.2996 27.761C17.0402 27.7603 16.7812 27.7441 16.5236 27.7122C16.0146 27.6317 15.5165 27.4886 15.0393 27.2859C14.7733 27.1636 14.5154 27.0228 14.2672 26.8644C14.1299 26.7764 13.9958 26.6833 13.865 26.5851C13.8325 26.5608 13.8001 26.536 13.7678 26.5108L13.7504 26.497L13.7028 26.4575C13.6679 26.4279 13.6329 26.3978 13.5984 26.3673C13.3528 26.1502 13.1228 25.9144 12.9102 25.6618C12.8602 25.6023 12.8114 25.542 12.7635 25.4811C12.7493 25.4628 12.7353 25.4444 12.7211 25.4259C12.7696 25.4903 12.7155 25.4212 12.6923 25.3887L12.6907 25.3866L12.6877 25.3826C12.6785 25.3702 12.6692 25.3589 12.6598 25.3454L12.6855 25.379C12.5909 25.2469 12.5011 25.1111 12.4162 24.9717C12.2323 24.6696 12.0712 24.3529 11.9343 24.0244C11.74 23.5158 11.6037 22.9849 11.5283 22.4427V15.9753C11.5282 15.9275 11.5232 15.8798 11.5132 15.8332C11.5202 15.801 11.5258 15.7678 11.5308 15.7333L11.5202 15.815C11.5944 15.2517 11.7342 14.7001 11.9364 14.1726C12.0567 13.8842 12.1957 13.6048 12.3525 13.3364C12.4372 13.1919 12.5268 13.0509 12.6214 12.9134C12.644 12.8822 12.6652 12.8509 12.6873 12.8187C12.7349 12.7562 12.7827 12.6939 12.8321 12.6328C13.0405 12.376 13.2667 12.1358 13.5088 11.914C13.5655 11.8623 13.623 11.8114 13.6812 11.7615C13.6985 11.7466 13.7164 11.7317 13.7339 11.717C13.7227 11.7278 13.7105 11.7374 13.6974 11.7457C13.716 11.7267 13.7367 11.7101 13.759 11.6962C13.7626 11.6936 13.7662 11.691 13.7694 11.6884C13.8982 11.5879 14.0306 11.4924 14.1664 11.4018C14.4473 11.2152 14.7414 11.0513 15.0461 10.9116C15.5217 10.7104 16.0181 10.5685 16.5252 10.4886C17.0412 10.4247 17.5626 10.4247 18.0787 10.4886C18.5874 10.5688 19.0855 10.7114 19.5625 10.9135C19.8284 11.0359 20.0861 11.1767 20.3342 11.335C20.4713 11.4226 20.6053 11.5156 20.7362 11.614C20.7689 11.6377 20.8011 11.6633 20.8334 11.6884L20.8514 11.7028L20.8984 11.7416C20.9333 11.7712 20.9683 11.8013 21.0028 11.8319C21.2484 12.049 21.4784 12.2848 21.691 12.5374C21.7408 12.5966 21.7897 12.6567 21.8376 12.7178C21.8518 12.7358 21.8656 12.7541 21.8796 12.7723C21.832 12.7091 21.8859 12.778 21.9089 12.8102L21.9107 12.8128L21.9134 12.8163C21.9229 12.8287 21.9319 12.8414 21.9414 12.8538L21.9159 12.8204C22.0105 12.9525 22.1002 13.0881 22.185 13.2272C22.3691 13.5293 22.5303 13.846 22.6673 14.1745C22.8555 14.6662 22.9894 15.1788 23.0663 15.7025L23.1523 17.9838C23.1974 19.2036 23.2433 20.4234 23.2899 21.6434L23.3217 22.4888C23.3357 22.8604 23.6237 23.2185 23.9998 23.2007C24.0223 23.2007 24.0428 23.1976 24.064 23.1946C24.1206 23.2104 24.1789 23.2183 24.2375 23.2182H25.0464C25.7247 23.2168 26.4147 22.9177 26.842 22.3517C27.1977 21.8804 27.3833 21.3421 27.3833 20.7385V17.8265C27.3806 17.6567 27.3863 17.4879 27.3788 17.319ZM9.39957 21.7916C9.31454 21.7745 9.23085 21.7508 9.14918 21.7206C9.0869 21.6891 9.02662 21.6534 8.96872 21.6138C8.95925 21.6074 8.95023 21.6003 8.94098 21.5937C8.91053 21.5655 8.88007 21.5373 8.85075 21.507C8.82143 21.4767 8.79503 21.4447 8.76819 21.4122C8.76165 21.4025 8.75511 21.3931 8.74902 21.3831C8.71125 21.3223 8.67727 21.2591 8.64728 21.1937C8.61879 21.1103 8.59618 21.0248 8.57961 20.9379C8.56991 20.7958 8.5733 20.6537 8.5733 20.5116V17.7645C8.5733 17.5987 8.56766 17.4308 8.57939 17.265C8.59595 17.1778 8.61857 17.0919 8.64706 17.0081C8.67704 16.9427 8.71102 16.8794 8.74879 16.8186C8.75488 16.8089 8.76142 16.7994 8.76797 16.7897C8.79481 16.7575 8.82165 16.7255 8.85053 16.695C8.8794 16.6644 8.90985 16.6367 8.94075 16.6086C8.95 16.6017 8.95903 16.5948 8.9685 16.5884C9.026 16.5488 9.0859 16.5131 9.14783 16.4816C9.2295 16.4515 9.31319 16.4277 9.39822 16.4106C9.6371 16.3902 9.88229 16.4054 10.12 16.4054H10.1715V21.7978H10.1212C9.88365 21.7966 9.63822 21.8118 9.39957 21.7916ZM11.5287 22.4547C11.5286 22.4528 11.5286 22.4509 11.5287 22.4491V22.4547ZM25.6577 21.5927C25.6485 21.5993 25.6394 21.6064 25.63 21.6128C25.5721 21.6525 25.5118 21.6882 25.4495 21.7196C25.3671 21.7504 25.2827 21.7746 25.1969 21.7921C25.0146 21.8063 24.8318 21.8104 24.6492 21.8042C24.6292 21.2685 24.609 20.7329 24.5887 20.1974C24.5427 18.9776 24.4968 17.7577 24.4509 16.5377C24.4493 16.4932 24.4477 16.4487 24.4459 16.4042H24.4773C24.7153 16.4042 24.9605 16.389 25.1991 16.4094C25.2841 16.4265 25.3678 16.4503 25.4495 16.4804C25.5114 16.5119 25.5713 16.5476 25.6288 16.5872C25.6383 16.5936 25.6473 16.6005 25.6566 16.6071C25.687 16.6356 25.7177 16.6635 25.7468 16.6938C25.7759 16.7241 25.8023 16.7563 25.8294 16.7885C25.8357 16.7983 25.8422 16.8077 25.8483 16.8174C25.8861 16.8783 25.9201 16.9415 25.9503 17.0069C25.9787 17.0904 26.0013 17.176 26.018 17.2629C26.0279 17.405 26.0243 17.5471 26.0243 17.6892V20.438C26.0243 20.6037 26.0299 20.7716 26.0182 20.9374C26.0015 21.0246 25.9789 21.1104 25.9505 21.1941C25.9204 21.2595 25.8863 21.3228 25.8485 21.3836C25.8425 21.3935 25.8359 21.403 25.8296 21.4127C25.8025 21.4447 25.7759 21.4767 25.747 21.5074C25.7182 21.5382 25.6882 21.5643 25.6577 21.5927Z"/>
</mask>
<path d="M27.3788 17.319C27.3427 16.4814 26.9015 15.6821 26.1898 15.2807C25.8483 15.0873 25.4669 14.9843 25.0789 14.9806H24.3117C24.2837 14.8341 24.2515 14.6882 24.2134 14.543C24.1136 14.1762 23.9893 13.8173 23.8412 13.469C23.575 12.8256 23.2096 12.2399 22.7848 11.7C21.943 10.6317 20.7998 9.83854 19.5506 9.39734C18.2522 8.93862 16.8144 8.90002 15.4903 9.25975C14.2028 9.61346 13.0342 10.3355 12.1146 11.3454C11.2051 12.3489 10.5525 13.6215 10.2874 14.9804H9.98876C9.57348 14.9804 9.1476 14.9605 8.7524 15.1225C8.36351 15.2809 8.00914 15.5154 7.74838 15.8628C7.45486 16.2478 7.27457 16.7143 7.22956 17.2051C7.20903 17.4104 7.21918 17.6214 7.21918 17.8275V20.7918C7.22234 21.5941 7.59003 22.302 8.19614 22.7771C8.64728 23.1299 9.1873 23.2216 9.73364 23.2216H10.2881C10.3161 23.3682 10.3483 23.514 10.3862 23.6592C10.486 24.0255 10.6102 24.384 10.758 24.732C11.0241 25.3757 11.3896 25.9616 11.8143 26.5013C12.6562 27.5698 13.7994 28.3632 15.0486 28.8044C15.7747 29.0567 16.5347 29.1851 17.2996 29.1847C17.6544 29.1847 17.9941 28.8567 17.9776 28.4728C17.9612 28.089 17.6799 27.7624 17.2996 27.761C17.0402 27.7603 16.7812 27.7441 16.5236 27.7122C16.0146 27.6317 15.5165 27.4886 15.0393 27.2859C14.7733 27.1636 14.5154 27.0228 14.2672 26.8644C14.1299 26.7764 13.9958 26.6833 13.865 26.5851C13.8325 26.5608 13.8001 26.536 13.7678 26.5108L13.7504 26.497L13.7028 26.4575C13.6679 26.4279 13.6329 26.3978 13.5984 26.3673C13.3528 26.1502 13.1228 25.9144 12.9102 25.6618C12.8602 25.6023 12.8114 25.542 12.7635 25.4811C12.7493 25.4628 12.7353 25.4444 12.7211 25.4259C12.7696 25.4903 12.7155 25.4212 12.6923 25.3887L12.6907 25.3866L12.6877 25.3826C12.6785 25.3702 12.6692 25.3589 12.6598 25.3454L12.6855 25.379C12.5909 25.2469 12.5011 25.1111 12.4162 24.9717C12.2323 24.6696 12.0712 24.3529 11.9343 24.0244C11.74 23.5158 11.6037 22.9849 11.5283 22.4427V15.9753C11.5282 15.9275 11.5232 15.8798 11.5132 15.8332C11.5202 15.801 11.5258 15.7678 11.5308 15.7333L11.5202 15.815C11.5944 15.2517 11.7342 14.7001 11.9364 14.1726C12.0567 13.8842 12.1957 13.6048 12.3525 13.3364C12.4372 13.1919 12.5268 13.0509 12.6214 12.9134C12.644 12.8822 12.6652 12.8509 12.6873 12.8187C12.7349 12.7562 12.7827 12.6939 12.8321 12.6328C13.0405 12.376 13.2667 12.1358 13.5088 11.914C13.5655 11.8623 13.623 11.8114 13.6812 11.7615C13.6985 11.7466 13.7164 11.7317 13.7339 11.717C13.7227 11.7278 13.7105 11.7374 13.6974 11.7457C13.716 11.7267 13.7367 11.7101 13.759 11.6962C13.7626 11.6936 13.7662 11.691 13.7694 11.6884C13.8982 11.5879 14.0306 11.4924 14.1664 11.4018C14.4473 11.2152 14.7414 11.0513 15.0461 10.9116C15.5217 10.7104 16.0181 10.5685 16.5252 10.4886C17.0412 10.4247 17.5626 10.4247 18.0787 10.4886C18.5874 10.5688 19.0855 10.7114 19.5625 10.9135C19.8284 11.0359 20.0861 11.1767 20.3342 11.335C20.4713 11.4226 20.6053 11.5156 20.7362 11.614C20.7689 11.6377 20.8011 11.6633 20.8334 11.6884L20.8514 11.7028L20.8984 11.7416C20.9333 11.7712 20.9683 11.8013 21.0028 11.8319C21.2484 12.049 21.4784 12.2848 21.691 12.5374C21.7408 12.5966 21.7897 12.6567 21.8376 12.7178C21.8518 12.7358 21.8656 12.7541 21.8796 12.7723C21.832 12.7091 21.8859 12.778 21.9089 12.8102L21.9107 12.8128L21.9134 12.8163C21.9229 12.8287 21.9319 12.8414 21.9414 12.8538L21.9159 12.8204C22.0105 12.9525 22.1002 13.0881 22.185 13.2272C22.3691 13.5293 22.5303 13.846 22.6673 14.1745C22.8555 14.6662 22.9894 15.1788 23.0663 15.7025L23.1523 17.9838C23.1974 19.2036 23.2433 20.4234 23.2899 21.6434L23.3217 22.4888C23.3357 22.8604 23.6237 23.2185 23.9998 23.2007C24.0223 23.2007 24.0428 23.1976 24.064 23.1946C24.1206 23.2104 24.1789 23.2183 24.2375 23.2182H25.0464C25.7247 23.2168 26.4147 22.9177 26.842 22.3517C27.1977 21.8804 27.3833 21.3421 27.3833 20.7385V17.8265C27.3806 17.6567 27.3863 17.4879 27.3788 17.319ZM9.39957 21.7916C9.31454 21.7745 9.23085 21.7508 9.14918 21.7206C9.0869 21.6891 9.02662 21.6534 8.96872 21.6138C8.95925 21.6074 8.95023 21.6003 8.94098 21.5937C8.91053 21.5655 8.88007 21.5373 8.85075 21.507C8.82143 21.4767 8.79503 21.4447 8.76819 21.4122C8.76165 21.4025 8.75511 21.3931 8.74902 21.3831C8.71125 21.3223 8.67727 21.2591 8.64728 21.1937C8.61879 21.1103 8.59618 21.0248 8.57961 20.9379C8.56991 20.7958 8.5733 20.6537 8.5733 20.5116V17.7645C8.5733 17.5987 8.56766 17.4308 8.57939 17.265C8.59595 17.1778 8.61857 17.0919 8.64706 17.0081C8.67704 16.9427 8.71102 16.8794 8.74879 16.8186C8.75488 16.8089 8.76142 16.7994 8.76797 16.7897C8.79481 16.7575 8.82165 16.7255 8.85053 16.695C8.8794 16.6644 8.90985 16.6367 8.94075 16.6086C8.95 16.6017 8.95903 16.5948 8.9685 16.5884C9.026 16.5488 9.0859 16.5131 9.14783 16.4816C9.2295 16.4515 9.31319 16.4277 9.39822 16.4106C9.6371 16.3902 9.88229 16.4054 10.12 16.4054H10.1715V21.7978H10.1212C9.88365 21.7966 9.63822 21.8118 9.39957 21.7916ZM11.5287 22.4547C11.5286 22.4528 11.5286 22.4509 11.5287 22.4491V22.4547ZM25.6577 21.5927C25.6485 21.5993 25.6394 21.6064 25.63 21.6128C25.5721 21.6525 25.5118 21.6882 25.4495 21.7196C25.3671 21.7504 25.2827 21.7746 25.1969 21.7921C25.0146 21.8063 24.8318 21.8104 24.6492 21.8042C24.6292 21.2685 24.609 20.7329 24.5887 20.1974C24.5427 18.9776 24.4968 17.7577 24.4509 16.5377C24.4493 16.4932 24.4477 16.4487 24.4459 16.4042H24.4773C24.7153 16.4042 24.9605 16.389 25.1991 16.4094C25.2841 16.4265 25.3678 16.4503 25.4495 16.4804C25.5114 16.5119 25.5713 16.5476 25.6288 16.5872C25.6383 16.5936 25.6473 16.6005 25.6566 16.6071C25.687 16.6356 25.7177 16.6635 25.7468 16.6938C25.7759 16.7241 25.8023 16.7563 25.8294 16.7885C25.8357 16.7983 25.8422 16.8077 25.8483 16.8174C25.8861 16.8783 25.9201 16.9415 25.9503 17.0069C25.9787 17.0904 26.0013 17.176 26.018 17.2629C26.0279 17.405 26.0243 17.5471 26.0243 17.6892V20.438C26.0243 20.6037 26.0299 20.7716 26.0182 20.9374C26.0015 21.0246 25.9789 21.1104 25.9505 21.1941C25.9204 21.2595 25.8863 21.3228 25.8485 21.3836C25.8425 21.3935 25.8359 21.403 25.8296 21.4127C25.8025 21.4447 25.7759 21.4767 25.747 21.5074C25.7182 21.5382 25.6882 21.5643 25.6577 21.5927Z" fill="white"/>
<path d="M13.7909 11.7347L13.7983 11.7285L13.7346 11.6515L13.7271 11.6576L13.7909 11.7347ZM27.3788 17.319L27.2789 17.3233L27.2789 17.3234L27.3788 17.319ZM26.1898 15.2807L26.1406 15.3677L26.1407 15.3678L26.1898 15.2807ZM25.0789 14.9806L25.0798 14.8806H25.0789V14.9806ZM24.3117 14.9806L24.2135 14.9994L24.229 15.0806H24.3117V14.9806ZM24.2134 14.543L24.3101 14.5176L24.3099 14.5168L24.2134 14.543ZM23.8412 13.469L23.7488 13.5072L23.7491 13.5081L23.8412 13.469ZM22.7848 11.7L22.8634 11.6381L22.8634 11.6381L22.7848 11.7ZM19.5506 9.39734L19.5172 9.49163L19.5173 9.49164L19.5506 9.39734ZM15.4903 9.25975L15.464 9.16325L15.4638 9.16332L15.4903 9.25975ZM12.1146 11.3454L12.0406 11.2781L12.0405 11.2783L12.1146 11.3454ZM10.2874 14.9804V15.0804H10.3698L10.3856 14.9996L10.2874 14.9804ZM8.7524 15.1225L8.79013 15.2151L8.79033 15.215L8.7524 15.1225ZM7.74838 15.8628L7.8279 15.9234L7.82836 15.9228L7.74838 15.8628ZM7.22956 17.2051L7.32907 17.2151L7.32914 17.2142L7.22956 17.2051ZM7.21918 20.7918H7.11918L7.11919 20.7922L7.21918 20.7918ZM8.19614 22.7771L8.13445 22.8558L8.13453 22.8558L8.19614 22.7771ZM10.2881 23.2216L10.3863 23.2028L10.3708 23.1216H10.2881V23.2216ZM10.3862 23.6592L10.2895 23.6845L10.2897 23.6855L10.3862 23.6592ZM10.758 24.732L10.8504 24.6938L10.85 24.6929L10.758 24.732ZM11.8143 26.5013L11.7357 26.5631L11.7358 26.5632L11.8143 26.5013ZM15.0486 28.8044L15.0153 28.8987L15.0158 28.8989L15.0486 28.8044ZM17.2996 29.1847V29.0847H17.2995L17.2996 29.1847ZM17.2996 27.761L17.2999 27.661H17.2998L17.2996 27.761ZM16.5236 27.7122L16.508 27.811L16.5113 27.8114L16.5236 27.7122ZM15.0393 27.2859L14.9975 27.3768L15.0002 27.3779L15.0393 27.2859ZM14.2672 26.8644L14.2133 26.9486L14.2134 26.9486L14.2672 26.8644ZM13.865 26.5851L13.925 26.5052L13.9249 26.5051L13.865 26.5851ZM13.7678 26.5108L13.7058 26.5892L13.7062 26.5896L13.7678 26.5108ZM13.7504 26.497L13.6865 26.574L13.6884 26.5755L13.7504 26.497ZM13.7028 26.4575L13.6382 26.5338L13.6389 26.5344L13.7028 26.4575ZM13.5984 26.3673L13.6647 26.2924L13.6646 26.2923L13.5984 26.3673ZM12.9102 25.6618L12.8335 25.726L12.8336 25.7262L12.9102 25.6618ZM12.7635 25.4811L12.6847 25.5425L12.6849 25.5428L12.7635 25.4811ZM12.7211 25.4259L12.8004 25.3649L12.6412 25.486L12.7211 25.4259ZM12.6923 25.3887L12.7736 25.3305L12.7726 25.3292L12.6923 25.3887ZM12.6907 25.3866L12.6098 25.4455L12.6103 25.4461L12.6907 25.3866ZM12.6877 25.3826L12.7686 25.3237L12.7677 25.3225L12.6877 25.3826ZM12.6598 25.3454L12.7392 25.2846L12.5779 25.4028L12.6598 25.3454ZM12.6855 25.379L12.606 25.4398L12.7668 25.3208L12.6855 25.379ZM12.4162 24.9717L12.3307 25.0237L12.3308 25.0237L12.4162 24.9717ZM11.9343 24.0244L11.8409 24.0601L11.842 24.0628L11.9343 24.0244ZM11.5283 22.4427H11.4273L11.4293 22.4564L11.5283 22.4427ZM11.5283 15.9753H11.6283L11.6283 15.9752L11.5283 15.9753ZM11.5132 15.8332L11.4155 15.812L11.4109 15.8331L11.4154 15.8541L11.5132 15.8332ZM11.5308 15.7333L11.6299 15.7461L11.4318 15.7191L11.5308 15.7333ZM11.5202 15.815L11.421 15.8021L11.6193 15.828L11.5202 15.815ZM11.9364 14.1726L11.844 14.1341L11.843 14.1368L11.9364 14.1726ZM12.3525 13.3364L12.2663 13.2858L12.2662 13.286L12.3525 13.3364ZM12.6214 12.9134L12.5403 12.8549L12.539 12.8568L12.6214 12.9134ZM12.6873 12.8187L12.6076 12.7581L12.6048 12.7621L12.6873 12.8187ZM12.8321 12.6328L12.7545 12.5698L12.7543 12.5699L12.8321 12.6328ZM13.5088 11.914L13.4414 11.8402L13.4413 11.8403L13.5088 11.914ZM13.6812 11.7615L13.7462 11.8375L13.7463 11.8374L13.6812 11.7615ZM13.7339 11.717L13.8033 11.789L13.6699 11.6402L13.7339 11.717ZM13.6974 11.7457L13.6259 11.6757L13.7507 11.8303L13.6974 11.7457ZM13.759 11.6962L13.8119 11.7813L13.8175 11.7773L13.759 11.6962ZM13.7694 11.6884L13.7079 11.6094L13.7057 11.6112L13.7694 11.6884ZM14.1664 11.4018L14.111 11.3185L14.1109 11.3186L14.1664 11.4018ZM15.0461 10.9116L15.0071 10.8194L15.0044 10.8207L15.0461 10.9116ZM16.5252 10.4886L16.5129 10.3893L16.5096 10.3898L16.5252 10.4886ZM18.0787 10.4886L18.0943 10.3898L18.091 10.3894L18.0787 10.4886ZM19.5625 10.9135L19.6044 10.8226L19.6015 10.8214L19.5625 10.9135ZM20.3342 11.335L20.388 11.2507L20.388 11.2507L20.3342 11.335ZM20.7362 11.614L20.6761 11.6939L20.6775 11.695L20.7362 11.614ZM20.8334 11.6884L20.8959 11.6103L20.8948 11.6094L20.8334 11.6884ZM20.8514 11.7028L20.9152 11.6258L20.9139 11.6247L20.8514 11.7028ZM20.8984 11.7416L20.963 11.6653L20.9621 11.6646L20.8984 11.7416ZM21.0028 11.8319L20.9365 11.9067L20.9366 11.9068L21.0028 11.8319ZM21.691 12.5374L21.7676 12.473L21.7675 12.473L21.691 12.5374ZM21.8376 12.7178L21.759 12.7796L21.7592 12.7798L21.8376 12.7178ZM21.8796 12.7723L21.8002 12.8331L21.9595 12.7121L21.8796 12.7723ZM21.9089 12.8102L21.9911 12.7533L21.9903 12.752L21.9089 12.8102ZM21.9107 12.8128L21.8284 12.8698L21.8312 12.8734L21.9107 12.8128ZM21.9134 12.8163L21.8339 12.8769L21.8342 12.8773L21.9134 12.8163ZM21.9414 12.8538L21.8621 12.9147L22.0209 12.7931L21.9414 12.8538ZM21.9159 12.8204L21.9954 12.7597L21.8346 12.8786L21.9159 12.8204ZM22.185 13.2272L22.2704 13.1752L22.2704 13.1752L22.185 13.2272ZM22.6673 14.1745L22.7607 14.1387L22.7596 14.136L22.6673 14.1745ZM23.0663 15.7025L23.1669 15.6987L23.1653 15.6879L23.0663 15.7025ZM23.1523 17.9838L23.2522 17.9801L23.2522 17.98L23.1523 17.9838ZM23.2899 21.6434L23.3898 21.6396L23.3898 21.6396L23.2899 21.6434ZM23.3217 22.4888L23.2218 22.4926V22.4926L23.3217 22.4888ZM23.9998 23.2007V23.1006L23.995 23.1008L23.9998 23.2007ZM24.064 23.1946L24.0909 23.0982L24.0706 23.0926L24.0497 23.0956L24.064 23.1946ZM24.2375 23.2182V23.1182H24.2374L24.2375 23.2182ZM25.0464 23.2182V23.3182H25.0466L25.0464 23.2182ZM26.842 22.3517L26.9218 22.412V22.412L26.842 22.3517ZM27.3833 17.8265H27.4834L27.4833 17.8249L27.3833 17.8265ZM9.39957 21.7916L9.37971 21.8903L9.39116 21.8913L9.39957 21.7916ZM9.14918 21.7206L9.10379 21.8104L9.11451 21.8144L9.14918 21.7206ZM8.96872 21.6138L9.02524 21.5313L9.02467 21.5309L8.96872 21.6138ZM8.94098 21.5937L8.87253 21.6676L8.88271 21.6749L8.94098 21.5937ZM8.76819 21.4122L8.68485 21.4684L8.69114 21.476L8.76819 21.4122ZM8.74902 21.3831L8.8343 21.3309L8.83395 21.3303L8.74902 21.3831ZM8.64728 21.1937L8.55217 21.2262L8.55638 21.2353L8.64728 21.1937ZM8.57961 20.9379L8.47912 20.9448L8.48138 20.9566L8.57961 20.9379ZM8.57939 17.265L8.48047 17.2462L8.47964 17.258L8.57939 17.265ZM8.64706 17.0081L8.55568 16.9662L8.55238 16.9759L8.64706 17.0081ZM8.74879 16.8186L8.66408 16.7655L8.66385 16.7658L8.74879 16.8186ZM8.76797 16.7897L8.69075 16.7254L8.68503 16.7339L8.76797 16.7897ZM8.94075 16.6086L8.88083 16.5279L8.87337 16.5347L8.94075 16.6086ZM8.9685 16.5884L9.02444 16.6713L9.02529 16.6707L8.9685 16.5884ZM9.14783 16.4816L9.11296 16.3872L9.10254 16.3925L9.14783 16.4816ZM9.39822 16.4106L9.38966 16.3103L9.37845 16.3125L9.39822 16.4106ZM10.1715 16.4054H10.2715V16.3054H10.1715V16.4054ZM10.1715 21.7978V21.8978H10.2715V21.7978H10.1715ZM10.1212 21.7978L10.1207 21.8978H10.1212V21.7978ZM11.5287 22.4547L11.4289 22.4605L11.6287 22.4547H11.5287ZM11.5287 22.4491H11.6287L11.4289 22.4433L11.5287 22.4491ZM25.6577 21.5927L25.7165 21.6747L25.7259 21.6658L25.6577 21.5927ZM25.63 21.6128L25.574 21.5299L25.5734 21.5304L25.63 21.6128ZM25.4495 21.7196L25.4847 21.8139L25.4945 21.8089L25.4495 21.7196ZM25.1969 21.7921L25.2047 21.8926L25.2168 21.8901L25.1969 21.7921ZM24.6492 21.8042L24.5492 21.8079L24.5527 21.901L24.6458 21.9041L24.6492 21.8042ZM24.5887 20.1974L24.4888 20.2011V20.2011L24.5887 20.1974ZM24.4509 16.5377L24.351 16.5413L24.351 16.5415L24.4509 16.5377ZM24.4459 16.4042V16.3042H24.3418L24.346 16.4082L24.4459 16.4042ZM25.1991 16.4094L25.219 16.3107L25.2076 16.3098L25.1991 16.4094ZM25.4495 16.4804L25.4951 16.3907L25.4841 16.3866L25.4495 16.4804ZM25.6288 16.5872L25.572 16.6696L25.5729 16.6701L25.6288 16.5872ZM25.6566 16.6071L25.7254 16.5334L25.7148 16.5259L25.6566 16.6071ZM25.8294 16.7885L25.9138 16.7336L25.9059 16.7242L25.8294 16.7885ZM25.8483 16.8174L25.9333 16.7647L25.933 16.7643L25.8483 16.8174ZM25.9503 17.0069L26.0455 16.9745L26.0411 16.965L25.9503 17.0069ZM26.018 17.2629L26.1184 17.2559L26.1162 17.2441L26.018 17.2629ZM26.0182 20.9374L26.1171 20.9563L26.1179 20.9445L26.0182 20.9374ZM25.9505 21.1941L26.0418 21.2363L26.0452 21.2263L25.9505 21.1941ZM25.8485 21.3836L25.7636 21.3309L25.7633 21.3314L25.8485 21.3836ZM25.8296 21.4127L25.9065 21.4779L25.9134 21.4672L25.8296 21.4127ZM27.4787 17.3147C27.4413 16.447 26.9844 15.6141 26.239 15.1936L26.1407 15.3678C26.8186 15.7501 27.2441 16.5157 27.2789 17.3233L27.4787 17.3147ZM26.2391 15.1937C25.883 14.992 25.485 14.8845 25.0798 14.8807L25.0779 15.0806C25.4488 15.0841 25.8136 15.1826 26.1406 15.3677L26.2391 15.1937ZM25.0789 14.8806H24.3117V15.0806H25.0789V14.8806ZM24.4099 14.9619C24.3816 14.8134 24.3489 14.6653 24.3101 14.5176L24.1166 14.5684C24.1541 14.7111 24.1859 14.8547 24.2135 14.9994L24.4099 14.9619ZM24.3099 14.5168C24.2089 14.1456 24.0831 13.7824 23.9332 13.4299L23.7491 13.5081C23.8954 13.8522 24.0183 14.2068 24.1169 14.5692L24.3099 14.5168ZM23.9336 13.4308C23.6632 12.7773 23.2926 12.1837 22.8634 11.6381L22.7062 11.7618C23.1265 12.2961 23.4868 12.8739 23.7488 13.5072L23.9336 13.4308ZM22.8634 11.6381C22.0093 10.5543 20.8501 9.75027 19.5839 9.30305L19.5173 9.49164C20.7494 9.92681 21.8766 10.7091 22.7063 11.7619L22.8634 11.6381ZM19.5839 9.30305C18.2656 8.83733 16.8071 8.79838 15.464 9.16325L15.5165 9.35625C16.8217 9.00166 18.2387 9.03991 19.5172 9.49163L19.5839 9.30305ZM15.4638 9.16332C14.1576 9.52217 12.9727 10.2545 12.0406 11.2781L12.1885 11.4128C13.0957 10.4165 14.248 9.70475 15.5167 9.35618L15.4638 9.16332ZM12.0405 11.2783C11.119 12.2949 10.4579 13.584 10.1893 14.9613L10.3856 14.9996C10.647 13.659 11.2911 12.4028 12.1887 11.4126L12.0405 11.2783ZM10.2874 14.8804H9.98876V15.0804H10.2874V14.8804ZM9.98876 14.8804C9.58195 14.8804 9.13223 14.8587 8.71448 15.03L8.79033 15.215C9.16298 15.0623 9.56502 15.0804 9.98876 15.0804V14.8804ZM8.71467 15.0299C8.3137 15.1932 7.94272 15.4373 7.6684 15.8028L7.82836 15.9228C8.07556 15.5935 8.41333 15.3686 8.79013 15.2151L8.71467 15.0299ZM7.66885 15.8022C7.36373 16.2024 7.17667 16.6868 7.12998 17.196L7.32914 17.2142C7.37247 16.7417 7.54599 16.2932 7.8279 15.9234L7.66885 15.8022ZM7.13006 17.1952C7.10887 17.4071 7.11918 17.628 7.11918 17.8275H7.31918C7.31918 17.6149 7.3092 17.4138 7.32906 17.2151L7.13006 17.1952ZM7.11918 17.8275V20.7918H7.31918V17.8275H7.11918ZM7.11919 20.7922C7.12247 21.6263 7.50521 22.3626 8.13445 22.8558L8.25783 22.6983C7.67484 22.2414 7.32222 21.562 7.31918 20.7914L7.11919 20.7922ZM8.13453 22.8558C8.61105 23.2285 9.17743 23.3216 9.73364 23.3216V23.1216C9.19718 23.1216 8.68351 23.0313 8.25775 22.6983L8.13453 22.8558ZM9.73364 23.3216H10.2881V23.1216H9.73364V23.3216ZM10.1899 23.2403C10.2182 23.3888 10.2509 23.5369 10.2895 23.6845L10.483 23.634C10.4457 23.4912 10.4139 23.3475 10.3863 23.2028L10.1899 23.2403ZM10.2897 23.6855C10.3907 24.0562 10.5164 24.4189 10.6659 24.7711L10.85 24.6929C10.704 24.3491 10.5813 23.9949 10.4827 23.6329L10.2897 23.6855ZM10.6656 24.7702C10.9359 25.424 11.3065 26.0177 11.7357 26.5631L11.8929 26.4395C11.4726 25.9054 11.1124 25.3274 10.8504 24.6938L10.6656 24.7702ZM11.7358 26.5632C12.5898 27.6472 13.749 28.4515 15.0153 28.8987L15.0819 28.7101C13.8497 28.2749 12.7225 27.4925 11.8929 26.4394L11.7358 26.5632ZM15.0158 28.8989C15.7524 29.1548 16.5235 29.2851 17.2996 29.2847L17.2995 29.0847C16.5459 29.0851 15.797 28.9586 15.0814 28.7099L15.0158 28.8989ZM17.2996 29.2847C17.7092 29.2847 18.0965 28.9114 18.0775 28.4686L17.8777 28.4771C17.8917 28.8021 17.5996 29.0847 17.2996 29.0847V29.2847ZM18.0775 28.4686C18.0593 28.0425 17.7442 27.6626 17.2999 27.661L17.2992 27.861C17.6155 27.8621 17.8631 28.1354 17.8777 28.4771L18.0775 28.4686ZM17.2998 27.661C17.0445 27.6604 16.7894 27.6443 16.5359 27.6129L16.5113 27.8114C16.7729 27.8438 17.036 27.8603 17.2993 27.861L17.2998 27.661ZM16.5392 27.6134C16.0384 27.5342 15.5481 27.3934 15.0784 27.1939L15.0002 27.3779C15.4848 27.5838 15.9909 27.7292 16.508 27.8109L16.5392 27.6134ZM15.0811 27.195C14.8193 27.0746 14.5653 26.936 14.321 26.7801L14.2134 26.9486C14.4654 27.1095 14.7274 27.2525 14.9976 27.3768L15.0811 27.195ZM14.3211 26.7801C14.1859 26.6935 14.0539 26.6019 13.925 26.5052L13.805 26.6651C13.9378 26.7648 14.0739 26.8593 14.2133 26.9486L14.3211 26.7801ZM13.9249 26.5051C13.893 26.4812 13.8611 26.4568 13.8293 26.432L13.7062 26.5896C13.7391 26.6153 13.772 26.6405 13.8051 26.6652L13.9249 26.5051ZM13.8298 26.4323L13.8124 26.4186L13.6884 26.5755L13.7058 26.5892L13.8298 26.4323ZM13.8143 26.4201L13.7667 26.3806L13.6389 26.5344L13.6865 26.574L13.8143 26.4201ZM13.7674 26.3812C13.7329 26.3519 13.6985 26.3223 13.6647 26.2924L13.5321 26.4421C13.5673 26.4733 13.6028 26.5039 13.6382 26.5338L13.7674 26.3812ZM13.6646 26.2923C13.4227 26.0785 13.1961 25.8462 12.9867 25.5974L12.8336 25.7262C13.0494 25.9825 13.2829 26.2218 13.5321 26.4422L13.6646 26.2923ZM12.9868 25.5975C12.9375 25.5388 12.8894 25.4794 12.8422 25.4193L12.6849 25.5428C12.7334 25.6046 12.7829 25.6657 12.8335 25.726L12.9868 25.5975ZM12.8424 25.4196C12.8284 25.4016 12.8153 25.3843 12.8004 25.3649L12.6419 25.4869C12.6554 25.5044 12.6703 25.5241 12.6847 25.5425L12.8424 25.4196ZM12.6412 25.486C12.6544 25.5035 12.6578 25.5083 12.6572 25.5074C12.6569 25.507 12.6563 25.5061 12.6556 25.5049C12.6553 25.5044 12.653 25.5008 12.6506 25.4958C12.65 25.4947 12.6458 25.4861 12.6431 25.4743C12.6421 25.47 12.6381 25.4521 12.6433 25.4298C12.6466 25.4185 12.659 25.3947 12.6687 25.383C12.6812 25.372 12.7091 25.3575 12.7235 25.3539C12.7543 25.3485 12.7775 25.3593 12.7821 25.3614C12.7902 25.3651 12.796 25.369 12.7985 25.3708C12.8039 25.3747 12.8077 25.3782 12.8088 25.3793C12.8118 25.382 12.8138 25.3843 12.8143 25.3848C12.8151 25.3856 12.8157 25.3863 12.8159 25.3866C12.8162 25.387 12.8165 25.3872 12.8166 25.3873C12.8166 25.3874 12.8166 25.3875 12.8167 25.3875C12.8167 25.3875 12.8167 25.3875 12.8167 25.3875C12.8167 25.3875 12.8167 25.3875 12.8166 25.3874C12.8165 25.3873 12.8165 25.3872 12.8163 25.3871C12.8161 25.3868 12.8158 25.3864 12.8154 25.3859C12.8146 25.3849 12.8136 25.3836 12.8124 25.3821C12.8024 25.3693 12.784 25.3451 12.7736 25.3305L12.6109 25.4469C12.6237 25.4648 12.644 25.4914 12.6548 25.5052C12.6574 25.5085 12.6601 25.5119 12.6621 25.5144C12.6627 25.5151 12.6635 25.5161 12.6644 25.5172C12.6649 25.5177 12.6656 25.5186 12.6666 25.5196C12.6672 25.5203 12.6694 25.5226 12.6723 25.5254C12.6735 25.5266 12.6774 25.5301 12.6828 25.534C12.6853 25.5358 12.6911 25.5397 12.6993 25.5434C12.7038 25.5455 12.7271 25.5563 12.7578 25.5509C12.7723 25.5473 12.8002 25.5328 12.8127 25.5218C12.8223 25.5101 12.8348 25.4863 12.8381 25.475C12.8433 25.4527 12.8392 25.4348 12.8382 25.4305C12.8356 25.4187 12.8313 25.4101 12.8307 25.4089C12.8283 25.4038 12.8259 25.4001 12.8255 25.3994C12.8247 25.398 12.8239 25.3969 12.8235 25.3963C12.8201 25.3912 12.8121 25.3805 12.801 25.3657L12.6412 25.486ZM12.7726 25.3292L12.771 25.3271L12.6103 25.4461L12.6119 25.4482L12.7726 25.3292ZM12.7715 25.3277L12.7686 25.3237L12.6069 25.4414L12.6098 25.4455L12.7715 25.3277ZM12.7677 25.3225C12.7553 25.306 12.7501 25.3 12.7416 25.2879L12.5779 25.4028C12.5884 25.4177 12.6017 25.4345 12.6078 25.4426L12.7677 25.3225ZM12.5803 25.4061L12.606 25.4398L12.7649 25.3183L12.7392 25.2846L12.5803 25.4061ZM12.7668 25.3208C12.6736 25.1907 12.5852 25.0569 12.5015 24.9196L12.3308 25.0237C12.417 25.1652 12.5081 25.3031 12.6042 25.4372L12.7668 25.3208ZM12.5016 24.9197C12.3203 24.622 12.1615 24.3098 12.0266 23.9859L11.842 24.0628C11.9808 24.396 12.1442 24.7172 12.3307 25.0237L12.5016 24.9197ZM12.0277 23.9887C11.8361 23.4872 11.7017 22.9636 11.6273 22.4289L11.4293 22.4564C11.5057 23.0061 11.6439 23.5444 11.8409 24.0601L12.0277 23.9887ZM11.6283 22.4427V15.9753H11.4283V22.4427H11.6283ZM11.6283 15.9752C11.6282 15.9204 11.6224 15.8658 11.611 15.8123L11.4154 15.8541C11.4239 15.8939 11.4282 15.9346 11.4283 15.9754L11.6283 15.9752ZM11.6109 15.8544C11.6185 15.8192 11.6246 15.7836 11.6298 15.7475L11.4318 15.7191C11.4271 15.752 11.4218 15.7827 11.4155 15.812L11.6109 15.8544ZM11.4316 15.7204L11.421 15.8021L11.6193 15.8278L11.6299 15.7461L11.4316 15.7204ZM11.6193 15.828C11.6925 15.2725 11.8304 14.7286 12.0297 14.2084L11.843 14.1368C11.638 14.6717 11.4963 15.2309 11.421 15.8019L11.6193 15.828ZM12.0286 14.2111C12.1473 13.9268 12.2843 13.6514 12.4389 13.3868L12.2662 13.286C12.1071 13.5582 11.9661 13.8416 11.8441 14.1341L12.0286 14.2111ZM12.4388 13.387C12.5223 13.2446 12.6106 13.1056 12.7038 12.9701L12.539 12.8568C12.4431 12.9963 12.3521 13.1393 12.2663 13.2858L12.4388 13.387ZM12.7025 12.9719C12.726 12.9395 12.7481 12.9069 12.7697 12.8753L12.6048 12.7621C12.5823 12.795 12.562 12.8249 12.5403 12.8549L12.7025 12.9719ZM12.7669 12.8793C12.8144 12.8169 12.8614 12.7556 12.9099 12.6957L12.7543 12.5699C12.704 12.6322 12.6554 12.6955 12.6077 12.7581L12.7669 12.8793ZM12.9097 12.6958C13.1151 12.4429 13.3379 12.2062 13.5764 11.9878L13.4413 11.8403C13.1955 12.0654 12.9659 12.3092 12.7545 12.5698L12.9097 12.6958ZM13.5763 11.9879C13.6322 11.9368 13.6888 11.8867 13.7462 11.8375L13.6161 11.6856C13.5571 11.7362 13.4988 11.7877 13.4414 11.8402L13.5763 11.9879ZM13.7463 11.8374C13.7631 11.823 13.7804 11.8085 13.798 11.7938L13.6699 11.6402C13.6523 11.6549 13.634 11.6703 13.616 11.6857L13.7463 11.8374ZM13.6645 11.645C13.6582 11.6511 13.6513 11.6565 13.6441 11.661L13.7507 11.8303C13.7696 11.8184 13.7872 11.8045 13.8033 11.789L13.6645 11.645ZM13.7689 11.8156C13.7819 11.8023 13.7964 11.7907 13.8118 11.7811L13.7062 11.6113C13.677 11.6294 13.6501 11.6511 13.6259 11.6757L13.7689 11.8156ZM13.8175 11.7773C13.8205 11.7751 13.8269 11.7705 13.833 11.7655L13.7057 11.6112C13.7059 11.6111 13.7056 11.6113 13.7046 11.6121C13.7036 11.6128 13.7024 11.6137 13.7005 11.6151L13.8175 11.7773ZM13.8308 11.7672C13.9578 11.6683 14.0881 11.5742 14.2219 11.485L14.1109 11.3186C13.973 11.4106 13.8387 11.5076 13.7079 11.6095L13.8308 11.7672ZM14.2217 11.4851C14.4984 11.3014 14.7879 11.14 15.0878 11.0025L15.0044 10.8207C14.695 10.9626 14.3963 11.129 14.111 11.3185L14.2217 11.4851ZM15.0851 11.0037C15.5532 10.8057 16.0418 10.666 16.5407 10.5874L16.5096 10.3898C15.9945 10.471 15.4902 10.6152 15.0071 10.8195L15.0851 11.0037ZM16.5375 10.5879C17.0454 10.5249 17.5585 10.5249 18.0664 10.5879L18.091 10.3894C17.5668 10.3244 17.0371 10.3244 16.5129 10.3894L16.5375 10.5879ZM18.0631 10.5874C18.5638 10.6663 19.0539 10.8066 19.5235 11.0056L19.6015 10.8214C19.117 10.6161 18.6111 10.4713 18.0943 10.3898L18.0631 10.5874ZM19.5207 11.0043C19.7824 11.1248 20.0362 11.2634 20.2804 11.4193L20.388 11.2507C20.1361 11.09 19.8743 10.947 19.6043 10.8226L19.5207 11.0043ZM20.2804 11.4193C20.4154 11.5055 20.5473 11.5971 20.6761 11.6939L20.7963 11.5341C20.6634 11.4342 20.5273 11.3397 20.388 11.2507L20.2804 11.4193ZM20.6775 11.695C20.7084 11.7174 20.7387 11.7414 20.772 11.7673L20.8948 11.6094C20.8636 11.5851 20.8293 11.558 20.7948 11.533L20.6775 11.695ZM20.7709 11.7664L20.7889 11.7809L20.9139 11.6247L20.8959 11.6103L20.7709 11.7664ZM20.7877 11.7798L20.8346 11.8187L20.9621 11.6646L20.9152 11.6258L20.7877 11.7798ZM20.8337 11.818C20.8683 11.8472 20.9027 11.8768 20.9365 11.9067L21.0691 11.757C21.0339 11.7258 20.9983 11.6953 20.963 11.6653L20.8337 11.818ZM20.9366 11.9068C21.1784 12.1206 21.405 12.3529 21.6145 12.6018L21.7675 12.473C21.5518 12.2167 21.3183 11.9773 21.069 11.7569L20.9366 11.9068ZM21.6145 12.6017C21.6635 12.6601 21.7117 12.7193 21.759 12.7796L21.9163 12.6561C21.8676 12.5941 21.8181 12.5331 21.7676 12.473L21.6145 12.6017ZM21.7592 12.7798C21.7728 12.797 21.7856 12.8141 21.8002 12.8331L21.9589 12.7114C21.9456 12.694 21.9309 12.6746 21.9161 12.6558L21.7592 12.7798ZM21.9595 12.7121C21.9465 12.6948 21.9434 12.6905 21.9442 12.6917C21.9445 12.6921 21.9452 12.6932 21.9461 12.6947C21.9461 12.6948 21.9494 12.7 21.9524 12.707C21.9533 12.7091 21.955 12.7131 21.9565 12.7182C21.9576 12.7219 21.9609 12.7336 21.9605 12.7491C21.9602 12.7627 21.9553 12.8076 21.9101 12.8334C21.8711 12.8556 21.8348 12.8434 21.8278 12.841C21.8163 12.837 21.8083 12.8318 21.8053 12.8298C21.8015 12.8273 21.7987 12.8251 21.7971 12.8237C21.7938 12.8211 21.7915 12.8188 21.7905 12.8178C21.786 12.8134 21.7825 12.8089 21.7845 12.8113C21.7849 12.8118 21.7864 12.8136 21.7889 12.8169C21.7989 12.8298 21.8172 12.8538 21.8275 12.8683L21.9903 12.752C21.9776 12.7343 21.9574 12.7078 21.9467 12.694C21.944 12.6906 21.9414 12.6872 21.9393 12.6847C21.9388 12.6841 21.938 12.6831 21.9372 12.6821C21.9371 12.682 21.9344 12.6788 21.9308 12.6753C21.9298 12.6743 21.9274 12.672 21.9242 12.6693C21.9225 12.668 21.9197 12.6657 21.9158 12.6632C21.9129 12.6612 21.9049 12.656 21.8934 12.652C21.8863 12.6496 21.8501 12.6374 21.8111 12.6596C21.7658 12.6854 21.761 12.7303 21.7606 12.7439C21.7602 12.7594 21.7636 12.7712 21.7647 12.7748C21.7662 12.78 21.7678 12.7839 21.7687 12.7861C21.7718 12.7932 21.7751 12.7985 21.7753 12.7987C21.7763 12.8004 21.7771 12.8016 21.7775 12.8023C21.7809 12.8074 21.7889 12.8181 21.7997 12.8324L21.9595 12.7121ZM21.8267 12.8671L21.8285 12.8697L21.9929 12.7559L21.9911 12.7533L21.8267 12.8671ZM21.8312 12.8734L21.8339 12.8769L21.993 12.7557L21.9903 12.7522L21.8312 12.8734ZM21.8342 12.8773C21.8382 12.8825 21.8422 12.8879 21.8469 12.8944C21.8514 12.9005 21.8567 12.9076 21.8621 12.9147L22.0207 12.7928C22.0167 12.7876 22.0126 12.7821 22.0079 12.7757C22.0034 12.7696 21.9982 12.7625 21.9927 12.7554L21.8342 12.8773ZM22.0209 12.7931L21.9954 12.7597L21.8364 12.881L21.8619 12.9144L22.0209 12.7931ZM21.8346 12.8786C21.9278 13.0087 22.0161 13.1423 22.0996 13.2793L22.2704 13.1752C22.1843 13.034 22.0933 12.8963 21.9972 12.7622L21.8346 12.8786ZM22.0996 13.2793C22.281 13.577 22.44 13.8892 22.575 14.213L22.7596 14.136C22.6207 13.8029 22.4571 13.4816 22.2704 13.1752L22.0996 13.2793ZM22.5739 14.2103C22.7594 14.695 22.8915 15.2006 22.9674 15.717L23.1653 15.6879C23.0872 15.1571 22.9515 14.6373 22.7607 14.1388L22.5739 14.2103ZM22.9664 15.7062L23.0523 17.9875L23.2522 17.98L23.1663 15.6987L22.9664 15.7062ZM23.0523 17.9875C23.0975 19.2073 23.1433 20.4272 23.1899 21.6472L23.3898 21.6396C23.3432 20.4197 23.2973 19.1998 23.2522 17.9801L23.0523 17.9875ZM23.1899 21.6471L23.2218 22.4926L23.4216 22.4851L23.3898 21.6396L23.1899 21.6471ZM23.2218 22.4926C23.2371 22.9013 23.5561 23.3218 24.0045 23.3006L23.995 23.1008C23.6914 23.1152 23.4342 22.8196 23.4216 22.4851L23.2218 22.4926ZM23.9998 23.3007C24.0308 23.3007 24.0585 23.2964 24.0784 23.2935L24.0497 23.0956C24.0272 23.0989 24.0139 23.1007 23.9998 23.1007V23.3007ZM24.0372 23.2909C24.1025 23.3091 24.1699 23.3183 24.2376 23.3182L24.2374 23.1182C24.188 23.1183 24.1388 23.1116 24.0909 23.0982L24.0372 23.2909ZM24.2375 23.3182H25.0464V23.1182H24.2375V23.3182ZM25.0466 23.3182C25.7524 23.3168 26.4735 23.0058 26.9218 22.412L26.7622 22.2915C26.3559 22.8296 25.697 23.1169 25.0462 23.1182L25.0466 23.3182ZM26.9218 22.412C27.2904 21.9236 27.4833 21.3643 27.4833 20.7385H27.2833C27.2833 21.32 27.105 21.8373 26.7622 22.2915L26.9218 22.412ZM27.4833 20.7385V17.8265H27.2833V20.7385H27.4833ZM27.4833 17.8249C27.4807 17.6632 27.4862 17.4839 27.4787 17.3146L27.2789 17.3234C27.2864 17.4919 27.2805 17.6503 27.2834 17.8281L27.4833 17.8249ZM9.4193 21.6936C9.33937 21.6775 9.26067 21.6552 9.18385 21.6268L9.11451 21.8144C9.20102 21.8464 9.28971 21.8715 9.37984 21.8897L9.4193 21.6936ZM9.19429 21.6313C9.13597 21.6019 9.0795 21.5684 9.02523 21.5313L8.91222 21.6963C8.97374 21.7384 9.03783 21.7764 9.10408 21.8098L9.19429 21.6313ZM9.02467 21.5309C9.01582 21.5249 9.01431 21.5232 8.99925 21.5124L8.88271 21.6749C8.88614 21.6774 8.90268 21.6899 8.91278 21.6967L9.02467 21.5309ZM9.0089 21.5203C8.97813 21.4918 8.94971 21.4655 8.92262 21.4374L8.77888 21.5765C8.81044 21.6091 8.84292 21.6392 8.87306 21.667L9.0089 21.5203ZM8.92262 21.4374C8.89647 21.4104 8.87254 21.3815 8.84524 21.3485L8.69114 21.476C8.71752 21.5079 8.74639 21.5429 8.77888 21.5765L8.92262 21.4374ZM8.85113 21.3564C8.8437 21.3453 8.83892 21.3384 8.8343 21.3309L8.66374 21.4353C8.67129 21.4477 8.6796 21.4597 8.68526 21.4681L8.85113 21.3564ZM8.83395 21.3303C8.79842 21.2731 8.76642 21.2136 8.73819 21.152L8.55638 21.2353C8.58811 21.3045 8.62408 21.3715 8.66408 21.4359L8.83395 21.3303ZM8.74192 21.1613C8.71495 21.0824 8.69353 21.0014 8.67784 20.9192L8.48138 20.9566C8.49882 21.0481 8.52264 21.1381 8.55265 21.226L8.74192 21.1613ZM8.67938 20.9311C8.66999 20.7935 8.6733 20.6569 8.6733 20.5116H8.4733C8.4733 20.6505 8.46984 20.7981 8.47984 20.9447L8.67938 20.9311ZM8.6733 20.5116V17.7645H8.4733V20.5116H8.6733ZM8.6733 17.7645C8.6733 17.5942 8.66774 17.4332 8.67914 17.2721L8.47964 17.258C8.46757 17.4284 8.4733 17.6032 8.4733 17.7645H8.6733ZM8.67763 17.2837C8.69333 17.201 8.71476 17.1196 8.74174 17.0403L8.55238 16.9759C8.52238 17.0641 8.49858 17.1545 8.48114 17.2464L8.67763 17.2837ZM8.73796 17.0498C8.7662 16.9882 8.79819 16.9286 8.83373 16.8714L8.66385 16.7658C8.62385 16.8302 8.58788 16.8972 8.55616 16.9664L8.73796 17.0498ZM8.83351 16.8718C8.83845 16.8639 8.84348 16.8566 8.8509 16.8456L8.68503 16.7339C8.67937 16.7423 8.67131 16.7539 8.66408 16.7655L8.83351 16.8718ZM8.84478 16.8538C8.87173 16.8214 8.89674 16.7917 8.9232 16.7637L8.77785 16.6263C8.74657 16.6594 8.71789 16.6936 8.69115 16.7257L8.84478 16.8538ZM8.9232 16.7637C8.94908 16.7363 8.97672 16.7111 9.00814 16.6824L8.87337 16.5347C8.84298 16.5624 8.80971 16.5926 8.77785 16.6263L8.9232 16.7637ZM9.00037 16.6888C9.01094 16.681 9.01739 16.6761 9.02444 16.6713L8.91256 16.5055C8.90066 16.5136 8.88906 16.5224 8.88114 16.5283L9.00037 16.6888ZM9.02529 16.6707C9.07913 16.6336 9.1352 16.6002 9.19312 16.5708L9.10254 16.3925C9.0366 16.426 8.97286 16.4639 8.91171 16.5061L9.02529 16.6707ZM9.18247 16.5754C9.25932 16.5471 9.33804 16.5247 9.41798 16.5086L9.37845 16.3125C9.28835 16.3307 9.19969 16.3559 9.11319 16.3878L9.18247 16.5754ZM9.40671 16.5102C9.6401 16.4903 9.87371 16.5054 10.12 16.5054V16.3054C9.89088 16.3054 9.63409 16.2901 9.38972 16.3109L9.40671 16.5102ZM10.12 16.5054H10.1715V16.3054H10.12V16.5054ZM10.0715 16.4054V21.7978H10.2715V16.4054H10.0715ZM10.1715 21.6978H10.1212V21.8978H10.1715V21.6978ZM10.1217 21.6978C9.87471 21.6966 9.64171 21.7117 9.40797 21.692L9.39116 21.8913C9.63474 21.9118 9.89258 21.8967 10.1207 21.8978L10.1217 21.6978ZM11.6286 22.449C11.6287 22.4509 11.6287 22.4529 11.6286 22.4548L11.4289 22.4433C11.4286 22.449 11.4286 22.4548 11.4289 22.4605L11.6286 22.449ZM11.4287 22.4491V22.4547H11.6287V22.4491H11.4287ZM25.5994 21.5114C25.5844 21.5222 25.5829 21.524 25.574 21.5299L25.6859 21.6957C25.696 21.6889 25.7125 21.6765 25.716 21.674L25.5994 21.5114ZM25.5734 21.5304C25.5192 21.5676 25.4628 21.601 25.4045 21.6304L25.4945 21.8089C25.5609 21.7755 25.625 21.7375 25.6865 21.6953L25.5734 21.5304ZM25.4145 21.626C25.337 21.6549 25.2576 21.6777 25.1769 21.6941L25.2168 21.8901C25.3078 21.8716 25.3973 21.8459 25.4845 21.8133L25.4145 21.626ZM25.1891 21.6924C25.0106 21.7064 24.8315 21.7103 24.6526 21.7042L24.6458 21.9041C24.8322 21.9104 25.0187 21.9063 25.2047 21.8918L25.1891 21.6924ZM24.7491 21.8005C24.7291 21.2647 24.709 20.7291 24.6887 20.1936L24.4888 20.2011C24.5091 20.7367 24.5292 21.2722 24.5492 21.8079L24.7491 21.8005ZM24.6887 20.1936C24.6426 18.9738 24.5967 17.7539 24.5508 16.534L24.351 16.5415C24.3968 17.7615 24.4428 18.9813 24.4888 20.2011L24.6887 20.1936ZM24.5508 16.5342C24.5493 16.4897 24.5477 16.4449 24.5459 16.4001L24.346 16.4082C24.3478 16.4525 24.3494 16.4967 24.351 16.5413L24.5508 16.5342ZM24.4459 16.5042H24.4773V16.3042H24.4459V16.5042ZM24.4773 16.5042C24.7239 16.5042 24.9575 16.4891 25.1906 16.509L25.2076 16.3098C24.9635 16.2889 24.7067 16.3042 24.4773 16.3042V16.5042ZM25.1794 16.5074C25.2593 16.5235 25.338 16.5459 25.4149 16.5742L25.4841 16.3866C25.3976 16.3547 25.309 16.3295 25.2189 16.3114L25.1794 16.5074ZM25.4042 16.5696C25.4621 16.599 25.5182 16.6324 25.5721 16.6696L25.6856 16.5049C25.6245 16.4627 25.5607 16.4248 25.4948 16.3913L25.4042 16.5696ZM25.5729 16.6701C25.581 16.6756 25.5858 16.6794 25.5983 16.6884L25.7148 16.5259C25.7089 16.5216 25.6956 16.5117 25.6848 16.5044L25.5729 16.6701ZM25.5884 16.6802C25.6201 16.7098 25.648 16.7353 25.6747 16.7631L25.819 16.6246C25.7874 16.5917 25.754 16.5613 25.7248 16.534L25.5884 16.6802ZM25.6747 16.7631C25.7009 16.7904 25.7246 16.8193 25.7528 16.8529L25.9059 16.7242C25.88 16.6934 25.851 16.6579 25.819 16.6246L25.6747 16.7631ZM25.7455 16.8431C25.7543 16.8565 25.7577 16.8611 25.7636 16.8706L25.933 16.7643C25.9268 16.7543 25.9171 16.74 25.9132 16.734L25.7455 16.8431ZM25.7634 16.8702C25.7989 16.9275 25.831 16.9872 25.8595 17.0488L26.0411 16.965C26.0092 16.8959 25.9732 16.829 25.9333 16.7647L25.7634 16.8702ZM25.8556 17.0391C25.8825 17.1182 25.9039 17.1993 25.9197 17.2817L26.1162 17.2441C26.0986 17.1526 26.0748 17.0626 26.045 16.9747L25.8556 17.0391ZM25.9182 17.2699C25.9278 17.4074 25.9243 17.5437 25.9243 17.6892H26.1243C26.1243 17.5505 26.128 17.4026 26.1177 17.2559L25.9182 17.2699ZM25.9243 17.6892V20.438H26.1243V17.6892H25.9243ZM25.9243 20.438C25.9243 20.6083 25.9298 20.7693 25.9184 20.9304L26.1179 20.9445C26.13 20.774 26.1243 20.5992 26.1243 20.438H25.9243ZM25.9199 20.9187C25.9042 21.0013 25.8827 21.0826 25.8558 21.162L26.0452 21.2263C26.0751 21.1381 26.0989 21.0479 26.1164 20.9562L25.9199 20.9187ZM25.8597 21.1522C25.8313 21.2139 25.7992 21.2735 25.7636 21.3309L25.9335 21.4363C25.9734 21.372 26.0094 21.3051 26.0413 21.236L25.8597 21.1522ZM25.7633 21.3314C25.758 21.34 25.7542 21.3452 25.7458 21.3582L25.9134 21.4672C25.9176 21.4608 25.9269 21.4471 25.9338 21.4358L25.7633 21.3314ZM25.7533 21.3481C25.7254 21.381 25.7008 21.4106 25.6741 21.439L25.82 21.5759C25.851 21.5427 25.8797 21.5083 25.9059 21.4773L25.7533 21.3481ZM25.6741 21.439C25.6483 21.4666 25.6232 21.4881 25.5895 21.5196L25.7259 21.6658C25.7531 21.6405 25.7881 21.6099 25.82 21.5759L25.6741 21.439Z" fill="white" mask="url(#path-2-outside-1_472_893)"/>
</g>
<defs>
<clipPath id="clip0_472_893">
<rect width="22" height="22" fill="white" transform="translate(6.30005 8.10156)"/>
</clipPath>
</defs>
</svg>
