<svg width="21" height="21" viewBox="0 0 21 21" fill="none" xmlns="http://www.w3.org/2000/svg">
<mask id="path-1-outside-1_891_11817" maskUnits="userSpaceOnUse" x="-0.799927" y="0" width="21" height="21" fill="black">
<rect fill="white" x="-0.799927" width="21" height="21"/>
<path d="M19.9956 9.15003C19.9602 8.32762 19.527 7.54288 18.8283 7.14877C18.4929 6.95889 18.1185 6.85777 17.7375 6.85417H16.9843C16.9568 6.71024 16.9252 6.56701 16.8877 6.42448C16.7898 6.06437 16.6677 5.712 16.5223 5.37002C16.261 4.73828 15.9022 4.16327 15.4852 3.63313C14.6586 2.58425 13.5362 1.80556 12.3097 1.37238C11.0349 0.921998 9.62326 0.884098 8.32322 1.23729C7.05918 1.58457 5.91179 2.29348 5.00891 3.28506C4.11593 4.27022 3.47522 5.51976 3.21499 6.85394H2.92176C2.51403 6.85394 2.09589 6.83441 1.70788 6.99345C1.32606 7.149 0.97813 7.37919 0.722109 7.72029C0.433926 8.09828 0.256915 8.55625 0.212725 9.03819C0.192571 9.23978 0.202537 9.44695 0.202537 9.64924V12.5596C0.205638 13.3474 0.566636 14.0424 1.16173 14.5088C1.60467 14.8553 2.13487 14.9453 2.67128 14.9453H3.21565C3.24312 15.0892 3.27479 15.2324 3.31199 15.3749C3.40994 15.7346 3.5319 16.0866 3.67698 16.4282C3.93831 17.0602 4.2971 17.6355 4.71413 18.1654C5.54066 19.2145 6.66307 19.9934 7.88958 20.4266C8.60252 20.6743 9.34868 20.8004 10.0996 20.8C10.448 20.8 10.7816 20.478 10.7654 20.1011C10.7492 19.7241 10.473 19.4035 10.0996 19.4021C9.84503 19.4015 9.59065 19.3855 9.33778 19.3542C8.83807 19.2752 8.34895 19.1347 7.8805 18.9357C7.61931 18.8156 7.36605 18.6773 7.12241 18.5218C6.9876 18.4355 6.85598 18.3441 6.72752 18.2477C6.69563 18.2238 6.66381 18.1995 6.63207 18.1747L6.61502 18.1612L6.56828 18.1223C6.53396 18.0933 6.49963 18.0638 6.46574 18.0338C6.22462 17.8206 5.99878 17.5891 5.79004 17.3411C5.74102 17.2827 5.69303 17.2235 5.64608 17.1637C5.63213 17.1458 5.61839 17.1276 5.60444 17.1095C5.65206 17.1728 5.59891 17.1049 5.57609 17.073L5.57454 17.0709L5.57166 17.067C5.56258 17.0549 5.5535 17.0437 5.5442 17.0305L5.56945 17.0635C5.47658 16.9337 5.38843 16.8004 5.30501 16.6635C5.12446 16.367 4.96629 16.056 4.83195 15.7335C4.64116 15.2342 4.50735 14.7129 4.4333 14.1805V7.83074C4.43324 7.7838 4.42826 7.73702 4.41846 7.69123C4.42533 7.65961 4.43087 7.62705 4.43574 7.59311L4.42533 7.67332C4.4982 7.1203 4.63543 6.57876 4.83394 6.06083C4.95208 5.77765 5.0886 5.50334 5.24256 5.23981C5.32568 5.09798 5.41368 4.95956 5.50655 4.82454C5.5287 4.79385 5.54952 4.76316 5.57122 4.73154C5.61795 4.67015 5.6649 4.609 5.71341 4.54901C5.91802 4.29692 6.1401 4.06105 6.37782 3.84332C6.43348 3.79248 6.48988 3.74257 6.54702 3.69359C6.56408 3.67894 6.58157 3.66429 6.59885 3.64987C6.58782 3.6605 6.5758 3.66992 6.56297 3.67801C6.58122 3.65935 6.60152 3.64304 6.62343 3.62941C6.62698 3.62685 6.63052 3.6243 6.63362 3.62174C6.76015 3.52315 6.89008 3.42937 7.02341 3.34039C7.29927 3.15718 7.58802 2.99628 7.88715 2.85909C8.3541 2.66159 8.84149 2.52222 9.33933 2.44381C9.846 2.38104 10.3579 2.38104 10.8646 2.44381C11.3641 2.52252 11.8531 2.66252 12.3214 2.86095C12.5824 2.98113 12.8356 3.1194 13.0791 3.27482C13.2138 3.36086 13.3453 3.45216 13.4738 3.54873C13.5059 3.57198 13.5375 3.59709 13.5692 3.62174L13.5869 3.63592L13.633 3.67405C13.6673 3.70312 13.7017 3.73265 13.7355 3.76264C13.9767 3.97581 14.2025 4.20732 14.4112 4.45531C14.4601 4.51344 14.5081 4.57249 14.5552 4.63248C14.5692 4.65015 14.5827 4.66806 14.5964 4.68596C14.5497 4.62388 14.6026 4.69154 14.6252 4.72316L14.627 4.72572L14.6296 4.72921C14.6389 4.7413 14.6478 4.75386 14.6571 4.76595L14.6321 4.73316C14.7249 4.86291 14.813 4.99606 14.8963 5.13262C15.077 5.4292 15.2353 5.74017 15.3698 6.06269C15.5545 6.5454 15.686 7.04874 15.7616 7.56288L15.8459 9.8027C15.8902 11.0003 15.9353 12.198 15.981 13.3958L16.0123 14.2258C16.026 14.5907 16.3088 14.9422 16.678 14.9248C16.7002 14.9248 16.7203 14.9218 16.7411 14.9187C16.7967 14.9343 16.8539 14.9421 16.9114 14.942H17.7056C18.3716 14.9406 19.0491 14.6469 19.4685 14.0912C19.8178 13.6285 20.0001 13.1 20.0001 12.5073V9.64831C19.9974 9.4816 20.003 9.31581 19.9956 9.15003ZM2.34328 13.5413C2.2598 13.5245 2.17762 13.5012 2.09744 13.4716C2.03629 13.4407 1.97711 13.4056 1.92027 13.3667C1.91097 13.3604 1.90211 13.3535 1.89303 13.3469C1.86313 13.3193 1.83323 13.2916 1.80444 13.2618C1.77565 13.2321 1.74974 13.2007 1.72338 13.1688C1.71696 13.1593 1.71054 13.15 1.70456 13.1402C1.66747 13.0806 1.63411 13.0184 1.60467 12.9542C1.5767 12.8723 1.55449 12.7884 1.53823 12.7031C1.52871 12.5636 1.53203 12.4241 1.53203 12.2846V9.58739C1.53203 9.42463 1.52649 9.25978 1.53801 9.09702C1.55427 9.01134 1.57648 8.92702 1.60445 8.84474C1.63389 8.78054 1.66725 8.7184 1.70433 8.65873C1.71031 8.64919 1.71674 8.63989 1.72316 8.63036C1.74951 8.59874 1.77587 8.56735 1.80422 8.53735C1.83257 8.50736 1.86246 8.48015 1.89281 8.45248C1.90189 8.44574 1.91074 8.439 1.92005 8.43272C1.9765 8.39378 2.03531 8.35875 2.09612 8.32786C2.1763 8.29825 2.25847 8.27493 2.34195 8.2581C2.57649 8.2381 2.81723 8.25299 3.05066 8.25299H3.10115V13.5474H3.05176C2.81856 13.5462 2.57759 13.5611 2.34328 13.5413ZM4.43375 14.1924C4.43364 14.1905 4.43364 14.1886 4.43375 14.1868V14.1924ZM18.3058 13.346C18.2967 13.3525 18.2879 13.3595 18.2786 13.3658C18.2218 13.4048 18.1626 13.4398 18.1014 13.4706C18.0205 13.5009 17.9376 13.5246 17.8534 13.5418C17.6744 13.5558 17.4949 13.5597 17.3156 13.5536C17.296 13.0277 17.2762 12.5018 17.2563 11.976C17.2111 10.7784 17.166 9.58073 17.1209 8.38296C17.1194 8.33925 17.1178 8.29554 17.1161 8.25182H17.1469C17.3805 8.25182 17.6213 8.23694 17.8556 8.25694C17.939 8.27377 18.0212 8.29709 18.1014 8.32669C18.1622 8.35758 18.221 8.39261 18.2775 8.43156C18.2868 8.43784 18.2956 8.44458 18.3047 8.45109C18.3346 8.47899 18.3647 8.50643 18.3933 8.53619C18.4219 8.56595 18.4478 8.59757 18.4744 8.6292C18.4806 8.63873 18.487 8.64803 18.493 8.65756C18.53 8.71729 18.5635 8.77942 18.5931 8.84358C18.6209 8.92557 18.6431 9.00957 18.6595 9.09492C18.6693 9.23443 18.6657 9.37394 18.6657 9.51345V12.2123C18.6657 12.375 18.6712 12.5399 18.6597 12.7026C18.6434 12.7882 18.6212 12.8725 18.5933 12.9547C18.5637 13.0188 18.5303 13.081 18.4932 13.1407C18.4872 13.1505 18.4808 13.1598 18.4746 13.1693C18.448 13.2007 18.4219 13.2321 18.3935 13.2623C18.3652 13.2925 18.3357 13.3181 18.3058 13.346Z"/>
</mask>
<path d="M19.9956 9.15003C19.9602 8.32762 19.527 7.54288 18.8283 7.14877C18.4929 6.95889 18.1185 6.85777 17.7375 6.85417H16.9843C16.9568 6.71024 16.9252 6.56701 16.8877 6.42448C16.7898 6.06437 16.6677 5.712 16.5223 5.37002C16.261 4.73828 15.9022 4.16327 15.4852 3.63313C14.6586 2.58425 13.5362 1.80556 12.3097 1.37238C11.0349 0.921998 9.62326 0.884098 8.32322 1.23729C7.05918 1.58457 5.91179 2.29348 5.00891 3.28506C4.11593 4.27022 3.47522 5.51976 3.21499 6.85394H2.92176C2.51403 6.85394 2.09589 6.83441 1.70788 6.99345C1.32606 7.149 0.97813 7.37919 0.722109 7.72029C0.433926 8.09828 0.256915 8.55625 0.212725 9.03819C0.192571 9.23978 0.202537 9.44695 0.202537 9.64924V12.5596C0.205638 13.3474 0.566636 14.0424 1.16173 14.5088C1.60467 14.8553 2.13487 14.9453 2.67128 14.9453H3.21565C3.24312 15.0892 3.27479 15.2324 3.31199 15.3749C3.40994 15.7346 3.5319 16.0866 3.67698 16.4282C3.93831 17.0602 4.2971 17.6355 4.71413 18.1654C5.54066 19.2145 6.66307 19.9934 7.88958 20.4266C8.60252 20.6743 9.34868 20.8004 10.0996 20.8C10.448 20.8 10.7816 20.478 10.7654 20.1011C10.7492 19.7241 10.473 19.4035 10.0996 19.4021C9.84503 19.4015 9.59065 19.3855 9.33778 19.3542C8.83807 19.2752 8.34895 19.1347 7.8805 18.9357C7.61931 18.8156 7.36605 18.6773 7.12241 18.5218C6.9876 18.4355 6.85598 18.3441 6.72752 18.2477C6.69563 18.2238 6.66381 18.1995 6.63207 18.1747L6.61502 18.1612L6.56828 18.1223C6.53396 18.0933 6.49963 18.0638 6.46574 18.0338C6.22462 17.8206 5.99878 17.5891 5.79004 17.3411C5.74102 17.2827 5.69303 17.2235 5.64608 17.1637C5.63213 17.1458 5.61839 17.1276 5.60444 17.1095C5.65206 17.1728 5.59891 17.1049 5.57609 17.073L5.57454 17.0709L5.57166 17.067C5.56258 17.0549 5.5535 17.0437 5.5442 17.0305L5.56945 17.0635C5.47658 16.9337 5.38843 16.8004 5.30501 16.6635C5.12446 16.367 4.96629 16.056 4.83195 15.7335C4.64116 15.2342 4.50735 14.7129 4.4333 14.1805V7.83074C4.43324 7.7838 4.42826 7.73702 4.41846 7.69123C4.42533 7.65961 4.43087 7.62705 4.43574 7.59311L4.42533 7.67332C4.4982 7.1203 4.63543 6.57876 4.83394 6.06083C4.95208 5.77765 5.0886 5.50334 5.24256 5.23981C5.32568 5.09798 5.41368 4.95956 5.50655 4.82454C5.5287 4.79385 5.54952 4.76316 5.57122 4.73154C5.61795 4.67015 5.6649 4.609 5.71341 4.54901C5.91802 4.29692 6.1401 4.06105 6.37782 3.84332C6.43348 3.79248 6.48988 3.74257 6.54702 3.69359C6.56408 3.67894 6.58157 3.66429 6.59885 3.64987C6.58782 3.6605 6.5758 3.66992 6.56297 3.67801C6.58122 3.65935 6.60152 3.64304 6.62343 3.62941C6.62698 3.62685 6.63052 3.6243 6.63362 3.62174C6.76015 3.52315 6.89008 3.42937 7.02341 3.34039C7.29927 3.15718 7.58802 2.99628 7.88715 2.85909C8.3541 2.66159 8.84149 2.52222 9.33933 2.44381C9.846 2.38104 10.3579 2.38104 10.8646 2.44381C11.3641 2.52252 11.8531 2.66252 12.3214 2.86095C12.5824 2.98113 12.8356 3.1194 13.0791 3.27482C13.2138 3.36086 13.3453 3.45216 13.4738 3.54873C13.5059 3.57198 13.5375 3.59709 13.5692 3.62174L13.5869 3.63592L13.633 3.67405C13.6673 3.70312 13.7017 3.73265 13.7355 3.76264C13.9767 3.97581 14.2025 4.20732 14.4112 4.45531C14.4601 4.51344 14.5081 4.57249 14.5552 4.63248C14.5692 4.65015 14.5827 4.66806 14.5964 4.68596C14.5497 4.62388 14.6026 4.69154 14.6252 4.72316L14.627 4.72572L14.6296 4.72921C14.6389 4.7413 14.6478 4.75386 14.6571 4.76595L14.6321 4.73316C14.7249 4.86291 14.813 4.99606 14.8963 5.13262C15.077 5.4292 15.2353 5.74017 15.3698 6.06269C15.5545 6.5454 15.686 7.04874 15.7616 7.56288L15.8459 9.8027C15.8902 11.0003 15.9353 12.198 15.981 13.3958L16.0123 14.2258C16.026 14.5907 16.3088 14.9422 16.678 14.9248C16.7002 14.9248 16.7203 14.9218 16.7411 14.9187C16.7967 14.9343 16.8539 14.9421 16.9114 14.942H17.7056C18.3716 14.9406 19.0491 14.6469 19.4685 14.0912C19.8178 13.6285 20.0001 13.1 20.0001 12.5073V9.64831C19.9974 9.4816 20.003 9.31581 19.9956 9.15003ZM2.34328 13.5413C2.2598 13.5245 2.17762 13.5012 2.09744 13.4716C2.03629 13.4407 1.97711 13.4056 1.92027 13.3667C1.91097 13.3604 1.90211 13.3535 1.89303 13.3469C1.86313 13.3193 1.83323 13.2916 1.80444 13.2618C1.77565 13.2321 1.74974 13.2007 1.72338 13.1688C1.71696 13.1593 1.71054 13.15 1.70456 13.1402C1.66747 13.0806 1.63411 13.0184 1.60467 12.9542C1.5767 12.8723 1.55449 12.7884 1.53823 12.7031C1.52871 12.5636 1.53203 12.4241 1.53203 12.2846V9.58739C1.53203 9.42463 1.52649 9.25978 1.53801 9.09702C1.55427 9.01134 1.57648 8.92702 1.60445 8.84474C1.63389 8.78054 1.66725 8.7184 1.70433 8.65873C1.71031 8.64919 1.71674 8.63989 1.72316 8.63036C1.74951 8.59874 1.77587 8.56735 1.80422 8.53735C1.83257 8.50736 1.86246 8.48015 1.89281 8.45248C1.90189 8.44574 1.91074 8.439 1.92005 8.43272C1.9765 8.39378 2.03531 8.35875 2.09612 8.32786C2.1763 8.29825 2.25847 8.27493 2.34195 8.2581C2.57649 8.2381 2.81723 8.25299 3.05066 8.25299H3.10115V13.5474H3.05176C2.81856 13.5462 2.57759 13.5611 2.34328 13.5413ZM4.43375 14.1924C4.43364 14.1905 4.43364 14.1886 4.43375 14.1868V14.1924ZM18.3058 13.346C18.2967 13.3525 18.2879 13.3595 18.2786 13.3658C18.2218 13.4048 18.1626 13.4398 18.1014 13.4706C18.0205 13.5009 17.9376 13.5246 17.8534 13.5418C17.6744 13.5558 17.4949 13.5597 17.3156 13.5536C17.296 13.0277 17.2762 12.5018 17.2563 11.976C17.2111 10.7784 17.166 9.58073 17.1209 8.38296C17.1194 8.33925 17.1178 8.29554 17.1161 8.25182H17.1469C17.3805 8.25182 17.6213 8.23694 17.8556 8.25694C17.939 8.27377 18.0212 8.29709 18.1014 8.32669C18.1622 8.35758 18.221 8.39261 18.2775 8.43156C18.2868 8.43784 18.2956 8.44458 18.3047 8.45109C18.3346 8.47899 18.3647 8.50643 18.3933 8.53619C18.4219 8.56595 18.4478 8.59757 18.4744 8.6292C18.4806 8.63873 18.487 8.64803 18.493 8.65756C18.53 8.71729 18.5635 8.77942 18.5931 8.84358C18.6209 8.92557 18.6431 9.00957 18.6595 9.09492C18.6693 9.23443 18.6657 9.37394 18.6657 9.51345V12.2123C18.6657 12.375 18.6712 12.5399 18.6597 12.7026C18.6434 12.7882 18.6212 12.8725 18.5933 12.9547C18.5637 13.0188 18.5303 13.081 18.4932 13.1407C18.4872 13.1505 18.4808 13.1598 18.4746 13.1693C18.448 13.2007 18.4219 13.2321 18.3935 13.2623C18.3652 13.2925 18.3357 13.3181 18.3058 13.346Z" fill="#666D80"/>
<path d="M6.6553 3.66794L6.66261 3.66189L6.59887 3.58484L6.59156 3.59088L6.6553 3.66794ZM19.9956 9.15003L19.8957 9.15434L19.8957 9.15444L19.9956 9.15003ZM18.8283 7.14877L18.779 7.23579L18.7791 7.23587L18.8283 7.14877ZM17.7375 6.85417L17.7385 6.75417H17.7375V6.85417ZM16.9843 6.85417L16.8861 6.87291L16.9016 6.95417H16.9843V6.85417ZM16.8877 6.42448L16.9845 6.39908L16.9842 6.39824L16.8877 6.42448ZM16.5223 5.37002L16.4299 5.40825L16.4303 5.40915L16.5223 5.37002ZM15.4852 3.63313L15.5638 3.5713L15.5637 3.57124L15.4852 3.63313ZM12.3097 1.37238L12.2764 1.46667L12.2764 1.46667L12.3097 1.37238ZM8.32322 1.23729L8.29701 1.14079L8.29673 1.14086L8.32322 1.23729ZM5.00891 3.28506L4.93497 3.21773L4.93481 3.2179L5.00891 3.28506ZM3.21499 6.85394V6.95394H3.29737L3.31314 6.87308L3.21499 6.85394ZM1.70788 6.99345L1.74561 7.08606L1.7458 7.08598L1.70788 6.99345ZM0.722109 7.72029L0.801635 7.78092L0.802087 7.78032L0.722109 7.72029ZM0.212725 9.03819L0.312232 9.04814L0.312307 9.04732L0.212725 9.03819ZM0.202537 12.5596H0.102537L0.102538 12.56L0.202537 12.5596ZM1.16173 14.5088L1.10004 14.5875L1.10012 14.5876L1.16173 14.5088ZM3.21565 14.9453L3.31388 14.9265L3.29838 14.8453H3.21565V14.9453ZM3.31199 15.3749L3.21523 15.4002L3.21551 15.4012L3.31199 15.3749ZM3.67698 16.4282L3.76939 16.39L3.76902 16.3892L3.67698 16.4282ZM4.71413 18.1654L4.63554 18.2272L4.63558 18.2272L4.71413 18.1654ZM7.88958 20.4266L7.85628 20.5209L7.85676 20.521L7.88958 20.4266ZM10.0996 20.8V20.7H10.0996L10.0996 20.8ZM10.0996 19.4021L10.1 19.3021H10.0999L10.0996 19.4021ZM9.33778 19.3542L9.32216 19.453L9.3255 19.4535L9.33778 19.3542ZM7.8805 18.9357L7.83871 19.0266L7.8414 19.0277L7.8805 18.9357ZM7.12241 18.5218L7.06847 18.606L7.0686 18.6061L7.12241 18.5218ZM6.72752 18.2477L6.78755 18.1677L6.78745 18.1676L6.72752 18.2477ZM6.63207 18.1747L6.57004 18.2531L6.5705 18.2535L6.63207 18.1747ZM6.61502 18.1612L6.55109 18.2381L6.55299 18.2396L6.61502 18.1612ZM6.56828 18.1223L6.50367 18.1987L6.50438 18.1993L6.56828 18.1223ZM6.46574 18.0338L6.53203 17.9589L6.53198 17.9588L6.46574 18.0338ZM5.79004 17.3411L5.71342 17.4054L5.71353 17.4055L5.79004 17.3411ZM5.64608 17.1637L5.5672 17.2252L5.56741 17.2254L5.64608 17.1637ZM5.60444 17.1095L5.6837 17.0485L5.52455 17.1697L5.60444 17.1095ZM5.57609 17.073L5.65741 17.0148L5.65645 17.0135L5.57609 17.073ZM5.57454 17.0709L5.49371 17.1298L5.49419 17.1304L5.57454 17.0709ZM5.57166 17.067L5.6525 17.0081L5.65163 17.0069L5.57166 17.067ZM5.5442 17.0305L5.62364 16.9697L5.46235 17.0879L5.5442 17.0305ZM5.56945 17.0635L5.49001 17.1242L5.65076 17.0053L5.56945 17.0635ZM5.30501 16.6635L5.2196 16.7155L5.21962 16.7156L5.30501 16.6635ZM4.83195 15.7335L4.7385 15.7692L4.73964 15.7719L4.83195 15.7335ZM4.4333 14.1805H4.33234L4.33426 14.1943L4.4333 14.1805ZM4.4333 7.83074H4.5333V7.83061L4.4333 7.83074ZM4.41846 7.69123L4.32074 7.67001L4.31617 7.69108L4.32068 7.71216L4.41846 7.69123ZM4.43574 7.59311L4.53491 7.60597L4.33675 7.5789L4.43574 7.59311ZM4.42533 7.67332L4.32616 7.66046L4.52447 7.68639L4.42533 7.67332ZM4.83394 6.06083L4.74161 6.02231L4.74057 6.02504L4.83394 6.06083ZM5.24256 5.23981L5.15628 5.18925L5.15621 5.18937L5.24256 5.23981ZM5.50655 4.82454L5.42544 4.76601L5.42416 4.76787L5.50655 4.82454ZM5.57122 4.73154L5.49156 4.67089L5.48877 4.67495L5.57122 4.73154ZM5.71341 4.54901L5.63576 4.48599L5.63564 4.48614L5.71341 4.54901ZM6.37782 3.84332L6.31038 3.76949L6.31028 3.76958L6.37782 3.84332ZM6.54702 3.69359L6.61211 3.76951L6.61218 3.76944L6.54702 3.69359ZM6.59885 3.64987L6.66825 3.72187L6.53478 3.57309L6.59885 3.64987ZM6.56297 3.67801L6.4915 3.60807L6.61625 3.76263L6.56297 3.67801ZM6.62343 3.62941L6.67638 3.71452L6.68196 3.7105L6.62343 3.62941ZM6.63362 3.62174L6.57213 3.54282L6.56999 3.5446L6.63362 3.62174ZM7.02341 3.34039L6.96808 3.25709L6.9679 3.25722L7.02341 3.34039ZM7.88715 2.85909L7.84818 2.76694L7.84546 2.76819L7.88715 2.85909ZM9.33933 2.44381L9.32703 2.34452L9.32378 2.34503L9.33933 2.44381ZM10.8646 2.44381L10.8802 2.34498L10.8769 2.34457L10.8646 2.44381ZM12.3214 2.86095L12.3633 2.77007L12.3605 2.76887L12.3214 2.86095ZM13.0791 3.27482L13.1329 3.19056L13.1329 3.19053L13.0791 3.27482ZM13.4738 3.54873L13.4137 3.62867L13.4151 3.62973L13.4738 3.54873ZM13.5692 3.62174L13.6317 3.54366L13.6306 3.54282L13.5692 3.62174ZM13.5869 3.63592L13.6507 3.55888L13.6494 3.55785L13.5869 3.63592ZM13.633 3.67405L13.6976 3.59773L13.6968 3.59702L13.633 3.67405ZM13.7355 3.76264L13.6693 3.83752L13.6693 3.83756L13.7355 3.76264ZM14.4112 4.45531L14.4878 4.39095L14.4878 4.39091L14.4112 4.45531ZM14.5552 4.63248L14.4765 4.69424L14.4767 4.69445L14.5552 4.63248ZM14.5964 4.68596L14.517 4.74682L14.6763 4.62582L14.5964 4.68596ZM14.6252 4.72316L14.7074 4.66624L14.7066 4.66504L14.6252 4.72316ZM14.627 4.72572L14.5447 4.7827L14.5474 4.78633L14.627 4.72572ZM14.6296 4.72921L14.5501 4.78982L14.5504 4.79019L14.6296 4.72921ZM14.6571 4.76595L14.5778 4.82692L14.7366 4.70527L14.6571 4.76595ZM14.6321 4.73316L14.7115 4.67249L14.5507 4.79137L14.6321 4.73316ZM14.8963 5.13262L14.9817 5.08059L14.9816 5.08056L14.8963 5.13262ZM15.3698 6.06269L15.4632 6.02693L15.4621 6.0242L15.3698 6.06269ZM15.7616 7.56288L15.8621 7.55909L15.8605 7.54834L15.7616 7.56288ZM15.8459 9.8027L15.9459 9.79901L15.9459 9.79894L15.8459 9.8027ZM15.981 13.3958L16.081 13.392L16.081 13.392L15.981 13.3958ZM16.0123 14.2258L15.9123 14.2296V14.2296L16.0123 14.2258ZM16.678 14.9248V14.8247L16.6733 14.8249L16.678 14.9248ZM16.7411 14.9187L16.768 14.8224L16.7477 14.8167L16.7268 14.8198L16.7411 14.9187ZM16.9114 14.942V14.842H16.9113L16.9114 14.942ZM17.7056 14.942V15.042L17.7058 15.042L17.7056 14.942ZM19.4685 14.0912L19.5484 14.1515L19.4685 14.0912ZM20.0001 9.64831H20.1001L20.1001 9.64672L20.0001 9.64831ZM2.34328 13.5413L2.32342 13.64L2.33487 13.641L2.34328 13.5413ZM2.09744 13.4716L2.05205 13.5614L2.06278 13.5654L2.09744 13.4716ZM1.92027 13.3667L1.97678 13.2842L1.97621 13.2838L1.92027 13.3667ZM1.89303 13.3469L1.82457 13.4209L1.83476 13.4282L1.89303 13.3469ZM1.72338 13.1688L1.64004 13.225L1.64633 13.2326L1.72338 13.1688ZM1.70456 13.1402L1.78984 13.088L1.78949 13.0875L1.70456 13.1402ZM1.60467 12.9542L1.50956 12.9867L1.51377 12.9959L1.60467 12.9542ZM1.53823 12.7031L1.43774 12.71L1.44 12.7218L1.53823 12.7031ZM1.53801 9.09702L1.43909 9.07824L1.43826 9.08996L1.53801 9.09702ZM1.60445 8.84474L1.51307 8.80284L1.50977 8.81255L1.60445 8.84474ZM1.70433 8.65873L1.61962 8.60559L1.6194 8.60595L1.70433 8.65873ZM1.72316 8.63036L1.64594 8.566L1.64022 8.57448L1.72316 8.63036ZM1.89281 8.45248L1.83288 8.37179L1.82542 8.37859L1.89281 8.45248ZM1.92005 8.43272L1.97599 8.51561L1.97683 8.51503L1.92005 8.43272ZM2.09612 8.32786L2.06124 8.23341L2.05082 8.2387L2.09612 8.32786ZM2.34195 8.2581L2.3334 8.15781L2.32218 8.16007L2.34195 8.2581ZM3.10115 8.25299H3.20115V8.15299H3.10115V8.25299ZM3.10115 13.5474V13.6474H3.20115V13.5474H3.10115ZM3.05176 13.5474L3.05127 13.6474H3.05176V13.5474ZM4.43375 14.1924L4.33391 14.1981L4.53375 14.1924H4.43375ZM4.43375 14.1868H4.53375L4.33391 14.1811L4.43375 14.1868ZM18.3058 13.346L18.3646 13.428L18.374 13.4191L18.3058 13.346ZM18.2786 13.3658L18.2226 13.2829L18.222 13.2833L18.2786 13.3658ZM18.1014 13.4706L18.1366 13.5649L18.1464 13.5599L18.1014 13.4706ZM17.8534 13.5418L17.8612 13.6422L17.8733 13.6398L17.8534 13.5418ZM17.3156 13.5536L17.2157 13.5574L17.2192 13.6504L17.3122 13.6536L17.3156 13.5536ZM17.2563 11.976L17.1563 11.9798V11.9798L17.2563 11.976ZM17.1209 8.38296L17.021 8.38651L17.021 8.38672L17.1209 8.38296ZM17.1161 8.25182V8.15182H17.0119L17.0162 8.25587L17.1161 8.25182ZM17.8556 8.25694L17.8755 8.15827L17.8641 8.1573L17.8556 8.25694ZM18.1014 8.32669L18.147 8.23693L18.136 8.23288L18.1014 8.32669ZM18.2775 8.43156L18.2207 8.51387L18.2215 8.51445L18.2775 8.43156ZM18.3047 8.45109L18.3735 8.37737L18.363 8.36982L18.3047 8.45109ZM18.4744 8.6292L18.5588 8.57426L18.5509 8.56486L18.4744 8.6292ZM18.493 8.65756L18.5779 8.60483L18.5777 8.60443L18.493 8.65756ZM18.5931 8.84358L18.6883 8.81121L18.6839 8.80168L18.5931 8.84358ZM18.6595 9.09492L18.76 9.08791L18.7577 9.07609L18.6595 9.09492ZM18.6597 12.7026L18.7586 12.7215L18.7595 12.7097L18.6597 12.7026ZM18.5933 12.9547L18.6846 12.9968L18.688 12.9868L18.5933 12.9547ZM18.4932 13.1407L18.4082 13.088L18.4079 13.0885L18.4932 13.1407ZM18.4746 13.1693L18.5515 13.2344L18.5584 13.2238L18.4746 13.1693ZM20.0956 9.14573C20.0588 8.29328 19.6099 7.47485 18.8774 7.06167L18.7791 7.23587C19.4441 7.61092 19.8616 8.36196 19.8957 9.15434L20.0956 9.14573ZM18.8775 7.06175C18.5276 6.86362 18.1366 6.75794 17.7385 6.75418L17.7366 6.95417C18.1004 6.9576 18.4582 7.05416 18.779 7.23579L18.8775 7.06175ZM17.7375 6.75417H16.9843V6.95417H17.7375V6.75417ZM17.0825 6.83543C17.0547 6.6896 17.0225 6.54412 16.9845 6.39908L16.791 6.44988C16.8278 6.5899 16.859 6.73088 16.8861 6.87291L17.0825 6.83543ZM16.9842 6.39824C16.8851 6.03376 16.7615 5.67708 16.6143 5.3309L16.4303 5.40915C16.5739 5.74692 16.6945 6.09498 16.7912 6.45072L16.9842 6.39824ZM16.6147 5.3318C16.3492 4.68996 15.9852 4.1071 15.5638 3.5713L15.4066 3.69496C15.8191 4.21943 16.1727 4.7866 16.4299 5.40825L16.6147 5.3318ZM15.5637 3.57124C14.725 2.50686 13.5866 1.71729 12.343 1.27809L12.2764 1.46667C13.4859 1.89382 14.5923 2.66165 15.4066 3.69502L15.5637 3.57124ZM12.343 1.27809C11.0484 0.820704 9.61595 0.782459 8.29701 1.14079L8.34944 1.33379C9.63057 0.985737 11.0214 1.02329 12.2764 1.46667L12.343 1.27809ZM8.29673 1.14086C7.014 1.49327 5.85029 2.2125 4.93497 3.21773L5.08285 3.35238C5.9733 2.37446 7.10436 1.67586 8.34972 1.33372L8.29673 1.14086ZM4.93481 3.2179C4.02991 4.21623 3.38065 5.48226 3.11684 6.83479L3.31314 6.87308C3.56979 5.55726 4.20196 4.32422 5.083 3.35221L4.93481 3.2179ZM3.21499 6.75394H2.92176V6.95394H3.21499V6.75394ZM2.92176 6.75394C2.5225 6.75394 2.08052 6.73263 1.66995 6.90092L1.7458 7.08598C2.11127 6.93618 2.50557 6.95394 2.92176 6.95394V6.75394ZM1.67015 6.90084C1.27625 7.06131 0.911708 7.3011 0.642131 7.66026L0.802087 7.78032C1.04455 7.45728 1.37587 7.23669 1.74561 7.08606L1.67015 6.90084ZM0.642585 7.65966C0.342794 8.05288 0.159015 8.52877 0.113143 9.02906L0.312307 9.04732C0.354814 8.58373 0.525058 8.14369 0.801633 7.78092L0.642585 7.65966ZM0.113221 9.02824C0.0924058 9.23645 0.102537 9.45353 0.102537 9.64924H0.302537C0.302537 9.44038 0.292736 9.24311 0.312229 9.04814L0.113221 9.02824ZM0.102537 9.64924V12.5596H0.302537V9.64924H0.102537ZM0.102538 12.56C0.105764 13.3796 0.481824 14.103 1.10004 14.5875L1.22342 14.4301C0.651448 13.9818 0.305512 13.3152 0.302537 12.5592L0.102538 12.56ZM1.10012 14.5876C1.56844 14.9539 2.125 15.0453 2.67128 15.0453V14.8453C2.14474 14.8453 1.6409 14.7567 1.22334 14.4301L1.10012 14.5876ZM2.67128 15.0453H3.21565V14.8453H2.67128V15.0453ZM3.11743 14.964C3.14525 15.1098 3.1774 15.2552 3.21524 15.4002L3.40875 15.3497C3.37218 15.2096 3.34098 15.0685 3.31388 14.9265L3.11743 14.964ZM3.21551 15.4012C3.31464 15.7652 3.43808 16.1215 3.58493 16.4673L3.76902 16.3892C3.62572 16.0517 3.50524 15.704 3.40848 15.3487L3.21551 15.4012ZM3.58457 16.4665C3.85008 17.1085 4.21404 17.6916 4.63554 18.2272L4.79271 18.1035C4.38016 17.5793 4.02655 17.0119 3.76939 16.39L3.58457 16.4665ZM4.63558 18.2272C5.47432 19.2919 6.6127 20.0817 7.85628 20.5209L7.92288 20.3323C6.71345 19.9051 5.607 19.1371 4.79268 18.1035L4.63558 18.2272ZM7.85676 20.521C8.58021 20.7724 9.33748 20.9004 10.0997 20.9L10.0996 20.7C9.35988 20.7004 8.62482 20.5762 7.9224 20.3321L7.85676 20.521ZM10.0996 20.9C10.5029 20.9 10.884 20.5326 10.8653 20.0968L10.6655 20.1053C10.6791 20.4233 10.3932 20.7 10.0996 20.7V20.9ZM10.8653 20.0968C10.8473 19.6777 10.5374 19.3037 10.1 19.3021L10.0993 19.5021C10.4087 19.5033 10.6511 19.7706 10.6655 20.1053L10.8653 20.0968ZM10.0999 19.3021C9.84929 19.3015 9.59894 19.2858 9.35007 19.255L9.3255 19.4535C9.58236 19.4853 9.84076 19.5015 10.0994 19.5021L10.0999 19.3021ZM9.3534 19.2554C8.86181 19.1777 8.38057 19.0395 7.91961 18.8437L7.8414 19.0277C8.31732 19.2299 8.81433 19.3727 9.32216 19.453L9.3534 19.2554ZM7.92228 18.8448C7.66526 18.7267 7.41602 18.5906 7.17621 18.4375L7.0686 18.6061C7.31608 18.7641 7.57336 18.9045 7.83873 19.0265L7.92228 18.8448ZM7.17634 18.4376C7.04363 18.3526 6.91403 18.2626 6.78755 18.1677L6.66749 18.3277C6.79792 18.4255 6.93158 18.5183 7.06847 18.606L7.17634 18.4376ZM6.78745 18.1676C6.75611 18.1442 6.72484 18.1202 6.69364 18.0959L6.5705 18.2535C6.60278 18.2787 6.63515 18.3034 6.6676 18.3277L6.78745 18.1676ZM6.6941 18.0962L6.67704 18.0827L6.55299 18.2396L6.57004 18.2531L6.6941 18.0962ZM6.67893 18.0843L6.63219 18.0454L6.50438 18.1993L6.55111 18.2381L6.67893 18.0843ZM6.6329 18.046C6.59896 18.0173 6.56522 17.9883 6.53203 17.9589L6.39946 18.1086C6.43404 18.1392 6.46895 18.1693 6.50367 18.1987L6.6329 18.046ZM6.53198 17.9588C6.29456 17.7489 6.07214 17.521 5.86654 17.2767L5.71353 17.4055C5.92541 17.6572 6.15469 17.8922 6.39951 18.1087L6.53198 17.9588ZM5.86665 17.2768C5.81833 17.2192 5.77103 17.1609 5.72475 17.102L5.56741 17.2254C5.61503 17.2861 5.6637 17.3461 5.71342 17.4054L5.86665 17.2768ZM5.72496 17.1022C5.71119 17.0846 5.69835 17.0676 5.6837 17.0485L5.52518 17.1705C5.53844 17.1877 5.55306 17.207 5.5672 17.2252L5.72496 17.1022ZM5.52455 17.1697C5.53749 17.1868 5.5408 17.1915 5.54015 17.1905C5.5399 17.1901 5.5393 17.1892 5.53854 17.188C5.53826 17.1875 5.53596 17.1839 5.53356 17.1789C5.53301 17.1778 5.52872 17.1692 5.52607 17.1574C5.52511 17.1531 5.52105 17.1352 5.52623 17.1129C5.52956 17.1016 5.54197 17.0778 5.55162 17.0662C5.56415 17.0552 5.59205 17.0407 5.60648 17.037C5.63725 17.0317 5.66046 17.0424 5.66504 17.0445C5.67315 17.0482 5.67895 17.0522 5.68148 17.054C5.68687 17.0578 5.69066 17.0613 5.69181 17.0624C5.69472 17.0651 5.6968 17.0674 5.69724 17.0679C5.69804 17.0688 5.69863 17.0694 5.6989 17.0697C5.69921 17.0701 5.69943 17.0704 5.69953 17.0705C5.69964 17.0706 5.6997 17.0707 5.6997 17.0707C5.69971 17.0707 5.69968 17.0707 5.69961 17.0706C5.69955 17.0705 5.69946 17.0704 5.69934 17.0703C5.69911 17.07 5.6988 17.0696 5.69842 17.0691C5.69765 17.0681 5.69667 17.0669 5.6955 17.0654C5.68572 17.0528 5.66766 17.0291 5.6574 17.0148L5.49479 17.1312C5.50733 17.1487 5.52727 17.1749 5.53785 17.1885C5.54043 17.1918 5.54309 17.1951 5.54512 17.1976C5.54566 17.1983 5.54647 17.1992 5.5474 17.2003C5.54786 17.2009 5.54862 17.2017 5.54955 17.2027C5.55014 17.2034 5.55232 17.2058 5.55531 17.2086C5.5565 17.2097 5.56032 17.2132 5.56574 17.2171C5.56828 17.2189 5.57409 17.2229 5.58222 17.2266C5.5868 17.2286 5.61001 17.2394 5.64079 17.2341C5.65522 17.2304 5.68313 17.2159 5.69566 17.2049C5.70531 17.1932 5.71772 17.1694 5.72106 17.1581C5.72623 17.1358 5.72218 17.1179 5.72121 17.1136C5.71856 17.1018 5.71426 17.0932 5.71368 17.092C5.71125 17.087 5.70887 17.0832 5.70849 17.0826C5.70763 17.0812 5.70689 17.0801 5.70647 17.0794C5.70311 17.0744 5.6952 17.0638 5.68433 17.0494L5.52455 17.1697ZM5.65645 17.0135L5.65489 17.0114L5.49419 17.1304L5.49574 17.1325L5.65645 17.0135ZM5.65537 17.012L5.65249 17.0081L5.49083 17.1258L5.49371 17.1298L5.65537 17.012ZM5.65163 17.0069C5.63942 16.9907 5.63436 16.9848 5.62605 16.973L5.46235 17.0879C5.47265 17.1026 5.48575 17.1191 5.4917 17.127L5.65163 17.0069ZM5.46477 17.0912L5.49001 17.1242L5.64889 17.0027L5.62364 16.9697L5.46477 17.0912ZM5.65076 17.0053C5.55934 16.8775 5.47255 16.7463 5.3904 16.6115L5.21962 16.7156C5.30432 16.8546 5.39382 16.9899 5.48813 17.1217L5.65076 17.0053ZM5.39043 16.6115C5.21253 16.3193 5.05666 16.0129 4.92426 15.695L4.73964 15.7719C4.87592 16.0991 5.03639 16.4146 5.2196 16.7155L5.39043 16.6115ZM4.92536 15.6978C4.73729 15.2056 4.60536 14.6916 4.53235 14.1667L4.33426 14.1943C4.40934 14.7341 4.54503 15.2627 4.73854 15.7692L4.92536 15.6978ZM4.5333 14.1805V7.83074H4.3333V14.1805H4.5333ZM4.5333 7.83061C4.53323 7.7767 4.52752 7.72294 4.51625 7.6703L4.32068 7.71216C4.32901 7.7511 4.33325 7.79091 4.3333 7.83087L4.5333 7.83061ZM4.51619 7.71244C4.5237 7.67786 4.52962 7.64285 4.53472 7.60731L4.33675 7.5789C4.33211 7.61125 4.32696 7.64135 4.32074 7.67001L4.51619 7.71244ZM4.33657 7.58024L4.32616 7.66046L4.5245 7.68619L4.53491 7.60597L4.33657 7.58024ZM4.52447 7.68639C4.59633 7.1411 4.73163 6.60718 4.92732 6.09662L4.74057 6.02504C4.53923 6.55033 4.40008 7.09951 4.32619 7.66026L4.52447 7.68639ZM4.92623 6.09933C5.04266 5.82024 5.17721 5.54992 5.3289 5.29026L5.15621 5.18937C5 5.45676 4.86149 5.73507 4.74165 6.02233L4.92623 6.09933ZM5.32883 5.29038C5.41074 5.15062 5.49744 5.01423 5.58894 4.88121L5.42416 4.76787C5.32992 4.90488 5.24063 5.04534 5.15628 5.18925L5.32883 5.29038ZM5.58764 4.88306C5.61068 4.85114 5.6324 4.81911 5.65367 4.78812L5.48877 4.67495C5.46663 4.7072 5.44672 4.73656 5.42546 4.76603L5.58764 4.88306ZM5.65079 4.79211C5.69743 4.73084 5.74364 4.67067 5.79117 4.61188L5.63564 4.48614C5.58617 4.54733 5.53848 4.60946 5.49165 4.67096L5.65079 4.79211ZM5.79105 4.61203C5.99259 4.36373 6.21129 4.13145 6.44536 3.91707L6.31028 3.76958C6.0689 3.99065 5.84345 4.23011 5.63576 4.48599L5.79105 4.61203ZM6.44526 3.91716C6.50015 3.86702 6.55577 3.81781 6.61211 3.76951L6.48194 3.61766C6.424 3.66733 6.36682 3.71794 6.31038 3.76949L6.44526 3.91716ZM6.61218 3.76944C6.62865 3.7553 6.64567 3.74105 6.66292 3.72665L6.53478 3.57309C6.51748 3.58753 6.4995 3.60258 6.48186 3.61773L6.61218 3.76944ZM6.52944 3.57788C6.5233 3.5838 6.51667 3.58898 6.50969 3.59338L6.61625 3.76263C6.63493 3.75087 6.65235 3.7372 6.66825 3.72187L6.52944 3.57788ZM6.63444 3.74795C6.64716 3.73495 6.66121 3.72368 6.67625 3.71432L6.57061 3.5445C6.54183 3.5624 6.51528 3.58376 6.4915 3.60807L6.63444 3.74795ZM6.68196 3.7105C6.6849 3.70837 6.6912 3.70387 6.69725 3.69888L6.56999 3.5446C6.57016 3.54446 6.56991 3.54466 6.56894 3.54539C6.56794 3.54613 6.56679 3.54697 6.56491 3.54833L6.68196 3.7105ZM6.69508 3.70062C6.81968 3.60354 6.94763 3.51119 7.07892 3.42357L6.9679 3.25722C6.83254 3.34755 6.70062 3.44276 6.57216 3.54285L6.69508 3.70062ZM7.07873 3.4237C7.35028 3.24335 7.63447 3.08499 7.92884 2.94998L7.84546 2.76819C7.54156 2.90757 7.24826 3.07102 6.96808 3.25709L7.07873 3.4237ZM7.9261 2.95119C8.3856 2.75684 8.86513 2.61973 9.35489 2.5426L9.32378 2.34503C8.81784 2.42471 8.3226 2.56634 7.84819 2.76698L7.9261 2.95119ZM9.35163 2.54305C9.85013 2.48129 10.3538 2.48129 10.8523 2.54305L10.8769 2.34457C10.3621 2.28078 9.84187 2.28078 9.32704 2.34457L9.35163 2.54305ZM10.849 2.54259C11.3404 2.62002 11.8215 2.75776 12.2824 2.95302L12.3605 2.76887C11.8846 2.56728 11.3878 2.42502 10.8802 2.34503L10.849 2.54259ZM12.2796 2.95178C12.5365 3.07005 12.7856 3.20613 13.0253 3.35912L13.1329 3.19053C12.8855 3.03267 12.6284 2.89222 12.3633 2.77011L12.2796 2.95178ZM13.0253 3.35909C13.1578 3.44375 13.2872 3.5336 13.4137 3.62866L13.5338 3.4688C13.4034 3.37071 13.2697 3.27796 13.1329 3.19056L13.0253 3.35909ZM13.4151 3.62973C13.4454 3.65166 13.4751 3.67521 13.5078 3.70066L13.6306 3.54282C13.6 3.51898 13.5663 3.4923 13.5324 3.46773L13.4151 3.62973ZM13.5067 3.69981L13.5244 3.71399L13.6494 3.55785L13.6317 3.54367L13.5067 3.69981ZM13.5232 3.71295L13.5692 3.75109L13.6968 3.59702L13.6507 3.55889L13.5232 3.71295ZM13.5684 3.75037C13.6023 3.77911 13.6361 3.80814 13.6693 3.83752L13.8018 3.68776C13.7672 3.65715 13.7323 3.62713 13.6976 3.59773L13.5684 3.75037ZM13.6693 3.83756C13.9067 4.04745 14.1291 4.27545 14.3347 4.5197L14.4878 4.39091C14.2759 4.1392 14.0466 3.90416 13.8018 3.68772L13.6693 3.83756ZM14.3347 4.51966C14.3829 4.57693 14.4301 4.63512 14.4765 4.69424L14.6339 4.57073C14.5861 4.50987 14.5374 4.44994 14.4878 4.39095L14.3347 4.51966ZM14.4767 4.69445C14.4901 4.71139 14.5027 4.72809 14.517 4.74682L14.6757 4.6251C14.6627 4.60803 14.6482 4.58892 14.6337 4.57051L14.4767 4.69445ZM14.6763 4.62582C14.6635 4.60879 14.6605 4.60457 14.6613 4.60584C14.6616 4.60627 14.6623 4.60735 14.6632 4.60881C14.6633 4.60891 14.6665 4.6141 14.6696 4.62113C14.6705 4.62326 14.6721 4.62722 14.6736 4.63236C14.6747 4.63601 14.6781 4.64778 14.6777 4.66328C14.6773 4.67689 14.6725 4.72174 14.6272 4.74752C14.5882 4.76977 14.552 4.75755 14.5449 4.75511C14.5334 4.75112 14.5254 4.74592 14.5225 4.74399C14.5187 4.74148 14.5158 4.73921 14.5142 4.73788C14.511 4.73522 14.5086 4.73294 14.5077 4.73198C14.5031 4.72749 14.4997 4.72306 14.5016 4.72539C14.502 4.72592 14.5034 4.72768 14.5059 4.7309C14.5158 4.74352 14.5337 4.76711 14.5438 4.78129L14.7066 4.66504C14.6941 4.6476 14.6743 4.62154 14.6637 4.60795C14.6611 4.60462 14.6585 4.60129 14.6564 4.59884C14.6559 4.59819 14.6552 4.59727 14.6543 4.59627C14.6542 4.59616 14.6515 4.59294 14.648 4.58945C14.6469 4.58844 14.6446 4.58613 14.6413 4.58344C14.6397 4.5821 14.6368 4.57982 14.633 4.5773C14.6301 4.57536 14.622 4.57016 14.6105 4.56617C14.6035 4.56373 14.5672 4.55151 14.5282 4.57376C14.483 4.59954 14.4781 4.6444 14.4777 4.65801C14.4773 4.67352 14.4807 4.6853 14.4818 4.68896C14.4833 4.69411 14.485 4.69809 14.4859 4.70023C14.4889 4.70733 14.4923 4.71263 14.4924 4.71289C14.4934 4.71449 14.4942 4.71577 14.4947 4.71643C14.498 4.72149 14.506 4.73209 14.5165 4.7461L14.6763 4.62582ZM14.543 4.78009L14.5447 4.78264L14.7092 4.6688L14.7074 4.66624L14.543 4.78009ZM14.5474 4.78633L14.5501 4.78982L14.7092 4.6686L14.7065 4.66511L14.5474 4.78633ZM14.5504 4.79019C14.5543 4.79527 14.5582 4.8006 14.5628 4.8069C14.5673 4.81292 14.5724 4.81992 14.5778 4.82692L14.7363 4.70497C14.7324 4.69988 14.7285 4.69456 14.7239 4.68826C14.7194 4.68224 14.7143 4.67524 14.7089 4.66823L14.5504 4.79019ZM14.7366 4.70527L14.7115 4.67249L14.5526 4.79384L14.5776 4.82662L14.7366 4.70527ZM14.5507 4.79137C14.6422 4.91911 14.7289 5.05021 14.8109 5.18469L14.9816 5.08056C14.8971 4.94191 14.8077 4.8067 14.7134 4.67496L14.5507 4.79137ZM14.8109 5.18466C14.9889 5.47687 15.1449 5.78331 15.2775 6.10117L15.4621 6.0242C15.3257 5.69703 15.165 5.38152 14.9817 5.08059L14.8109 5.18466ZM15.2764 6.09843C15.4585 6.57426 15.5881 7.0705 15.6626 7.57742L15.8605 7.54834C15.7839 7.02699 15.6506 6.51653 15.4632 6.02694L15.2764 6.09843ZM15.6616 7.56664L15.746 9.80647L15.9459 9.79894L15.8615 7.55911L15.6616 7.56664ZM15.746 9.8064C15.7903 11.0041 15.8353 12.2018 15.8811 13.3996L16.081 13.392C16.0352 12.1942 15.9902 10.9966 15.9459 9.79901L15.746 9.8064ZM15.8811 13.3995L15.9123 14.2296L16.1122 14.2221L16.081 13.392L15.8811 13.3995ZM15.9123 14.2296C15.9275 14.6315 16.2412 15.0455 16.6827 15.0247L16.6733 14.8249C16.3765 14.8389 16.1245 14.5498 16.1122 14.2221L15.9123 14.2296ZM16.678 15.0248C16.7086 15.0248 16.7359 15.0205 16.7555 15.0177L16.7268 14.8198C16.7047 14.823 16.6917 14.8248 16.678 14.8248V15.0248ZM16.7142 15.0151C16.7786 15.033 16.8449 15.0421 16.9116 15.042L16.9113 14.842C16.863 14.8421 16.8148 14.8355 16.768 14.8224L16.7142 15.0151ZM16.9114 15.042H17.7056V14.842H16.9114V15.042ZM17.7058 15.042C18.3993 15.0405 19.1079 14.735 19.5484 14.1515L19.3887 14.031C18.9903 14.5589 18.3439 14.8407 17.7054 14.842L17.7058 15.042ZM19.5484 14.1515C19.9105 13.6717 20.1001 13.1221 20.1001 12.5073H19.9001C19.9001 13.0779 19.7251 13.5853 19.3887 14.031L19.5484 14.1515ZM20.1001 12.5073V9.64831H19.9001V12.5073H20.1001ZM20.1001 9.64672C20.0975 9.48804 20.1029 9.31181 20.0955 9.14563L19.8957 9.15444C19.903 9.31981 19.8973 9.47516 19.9001 9.64991L20.1001 9.64672ZM2.36301 13.4433C2.28463 13.4275 2.20745 13.4056 2.13211 13.3778L2.06278 13.5654C2.1478 13.5968 2.23496 13.6215 2.32355 13.6394L2.36301 13.4433ZM2.14255 13.3823C2.08536 13.3534 2.02999 13.3206 1.97678 13.2842L1.86376 13.4492C1.92423 13.4906 1.98722 13.5279 2.05234 13.5608L2.14255 13.3823ZM1.97621 13.2838C1.96754 13.278 1.96619 13.2764 1.9513 13.2657L1.83476 13.4282C1.83802 13.4306 1.8544 13.4429 1.86433 13.4496L1.97621 13.2838ZM1.96095 13.2735C1.93074 13.2456 1.90287 13.2198 1.87631 13.1923L1.73257 13.3314C1.76359 13.3634 1.79552 13.393 1.82511 13.4203L1.96095 13.2735ZM1.87631 13.1923C1.85069 13.1658 1.82725 13.1375 1.80043 13.1051L1.64633 13.2326C1.67223 13.2639 1.70061 13.2983 1.73257 13.3314L1.87631 13.1923ZM1.80631 13.113C1.79901 13.1021 1.79435 13.0954 1.78984 13.088L1.61927 13.1925C1.62672 13.2046 1.63491 13.2165 1.64045 13.2247L1.80631 13.113ZM1.78949 13.0875C1.75464 13.0314 1.72327 12.9729 1.69557 12.9125L1.51377 12.9959C1.54495 13.0639 1.5803 13.1297 1.61962 13.193L1.78949 13.0875ZM1.6993 12.9219C1.67285 12.8445 1.65185 12.7651 1.63646 12.6844L1.44 12.7218C1.45714 12.8117 1.48055 12.9002 1.51004 12.9865L1.6993 12.9219ZM1.638 12.6963C1.62878 12.5613 1.63203 12.4273 1.63203 12.2846H1.43203C1.43203 12.4209 1.42863 12.5659 1.43846 12.7099L1.638 12.6963ZM1.63203 12.2846V9.58739H1.43203V12.2846H1.63203ZM1.63203 9.58739C1.63203 9.4201 1.62658 9.26214 1.63776 9.10408L1.43826 9.08996C1.42641 9.25742 1.43203 9.42916 1.43203 9.58739H1.63203ZM1.63625 9.11567C1.65165 9.03456 1.67267 8.95477 1.69913 8.87692L1.50977 8.81255C1.48029 8.89927 1.4569 8.98811 1.43976 9.07837L1.63625 9.11567ZM1.69535 8.88642C1.72304 8.82601 1.75442 8.76759 1.78927 8.71151L1.6194 8.60595C1.58008 8.66921 1.54473 8.73506 1.51355 8.80306L1.69535 8.88642ZM1.78905 8.71186C1.79388 8.70415 1.79879 8.69707 1.80609 8.68623L1.64022 8.57448C1.63468 8.58271 1.62674 8.59423 1.61962 8.60559L1.78905 8.71186ZM1.79998 8.69438C1.82643 8.66264 1.85096 8.63349 1.87689 8.60604L1.73154 8.46866C1.70078 8.50121 1.6726 8.53483 1.64634 8.56634L1.79998 8.69438ZM1.87689 8.60604C1.90225 8.57921 1.92934 8.55451 1.96019 8.52637L1.82542 8.37859C1.79559 8.4058 1.76288 8.4355 1.73154 8.46866L1.87689 8.60604ZM1.95242 8.53277C1.96283 8.52504 1.96911 8.52025 1.97599 8.51561L1.8641 8.34983C1.85238 8.35774 1.84094 8.36644 1.83319 8.3722L1.95242 8.53277ZM1.97683 8.51503C2.02963 8.47861 2.08461 8.44587 2.14141 8.41701L2.05082 8.2387C1.98602 8.27163 1.92336 8.30894 1.86326 8.35041L1.97683 8.51503ZM2.13075 8.42167C2.20612 8.39384 2.28332 8.37194 2.36172 8.35613L2.32218 8.16007C2.23363 8.17793 2.14649 8.20266 2.06148 8.23405L2.13075 8.42167ZM2.35044 8.35774C2.57949 8.33821 2.80865 8.35299 3.05066 8.35299V8.15299C2.82581 8.15299 2.57348 8.138 2.33345 8.15846L2.35044 8.35774ZM3.05066 8.35299H3.10115V8.15299H3.05066V8.35299ZM3.00115 8.25299V13.5474H3.20115V8.25299H3.00115ZM3.10115 13.4474H3.05176V13.6474H3.10115V13.4474ZM3.05226 13.4474C2.80962 13.4462 2.58108 13.461 2.35168 13.4417L2.33487 13.641C2.57411 13.6611 2.82749 13.6463 3.05127 13.6474L3.05226 13.4474ZM4.53358 14.1867C4.53369 14.1886 4.53369 14.1906 4.53358 14.1925L4.33391 14.1811C4.33358 14.1867 4.33358 14.1924 4.33391 14.1981L4.53358 14.1867ZM4.33375 14.1868V14.1924H4.53375V14.1868H4.33375ZM18.2476 13.2647C18.2327 13.2754 18.2313 13.277 18.2226 13.2829L18.3345 13.4487C18.3445 13.442 18.3608 13.4296 18.3641 13.4273L18.2476 13.2647ZM18.222 13.2833C18.1689 13.3198 18.1135 13.3525 18.0564 13.3814L18.1464 13.5599C18.2116 13.527 18.2747 13.4897 18.3352 13.4482L18.222 13.2833ZM18.0664 13.377C17.9904 13.4054 17.9125 13.4277 17.8334 13.4438L17.8733 13.6398C17.9627 13.6216 18.0507 13.5963 18.1364 13.5643L18.0664 13.377ZM17.8456 13.4421C17.6704 13.4558 17.4946 13.4597 17.319 13.4537L17.3122 13.6536C17.4953 13.6598 17.6785 13.6558 17.8611 13.6415L17.8456 13.4421ZM17.4156 13.5499C17.3959 13.0239 17.3761 12.4981 17.3562 11.9722L17.1563 11.9798C17.1763 12.5056 17.1961 13.0314 17.2157 13.5574L17.4156 13.5499ZM17.3562 11.9723C17.311 10.7747 17.2659 9.57697 17.2209 8.3792L17.021 8.38672C17.0661 9.58449 17.1112 10.7822 17.1563 11.9798L17.3562 11.9723ZM17.2209 8.37942C17.2193 8.33574 17.2178 8.29178 17.216 8.24777L17.0162 8.25587C17.0179 8.29929 17.0195 8.34275 17.021 8.38651L17.2209 8.37942ZM17.1161 8.35182H17.1469V8.15182H17.1161V8.35182ZM17.1469 8.35182C17.3891 8.35182 17.6182 8.33705 17.8471 8.35658L17.8641 8.1573C17.6243 8.13684 17.3719 8.15182 17.1469 8.15182V8.35182ZM17.8358 8.35496C17.9142 8.37077 17.9914 8.39268 18.0668 8.4205L18.136 8.23288C18.051 8.2015 17.9639 8.17677 17.8753 8.15891L17.8358 8.35496ZM18.0561 8.41585C18.1129 8.4447 18.1679 8.47745 18.2207 8.51387L18.3343 8.34924C18.2742 8.30778 18.2115 8.27046 18.1467 8.23754L18.0561 8.41585ZM18.2215 8.51445C18.2295 8.5198 18.2341 8.5235 18.2464 8.53236L18.363 8.36982C18.3572 8.36566 18.3441 8.35587 18.3334 8.34867L18.2215 8.51445ZM18.2365 8.5242C18.2676 8.55328 18.295 8.57821 18.3212 8.60544L18.4654 8.46694C18.4344 8.43464 18.4016 8.40471 18.3729 8.37798L18.2365 8.5242ZM18.3212 8.60544C18.3468 8.63218 18.37 8.66049 18.3978 8.69353L18.5509 8.56486C18.5255 8.53465 18.4969 8.49972 18.4654 8.46694L18.3212 8.60544ZM18.3905 8.68372C18.3992 8.69699 18.4024 8.70145 18.4082 8.7107L18.5777 8.60443C18.5715 8.59461 18.562 8.58047 18.5582 8.57467L18.3905 8.68372ZM18.408 8.7103C18.4429 8.76652 18.4744 8.82502 18.5023 8.88547L18.6839 8.80168C18.6526 8.73381 18.6172 8.66806 18.5779 8.60483L18.408 8.7103ZM18.4984 8.87576C18.5248 8.95338 18.5458 9.03292 18.5613 9.11375L18.7577 9.07609C18.7405 8.98623 18.7171 8.89777 18.6877 8.81139L18.4984 8.87576ZM18.5598 9.10189C18.5692 9.23681 18.5657 9.37052 18.5657 9.51345H18.7657C18.7657 9.37737 18.7693 9.23206 18.7593 9.08796L18.5598 9.10189ZM18.5657 9.51345V12.2123H18.7657V9.51345H18.5657ZM18.5657 12.2123C18.5657 12.3796 18.5712 12.5375 18.56 12.6956L18.7595 12.7097C18.7713 12.5422 18.7657 12.3705 18.7657 12.2123H18.5657ZM18.5615 12.6839C18.546 12.765 18.525 12.8447 18.4986 12.9226L18.688 12.9868C18.7174 12.9002 18.7408 12.8115 18.758 12.7214L18.5615 12.6839ZM18.5025 12.9128C18.4746 12.9732 18.4431 13.0317 18.4082 13.088L18.5781 13.1934C18.6174 13.1302 18.6528 13.0644 18.6841 12.9966L18.5025 12.9128ZM18.4079 13.0885C18.4028 13.0969 18.3991 13.102 18.3908 13.1148L18.5584 13.2238C18.5625 13.2176 18.5717 13.204 18.5785 13.1929L18.4079 13.0885ZM18.3983 13.1047C18.3709 13.137 18.3467 13.166 18.3206 13.1939L18.4665 13.3307C18.497 13.2982 18.5251 13.2643 18.5509 13.2339L18.3983 13.1047ZM18.3206 13.1939C18.2953 13.2209 18.2708 13.2419 18.2376 13.2729L18.374 13.4191C18.4007 13.3943 18.4351 13.3642 18.4665 13.3307L18.3206 13.1939Z" fill="#666D80" mask="url(#path-1-outside-1_891_11817)"/>
</svg>
