<svg width="30" height="30" viewBox="0 0 30 30" fill="none" xmlns="http://www.w3.org/2000/svg">
<circle cx="15" cy="15" r="15" fill="white" fill-opacity="0.1"/>
<g clip-path="url(#clip0_547_11831)">
<path d="M21.615 11.6666H22.4999C23.4204 11.6666 24.1666 12.4128 24.1666 13.3333V16.6666C24.1666 17.5871 23.4204 18.3333 22.4999 18.3333H21.615C21.2049 21.6218 18.3996 24.1666 14.9999 24.1666V22.4999C17.7613 22.4999 19.9999 20.2613 19.9999 17.4999V12.4999C19.9999 9.73849 17.7613 7.49992 14.9999 7.49992C12.2385 7.49992 9.99992 9.73849 9.99992 12.4999V18.3333H7.49992C6.57944 18.3333 5.83325 17.5871 5.83325 16.6666V13.3333C5.83325 12.4128 6.57944 11.6666 7.49992 11.6666H8.38483C8.79491 8.37799 11.6002 5.83325 14.9999 5.83325C18.3996 5.83325 21.2049 8.37799 21.615 11.6666ZM7.49992 13.3333V16.6666H8.33325V13.3333H7.49992ZM21.6666 13.3333V16.6666H22.4999V13.3333H21.6666ZM11.4661 18.154L12.3496 16.7405C13.1179 17.2218 14.0264 17.4999 14.9999 17.4999C15.9734 17.4999 16.8819 17.2218 17.6503 16.7405L18.5338 18.154C17.5093 18.7957 16.2979 19.1666 14.9999 19.1666C13.7019 19.1666 12.4906 18.7957 11.4661 18.154Z" fill="white"/>
</g>
<defs>
<clipPath id="clip0_547_11831">
<rect width="20" height="20" fill="white" transform="translate(5 5)"/>
</clipPath>
</defs>
</svg>
