<svg width="24" height="24" viewBox="0 0 24 24" fill="none" xmlns="http://www.w3.org/2000/svg">
<path d="M22.1363 11.0525L17.8623 3.30255C17.7135 3.03111 17.4946 2.80457 17.2284 2.64657C16.9622 2.48857 16.6585 2.4049 16.349 2.4043H7.8615C7.55197 2.4049 7.24827 2.48857 6.98209 2.64657C6.71592 2.80457 6.49703 3.03111 6.34825 3.30255L2.07425 11.0525C1.93058 11.3134 1.85524 11.6065 1.85524 11.9043C1.85524 12.2021 1.93058 12.4951 2.07425 12.756L6.34825 20.506C6.49703 20.7775 6.71592 21.004 6.98209 21.162C7.24827 21.32 7.55197 21.4037 7.8615 21.4043H16.349C16.6585 21.4037 16.9622 21.32 17.2284 21.162C17.4946 21.004 17.7135 20.7775 17.8623 20.506L22.1363 12.756C22.2799 12.4951 22.3553 12.2021 22.3553 11.9043C22.3553 11.6065 22.2799 11.3134 22.1363 11.0525ZM20.824 11.7825C20.8445 11.8198 20.8552 11.8616 20.8552 11.9042C20.8552 11.9467 20.8445 11.9885 20.824 12.0258L16.5575 19.7758C16.5364 19.8146 16.5052 19.847 16.4672 19.8696C16.4293 19.8922 16.3859 19.9042 16.3418 19.9043H7.86875C7.82458 19.9042 7.78124 19.8922 7.74329 19.8696C7.70533 19.847 7.67415 19.8146 7.653 19.7758L3.3865 12.0258C3.36602 11.9885 3.35528 11.9467 3.35528 11.9042C3.35528 11.8616 3.36602 11.8198 3.3865 11.7825L7.653 4.03255C7.67418 3.99381 7.70538 3.96147 7.74333 3.93891C7.78129 3.91635 7.8246 3.90439 7.86875 3.9043H16.3418C16.3859 3.90439 16.4292 3.91635 16.4672 3.93891C16.5051 3.96147 16.5363 3.99381 16.5575 4.03255L20.824 11.7825ZM12.0408 8.0008C9.8315 8.0008 8.04075 9.79155 8.04075 12.0008C8.04075 14.21 9.8315 16.0008 12.0408 16.0008C14.2498 16.0008 16.0408 14.21 16.0408 12.0008C16.0408 9.79155 14.2498 8.0008 12.0408 8.0008ZM12.0408 9.5008C13.4215 9.5008 14.5408 10.62 14.5408 12.0008C14.5408 13.3815 13.4215 14.5008 12.0408 14.5008C10.66 14.5008 9.54075 13.3815 9.54075 12.0008C9.54075 10.62 10.66 9.5008 12.0408 9.5008Z" fill="white"/>
</svg>
