<svg width="36" height="36" fill="none" xmlns="http://www.w3.org/2000/svg"><circle cx="18" cy="18" r="18" fill="#fff" fill-opacity=".1"/><path d="m28.136 18.052-4.274-7.75a1.729 1.729 0 0 0-1.513-.898h-8.488a1.73 1.73 0 0 0-1.513.899l-4.274 7.75a1.766 1.766 0 0 0 0 1.703l4.274 7.75a1.73 1.73 0 0 0 1.513.898h8.488a1.73 1.73 0 0 0 1.513-.898l4.274-7.75a1.765 1.765 0 0 0 0-1.704Zm-1.312.73a.252.252 0 0 1 0 .244l-4.267 7.75a.247.247 0 0 1-.215.128h-8.473a.246.246 0 0 1-.216-.128l-4.267-7.75a.253.253 0 0 1 0-.244l4.267-7.75a.247.247 0 0 1 .216-.128h8.473a.246.246 0 0 1 .216.129l4.266 7.75Zm-8.783-3.781a4 4 0 1 0 0 8 4 4 0 0 0 0-8Zm0 1.5a2.5 2.5 0 1 1 0 5 2.5 2.5 0 0 1 0-5Z" fill="#fff"/></svg>