<svg width="239" height="240" viewBox="0 0 239 240" fill="none" xmlns="http://www.w3.org/2000/svg">
<g filter="url(#filter0_f_11_854)">
<path fill-rule="evenodd" clip-rule="evenodd" d="M191 119.9L190.7 125.8L190.1 131.6L188.9 137.2L187.4 142.6L185.4 147.9L183 152.9L180.3 157.7L177.3 162.3L173.9 166.7L170.2 170.7L166.2 174.4L161.9 177.9L157.3 181L152.6 183.7L147.6 186.1L142.4 188.1L137 189.7L131.5 190.8L125.8 191.5L119.9 191.7L114 191.5L108.3 190.8L102.8 189.7L97.4001 188.1L92.2 186.1L87.2 183.7L82.4001 181L77.9001 177.9L73.6 174.4L69.6 170.7L65.9001 166.7L62.5 162.3L59.4001 157.7L56.7001 152.9L54.4001 147.9L52.4001 142.6L50.8 137.2L49.7001 131.6L49 125.8L48.8 119.9L49 113.9L49.7001 108.1L50.8 102.6L52.4001 97.2L54.4001 91.9L56.7001 86.8L59.4001 82L62.5 77.4L65.9001 73.1L69.6 69L73.6 65.3L77.9001 61.9L82.4001 58.8L87.2 56L92.2 53.7L97.4001 51.7L102.8 50.1L108.3 49L114 48.3L119.9 48L125.8 48.3L131.5 49L137 50.1L142.4 51.7L147.6 53.7L152.6 56L157.3 58.8L161.9 61.9L166.2 65.3L170.2 69L173.9 73.1L177.3 77.4L180.3 82L183 86.8L185.4 91.9L187.4 97.2L188.9 102.6L190.1 108.1L190.7 113.9L191 119.9Z" fill="#014CFA" fill-opacity="0.1"/>
</g>
<path fill-rule="evenodd" clip-rule="evenodd" d="M189.5 156.7L189.2 158.6L188.2 160.4L186.6 162.2L183.9 164.2L180.2 166.3L175.2 168.3L168.8 170.3L154.8 173.3L146.3 174.4L128.6 175.8L118.8 175.9L108.9 175.8L91.2 174.4L82.7 173.3L68.7 170.3L62.3 168.3L57.3 166.3L53.6 164.2L50.9 162.2L49.3 160.4L48.3 158.6L48 156.7L48.3 154.9L49.3 153.1L50.9 151.3L53.6 149.3L57.3 147.2L62.3 145.2L68.7 143.2L82.7 140.2L91.2 139.1L108.9 137.7L118.8 137.6L128.6 137.7L146.3 139.1L154.8 140.2L168.8 143.2L175.2 145.2L180.2 147.2L183.9 149.3L186.6 151.3L188.2 153.1L189.2 154.9L189.5 156.7Z" fill="url(#paint0_linear_11_854)"/>
<path fill-rule="evenodd" clip-rule="evenodd" d="M175.5 143.1L174 141.4L168.5 139.1L163.8 137.7L153.2 135.2L142.1 133.3L128.3 131.7L124.6 131.9L124.4 132.2L125.4 133.4L116.9 130.9L112.7 130.3L111.2 130.5L109.9 131.6L109.7 132.6L128.2 154.4L175.5 143.1Z" fill="url(#paint1_linear_11_854)"/>
<path d="M117 87.1008C97.7246 87.1008 82.1006 102.726 82.1006 122C82.1006 141.274 97.7246 156.899 117 156.899C136.274 156.899 151.899 141.274 151.899 122C151.899 102.726 136.274 87.1008 117 87.1008ZM136.086 113.71L113.336 136.46C112.804 136.992 111.941 136.992 111.409 136.46L97.9131 122.963C97.3815 122.432 97.3815 121.568 97.9131 121.036L102.155 116.795C102.687 116.262 103.55 116.262 104.082 116.795L112.373 125.084L129.918 107.54C130.449 107.008 131.313 107.008 131.845 107.54L136.087 111.782C136.619 112.314 136.619 113.178 136.086 113.71Z" fill="url(#paint2_linear_11_854)"/>
<path d="M115 87.1008C95.7246 87.1008 80.1006 102.726 80.1006 122C80.1006 141.274 95.7246 156.899 115 156.899C134.274 156.899 149.899 141.274 149.899 122C149.899 102.726 134.274 87.1008 115 87.1008ZM134.086 113.71L111.336 136.46C110.804 136.992 109.941 136.992 109.409 136.46L95.9131 122.963C95.3815 122.432 95.3815 121.568 95.9131 121.036L100.155 116.795C100.687 116.262 101.55 116.262 102.082 116.795L110.373 125.084L127.918 107.54C128.449 107.008 129.313 107.008 129.845 107.54L134.087 111.782C134.619 112.314 134.619 113.178 134.086 113.71Z" fill="url(#paint3_linear_11_854)"/>
<path d="M134.086 113.71L111.336 136.46C110.804 136.992 109.941 136.992 109.409 136.46L95.9131 122.963C95.3815 122.432 95.3815 121.568 95.9131 121.036L100.155 116.795C100.687 116.263 101.55 116.263 102.082 116.795L110.373 125.084L127.918 107.541C128.449 107.008 129.313 107.008 129.845 107.541L134.087 111.782C134.619 112.314 134.619 113.178 134.086 113.71Z" fill="white"/>
<path d="M67.8891 153.969L67.0135 152.826V143.536H65.8238V152.826L64.9482 153.969H67.8891Z" fill="#90A7DD"/>
<path d="M70.8 142.746L70.7476 142.339L70.6953 142.144L70.5157 141.784L70.2612 141.478L69.9395 141.244L70.0742 140.985L70.164 140.719L70.2089 140.437V140.148L70.164 139.866L70.0742 139.592L69.9395 139.334L69.7749 139.115L69.5653 138.919L69.3408 138.77L69.0864 138.661L68.817 138.59L68.7347 138.348L68.63 138.129L68.4953 137.925L68.3306 137.745L68.1436 137.589L67.934 137.464L67.8742 137.205L67.7769 136.97L67.6497 136.751L67.4925 136.556L67.3129 136.391L67.1109 136.25L66.8939 136.149L66.6544 136.078L66.4 136.039L66.1456 136.047L65.9061 136.094L65.6817 136.18L65.4646 136.297L65.2701 136.438L65.098 136.618L64.9483 136.822L64.8286 137.049L64.7463 137.299L64.4619 137.338L64.2 137.432L63.9681 137.565L63.751 137.737L63.5715 137.941L63.4218 138.176L63.3095 138.426L63.2422 138.708L63.2123 139.005L63.2572 139.412L63.0476 139.537L62.8606 139.686L62.6959 139.874L62.5538 140.077L62.449 140.297L62.3667 140.539L62.3293 140.797L62.3218 141.048L62.3517 141.29L62.4191 141.533L62.5164 141.76L62.6436 141.979L62.4864 142.136L62.2395 142.496L62.1497 142.691L62.0449 143.122L62.0524 143.56L62.0973 143.787L62.2694 144.194L62.5313 144.538L62.8681 144.804L63.2646 144.969L63.4742 145.008L63.4966 145.274L63.5415 145.509L63.6238 145.728L63.7286 145.939L63.8633 146.127L64.0204 146.299L64.2 146.44L64.4021 146.565L64.6191 146.651L64.851 146.714L65.083 146.73L65.3075 146.722L65.532 146.675L65.749 146.597L65.951 146.495L66.1381 146.354L66.3027 146.19L66.4524 146.002L66.6245 146.221L66.8266 146.401L67.0436 146.542L67.283 146.644L67.5225 146.706L67.7844 146.73L68.0388 146.714L68.2932 146.651L68.5476 146.542L68.7721 146.393L68.9742 146.213L69.1388 146.002L69.266 145.775L69.3558 145.524L69.4157 145.266L69.4306 144.992L69.4082 144.726L69.3334 144.452L69.6102 144.39L69.8572 144.296L70.0817 144.163L70.2912 143.99L70.4633 143.787L70.6055 143.56L70.7102 143.302L70.7776 143.036L70.8 142.746Z" fill="url(#paint4_linear_11_854)"/>
<path d="M164.111 154.969L164.986 153.826V144.536H166.176V153.826L167.052 154.969H164.111Z" fill="#90A7DD"/>
<path d="M161.2 143.746L161.252 143.339L161.305 143.144L161.484 142.784L161.739 142.478L162.061 142.244L161.926 141.985L161.836 141.719L161.791 141.437V141.148L161.836 140.866L161.926 140.592L162.061 140.334L162.225 140.115L162.435 139.919L162.659 139.77L162.914 139.661L163.183 139.59L163.265 139.348L163.37 139.129L163.505 138.925L163.669 138.745L163.856 138.589L164.066 138.464L164.126 138.205L164.223 137.97L164.35 137.751L164.507 137.556L164.687 137.391L164.889 137.25L165.106 137.149L165.346 137.078L165.6 137.039L165.854 137.047L166.094 137.094L166.318 137.18L166.535 137.297L166.73 137.438L166.902 137.618L167.052 137.822L167.171 138.049L167.254 138.299L167.538 138.338L167.8 138.432L168.032 138.565L168.249 138.737L168.429 138.941L168.578 139.176L168.69 139.426L168.758 139.708L168.788 140.005L168.743 140.412L168.952 140.537L169.139 140.686L169.304 140.874L169.446 141.077L169.551 141.297L169.633 141.539L169.671 141.797L169.678 142.048L169.648 142.29L169.581 142.533L169.484 142.76L169.356 142.979L169.514 143.136L169.761 143.496L169.85 143.691L169.955 144.122L169.948 144.56L169.903 144.787L169.731 145.194L169.469 145.538L169.132 145.804L168.735 145.969L168.526 146.008L168.503 146.274L168.458 146.509L168.376 146.728L168.271 146.939L168.137 147.127L167.98 147.299L167.8 147.44L167.598 147.565L167.381 147.651L167.149 147.714L166.917 147.73L166.692 147.722L166.468 147.675L166.251 147.597L166.049 147.495L165.862 147.354L165.697 147.19L165.548 147.002L165.375 147.221L165.173 147.401L164.956 147.542L164.717 147.644L164.478 147.706L164.216 147.73L163.961 147.714L163.707 147.651L163.452 147.542L163.228 147.393L163.026 147.213L162.861 147.002L162.734 146.775L162.644 146.524L162.584 146.266L162.569 145.992L162.592 145.726L162.667 145.452L162.39 145.39L162.143 145.296L161.918 145.163L161.709 144.99L161.537 144.787L161.395 144.56L161.29 144.302L161.222 144.036L161.2 143.746Z" fill="url(#paint5_linear_11_854)"/>
<path d="M73.7476 165.979L73.1905 165.217V159.024H72.4334V165.217L71.8762 165.979H73.7476Z" fill="#90A7DD"/>
<path d="M75.6 158.497L75.5667 158.226L75.5333 158.096L75.419 157.856L75.2571 157.652L75.0524 157.496L75.1381 157.324L75.1952 157.146L75.2238 156.958V156.765L75.1952 156.577L75.1381 156.395L75.0524 156.223L74.9476 156.077L74.8143 155.946L74.6714 155.847L74.5095 155.774L74.3381 155.727L74.2857 155.565L74.219 155.419L74.1333 155.284L74.0286 155.164L73.9095 155.059L73.7762 154.976L73.7381 154.804L73.6762 154.647L73.5952 154.501L73.4952 154.37L73.3809 154.261L73.2524 154.167L73.1143 154.099L72.9619 154.052L72.8 154.026L72.6381 154.031L72.4857 154.063L72.3429 154.12L72.2048 154.198L72.0809 154.292L71.9714 154.412L71.8762 154.548L71.8 154.699L71.7476 154.866L71.5667 154.892L71.4 154.955L71.2524 155.044L71.1143 155.158L71 155.294L70.9048 155.45L70.8333 155.617L70.7905 155.805L70.7714 156.004L70.8 156.275L70.6667 156.358L70.5476 156.457L70.4429 156.583L70.3524 156.718L70.2857 156.864L70.2333 157.026L70.2095 157.198L70.2048 157.365L70.2238 157.527L70.2667 157.689L70.3286 157.84L70.4095 157.986L70.3095 158.09L70.1524 158.33L70.0952 158.461L70.0286 158.748L70.0333 159.04L70.0619 159.191L70.1714 159.463L70.3381 159.692L70.5524 159.87L70.8048 159.979L70.9381 160.005L70.9524 160.183L70.9809 160.339L71.0333 160.485L71.1 160.626L71.1857 160.751L71.2857 160.866L71.4 160.96L71.5286 161.044L71.6667 161.101L71.8143 161.143L71.9619 161.153L72.1048 161.148L72.2476 161.117L72.3857 161.064L72.5143 160.997L72.6333 160.903L72.7381 160.793L72.8333 160.668L72.9429 160.814L73.0714 160.934L73.2095 161.028L73.3619 161.096L73.5143 161.137L73.6809 161.153L73.8429 161.143L74.0048 161.101L74.1667 161.028L74.3095 160.929L74.4381 160.809L74.5429 160.668L74.6238 160.517L74.6809 160.35L74.719 160.177L74.7286 159.995L74.7143 159.817L74.6667 159.635L74.8429 159.593L75 159.53L75.1429 159.442L75.2762 159.327L75.3857 159.191L75.4762 159.04L75.5429 158.868L75.5857 158.69L75.6 158.497Z" fill="url(#paint6_linear_11_854)"/>
<path d="M158.252 166.979L158.809 166.217V160.024H159.567V166.217L160.124 166.979H158.252Z" fill="#90A7DD"/>
<path d="M156.4 159.497L156.433 159.226L156.467 159.096L156.581 158.856L156.743 158.652L156.948 158.496L156.862 158.324L156.805 158.146L156.776 157.958V157.765L156.805 157.577L156.862 157.395L156.948 157.223L157.052 157.077L157.186 156.946L157.329 156.847L157.49 156.774L157.662 156.727L157.714 156.565L157.781 156.419L157.867 156.284L157.971 156.164L158.09 156.059L158.224 155.976L158.262 155.804L158.324 155.647L158.405 155.501L158.505 155.37L158.619 155.261L158.748 155.167L158.886 155.099L159.038 155.052L159.2 155.026L159.362 155.031L159.514 155.063L159.657 155.12L159.795 155.198L159.919 155.292L160.029 155.412L160.124 155.548L160.2 155.699L160.252 155.866L160.433 155.892L160.6 155.955L160.748 156.044L160.886 156.158L161 156.294L161.095 156.45L161.167 156.617L161.21 156.805L161.229 157.004L161.2 157.275L161.333 157.358L161.452 157.457L161.557 157.583L161.648 157.718L161.714 157.864L161.767 158.026L161.79 158.198L161.795 158.365L161.776 158.527L161.733 158.689L161.671 158.84L161.59 158.986L161.69 159.09L161.848 159.33L161.905 159.461L161.971 159.748L161.967 160.04L161.938 160.191L161.829 160.463L161.662 160.692L161.448 160.87L161.195 160.979L161.062 161.005L161.048 161.183L161.019 161.339L160.967 161.485L160.9 161.626L160.814 161.751L160.714 161.866L160.6 161.96L160.471 162.044L160.333 162.101L160.186 162.143L160.038 162.153L159.895 162.148L159.752 162.117L159.614 162.064L159.486 161.997L159.367 161.903L159.262 161.793L159.167 161.668L159.057 161.814L158.929 161.934L158.79 162.028L158.638 162.096L158.486 162.137L158.319 162.153L158.157 162.143L157.995 162.101L157.833 162.028L157.69 161.929L157.562 161.809L157.457 161.668L157.376 161.517L157.319 161.35L157.281 161.177L157.271 160.995L157.286 160.817L157.333 160.635L157.157 160.593L157 160.53L156.857 160.442L156.724 160.327L156.614 160.191L156.524 160.04L156.457 159.868L156.414 159.69L156.4 159.497Z" fill="url(#paint7_linear_11_854)"/>
<defs>
<filter id="filter0_f_11_854" x="0.800049" y="0" width="238.2" height="239.7" filterUnits="userSpaceOnUse" color-interpolation-filters="sRGB">
<feFlood flood-opacity="0" result="BackgroundImageFix"/>
<feBlend mode="normal" in="SourceGraphic" in2="BackgroundImageFix" result="shape"/>
<feGaussianBlur stdDeviation="24" result="effect1_foregroundBlur_11_854"/>
</filter>
<linearGradient id="paint0_linear_11_854" x1="118.75" y1="132.145" x2="118.75" y2="186.196" gradientUnits="userSpaceOnUse">
<stop stop-color="#014CFA" stop-opacity="0"/>
<stop offset="1" stop-color="#014CFA" stop-opacity="0.5"/>
</linearGradient>
<linearGradient id="paint1_linear_11_854" x1="153.879" y1="141.058" x2="151.285" y2="146.982" gradientUnits="userSpaceOnUse">
<stop stop-color="#4271DD" stop-opacity="0"/>
<stop offset="1" stop-color="#174CC6" stop-opacity="0.5"/>
</linearGradient>
<linearGradient id="paint2_linear_11_854" x1="117" y1="87.1008" x2="117" y2="156.899" gradientUnits="userSpaceOnUse">
<stop stop-color="#4C7AE2"/>
<stop offset="1" stop-color="#0E43C0"/>
</linearGradient>
<linearGradient id="paint3_linear_11_854" x1="115" y1="87.1008" x2="115" y2="156.899" gradientUnits="userSpaceOnUse">
<stop stop-color="#6A95FA"/>
<stop offset="1" stop-color="#014CFA"/>
</linearGradient>
<linearGradient id="paint4_linear_11_854" x1="66.4225" y1="136.039" x2="66.4225" y2="146.73" gradientUnits="userSpaceOnUse">
<stop stop-color="#B0C5F7"/>
<stop offset="1" stop-color="#7099F5"/>
</linearGradient>
<linearGradient id="paint5_linear_11_854" x1="165.578" y1="137.039" x2="165.578" y2="147.73" gradientUnits="userSpaceOnUse">
<stop stop-color="#B0C5F7"/>
<stop offset="1" stop-color="#7099F5"/>
</linearGradient>
<linearGradient id="paint6_linear_11_854" x1="72.8143" y1="154.026" x2="72.8143" y2="161.153" gradientUnits="userSpaceOnUse">
<stop stop-color="#B0C5F7"/>
<stop offset="1" stop-color="#7099F5"/>
</linearGradient>
<linearGradient id="paint7_linear_11_854" x1="159.186" y1="155.026" x2="159.186" y2="162.153" gradientUnits="userSpaceOnUse">
<stop stop-color="#B0C5F7"/>
<stop offset="1" stop-color="#7099F5"/>
</linearGradient>
</defs>
</svg>
