<svg width="111" height="88" fill="none" xmlns="http://www.w3.org/2000/svg"><g clip-path="url(#a)"><path d="m10.759 70.273.951 2.62 2.62.936-2.62.936-.951 2.62-.952-2.62-2.62-.936 2.62-.935.952-2.62Zm22.7-51.874-4.758-6.91.811-1.528 3.556.187.39 8.25Zm-1.763 1.06-6.598-1.217-.405-1.326 2.106-1.902 4.897 4.445Zm2.854-2.152.5-5.927 1.122-.484 1.856 1.7-3.478 4.71Zm58.816 54.432-.39-.047-.343-.156-.296-.218-.219-.296-.171-.469-.031-.265.046-.39.156-.343.219-.296.296-.218.468-.172.265-.031.39.047.343.156.297.218.218.296.171.468.032.265-.094.515-.11.219-.217.296-.297.218-.343.156-.39.047Zm0-2.075-.25.047-.202.14-.14.203-.047.25.046.25.14.202.204.14.25.047.249-.046.203-.14.14-.204.047-.249-.047-.25-.14-.202-.203-.14-.25-.047ZM21.043 34.15l-.046.578-.156.53-.234.483-.312.453-.375.374-.452.312-.483.234-.53.156-.578.047-.577-.047-.53-.156-.484-.234-.452-.312-.374-.374-.312-.453-.234-.483-.156-.53-.047-.578.047-.576.156-.53.234-.484.312-.453.374-.374.452-.312.484-.234.53-.156.577-.047.577.047.53.156.484.234.452.312.375.374.312.453.234.483.155.53.047.578Zm59.783-10.511 2.215-4.539.203-.296.25-.218.311-.156.328-.063.327.016.453.156.296.202.218.25.156.296.063.328-.016.328-.11.343-2.214 4.57-.203.296-.25.218-.311.156-.328.063-.327-.016-.453-.156-.296-.203-.218-.25-.156-.311-.063-.328.016-.327.11-.36Zm4.789 2.822 4.663-1.95.359-.093h.327l.328.094.296.171.234.234.187.312.14.452v.343l-.093.328-.171.296-.235.234-.311.187-4.664 1.95-.359.094h-.327l-.328-.094-.296-.171-.234-.235-.234-.42-.094-.36v-.327l.094-.327.172-.297.234-.234.312-.187Z" fill="#00A609" fill-opacity=".5"/><path d="m88.032 52.524-.031 1.497-.11 1.45-.17 1.435-.22 1.42-.296 1.388-.452 1.715-.546 1.67-.64 1.637-.717 1.575-.81 1.544-.89 1.482-.967 1.42-1.045 1.372-1.107 1.31-1.186 1.248-1.247 1.185-1.31 1.108-1.373 1.044-1.42.968-1.481.889-1.544.81-1.575.718-1.638.64-1.669.545-1.716.453-1.388.296-1.419.218-1.435.172-1.45.11-1.498.03-1.497-.03-1.45-.11-1.435-.172-1.42-.218-1.388-.296-1.716-.453-1.669-.545-1.637-.64-1.575-.717-1.545-.811-1.481-.89-1.42-.966-1.372-1.046-1.31-1.107-1.248-1.185-1.185-1.248-1.108-1.31-1.045-1.373-.967-1.419-.889-1.482-.81-1.544-.718-1.575-.64-1.638-.546-1.669-.452-1.715-.296-1.388-.219-1.42-.171-1.435-.11-1.45-.03-1.497.03-1.498.11-1.45.171-1.435.219-1.42.296-1.388.452-1.715.546-1.67.64-1.637.717-1.575.811-1.544.89-1.482.966-1.42 1.045-1.372 1.108-1.31 1.185-1.248 1.248-1.185 1.31-1.107 1.373-1.045 1.419-.967 1.481-.89 1.545-.81 1.575-.718 1.638-.64 1.668-.545L49.492 22l1.388-.296 1.42-.218 1.434-.172 1.45-.109 1.498-.031 1.497.031 1.451.11 1.435.17 1.42.22 1.387.296 1.716.452 1.669.546 1.638.64 1.575.717 1.544.81 1.482.89 1.419.967 1.372 1.045 1.31 1.107 1.248 1.185 1.186 1.248 1.107 1.31 1.045 1.373.967 1.42.89 1.48.81 1.545.718 1.575.64 1.638.545 1.669.452 1.715.297 1.389.218 1.419.172 1.435.109 1.45.031 1.498Z" fill="url(#b)"/><path d="m63.607 21.954-1.684-.344-1.716-.233-1.747-.156-1.793-.047-1.498.031-1.45.11-1.435.17-1.42.22-1.387.296-1.716.452-1.67.546-1.637.64-1.575.717-1.544.81-1.482.89-1.42.967-1.372 1.045-1.31 1.107-1.247 1.185-1.186 1.248-1.107 1.31-1.045 1.373-.967 1.42-.89 1.48-.81 1.545-.718 1.575-.64 1.638-.545 1.669-.453 1.715-.296 1.389-.218 1.419-.172 1.435-.109 1.45-.031 1.498.047 1.715.14 1.67.218 1.652.297 1.607.39 1.606.468 1.56.546 1.513.623 1.482.702 1.45.764 1.404.827 1.357.905 1.31.951 1.279 1.03 1.2 1.076 1.155 1.138 1.107 1.201 1.045 1.248.983 1.294.92 1.342.858 23.083-57.443Z" fill="url(#c)"/><g filter="url(#d)"><path d="m56.76 67.107-.546-.032-.53-.109-.515-.187-.468-.25-11.276-6.924-.437-.313-.374-.343-.328-.405-.265-.421-.203-.468-.156-.468-.078-.5-.015-.498.031-.5.11-.498.186-.484.25-.483.312-.437.343-.374.405-.328.422-.265.468-.203.468-.156.499-.078.499-.016.499.032.499.109.483.187.484.25 8.25 5.069 11.854-15.816.359-.405.39-.343.421-.281.452-.234.468-.172.5-.093.498-.047.5.031.499.094.483.156.468.218.452.297.406.358.343.39.28.421.235.453.171.468.094.499.047.499-.032.499-.093.499-.156.483-.218.468-.297.453-14.006 18.654-.405.452-.468.374-.515.312-.546.218-.593.14-.608.048Z" fill="#407B2D"/></g><path d="m56.76 64.222-.546-.031-.53-.11-.515-.187-.468-.25-11.276-6.924-.733-.562-.312-.343-.5-.764-.296-.858-.078-.452.032-.936.078-.452.343-.858.514-.749.328-.312.359-.28.826-.453.89-.218.92-.016.452.078.858.297.42.233 8.252 5.054L67.63 39.314l.359-.406.374-.343.421-.28.453-.235.483-.156.484-.109.499-.031.499.016.499.093.484.156.467.218.453.297.405.358.343.375.281.42.218.453.172.484.094.483.046.5-.03.498-.079.5-.156.483-.218.468-.296.452-14.006 18.67-.406.452-.468.374-.514.312-.546.219-.578.14-.608.047Z" fill="#fff"/></g><defs><linearGradient id="b" x1="56.682" y1="21.174" x2="56.682" y2="83.873" gradientUnits="userSpaceOnUse"><stop stop-color="#00A609"/><stop offset="1" stop-color="#53A33A"/></linearGradient><linearGradient id="c" x1="44.462" y1="21.174" x2="44.462" y2="79.397" gradientUnits="userSpaceOnUse"><stop stop-color="#fff" stop-opacity=".2"/><stop offset="1" stop-color="#fff" stop-opacity="0"/></linearGradient><clipPath id="a"><path fill="#fff" d="M0 0h111v87.842H0z"/></clipPath><filter id="d" x="37.569" y="36.623" width="41.128" height="34.484" filterUnits="userSpaceOnUse" color-interpolation-filters="sRGB"><feFlood flood-opacity="0" result="BackgroundImageFix"/><feBlend in="SourceGraphic" in2="BackgroundImageFix" result="shape"/><feGaussianBlur stdDeviation="2" result="effect1_foregroundBlur_520_6437"/></filter></defs></svg>