<svg width="36" height="36" viewBox="0 0 36 36" fill="none" xmlns="http://www.w3.org/2000/svg">
<g id="Frame" clip-path="url(#clip0_120_678)">
<path id="Vector" d="M0 18C0 22.7739 1.89642 27.3523 5.27208 30.7279C8.64773 34.1036 13.2261 36 18 36C22.7739 36 27.3523 34.1036 30.7279 30.7279C34.1036 27.3523 36 22.7739 36 18C36 13.2261 34.1036 8.64773 30.7279 5.27208C27.3523 1.89642 22.7739 0 18 0C13.2261 0 8.64773 1.89642 5.27208 5.27208C1.89642 8.64773 0 13.2261 0 18Z" fill="#C0DAC2"/>
<path id="Vector_2" d="M18.0005 7.87549C16.443 7.87558 14.9205 8.33751 13.6255 9.20287C12.3305 10.0682 11.3213 11.2981 10.7253 12.7371C10.1293 14.1761 9.97344 15.7594 10.2773 17.287C10.5813 18.8146 11.3313 20.2177 12.4326 21.319C13.534 22.4203 14.9372 23.1702 16.4647 23.474C17.9923 23.7779 19.5757 23.6219 21.0146 23.0258C22.4535 22.4298 23.6834 21.4204 24.5487 20.1254C25.414 18.8304 25.8758 17.3079 25.8758 15.7504V7.87549H18.0005Z" fill="#577458"/>
<path id="Vector_3" d="M14.0628 17.4376C13.9877 17.4421 13.9125 17.4307 13.8422 17.4041C13.7718 17.3774 13.708 17.3361 13.6548 17.2829C13.6016 17.2297 13.5603 17.1659 13.5336 17.0955C13.507 17.0252 13.4956 16.95 13.5001 16.8749V14.6256C13.5001 14.4764 13.5594 14.3333 13.6649 14.2278C13.7704 14.1223 13.9136 14.063 14.0628 14.063C14.212 14.063 14.3551 14.1223 14.4606 14.2278C14.5661 14.3333 14.6254 14.4764 14.6254 14.6256V16.8758C14.6299 16.9508 14.6183 17.0259 14.5916 17.0961C14.5649 17.1664 14.5236 17.2301 14.4704 17.2832C14.4173 17.3363 14.3534 17.3775 14.2832 17.4041C14.2129 17.4307 14.1378 17.4421 14.0628 17.4376ZM18.3089 17.4376C18.2338 17.4421 18.1586 17.4307 18.0883 17.4041C18.0179 17.3774 17.9541 17.3361 17.9009 17.2829C17.8477 17.2297 17.8064 17.1659 17.7797 17.0955C17.7531 17.0252 17.7417 16.95 17.7462 16.8749V14.6256C17.7462 14.4764 17.8055 14.3333 17.911 14.2278C18.0165 14.1223 18.1597 14.063 18.3089 14.063C18.4581 14.063 18.6012 14.1223 18.7067 14.2278C18.8123 14.3333 18.8715 14.4764 18.8715 14.6256V16.8758C18.876 16.9508 18.8644 17.0259 18.8377 17.0961C18.811 17.1664 18.7697 17.2301 18.7165 17.2832C18.6634 17.3363 18.5995 17.3775 18.5293 17.4041C18.459 17.4307 18.3839 17.4421 18.3089 17.4376Z" fill="black"/>
<path id="Vector_4" d="M7.2937 32.3789C7.2937 28.0478 10.8564 25.7817 15.1876 25.7817H20.8128C25.1439 25.7817 28.6405 28.0887 28.6405 32.4199C28.6405 32.4199 24.7813 36.013 18.0625 35.9998C11.3437 35.9866 7.2937 32.3789 7.2937 32.3789Z" fill="#577458"/>
</g>
<defs>
<clipPath id="clip0_120_678">
<rect width="36" height="36" fill="white"/>
</clipPath>
</defs>
</svg>
