<svg width="36" height="36" viewBox="0 0 36 36" fill="none" xmlns="http://www.w3.org/2000/svg"><circle cx="18" cy="18" r="18" fill="#fff" fill-opacity=".1"/><path fill-rule="evenodd" clip-rule="evenodd" d="M22.09 24.864a8.084 8.084 0 1 1 1.106-.972l2.808 2.808a.736.736 0 1 1-1.04 1.04l-2.875-2.876zm-9.437-1.858a6.614 6.614 0 1 0 9.353-9.353 6.614 6.614 0 0 0-9.353 9.353z" fill="#fff"/><g clip-path="url(#a)"><path d="M0 18a18 18 0 1 0 36 0 18 18 0 0 0-36 0z" fill="#CBE0E1"/><path d="M18 7.875a7.875 7.875 0 1 0 7.876 7.875V7.875H18z" fill="#92B4B6"/><path d="M14.063 17.438a.533.533 0 0 1-.563-.563v-2.25a.563.563 0 0 1 1.125 0v2.25a.53.53 0 0 1-.562.563zm4.246 0a.533.533 0 0 1-.563-.563v-2.25a.563.563 0 0 1 1.126 0v2.25a.53.53 0 0 1-.563.563z" fill="#000"/><path d="M7.294 32.379c0-4.331 3.563-6.597 7.894-6.597h5.625c4.331 0 7.828 2.307 7.828 6.638 0 0-3.86 3.593-10.578 3.58-6.72-.013-10.77-3.621-10.77-3.621z" fill="#92B4B6"/></g><defs><clipPath id="a"><path fill="#fff" d="M0 0h36v36H0z"/></clipPath></defs></svg>