<svg width="30" height="30" viewBox="0 0 30 30" fill="none" xmlns="http://www.w3.org/2000/svg">
<g id="Frame">
<path id="Vector" d="M28.1834 10.6518L19.341 1.80939C18.6056 1.07395 17.3912 1.07395 16.6387 1.80939C15.9033 2.54484 15.9033 3.75917 16.6387 4.51172L18.4859 6.35887L13.868 10.9939L12.1063 9.23223C10.8578 7.98369 8.82249 7.98369 7.57395 9.23223L3.98225 12.8239C0.339249 16.4669 0.339249 22.3676 3.98225 26.0106C7.62526 29.6536 13.5259 29.6536 17.1689 26.0106L20.7606 22.4189C22.0091 21.1703 22.0091 19.135 20.7606 17.8865L19.0161 16.142L23.6511 11.507L25.4982 13.3541C26.2337 14.0896 27.448 14.0896 28.2005 13.3541C28.936 12.6016 28.936 11.3872 28.1834 10.6518ZM14.364 17.1853L7.71077 23.8385C7.48843 24.0608 7.21478 24.1634 6.92402 24.1634C6.63327 24.1634 6.35961 24.0608 6.13727 23.8385C5.70969 23.4109 5.70969 22.7096 6.13727 22.2649L12.7905 15.6118C13.218 15.1842 13.9193 15.1842 14.364 15.6118C14.8086 16.0564 14.8086 16.7577 14.364 17.1853Z" fill="#00A609"/>
<path id="Vector_2" d="M14.364 17.1852L7.71078 23.8384C7.48844 24.0607 7.21478 24.1634 6.92403 24.1634C6.63327 24.1634 6.35962 24.0607 6.13728 23.8384C5.70969 23.4108 5.70969 22.7096 6.13728 22.2649L12.7905 15.6117C13.218 15.1841 13.9193 15.1841 14.364 15.6117C14.8087 16.0564 14.8087 16.7576 14.364 17.1852Z" fill="white"/>
</g>
</svg>
