<svg width="30" height="30" viewBox="0 0 30 30" fill="none" xmlns="http://www.w3.org/2000/svg">
<g id="Frame">
<path id="Vector" d="M4.32692 2.26562H24.4231C25.5192 2.26562 26.25 2.99639 26.25 4.09255V25.8329C26.25 26.9291 25.5192 27.6599 24.4231 27.6599C24.0577 27.6599 23.875 27.6599 23.5096 27.4772L15.2885 22.9099C14.7404 22.5445 14.0096 22.5445 13.4615 22.9099L5.24038 27.4772C4.32692 28.0252 3.23077 27.6599 2.68269 26.7464C2.5 26.5637 2.5 26.1983 2.5 25.8329V4.09255C2.5 2.99639 3.23077 2.26562 4.32692 2.26562ZM9.25962 7.74639C8.52885 7.74639 7.98077 8.29447 7.98077 9.02524C7.98077 9.75601 8.52885 10.3041 9.44231 10.3041H19.4904C20.2212 10.3041 20.9519 9.75601 20.9519 9.02524C20.9519 8.29447 20.2212 7.74639 19.4904 7.74639H9.25962ZM9.25962 15.0541C8.52885 15.0541 7.98077 15.6022 7.98077 16.3329C7.98077 17.0637 8.52885 17.7945 9.44231 17.7945H19.4904C20.2212 17.7945 20.9519 17.2464 20.9519 16.3329C20.9519 15.4195 20.2212 15.0541 19.4904 15.0541H9.25962Z" fill="#00A609"/>
<path id="Vector_2" d="M9.25962 7.74609C8.52885 7.74609 7.98077 8.29417 7.98077 9.02494C7.98077 9.75571 8.52885 10.3038 9.44231 10.3038H19.4904C20.2212 10.3038 20.9519 9.75571 20.9519 9.02494C20.9519 8.29417 20.2212 7.74609 19.4904 7.74609H9.25962ZM9.25962 15.0538C8.52885 15.0538 7.98077 15.6019 7.98077 16.3326C7.98077 17.0634 8.52885 17.7942 9.44231 17.7942H19.4904C20.2212 17.7942 20.9519 17.2461 20.9519 16.3326C20.9519 15.4192 20.2212 15.0538 19.4904 15.0538H9.25962Z" fill="white"/>
</g>
</svg>
