<svg width="30" height="30" viewBox="0 0 30 30" fill="none" xmlns="http://www.w3.org/2000/svg">
<g id="Frame">
<path id="Vector" d="M11.9097 15.8363C12.8453 16.0842 14.8885 16.628 15.2128 15.315C15.5462 13.9736 13.5643 13.5274 12.5972 13.3081C12.4896 13.2841 12.3939 13.263 12.3162 13.242L11.687 15.7777L11.9112 15.8378L11.9097 15.8363ZM12.7915 12.1319C13.5717 12.3407 15.2726 12.7973 15.5686 11.6046C15.8705 10.3833 14.2174 10.0167 13.4103 9.83648C13.3314 9.81943 13.2526 9.8014 13.1742 9.7824L12.6032 12.0808L12.7915 12.1319ZM12.7018 25.5376C12.9006 25.5376 13.0994 25.5331 13.2967 25.5226V23.9783C13.2967 23.3969 13.5209 22.8396 13.9245 22.4235L19.2872 16.8803C19.4323 16.7304 19.6185 16.6272 19.8221 16.5842C20.0258 16.5411 20.2376 16.5601 20.4304 16.6386C20.6233 16.7171 20.7885 16.8517 20.9049 17.0251C21.0212 17.1984 21.0835 17.4028 21.0838 17.6119V18.8828H23.8579C25.1906 16.4269 25.684 13.599 25.2622 10.8339C24.8404 8.0687 23.5268 5.51928 21.5233 3.57742C19.5197 1.63557 16.9371 0.408753 14.1723 0.0855324C11.4076 -0.237688 8.61378 0.360575 6.22024 1.78837C3.8267 3.21617 1.96592 5.39447 0.923899 7.9885C-0.118122 10.5825 -0.283717 13.4487 0.452566 16.1465C1.18885 18.8443 2.78626 21.2245 4.99929 22.9211C7.21231 24.6177 9.91847 25.537 12.7018 25.5376ZM15.5357 8.97572C16.9825 9.47746 18.0407 10.2271 17.833 11.6241C17.682 12.6471 17.1185 13.1413 16.3682 13.3156C17.398 13.8534 17.9211 14.6796 17.4219 16.1097C16.8046 17.8868 15.3339 18.0355 13.3804 17.6645L12.9051 19.5753L11.7602 19.2869L12.228 17.4031C11.9306 17.328 11.6272 17.2499 11.3148 17.1643L10.844 19.057L9.7006 18.7716L10.1744 16.8578L9.8411 16.7707C9.67988 16.7283 9.51845 16.6868 9.35684 16.646L7.86518 16.2704L8.43464 14.953C8.43464 14.953 9.27911 15.1783 9.26716 15.1633C9.59149 15.2429 9.73647 15.0296 9.79327 14.8884L10.5421 11.869L10.6303 11.89L10.6632 11.899C10.6242 11.8833 10.5843 11.8703 10.5436 11.86L11.0787 9.70429C11.0936 9.45943 11.0084 9.15147 10.5451 9.0343C10.563 9.02229 9.71256 8.827 9.71256 8.827L10.0175 7.59519L11.5973 7.99327V7.99928C11.8335 8.05937 12.0786 8.11495 12.3297 8.17204L12.7975 6.27925L13.9439 6.56768L13.4835 8.4214C13.7899 8.49201 14.0993 8.56411 14.4013 8.63922L14.8586 6.79601L16.005 7.08293L15.5342 8.97572H15.5357ZM15.4684 23.0785C15.3892 23.1559 15.3348 23.2553 15.3122 23.3641C15.2896 23.4728 15.2998 23.5858 15.3416 23.6887C15.3833 23.7915 15.4547 23.8794 15.5466 23.9412C15.6384 24.003 15.7465 24.0358 15.857 24.0354H28.1579C28.231 24.0356 28.3034 24.0212 28.371 23.9932C28.4385 23.9652 28.4999 23.9241 28.5515 23.8721C28.6032 23.8202 28.6442 23.7585 28.672 23.6906C28.6999 23.6227 28.7142 23.55 28.714 23.4765V21.5988C28.7142 21.5253 28.6999 21.4526 28.672 21.3847C28.6442 21.3168 28.6032 21.2551 28.5515 21.2032C28.4999 21.1513 28.4385 21.1101 28.371 21.0821C28.3034 21.0541 28.231 21.0398 28.1579 21.04H19.9658V19.9884C19.9656 19.8789 19.9333 19.7718 19.8729 19.6806C19.8126 19.5894 19.7268 19.5181 19.6263 19.4756C19.5258 19.4332 19.4151 19.4214 19.308 19.4418C19.201 19.4622 19.1022 19.5139 19.0242 19.5903L15.4699 23.0785H15.4684ZM28.832 26.3533C28.9113 26.2758 28.9657 26.1764 28.9883 26.0677C29.0109 25.9589 29.0006 25.8459 28.9589 25.7431C28.9171 25.6402 28.8457 25.5523 28.7539 25.4905C28.6621 25.4287 28.5539 25.396 28.4434 25.3964H16.1425C16.0696 25.3962 15.9973 25.4104 15.9299 25.4384C15.8624 25.4663 15.8011 25.5073 15.7494 25.5591C15.6978 25.6108 15.6568 25.6723 15.6289 25.7401C15.6009 25.8078 15.5865 25.8804 15.5865 25.9537V27.833C15.5865 28.1409 15.8361 28.3918 16.1425 28.3918H24.3347V29.4418C24.3347 29.9345 24.9265 30.1854 25.2778 29.8399L28.832 26.3533Z" fill="#00A609"/>
<path id="Vector_2" d="M11.9097 15.8364C12.8453 16.0842 14.8885 16.628 15.2128 15.3151C15.5461 13.9736 13.5642 13.5275 12.5972 13.3081C12.4896 13.2841 12.3939 13.2631 12.3162 13.242L11.687 15.7778L11.9112 15.8379L11.9097 15.8364ZM12.7915 12.1319C13.5717 12.3407 15.2726 12.7974 15.5686 11.6046C15.8705 10.3833 14.2174 10.0168 13.4103 9.83653C13.3314 9.81947 13.2526 9.80144 13.1741 9.78245L12.6032 12.0808L12.7915 12.1319ZM15.5357 8.97576C16.9825 9.4775 18.0407 10.2271 17.8329 11.6242C17.682 12.6472 17.1185 13.1414 16.3682 13.3156C17.398 13.8534 17.9211 14.6797 17.4219 16.1098C16.8046 17.8869 15.3339 18.0356 13.3804 17.6645L12.9051 19.5754L11.7602 19.2869L12.228 17.4032C11.9306 17.328 11.6272 17.2499 11.3148 17.1643L10.844 19.0571L9.70059 18.7717L10.1744 16.8579L9.84109 16.7707C9.67987 16.7284 9.51845 16.6868 9.35683 16.646L7.86517 16.2705L8.43463 14.9531C8.43463 14.9531 9.2791 15.1784 9.26715 15.1634C9.59149 15.243 9.73647 15.0297 9.79326 14.8885L10.5421 11.869L10.6303 11.89L10.6631 11.8991C10.6242 11.8834 10.5843 11.8703 10.5436 11.86L11.0787 9.70433C11.0936 9.45947 11.0084 9.15152 10.5451 9.03435C10.563 9.02233 9.71255 8.82704 9.71255 8.82704L10.0175 7.59523L11.5973 7.99332V7.99933C11.8334 8.05941 12.0786 8.115 12.3297 8.17208L12.7975 6.2793L13.9439 6.56772L13.4835 8.42145C13.7899 8.49205 14.0993 8.56416 14.4012 8.63927L14.8586 6.79606L16.005 7.08298L15.5342 8.97576H15.5357Z" fill="white"/>
</g>
</svg>
