<svg width="24" height="24" viewBox="0 0 24 24" fill="none" xmlns="http://www.w3.org/2000/svg">
<g id="Frame" clip-path="url(#clip0_2744_3433)">
<path id="Vector" d="M2.75852 13.4641C2.03621 13.4717 1.34034 13.1927 0.823379 12.6881C0.306422 12.1836 0.0105373 11.4947 0.000554368 10.7724C-0.029203 9.21153 1.14216 8.0023 2.75988 7.96037V13.4655L2.75852 13.4641ZM21.2095 13.4452V7.99419C22.6676 7.87245 23.985 9.15878 23.9999 10.6778C24.0134 12.2333 22.7176 13.5399 21.2095 13.4452ZM15.5948 9.28458C15.4046 9.28009 15.2154 9.31332 15.0381 9.38235C14.8608 9.45138 14.699 9.55484 14.5619 9.68676C14.4248 9.81868 14.3152 9.97645 14.2395 10.151C14.1637 10.3255 14.1232 10.5132 14.1204 10.7035C14.1137 11.4826 14.7832 12.1575 15.5731 12.1643C15.958 12.1657 16.3279 12.0153 16.6025 11.7455C16.877 11.4758 17.034 11.1086 17.0394 10.7238C17.0431 10.5333 17.0082 10.344 16.9368 10.1674C16.8655 9.99076 16.7591 9.83038 16.6242 9.69593C16.4892 9.56147 16.3284 9.45571 16.1515 9.38502C15.9746 9.31433 15.7852 9.28016 15.5948 9.28458ZM6.98543 10.7427C6.98733 10.9331 7.02713 11.1212 7.10251 11.296C7.17788 11.4708 7.28732 11.6289 7.42444 11.761C7.56156 11.893 7.72361 11.9965 7.90113 12.0653C8.07866 12.1341 8.26811 12.1668 8.45842 12.1616C8.84355 12.151 9.2093 11.9903 9.47766 11.7139C9.74602 11.4375 9.89574 11.0671 9.89489 10.6818C9.88001 9.88649 9.2267 9.2697 8.40026 9.27917C8.20969 9.27694 8.02068 9.31365 7.8448 9.38705C7.66892 9.46044 7.50987 9.56897 7.37741 9.70599C7.24495 9.84301 7.14186 10.0056 7.07446 10.1839C7.00706 10.3622 6.97676 10.5523 6.98543 10.7427ZM9.08468 17.7222V16.4737C8.85338 16.4602 8.63967 16.4426 8.42866 16.4399C7.30329 16.4372 6.17657 16.4453 5.0512 16.4372C4.36678 16.4304 4.13548 16.2072 4.13548 15.5417C4.13277 12.3293 4.13277 9.11685 4.13548 5.90035C4.13548 5.20105 4.35325 5.00086 5.09313 5.00086C7.283 4.99816 9.47152 5.00086 11.7547 5.00086C11.7547 4.06215 11.7642 3.9039 11.7398 2.9963C11.7358 2.89891 11.541 2.78123 11.4166 2.70954C10.7213 2.32675 10.417 1.70997 10.605 1.02554C10.6842 0.711923 10.8662 0.433873 11.1219 0.235775C11.3776 0.0376778 11.6923 -0.0690467 12.0158 -0.0673632C12.6813 -0.0578949 13.2548 0.40064 13.4117 1.04583C13.5821 1.74378 13.271 2.34704 12.5771 2.72307C12.431 2.80423 12.2363 2.98006 12.2336 3.11262C12.1997 3.96476 12.2173 4.07027 12.2173 4.9941H18.8316C19.658 4.9941 19.8623 5.18617 19.865 6.01667C19.8705 9.13083 19.8705 12.245 19.865 15.3591C19.865 16.2478 19.6634 16.4304 18.7477 16.4318C17.5425 16.4358 16.3374 16.4385 15.1322 16.4453C15.0727 16.4453 15.0172 16.471 14.9131 16.4994V17.8128C15.3459 17.8128 15.7787 17.8101 16.2102 17.8128C16.7215 17.8168 16.9947 18.0725 16.9974 18.5878C17.0015 19.724 16.9974 20.1136 17.0015 21.2525C17.0015 21.7989 16.7039 22.064 16.1791 22.064C13.3846 22.0681 10.5928 22.0681 7.79564 22.064C7.26407 22.064 6.98543 21.7989 6.99084 21.2443C7.00301 20.1257 6.98813 19.7565 6.9976 18.6406C7.00301 18.0305 7.21537 17.8317 7.84433 17.8155C8.22307 17.806 8.60721 17.802 8.98999 17.7938C8.99676 17.7952 9.01299 17.7749 9.08468 17.7208V17.7222Z" fill="#00A609"/>
<path id="Vector_2" d="M15.5948 9.28481C15.4046 9.28033 15.2154 9.31356 15.0381 9.38259C14.8609 9.45162 14.699 9.55508 14.5619 9.687C14.4249 9.81892 14.3153 9.97669 14.2395 10.1512C14.1637 10.3257 14.1233 10.5135 14.1205 10.7037C14.1137 11.4828 14.7832 12.1578 15.5732 12.1645C15.9581 12.166 16.328 12.0155 16.6025 11.7458C16.8771 11.476 17.0341 11.1088 17.0394 10.724C17.0431 10.5335 17.0082 10.3443 16.9369 10.1676C16.8655 9.99099 16.7592 9.83062 16.6242 9.69616C16.4892 9.56171 16.3285 9.45595 16.1516 9.38526C15.9746 9.31457 15.7853 9.2804 15.5948 9.28481ZM6.98546 10.7429C6.98736 10.9333 7.02716 11.1214 7.10254 11.2962C7.17791 11.4711 7.28735 11.6291 7.42447 11.7612C7.56159 11.8933 7.72364 11.9967 7.90116 12.0655C8.07869 12.1343 8.26814 12.167 8.45845 12.1618C8.84358 12.1512 9.20933 11.9906 9.47769 11.7141C9.74605 11.4377 9.89577 11.0673 9.89492 10.6821C9.88004 9.88673 9.22673 9.26994 8.40029 9.2794C8.20972 9.27718 8.02071 9.31389 7.84483 9.38729C7.66895 9.46068 7.5099 9.56921 7.37744 9.70623C7.24498 9.84325 7.14189 10.0059 7.07449 10.1841C7.00709 10.3624 6.97679 10.5525 6.98546 10.7429Z" fill="white"/>
</g>
<defs>
<clipPath id="clip0_2744_3433">
<rect width="24" height="24" fill="white"/>
</clipPath>
</defs>
</svg>
