<svg width="30" height="30" viewBox="0 0 30 30" fill="none" xmlns="http://www.w3.org/2000/svg">
<g id="Frame">
<g id="Vector">
<path d="M1.3955 13.9538C2.16559 13.9538 2.791 14.5841 2.791 15.3603V25.2059C2.791 25.3906 2.75491 25.5735 2.68478 25.7441C2.61465 25.9148 2.51185 26.0698 2.38227 26.2004C2.25269 26.331 2.09885 26.4346 1.92954 26.5053C1.76023 26.576 1.57876 26.6124 1.3955 26.6124C1.21224 26.6124 1.03078 26.576 0.861466 26.5053C0.692156 26.4346 0.538317 26.331 0.408733 26.2004C0.279149 26.0698 0.176357 25.9148 0.106226 25.7441C0.0360957 25.5735 -2.73078e-09 25.3906 0 25.2059L0 15.3603C0 14.5841 0.623907 13.9538 1.3955 13.9538ZM8.37301 13.9538C9.31791 13.9614 10.2568 14.1027 11.1625 14.3761L19.5988 16.9278C20.3825 17.3045 20.7291 18.2356 20.387 19.0391C20.1353 19.8608 18.6223 19.6862 18.3284 19.5798L9.72631 17.8437C9.46775 17.7918 9.19927 17.8415 8.97593 17.9827C8.7526 18.1239 8.59134 18.3459 8.52522 18.6032V18.6594C8.47984 18.8949 8.52733 19.139 8.65761 19.3398C8.78789 19.5405 8.9907 19.6822 9.22297 19.7348L17.498 21.3023C20.3794 21.8369 21.35 20.4456 21.5866 19.5525C21.7507 18.7611 21.7507 17.944 21.5866 17.1526C23.7778 15.7097 25.6676 15.178 27.259 15.5578C27.7896 15.6367 28.2916 15.8504 28.7177 16.1788C29.1437 16.5073 29.4798 16.9396 29.6943 17.4351C30.5096 19.0102 29.4924 21.3235 28.9815 21.7807C28.014 22.5311 24.8538 24.4069 19.5008 27.4068C18.5709 27.9267 17.4932 28.1126 16.4446 27.9338L4.4638 25.9091C4.19627 25.8632 3.95286 25.7251 3.77505 25.5185C3.59724 25.3118 3.49606 25.0494 3.48875 24.776V15.1355C3.48875 14.4824 4.0132 13.9538 4.66122 13.9538H8.37301ZM19.5913 2C20.3829 1.99995 21.1668 2.15706 21.8982 2.46236C22.6296 2.76767 23.2942 3.21519 23.854 3.77937C24.4138 4.34355 24.8579 5.01334 25.1609 5.75049C25.4638 6.48765 25.6198 7.27773 25.6198 8.07563C25.6198 8.87352 25.4638 9.66361 25.1609 10.4008C24.8579 11.1379 24.4138 11.8077 23.854 12.3719C23.2942 12.9361 22.6296 13.3836 21.8982 13.6889C21.1668 13.9942 20.3829 14.1513 19.5913 14.1513C17.9926 14.1511 16.4594 13.511 15.329 12.3716C14.1986 11.2322 13.5636 9.68691 13.5636 8.07563C13.5636 6.46434 14.1986 4.91904 15.329 3.77965C16.4594 2.64026 17.9926 2.00011 19.5913 2ZM19.5913 5.92789L17.4603 8.07563L19.5913 10.2234L21.7222 8.07563L19.5913 5.92789Z" fill="#00A609"/>
<path d="M1.3955 13.9538C2.16559 13.9538 2.791 14.5841 2.791 15.3603V25.2059C2.791 25.3906 2.75491 25.5735 2.68478 25.7441C2.61465 25.9148 2.51185 26.0698 2.38227 26.2004C2.25269 26.331 2.09885 26.4346 1.92954 26.5053C1.76023 26.576 1.57876 26.6124 1.3955 26.6124C1.21224 26.6124 1.03078 26.576 0.861466 26.5053C0.692156 26.4346 0.538317 26.331 0.408733 26.2004C0.279149 26.0698 0.176357 25.9148 0.106226 25.7441C0.0360957 25.5735 -2.73078e-09 25.3906 0 25.2059L0 15.3603C0 14.5841 0.623907 13.9538 1.3955 13.9538ZM8.37301 13.9538C9.31791 13.9614 10.2568 14.1027 11.1625 14.3761L19.5988 16.9278C20.3825 17.3045 20.7291 18.2356 20.387 19.0391C20.1353 19.8608 18.6223 19.6862 18.3284 19.5798L9.72631 17.8437C9.46775 17.7918 9.19927 17.8415 8.97593 17.9827C8.7526 18.1239 8.59134 18.3459 8.52522 18.6032V18.6594C8.47984 18.8949 8.52733 19.139 8.65761 19.3398C8.78789 19.5405 8.9907 19.6822 9.22297 19.7348L17.498 21.3023C20.3794 21.8369 21.35 20.4456 21.5866 19.5525C21.7507 18.7611 21.7507 17.944 21.5866 17.1526C23.7778 15.7097 25.6676 15.178 27.259 15.5578C27.7896 15.6367 28.2916 15.8504 28.7177 16.1788C29.1437 16.5073 29.4798 16.9396 29.6943 17.4351C30.5096 19.0102 29.4924 21.3235 28.9815 21.7807C28.014 22.5311 24.8538 24.4069 19.5008 27.4068C18.5709 27.9267 17.4932 28.1126 16.4446 27.9338L4.4638 25.9091C4.19627 25.8632 3.95286 25.7251 3.77505 25.5185C3.59724 25.3118 3.49606 25.0494 3.48875 24.776V15.1355C3.48875 14.4824 4.0132 13.9538 4.66122 13.9538H8.37301ZM19.5913 2C20.3829 1.99995 21.1668 2.15706 21.8982 2.46236C22.6296 2.76767 23.2942 3.21519 23.854 3.77937C24.4138 4.34355 24.8579 5.01334 25.1609 5.75049C25.4638 6.48765 25.6198 7.27773 25.6198 8.07563C25.6198 8.87352 25.4638 9.66361 25.1609 10.4008C24.8579 11.1379 24.4138 11.8077 23.854 12.3719C23.2942 12.9361 22.6296 13.3836 21.8982 13.6889C21.1668 13.9942 20.3829 14.1513 19.5913 14.1513C17.9926 14.1511 16.4594 13.511 15.329 12.3716C14.1986 11.2322 13.5636 9.68691 13.5636 8.07563C13.5636 6.46434 14.1986 4.91904 15.329 3.77965C16.4594 2.64026 17.9926 2.00011 19.5913 2ZM19.5913 5.92789L17.4603 8.07563L19.5913 10.2234L21.7222 8.07563L19.5913 5.92789Z" fill="#00A609"/>
<path d="M1.3955 13.9538C2.16559 13.9538 2.791 14.5841 2.791 15.3603V25.2059C2.791 25.3906 2.75491 25.5735 2.68478 25.7441C2.61465 25.9148 2.51185 26.0698 2.38227 26.2004C2.25269 26.331 2.09885 26.4346 1.92954 26.5053C1.76023 26.576 1.57876 26.6124 1.3955 26.6124C1.21224 26.6124 1.03078 26.576 0.861466 26.5053C0.692156 26.4346 0.538317 26.331 0.408733 26.2004C0.279149 26.0698 0.176357 25.9148 0.106226 25.7441C0.0360957 25.5735 -2.73078e-09 25.3906 0 25.2059L0 15.3603C0 14.5841 0.623907 13.9538 1.3955 13.9538ZM8.37301 13.9538C9.31791 13.9614 10.2568 14.1027 11.1625 14.3761L19.5988 16.9278C20.3825 17.3045 20.7291 18.2356 20.387 19.0391C20.1353 19.8608 18.6223 19.6862 18.3284 19.5798L9.72631 17.8437C9.46775 17.7918 9.19927 17.8415 8.97593 17.9827C8.7526 18.1239 8.59134 18.3459 8.52522 18.6032V18.6594C8.47984 18.8949 8.52733 19.139 8.65761 19.3398C8.78789 19.5405 8.9907 19.6822 9.22297 19.7348L17.498 21.3023C20.3794 21.8369 21.35 20.4456 21.5866 19.5525C21.7507 18.7611 21.7507 17.944 21.5866 17.1526C23.7778 15.7097 25.6676 15.178 27.259 15.5578C27.7896 15.6367 28.2916 15.8504 28.7177 16.1788C29.1437 16.5073 29.4798 16.9396 29.6943 17.4351C30.5096 19.0102 29.4924 21.3235 28.9815 21.7807C28.014 22.5311 24.8538 24.4069 19.5008 27.4068C18.5709 27.9267 17.4932 28.1126 16.4446 27.9338L4.4638 25.9091C4.19627 25.8632 3.95286 25.7251 3.77505 25.5185C3.59724 25.3118 3.49606 25.0494 3.48875 24.776V15.1355C3.48875 14.4824 4.0132 13.9538 4.66122 13.9538H8.37301ZM19.5913 2C20.3829 1.99995 21.1668 2.15706 21.8982 2.46236C22.6296 2.76767 23.2942 3.21519 23.854 3.77937C24.4138 4.34355 24.8579 5.01334 25.1609 5.75049C25.4638 6.48765 25.6198 7.27773 25.6198 8.07563C25.6198 8.87352 25.4638 9.66361 25.1609 10.4008C24.8579 11.1379 24.4138 11.8077 23.854 12.3719C23.2942 12.9361 22.6296 13.3836 21.8982 13.6889C21.1668 13.9942 20.3829 14.1513 19.5913 14.1513C17.9926 14.1511 16.4594 13.511 15.329 12.3716C14.1986 11.2322 13.5636 9.68691 13.5636 8.07563C13.5636 6.46434 14.1986 4.91904 15.329 3.77965C16.4594 2.64026 17.9926 2.00011 19.5913 2ZM19.5913 5.92789L17.4603 8.07563L19.5913 10.2234L21.7222 8.07563L19.5913 5.92789Z" fill="#00A609"/>
</g>
<path id="Vector_2" d="M19.5913 2C20.3829 1.99995 21.1668 2.15706 21.8983 2.46236C22.6297 2.76767 23.2942 3.21519 23.854 3.77937C24.4138 4.34355 24.8579 5.01334 25.1609 5.75049C25.4638 6.48765 25.6198 7.27773 25.6198 8.07563C25.6198 8.87352 25.4638 9.66361 25.1609 10.4008C24.8579 11.1379 24.4138 11.8077 23.854 12.3719C23.2942 12.9361 22.6297 13.3836 21.8983 13.6889C21.1668 13.9942 20.3829 14.1513 19.5913 14.1513C17.9926 14.1511 16.4594 13.511 15.329 12.3716C14.1986 11.2322 13.5636 9.68691 13.5636 8.07563C13.5636 6.46434 14.1986 4.91904 15.329 3.77965C16.4594 2.64026 17.9926 2.00011 19.5913 2ZM19.5913 5.92789L17.4604 8.07563L19.5913 10.2234L21.7222 8.07563L19.5913 5.92789Z" fill="white"/>
</g>
</svg>
