<svg width="10" height="10" viewBox="0 0 10 10" fill="none" xmlns="http://www.w3.org/2000/svg">
<g id="Frame" clip-path="url(#clip0_120_891)">
<path id="Vector" d="M2.13672 2.85605C2.13672 3.93123 3.0089 4.80341 4.08408 4.80341C5.15926 4.80341 6.03284 3.93123 6.03284 2.85605C6.03284 1.78087 5.16066 0.908691 4.08408 0.908691C3.0075 0.908691 2.13672 1.77947 2.13672 2.85605Z" fill="white"/>
<path id="Vector_2" d="M5.01765 4.91395H3.48748C1.71372 4.91395 0.277344 6.35032 0.277344 8.12268C0.277344 8.65747 0.711335 9.09146 1.24752 9.09286H7.07421C7.4942 9.09286 7.83579 8.75267 7.83579 8.33128V7.73069C7.83439 6.17672 6.57302 4.91395 5.01765 4.91395ZM6.28182 2.84059C6.28322 3.33478 6.10543 3.81357 5.78343 4.19016C5.74704 4.23216 5.74843 4.29516 5.78763 4.33576C6.35742 4.92515 7.2954 4.94055 7.88479 4.37216C8.17739 4.08936 8.33978 3.70017 8.33698 3.29418C8.33138 2.4892 7.6762 1.82981 6.87121 1.82141C6.65142 1.81861 6.43442 1.86481 6.23563 1.95721C6.16703 1.98801 6.13343 2.0664 6.15863 2.1378C6.24123 2.3618 6.28322 2.59979 6.28182 2.84059Z" fill="white"/>
<path id="Vector_3" d="M7.12066 5.02881H6.69227C6.64467 5.02881 6.60687 5.06661 6.60547 5.11421C6.60547 5.14501 6.62087 5.17301 6.64747 5.18841C7.53225 5.71199 8.07264 6.66258 8.07264 7.69016V8.30894C8.07264 8.46994 8.02364 8.62674 7.93124 8.75833C7.90464 8.79613 7.91304 8.84933 7.95084 8.87733C7.96484 8.88713 7.98164 8.89273 7.99984 8.89273H9.02042C9.40821 8.89273 9.72321 8.57774 9.72321 8.18995V7.63556C9.72321 6.19499 8.55703 5.02881 7.12066 5.02881Z" fill="white"/>
</g>
<defs>
<clipPath id="clip0_120_891">
<rect width="10" height="10" fill="white"/>
</clipPath>
</defs>
</svg>
