<svg width="26" height="26" viewBox="0 0 26 26" fill="none" xmlns="http://www.w3.org/2000/svg">
<g id="Frame">
<path id="Vector" d="M13 23.918C6.97988 23.918 2.08203 19.0204 2.08203 13C2.08203 6.97988 6.97988 2.08203 13 2.08203C19.0204 2.08203 23.918 6.97988 23.918 13C23.918 19.0204 19.0204 23.918 13 23.918ZM13 3.60547C7.8198 3.60547 3.60547 7.8198 3.60547 13C3.60547 18.1802 7.8198 22.3945 13 22.3945C18.1802 22.3945 22.3945 18.1802 22.3945 13C22.3945 7.8198 18.1802 3.60547 13 3.60547ZM13 23.918C10.0103 23.918 7.66797 19.1219 7.66797 13C7.66797 6.87781 10.0103 2.08203 13 2.08203C15.9897 2.08203 18.332 6.87781 18.332 13C18.332 19.1219 15.9897 23.918 13 23.918ZM13 3.60547C11.1985 3.60547 9.19141 7.46357 9.19141 13C9.19141 18.5364 11.1985 22.3945 13 22.3945C14.8017 22.3945 16.8086 18.5364 16.8086 13C16.8086 7.46357 14.8017 3.60547 13 3.60547ZM23.1562 13.7617H2.84375C2.42303 13.7617 2.08203 13.4207 2.08203 13C2.08203 12.5793 2.42303 12.2383 2.84375 12.2383H23.1562C23.5767 12.2383 23.918 12.5793 23.918 13C23.918 13.4207 23.5767 13.7617 23.1562 13.7617ZM13 23.8327C12.5793 23.8327 12.2383 23.4914 12.2383 23.0709V2.84375C12.2383 2.42303 12.5793 2.08203 13 2.08203C13.4207 2.08203 13.7617 2.42303 13.7617 2.84375V23.0709C13.7617 23.4914 13.4207 23.8327 13 23.8327ZM13 23.918C10.352 23.918 7.79289 22.9491 5.79439 21.189C5.63037 21.0443 5.53592 20.8358 5.53592 20.6172C5.53592 20.3986 5.63012 20.1901 5.79439 20.0454C7.79289 18.2853 10.352 17.3164 13 17.3164C15.6482 17.3164 18.2071 18.2853 20.2056 20.0454C20.3696 20.1901 20.4641 20.3986 20.4641 20.6172C20.4641 20.8358 20.3699 21.0443 20.2056 21.189C18.2071 22.9491 15.6482 23.918 13 23.918ZM7.51715 20.6172C9.11244 21.7687 11.0277 22.3945 13 22.3945C14.9723 22.3945 16.8876 21.7687 18.4829 20.6172C16.8876 19.4657 14.9723 18.8398 13 18.8398C11.0277 18.8398 9.11244 19.4657 7.51715 20.6172ZM13 8.68359C10.3515 8.68359 7.79264 7.71443 5.79439 5.95436C5.63012 5.80988 5.53592 5.60143 5.53592 5.38281C5.53592 5.1642 5.62986 4.95574 5.79439 4.81127C7.79264 3.05119 10.3515 2.08203 13 2.08203C15.6482 2.08203 18.2076 3.05119 20.2056 4.81127C20.3696 4.95574 20.4641 5.1642 20.4641 5.38281C20.4641 5.60143 20.3699 5.80988 20.2056 5.95436C18.2076 7.71443 15.6482 8.68359 13 8.68359ZM7.51715 5.38281C9.11219 6.53453 11.0274 7.16016 13 7.16016C14.9723 7.16016 16.8878 6.53453 18.4829 5.38281C16.8881 4.23109 14.9723 3.60547 13 3.60547C11.0274 3.60547 9.11219 4.23109 7.51715 5.38281Z" fill="white"/>
</g>
</svg>
