<svg width="24" height="24" viewBox="0 0 24 24" fill="#00A609" xmlns="http://www.w3.org/2000/svg">
<g id="Frame">
<path id="Vector" d="M22.9016 19.9637C22.9016 20.2683 22.8491 20.5519 22.7456 20.8159C22.5421 21.3364 22.1408 21.7551 21.6293 21.9802C21.3743 22.0928 21.0937 22.1483 20.7891 22.1483H3.36086C2.92349 22.1484 2.4953 22.0229 2.12719 21.7867C1.75908 21.5505 1.46654 21.2136 1.28435 20.8159C1.16352 20.5482 1.10209 20.2575 1.10431 19.9637V7.98481C1.10431 7.37717 1.31586 6.85954 1.74046 6.43644C1.94143 6.23028 2.1825 6.06749 2.4488 5.95808C2.7151 5.84866 3.00099 5.79496 3.28884 5.80028H20.7171C21.3247 5.80028 21.8424 6.01183 22.2655 6.43644C22.6901 6.86104 22.9016 7.37717 22.9016 7.98481V11.2496H17.4523C16.8447 11.2496 16.327 11.4582 15.9039 11.8738C15.6973 12.0719 15.5341 12.3107 15.4246 12.5752C15.3151 12.8396 15.2617 13.124 15.2678 13.4101C15.2828 13.8257 15.3728 14.1948 15.5318 14.5144C15.6594 14.786 15.8724 15.035 16.168 15.2586C16.4636 15.4836 16.8927 15.5947 17.4523 15.5947H22.9016V19.9637ZM19.6368 4.69601H8.73817C9.60238 4.2474 10.4186 3.8153 11.1868 3.39969C11.8589 3.04711 12.5221 2.69452 13.1793 2.34344C13.8349 1.99085 14.348 1.71928 14.7156 1.52724C15.2753 1.22266 15.7764 1.08313 16.216 1.10713C16.6556 1.13114 17.0277 1.20766 17.3323 1.33519C17.6849 1.51073 17.9879 1.74329 18.2445 2.03136L19.6368 4.69601ZM16.372 13.4101C16.372 13.1056 16.4771 12.8505 16.6841 12.642C16.7841 12.5402 16.9038 12.4601 17.0359 12.4064C17.168 12.3527 17.3097 12.3267 17.4523 12.3299C17.7569 12.3299 18.0119 12.4349 18.2205 12.642C18.429 12.8505 18.5326 13.1071 18.5326 13.4101C18.5326 13.7147 18.4275 13.9743 18.2205 14.1903C18.1223 14.2952 18.0032 14.3782 17.8708 14.434C17.7385 14.4899 17.5959 14.5172 17.4523 14.5144C17.3087 14.5172 17.1661 14.4899 17.0338 14.434C16.9014 14.3782 16.7823 14.2952 16.6841 14.1903C16.5828 14.0876 16.503 13.9656 16.4495 13.8317C16.3959 13.6977 16.3696 13.5544 16.372 13.4101Z" fill="white"/>
<path id="Rectangle 1000001185" d="M15 13.5C15 12.1193 16.1193 11 17.5 11H22.8984V16H17.5C16.1193 16 15 14.8807 15 13.5Z" fill="white"/>
<circle id="Ellipse 3952" cx="17.5" cy="13.5" r="1.5" fill="white"/>
</g>
</svg>
