<svg width="24" height="24" viewBox="0 0 24 24" fill="none" xmlns="http://www.w3.org/2000/svg">
<g id="Frame">
<path id="Vector" d="M23.1284 11.4679C23.3319 11.7884 23.44 12.1602 23.4399 12.5399V19.4004C23.4399 20.196 23.1239 20.9591 22.5613 21.5217C21.9987 22.0843 21.2356 22.4004 20.4399 22.4004H4.43994C3.64429 22.4004 2.88123 22.0843 2.31862 21.5217C1.75601 20.9591 1.43994 20.196 1.43994 19.4004V12.5474C1.43995 12.1889 1.53632 11.837 1.71897 11.5285C1.90163 11.22 2.16385 10.9662 2.47818 10.7938C2.79252 10.6214 3.14742 10.5367 3.50574 10.5485C3.86406 10.5603 4.21262 10.6682 4.51494 10.8609L12.4189 15.9004L20.3674 10.8519C20.5892 10.711 20.8365 10.6152 21.0952 10.5699C21.354 10.5246 21.6192 10.5307 21.8755 10.5879C22.1319 10.6451 22.3746 10.7523 22.5895 10.9033C22.8045 11.0543 22.9876 11.2461 23.1284 11.4679ZM17.4399 1.40039C18.2356 1.40039 18.9987 1.71646 19.5613 2.27907C20.1239 2.84168 20.4399 3.60474 20.4399 4.40039V9.40039L12.4564 14.4004L4.43994 9.40039V4.40039C4.43994 3.60474 4.75601 2.84168 5.31862 2.27907C5.88123 1.71646 6.64429 1.40039 7.43994 1.40039H17.4399Z" fill="#00A609"/>
<path id="Vector_2" d="M13.0616 10.1423C12.8963 10.3063 12.6729 10.3983 12.4401 10.3983C12.2073 10.3983 11.9839 10.3063 11.8186 10.1423L9.54059 7.87735L9.50859 7.84535C9.13846 7.46134 8.93433 6.9471 8.94031 6.41379C8.9463 5.88048 9.16193 5.37095 9.54059 4.99535C9.92621 4.61298 10.4473 4.39844 10.9903 4.39844C11.5334 4.39844 12.0545 4.61298 12.4401 4.99535C12.8257 4.61298 13.3468 4.39844 13.8898 4.39844C14.4329 4.39844 14.954 4.61298 15.3396 4.99535C15.7174 5.37014 15.9328 5.87828 15.9397 6.41038C15.9465 6.94248 15.7441 7.45599 15.3761 7.84035L15.3396 7.87785L13.0616 10.1428V10.1423Z" fill="white"/>
</g>
</svg>
