<svg width="24" height="24" viewBox="0 0 24 24" fill="none" xmlns="http://www.w3.org/2000/svg">
<g id="Frame">
<path id="Vector" d="M20.6524 3.12305H3.72029C2.3219 3.12305 1.1875 4.25744 1.1875 5.65601V18.9127C1.1875 20.3111 2.3219 21.4432 3.72029 21.4432H20.6547C22.0533 21.4432 23.1875 20.309 23.1875 18.9127V5.65601C23.1854 4.25744 22.051 3.12305 20.6524 3.12305ZM15.2757 9.08126H18.7924C19.0718 9.08126 19.3295 9.46137 19.3295 9.74056C19.3295 10.0198 19.0716 10.4 18.7924 10.4H15.2757C14.9963 10.4 14.7386 10.0198 14.7386 9.74056C14.7386 9.46137 14.9963 9.08126 15.2757 9.08126ZM15.2757 11.8997H18.7924C19.0718 11.8997 19.3295 12.28 19.3295 12.5592C19.3295 12.8384 19.0716 13.2187 18.7924 13.2187H15.2757C14.9963 13.2187 14.7386 12.8384 14.7386 12.5592C14.7386 12.28 14.9963 11.8997 15.2757 11.8997ZM3.79555 16.7998C3.73021 16.7873 3.66797 16.762 3.6124 16.7254C3.55683 16.6889 3.50902 16.6417 3.4717 16.5866C3.43439 16.5315 3.4083 16.4696 3.39493 16.4045C3.38156 16.3393 3.38117 16.2721 3.39379 16.2068C3.72029 14.5013 4.9942 13.1865 6.60107 12.7247C5.76752 12.2779 5.19185 11.4079 5.19185 10.396C5.19185 8.93303 6.38194 7.74503 7.84285 7.74503C9.30375 7.74503 10.4938 8.93512 10.4938 10.396C10.4938 11.4079 9.91818 12.2779 9.08463 12.7247C10.6959 13.1867 11.9696 14.5078 12.2919 16.2201C12.3057 16.2933 12.3032 16.3686 12.2845 16.4407C12.2658 16.5127 12.2315 16.5798 12.1839 16.637C12.1363 16.6943 12.0766 16.7403 12.0091 16.7718C11.9417 16.8033 11.8681 16.8196 11.7936 16.8193M20.4831 16.0371H15.2757C14.9963 16.0371 14.7386 15.6568 14.7386 15.3776C14.7386 15.0984 14.9965 14.7183 15.2757 14.7183H20.4831C20.7623 14.7183 21.02 15.0986 21.02 15.3776C21.02 15.6568 20.7621 16.0371 20.4831 16.0371Z" fill="white"/>
<path id="Vector_2" d="M15.2757 9.08136H18.7924C19.0718 9.08136 19.3295 9.46147 19.3295 9.74066C19.3295 10.0198 19.0716 10.4001 18.7924 10.4001H15.2757C14.9964 10.4001 14.7387 10.0198 14.7387 9.74066C14.7387 9.46147 14.9964 9.08136 15.2757 9.08136ZM15.2757 11.8998H18.7924C19.0718 11.8998 19.3295 12.2801 19.3295 12.5593C19.3295 12.8385 19.0716 13.2188 18.7924 13.2188H15.2757C14.9964 13.2188 14.7387 12.8385 14.7387 12.5593C14.7387 12.2801 14.9964 11.8998 15.2757 11.8998ZM3.79559 16.7999C3.73025 16.7874 3.66801 16.7621 3.61244 16.7255C3.55687 16.689 3.50906 16.6418 3.47174 16.5867C3.43443 16.5316 3.40834 16.4697 3.39497 16.4046C3.3816 16.3394 3.38121 16.2722 3.39383 16.2069C3.72033 14.5014 4.99424 13.1866 6.60111 12.7248C5.76756 12.278 5.19189 11.4079 5.19189 10.3961C5.19189 8.93312 6.38199 7.74512 7.84289 7.74512C9.30379 7.74512 10.4939 8.93521 10.4939 10.3961C10.4939 11.4079 9.91822 12.278 9.08467 12.7248C10.6959 13.1868 11.9696 14.5078 12.292 16.2202C12.3058 16.2933 12.3032 16.3687 12.2846 16.4407C12.2659 16.5128 12.2315 16.5799 12.1839 16.6371C12.1363 16.6944 12.0766 16.7404 12.0092 16.7719C11.9417 16.8034 11.8681 16.8197 11.7936 16.8194M20.4831 16.0372H15.2757C14.9964 16.0372 14.7387 15.6569 14.7387 15.3777C14.7387 15.0985 14.9966 14.7184 15.2757 14.7184H20.4831C20.7623 14.7184 21.02 15.0987 21.02 15.3777C21.02 15.6569 20.7621 16.0372 20.4831 16.0372Z" fill="#00A609"/>
<path id="Vector_3" d="M3.79559 16.7999C3.73025 16.7874 3.66801 16.7621 3.61244 16.7255C3.55687 16.689 3.50906 16.6418 3.47174 16.5867C3.43443 16.5316 3.40834 16.4697 3.39497 16.4046C3.3816 16.3394 3.38121 16.2722 3.39383 16.2069C3.72033 14.5014 4.99424 13.1866 6.60111 12.7248C5.76756 12.278 5.19189 11.4079 5.19189 10.3961C5.19189 8.93312 6.38199 7.74512 7.84289 7.74512C9.30379 7.74512 10.4939 8.93521 10.4939 10.3961C10.4939 11.4079 9.91822 12.278 9.08467 12.7248C10.6959 13.1868 11.9696 14.5078 12.292 16.2202C12.3058 16.2933 12.3032 16.3687 12.2846 16.4407C12.2659 16.5128 12.2315 16.5799 12.1839 16.6371C12.1363 16.6944 12.0766 16.7404 12.0092 16.7719C11.9417 16.8034 11.8681 16.8197 11.7936 16.8194" fill="#00A609"/>
</g>
</svg>
