<svg width="24" height="24" viewBox="0 0 24 24" fill="none" xmlns="http://www.w3.org/2000/svg">
<g id="Frame">
<path id="Vector" d="M5.01954 3.49883C9.21918 0.049929 15.308 0.185135 19.3505 3.81782L15.8227 7.09302C14.9035 6.37754 13.8019 5.93449 12.6432 5.81429C11.4846 5.69409 10.3155 5.90156 9.26897 6.4131C8.22244 6.92464 7.34054 7.7197 6.72362 8.70778C6.10671 9.69586 5.77958 10.8373 5.77944 12.0021C5.77693 13.4823 6.30253 14.9149 7.26173 16.0422C8.22094 17.1695 9.55084 17.9177 11.0123 18.1523C12.4738 18.3868 13.971 18.0923 15.2348 17.3216C16.4986 16.551 17.446 15.3549 17.9067 13.9482H12.0846V9.45202H22.6995C23.9576 14.7379 21.1664 20.1516 16.1294 22.193C11.0928 24.2335 5.32066 22.2902 2.54412 17.6185C-0.232413 12.9468 0.819444 6.94773 5.01954 3.49883ZM12.1832 19.598C12.0501 19.598 11.9183 19.6243 11.7954 19.6753C11.6725 19.7263 11.5608 19.801 11.4668 19.8951C11.3727 19.9892 11.2981 20.101 11.2472 20.224C11.1964 20.3469 11.1702 20.4787 11.1703 20.6118C11.1703 20.7449 11.1966 20.8766 11.2476 20.9996C11.2986 21.1225 11.3733 21.2342 11.4674 21.3282C11.5615 21.4223 11.6733 21.4969 11.7963 21.5477C11.9192 21.5986 12.051 21.6248 12.1841 21.6247C12.4528 21.6247 12.7106 21.5179 12.9006 21.3279C13.0907 21.1378 13.1974 20.8801 13.1974 20.6113C13.1974 20.3426 13.0907 20.0848 12.9006 19.8948C12.7106 19.7047 12.4528 19.598 12.1841 19.598H12.1832ZM6.29506 17.1322C6.02636 17.1322 5.76867 17.2389 5.57867 17.4289C5.38867 17.6189 5.28193 17.8766 5.28193 18.1453C5.28193 18.414 5.38867 18.6717 5.57867 18.8617C5.76867 19.0517 6.02636 19.1584 6.29506 19.1584C6.56376 19.1584 6.82145 19.0517 7.01145 18.8617C7.20145 18.6717 7.30819 18.414 7.30819 18.1453C7.30819 17.8766 7.20145 17.6189 7.01145 17.4289C6.82145 17.2389 6.56376 17.1322 6.29506 17.1322ZM18.1231 17.1322C17.8544 17.1322 17.5967 17.2389 17.4067 17.4289C17.2167 17.6189 17.1099 17.8766 17.1099 18.1453C17.1099 18.414 17.2167 18.6717 17.4067 18.8617C17.5967 19.0517 17.8544 19.1584 18.1231 19.1584C18.3918 19.1584 18.6495 19.0517 18.8395 18.8617C19.0295 18.6717 19.1362 18.414 19.1362 18.1453C19.1362 17.8766 19.0295 17.6189 18.8395 17.4289C18.6495 17.2389 18.3918 17.1322 18.1231 17.1322ZM3.84623 11.2042C3.71318 11.2042 3.58144 11.2305 3.45854 11.2814C3.33563 11.3323 3.22396 11.407 3.1299 11.5011C3.03585 11.5952 2.96125 11.7069 2.91036 11.8298C2.85947 11.9528 2.8333 12.0845 2.83333 12.2176C2.83336 12.3506 2.85959 12.4823 2.91053 12.6052C2.96148 12.7282 3.03613 12.8398 3.13023 12.9339C3.22433 13.0279 3.33603 13.1025 3.45896 13.1534C3.58189 13.2043 3.71364 13.2305 3.84669 13.2305C4.11538 13.2305 4.37308 13.1237 4.56308 12.9337C4.75307 12.7437 4.85981 12.486 4.85981 12.2173C4.85981 11.9486 4.75307 11.6909 4.56308 11.5009C4.37308 11.3109 4.11538 11.2042 3.84669 11.2042H3.84623ZM20.6118 11.2042C20.3431 11.2042 20.0854 11.3109 19.8954 11.5009C19.7054 11.6909 19.5986 11.9486 19.5986 12.2173C19.5986 12.486 19.7054 12.7437 19.8954 12.9337C20.0854 13.1237 20.3431 13.2305 20.6118 13.2305C20.8805 13.2305 21.1382 13.1237 21.3282 12.9337C21.5182 12.7437 21.6249 12.486 21.6249 12.2173C21.6249 11.9486 21.5182 11.6909 21.3282 11.5009C21.1382 11.3109 20.8805 11.2042 20.6118 11.2042ZM6.2946 5.25972C6.0259 5.25972 5.76821 5.36646 5.57821 5.55646C5.38821 5.74645 5.28147 6.00415 5.28147 6.27285C5.28147 6.54154 5.38821 6.79924 5.57821 6.98924C5.76821 7.17923 6.0259 7.28597 6.2946 7.28597C6.5633 7.28597 6.82099 7.17923 7.01099 6.98924C7.20099 6.79924 7.30773 6.54154 7.30773 6.27285C7.30773 6.00415 7.20099 5.74645 7.01099 5.55646C6.82099 5.36646 6.5633 5.25972 6.2946 5.25972ZM12.1836 2.83334C11.9149 2.83334 11.6571 2.9401 11.4671 3.13015C11.277 3.32019 11.1703 3.57794 11.1703 3.8467C11.1703 4.11546 11.277 4.37321 11.4671 4.56325C11.6571 4.75329 11.9149 4.86006 12.1836 4.86006C12.4524 4.86006 12.7101 4.75329 12.9002 4.56325C13.0902 4.37321 13.197 4.11546 13.197 3.8467C13.197 3.57794 13.0902 3.32019 12.9002 3.13015C12.7101 2.9401 12.4524 2.83334 12.1836 2.83334Z" fill="white"/>
<g id="Vector_2">
<path d="M11.7955 19.675C11.9184 19.624 12.0501 19.5977 12.1832 19.5976C12.452 19.5976 12.7106 19.7044 12.9007 19.8944C13.0907 20.0845 13.1975 20.3422 13.1975 20.611C13.1975 20.8798 13.0907 21.1375 12.9007 21.3276C12.7106 21.5176 12.4529 21.6244 12.1841 21.6244C12.0511 21.6244 11.9193 21.5983 11.7963 21.5474C11.6733 21.4965 11.5616 21.4219 11.4674 21.3279C11.3733 21.2338 11.2986 21.1221 11.2476 20.9992C11.1966 20.8763 11.1704 20.7445 11.1703 20.6115C11.1703 20.4784 11.1964 20.3466 11.2473 20.2236C11.2981 20.1007 11.3727 19.9889 11.4668 19.8948C11.5609 19.8006 11.6725 19.7259 11.7955 19.675Z" fill="#D9D9D9"/>
<path d="M5.57872 17.4286C5.76872 17.2386 6.02641 17.1318 6.29511 17.1318C6.56381 17.1318 6.8215 17.2386 7.0115 17.4286C7.2015 17.6186 7.30824 17.8763 7.30824 18.145C7.30824 18.4137 7.2015 18.6714 7.0115 18.8614C6.8215 19.0514 6.56381 19.1581 6.29511 19.1581C6.02641 19.1581 5.76872 19.0514 5.57872 18.8614C5.38872 18.6714 5.28198 18.4137 5.28198 18.145C5.28198 17.8763 5.38872 17.6186 5.57872 17.4286Z" fill="#D9D9D9"/>
<path d="M17.4067 17.4286C17.5967 17.2386 17.8544 17.1318 18.1231 17.1318C18.3918 17.1318 18.6495 17.2386 18.8395 17.4286C19.0295 17.6186 19.1362 17.8763 19.1362 18.145C19.1362 18.4137 19.0295 18.6714 18.8395 18.8614C18.6495 19.0514 18.3918 19.1581 18.1231 19.1581C17.8544 19.1581 17.5967 19.0514 17.4067 18.8614C17.2167 18.6714 17.11 18.4137 17.11 18.145C17.11 17.8763 17.2167 17.6186 17.4067 17.4286Z" fill="#D9D9D9"/>
<path d="M3.45858 11.2811C3.58149 11.2301 3.71323 11.2039 3.84627 11.2039C4.11497 11.2039 4.37312 11.3106 4.56312 11.5006C4.75312 11.6906 4.85986 11.9483 4.85986 12.217C4.85986 12.4857 4.75312 12.7434 4.56312 12.9334C4.37312 13.1234 4.11543 13.2301 3.84673 13.2301C3.71369 13.2302 3.58194 13.204 3.45901 13.1531C3.33608 13.1022 3.22437 13.0276 3.13027 12.9335C3.03618 12.8395 2.96152 12.7278 2.91058 12.6049C2.85964 12.482 2.8334 12.3503 2.83337 12.2172C2.83334 12.0842 2.85952 11.9524 2.91041 11.8295C2.96129 11.7066 3.03589 11.5949 3.12995 11.5008C3.22401 11.4067 3.33568 11.332 3.45858 11.2811Z" fill="#D9D9D9"/>
<path d="M19.8954 11.5006C20.0854 11.3106 20.3431 11.2039 20.6118 11.2039C20.8805 11.2039 21.1382 11.3106 21.3282 11.5006C21.5182 11.6906 21.625 11.9483 21.625 12.217C21.625 12.4857 21.5182 12.7434 21.3282 12.9334C21.1382 13.1234 20.8805 13.2301 20.6118 13.2301C20.3431 13.2301 20.0854 13.1234 19.8954 12.9334C19.7054 12.7434 19.5987 12.4857 19.5987 12.217C19.5987 11.9483 19.7054 11.6906 19.8954 11.5006Z" fill="#D9D9D9"/>
<path d="M5.57826 5.55612C5.76826 5.36612 6.02595 5.25938 6.29465 5.25938C6.56335 5.25938 6.82104 5.36612 7.01104 5.55612C7.20104 5.74612 7.30778 6.00381 7.30778 6.27251C7.30778 6.54121 7.20104 6.7989 7.01104 6.9889C6.82104 7.1789 6.56335 7.28564 6.29465 7.28564C6.02595 7.28564 5.76826 7.1789 5.57826 6.9889C5.38826 6.7989 5.28152 6.54121 5.28152 6.27251C5.28152 6.00381 5.38826 5.74612 5.57826 5.55612Z" fill="#D9D9D9"/>
<path d="M11.4671 3.12981C11.6572 2.93977 11.9149 2.83301 12.1837 2.83301C12.4524 2.83301 12.7102 2.93977 12.9002 3.12981C13.0903 3.31985 13.197 3.57761 13.197 3.84637C13.197 4.11513 13.0903 4.37288 12.9002 4.56292C12.7102 4.75296 12.4524 4.85972 12.1837 4.85972C11.9149 4.85972 11.6572 4.75296 11.4671 4.56292C11.2771 4.37288 11.1703 4.11513 11.1703 3.84637C11.1703 3.57761 11.2771 3.31985 11.4671 3.12981Z" fill="#D9D9D9"/>
</g>
</g>
</svg>
