<svg width="16" height="16" viewBox="0 0 16 16" fill="none" xmlns="http://www.w3.org/2000/svg">
<g id="Frame">
<path id="Vector" d="M13.4307 12.8136H3.50661C3.22179 12.8136 2.95674 12.672 2.79704 12.4366C2.63735 12.1995 2.60607 11.9015 2.71308 11.6365L3.52307 9.6362V6.59708C3.52307 5.95666 3.64984 5.33435 3.90008 4.74661C4.14044 4.18027 4.48453 3.67156 4.92245 3.23364C5.36037 2.79571 5.86909 2.45163 6.43542 2.21127C7.02316 1.96103 7.64547 1.83426 8.28589 1.83426H8.29742C8.93784 1.83426 9.56015 1.96103 10.1479 2.21127C10.7142 2.45163 11.2229 2.79571 11.6609 3.23364C12.0988 3.67156 12.4429 4.18027 12.6832 4.74661C12.9335 5.33435 13.0602 5.95666 13.0602 6.59708V9.59833L14.1715 11.5311C14.3263 11.7995 14.3246 12.1189 14.1699 12.3872C14.0168 12.6539 13.7385 12.8136 13.4307 12.8136ZM3.79965 11.76H13.0882L12.0066 9.87985V6.59708C12.0066 5.61093 11.6197 4.68076 10.9167 3.97778C10.2137 3.27479 9.28357 2.88791 8.29742 2.88791H8.28589C7.29974 2.88791 6.36957 3.27479 5.66659 3.97778C4.96361 4.68076 4.57672 5.61093 4.57672 6.59708V9.84199L3.79965 11.76ZM6.982 3.03608C6.75975 3.03608 6.56384 2.87638 6.52432 2.65084C6.50621 2.54876 6.49798 2.44505 6.49798 2.34297C6.49798 1.36341 7.2948 0.564941 8.27601 0.564941C9.25723 0.564941 10.054 1.36176 10.054 2.34297C10.054 2.44505 10.0442 2.54876 10.0277 2.65084C9.98325 2.90108 9.74618 3.07065 9.4943 3.02949L8.55918 2.87803C8.3715 2.84675 8.18053 2.84675 7.9912 2.87803L7.05609 3.02949C7.03139 3.03443 7.0067 3.03608 6.982 3.03608ZM8.27437 1.92481C8.41924 1.92481 8.56412 1.93633 8.70735 1.95938L9.05637 2.01535C8.92796 1.71078 8.62668 1.49512 8.27437 1.49512C7.92205 1.49512 7.62078 1.71078 7.49236 2.01535L7.84138 1.95938C7.98626 1.93633 8.13114 1.92481 8.27437 1.92481ZM10.6895 14.7777H6.05841C5.76866 14.7777 5.53159 14.5406 5.53159 14.2508C5.53159 13.9611 5.76866 13.724 6.05841 13.724H10.6895C10.9793 13.724 11.2164 13.9611 11.2164 14.2508C11.2164 14.5406 10.9793 14.7777 10.6895 14.7777Z" fill="#00A609"/>
</g>
</svg>
