<svg width="22" height="22" viewBox="0 0 22 22" fill="none" xmlns="http://www.w3.org/2000/svg"><path d="M18.468 17.619H4.823A1.179 1.179 0 0 1 3.732 16l1.113-2.75V9.07A6.547 6.547 0 0 1 6.77 4.446a6.548 6.548 0 0 1 4.625-1.924h.016a6.547 6.547 0 0 1 4.625 1.924 6.548 6.548 0 0 1 1.924 4.625v4.127l1.528 2.657c.213.37.21.808-.002 1.177-.21.367-.593.587-1.017.587zM5.226 16.17h12.771l-1.487-2.585V9.07a5.063 5.063 0 0 0-1.498-3.601 5.063 5.063 0 0 0-3.602-1.5h-.016a5.063 5.063 0 0 0-3.601 1.5A5.063 5.063 0 0 0 6.294 9.07v4.462L5.226 16.17zM9.6 4.175a.64.64 0 0 1-.629-.53 2.448 2.448 0 0 1 2.41-2.868 2.446 2.446 0 0 1 2.408 2.868.64.64 0 0 1-.733.52l-1.286-.208a2.38 2.38 0 0 0-.78 0l-1.287.209a.517.517 0 0 1-.102.009zm1.777-1.528c.2 0 .399.016.596.047l.48.077a1.168 1.168 0 0 0-1.075-.715c-.485 0-.9.296-1.076.715l.48-.077c.2-.031.399-.047.596-.047zM14.7 20.319H8.332a.727.727 0 0 1-.725-.724c0-.398.326-.724.725-.724h6.367c.399 0 .725.326.725.724a.727.727 0 0 1-.725.724z" fill="#fff"/><circle cx="16.5" cy="4.5" r="2.5" fill="#CC3639"/></svg>