<svg width="20" height="20" viewBox="0 0 20 20" fill="none" xmlns="http://www.w3.org/2000/svg"><g clip-path="url(#a)"><circle cx="10" cy="10" r="7" fill="#fff"/><path d="M10 1.667A8.336 8.336 0 0 0 1.665 10c0 4.6 3.733 8.334 8.333 8.334S18.333 14.6 18.333 10s-3.734-8.333-8.334-8.333zm3.333 9.167h-2.5v2.5a.836.836 0 0 1-.834.833.836.836 0 0 1-.833-.833v-2.5h-2.5A.836.836 0 0 1 5.833 10c0-.458.375-.833.833-.833h2.5v-2.5c0-.458.375-.833.833-.833.459 0 .834.375.834.833v2.5h2.5c.458 0 .833.375.833.833a.836.836 0 0 1-.833.834z" fill="#00A609"/></g><defs><clipPath id="a"><path fill="#fff" d="M0 0h20v20H0z"/></clipPath></defs></svg>