<svg width="24" height="24" viewBox="0 0 24 24" fill="none" xmlns="http://www.w3.org/2000/svg">
<g id="Frame">
<path id="Vector" d="M9.44561 12.669C10.1877 12.8673 11.8081 13.3024 12.0654 12.252C12.3297 11.1789 10.7579 10.8219 9.9909 10.6465C9.90555 10.6272 9.82968 10.6104 9.76804 10.5936L9.26899 12.6222L9.4468 12.6702L9.44561 12.669ZM10.145 9.70549C10.7638 9.87253 12.1128 10.2379 12.3475 9.28367C12.5869 8.30663 11.2759 8.0134 10.6358 7.86919C10.5732 7.85554 10.5107 7.84112 10.4485 7.82592L9.99564 9.66463L10.145 9.70549ZM10.0739 20.4301C10.2315 20.4301 10.3892 20.4265 10.5457 20.418V19.1826C10.5457 18.7175 10.7235 18.2717 11.0435 17.9388L15.2968 13.5043C15.4118 13.3843 15.5595 13.3018 15.721 13.2673C15.8825 13.2329 16.0505 13.248 16.2034 13.3109C16.3564 13.3737 16.4874 13.4814 16.5797 13.6201C16.672 13.7588 16.7214 13.9222 16.7216 14.0895V15.1062H18.9218C19.9788 13.1415 20.3701 10.8792 20.0356 8.66708C19.701 6.45496 18.6592 4.41542 17.0702 2.86194C15.4811 1.30845 13.4329 0.327002 11.2401 0.068426C9.04742 -0.19015 6.83162 0.28846 4.93329 1.4307C3.03497 2.57293 1.55918 4.31558 0.732748 6.3908C-0.093683 8.46602 -0.225017 10.759 0.358932 12.9172C0.94288 15.0755 2.20979 16.9796 3.96495 18.3369C5.72011 19.6942 7.86638 20.4296 10.0739 20.4301ZM12.3214 7.18057C13.4689 7.58196 14.3081 8.18165 14.1434 9.29929C14.0237 10.1177 13.5768 10.5131 12.9817 10.6525C13.7984 11.0827 14.2133 11.7437 13.8174 12.8878C13.3278 14.3095 12.1614 14.4284 10.6121 14.1316L10.2351 15.6602L9.32707 15.4295L9.6981 13.9225C9.46221 13.8624 9.22157 13.7999 8.97382 13.7314L8.60042 15.2456L7.69358 15.0173L8.06936 13.4862L7.80501 13.4165C7.67714 13.3827 7.54912 13.3494 7.42094 13.3168L6.2379 13.0164L6.68954 11.9624C6.68954 11.9624 7.3593 12.1427 7.34981 12.1307C7.60705 12.1943 7.72203 12.0237 7.76708 11.9107L8.36096 9.49518L8.4309 9.512L8.45698 9.51921C8.4261 9.50665 8.39442 9.49621 8.36215 9.48797L8.78653 7.76343C8.79838 7.56754 8.73081 7.32118 8.36334 7.22744C8.37756 7.21783 7.70306 7.0616 7.70306 7.0616L7.94489 6.07615L9.19786 6.39462V6.39942C9.38516 6.4475 9.57956 6.49196 9.77871 6.53763L10.1497 5.0234L11.059 5.25414L10.6938 6.73712C10.9369 6.7936 11.1822 6.85129 11.4217 6.91138L11.7844 5.43681L12.6936 5.66635L12.3202 7.18057H12.3214ZM12.2681 18.4628C12.2052 18.5247 12.1621 18.6043 12.1441 18.6913C12.1262 18.7782 12.1343 18.8687 12.1675 18.9509C12.2006 19.0332 12.2572 19.1036 12.33 19.153C12.4029 19.2024 12.4886 19.2286 12.5763 19.2283H22.3322C22.3901 19.2285 22.4475 19.217 22.5011 19.1946C22.5547 19.1722 22.6033 19.1393 22.6443 19.0977C22.6853 19.0562 22.7178 19.0068 22.7399 18.9525C22.762 18.8982 22.7733 18.84 22.7731 18.7812V17.279C22.7733 17.2203 22.762 17.1621 22.7399 17.1078C22.7178 17.0534 22.6853 17.0041 22.6443 16.9626C22.6033 16.921 22.5547 16.8881 22.5011 16.8657C22.4475 16.8433 22.3901 16.8318 22.3322 16.832H15.835V15.9907C15.8348 15.9031 15.8092 15.8174 15.7613 15.7445C15.7134 15.6715 15.6454 15.6145 15.5657 15.5805C15.486 15.5465 15.3982 15.5371 15.3133 15.5534C15.2283 15.5697 15.15 15.6111 15.0881 15.6723L12.2693 18.4628H12.2681ZM22.8668 21.0826C22.9296 21.0207 22.9728 20.9411 22.9907 20.8541C23.0086 20.7672 23.0005 20.6767 22.9674 20.5945C22.9343 20.5122 22.8777 20.4418 22.8048 20.3924C22.732 20.343 22.6462 20.3168 22.5586 20.3171H12.8027C12.7448 20.3169 12.6875 20.3284 12.634 20.3507C12.5805 20.373 12.5319 20.4058 12.4909 20.4473C12.45 20.4887 12.4175 20.5379 12.3953 20.592C12.3731 20.6462 12.3617 20.7043 12.3617 20.7629V22.2664C12.3617 22.5127 12.5597 22.7134 12.8027 22.7134H19.2999V23.5535C19.2999 23.9476 19.7693 24.1483 20.0479 23.8719L22.8668 21.0826Z" fill="white"/>
</g>
</svg>
