<svg width="24" height="24" viewBox="0 0 24 24" fill="none" xmlns="http://www.w3.org/2000/svg">
<g id="Frame">
<path id="Vector" d="M12.0393 22.3732C11.4262 22.3732 10.8143 22.3172 10.2112 22.2061C10.1362 22.1923 10.0647 22.1638 10.0007 22.1223C9.93673 22.0808 9.88155 22.0271 9.83831 21.9643C9.79508 21.9015 9.76464 21.8308 9.74874 21.7562C9.73284 21.6816 9.73178 21.6046 9.74563 21.5296C9.75948 21.4546 9.78797 21.3831 9.82946 21.3191C9.87096 21.2551 9.92465 21.1999 9.98747 21.1567C10.0503 21.1135 10.121 21.083 10.1956 21.0671C10.2702 21.0512 10.3472 21.0502 10.4222 21.064C12.5306 21.4535 14.7087 21.0681 16.5555 19.9789L16.56 19.9765C17.6119 19.3763 18.5346 18.5738 19.2749 17.6152C20.0152 16.6566 20.5584 15.561 20.8732 14.3915C21.188 13.222 21.2682 12.0017 21.1091 10.8011C20.9501 9.60045 20.5549 8.44317 19.9465 7.39598C19.3582 6.38816 18.6468 5.55285 17.7724 4.84481C17.7114 4.79741 17.6605 4.73832 17.6226 4.67099C17.5847 4.60367 17.5606 4.52947 17.5518 4.45273C17.543 4.37599 17.5495 4.29826 17.5711 4.22409C17.5926 4.14991 17.6288 4.08078 17.6774 4.02075C17.726 3.96071 17.7861 3.91098 17.8541 3.87445C17.9222 3.83793 17.9969 3.81535 18.0738 3.80804C18.1507 3.80073 18.2283 3.80883 18.302 3.83187C18.3757 3.85491 18.4441 3.89243 18.5032 3.94223C19.4875 4.7391 20.2891 5.67895 20.95 6.81168C21.6333 7.99145 22.0767 9.29454 22.255 10.6462C22.4333 11.9978 22.3429 13.3713 21.989 14.6879C21.6351 16.0044 21.0246 17.2382 20.1927 18.3182C19.3607 19.3982 18.3236 20.3033 17.141 20.9815C15.5951 21.8923 13.8336 22.3728 12.0393 22.3732ZM12.0393 22.4904C11.4193 22.49 10.8006 22.4334 10.1908 22.3212C10.0094 22.2874 9.84882 22.1831 9.74426 22.031C9.63969 21.879 9.5997 21.6917 9.63307 21.5102C9.66643 21.3287 9.77041 21.1679 9.92221 21.063C10.074 20.9581 10.2612 20.9176 10.4428 20.9506C12.5237 21.3352 14.6735 20.9549 16.4962 19.8797L16.5025 19.8762C18.0565 18.9838 19.3124 17.6523 20.1125 16.0489C20.9126 14.4454 21.2213 12.6414 21 10.8631C20.8493 9.66053 20.4567 8.50091 19.8459 7.4541C19.2656 6.45824 18.5625 5.63418 17.6993 4.93504C17.6268 4.87793 17.5664 4.80699 17.5215 4.72634C17.4767 4.64569 17.4483 4.55693 17.438 4.46522C17.4278 4.37352 17.4358 4.28068 17.4617 4.19211C17.4876 4.10354 17.5309 4.021 17.5889 3.94928C17.647 3.87755 17.7187 3.81808 17.8 3.7743C17.8812 3.73053 17.9703 3.70333 18.0622 3.69427C18.154 3.68522 18.2467 3.69451 18.3349 3.72158C18.4231 3.74866 18.5051 3.79298 18.5761 3.85199C19.5731 4.65895 20.3824 5.60793 21.0504 6.75309C21.7413 7.9461 22.1898 9.26382 22.3701 10.6306C22.5504 11.9974 22.459 13.3864 22.1012 14.7178C21.7433 16.0491 21.126 17.2967 20.2848 18.3889C19.4435 19.4811 18.3948 20.3965 17.1989 21.0823C15.6351 22.0026 13.8538 22.4881 12.0393 22.4886V22.4904ZM10.3157 21.1714C10.1998 21.1715 10.0881 21.2149 10.0026 21.2932C9.91702 21.3715 9.86385 21.4789 9.85348 21.5944C9.84311 21.7098 9.8763 21.825 9.94653 21.9173C10.0168 22.0095 10.1189 22.0722 10.233 22.0929C12.5873 22.5277 15.0194 22.0979 17.0822 20.8826C18.2534 20.2136 19.2807 19.3195 20.1048 18.2516C20.9288 17.1838 21.5334 15.9634 21.8836 14.6608C22.2338 13.3582 22.3227 11.9992 22.1452 10.6621C21.9678 9.32493 21.5274 8.03617 20.8495 6.87004C20.1961 5.74973 19.4046 4.8216 18.43 4.03246C18.3827 3.9936 18.3281 3.96449 18.2694 3.94681C18.2108 3.92912 18.1492 3.92322 18.0883 3.92943C18.0273 3.93564 17.9682 3.95385 17.9143 3.983C17.8604 4.01215 17.8129 4.05168 17.7743 4.09929C17.7358 4.14691 17.707 4.20168 17.6897 4.26046C17.6724 4.31923 17.6669 4.38084 17.6736 4.44175C17.6802 4.50265 17.6988 4.56165 17.7283 4.61534C17.7578 4.66902 17.7976 4.71634 17.8455 4.75457C18.7312 5.47152 19.4512 6.31645 20.0468 7.33738C20.6609 8.39836 21.0593 9.5702 21.2193 10.7856C21.3793 12.001 21.2976 13.2361 20.9789 14.4198C20.6602 15.6035 20.1109 16.7127 19.3623 17.6835C18.6138 18.6544 17.6809 19.4678 16.6172 20.0771L16.6143 20.0787C14.7434 21.1825 12.5367 21.5729 10.4006 21.1782C10.3726 21.173 10.3442 21.1705 10.3157 21.1704V21.1714ZM17.9599 3.41605L20.9817 3.99355C21.337 4.08262 21.6037 4.43887 21.5149 4.79348V4.83801C21.4261 5.19332 21.0696 5.46004 20.715 5.37121L17.6932 4.79348C17.3379 4.70465 17.0711 4.34816 17.16 3.99355V3.94926C17.25 3.59371 17.6043 3.32793 17.9599 3.41605ZM20.8554 5.45816C20.803 5.45814 20.7508 5.45176 20.7 5.43918L17.6765 4.86098C17.4845 4.8117 17.3165 4.6953 17.2029 4.53285C17.1463 4.45471 17.1071 4.36543 17.0877 4.27095C17.0684 4.17647 17.0694 4.07896 17.0906 3.98488V3.94012L17.0927 3.93191C17.1951 3.52176 17.5992 3.25457 17.9751 3.34738L20.9986 3.92559C21.1906 3.9748 21.3587 4.09122 21.4722 4.25371C21.5288 4.33186 21.568 4.42113 21.5873 4.51561C21.6067 4.61009 21.6057 4.70761 21.5845 4.80168V4.84621L21.5824 4.85465C21.5332 5.04673 21.4168 5.21481 21.2543 5.32832C21.1377 5.41136 20.9985 5.45668 20.8554 5.45816ZM17.7084 4.72551L20.7318 5.30348C20.8078 5.32138 20.8868 5.32265 20.9634 5.3072C21.0399 5.29175 21.1122 5.25994 21.1753 5.21395C21.3077 5.1214 21.4033 4.98514 21.4453 4.8291V4.78504L21.4474 4.7766C21.4653 4.7006 21.4665 4.62163 21.4511 4.5451C21.4356 4.46856 21.4038 4.39627 21.3579 4.33316C21.2639 4.199 21.1252 4.10276 20.9667 4.06176L17.9432 3.48355C17.6423 3.40832 17.3175 3.62418 17.2298 3.95793V4.00223L17.2279 4.01043C17.2101 4.08627 17.2089 4.16506 17.2243 4.24143C17.2397 4.31779 17.2714 4.38993 17.3172 4.45293C17.4109 4.58757 17.5497 4.68426 17.7084 4.72551ZM11.9118 1.59355C12.525 1.59376 13.1369 1.6497 13.74 1.76066C13.815 1.77451 13.8865 1.803 13.9505 1.84449C14.0145 1.88599 14.0696 1.93968 14.1129 2.0025C14.1561 2.06532 14.1865 2.13604 14.2024 2.21063C14.2183 2.28521 14.2194 2.3622 14.2056 2.43719C14.1917 2.51218 14.1632 2.58371 14.1217 2.64769C14.0802 2.71168 14.0265 2.76686 13.9637 2.81009C13.9009 2.85333 13.8302 2.88376 13.7556 2.89967C13.681 2.91557 13.604 2.91662 13.529 2.90277C11.4206 2.51333 9.24247 2.8987 7.39567 3.98793C7.39411 3.98865 7.39262 3.98951 7.39122 3.99051C5.81725 4.89419 4.54525 6.24261 3.73483 7.86657C2.92441 9.49053 2.61169 11.3177 2.8359 13.1187C2.98848 14.3367 3.38607 15.5113 4.00473 16.5715C4.59301 17.5793 5.30411 18.4144 6.1788 19.1225C6.29501 19.2205 6.36817 19.3601 6.38256 19.5115C6.39695 19.6628 6.35143 19.8138 6.25576 19.9319C6.1601 20.0501 6.02193 20.126 5.8709 20.1434C5.71988 20.1608 5.56805 20.1183 5.44801 20.025C4.46223 19.2282 3.66184 18.2886 3.00114 17.1556C2.3179 15.9758 1.8744 14.6727 1.6961 13.3211C1.51781 11.9695 1.60823 10.5959 1.96217 9.27933C2.31611 7.96274 2.9266 6.72902 3.7586 5.64899C4.5906 4.56896 5.62773 3.66389 6.81044 2.98574C8.35623 2.07483 10.1176 1.59414 11.9118 1.59355ZM11.9118 1.47754C12.5319 1.47786 13.1506 1.53442 13.7604 1.64652C13.9409 1.6812 14.1004 1.7858 14.2041 1.93754C14.3079 2.08929 14.3475 2.27588 14.3143 2.45668C14.2811 2.63747 14.1778 2.79783 14.0269 2.9028C13.876 3.00778 13.6897 3.04888 13.5086 3.01715C11.4276 2.63279 9.27783 3.01307 7.45497 4.08801L7.44887 4.09152C5.89484 4.98376 4.63896 6.31513 3.83884 7.91854C3.03872 9.52194 2.73001 11.326 2.95145 13.1042C3.10202 14.3068 3.4946 15.4664 4.10551 16.5132C4.6863 17.5093 5.38872 18.3333 6.25216 19.0322C6.39301 19.1494 6.48206 19.3173 6.50003 19.4996C6.51799 19.6819 6.46343 19.864 6.34816 20.0064C6.23288 20.1488 6.06617 20.24 5.8841 20.2604C5.70203 20.2808 5.51926 20.2287 5.37536 20.1153C4.37833 19.3083 3.56903 18.3593 2.90106 17.2142C2.21009 16.0212 1.76155 14.7035 1.58119 13.3367C1.40083 11.9699 1.4922 10.581 1.85006 9.24957C2.20793 7.91819 2.82523 6.6706 3.66653 5.57842C4.50784 4.48624 5.55658 3.57099 6.75255 2.8852C8.31608 1.96462 10.0974 1.47908 11.9118 1.47895V1.47754ZM13.6354 2.79637C13.7514 2.79633 13.8631 2.75291 13.9487 2.67466C14.0343 2.59641 14.0875 2.48898 14.0979 2.37349C14.1083 2.258 14.0752 2.14279 14.0049 2.05051C13.9347 1.95823 13.8325 1.89556 13.7184 1.8748C11.364 1.44021 8.93189 1.86998 6.86903 3.08512C5.69786 3.75416 4.67068 4.64837 3.8467 5.71621C3.02271 6.78405 2.41821 8.00441 2.06803 9.30696C1.71785 10.6095 1.62892 11.9685 1.80636 13.3055C1.98381 14.6426 2.42412 15.9313 3.10192 17.0975C3.75536 18.2175 4.54661 19.1459 5.52137 19.9348C5.61723 20.0113 5.73947 20.0469 5.86141 20.0336C5.98336 20.0204 6.09512 19.9594 6.17229 19.8641C6.24947 19.7687 6.28581 19.6467 6.27337 19.5247C6.26093 19.4027 6.20073 19.2905 6.1059 19.2127C5.2202 18.4957 4.5002 17.6508 3.90465 16.6299C2.98678 15.0441 2.55735 13.2227 2.67017 11.3939C2.78299 9.56505 3.43305 7.81022 4.53887 6.34926C5.29545 5.34973 6.24619 4.51338 7.33403 3.89043L7.33684 3.88879C9.2078 2.78515 11.4145 2.39453 13.5506 2.78887C13.5786 2.79406 13.607 2.79673 13.6354 2.79684V2.79637ZM5.99153 20.5514L2.96973 19.9737C2.61419 19.8849 2.3477 19.5284 2.43653 19.1738V19.1295C2.52536 18.7739 2.88184 18.5072 3.23645 18.5961L6.25778 19.1738C6.61333 19.2629 6.88005 19.6191 6.79098 19.9737V20.0182C6.70309 20.3736 6.34708 20.6403 5.99153 20.5514ZM3.09606 18.5091C3.14836 18.5091 3.20046 18.5155 3.25122 18.5281L6.27465 19.1063C6.46676 19.1554 6.63486 19.2718 6.74833 19.4344C6.80488 19.5125 6.84417 19.6018 6.86356 19.6963C6.88296 19.7908 6.88203 19.8883 6.86083 19.9824V20.0269L6.85872 20.0354C6.7563 20.445 6.35153 20.7122 5.97653 20.6194L2.95309 20.0412C2.76101 19.9921 2.59294 19.8756 2.47942 19.7131C2.42297 19.635 2.38377 19.5458 2.36441 19.4514C2.34505 19.357 2.34599 19.2596 2.36715 19.1656V19.1208L2.36926 19.1126C2.41835 18.9205 2.53479 18.7524 2.69739 18.6389C2.81389 18.5559 2.95302 18.5106 3.09606 18.5091ZM6.24301 19.242L3.21958 18.6638C3.14358 18.6459 3.0646 18.6446 2.98806 18.66C2.91152 18.6755 2.83923 18.7073 2.77614 18.7533C2.64379 18.846 2.54823 18.9822 2.50614 19.1382V19.1825L2.50403 19.1907C2.48622 19.2667 2.48502 19.3457 2.50051 19.4222C2.516 19.4987 2.54782 19.571 2.5938 19.6341C2.68767 19.7682 2.82628 19.8644 2.98473 19.9055L6.00817 20.4837C6.30911 20.5589 6.63395 20.3431 6.72137 20.0093V19.965L6.72348 19.9568C6.7414 19.8808 6.74266 19.8018 6.72716 19.7253C6.71167 19.6487 6.67979 19.5765 6.63372 19.5134C6.53995 19.3793 6.40141 19.2831 6.24301 19.242Z" fill="#00a609"/>
<path id="Vector_2" d="M12 4.14844C7.66406 4.14844 4.14844 7.66406 4.14844 12C4.14844 16.3359 7.66406 19.8516 12 19.8516C16.3359 19.8516 19.8516 16.3359 19.8516 12C19.8516 7.66406 16.3359 4.14844 12 4.14844ZM12.5044 16.3952V17.2052C12.5013 17.3562 12.4392 17.4999 12.3314 17.6056C12.2236 17.7112 12.0787 17.7704 11.9277 17.7704C11.7767 17.7704 11.6318 17.7112 11.524 17.6056C11.4162 17.4999 11.3541 17.3562 11.351 17.2052V16.358C10.8188 16.2146 10.3486 15.9001 10.013 15.4629C9.67746 15.0257 9.49516 14.4901 9.4943 13.939C9.49275 13.8623 9.50652 13.786 9.53481 13.7147C9.5631 13.6434 9.60533 13.5784 9.65903 13.5236C9.71273 13.4688 9.77683 13.4253 9.84756 13.3956C9.9183 13.3659 9.99425 13.3506 10.071 13.3506C10.1477 13.3506 10.2237 13.3659 10.2944 13.3956C10.3651 13.4253 10.4292 13.4688 10.4829 13.5236C10.5366 13.5784 10.5789 13.6434 10.6071 13.7147C10.6354 13.786 10.6492 13.8623 10.6477 13.939C10.6476 14.2067 10.727 14.4684 10.8757 14.691C11.0244 14.9136 11.2358 15.0871 11.4831 15.1895C11.7304 15.2919 12.0026 15.3187 12.2652 15.2665C12.5277 15.2142 12.7689 15.0852 12.9581 14.8959C13.1473 14.7065 13.2762 14.4653 13.3283 14.2027C13.3804 13.9402 13.3535 13.668 13.251 13.4207C13.1484 13.1735 12.9748 12.9622 12.7521 12.8136C12.5294 12.665 12.2677 12.5858 12 12.5859C11.392 12.5861 10.8046 12.3652 10.3474 11.9644C9.89015 11.5635 9.59426 11.0101 9.51485 10.4073C9.43543 9.80445 9.57791 9.1933 9.91573 8.68774C10.2536 8.18217 10.7637 7.81668 11.351 7.65937V6.79523C11.351 6.64232 11.4118 6.49567 11.5199 6.38754C11.628 6.27942 11.7747 6.21867 11.9276 6.21867C12.0805 6.21867 12.2271 6.27942 12.3353 6.38754C12.4434 6.49567 12.5041 6.64232 12.5041 6.79523V7.62211C13.069 7.73937 13.5763 8.04754 13.9408 8.49481C14.3052 8.94209 14.5045 9.50119 14.5052 10.0781V10.0943C14.5009 10.2458 14.4372 10.3894 14.3278 10.4943C14.2184 10.5991 14.0721 10.6567 13.9206 10.6546C13.7691 10.6525 13.6245 10.5908 13.5181 10.4829C13.4116 10.3751 13.3519 10.2297 13.3519 10.0781C13.3518 9.81042 13.2724 9.54875 13.1236 9.3262C12.9748 9.10365 12.7633 8.93024 12.516 8.82789C12.2686 8.72554 11.9965 8.69886 11.7339 8.75121C11.4714 8.80357 11.2303 8.93262 11.0411 9.12203C10.8519 9.31144 10.7232 9.5527 10.6711 9.8153C10.6191 10.0779 10.6461 10.35 10.7488 10.5973C10.8514 10.8445 11.0251 11.0558 11.2478 11.2043C11.4705 11.3528 11.7323 11.4319 12 11.4316C12.6206 11.4325 13.2189 11.6634 13.6791 12.0797C14.1393 12.4961 14.4288 13.0683 14.4916 13.6857C14.5544 14.3031 14.386 14.9219 14.0191 15.4224C13.6521 15.9228 13.1126 16.2695 12.5048 16.3952H12.5044Z" fill="#00a609"/>
</g>
</svg>
