<svg width="24" height="24" viewBox="0 0 24 24" fill="none" xmlns="http://www.w3.org/2000/svg">
<g id="Frame">
<path id="Vector" d="M1.06988 11.1952C1.66028 11.1952 2.13977 11.6801 2.13977 12.2772V19.8507C2.13977 19.9927 2.1121 20.1334 2.05833 20.2647C2.00456 20.396 1.92575 20.5152 1.82641 20.6157C1.72706 20.7162 1.60912 20.7959 1.47931 20.8502C1.34951 20.9046 1.21038 20.9326 1.06988 20.9326C0.929385 20.9326 0.790262 20.9046 0.660457 20.8502C0.530653 20.7959 0.41271 20.7162 0.313362 20.6157C0.214014 20.5152 0.135207 20.396 0.0814401 20.2647C0.0276734 20.1334 -2.0936e-09 19.9927 0 19.8507L0 12.2772C0 11.6801 0.478328 11.1952 1.06988 11.1952ZM6.41931 11.1952C7.14373 11.2011 7.86353 11.3097 8.55792 11.52L15.0258 13.4829C15.6265 13.7727 15.8923 14.4889 15.63 15.107C15.4371 15.7391 14.2771 15.6047 14.0518 15.5229L7.45684 14.1875C7.25861 14.1475 7.05277 14.1858 6.88155 14.2944C6.71033 14.403 6.58669 14.5738 6.536 14.7717V14.8149C6.50121 14.9961 6.53762 15.1838 6.6375 15.3383C6.73738 15.4927 6.89287 15.6017 7.07094 15.6421L13.4151 16.8479C15.6242 17.2592 16.3683 16.1889 16.5497 15.5019C16.6756 14.8931 16.6756 14.2646 16.5497 13.6559C18.2296 12.5459 19.6785 12.137 20.8986 12.429C21.3054 12.4897 21.6903 12.6542 22.0169 12.9068C22.3435 13.1594 22.6012 13.492 22.7657 13.8732C23.3907 15.0848 22.6108 16.8643 22.2192 17.2159C21.4774 17.7931 19.0546 19.2361 14.9507 21.5437C14.2377 21.9436 13.4114 22.0866 12.6075 21.9491L3.42224 20.3916C3.21714 20.3563 3.03052 20.2501 2.8942 20.0911C2.75788 19.9322 2.68031 19.7303 2.67471 19.52V12.1042C2.67471 11.6018 3.07678 11.1952 3.5736 11.1952H6.41931ZM15.02 2C15.6269 1.99996 16.2279 2.12081 16.7887 2.35566C17.3494 2.59051 17.8589 2.93476 18.2881 3.36874C18.7173 3.80273 19.0577 4.31795 19.29 4.88499C19.5223 5.45204 19.6418 6.05979 19.6418 6.67356C19.6418 7.28733 19.5223 7.89508 19.29 8.46212C19.0577 9.02917 18.7173 9.54439 18.2881 9.97837C17.8589 10.4124 17.3494 10.7566 16.7887 10.9915C16.2279 11.2263 15.6269 11.3472 15.02 11.3471C13.7943 11.347 12.6189 10.8546 11.7523 9.97816C10.8856 9.1017 10.3987 7.91301 10.3987 6.67356C10.3987 5.43411 10.8856 4.24542 11.7523 3.36896C12.6189 2.49251 13.7943 2.00008 15.02 2ZM15.02 5.02146L13.3863 6.67356L15.02 8.32566L16.6537 6.67356L15.02 5.02146Z" fill="#00a609"/>
</g>
</svg>
