<svg width="24" height="24" viewBox="0 0 24 24" fill="none" xmlns="http://www.w3.org/2000/svg">
<path d="M20.8833 21.5444L3.27812 21.5448C2.85684 21.5444 2.47082 21.1572 2.46986 20.7365V15.7458C2.46986 14.9351 2.87697 14.5109 3.30437 14.9173L5.68527 16.7913C6.00515 17.0652 6.48588 17.4378 6.75344 17.1129L9.48224 13.7996C9.74985 13.4748 10.2325 13.0162 10.555 13.2873L12.9031 15.3317C13.2254 15.6025 13.8928 16.0753 14.155 15.7458L19.9976 8.70453C20.7868 7.80366 21.6669 8.01502 21.6669 9.11874C21.6669 9.94123 21.6669 20.7365 21.6669 20.7365C21.6669 21.1572 21.3044 21.5448 20.8833 21.5444ZM14.0315 12.8966C13.8152 13.1737 13.4959 13.3505 13.1466 13.3872C12.7967 13.4287 12.448 13.3166 12.1795 13.0908L9.5308 10.8601L6.87051 14.3715C6.65795 14.6513 6.34143 14.8337 5.99254 14.8752C5.94184 14.8811 5.89089 14.8842 5.83998 14.8842C5.54341 14.8842 5.25369 14.7816 5.02162 14.5913L2.69995 12.6918C2.1472 12.2398 2.0657 11.4249 2.51779 10.8721C2.96952 10.3186 3.7843 10.2377 4.33687 10.6899L5.62033 11.7398L8.2919 8.21297C8.50616 7.92997 8.82667 7.74802 9.17875 7.70858C9.53336 7.6699 9.88405 7.77685 10.1552 8.00417L12.8183 10.2473L16.2591 5.93155L15.3002 5.13507C14.6198 4.57008 14.7709 3.95794 15.6361 3.77504L20.6228 2.72026C21.4878 2.53733 21.7554 2.96178 21.2174 3.66392L14.0315 12.8966Z" fill="#00a609"/>
</svg>
