<svg width="24" height="24" viewBox="0 0 24 24" fill="none" xmlns="http://www.w3.org/2000/svg">
<g id="Frame">
<path id="Vector" d="M11.9663 4.55004C8.85749 4.55004 6.3375 7.01872 6.3375 10.0638C6.3375 13.1088 8.85749 15.5775 11.9663 15.5775C15.075 15.5775 17.595 13.1088 17.595 10.0638C17.5937 7.01872 15.075 4.55004 11.9663 4.55004ZM5.46623 12.1812V7.09006C5.39499 7.09006 5.32376 7.09254 5.25497 7.09874C6.40873 4.59371 8.97746 2.84879 11.9663 2.84879C14.955 2.84879 17.525 4.59371 18.6775 7.09874C18.6075 7.09379 18.5375 7.09006 18.4662 7.09006V12.1813C19.9012 12.1813 21.0662 11.0413 21.0662 9.63628C21.0662 8.68128 20.5288 7.85005 19.735 7.41374C18.6175 4.26251 15.5662 2 11.9663 2C8.36626 2 5.31622 4.26251 4.19744 7.41372C3.4037 7.84877 2.8662 8.68126 2.8662 9.63501C2.8662 11.0412 4.02999 12.1812 5.46623 12.1812ZM17.5825 15.1C16.1113 16.445 14.1375 17.2687 11.9663 17.2687C9.79881 17.2687 7.82754 16.4488 6.35753 15.1075C3.72749 16.4325 2 18.7937 2 22H22C22 18.7875 20.2412 16.4238 17.5825 15.1Z" fill="white"/>
</g>
</svg>
