<svg width="24" height="24" viewBox="0 0 24 24" fill="none" xmlns="http://www.w3.org/2000/svg">
<g id="Frame">
<path id="Vector" d="M6.83052 3.65688L5.3277 2.15485C2.81784 4.06722 1.15751 7.03773 1 10.3979H3.10188C3.25939 7.61583 4.68732 5.17955 6.83052 3.65688ZM20.8981 10.3979H23C22.8425 7.03773 21.1822 4.06464 18.662 2.15485L17.1592 3.65688C19.3127 5.17955 20.7406 7.61583 20.8981 10.3979ZM18.8298 10.9244C18.8298 7.70099 16.5911 5.00147 13.5777 4.28917V3.57429C13.5777 2.70198 12.8728 2 12.0026 2C11.1298 2 10.4275 2.70456 10.4275 3.57429V4.28917C7.4115 5.00406 5.17535 7.70099 5.17535 10.9244V16.7003L3.07347 18.801V19.8514H20.9343V18.801L18.8324 16.7003V10.9244H18.8298ZM12 23C12.1472 23 12.284 22.9897 12.4209 22.9587C13.1026 22.8219 13.6707 22.3496 13.934 21.7199C14.0399 21.467 14.1019 21.196 14.1019 20.9018H9.89812C9.89812 22.0554 10.8432 23 12 23Z" fill="#00a609"/>
</g>
</svg>
