<svg width="24" height="24" viewBox="0 0 24 24" fill="none" xmlns="http://www.w3.org/2000/svg">
<path d="M23 13.6364V17.4052L21.895 16.3522C19.7956 18.8462 17.9724 20.5089 16.3702 21.3956C10.1824 24.8319 3.33161 22.3378 1.50841 17.7931C-0.314781 13.2485 2.88962 5.26757 9.13268 1.83134C9.62991 1.55423 10.1824 1.27711 10.6796 1.11085C10.7349 1.05542 10.8454 1 10.9559 1C11.3979 1 11.7293 1.44338 11.7293 1.94219C11.7293 2.441 11.3979 2.88438 10.9559 2.88438H11.1216L10.7901 3.05065C5.65203 5.87722 2.77912 11.6966 4.38132 16.075C5.98352 20.4535 11.5084 21.6728 16.7017 18.8462C17.8619 18.1811 19.1879 17.0727 20.7348 15.5208L19.3536 14.1907L23 13.6364ZM15.7625 11.3641C16.1492 11.5858 16.4255 11.9183 16.6464 12.3063C16.8674 12.6942 16.9779 13.193 16.9779 13.7473C16.9779 14.1907 16.8674 14.634 16.5912 15.022C16.3702 15.3545 16.0387 15.6871 15.652 15.9088C15.2652 16.1305 14.8233 16.2967 14.3813 16.463C14.0498 16.5738 13.7183 16.5738 13.3868 16.6293V17.0172C13.3868 17.1281 13.3315 17.2389 13.2763 17.3498C13.2211 17.4052 13.1106 17.4606 12.9448 17.4606H12.1713C12.0608 17.4606 11.9503 17.4052 11.8398 17.3498C11.7846 17.2943 11.7293 17.1835 11.7293 17.0172V16.6293C10.9006 16.5738 10.1271 16.3522 9.51942 15.9642C8.80119 15.5208 8.30395 14.8557 8.08296 14.0244C8.08296 13.9135 8.02771 13.8027 8.02771 13.6364C8.02771 13.5256 8.02771 13.4147 7.97246 13.3039C7.97246 13.193 7.97246 13.0822 8.08296 12.9714C8.13821 12.8605 8.30395 12.8051 8.41445 12.8051H9.46417C9.57466 12.8051 9.68516 12.8605 9.79566 12.9159C9.85091 12.9714 9.90615 13.0822 9.90615 13.2485C9.90615 13.4702 9.9614 13.6919 10.0719 13.9135C10.1824 14.1352 10.2929 14.3015 10.5139 14.4678C10.6796 14.634 10.9006 14.7449 11.1769 14.8557C11.2874 14.9112 11.5636 14.9666 11.7293 14.9666V11.8629C11.3979 11.8075 11.0664 11.6966 10.7349 11.6412C10.2929 11.5304 9.90615 11.3641 9.57467 11.1424C9.24317 10.9207 8.91168 10.6436 8.74594 10.3111C8.52495 9.92309 8.41445 9.53513 8.41445 9.03633C8.41445 8.59294 8.52495 8.20498 8.74594 7.81702C8.96693 7.48448 9.24317 7.15195 9.57467 6.93025C9.90615 6.70856 10.2929 6.48687 10.7349 6.37602C11.0664 6.26518 11.3426 6.26518 11.6741 6.20976V5.87722C11.6741 5.76637 11.7293 5.65553 11.7846 5.54468C11.8951 5.48926 12.0056 5.43384 12.1713 5.43384H12.9448C13.0553 5.43384 13.1658 5.48926 13.2763 5.54468C13.3315 5.6001 13.3868 5.71095 13.3868 5.87722V6.26518C13.7183 6.26518 14.0498 6.3206 14.326 6.43145C14.768 6.54229 15.1547 6.70856 15.4862 6.93025C15.8177 7.15195 16.094 7.42906 16.315 7.81702C16.5359 8.14956 16.6464 8.59294 16.6464 8.9809C16.6464 9.09175 16.5912 9.20259 16.5359 9.31344C16.4807 9.42429 16.315 9.42429 16.2045 9.42429H15.1547C15.0442 9.42429 14.9337 9.36886 14.8785 9.31344C14.8233 9.25802 14.768 9.14717 14.768 8.9809C14.768 8.81463 14.7128 8.70379 14.6575 8.53752C14.547 8.37125 14.4365 8.2604 14.326 8.14956C14.1603 8.03871 13.9945 7.92787 13.7735 7.87244C13.663 7.87244 13.6078 7.81702 13.4973 7.81702V10.5327C13.884 10.6436 14.326 10.699 14.6575 10.8099C14.989 10.9761 15.3757 11.1424 15.7625 11.3641ZM11.3979 10.1448C11.5084 10.2002 11.6189 10.2002 11.7293 10.2556V7.87244C11.6189 7.87244 11.5084 7.92787 11.3979 7.92787C11.1769 7.98329 10.9559 8.09414 10.7901 8.20498C10.6244 8.31583 10.5139 8.42667 10.4586 8.59294C10.4034 8.70379 10.3481 8.87006 10.3481 9.03633C10.3481 9.25802 10.4034 9.42429 10.4586 9.53513C10.5139 9.64598 10.6244 9.75682 10.7901 9.86767C10.9559 9.97852 11.1216 10.0894 11.3979 10.1448ZM14.4365 14.634C14.6023 14.5232 14.768 14.3569 14.8785 14.1907C14.989 14.0244 15.0442 13.8581 15.0442 13.6364C15.0442 13.3593 14.989 13.193 14.9337 13.0268C14.8233 12.8605 14.7128 12.7497 14.547 12.6388C14.3813 12.528 14.1603 12.4171 13.884 12.3617C13.7183 12.3063 13.6078 12.3063 13.442 12.2509V15.0774C13.6078 15.0774 13.7183 15.022 13.8288 14.9666C13.9945 14.8557 14.2155 14.7449 14.4365 14.634Z" fill="white"/>
</svg>
