<svg width="24" height="24" viewBox="0 0 24 24" fill="none" xmlns="http://www.w3.org/2000/svg">
<path d="M12 23C9.82441 23 7.69767 22.3549 5.88873 21.1462C4.07979 19.9375 2.66989 18.2195 1.83733 16.2095C1.00477 14.1995 0.786929 11.9878 1.21137 9.85401C1.6358 7.72022 2.68345 5.76021 4.22183 4.22183C5.76021 2.68345 7.72022 1.6358 9.85401 1.21137C11.9878 0.786929 14.1995 1.00477 16.2095 1.83733C18.2195 2.66989 19.9375 4.07979 21.1462 5.88873C22.3549 7.69767 23 9.82441 23 12C23 14.9174 21.8411 17.7153 19.7782 19.7782C17.7153 21.8411 14.9174 23 12 23ZM17.808 9.8L17.7915 9.81925C17.3443 8.63338 16.5438 7.61335 15.4983 6.89698C14.4528 6.18061 13.2126 5.80243 11.9452 5.81353C10.6779 5.82462 9.44448 6.22446 8.41166 6.95903C7.37884 7.69359 6.59638 8.72748 6.17 9.921C6.11963 10.0267 6.08356 10.1386 6.06275 10.2538L6.038 10.3363H6.0545C6.07219 10.4816 6.14017 10.6161 6.24665 10.7166C6.35313 10.817 6.49141 10.8771 6.6375 10.8863C6.7783 10.899 6.92008 10.8771 7.05046 10.8225C7.18084 10.7678 7.29587 10.6821 7.3855 10.5728C7.3855 10.5508 7.3855 10.5315 7.40475 10.5123C7.42422 10.4731 7.4381 10.4315 7.446 10.3885C7.80199 9.38059 8.48324 8.51978 9.38239 7.94173C10.2815 7.36367 11.3475 7.10123 12.4122 7.19576C13.477 7.29029 14.48 7.73642 15.2632 8.46385C16.0465 9.19127 16.5654 10.1586 16.7383 11.2135C16.7025 11.3153 16.6911 11.424 16.7049 11.531C16.7188 11.638 16.7575 11.7402 16.818 11.8295C16.9004 11.9344 17.0095 12.0152 17.1338 12.0636C17.2581 12.112 17.3931 12.1261 17.5247 12.1045C17.6604 12.0708 17.7874 12.0088 17.8973 11.9226C18.0073 11.8363 18.0978 11.7277 18.1628 11.604L18.9053 10.625C19.0147 10.4791 19.0616 10.2958 19.0358 10.1153C19.0101 9.93477 18.9136 9.7719 18.7677 9.6625C18.6955 9.60833 18.6133 9.56892 18.5259 9.54651C18.4384 9.52411 18.3474 9.51915 18.258 9.53191C18.0775 9.5577 17.9147 9.65413 17.8053 9.8H17.808ZM6.0875 13.87C6.48814 15.1425 7.28916 16.2516 8.37123 17.0319C9.4533 17.8122 10.7585 18.2221 12.0924 18.2005C13.4264 18.1788 14.7176 17.7268 15.7738 16.9118C16.83 16.0968 17.5946 14.9623 17.9538 13.6775C17.9551 13.6712 17.9551 13.6646 17.9538 13.6583C17.9651 13.5547 17.9534 13.4499 17.9194 13.3514C17.8854 13.253 17.83 13.1633 17.7571 13.0888C17.6842 13.0144 17.5957 12.957 17.498 12.9209C17.4003 12.8848 17.2958 12.8708 17.192 12.88C16.8015 12.88 16.642 13.254 16.5788 13.5043C16.2331 14.5693 15.5269 15.4805 14.5818 16.0809C13.6366 16.6813 12.5117 16.9333 11.4007 16.7936C10.2898 16.6539 9.2623 16.1311 8.49527 15.3154C7.72823 14.4996 7.26965 13.442 7.1985 12.3245C7.23298 12.2032 7.23298 12.0746 7.1985 11.9533C7.1985 11.8928 7.13525 11.791 7.00875 11.6508L6.9565 11.604C6.86139 11.5334 6.74985 11.4883 6.63242 11.4729C6.515 11.4575 6.39559 11.4724 6.2855 11.516C6.10401 11.6342 5.94712 11.7864 5.8235 11.9643L4.9985 13.0643C4.8891 13.2101 4.84213 13.3935 4.86791 13.574C4.8937 13.7545 4.99013 13.9173 5.136 14.0268C5.28187 14.1362 5.46523 14.1831 5.64573 14.1573C5.82623 14.1316 5.9891 14.0351 6.0985 13.8893L6.0875 13.87ZM11.45 13.6088C11.3874 13.5599 11.3311 13.5036 11.2823 13.441C11.1458 13.2438 11.0634 13.0144 11.043 12.7755L9.25 12.8883C9.28312 13.4619 9.52468 14.0037 9.92925 14.4118C10.24 14.7225 10.7543 14.915 11.45 14.981V15.575C11.45 15.7209 11.5079 15.8608 11.6111 15.9639C11.7142 16.0671 11.8541 16.125 12 16.125C12.1459 16.125 12.2858 16.0671 12.3889 15.9639C12.4921 15.8608 12.55 15.7209 12.55 15.575V14.992C12.8954 14.9658 13.2343 14.8841 13.5538 14.75C13.9286 14.5982 14.2494 14.3377 14.475 14.002C14.6887 13.6823 14.8017 13.3058 14.7995 12.9213C14.804 12.6031 14.7202 12.2899 14.5575 12.0165C14.3651 11.7239 14.0958 11.4898 13.7793 11.34C13.3846 11.1617 12.9727 11.0244 12.55 10.9303V10.0585C12.6949 10.2146 12.7855 10.4133 12.8085 10.625L14.5878 10.5205C14.5707 10.2524 14.4967 9.99112 14.3705 9.75399C14.2444 9.51686 14.069 9.30941 13.8563 9.1455C13.4661 8.89061 13.0154 8.74355 12.55 8.71925V8.15C12.55 8.00413 12.4921 7.86424 12.3889 7.76109C12.2858 7.65795 12.1459 7.6 12 7.6C11.8541 7.6 11.7142 7.65795 11.6111 7.76109C11.5079 7.86424 11.45 8.00413 11.45 8.15V8.73025C11.1485 8.75364 10.8524 8.82416 10.5728 8.93925C10.2388 9.07183 9.95162 9.30058 9.74775 9.5965C9.57035 9.85892 9.47466 10.168 9.47275 10.4848C9.46744 10.7088 9.51263 10.9312 9.60499 11.1355C9.69734 11.3397 9.83449 11.5205 10.0063 11.6645C10.4334 11.9875 10.9262 12.2129 11.45 12.3245V13.6088ZM12.55 13.7353V12.6353C12.6211 12.665 12.687 12.7058 12.7453 12.7563C12.8094 12.8069 12.8614 12.8712 12.8975 12.9444C12.9337 13.0177 12.9531 13.0981 12.9543 13.1798C12.9533 13.2647 12.9333 13.3483 12.8957 13.4245C12.8581 13.5007 12.8039 13.5674 12.737 13.6198C12.6818 13.6687 12.6185 13.7078 12.55 13.7353ZM11.45 9.932V10.625C11.4178 10.6089 11.3874 10.5896 11.3593 10.5673C11.3167 10.5351 11.2822 10.4935 11.2583 10.4458C11.2345 10.3981 11.222 10.3456 11.2218 10.2923C11.2223 10.2268 11.2376 10.1624 11.2667 10.1038C11.2958 10.0452 11.3377 9.99399 11.3895 9.954L11.45 9.932Z" fill="white"/>
</svg>
