<svg width="24" height="24" viewBox="0 0 24 24" fill="none" xmlns="http://www.w3.org/2000/svg">
<g id="Frame">
<path id="Union" fill-rule="evenodd" clip-rule="evenodd" d="M11.4973 2C16.7433 2 20.9946 4.19356 20.9946 6.90086H21V8.58612C21 9.17596 20.7853 9.73863 20.4129 10.2632C20.402 10.2768 20.3911 10.2931 20.3803 10.3094L20.3803 10.3094C20.2987 10.4209 20.209 10.5296 20.1112 10.6383C20.1044 10.6451 20.0983 10.6519 20.0921 10.6587C20.086 10.6655 20.0799 10.6723 20.0731 10.6791C19.6627 11.1249 19.1299 11.5299 18.4911 11.8887C18.4766 11.8969 18.4624 11.905 18.4482 11.9132C18.4199 11.9295 18.3915 11.9458 18.3607 11.9621C18.2329 12.03 18.0998 12.0952 17.9666 12.1605L17.9665 12.1605C17.938 12.1737 17.9094 12.1873 17.8807 12.201C17.8383 12.2212 17.7955 12.2416 17.7518 12.2611L17.7517 12.2611C17.624 12.3182 17.4963 12.3753 17.3631 12.4296C17.3033 12.4532 17.2411 12.4767 17.1789 12.5003C17.1478 12.5121 17.1166 12.5238 17.0858 12.5356C17.0703 12.5416 17.0548 12.5475 17.0393 12.5535C16.9275 12.5964 16.8172 12.6388 16.7026 12.677C16.6255 12.7021 16.5463 12.7262 16.4663 12.7506C16.4166 12.7657 16.3666 12.7809 16.3166 12.7966C16.274 12.8091 16.2321 12.8221 16.1903 12.835C16.1147 12.8583 16.0393 12.8816 15.9605 12.9026C15.9578 12.9026 15.9558 12.9033 15.9537 12.9039C15.9517 12.9046 15.9496 12.9053 15.9469 12.9053C15.9386 12.9072 15.93 12.9091 15.9212 12.9111C15.8927 12.9174 15.8625 12.9242 15.8355 12.9325C15.6506 12.9814 15.4631 13.0303 15.2701 13.0738C15.2461 13.0783 15.223 13.0836 15.2002 13.0889C15.1816 13.0931 15.1634 13.0973 15.1451 13.101C15.1174 13.1079 15.0897 13.1129 15.0637 13.1175C15.0591 13.1184 15.0545 13.1192 15.0499 13.12C15.02 13.1282 14.9874 13.1336 14.9548 13.1391L14.9548 13.1391C14.7917 13.1744 14.6259 13.207 14.4574 13.2342C14.4288 13.2383 14.4003 13.2437 14.3717 13.2491C14.3432 13.2546 14.3147 13.26 14.2861 13.2641C14.2589 13.2682 14.2311 13.2716 14.2032 13.275C14.1754 13.2784 14.1475 13.2818 14.1203 13.2858C13.9491 13.3103 13.7752 13.332 13.6013 13.3538L13.6011 13.3538C13.5658 13.3579 13.5312 13.3626 13.4965 13.3674C13.4618 13.3721 13.4272 13.3769 13.3918 13.381C13.3701 13.3837 13.3484 13.385 13.3266 13.3864C13.3049 13.3878 13.2831 13.3891 13.2614 13.3918C13.0711 13.4109 12.8781 13.4245 12.6824 13.4381C12.6557 13.44 12.6297 13.4422 12.6039 13.4444C12.5561 13.4485 12.5089 13.4526 12.4595 13.4544C12.4351 13.4571 12.4133 13.4571 12.3888 13.4571C12.0953 13.4707 11.799 13.4788 11.4973 13.4788C11.1956 13.4788 10.8993 13.4707 10.6057 13.4571C10.5813 13.4544 10.5595 13.4544 10.5351 13.4544H10.5351C10.4856 13.4526 10.4385 13.4485 10.3907 13.4444C10.3649 13.4422 10.3388 13.44 10.3122 13.4381C10.1165 13.4245 9.92346 13.4109 9.73319 13.3918C9.71145 13.3891 9.6897 13.3878 9.66795 13.3864C9.64621 13.385 9.62446 13.3837 9.60272 13.381C9.56738 13.3769 9.53273 13.3721 9.49807 13.3674C9.46341 13.3626 9.42876 13.3579 9.39342 13.3538C9.21946 13.3348 9.04549 13.3103 8.87425 13.2858C8.84706 13.2818 8.8192 13.2784 8.79133 13.275C8.76348 13.2716 8.73562 13.2682 8.70844 13.2641C8.65593 13.2569 8.6076 13.2477 8.55795 13.2382C8.55106 13.2368 8.54415 13.2355 8.5372 13.2342C8.36867 13.2043 8.20286 13.1717 8.03977 13.1391C8.00716 13.1309 7.97456 13.1255 7.94195 13.12L7.94192 13.12L7.85222 13.1037C7.82823 13.0992 7.80508 13.0939 7.78229 13.0887C7.76376 13.0844 7.74547 13.0802 7.72718 13.0765C7.53419 13.033 7.34664 12.9841 7.1618 12.9352L7.1618 12.9352C7.12374 12.927 7.08569 12.9189 7.05036 12.908C7.04764 12.908 7.0456 12.9073 7.04356 12.9067C7.04152 12.906 7.03948 12.9053 7.03677 12.9053C6.95799 12.8843 6.8826 12.861 6.80696 12.8377C6.76515 12.8248 6.72326 12.8119 6.68069 12.7993L6.68058 12.7993C6.55014 12.7612 6.41971 12.7232 6.29471 12.6797C6.16424 12.6335 6.0392 12.5873 5.91145 12.5383C5.88065 12.5266 5.84955 12.5151 5.81845 12.5036C5.75622 12.4807 5.694 12.4577 5.63419 12.4323C5.501 12.378 5.37325 12.3209 5.24549 12.2638C5.1721 12.2312 5.10143 12.1986 5.03076 12.1632C4.89485 12.098 4.76438 12.0328 4.63662 11.9648L4.50615 11.8914C3.86738 11.5326 3.33462 11.1276 2.92418 10.6818C2.9133 10.671 2.89971 10.6574 2.88884 10.6438C2.79099 10.535 2.70129 10.4236 2.61974 10.3122C2.61431 10.304 2.60887 10.2965 2.60343 10.2891C2.598 10.2816 2.59256 10.2741 2.58712 10.2659C2.21474 9.74406 2 9.17868 2 8.58884V6.90086C2 4.19356 6.25121 2 11.4973 2ZM19.3011 12.8049L19.2761 12.8185C19.2592 12.8275 19.2423 12.8366 19.2278 12.8456C18.9804 12.9924 18.7195 13.1311 18.4449 13.2642C18.3502 13.3097 18.2515 13.3526 18.1525 13.3955C18.1095 13.4142 18.0664 13.4329 18.0236 13.4518C17.8225 13.5388 17.6186 13.623 17.4066 13.7019L17.4065 13.7019L17.4065 13.7019C17.2597 13.7563 17.113 13.8106 16.9608 13.8622C16.6781 13.9574 16.3873 14.0416 16.091 14.1205C16.0553 14.1301 16.0203 14.1401 15.9854 14.1501L15.9854 14.1501C15.9219 14.1682 15.8586 14.1862 15.792 14.202C15.4223 14.2917 15.0363 14.3705 14.6449 14.4358C14.5619 14.4507 14.4779 14.4626 14.3934 14.4746L14.3934 14.4746C14.3396 14.4822 14.2857 14.4898 14.2318 14.4983C13.9219 14.5445 13.6093 14.5798 13.2886 14.6097C13.1526 14.6233 13.0167 14.6369 12.8781 14.6451C12.4269 14.6777 11.9702 14.6994 11.5 14.6994C11.0325 14.6994 10.5731 14.6777 10.1219 14.6451C10.0497 14.6394 9.97821 14.633 9.9071 14.6266L9.9069 14.6266L9.90659 14.6266C9.84135 14.6208 9.7764 14.6149 9.71145 14.6097C9.3907 14.5798 9.07811 14.5418 8.76824 14.4983C8.62961 14.4793 8.49099 14.4602 8.35236 14.4358C7.96366 14.3705 7.5804 14.2917 7.21345 14.202C7.15524 14.1871 7.09868 14.1713 7.0424 14.1557L7.04223 14.1556C6.99607 14.1428 6.9501 14.13 6.90358 14.1178C6.6073 14.0389 6.31645 13.9547 6.03648 13.8595C5.88426 13.8079 5.73748 13.7535 5.5907 13.6992C5.37868 13.6203 5.17482 13.5361 4.97368 13.4491C4.93088 13.4302 4.88783 13.4115 4.84484 13.3928C4.74584 13.3499 4.64712 13.307 4.55236 13.2615C4.28054 13.1311 4.01688 12.9897 3.76953 12.8429C3.7573 12.8361 3.74439 12.8293 3.73147 12.8225C3.71856 12.8158 3.70565 12.809 3.69342 12.8022C3.02747 12.3999 2.45393 11.9459 2 11.4485V12.9326C2 13.5225 2.21474 14.0879 2.58712 14.6097C2.59256 14.6179 2.598 14.6254 2.60343 14.6328C2.60887 14.6403 2.61431 14.6478 2.61974 14.6559C2.70129 14.7674 2.79099 14.8788 2.88884 14.9876C2.89971 15.0012 2.9133 15.0147 2.92418 15.0256C3.33462 15.4714 3.86738 15.8764 4.50615 16.2352L4.54903 16.2597C4.57743 16.276 4.60582 16.2923 4.63662 16.3086C4.76438 16.3766 4.89485 16.4418 5.03076 16.507C5.10143 16.5424 5.17482 16.575 5.24821 16.6076C5.37597 16.6647 5.50372 16.7218 5.63419 16.7734C5.72661 16.8115 5.81903 16.8468 5.91416 16.8821C5.94751 16.8945 5.98086 16.907 6.01431 16.9195C6.10628 16.954 6.19903 16.9889 6.29471 17.0208C6.38382 17.0511 6.47426 17.0788 6.5651 17.1066L6.56511 17.1066C6.60449 17.1187 6.64395 17.1307 6.6834 17.1431C6.83562 17.1893 6.99056 17.2355 7.15093 17.279C7.33848 17.3306 7.53147 17.3768 7.72718 17.423C7.83047 17.4448 7.93648 17.4665 8.03977 17.4856C8.20286 17.5182 8.36867 17.5508 8.5372 17.5807C8.64592 17.5997 8.75737 17.616 8.86881 17.6323L8.86898 17.6324L8.86913 17.6324C9.04299 17.6568 9.21685 17.6813 9.39342 17.703C9.50215 17.7166 9.61087 17.7275 9.72232 17.7384C9.91531 17.7574 10.1137 17.771 10.3122 17.7846C10.3597 17.7873 10.4073 17.7907 10.4548 17.7941C10.5024 17.7975 10.55 17.8009 10.5976 17.8036C10.8938 17.8172 11.1928 17.8281 11.4946 17.8281C11.799 17.8281 12.0953 17.8199 12.3916 17.8036C12.4391 17.8009 12.4867 17.7975 12.5343 17.7941C12.5818 17.7907 12.6294 17.7873 12.677 17.7846C12.8754 17.771 13.0711 17.7574 13.2668 17.7384C13.3255 17.7326 13.3834 17.7262 13.441 17.7197H13.441C13.4927 17.7139 13.5442 17.7082 13.5957 17.703C13.7724 17.6813 13.9464 17.6595 14.1203 17.6323C14.2318 17.616 14.3432 17.5997 14.4519 17.5807C14.6205 17.5535 14.7863 17.5209 14.9494 17.4856C14.9937 17.4765 15.0381 17.4678 15.0821 17.4593C15.1432 17.4474 15.2035 17.4357 15.2619 17.423C15.4577 17.3796 15.6479 17.3306 15.8382 17.279C15.9959 17.2355 16.1508 17.192 16.3057 17.1431C16.3461 17.1305 16.3867 17.1181 16.4272 17.1058C16.5178 17.0782 16.6081 17.0508 16.6944 17.0208C16.7901 16.9889 16.8829 16.954 16.9748 16.9195C17.0083 16.907 17.0416 16.8945 17.075 16.8821C17.1701 16.8468 17.2625 16.8115 17.3549 16.7734C17.4881 16.719 17.6159 16.6647 17.7409 16.6076C17.7776 16.5913 17.8136 16.5743 17.8497 16.5573C17.8857 16.5403 17.9217 16.5233 17.9584 16.507L17.9584 16.507L17.9585 16.5069C18.0917 16.4417 18.2248 16.3765 18.3525 16.3086L18.483 16.2352C19.1217 15.8764 19.6545 15.4714 20.0649 15.0256C20.0717 15.0188 20.0779 15.012 20.084 15.0052C20.0901 14.9984 20.0962 14.9916 20.103 14.9848C20.2009 14.8761 20.2906 14.7674 20.3721 14.6559C20.383 14.6396 20.3938 14.6233 20.4047 14.6097C20.7771 14.0851 20.9918 13.5225 20.9918 12.9326V11.4512C20.5406 11.9514 19.9698 12.4053 19.3011 12.8049ZM2 15.7977V17.2791C2.00544 19.981 6.25393 22.1746 11.4973 22.1746C16.7379 22.1746 20.9891 19.9837 20.9946 17.2791V15.7977C19.2196 17.7439 15.6751 19.0459 11.4973 19.0459C7.31946 19.0459 3.77225 17.7439 2 15.7977Z" fill="white"/>
</g>
</svg>
