<svg width="24" height="24" viewBox="0 0 24 24" fill="none" xmlns="http://www.w3.org/2000/svg">
<g id="Frame">
<path id="Vector" d="M2.75852 13.4493C2.03621 13.4569 1.34034 13.1795 0.823379 12.678C0.306422 12.1766 0.0105373 11.4919 0.000554368 10.774C-0.029203 9.22255 1.14216 8.02067 2.75988 7.97899V13.4507L2.75852 13.4493ZM21.2095 13.4305V8.0126C22.6676 7.89161 23.985 9.17012 23.9999 10.6799C24.0134 12.2259 22.7176 13.5246 21.2095 13.4305ZM15.5948 9.29515C15.4046 9.29069 15.2154 9.32372 15.0381 9.39233C14.8608 9.46094 14.699 9.56378 14.5619 9.69489C14.4248 9.82601 14.3152 9.98282 14.2395 10.1563C14.1637 10.3297 14.1232 10.5164 14.1204 10.7054C14.1137 11.4798 14.7832 12.1506 15.5731 12.1574C15.958 12.1588 16.3279 12.0092 16.6025 11.7411C16.877 11.4731 17.034 11.1081 17.0394 10.7256C17.0431 10.5363 17.0082 10.3482 16.9368 10.1726C16.8655 9.99704 16.7591 9.83764 16.6242 9.704C16.4892 9.57036 16.3284 9.46525 16.1515 9.39499C15.9746 9.32472 15.7852 9.29076 15.5948 9.29515ZM6.98543 10.7444C6.98733 10.9336 7.02713 11.1206 7.10251 11.2943C7.17788 11.4681 7.28732 11.6252 7.42444 11.7565C7.56156 11.8878 7.72361 11.9906 7.90113 12.059C8.07866 12.1273 8.26811 12.1599 8.45842 12.1547C8.84355 12.1442 9.2093 11.9845 9.47766 11.7097C9.74602 11.435 9.89574 11.0668 9.89489 10.6839C9.88001 9.89341 9.2267 9.28036 8.40026 9.28977C8.20969 9.28757 8.02068 9.32405 7.8448 9.397C7.66892 9.46995 7.50987 9.57782 7.37741 9.71401C7.24495 9.8502 7.14186 10.0118 7.07446 10.189C7.00706 10.3662 6.97676 10.5552 6.98543 10.7444ZM9.08468 17.6815V16.4406C8.85338 16.4272 8.63967 16.4097 8.42866 16.407C7.30329 16.4043 6.17657 16.4124 5.0512 16.4043C4.36678 16.3976 4.13548 16.1758 4.13548 15.5143C4.13277 12.3214 4.13277 9.12845 4.13548 5.93148C4.13548 5.23643 4.35325 5.03746 5.09313 5.03746C7.283 5.03477 9.47152 5.03746 11.7547 5.03746C11.7547 4.10445 11.7642 3.94716 11.7398 3.04507C11.7358 2.94827 11.541 2.83131 11.4166 2.76006C10.7213 2.3796 10.417 1.76655 10.605 1.08629C10.6842 0.774572 10.8662 0.498211 11.1219 0.301316C11.3776 0.104422 11.6923 -0.00165375 12.0158 1.94958e-05C12.6813 0.00943024 13.2548 0.465179 13.4117 1.10645C13.5821 1.80016 13.271 2.39976 12.5771 2.7735C12.431 2.85417 12.2363 3.02894 12.2336 3.16069C12.1997 4.00765 12.2173 4.11252 12.2173 5.03074H18.8316C19.658 5.03074 19.8623 5.22164 19.865 6.0471C19.8705 9.14234 19.8705 12.2376 19.865 15.3328C19.865 16.2161 19.6634 16.3976 18.7477 16.3989C17.5425 16.403 16.3374 16.4056 15.1322 16.4124C15.0727 16.4124 15.0172 16.4379 14.9131 16.4661V17.7715C15.3459 17.7715 15.7787 17.7689 16.2102 17.7715C16.7215 17.7756 16.9947 18.0297 16.9974 18.5419C17.0015 19.6712 16.9974 20.0584 17.0015 21.1903C17.0015 21.7335 16.7039 21.997 16.1791 21.997C13.3846 22.001 10.5928 22.001 7.79564 21.997C7.26407 21.997 6.98543 21.7335 6.99084 21.1823C7.00301 20.0705 6.98813 19.7034 6.9976 18.5943C7.00301 17.988 7.21537 17.7904 7.84433 17.7742C8.22307 17.7648 8.60721 17.7608 8.98999 17.7527C8.99676 17.7541 9.01299 17.7339 9.08468 17.6801V17.6815Z" fill="#00a609"/>
</g>
</svg>
