<svg width="24" height="24" viewBox="0 0 24 24" fill="none" xmlns="http://www.w3.org/2000/svg">
<g id="Frame">
<path id="Vector" d="M15.9286 7.74143C15.2874 3.78143 13.7694 1 12.0047 1C10.24 1 8.72043 3.78143 8.07771 7.74143H15.9286ZM8.86343 1.46043C7.30401 1.92472 5.86684 2.7288 4.65528 3.81483C3.44371 4.90086 2.48785 6.24187 1.85643 7.74143H6.64929C7.03429 5.21771 7.77914 2.95957 8.86186 1.46043H8.86343ZM22.1514 7.74143C21.5189 6.24179 20.5621 4.90083 19.3497 3.81485C18.1374 2.72886 16.6997 1.92481 15.1397 1.46043C16.2209 2.95957 16.9673 5.21614 17.357 7.74143H22.1499H22.1514ZM6.32557 12C6.32557 11.0477 6.379 10.0907 6.47171 9.162H1.38186C1.13218 10.0875 1.00381 11.0415 1 12C1 12.9837 1.14143 13.9297 1.38186 14.838H6.46543C6.37414 13.8947 6.32695 12.9477 6.324 12H6.32557ZM7.743 12C7.743 12.9853 7.798 13.9297 7.89071 14.838H16.1093C16.2036 13.9266 16.257 12.9837 16.257 12C16.257 11.0179 16.2036 10.0703 16.1093 9.162H7.89071C7.79643 10.0703 7.743 11.0163 7.743 12ZM22.6213 9.162H17.5346C17.6289 10.0939 17.6823 11.0477 17.6823 12C17.6823 12.9523 17.6273 13.9093 17.5346 14.838H22.6181C22.8617 13.9266 23 12.9837 23 12C23 11.0179 22.8617 10.0703 22.6213 9.162ZM15.1429 22.5364C16.7021 22.0709 18.1391 21.2665 19.351 20.1806C20.5629 19.0948 21.5197 17.7544 22.153 16.2554H17.3586C16.9673 18.7823 16.2256 21.0404 15.1429 22.5364ZM1.85643 16.2586C2.489 17.7582 3.4458 19.0992 4.65812 20.1852C5.87044 21.2711 7.3082 22.0752 8.86814 22.5396C7.78386 21.0404 7.039 18.7839 6.64929 16.2586H1.85643ZM8.07614 16.2586C8.72043 20.2186 10.24 23 12.0031 23C13.7679 23 15.2843 20.2186 15.9286 16.2586H8.07614Z" fill="#00a609"/>
</g>
</svg>
