<svg width="24" height="24" viewBox="0 0 24 24" fill="none" xmlns="http://www.w3.org/2000/svg">
<g id="Frame">
<path id="Vector" d="M20.4934 5.4052L13.507 1.40074C12.5747 0.866421 11.4259 0.866421 10.4935 1.40074L3.50685 5.4052C2.57455 5.93951 2 6.92731 2 7.99594V16.0043C2 17.0732 2.57428 18.0608 3.50685 18.5951L10.4933 22.5993C11.4256 23.1336 12.5744 23.1336 13.5067 22.5993L20.4931 18.5951C21.4255 18.0608 22 17.073 22 16.0043V7.99594C22.0003 6.92704 21.4257 5.93951 20.4934 5.4052ZM11.9555 17.0438C9.12445 17.0438 6.82946 14.7655 6.82946 11.9551C6.82946 9.14461 9.12445 6.86635 11.9555 6.86635C14.7866 6.86635 17.0816 9.14461 17.0816 11.9551C17.0816 14.7655 14.7866 17.0438 11.9555 17.0438ZM9.09001 11.9551C9.09001 12.7213 9.39661 13.4561 9.94237 13.9978C10.4881 14.5396 11.2283 14.844 12.0001 14.844C12.7719 14.844 13.5121 14.5396 14.0579 13.9978C14.6037 13.4561 14.9103 12.7213 14.9103 11.9551C14.9103 11.1889 14.6037 10.4541 14.0579 9.91231C13.5121 9.37053 12.7719 9.06616 12.0001 9.06616C11.2283 9.06616 10.4881 9.37053 9.94237 9.91231C9.39661 10.4541 9.09001 11.1889 9.09001 11.9551Z" fill="#00a609"/>
</g>
</svg>
