<svg width="24" height="24" viewBox="0 0 24 24" fill="none" xmlns="http://www.w3.org/2000/svg">
<g id="Frame">
<g id="Vector">
<path d="M7 21.4996C4.51472 21.4996 2.5 19.4849 2.5 16.9996C2.5 14.5143 4.51472 12.4996 7 12.4996C9.48528 12.4996 11.5 14.5143 11.5 16.9996C11.5 19.4849 9.48528 21.4996 7 21.4996Z" fill="#00a609"/>
<path d="M3 7.99958C3 5.23816 5.23858 2.99958 8 2.99958H11V4.99958H8C6.34315 4.99958 5 6.34273 5 7.99958V10.9996H3V7.99958Z" fill="#00a609"/>
<path d="M17 11.499C14.5147 11.499 12.5 9.4843 12.5 6.99902C12.5 4.51374 14.5147 2.49902 17 2.49902C19.4853 2.49902 21.5 4.51374 21.5 6.99902C21.5 9.4843 19.4853 11.499 17 11.499ZM19 12.999V15.999C19 17.6559 17.6569 18.999 16 18.999H13V20.999H16C18.7614 20.999 21 18.7604 21 15.999V12.999H19Z" fill="#00a609"/>
<path d="M19 12.999V15.999C19 17.6559 17.6569 18.999 16 18.999H13V20.999H16C18.7614 20.999 21 18.7604 21 15.999V12.999H19Z" fill="#00a609"/>
</g>
</g>
</svg>
