<svg width="24" height="24" viewBox="0 0 24 24" fill="none" xmlns="http://www.w3.org/2000/svg">
<g id="Frame">
<path id="Vector" d="M20.3968 4.46301C20.1451 4.23451 19.8137 4.10949 19.471 4.10949C19.4397 4.10949 19.4085 4.10949 19.3773 4.11164C19.3584 4.11378 19.1401 4.12678 18.7991 4.12678C18.2338 4.12678 17.1303 4.08797 16.0849 3.84012C14.7352 3.51896 13.1774 2.0317 12.7242 1.73857C12.4957 1.5899 12.2327 1.5166 11.9693 1.5166C11.7069 1.5166 11.4439 1.5899 11.216 1.73644C11.161 1.77308 9.52989 3.46073 7.93442 3.84012C6.88962 4.08797 5.76504 4.12678 5.20032 4.12678C4.85922 4.12678 4.64157 4.11378 4.62003 4.11164C4.59039 4.10949 4.56075 4.10949 4.53058 4.10949C4.18732 4.10949 3.85486 4.23449 3.60214 4.46301C3.32789 4.71085 3.17163 5.05785 3.17163 5.42212V8.70473C3.17163 20.8395 11.3814 22.4021 11.7295 22.4645C11.8093 22.4776 11.8895 22.484 11.9698 22.484C12.0496 22.484 12.1309 22.4776 12.2096 22.4645C12.5582 22.4021 20.8283 20.8395 20.8283 8.70473V5.42212C20.8283 5.05785 20.6716 4.71088 20.3968 4.46301ZM17.362 9.15735L11.6702 14.6644C11.6347 14.7225 11.591 14.7808 11.5382 14.8303C11.3712 14.992 11.1502 15.0696 10.9314 15.0652C10.7127 15.0696 10.4923 14.992 10.3253 14.8303C10.2725 14.7808 10.2283 14.7225 10.1927 14.6644L7.15099 11.7201C6.82712 11.4076 6.82712 10.9011 7.15099 10.5864C7.47482 10.2739 8.00016 10.2739 8.32404 10.5864L10.9315 13.1104L16.1895 8.02371C16.5134 7.71115 17.0382 7.71115 17.362 8.02371C17.6858 8.33614 17.6858 8.84486 17.362 9.15735Z" fill="#00a609"/>
</g>
</svg>
