<svg width="24" height="24" viewBox="0 0 24 24" fill="none" xmlns="http://www.w3.org/2000/svg">
<g id="Frame">
<path id="Vector" d="M11.5 23C5.7012 23 1 18.2988 1 12.5C1 6.7012 5.7012 2 11.5 2C17.2988 2 22 6.7012 22 12.5C22 18.2988 17.2988 23 11.5 23ZM10.2078 11.8V16.9695C10.2078 17.2836 10.3326 17.5849 10.5547 17.807C10.7768 18.0291 11.0781 18.1539 11.3922 18.1539C11.7063 18.1539 12.0076 18.0291 12.2297 17.807C12.4518 17.5849 12.5766 17.2836 12.5766 16.9695V11.8C12.5766 11.4859 12.4518 11.1846 12.2297 10.9625C12.0076 10.7404 11.7063 10.6156 11.3922 10.6156C11.0781 10.6156 10.7768 10.7404 10.5547 10.9625C10.3326 11.1846 10.2078 11.4859 10.2078 11.8ZM11.3838 6.8461C11.0618 6.8461 10.7881 6.9455 10.562 7.1772C10.3205 7.3928 10.2078 7.6742 10.2078 8.0228C10.2078 8.3539 10.3205 8.6353 10.562 8.8677C10.7881 9.0994 11.0618 9.2156 11.3845 9.2156C11.7007 9.21608 12.0056 9.09764 12.2385 8.8838C12.4639 8.6521 12.5766 8.3707 12.5766 8.0228C12.5766 7.6749 12.4646 7.3928 12.2385 7.1772C12.0131 6.9462 11.7226 6.8461 11.3845 6.8461H11.3838Z" fill="#00a609"/>
</g>
</svg>
