<svg width="24" height="24" viewBox="0 0 24 24" fill="none" xmlns="http://www.w3.org/2000/svg">
<g id="Frame">
<path id="Vector" d="M22.5467 8.51929L15.4728 1.44151C14.8845 0.852831 13.913 0.852831 13.311 1.44151C12.7226 2.03018 12.7226 3.00218 13.311 3.60454L14.7887 5.08307L11.0944 8.79309L9.68506 7.38301C8.68623 6.38363 7.05799 6.38363 6.05916 7.38301L3.1858 10.2579C0.271399 13.1739 0.271399 17.897 3.1858 20.813C6.10021 23.729 10.8207 23.729 13.7351 20.813L16.6085 17.9381C17.6073 16.9387 17.6073 15.3096 16.6085 14.3102L15.2128 12.9138L18.9208 9.2038L20.3986 10.6823C20.9869 11.271 21.9584 11.271 22.5604 10.6823C23.1488 10.08 23.1488 9.10797 22.5467 8.51929ZM11.4912 13.7489L6.16862 19.0744C5.99075 19.2523 5.77182 19.3345 5.53922 19.3345C5.30661 19.3345 5.08769 19.2523 4.90982 19.0744C4.56775 18.7321 4.56775 18.1708 4.90982 17.8149L10.2324 12.4894C10.5744 12.1472 11.1354 12.1472 11.4912 12.4894C11.8469 12.8454 11.8469 13.4067 11.4912 13.7489Z" fill="#00a609"/>
</g>
</svg>
