<svg width="24" height="24" viewBox="0 0 24 24" fill="none" xmlns="http://www.w3.org/2000/svg">
<g id="Frame">
<path id="Vector" d="M3.53846 2H20.4615C21.3846 2 22 2.60254 22 3.50635V21.432C22 22.3358 21.3846 22.9383 20.4615 22.9383C20.1538 22.9383 20 22.9383 19.6923 22.7877L12.7692 19.0218C12.3077 18.7205 11.6923 18.7205 11.2308 19.0218L4.30769 22.7877C3.53846 23.2396 2.61538 22.9383 2.15385 22.1851C2 22.0345 2 21.7332 2 21.432V3.50635C2 2.60254 2.61538 2 3.53846 2ZM7.69231 6.51906C7.07692 6.51906 6.61538 6.97097 6.61538 7.57351C6.61538 8.17605 7.07692 8.62795 7.84615 8.62795H16.3077C16.9231 8.62795 17.5385 8.17605 17.5385 7.57351C17.5385 6.97097 16.9231 6.51906 16.3077 6.51906H7.69231ZM7.69231 12.5445C7.07692 12.5445 6.61538 12.9964 6.61538 13.5989C6.61538 14.2015 7.07692 14.804 7.84615 14.804H16.3077C16.9231 14.804 17.5385 14.3521 17.5385 13.5989C17.5385 12.8457 16.9231 12.5445 16.3077 12.5445H7.69231Z" fill="white"/>
</g>
</svg>
