<svg width="24" height="24" viewBox="0 0 24 24" fill="none" xmlns="http://www.w3.org/2000/svg">
<path d="M1 8.42074C1 8.42074 1.99209 6.40333 4.27215 6.72681C4.27215 6.72681 4.75253 5.32853 5.07278 6.72681C5.07278 6.72681 6.30506 5.03287 7.51297 5.86419H9.14557C9.14557 5.86419 8.39715 3.39112 9.94968 4.17026H12.3899C12.3899 4.17026 13.7544 1.53718 15.6307 4.17026C15.6307 4.17026 18.4155 3.90243 18.8715 4.17026C18.8715 4.17026 20.8035 4.49374 20.5076 6.72681C20.5076 6.72681 23.3481 5.67636 22.9199 8.42074H1ZM21.6041 17.5895C21.3031 17.1099 20.8846 16.7151 20.3881 16.4424C19.8916 16.1697 19.3336 16.0282 18.7671 16.0313C18.3222 16.0303 17.8816 16.1174 17.4706 16.2875C17.0596 16.4576 16.6864 16.7074 16.3725 17.0223C16.0586 17.3373 15.8102 17.7112 15.6416 18.1226C15.4731 18.534 15.3877 18.9746 15.3905 19.4191H9.4693C9.47596 18.6679 9.23039 17.9362 8.77185 17.3409C8.3133 16.7456 7.66826 16.3211 6.93983 16.1352C6.2114 15.9493 5.44164 16.0128 4.75359 16.3156C4.06553 16.6183 3.49891 17.1428 3.1443 17.8052L1 9.25553V9.22771H23L21.6041 17.5895ZM6.06487 16.8904C6.571 16.888 7.06645 17.0357 7.48848 17.3149C7.91051 17.5941 8.24011 17.9922 8.43555 18.4587C8.63099 18.9252 8.68347 19.4392 8.58633 19.9355C8.4892 20.4318 8.24683 20.8882 7.88992 21.2468C7.533 21.6054 7.07761 21.85 6.58143 21.9498C6.08524 22.0496 5.57059 21.9999 5.10265 21.8072C4.63472 21.6145 4.23456 21.2873 3.95286 20.8671C3.67116 20.4469 3.5206 19.9527 3.52025 19.447C3.51925 19.1121 3.58428 18.7804 3.71163 18.4706C3.83898 18.1609 4.02616 17.8793 4.26246 17.6419C4.49877 17.4045 4.77958 17.2159 5.08884 17.087C5.39811 16.958 5.72977 16.8912 6.06487 16.8904ZM18.7392 16.8904C19.2454 16.888 19.7408 17.0357 20.1628 17.3149C20.5849 17.5941 20.9145 17.9922 21.1099 18.4587C21.3054 18.9252 21.3578 19.4392 21.2607 19.9355C21.1636 20.4318 20.9212 20.8882 20.5643 21.2468C20.2074 21.6054 19.752 21.85 19.2558 21.9498C18.7596 22.0496 18.245 21.9999 17.777 21.8072C17.3091 21.6145 16.9089 21.2873 16.6272 20.8671C16.3455 20.4469 16.195 19.9527 16.1946 19.447C16.1936 19.1121 16.2586 18.7804 16.386 18.4706C16.5133 18.1609 16.7005 17.8793 16.9368 17.6419C17.1731 17.4045 17.4539 17.2159 17.7632 17.087C18.0725 16.958 18.4041 16.8912 18.7392 16.8904Z" fill="white"/>
</svg>
