<svg width="24" height="24" viewBox="0 0 24 24" fill="none" xmlns="http://www.w3.org/2000/svg">
<g id="Frame">
<path id="Vector" d="M17.4669 3C19.6339 3 22.1676 5.28593 22.7808 11.6982C23.2254 16.3538 22.9972 19.0843 22.064 20.2894C21.7138 20.7537 21.2023 21.0138 20.6698 20.9985C19.2297 20.9985 18.4074 20.0014 17.4559 18.8476C17.1186 18.4381 16.7703 18.0151 16.3633 17.5948C15.5034 16.7111 14.3741 16.2611 13.2255 16.3439C13.0468 16.3439 12.8671 16.3475 12.7058 16.352C12.5435 16.3565 12.3895 16.361 12.241 16.361H11.7598C11.6085 16.361 11.4619 16.3565 11.295 16.352C11.1215 16.3465 10.948 16.3435 10.7744 16.343C9.62581 16.2611 8.49648 16.712 7.63665 17.5948C7.22965 18.016 6.88224 18.439 6.54399 18.8467C5.59249 20.0023 4.77116 20.9994 3.33017 20.9994C2.79759 21.0138 2.28701 20.7537 1.93593 20.2903C1.00185 19.0825 0.774518 16.3538 1.22002 11.6982C1.83235 5.28593 4.36692 3 6.53391 3C7.21224 3.036 7.86765 3.30149 8.41581 3.76498C9.47456 4.58035 10.7295 4.98534 12 4.92324C13.2705 4.98534 14.5254 4.57945 15.5841 3.76498C16.1332 3.30149 16.7877 3.036 17.4669 3ZM17.5311 12.4182C17.3912 12.4183 17.2527 12.4455 17.1236 12.4981C16.9944 12.5508 16.877 12.6279 16.7782 12.7251C16.6794 12.8223 16.601 12.9377 16.5476 13.0646C16.4942 13.1915 16.4667 13.3275 16.4669 13.4649C16.467 13.6022 16.4946 13.7382 16.5483 13.865C16.6019 13.9918 16.6805 14.107 16.7795 14.2041C16.8785 14.3011 16.996 14.378 17.1252 14.4305C17.2545 14.4829 17.3931 14.5099 17.5329 14.5097C17.8154 14.5095 18.0863 14.3991 18.2858 14.2028C18.4854 14.0065 18.5974 13.7404 18.5972 13.4631C18.5969 13.1857 18.4845 12.9198 18.2845 12.7239C18.0846 12.5279 17.8136 12.418 17.5311 12.4182ZM7.12149 8.32153C7.01349 8.2601 6.8909 8.22773 6.76609 8.22769C6.64128 8.22764 6.51867 8.25992 6.41063 8.32126C6.30258 8.38261 6.21293 8.47085 6.15073 8.57708C6.08852 8.68331 6.05596 8.80378 6.05632 8.92631V10.6723H4.28167C4.09289 10.6723 3.91184 10.7459 3.77836 10.8769C3.64487 11.008 3.56988 11.1857 3.56988 11.3711C3.56988 11.5564 3.64487 11.7342 3.77836 11.8652C3.91184 11.9963 4.09289 12.0699 4.28167 12.0699H6.05632V13.8141C6.05651 13.9364 6.08943 14.0565 6.15177 14.1624C6.21411 14.2683 6.30369 14.3563 6.41154 14.4176C6.5194 14.4788 6.64175 14.5111 6.76634 14.5114C6.89093 14.5116 7.0134 14.4797 7.12149 14.4188C7.22945 14.3574 7.31906 14.2692 7.38132 14.1631C7.44359 14.0569 7.47632 13.9366 7.47623 13.8141V12.0699H9.24998C9.43888 12.0699 9.62004 11.9962 9.75361 11.8651C9.88718 11.734 9.96222 11.5561 9.96222 11.3706C9.96222 11.1852 9.88718 11.0073 9.75361 10.8762C9.62004 10.745 9.43888 10.6714 9.24998 10.6714H7.47623V8.92631C7.47632 8.80381 7.44359 8.68345 7.38132 8.5773C7.31906 8.47114 7.22945 8.38294 7.12149 8.32153ZM15.8087 10.4032C15.6141 10.3239 15.4 10.3031 15.1933 10.3434C14.9867 10.3838 14.797 10.4835 14.6482 10.63C14.4998 10.7766 14.3989 10.9631 14.3581 11.1659C14.3174 11.3687 14.3386 11.5788 14.4191 11.7698C14.4996 11.9608 14.6359 12.1242 14.8107 12.2394C14.9855 12.3546 15.1911 12.4165 15.4017 12.4173C15.5416 12.4173 15.6802 12.3902 15.8095 12.3375C15.9387 12.2848 16.0561 12.2076 16.1549 12.1103C16.2537 12.0129 16.3319 11.8974 16.3851 11.7704C16.4384 11.6433 16.4655 11.5071 16.465 11.3697C16.465 10.9467 16.2065 10.5652 15.8087 10.4032ZM20.0657 10.4032C19.8711 10.3239 19.6569 10.3031 19.4503 10.3434C19.2437 10.3838 19.054 10.4835 18.9052 10.63C18.7568 10.7766 18.6559 10.9631 18.6151 11.1659C18.5744 11.3687 18.5956 11.5788 18.6761 11.7698C18.7566 11.9608 18.8929 12.1242 19.0677 12.2394C19.2425 12.3546 19.4481 12.4165 19.6587 12.4173C19.7987 12.4174 19.9374 12.3904 20.0667 12.3378C20.1961 12.2851 20.3136 12.2079 20.4125 12.1106C20.5113 12.0132 20.5897 11.8977 20.6429 11.7706C20.6962 11.6434 20.7234 11.5072 20.7229 11.3697C20.7229 10.9467 20.4635 10.5652 20.0657 10.4032ZM17.5293 8.22793C17.3893 8.22811 17.2508 8.25535 17.1216 8.30809C16.9924 8.36083 16.875 8.43804 16.7762 8.53532C16.6773 8.63259 16.599 8.74803 16.5456 8.87503C16.4922 9.00203 16.4648 9.13811 16.465 9.2755C16.4652 9.41289 16.4929 9.5489 16.5467 9.67577C16.6004 9.80263 16.679 9.91787 16.7781 10.0149C16.8772 10.1119 16.9948 10.1888 17.1241 10.2412C17.2535 10.2937 17.3921 10.3205 17.532 10.3204C17.8146 10.32 18.0855 10.2094 18.2851 10.013C18.4847 9.81653 18.5966 9.55028 18.5963 9.2728C18.5959 8.99533 18.4833 8.72936 18.2832 8.53341C18.0831 8.33746 17.8119 8.22758 17.5293 8.22793Z" fill="white"/>
</g>
</svg>
