<svg width="22" height="22" viewBox="0 0 22 22" fill="none" xmlns="http://www.w3.org/2000/svg">
<g id="Frame" clip-path="url(#clip0_2569_9265)">
<path id="Vector" d="M14.7033 11.2186C16.2285 10.1293 17.2084 8.27767 17.2084 6.20808C17.2084 2.72267 14.3768 0 11 0C7.51495 0 4.79227 2.83198 4.79227 6.20808C4.79227 8.27767 5.77224 10.129 7.29702 11.2186C3.37611 12.743 0.544136 16.555 0.544136 21.0207C0.543635 21.1496 0.568664 21.2773 0.617778 21.3965C0.666892 21.5156 0.739118 21.6239 0.830289 21.715C0.921461 21.8061 1.02977 21.8783 1.14897 21.9273C1.26817 21.9763 1.3959 22.0013 1.52479 22.0007C1.65365 22.0012 1.78135 21.9762 1.90051 21.9272C2.01967 21.8781 2.12794 21.806 2.21907 21.7149C2.31021 21.6238 2.3824 21.5155 2.4315 21.3964C2.48059 21.2773 2.50561 21.1496 2.50511 21.0207C2.50476 16.3374 6.31705 12.4165 11 12.4165C15.6837 12.4165 19.4956 16.2284 19.4956 20.9117C19.4951 21.0406 19.52 21.1684 19.5691 21.2875C19.6182 21.4067 19.6904 21.515 19.7815 21.6061C19.8726 21.6973 19.9809 21.7695 20.1001 21.8185C20.2193 21.8676 20.347 21.8926 20.4759 21.8921C20.6048 21.8926 20.7325 21.8676 20.8517 21.8185C20.9709 21.7695 21.0792 21.6973 21.1703 21.6061C21.2615 21.515 21.3336 21.4067 21.3827 21.2875C21.4318 21.1684 21.4568 21.0406 21.4562 20.9117C21.3469 16.446 18.6242 12.743 14.7033 11.2186ZM11 1.85166C13.3965 1.85166 15.3568 3.81229 15.3568 6.20808C15.3568 8.60455 13.3965 10.5648 11 10.5648C8.60422 10.5648 6.6436 8.60455 6.6436 6.20808C6.6436 3.81195 8.60457 1.85166 11 1.85166Z" fill="white"/>
</g>
<defs>
<clipPath id="clip0_2569_9265">
<rect width="22" height="22" fill="white"/>
</clipPath>
</defs>
</svg>
