<svg width="133" height="49" viewBox="0 0 133 49" fill="none" xmlns="http://www.w3.org/2000/svg">
<path d="M1.21094 49V9.31111H8.07411L16.8689 2L25.6636 7.22222L32.9926 16.6222L40.3215 26.0222L50.5821 23.9333L56.4453 26.0222L68.1716 23.9333L76.9664 30.2L85.7611 17.6667L93.0901 20.8H110.68L120.94 13.4889L132.666 16.6222V49H1.21094Z" fill="url(#paint0_linear_916_15038)"/>
<path d="M0 3.74072H132.667" stroke="#18B762" stroke-opacity="0.5" stroke-width="1.2" stroke-dasharray="3.6 3.6"/>
<path d="M2.36689 8.33446L1.4805 8.17852L1.1686 9.95129L2.05499 10.1072L2.36689 8.33446ZM8.07411 10.2524L7.91816 11.1388L8.3616 11.2168L8.68995 10.9087L8.07411 10.2524ZM16.8689 2L17.2511 1.18522L16.6983 0.925856L16.253 1.34369L16.8689 2ZM25.6636 6.1262L26.3973 5.60494L26.2602 5.41196L26.0459 5.31142L25.6636 6.1262ZM35.9242 20.5679L35.1905 21.0892L35.2511 21.1745L35.3297 21.2436L35.9242 20.5679ZM41.7873 25.7257L41.1929 26.4014L41.5412 26.7078L41.9929 26.6019L41.7873 25.7257ZM50.5821 23.6626L50.826 22.7962L50.6025 22.7333L50.3766 22.7863L50.5821 23.6626ZM57.9111 25.7257L57.6672 26.592L57.8759 26.6507L58.0885 26.608L57.9111 25.7257ZM68.1716 23.6626L68.6896 22.9265L68.3733 22.704L67.9942 22.7802L68.1716 23.6626ZM76.9664 29.8519L76.4484 30.5879L77.2727 31.168L77.7561 30.2835L76.9664 29.8519ZM84.2953 16.4417L84.6776 15.6269L83.9114 15.2675L83.5056 16.0101L84.2953 16.4417ZM93.0901 20.5679L92.7078 21.3827L92.8895 21.4679H93.0901V20.5679ZM110.68 20.5679V21.4679H110.965L111.198 21.3039L110.68 20.5679ZM120.94 13.3471L121.17 12.4768L120.765 12.37L120.422 12.611L120.94 13.3471ZM2.05499 10.1072L7.91816 11.1388L8.23006 9.36601L2.36689 8.33446L2.05499 10.1072ZM8.68995 10.9087L17.4847 2.65631L16.253 1.34369L7.45827 9.59609L8.68995 10.9087ZM16.4866 2.81478L25.2814 6.94098L26.0459 5.31142L17.2511 1.18522L16.4866 2.81478ZM24.9299 6.64746L35.1905 21.0892L36.6578 20.0466L26.3973 5.60494L24.9299 6.64746ZM35.3297 21.2436L41.1929 26.4014L42.3818 25.0499L36.5186 19.8922L35.3297 21.2436ZM41.9929 26.6019L50.7876 24.5388L50.3766 22.7863L41.5818 24.8494L41.9929 26.6019ZM50.3382 24.5289L57.6672 26.592L58.1549 24.8593L50.826 22.7962L50.3382 24.5289ZM58.0885 26.608L68.349 24.5449L67.9942 22.7802L57.7337 24.8433L58.0885 26.608ZM67.6536 24.3986L76.4484 30.5879L77.4843 29.1158L68.6896 22.9265L67.6536 24.3986ZM77.7561 30.2835L85.0851 16.8733L83.5056 16.0101L76.1766 29.4202L77.7561 30.2835ZM83.9131 17.2565L92.7078 21.3827L93.4724 19.7531L84.6776 15.6269L83.9131 17.2565ZM93.0901 21.4679H110.68V19.6679H93.0901V21.4679ZM111.198 21.3039L121.458 14.0831L120.422 12.611L110.162 19.8319L111.198 21.3039ZM120.711 14.2173L132.437 17.3119L132.896 15.5715L121.17 12.4768L120.711 14.2173Z" fill="#18B762"/>
<defs>
<linearGradient id="paint0_linear_916_15038" x1="67.4387" y1="2" x2="67.4387" y2="49" gradientUnits="userSpaceOnUse">
<stop stop-color="#55C860" stop-opacity="0.3"/>
<stop offset="1" stop-color="#55C860" stop-opacity="0"/>
</linearGradient>
</defs>
</svg>
