<svg width="16" height="16" viewBox="0 0 16 16" fill="none" xmlns="http://www.w3.org/2000/svg">
<path d="M7.38471 14.1539C9.18002 14.1539 10.9018 13.4408 12.1713 12.1713C13.4408 10.9018 14.1539 9.18002 14.1539 7.38471C14.1539 5.5894 13.4408 3.86762 12.1713 2.59814C10.9018 1.32866 9.18002 0.615479 7.38471 0.615479C5.5894 0.615479 3.86762 1.32866 2.59814 2.59814C1.32866 3.86762 0.615479 5.5894 0.615479 7.38471C0.615479 9.18002 1.32866 10.9018 2.59814 12.1713C3.86762 13.4408 5.5894 14.1539 7.38471 14.1539ZM7.38471 12.9232C5.91582 12.9232 4.50709 12.3397 3.46843 11.301C2.42976 10.2623 1.84625 8.8536 1.84625 7.38471C1.84625 5.91582 2.42976 4.50709 3.46843 3.46843C4.50709 2.42976 5.91582 1.84625 7.38471 1.84625C8.8536 1.84625 10.2623 2.42976 11.301 3.46843C12.3397 4.50709 12.9232 5.91582 12.9232 7.38471C12.9232 8.8536 12.3397 10.2623 11.301 11.301C10.2623 12.3397 8.8536 12.9232 7.38471 12.9232Z" fill="white"/>
<path d="M11.1829 11.7981C11.2983 11.6827 11.4548 11.6179 11.6179 11.6179C11.7811 11.6179 11.9376 11.6827 12.053 11.7981L14.6635 14.4086C14.7223 14.4653 14.7691 14.5332 14.8014 14.6083C14.8336 14.6834 14.8506 14.7641 14.8513 14.8458C14.852 14.9276 14.8365 15.0086 14.8055 15.0842C14.7746 15.1599 14.7289 15.2286 14.6711 15.2863C14.6133 15.3441 14.5446 15.3898 14.469 15.4208C14.3934 15.4517 14.3123 15.4673 14.2306 15.4666C14.1489 15.4658 14.0682 15.4489 13.9931 15.4166C13.918 15.3844 13.8501 15.3375 13.7933 15.2787L11.1829 12.6683C11.0675 12.5528 11.0027 12.3964 11.0027 12.2332C11.0027 12.07 11.0675 11.9135 11.1829 11.7981ZM12.053 12.6683C12.1684 12.5528 12.2332 12.3964 12.2332 12.2332C12.2332 12.07 12.1684 11.9135 12.053 11.7981L14.6635 14.4086C14.6067 14.3498 14.5388 14.3029 14.4637 14.2706C14.3886 14.2384 14.3079 14.2214 14.2262 14.2207C14.1445 14.22 14.0634 14.2356 13.9878 14.2665C13.9122 14.2975 13.8435 14.3432 13.7857 14.4009C13.7279 14.4587 13.6822 14.5274 13.6513 14.603C13.6203 14.6787 13.6048 14.7597 13.6055 14.8414C13.6062 14.9231 13.6232 15.0039 13.6554 15.079C13.6877 15.154 13.7345 15.2219 13.7933 15.2787L11.1829 12.6683C11.2983 12.7836 11.4548 12.8484 11.6179 12.8484C11.7811 12.8484 11.9376 12.7836 12.053 12.6683Z" fill="white"/>
</svg>
