<svg width="30" height="30" fill="none" xmlns="http://www.w3.org/2000/svg"><circle cx="15" cy="15" r="13" fill="#E22D2D"/><g clip-path="url(#a)"><path d="M0 15a15 15 0 1 0 30 0 15 15 0 0 0-30 0Z" fill="#D80027"/><path d="M16.549 11.348c-.341 1.418-.947 1.147-1.244 2.384a3.261 3.261 0 0 1 1.524-6.341c-.594 2.473.025 2.689-.28 3.957Zm-4.544 1.05c1.243.763.799 1.256 1.883 1.92a3.26 3.26 0 0 1-5.56-3.409c2.169 1.33 2.565.808 3.677 1.49Zm-.405 4.647c1.11-.947 1.44-.372 2.408-1.198a3.261 3.261 0 0 1-4.96 4.234c1.934-1.651 1.56-2.19 2.552-3.036Zm4.294 1.82c-.558-1.347.091-1.484-.395-2.66a3.261 3.261 0 0 1 2.494 6.027c-.973-2.35-1.6-2.161-2.1-3.367Zm3.058-3.52c-1.454.114-1.384-.546-2.652-.447a3.261 3.261 0 0 1 6.502-.51c-2.536.2-2.55.855-3.85.957Z" fill="#F0F0F0"/></g><defs><clipPath id="a"><path fill="#fff" d="M0 0h30v30H0z"/></clipPath></defs></svg>