<svg width="30" height="30" fill="none" xmlns="http://www.w3.org/2000/svg"><circle cx="15" cy="15" r="13" fill="#E22D2D"/><mask id="a" style="mask-type:alpha" maskUnits="userSpaceOnUse" x="2" y="2" width="26" height="26"><circle cx="15" cy="15" r="13" fill="#CE1126"/></mask><g mask="url(#a)"><path fill-rule="evenodd" clip-rule="evenodd" d="M19.709 6.025 19.35 5l-.36 1.025-1.135.008.856.677-.323 1.119.962-.658.962.658-.345-1.104.877-.692-1.135-.008Zm4.303 4.196-.359-1.025-.36 1.025-1.135.008.856.677-.323 1.118.962-.657.962.657-.345-1.103.877-.692-1.135-.008Zm-.149 6.09-.358-1.026-.36 1.026-1.136.008.857.676-.323 1.119.962-.658.962.658-.346-1.104.878-.692-1.136-.008Zm-4.154 4.158-.359-1.025-.36 1.026-1.135.008.856.676-.323 1.119.962-.658.962.658-.345-1.104.877-.692-1.135-.008Zm-8.964-10.356L9.651 6.818l-1.094 3.295-3.463.026L7.7 12.314l-.984 3.595 2.934-2.114 2.934 2.114-1.053-3.548 2.677-2.222-3.464-.026Z" fill="#FCD116"/></g><g clip-path="url(#b)"><path d="M.987 9.643A14.999 14.999 0 0 1 14.999.001a14.999 14.999 0 0 1 14.014 9.642H.987Z" fill="#040000"/><path d="M.986 20.357A14.971 14.971 0 0 1 0 15c-.002-1.83.332-3.647.985-5.357h28.027c.653 1.71.987 3.526.985 5.357a14.973 14.973 0 0 1-.985 5.357H.986Z" fill="#CB1428"/><path d="M.986 20.357h28.027a14.999 14.999 0 0 1-14.012 9.642A15.005 15.005 0 0 1 .986 20.357Z" fill="#F5D34B"/></g><defs><clipPath id="b"><path fill="#fff" d="M0 0h30v30H0z"/></clipPath></defs></svg>