<svg width="30" height="30" fill="none" xmlns="http://www.w3.org/2000/svg"><g clip-path="url(#a)"><path d="M1.143 20.752h27.715a14.787 14.787 0 0 1-1.204 2.305H2.347a14.89 14.89 0 0 1-1.204-2.305Zm3.013 4.61h21.69c-.84.88-1.783 1.654-2.81 2.307H6.964a15.07 15.07 0 0 1-2.809-2.307h.002ZM.043 16.137h29.915a15.025 15.025 0 0 1-.354 2.305H.397a14.976 14.976 0 0 1-.354-2.305ZM7.014 2.3h15.974a15.072 15.072 0 0 1 2.829 2.305H4.186A15.071 15.071 0 0 1 7.014 2.3ZM2.367 6.912h25.267c.47.729.875 1.502 1.213 2.31H1.154c.338-.808.744-1.58 1.213-2.31ZM.406 11.521h29.19c.177.749.3 1.519.36 2.305H.046c.06-.787.182-1.556.36-2.305Z" fill="#fff"/><path d="M.398 18.448h29.205a14.986 14.986 0 0 1-.745 2.305H1.143c-.31-.747-.56-1.518-.745-2.305Zm6.566 9.22h16.074a14.916 14.916 0 0 1-7.137 2.306h-1.798a14.916 14.916 0 0 1-7.137-2.305h-.002Zm-4.62-4.616h25.314a15.08 15.08 0 0 1-1.807 2.306H4.15a15.067 15.067 0 0 1-1.808-2.306Zm-1.19-13.83h27.693c.31.74.561 1.51.75 2.304H.404c.19-.795.44-1.565.75-2.305Zm3.032-4.617h21.63a15.1 15.1 0 0 1 1.818 2.306H2.367c.53-.827 1.14-1.6 1.819-2.306Zm-4.14 9.226h29.91c.059.768.06 1.539.002 2.306H.043a15.212 15.212 0 0 1 .003-2.306ZM22.986 2.3H7.014A14.93 14.93 0 0 1 15.001 0c2.935 0 5.673.843 7.986 2.3Z" fill="#BF0A30"/><path d="M.044 16.163A15.21 15.21 0 0 1 .001 15C0 6.716 6.717 0 15 0c.506 0 1.006.025 1.5.075v16.087H.044Z" fill="#002868"/><path d="M.002 15.196v-.286c0-.081 0-.163.002-.243h.072l.128-.375.12.375h.4l-.327.243.124.375-.317-.238-.203.15Zm.325-3.325c.034-.159.07-.316.109-.474h.29l-.327.233.124.386-.194-.146-.002.001ZM8.756 1.36c.15-.07.302-.138.455-.2l.027.082h.396l-.317.238.119.38-.322-.242-.316.243.119-.381-.163-.122.002.002Zm3.332-.5.119.38h.4l-.316.238.118.382-.316-.243-.327.243.125-.382-.318-.237h.396l.12-.378V.86Zm0 3.355.119.38h.4l-.316.238.118.38-.316-.237-.327.237.125-.38-.318-.237h.396l.12-.381Zm0 3.363.119.382h.4l-.316.237.118.38-.316-.237-.327.237.125-.38-.318-.237h.396l.12-.382Zm0 3.434.119.38h.4l-.316.233.118.386-.316-.238-.327.238.125-.386-.318-.233h.396l.12-.38Zm0 3.279.119.376h.4l-.316.243.118.375-.316-.238-.327.238.125-.375-.318-.243h.396l.12-.375v-.001ZM9.113 4.215l.124.381h.396l-.317.238.118.38-.32-.238-.317.238.119-.38-.318-.238h.403l.113-.381Zm0 3.364.124.38h.396l-.317.238.118.38-.32-.237-.317.237.119-.38-.318-.237h.403l.113-.381Zm0 3.433.124.38h.396l-.317.233.118.386-.32-.237-.317.237.119-.386-.318-.233h.403l.113-.38Zm0 3.28.124.375h.396l-.317.243.118.375-.32-.238-.317.238.119-.375-.318-.243h.403l.113-.375ZM6.147 4.214l.119.381h.395l-.317.238.124.38-.321-.238-.328.238.125-.38-.327-.238h.4l.13-.381Zm0 3.364.119.38h.395l-.317.238.124.38-.321-.237-.328.237.125-.38-.327-.237h.4l.13-.381Zm0 3.433.119.38h.395l-.317.233.124.386-.321-.237-.328.237.125-.386-.327-.233h.4l.13-.38Zm0 3.28.119.375h.395l-.317.243.124.375-.321-.238-.328.238.125-.375-.327-.243h.4l.13-.375ZM3.173 7.578l.124.38h.4l-.325.238.122.38-.325-.237-.317.237.124-.38-.327-.237h.4l.125-.381Zm0 3.433.124.38h.4l-.325.233.122.386-.325-.237-.317.237.124-.386-.327-.233h.4l.125-.38Zm0 3.28.124.375h.4l-.325.243.122.375-.325-.238-.317.238.124-.375-.327-.243h.4l.125-.375ZM13.602 2.536l.119.382h.4l-.317.237.12.381-.322-.237-.328.237.125-.38-.317-.238h.396l.124-.382Zm0 3.468.119.381h.4l-.317.238.12.38-.322-.237-.328.238.125-.381-.317-.238h.396l.124-.381Zm-.03 3.394.119.38h.4l-.317.238.12.382-.317-.238-.321.238.118-.382-.317-.237h.396l.119-.381Zm-.03 3.36.124.38h.396l-.323.237.12.381-.317-.237-.321.237.118-.38-.316-.238h.395l.125-.38h-.001ZM10.629 2.537l.118.382h.4l-.316.237.118.381-.32-.237-.327.237.124-.38-.322-.238h.395l.13-.382Zm0 3.468.118.381h.4l-.316.238.118.38-.32-.237-.327.238.124-.381-.322-.238h.395l.13-.381ZM10.597 9.4l.125.381h.395l-.316.238.123.38-.327-.237-.316.238.118-.381-.316-.238h.395l.119-.381Zm-.029 3.36.124.38h.395l-.321.237.123.382-.326-.238-.322.238.118-.382-.316-.237h.396l.13-.38ZM7.661 2.419l.122.38h.396l-.32.238.123.382-.326-.238-.318.238.119-.382-.321-.237h.396l.129-.381Zm0 3.467.122.381h.396l-.32.238.123.381-.326-.237-.318.237.119-.381-.321-.238h.396l.129-.38ZM7.63 9.28l.123.381h.395l-.316.238.124.38-.326-.237-.327.238.124-.381-.322-.238h.396l.129-.381Zm-.03 3.36.123.38h.397l-.318.232.125.387-.327-.238-.322.238.12-.387-.317-.232h.395l.125-.38H7.6ZM4.688 5.847l.123.382h.4l-.325.237.122.38-.325-.237-.322.237.123-.38-.326-.237h.4l.129-.382h.001ZM4.656 9.25l.125.375h.4l-.327.237.124.382-.327-.238-.317.238.12-.382-.322-.237h.4l.125-.375h-.001Zm-.03 3.354.125.38h.4l-.327.238.124.38-.326-.237-.318.237.125-.38-.327-.237h.4l.125-.381ZM1.684 9.19l.124.38h.4l-.325.238.122.38-.326-.242-.316.243.119-.381-.323-.238h.4l.125-.381v.001Zm-.025 3.353.119.38h.4l-.325.238.122.382-.32-.238-.327.238.124-.382-.327-.237h.4l.134-.381ZM15.061.862l.118.38h.4l-.32.238.118.381-.316-.242-.327.242.124-.381-.316-.238h.395l.124-.38Zm0 3.354.118.381h.4l-.32.238.118.38-.316-.238-.327.238.124-.38-.316-.238h.395l.124-.38Zm0 3.364.118.381h.4l-.32.238.118.38-.316-.238-.327.238.124-.38-.316-.238h.395l.124-.381Zm0 3.434.118.38h.4l-.32.232.118.386-.316-.237-.327.237.124-.386-.316-.232h.395l.124-.38Zm0 3.278.118.377h.4l-.32.242.118.375-.316-.237-.327.237.124-.375-.316-.242h.395l.124-.375v-.002Z" fill="#fff"/></g><defs><clipPath id="a"><path fill="#fff" d="M0 0h30v30H0z"/></clipPath></defs></svg>