<svg width="30" height="30" fill="none" xmlns="http://www.w3.org/2000/svg"><circle cx="15" cy="15" r="13" fill="#E22D2D"/><mask id="a" style="mask-type:alpha" maskUnits="userSpaceOnUse" x="2" y="2" width="26" height="26"><circle cx="15" cy="15" r="13" fill="#CE1126"/></mask><g mask="url(#a)"><path fill-rule="evenodd" clip-rule="evenodd" d="M19.709 6.025 19.35 5l-.36 1.025-1.135.008.856.677-.323 1.119.962-.658.962.658-.345-1.104.877-.692-1.135-.008Zm4.303 4.196-.359-1.025-.36 1.025-1.135.008.856.677-.323 1.118.962-.657.962.657-.345-1.103.877-.692-1.135-.008Zm-.149 6.09-.358-1.026-.36 1.026-1.136.008.857.676-.323 1.119.962-.658.962.658-.346-1.104.878-.692-1.136-.008Zm-4.154 4.158-.359-1.025-.36 1.026-1.135.008.856.676-.323 1.119.962-.658.962.658-.345-1.104.877-.692-1.135-.008Zm-8.964-10.356L9.651 6.818l-1.094 3.295-3.463.026L7.7 12.314l-.984 3.595 2.934-2.114 2.934 2.114-1.053-3.548 2.677-2.222-3.464-.026Z" fill="#FCD116"/></g><g clip-path="url(#b)"><path d="M14.983 0c8.276 0 14.984 6.709 14.984 14.983 0 8.275-6.708 14.985-14.983 14.985C6.707 29.968 0 23.258 0 14.983 0 6.71 6.708 0 14.983 0Z" fill="#F0F0F0"/><path d="M20.195 14.984c0 1.303-2.333 4.56-5.212 4.56-2.878 0-5.211-3.257-5.211-4.56a5.212 5.212 0 1 1 10.423 0Z" fill="#D80027"/><path d="M20.195 14.983a5.212 5.212 0 1 1-10.423 0" fill="#0052B4"/><path d="m20.511 19.591 1.383-1.382.92.922-1.381 1.381-.922-.92Zm-2.304 2.303 1.383-1.381.921.92-1.382 1.383-.922-.921Zm5.07.46 1.38-1.382.92.922-1.38 1.382-.92-.922Zm-2.305 2.303 1.383-1.381.92.92-1.382 1.383-.92-.922Zm.921-3.685 1.383-1.382.92.922-1.381 1.382-.922-.922Zm.002 1.842-1.382 1.382-.922-.921 1.382-1.382.922.92Zm1.381-12.437-3.685-3.686.921-.92 3.686 3.685-.922.921Zm-3.685-.92-1.383-1.382.922-.921 1.382 1.382-.92.92Zm2.303 2.302-1.383-1.382.922-.921 1.383 1.382-.922.921Zm-.002-7.37 1.382 1.382-.921.922L20.97 5.31l.921-.922Zm2.766 4.607-1.383-1.382.922-.921 1.383 1.382-.922.921ZM5.31 20.973l3.686 3.685-.923.922-3.684-3.685.92-.922Zm3.685.92 1.381 1.383-.92.92-1.382-1.381.921-.921ZM6.692 19.59l1.383 1.382-.922.922-1.382-1.382.92-.922Zm1.382-1.382 3.686 3.686-.923.92-3.685-3.684.922-.922ZM8.995 5.31 5.31 8.995l-.921-.921 3.686-3.685.921.921ZM5.77 9.456 9.455 5.77l.921.921-3.685 3.685-.922-.921Zm5.991-1.381L8.074 11.76l-.922-.922 3.687-3.685.921.92Z" fill="#000"/></g><defs><clipPath id="b"><path fill="#fff" d="M0 0h30v30H0z"/></clipPath></defs></svg>