<svg class="icon" width="256" height="256" viewBox="0 0 1024 1024" xmlns="http://www.w3.org/2000/svg"><path fill="#cdcdcd" d="M935.564 97.745H88.436C39.564 97.745 0 137.31 0 188.51v649.31c0 48.872 39.564 88.436 88.436 88.436h844.8c48.873 0 88.437-39.564 88.437-88.437V188.51c2.327-51.2-37.237-90.764-86.11-90.764zm-847.128 76.8h844.8c6.982 0 11.637 4.655 11.637 11.637v456.145L721.455 381.673 477.09 693.527s-188.51-153.6-195.491-153.6c-6.982 0-139.636 186.182-204.8 276.946V188.509c0-6.982 4.655-13.964 11.636-13.964zm97.746 167.564a62.836 62.836 0 1 0 125.673 0 62.836 62.836 0 1 0-125.673 0z"/></svg>