<svg class="icon" width="256" height="256" viewBox="0 0 1024 1024" xmlns="http://www.w3.org/2000/svg"><path fill="#cdcdcd" d="m409.75 128-38.87 60.48H138.795c-7.595 0-14.016 6.4-14.016 13.973v534.464l128.469-184.96a51.03 51.03 0 0 1 38.656-21.333 51.84 51.84 0 0 1 41.45 15.957l89.729 96.107 48.618-69.91L588.864 739.35 501.654 896h-362.86A74.752 74.752 0 0 1 64 821.44V202.56A74.752 74.752 0 0 1 138.795 128h270.954zm475.455 0C926.464 128 960 161.45 960 202.453V821.44c0 41.13-33.643 74.56-74.901 74.56H593.28l77.888-139.904 1.28-2.517c5.973-12.736 4.693-27.734-3.499-39.36L520.32 502.89l65.387-93.931a51.072 51.072 0 0 1 42.048-21.461c16.917 0 32.853 8.085 42.154 21.461l229.312 327.744v-534.25c0-7.574-6.4-13.974-14.016-13.974H465.963L504.832 128h380.373zM277.973 247.19a66.987 66.987 0 0 1 44.416 16.725l-18.09 28.16-1.43 2.41a39.403 39.403 0 0 0 2.347 41.6l18.197 25.856a66.987 66.987 0 0 1-45.44 17.643c-36.8 0-66.858-29.653-66.858-66.197 0-36.544 29.952-66.198 66.858-66.198z"/></svg>