<svg xmlns="http://www.w3.org/2000/svg" width="20" height="20" fill="none"><path d="m17.241 4.928-6.458-3.74c-.429-.25-1.118-.25-1.547 0l-1.078.62-5.39 3.12c-.429.25-.768.85-.768 1.34v7.473c0 .49.349 1.1.769 1.34l1.856 1.07 4.601 2.66c.429.25 1.118.25 1.547 0l6.458-3.74c.429-.25.769-.85.769-1.34V6.268c.01-.49-.34-1.09-.759-1.34Z" fill="#fff"/><path d="m17.241 4.928-6.458-3.74c-.429-.25-1.118-.25-1.547 0l-1.078.62-5.39 3.12c-.429.25-.768.85-.768 1.34v7.473c0 .49.349 1.1.769 1.34l1.856 1.07 4.601 2.66c.429.25 1.118.25 1.547 0l6.458-3.74c.429-.25.769-.85.769-1.34V6.268c.01-.49-.34-1.09-.759-1.34Z" fill="green"/><path d="M10 12.75a.742.742 0 0 1-.53-.22l-3-3a.75.75 0 1 1 1.061-1.06l2.47 2.47 3.47-3.47a.75.75 0 0 1 1.06 1.06l-4 4a.748.748 0 0 1-.53.22Z" fill="#fff"/></svg>