<svg width="28" height="28" fill="none" xmlns="http://www.w3.org/2000/svg"><g clip-path="url(#a)"><path d="M3.693 16.226a2.99 2.99 0 0 1-3.02-2.948c-.033-1.71 1.25-3.035 3.022-3.08v6.03l-.002-.002Zm20.212-.02v-5.972c1.597-.133 3.04 1.276 3.057 2.94.014 1.704-1.405 3.135-3.057 3.031Zm-6.15-4.558a1.579 1.579 0 0 0-1.616 1.554c-.007.853.726 1.593 1.592 1.6a1.6 1.6 0 0 0 1.493-2.187 1.546 1.546 0 0 0-1.47-.967Zm-9.431 1.597a1.57 1.57 0 0 0 1.613 1.554 1.618 1.618 0 0 0 1.574-1.62c-.017-.872-.732-1.548-1.638-1.537a1.534 1.534 0 0 0-1.55 1.603Zm2.3 7.645v-1.367c-.254-.015-.488-.034-.72-.037-1.232-.003-2.467.006-3.7-.003-.749-.008-1.002-.252-1.002-.981-.003-3.52-.003-7.038 0-10.561 0-.767.238-.986 1.049-.986 2.398-.003 4.796 0 7.297 0 0-1.028.01-1.201-.016-2.196-.005-.106-.218-.235-.354-.314-.762-.42-1.096-1.095-.89-1.844a1.585 1.585 0 0 1 1.546-1.198c.729.01 1.357.513 1.529 1.22.187.764-.154 1.425-.914 1.837-.16.089-.374.282-.377.427-.037.933-.017 1.049-.017 2.06H21.3c.905 0 1.13.211 1.132 1.12.006 3.412.006 6.824 0 10.235 0 .973-.22 1.173-1.224 1.175-1.32.004-2.64.007-3.96.015-.066 0-.126.028-.24.059v1.439c.474 0 .948-.003 1.42 0 .56.004.86.284.863.849.004 1.244 0 1.671.004 2.919 0 .598-.326.889-.9.889-3.062.004-6.12.004-9.184 0-.582 0-.887-.29-.882-.898.014-1.226-.003-1.63.008-2.852.006-.669.238-.887.927-.904.415-.01.836-.015 1.255-.024.008.001.025-.02.104-.08v.001Z" fill="#fff"/></g><defs><clipPath id="a"><path fill="#fff" transform="translate(.672 .666)" d="M0 0h26.665v26.665H0z"/></clipPath></defs></svg>