<svg width="14" height="14" viewBox="0 0 14 14" fill="none" xmlns="http://www.w3.org/2000/svg">
<path d="M8.16673 1.6334C8.16673 1.69173 8.2834 1.8084 8.4584 2.10007C8.6334 2.39173 8.8084 2.6834 9.04173 3.15006C9.27507 3.61673 9.56673 4.02506 9.8584 4.55007C10.1501 5.07506 10.5001 5.60007 10.7917 6.12507C11.0834 6.65007 11.4334 7.2334 11.7251 7.7584C12.0167 8.2834 12.3084 8.8084 12.6001 9.21673C12.8334 9.6834 13.0667 10.0334 13.3001 10.3834C13.5334 10.7334 13.5917 10.9084 13.7084 11.0251C13.8251 11.2584 13.9417 11.4917 13.9417 11.7251C14.0001 11.9584 13.9417 12.1334 13.8834 12.3667C13.8251 12.6001 13.7084 12.7167 13.5917 12.8334C13.4167 12.9501 13.2417 13.0084 13.0084 13.0084H1.22507C0.875065 13.0084 0.583398 12.9501 0.408398 12.8334C0.233398 12.7167 0.116732 12.5417 0.0583984 12.3667C6.5105e-05 12.1917 6.5105e-05 11.9584 0.0583984 11.7834C0.116732 11.5501 0.175065 11.3751 0.350065 11.1417C0.408398 11.0251 0.525065 10.8501 0.700065 10.5001C0.875065 10.2084 1.1084 9.80007 1.40007 9.39173C1.69173 8.92507 1.9834 8.4584 2.27506 7.9334C2.56673 7.4084 2.91673 6.82507 3.26673 6.30007C3.61673 5.77506 3.9084 5.19173 4.20007 4.66673C4.49173 4.14173 4.7834 3.67507 5.01673 3.26673C5.25006 2.8584 5.4834 2.5084 5.6584 2.21673L5.95007 1.75007C6.06673 1.57507 6.24173 1.40007 6.47507 1.2834C6.7084 1.16673 6.8834 1.1084 7.11673 1.1084C7.35007 1.1084 7.52507 1.16673 7.7584 1.22507C7.87507 1.2834 8.05007 1.4584 8.16673 1.6334ZM7.81673 4.31673C7.81673 4.20007 7.81673 4.0834 7.7584 4.02506C7.70007 3.9084 7.64173 3.85007 7.5834 3.79173C7.52507 3.7334 7.4084 3.67507 7.29173 3.61673C7.17507 3.5584 7.0584 3.50007 6.94173 3.50007C6.7084 3.50007 6.5334 3.5584 6.3584 3.7334C6.1834 3.9084 6.06673 4.0834 6.06673 4.31673V7.9334C6.06673 8.16673 6.1834 8.34173 6.3584 8.51673C6.5334 8.69173 6.7084 8.75007 6.94173 8.75007C7.17507 8.75007 7.35007 8.69173 7.52507 8.51673C7.70007 8.34173 7.81673 8.16673 7.81673 7.9334V4.31673ZM6.94173 9.56673C6.7084 9.56673 6.47507 9.62506 6.3584 9.80007C6.24173 9.97507 6.12506 10.1501 6.12506 10.3834C6.12506 10.6167 6.1834 10.8501 6.3584 10.9667C6.5334 11.1417 6.7084 11.2001 6.94173 11.2001C7.17507 11.2001 7.4084 11.1417 7.52507 10.9667C7.70007 10.7917 7.7584 10.6167 7.7584 10.3834C7.7584 10.1501 7.70007 9.91673 7.52507 9.80007C7.4084 9.62506 7.17507 9.56673 6.94173 9.56673Z" fill="#FF4834"/>
</svg>
