<svg width="20" height="20" viewBox="0 0 20 20" fill="none" xmlns="http://www.w3.org/2000/svg">
<circle cx="10" cy="10" r="10" fill="#97E180"/>
<rect width="12" height="12" transform="translate(4 4)" fill="#97E180"/>
<path d="M5.23594 5.95087H5.23597L5.23591 5.94815C5.23315 5.82136 5.18085 5.70069 5.0902 5.612C4.99956 5.5233 4.87778 5.47363 4.75096 5.47363C4.62414 5.47363 4.50237 5.5233 4.41172 5.612C4.32108 5.70069 4.26878 5.82136 4.26602 5.94815L4.26599 5.94815V5.95087V14.3511C4.26599 14.6188 4.48323 14.836 4.75105 14.836H15.2511H15.2511C15.3797 14.8359 15.5031 14.7848 15.594 14.6939C15.685 14.6029 15.736 14.4795 15.736 14.3509C15.736 14.2223 15.685 14.0989 15.594 14.0079C15.5031 13.917 15.3797 13.8659 15.2511 13.8658H15.2511H5.23594V5.95087Z" fill="white" stroke="white" stroke-width="0.25"/>
<path d="M9.41054 8.28872L7.04735 10.6521H7.04539L7.00844 10.6909C6.92113 10.7825 6.87313 10.9047 6.87467 11.0313C6.87621 11.1579 6.92719 11.2789 7.0167 11.3684C7.10622 11.4579 7.22719 11.5089 7.35378 11.5104C7.48036 11.512 7.60254 11.4639 7.69421 11.3766L7.69424 11.3767L7.69639 11.3745L9.79089 9.28018L10.8497 10.1274L10.8486 10.1287L10.9505 10.2103C11.1474 10.3681 11.4295 10.3469 11.6015 10.1694L14.2965 7.47442L14.2965 7.47446L14.2992 7.47167C14.3855 7.37983 14.4328 7.25795 14.4308 7.13188C14.4289 7.00581 14.3779 6.88545 14.2887 6.79631C14.1996 6.70717 14.0792 6.65625 13.9531 6.65435C13.8271 6.65245 13.7052 6.69972 13.6134 6.78613L13.6133 6.78609L13.6107 6.78877L11.2163 9.18312L10.0877 8.28018C9.99692 8.19384 9.87617 8.14591 9.75072 8.14662C9.62305 8.14735 9.50082 8.19841 9.41055 8.2887C9.41055 8.28871 9.41054 8.28871 9.41054 8.28872ZM11.1239 10.1937L11.1413 10.1738L11.0287 10.1128L11.1227 10.1951L11.1239 10.1937Z" fill="white" stroke="white" stroke-width="0.25"/>
<path d="M14.9898 8.17088L12.9739 6.1551L15.142 5.7998L14.9898 8.17088Z" fill="white"/>
</svg>
