<svg width="16" height="16" fill="none" xmlns="http://www.w3.org/2000/svg"><circle cx="8" cy="8" r="8" fill="#fff"/><g clip-path="url(#a)"><path fill="#fff" d="M3.2 3.2h9.6v9.6H3.2z"/><path d="M4.214 4.76v-.002a.413.413 0 0 0-.826 0v6.723c0 .228.185.413.413.413h8.4a.414.414 0 0 0 0-.826H4.214V4.76Z" fill="#171717" stroke="#171717" stroke-width=".25"/><path d="M7.51 6.614 5.628 8.497h-.001l-.037.039a.413.413 0 0 0 .584.584l.002-.002 1.66-1.66.809.647-.001.002.102.081a.413.413 0 0 0 .554-.035l2.156-2.155.002-.003a.413.413 0 0 0-.584-.584l-.002.003-1.9 1.9-.884-.708a.413.413 0 0 0-.576.008Z" fill="#171717" stroke="#171717" stroke-width=".25"/><path d="m11.992 6.537-1.613-1.613 1.735-.284-.122 1.897Z" fill="#171717"/></g><defs><clipPath id="a"><path fill="#fff" transform="translate(3.2 3.2)" d="M0 0h9.6v9.6H0z"/></clipPath></defs></svg>