<svg xmlns="http://www.w3.org/2000/svg" width="20" height="20" viewBox="0 0 20 20" fill="none">
  <path d="M9.90516 2C9.80939 1.99996 9.71705 2.03561 9.64616 2.1L2.12616 8.941C2.0573 9.00426 2.01346 9.09016 2.00263 9.18304C1.9918 9.27592 2.0147 9.36959 2.06716 9.447L2.09916 9.488C2.10516 9.49467 4.62116 11.7843 9.64716 16.357C9.68458 16.3911 9.72837 16.4174 9.77602 16.4345C9.82366 16.4516 9.87421 16.4591 9.92477 16.4566C9.97533 16.4541 10.0249 16.4416 10.0706 16.4199C10.1163 16.3982 10.1573 16.3676 10.1912 16.33C10.2554 16.2586 10.2911 16.166 10.2912 16.07V12.101C10.6441 12.1096 10.9959 12.143 11.3442 12.201L11.4442 12.219C14.2912 12.739 16.5802 14.388 17.3442 17.159L17.4022 17.033C17.7691 16.2107 17.9729 15.325 18.0022 14.425C18.0082 12.3381 17.211 10.329 15.7757 8.81406C14.3405 7.29912 12.3773 6.39459 10.2932 6.288V2.388C10.2933 2.33718 10.2834 2.28683 10.2641 2.23983C10.2448 2.19282 10.2164 2.15009 10.1805 2.11406C10.1447 2.07803 10.1021 2.04941 10.0552 2.02984C10.0083 2.01027 9.95798 2.00013 9.90716 2H9.90516ZM8.87916 4.707V7.637L10.2242 7.701C11.7135 7.77659 13.135 8.34687 14.2637 9.32155C15.3923 10.2962 16.1635 11.6196 16.4552 13.082C15.1113 11.8973 13.4597 11.1169 11.6912 10.831L11.5782 10.811C11.1642 10.7416 10.7458 10.7015 10.3262 10.691L8.87916 10.654V13.754L3.90916 9.232L8.87916 4.711V4.707Z" fill="white"/>
</svg>