<svg width="20" height="20" fill="none" xmlns="http://www.w3.org/2000/svg"><path d="M9.905 2a.385.385 0 0 0-.26.1l-7.52 6.841a.39.39 0 0 0-.058.506l.032.041c.006.007 2.522 2.296 7.548 6.869a.384.384 0 0 0 .544-.027.39.39 0 0 0 .1-.26v-3.969c.353.009.705.042 1.053.1l.1.018c2.847.52 5.136 2.169 5.9 4.94l.058-.126c.367-.822.57-1.708.6-2.608a8.124 8.124 0 0 0-7.71-8.137v-3.9A.386.386 0 0 0 9.908 2h-.002ZM8.879 4.707v2.93l1.345.064a6.7 6.7 0 0 1 6.23 5.381 9.495 9.495 0 0 0-4.763-2.251l-.113-.02a8.922 8.922 0 0 0-1.252-.12l-1.447-.037v3.1l-4.97-4.522 4.97-4.521v-.004Z" fill="#0E0F18"/></svg>