<svg width="60" height="60" viewBox="0 0 60 60" fill="none" xmlns="http://www.w3.org/2000/svg">
<rect width="60" height="60" rx="16" fill="#F19009" fill-opacity="0.1"/>
<path d="M30.3335 11.332C41.3795 11.332 50.3335 20.286 50.3335 31.332C50.3335 42.378 41.3795 51.332 30.3335 51.332C19.2875 51.332 10.3335 42.378 10.3335 31.332C10.3335 20.286 19.2875 11.332 30.3335 11.332ZM28.3335 20.308C27.8031 20.308 27.2944 20.5187 26.9193 20.8938C26.5442 21.2689 26.3335 21.7776 26.3335 22.308V33.332L26.3475 33.566C26.4048 34.0525 26.6387 34.5011 27.0047 34.8266C27.3708 35.1521 27.8436 35.332 28.3335 35.332H39.3935L39.6255 35.318C40.1124 35.2612 40.5614 35.0275 40.8873 34.6614C41.2132 34.2953 41.3934 33.8222 41.3935 33.332L41.3815 33.098C41.3241 32.6112 41.09 32.1624 40.7235 31.8368C40.357 31.5112 39.8837 31.3316 39.3935 31.332H30.3335V22.308C30.3335 21.204 29.3595 20.308 28.3335 20.308Z" fill="#F19009"/>
</svg>
