<svg width="64" height="59" viewBox="0 0 64 59" fill="none" xmlns="http://www.w3.org/2000/svg">
<path d="M57.2156 37.6774V58.58L63.6528 48.1284V27.2266L57.2156 37.6774Z" fill="#8194AC"/>
<path d="M63.6524 0.0523415L44.7543 0.0517578L16.4009 0.0523415C14.3612 0.0523415 11.8576 1.53871 10.8376 3.3553L1.04839 20.7874C0.0284666 22.604 0.0284666 25.5757 1.04839 27.3917L10.8375 44.8244C11.8576 46.641 14.3611 48.1274 16.4008 48.1274H39.5384C39.5432 48.1274 39.5482 48.1271 39.553 48.1271L63.6524 48.1274V0.0523415Z" fill="#D0D8E2"/>
<g clip-path="url(#clip0_372_4132)">
<path d="M46.5735 13.412C40.7103 7.54886 31.1047 7.54886 25.2415 13.412C19.5031 19.3999 19.6279 28.8808 25.6158 34.7439C31.4789 40.3576 40.7103 40.3576 46.5735 34.7439C52.4366 28.8808 52.4366 19.3999 46.5735 13.412ZM42.4568 30.6273C41.9578 31.1262 41.2093 31.1262 40.7103 30.6273L35.9699 25.8868L31.2294 30.6273C30.7305 31.1262 29.8572 31.1262 29.483 30.6273C29.1087 30.1283 28.984 29.3798 29.483 28.8808L34.2234 24.1404L29.483 19.3999C28.984 18.9009 28.984 18.1524 29.483 17.6535C29.982 17.1545 30.7305 17.1545 31.2294 17.6535L35.9699 22.3939L40.7103 17.6535C41.2093 17.1545 42.0825 17.1545 42.4568 17.6535C42.831 18.1524 42.9558 18.9009 42.4568 19.3999L37.7163 24.1404L42.4568 28.8808C42.9558 29.3798 42.9558 30.1283 42.4568 30.6273Z" fill="#8F92A1"/>
</g>
<defs>
<clipPath id="clip0_372_4132">
<rect width="30" height="30" fill="white" transform="translate(21 9)"/>
</clipPath>
</defs>
</svg>
