<svg width="64" height="59" viewBox="0 0 64 59" fill="none" xmlns="http://www.w3.org/2000/svg">
<path d="M57.2156 37.6774V58.58L63.6528 48.1284V27.2266L57.2156 37.6774Z" fill="#53B07E"/>
<path d="M63.6524 0.0523415L44.7543 0.0517578L16.4009 0.0523415C14.3612 0.0523415 11.8576 1.53871 10.8376 3.3553L1.04839 20.7874C0.0284666 22.604 0.0284666 25.5757 1.04839 27.3917L10.8375 44.8244C11.8576 46.641 14.3611 48.1274 16.4008 48.1274H39.5384C39.5432 48.1274 39.5482 48.1271 39.553 48.1271L63.6524 48.1274V0.0523415Z" fill="#A8EAC6"/>
<path d="M35.9612 14.0988L40.2544 9.80964C37.0461 8.54827 33.5013 8.43055 30.2164 9.47628C26.9315 10.522 24.1071 12.6674 22.2185 15.5513C20.3299 18.4352 19.4924 21.8817 19.8469 25.3108C20.2013 28.7398 21.7262 31.9421 24.1648 34.3787C26.6035 36.8153 29.807 38.3375 33.2363 38.6891C36.6656 39.0408 40.1114 38.2004 42.9938 36.3094C45.8762 34.4184 48.0192 31.5922 49.0622 28.3065C50.1052 25.0207 49.9845 21.476 48.7205 18.2688L44.4344 22.5549C44.6886 24.5708 44.3067 26.6157 43.342 28.4039C42.3773 30.1921 40.878 31.6343 39.0537 32.5289C37.2295 33.4235 35.1713 33.7258 33.1668 33.3936C31.1623 33.0614 29.3117 32.1112 27.8735 30.676C26.4353 29.2407 25.4815 27.392 25.1452 25.3882C24.809 23.3843 25.1072 21.3255 25.9981 19.4995C26.889 17.6734 28.3282 16.1712 30.1144 15.2029C31.9007 14.2347 33.9449 13.8486 35.9612 14.0988Z" fill="#18B762"/>
<path d="M33.4524 20.186C33.1074 20.5026 32.8301 20.8858 32.6371 21.3124C32.4441 21.739 32.3394 22.2003 32.3294 22.6685C32.3194 23.1366 32.4042 23.602 32.5788 24.0365C32.7533 24.471 33.014 24.8657 33.3451 25.1968C33.6762 25.5279 34.0709 25.7886 34.5054 25.9631C34.9399 26.1377 35.4053 26.2225 35.8734 26.2125C36.3416 26.2025 36.8029 26.0978 37.2295 25.9048C37.6561 25.7118 38.0393 25.4345 38.3559 25.0895L41.3031 22.1424C41.6592 23.5746 41.5358 25.0841 40.952 26.4396C40.3682 27.7951 39.3562 28.9218 38.0708 29.6471C36.7855 30.3724 35.2978 30.6564 33.8357 30.4554C32.3736 30.2545 31.0177 29.5797 29.9757 28.5346C28.9337 27.4894 28.2631 26.1314 28.0667 24.6687C27.8702 23.206 28.1587 21.7192 28.8879 20.4361C29.6172 19.153 30.747 18.1444 32.1042 17.5647C33.4615 16.9851 34.9714 16.8664 36.4025 17.2268L33.4524 20.186Z" fill="#18B762"/>
<path d="M48.4613 14.2882L49.7312 13.0323C49.7473 13.0157 49.7581 12.9947 49.7624 12.972C49.7667 12.9493 49.7642 12.9258 49.7552 12.9045C49.7463 12.8832 49.7312 12.865 49.712 12.8521C49.6928 12.8392 49.6703 12.8323 49.6472 12.8321H45.8144C45.7836 12.8321 45.7541 12.8199 45.7323 12.7981C45.7105 12.7764 45.6983 12.7468 45.6983 12.7161V8.88627C45.699 8.86275 45.6926 8.83957 45.6797 8.81985C45.6669 8.80013 45.6483 8.78483 45.6265 8.77599C45.6047 8.76716 45.5807 8.76523 45.5577 8.77045C45.5348 8.77567 45.514 8.7878 45.4982 8.80521L39.8641 14.4953L38.5631 15.8463C38.4783 15.9342 38.4306 16.0514 38.43 16.1736V18.6514C38.43 18.7125 38.4177 18.7731 38.394 18.8295L35.4769 21.7446C35.3031 21.9187 35.2056 22.1546 35.2056 22.4006C35.2056 22.6466 35.3031 22.8825 35.4769 23.0566C35.5628 23.1428 35.6649 23.2112 35.7773 23.2578C35.8896 23.3045 36.0102 23.3285 36.1319 23.3285C36.2536 23.3285 36.3741 23.3045 36.4865 23.2578C36.5988 23.2112 36.7009 23.1428 36.7868 23.0566L38.9994 20.843C39.0178 20.8382 39.0366 20.8356 39.0555 20.835L39.6059 20.2846C39.6927 20.1978 39.8104 20.1489 39.9331 20.1485H42.4119C42.4726 20.1491 42.5327 20.1376 42.5889 20.1148C42.6451 20.0919 42.6962 20.0581 42.7392 20.0154L48.4293 14.3823C48.4418 14.3701 48.4513 14.3552 48.4571 14.3386C48.4628 14.3221 48.4646 14.3045 48.4623 14.2872L48.4613 14.2882Z" fill="#18B762"/>
</svg>
