<svg width="60" height="60" fill="none" xmlns="http://www.w3.org/2000/svg"><rect width="60" height="60" rx="16" fill="#EFF3F8"/><g clip-path="url(#a)"><path d="M44.098 15.883c-7.818-7.818-20.625-7.818-28.443 0-7.651 7.984-7.485 20.625.5 28.442 7.817 7.485 20.125 7.485 27.943 0 7.817-7.817 7.817-20.458 0-28.442Zm-5.49 22.953c-.664.666-1.662.666-2.328 0l-6.32-6.32-6.321 6.32c-.665.666-1.83.666-2.329 0-.499-.665-.665-1.663 0-2.328l6.321-6.32-6.32-6.321c-.666-.666-.666-1.664 0-2.33.665-.664 1.663-.664 2.328 0l6.32 6.322 6.321-6.321c.666-.665 1.83-.665 2.329 0 .499.665.665 1.663 0 2.329l-6.32 6.32 6.32 6.32c.665.666.665 1.664 0 2.33Z" fill="#8F92A1"/></g><defs><clipPath id="a"><path fill="#fff" transform="translate(10 10)" d="M0 0h40v40H0z"/></clipPath></defs></svg>