<svg width="60" height="60" viewBox="0 0 60 60" fill="none" xmlns="http://www.w3.org/2000/svg">
<rect width="60" height="60" rx="16" fill="#97E180" fill-opacity="0.1"/>
<path d="M30.3335 11.333C41.3795 11.333 50.3335 20.287 50.3335 31.333C50.3335 42.379 41.3795 51.333 30.3335 51.333C19.2875 51.333 10.3335 42.379 10.3335 31.333C10.3335 20.287 19.2875 11.333 30.3335 11.333ZM28.3335 20.309C27.8031 20.309 27.2944 20.5197 26.9193 20.8948C26.5442 21.2699 26.3335 21.7786 26.3335 22.309V33.333L26.3475 33.567C26.4048 34.0535 26.6387 34.5021 27.0047 34.8276C27.3708 35.1531 27.8436 35.3329 28.3335 35.333H39.3935L39.6255 35.319C40.1124 35.2621 40.5614 35.0285 40.8873 34.6624C41.2132 34.2962 41.3934 33.8232 41.3935 33.333L41.3815 33.099C41.3241 32.6122 41.09 32.1633 40.7235 31.8378C40.357 31.5122 39.8837 31.3326 39.3935 31.333H30.3335V22.309C30.3335 21.205 29.3595 20.309 28.3335 20.309Z" fill="#97E180"/>
</svg>
