<svg width="64" height="59" viewBox="0 0 64 59" fill="none" xmlns="http://www.w3.org/2000/svg">
<path d="M57.2156 37.6774V58.58L63.6528 48.1284V27.2266L57.2156 37.6774Z" fill="#4C75D2"/>
<path d="M63.6524 0.0523415L44.7543 0.0517578L16.4009 0.0523415C14.3612 0.0523415 11.8576 1.53871 10.8376 3.3553L1.04839 20.7874C0.0284666 22.604 0.0284666 25.5757 1.04839 27.3917L10.8375 44.8244C11.8576 46.641 14.3611 48.1274 16.4008 48.1274H39.5384C39.5432 48.1274 39.5482 48.1271 39.553 48.1271L63.6524 48.1274V0.0523415Z" fill="#AFC7FF"/>
<path d="M35 9C43.2845 9 50 15.7155 50 24C50 32.2845 43.2845 39 35 39C26.7155 39 20 32.2845 20 24C20 15.7155 26.7155 9 35 9ZM33.5 15.732C33.1022 15.732 32.7206 15.89 32.4393 16.1713C32.158 16.4526 32 16.8342 32 17.232V25.5L32.0105 25.6755C32.0535 26.0404 32.2289 26.3768 32.5034 26.6209C32.778 26.8651 33.1326 27 33.5 27H41.795L41.969 26.9895C42.3341 26.9469 42.6709 26.7716 42.9154 26.497C43.1598 26.2224 43.2949 25.8676 43.295 25.5L43.286 25.3245C43.243 24.9594 43.0674 24.6227 42.7925 24.3786C42.5176 24.1344 42.1627 23.9997 41.795 24H35V17.232C35 16.404 34.2695 15.732 33.5 15.732Z" fill="#014CFA"/>
</svg>
