<svg width="60" height="60" fill="none" xmlns="http://www.w3.org/2000/svg"><rect width="60" height="60" rx="16" fill="#18B762" fill-opacity=".1"/><path d="m30.59 18.106 5.725-5.72a20 20 0 1 0 11.289 11.28l-5.716 5.716A13.002 13.002 0 1 1 30.59 18.106Z" fill="#18B762"/><path d="M27.244 26.222a4.628 4.628 0 1 0 6.539 6.539l3.93-3.93a8.997 8.997 0 1 1-6.535-6.555l-3.934 3.946Z" fill="#18B762"/><path d="m47.258 18.358 1.693-1.674a.157.157 0 0 0-.112-.267h-5.11a.155.155 0 0 1-.155-.155v-5.107a.153.153 0 0 0-.267-.108l-7.513 7.588-1.735 1.801a.632.632 0 0 0-.177.436v3.304a.613.613 0 0 1-.048.238l-3.89 3.887a1.239 1.239 0 0 0 .873 2.112 1.233 1.233 0 0 0 .874-.363l2.95-2.951a.35.35 0 0 1 .075-.01l.734-.735a.62.62 0 0 1 .436-.181h3.305a.611.611 0 0 0 .437-.178l7.587-7.511a.15.15 0 0 0 .044-.127l-.001.001Z" fill="#18B762"/></svg>