<svg width="375" height="166" viewBox="0 0 375 166" fill="none" xmlns="http://www.w3.org/2000/svg">
<path d="M360.963 116.759L375 127.126V166H3.05176e-05V1L36.0963 20.0052L68.1818 41.6021L115.307 45.9215L142.38 52.8325L162.433 63.199H182.487L208.556 52.8325L220.588 87.3874L244.652 78.7487L268.717 102.937H294.786H310.829L324.866 116.759L340.909 127.126L360.963 116.759Z" fill="url(#paint0_linear_169_16583)"/>
<path d="M375 127.126L360.963 116.759L340.909 127.126L324.866 116.759L310.829 102.937H294.786H268.717L244.652 78.7487L220.588 87.3874L208.556 52.8325L182.487 63.199H162.433L142.38 52.8325L115.307 45.9215L91.7446 43.7618L68.1818 41.6021L36.0962 20.0052L-1.41859e-05 1" stroke="#E8503A" stroke-opacity="0.7" stroke-width="2"/>
<defs>
<linearGradient id="paint0_linear_169_16583" x1="187.5" y1="1" x2="187.5" y2="166" gradientUnits="userSpaceOnUse">
<stop stop-color="#E8503A" stop-opacity="0.5"/>
<stop offset="1" stop-color="#E8503A" stop-opacity="0"/>
</linearGradient>
</defs>
</svg>
