<svg width="24" height="24" viewBox="0 0 24 24" fill="none" xmlns="http://www.w3.org/2000/svg">
<g id="Frame">
<path id="Vector" d="M7.36821 11.3409H22.5246C22.8415 11.3409 23 11.4967 23 11.8084V13.1916C23 13.5033 22.8415 13.6591 22.5246 13.6591H7.36821C7.05131 13.6591 6.89286 13.5033 6.89286 13.1916V11.8084C6.89286 11.4967 7.05131 11.3409 7.36821 11.3409ZM7.36821 4.38636H22.5246C22.8415 4.38636 23 4.5422 23 4.85386V6.23705C23 6.54871 22.8415 6.70455 22.5246 6.70455H7.36821C7.05131 6.70455 6.89286 6.54871 6.89286 6.23705V4.85386C6.89286 4.5422 7.05131 4.38636 7.36821 4.38636ZM7.36821 18.2955H22.5246C22.8415 18.2955 23 18.4513 23 18.763V20.1461C23 20.4578 22.8415 20.6136 22.5246 20.6136H7.36821C7.05131 20.6136 6.89286 20.4578 6.89286 20.1461V18.763C6.89286 18.4513 7.05131 18.2955 7.36821 18.2955ZM1 5.54545C1 5.95533 1.16556 6.34843 1.46026 6.63826C1.75496 6.92808 2.15466 7.09091 2.57143 7.09091C2.9882 7.09091 3.3879 6.92808 3.6826 6.63826C3.9773 6.34843 4.14286 5.95533 4.14286 5.54545C4.14286 5.13557 3.9773 4.74248 3.6826 4.45265C3.3879 4.16282 2.9882 4 2.57143 4C2.15466 4 1.75496 4.16282 1.46026 4.45265C1.16556 4.74248 1 5.13557 1 5.54545ZM1 12.5C1 12.9099 1.16556 13.303 1.46026 13.5928C1.75496 13.8826 2.15466 14.0455 2.57143 14.0455C2.9882 14.0455 3.3879 13.8826 3.6826 13.5928C3.9773 13.303 4.14286 12.9099 4.14286 12.5C4.14286 12.0901 3.9773 11.697 3.6826 11.4072C3.3879 11.1174 2.9882 10.9545 2.57143 10.9545C2.15466 10.9545 1.75496 11.1174 1.46026 11.4072C1.16556 11.697 1 12.0901 1 12.5ZM1 19.4545C1 19.8644 1.16556 20.2575 1.46026 20.5473C1.75496 20.8372 2.15466 21 2.57143 21C2.9882 21 3.3879 20.8372 3.6826 20.5473C3.9773 20.2575 4.14286 19.8644 4.14286 19.4545C4.14286 19.0447 3.9773 18.6516 3.6826 18.3617C3.3879 18.0719 2.9882 17.9091 2.57143 17.9091C2.15466 17.9091 1.75496 18.0719 1.46026 18.3617C1.16556 18.6516 1 19.0447 1 19.4545Z" fill="white"/>
</g>
</svg>
