<svg width="12" height="12" fill="none" xmlns="http://www.w3.org/2000/svg"><g clip-path="url(#a)" fill="#fff" fill-opacity=".5"><path d="M1.759 1.757a6 6 0 1 1 6.577 9.77A6.005 6.005 0 0 1 .473 8.334 5.995 5.995 0 0 1 1.76 1.757ZM.984 5.995a5.016 5.016 0 1 0 1.472-3.538A5.022 5.022 0 0 0 .982 5.999l.002-.004Z"/><path d="M6 3.855a.492.492 0 0 1 .49.491v4.958a.494.494 0 1 1-.988 0V4.346a.492.492 0 0 1 .499-.491Zm0-1.927a.492.492 0 0 1 .49.491v.276a.494.494 0 1 1-.988 0v-.276a.492.492 0 0 1 .499-.491Z"/></g><defs><clipPath id="a"><path fill="#fff" transform="matrix(-1 0 0 1 12 0)" d="M0 0h12v12H0z"/></clipPath></defs></svg>