<svg width="130" height="34" fill="none" xmlns="http://www.w3.org/2000/svg"><mask id="b" maskUnits="userSpaceOnUse" x="0" y="0" width="130" height="34" fill="#000"><path fill="#fff" d="M0 0h130v34H0z"/><path fill-rule="evenodd" clip-rule="evenodd" d="m29.4 23.64 1.98-4.47c-2.91-.87-5.22-2.01-6.96-3.39h5.82v-4.26h-5.85V9.3h4.8V5.04h-4.8V3.12L19.71 3v2.04h-5.22V3.12L9.78 3v2.04h-4.8V9.3h4.8v2.22h-5.7v4.26H9.9C8.25 17.1 6.12 18.21 3 19.44l2.16 4.35c.78-.42 1.56-.87 2.34-1.35-.9 1.89-2.04 3.78-3.45 5.61l4.05 2.34c.63-1.05 1.29-2.37 1.98-3.99.69-1.65 1.29-3.18 1.77-4.62l-1.98-.96c1.05-.72 2.13-1.56 3.21-2.52v6.36c0 1.29-.27 1.62-1.5 1.77l-1.38.15 1.5 4.47 2.52-.24c2.85-.33 3.27-.63 3.39-3.78V22.2c1.02 3.57 1.71 6.18 2.04 7.8l3.93-1.41c-.39-1.32-.9-2.79-1.47-4.38-.57-1.62-1.11-3-1.59-4.11l-2.91.78v-3.6h-3.42c.39-.39.87-.87 1.41-1.5h3.3c1.23 1.65 2.79 3.18 4.71 4.53l-1.53.48c.54 1.23 1.14 2.76 1.8 4.56.69 1.8 1.26 3.45 1.77 4.98l4.44-1.89-.397-.908c-.648-1.482-1.364-3.12-2.183-4.882l1.89.99ZM19.71 9.3v2.22h-5.22V9.3h5.22Zm18.517 2.1V8.64h9.12V7.38h-10.26V4.14h10.26V3.06l5.13.12v.96h10.29v3.24h-10.29v1.26h9.15v2.76h-23.4Zm19.02 7.95h6.3v3.3h-27.24v-3.3h6.15l-.69-1.38h-2.52v-5.49h21.33v5.49h-2.58l-.184.35c-.198.379-.382.73-.566 1.03Zm-1.47-3.48v-1.29h-11.73v1.29h11.73Zm-2.7 2.1h-6.27l.72 1.38h4.8l.75-1.38Zm7.95 5.82v6.63h-22.23v-6.63h22.23Zm-4.8 3.9v-1.38h-12.63v1.38h12.63Zm66.184-24.54v20.97c0 1.11-.51 1.56-1.71 1.65l-2.04.18 1.47 4.98 2.34-.21c3.75-.36 4.65-1.14 4.65-4.11V3.27l-4.71-.12Zm-2.04 21.03V5.58l-4.41-.12v15.51a68.438 68.438 0 0 0-2.084-2.055l-.046-.045c-.75-.72-1.32-1.23-1.71-1.53l-1.41 1.5v-3.51h3.96V10.8h-3.96V8.25l3.99-.36-.81-4.44c-1.68.15-3.72.33-6.12.48-2.4.15-4.44.27-6.09.3l.48 4.47 1.41-.06c.867-.024 1.549-.07 2.031-.101l.279-.019v2.28h-4.5v4.53h4.17c-1.11 1.95-3.09 4.26-5.22 6.15l1.53 5.91c1.32-1.17 2.67-2.76 4.02-4.71v8.19h4.83v-8.49c1.14 1.23 2.01 2.22 2.58 2.97l2.67-3.39v2.22h4.41Zm-26.547 2.07v-6.21h-7.32l1.56-2.91-2.91-1.38c1.08-.81 2.04-1.68 2.88-2.58v-2.04h2.34l-.03.75c0 .237-.015.582-.035 1.025l-.025.565c-.09.99-.45 1.23-1.68 1.38l-.75.09 1.32 3.96.96-.09c3.9-.42 4.32-.72 4.71-4.2.12-1.83.24-4.2.36-7.08h-4.35l.45-3.93h-20.79v4.29h2.91c-.022.382-.062.697-.093.945v.001c-.01.082-.02.157-.027.224-.24 1.68-.69 3.09-1.35 4.23-.66 1.11-1.68 2.28-3.09 3.48l3.51 3.03c1.35-1.26 2.37-2.43 3.12-3.48.75-1.08 1.32-2.31 1.71-3.66h7.47c-1.05.81-1.89 1.38-2.52 1.71-1.47-.69-2.52-1.14-3.15-1.41l-1.59 2.19 1.53.78c-1.14.51-2.37.96-3.72 1.35l2.1 2.58c1.77-.66 3.39-1.41 4.86-2.22 1.35.72 2.76 1.53 4.23 2.4h-14.94v6.21h-2.4v4.11h27.18v-4.11h-2.43Zm-7.8-16.65h-8.19l.01-.05a5.99 5.99 0 0 0 .11-.73l.023-.153.001-.006c.032-.203.073-.469.096-.771h8.22l-.27 1.71Zm-8.25 13.98v2.67h-2.04v-2.67h2.04Zm3.84 2.67v-2.67h2.04v2.67h-2.04Zm5.85 0v-2.67h2.07v2.67h-2.07Z"/></mask><path fill-rule="evenodd" clip-rule="evenodd" d="m29.4 23.64 1.98-4.47c-2.91-.87-5.22-2.01-6.96-3.39h5.82v-4.26h-5.85V9.3h4.8V5.04h-4.8V3.12L19.71 3v2.04h-5.22V3.12L9.78 3v2.04h-4.8V9.3h4.8v2.22h-5.7v4.26H9.9C8.25 17.1 6.12 18.21 3 19.44l2.16 4.35c.78-.42 1.56-.87 2.34-1.35-.9 1.89-2.04 3.78-3.45 5.61l4.05 2.34c.63-1.05 1.29-2.37 1.98-3.99.69-1.65 1.29-3.18 1.77-4.62l-1.98-.96c1.05-.72 2.13-1.56 3.21-2.52v6.36c0 1.29-.27 1.62-1.5 1.77l-1.38.15 1.5 4.47 2.52-.24c2.85-.33 3.27-.63 3.39-3.78V22.2c1.02 3.57 1.71 6.18 2.04 7.8l3.93-1.41c-.39-1.32-.9-2.79-1.47-4.38-.57-1.62-1.11-3-1.59-4.11l-2.91.78v-3.6h-3.42c.39-.39.87-.87 1.41-1.5h3.3c1.23 1.65 2.79 3.18 4.71 4.53l-1.53.48c.54 1.23 1.14 2.76 1.8 4.56.69 1.8 1.26 3.45 1.77 4.98l4.44-1.89-.397-.908c-.648-1.482-1.364-3.12-2.183-4.882l1.89.99ZM19.71 9.3v2.22h-5.22V9.3h5.22Zm18.517 2.1V8.64h9.12V7.38h-10.26V4.14h10.26V3.06l5.13.12v.96h10.29v3.24h-10.29v1.26h9.15v2.76h-23.4Zm19.02 7.95h6.3v3.3h-27.24v-3.3h6.15l-.69-1.38h-2.52v-5.49h21.33v5.49h-2.58l-.184.35c-.198.379-.382.73-.566 1.03Zm-1.47-3.48v-1.29h-11.73v1.29h11.73Zm-2.7 2.1h-6.27l.72 1.38h4.8l.75-1.38Zm7.95 5.82v6.63h-22.23v-6.63h22.23Zm-4.8 3.9v-1.38h-12.63v1.38h12.63Zm66.184-24.54v20.97c0 1.11-.51 1.56-1.71 1.65l-2.04.18 1.47 4.98 2.34-.21c3.75-.36 4.65-1.14 4.65-4.11V3.27l-4.71-.12Zm-2.04 21.03V5.58l-4.41-.12v15.51a68.438 68.438 0 0 0-2.084-2.055l-.046-.045c-.75-.72-1.32-1.23-1.71-1.53l-1.41 1.5v-3.51h3.96V10.8h-3.96V8.25l3.99-.36-.81-4.44c-1.68.15-3.72.33-6.12.48-2.4.15-4.44.27-6.09.3l.48 4.47 1.41-.06c.867-.024 1.549-.07 2.031-.101l.279-.019v2.28h-4.5v4.53h4.17c-1.11 1.95-3.09 4.26-5.22 6.15l1.53 5.91c1.32-1.17 2.67-2.76 4.02-4.71v8.19h4.83v-8.49c1.14 1.23 2.01 2.22 2.58 2.97l2.67-3.39v2.22h4.41Zm-26.547 2.07v-6.21h-7.32l1.56-2.91-2.91-1.38c1.08-.81 2.04-1.68 2.88-2.58v-2.04h2.34l-.03.75c0 .237-.015.582-.035 1.025l-.025.565c-.09.99-.45 1.23-1.68 1.38l-.75.09 1.32 3.96.96-.09c3.9-.42 4.32-.72 4.71-4.2.12-1.83.24-4.2.36-7.08h-4.35l.45-3.93h-20.79v4.29h2.91c-.022.382-.062.697-.093.945v.001c-.01.082-.02.157-.027.224-.24 1.68-.69 3.09-1.35 4.23-.66 1.11-1.68 2.28-3.09 3.48l3.51 3.03c1.35-1.26 2.37-2.43 3.12-3.48.75-1.08 1.32-2.31 1.71-3.66h7.47c-1.05.81-1.89 1.38-2.52 1.71-1.47-.69-2.52-1.14-3.15-1.41l-1.59 2.19 1.53.78c-1.14.51-2.37.96-3.72 1.35l2.1 2.58c1.77-.66 3.39-1.41 4.86-2.22 1.35.72 2.76 1.53 4.23 2.4h-14.94v6.21h-2.4v4.11h27.18v-4.11h-2.43Zm-7.8-16.65h-8.19l.01-.05a5.99 5.99 0 0 0 .11-.73l.023-.153.001-.006c.032-.203.073-.469.096-.771h8.22l-.27 1.71Zm-8.25 13.98v2.67h-2.04v-2.67h2.04Zm3.84 2.67v-2.67h2.04v2.67h-2.04Zm5.85 0v-2.67h2.07v2.67h-2.07Z" fill="url(#a)"/><path d="m31.38 19.17 1.829.81.92-2.076-2.176-.65-.573 1.916Zm-1.98 4.47-.928 1.772 1.892.99.865-1.952-1.829-.81Zm-4.98-7.86v-2h-5.74l4.497 3.567 1.243-1.567Zm5.82 0v2h2v-2h-2Zm0-4.26h2v-2h-2v2Zm-5.85 0h-2v2h2v-2Zm0-2.22v-2h-2v2h2Zm4.8 0v2h2v-2h-2Zm0-4.26h2v-2h-2v2Zm-4.8 0h-2v2h2v-2Zm0-1.92h2V1.17l-1.949-.05-.051 2ZM19.71 3l.051-2L17.71.949V3h2Zm0 2.04v2h2v-2h-2Zm-5.22 0h-2v2h2v-2Zm0-1.92h2V1.17l-1.95-.05-.05 2ZM9.78 3l.05-2L7.78.949V3h2Zm0 2.04v2h2v-2h-2Zm-4.8 0v-2h-2v2h2Zm0 4.26h-2v2h2v-2Zm4.8 0h2v-2h-2v2Zm0 2.22v2h2v-2h-2Zm-5.7 0v-2h-2v2h2Zm0 4.26h-2v2h2v-2Zm5.82 0 1.25 1.562 4.452-3.562H9.9v2ZM3 19.44l-.734-1.86-2.026.798.969 1.951L3 19.44Zm2.16 4.35-1.791.89.92 1.851 1.82-.98-.949-1.761Zm2.34-1.35 1.806.86 2.91-6.11-5.764 3.547L7.5 22.44Zm-3.45 5.61-1.584-1.22-1.395 1.809 1.978 1.143L4.05 28.05Zm4.05 2.34-1 1.732 1.703.984 1.012-1.687L8.1 30.39Zm1.98-3.99 1.84.784.005-.012-1.845-.772Zm1.77-4.62 1.897.633.556-1.666-1.58-.767-.873 1.8Zm-1.98-.96-1.131-1.65-2.84 1.948 3.098 1.502.873-1.8Zm3.21-2.52h2v-4.454l-3.329 2.96L13.08 18.3Zm-1.5 8.13.216 1.988.013-.001.013-.002-.242-1.985Zm-1.38.15-.216-1.988-2.47.268.79 2.356 1.896-.636Zm1.5 4.47-1.896.636.505 1.505 1.58-.15-.189-1.991Zm2.52-.24.19 1.991.02-.002.02-.002-.23-1.987Zm3.39-3.78 1.999.076.001-.038v-.038h-2Zm0-4.83 1.923-.55-3.923.55h2Zm2.04 7.8-1.96.4.461 2.263 2.174-.78L19.65 30Zm3.93-1.41.675 1.883 1.778-.638-.535-1.812-1.918.567Zm-1.47-4.38-1.887.664.004.01 1.883-.674Zm-1.59-4.11 1.836-.794-.686-1.585-1.668.447.518 1.932Zm-2.91.78h-2v2.607l2.518-.675-.518-1.932Zm0-3.6h2v-2h-2v2Zm-3.42 0-1.414-1.414-3.414 3.414h4.828v-2Zm1.41-1.5v-2h-.92l-.598.698L15.6 15.78Zm3.3 0 1.604-1.195-.6-.805H18.9v2Zm4.71 4.53.599 1.908 3.867-1.213-3.316-2.331-1.15 1.636Zm-1.53.48-.599-1.908-2.13.668.898 2.044 1.831-.804Zm1.8 4.56-1.878.688.005.014.005.014 1.868-.716Zm1.77 4.98-1.897.633.685 2.056 1.995-.849-.783-1.84Zm4.44-1.89.783 1.84 1.86-.792-.811-1.851-1.832.803Zm-.397-.908 1.832-.8-1.832.8ZM27.51 22.65l.928-1.772-5.23-2.74 2.488 5.355 1.814-.843Zm-7.8-11.13v2h2v-2h-2Zm0-2.22h2v-2h-2v2Zm-5.22 2.22h-2v2h2v-2Zm0-2.22v-2h-2v2h2Zm23.737-.66v-2h-2v2h2Zm0 2.76h-2v2h2v-2Zm9.12-2.76v2h2v-2h-2Zm0-1.26h2v-2h-2v2Zm-10.26 0h-2v2h2v-2Zm0-3.24v-2h-2v2h2Zm10.26 0v2h2v-2h-2Zm0-1.08.047-2-2.047-.048V3.06h2Zm5.13.12h2V1.226l-1.953-.046-.047 2Zm0 .96h-2v2h2v-2Zm10.29 0h2v-2h-2v2Zm0 3.24v2h2v-2h-2Zm-10.29 0v-2h-2v2h2Zm0 1.26h-2v2h2v-2Zm9.15 0h2v-2h-2v2Zm0 2.76v2h2v-2h-2Zm1.92 7.95h2v-2h-2v2Zm-6.3 0-1.703-1.05-1.876 3.049h3.579v-2Zm6.3 3.3v2h2v-2h-2Zm-27.24 0h-2v2h2v-2Zm0-3.3v-2h-2v2h2Zm6.15 0v2h3.236l-1.447-2.895-1.789.895Zm-.69-1.38 1.789-.895-.553-1.105h-1.236v2Zm-2.52 0h-2v2h2v-2Zm0-5.49v-2h-2v2h2Zm21.33 0h2v-2h-2v2Zm0 5.49v2h2v-2h-2Zm-2.58 0v-2h-1.204l-.564 1.064 1.768.936Zm-.184.35 1.772.927-1.772-.926Zm-2.036-3.74h2v-2h-2v2Zm0 1.29v2h2v-2h-2Zm-11.73-1.29v-2h-2v2h2Zm0 1.29h-2v2h2v-2Zm2.76 2.1v-2h-3.3l1.527 2.925 1.773-.925Zm6.27 0 1.757.955 1.606-2.955h-3.363v2Zm-5.55 1.38-1.773.925.56 1.075h1.213v-2Zm4.8 0v2h1.19l.567-1.045-1.757-.955Zm8.7 11.07v2h2v-2h-2Zm0-6.63h2v-2h-2v2Zm-22.23 6.63h-2v2h2v-2Zm0-6.63v-2h-2v2h2Zm17.43 2.52h2v-2h-2v2Zm0 1.38v2h2v-2h-2Zm-12.63-1.38v-2h-2v2h2Zm0 1.38h-2v2h2v-2Zm78.814-24.54.051-1.999-2.051-.052V3.15h2Zm-1.71 22.62-.149-1.994-.014.001-.013.001.176 1.992Zm-2.04.18-.176-1.992-2.434.215.692 2.344 1.918-.567Zm1.47 4.98-1.918.567.464 1.572 1.633-.147-.179-1.992Zm2.34-.21.179 1.992h.012l-.191-1.992Zm4.65-27.45h2V1.32l-1.949-.049-.051 2Zm-6.75 2.31h2V3.634l-1.945-.053-.055 2Zm0 18.6v2h2v-2h-2Zm-4.41-18.72.055-1.999-2.055-.056V5.46h2Zm0 15.51-1.445 1.383 3.445 3.602V20.97h-2Zm-2.084-2.055 1.385-1.443-1.385 1.442Zm-.046-.045-1.385 1.443 1.385-1.443Zm-1.71-1.53 1.22-1.585-1.436-1.104-1.241 1.32 1.457 1.37Zm-1.41 1.5h-2v5.048l3.457-3.678-1.457-1.37Zm0-3.51v-2h-2v2h2Zm3.96 0v2h2v-2h-2Zm0-4.53h2v-2h-2v2Zm-3.96 0h-2v2h2v-2Zm0-2.55-.18-1.992-1.82.165V8.25h2Zm3.99-.36.18 1.992 2.181-.196-.393-2.155-1.968.36Zm-.81-4.44 1.968-.359-.328-1.795-1.818.162.178 1.992Zm-12.21.78-.036-2-2.186.04.233 2.174 1.989-.214Zm.48 4.47-1.988.214.2 1.864 1.873-.08-.085-1.998Zm1.41-.06-.057-1.999h-.014l-.014.001.085 1.998Zm2.031-.101.132 1.995-.132-1.995Zm.279-.019h2V6.391l-2.125.133.125 1.996Zm0 2.28v2h2v-2h-2Zm-4.5 0v-2h-2v2h2Zm0 4.53h-2v2h2v-2Zm4.17 0 1.738.99 1.702-2.99h-3.44v2Zm-5.22 6.15-1.327-1.496-.916.813.307 1.185 1.936-.502Zm1.53 5.91-1.936.502.819 3.162 2.444-2.167-1.327-1.497Zm4.02-4.71h2v-6.402l-3.644 5.264 1.644 1.138Zm0 8.19h-2v2h2v-2Zm4.83 0v2h2v-2h-2Zm0-8.49 1.467-1.36-3.467-3.74v5.1h2Zm2.58 2.97-1.592 1.21 1.564 2.059 1.599-2.031-1.571-1.238Zm2.67-3.39h2v-5.77l-3.571 4.534 1.571 1.237Zm0 2.22h-2v2h2v-2Zm-22.137-4.14h2v-2h-2v2Zm0 6.21h-2v2h2v-2Zm-7.32-6.21-1.763-.945-1.578 2.945h3.341v-2Zm1.56-2.91 1.763.945.993-1.852-1.899-.9-.857 1.807Zm-2.91-1.38-1.2-1.6-2.65 1.987 2.993 1.42.857-1.807Zm2.88-2.58 1.462 1.364.538-.576v-.788h-2Zm0-2.04v-2h-2v2h2Zm2.34 0 1.999.08.083-2.08h-2.082v2Zm-.03.75-1.998-.08-.002.04v.04h2Zm-.035 1.025 1.998.09-1.998-.09Zm-.025.565 1.992.18.004-.048.002-.05-1.998-.082Zm-1.68 1.38.238 1.985h.004l-.242-1.985Zm-.75.09-.238-1.986-2.435.292.776 2.326 1.897-.632Zm1.32 3.96-1.897.632.502 1.507 1.582-.148-.187-1.991Zm.96-.09.187 1.99h.014l.013-.002-.214-1.988Zm4.71-4.2 1.988.222.005-.046.003-.045-1.996-.131Zm.36-7.08 1.998.083.087-2.083h-2.085v2Zm-4.35 0-1.987-.228-.255 2.228h2.242v-2Zm.45-3.93 1.987.227.255-2.227h-2.242v2Zm-20.79 0v-2h-2v2h2Zm0 4.29h-2v2h2v-2Zm2.91 0 1.997.117.124-2.117h-2.12v2Zm-.093.945 1.985.249v-.001l-1.985-.248Zm0 .001-1.984-.25v.002l1.984.248Zm-.027.224 1.98.282.004-.03.004-.032-1.988-.22Zm-1.35 4.23 1.72 1.022.005-.01.006-.01-1.73-1.002Zm-3.09 3.48-1.296-1.524-1.777 1.513 1.766 1.524 1.307-1.513Zm3.51 3.03-1.307 1.514 1.36 1.173 1.312-1.225-1.365-1.462Zm3.12-3.48 1.627 1.162.008-.01.008-.012-1.643-1.14Zm1.71-3.66v-2H75.7l-.417 1.444 1.921.556Zm7.47 0 1.222 1.583 4.645-3.583h-5.867v2Zm-2.52 1.71-.85 1.81.899.422.88-.46-.929-1.772Zm-3.15-1.41.788-1.839-1.468-.629-.938 1.293 1.618 1.175Zm-1.59 2.19-1.618-1.175-1.375 1.893 2.085 1.063.908-1.781Zm1.53.78.817 1.825 3.818-1.708-3.726-1.9-.909 1.783Zm-3.72 1.35-.555-1.922-2.905.84 1.909 2.344 1.551-1.262Zm2.1 2.58-1.551 1.262.906 1.113 1.344-.501-.699-1.874Zm4.86-2.22.941-1.765-.957-.51-.95.523.966 1.752Zm4.23 2.4v2h7.306l-6.287-3.721-1.019 1.72Zm-14.94 0v-2h-2v2h2Zm0 6.21v2h2v-2h-2Zm-2.4 0v-2h-2v2h2Zm0 4.11h-2v2h2v-2Zm27.18 0v2h2v-2h-2Zm0-4.11h2v-2h-2v2ZM77.834 9.6l-1.96-.398-.486 2.398h2.446v-2Zm8.19 0v2h1.71L88 9.912 86.024 9.6Zm-8.18-.05-1.937-.496-.013.049-.01.05 1.96.397Zm0 0 1.938.495.012-.048.01-.048-1.96-.4Zm.11-.73-1.98-.283-.008.058-.005.059 1.993.166Zm.023-.153-1.976-.309v.003l1.976.306Zm.001-.006-1.972-.334-.002.013-.002.013 1.976.308Zm0 0-1.923-.55-.03.106-.019.11 1.972.334Zm0 0 1.923.549.035-.12.019-.123-1.977-.306Zm.096-.771v-2h-1.852l-.142 1.846 1.994.154Zm8.22 0 1.976.312.365-2.312h-2.34v2Zm-8.52 18.36v2h2v-2h-2Zm0-2.67h2v-2h-2v2Zm-2.04 2.67h-2v2h2v-2Zm0-2.67v-2h-2v2h2Zm5.88 0v-2h-2v2h2Zm0 2.67h-2v2h2v-2Zm2.04-2.67h2v-2h-2v2Zm0 2.67v2h2v-2h-2Zm3.81-2.67v-2h-2v2h2Zm0 2.67h-2v2h2v-2Zm2.07-2.67h2v-2h-2v2Zm0 2.67v2h2v-2h-2Zm-59.983-7.89-1.98 4.47 3.658 1.62 1.98-4.47-3.658-1.62Zm-6.374-1.013c1.99 1.579 4.549 2.818 7.63 3.74l1.146-3.833c-2.739-.819-4.8-1.86-6.29-3.041l-2.486 3.134Zm7.063-3.567h-5.82v4h5.82v-4Zm-2-2.26v4.26h4v-4.26h-4Zm-3.85 2h5.85v-4h-5.85v4Zm-2-4.22v2.22h4V9.3h-4Zm6.8-2h-4.8v4h4.8v-4Zm-2-2.26V9.3h4V5.04h-4Zm-2.8 2h4.8v-4h-4.8v4Zm-2-3.92v1.92h4V3.12h-4ZM19.659 5l4.68.12.102-4-4.68-.12-.102 4Zm2.051.04V3h-4v2.04h4Zm-7.22 2h5.22v-4h-5.22v4Zm-2-3.92v1.92h4V3.12h-4ZM9.73 5l4.71.12.1-4L9.83 1l-.1 4Zm2.05.04V3h-4v2.04h4Zm-6.8 2h4.8v-4h-4.8v4Zm2 2.26V5.04h-4V9.3h4Zm2.8-2h-4.8v4h4.8v-4Zm2 4.22V9.3h-4v2.22h4Zm-7.7 2h5.7v-4h-5.7v4Zm2 2.26v-4.26h-4v4.26h4Zm3.82-2H4.08v4H9.9v-4ZM3.734 21.3c3.194-1.259 5.538-2.456 7.415-3.958l-2.498-3.124c-1.423 1.138-3.34 2.16-6.385 3.361l1.468 3.722Zm3.217 1.6-2.16-4.35-3.582 1.78 2.16 4.35L6.95 22.9Zm-.5-2.163a44.86 44.86 0 0 1-2.24 1.292l1.897 3.522a48.765 48.765 0 0 0 2.44-1.408l-2.096-3.406Zm-.817 8.534A33.106 33.106 0 0 0 9.306 23.3l-3.612-1.72a29.103 29.103 0 0 1-3.228 5.25l3.168 2.44Zm3.467-.613-4.05-2.34-2.002 3.464 4.05 2.34 2.002-3.464Zm-.861-3.042c-.665 1.563-1.285 2.795-1.855 3.745l3.43 2.058c.69-1.15 1.39-2.558 2.105-4.235l-3.68-1.568Zm1.713-4.468C9.495 22.52 8.916 24 8.235 25.628l3.69 1.544c.699-1.672 1.32-3.253 1.822-4.76l-3.794-1.264Zm-.956 1.472 1.98.96 1.745-3.6-1.98-.96-1.745 3.6Zm2.754-5.815a30.61 30.61 0 0 1-3.012 2.366L11 22.47a34.603 34.603 0 0 0 3.408-2.675l-2.658-2.99Zm3.329 7.855V18.3h-4v6.36h4Zm-3.258 3.755c.623-.076 1.732-.244 2.498-1.154.738-.875.76-1.979.76-2.601h-4a4.053 4.053 0 0 1-.016.37l-.004.023c0-.002.037-.174.202-.37a1.12 1.12 0 0 1 .243-.216.746.746 0 0 1 .144-.075c.014-.005 0 .002-.057.013a3.163 3.163 0 0 1-.254.04l.484 3.97Zm-1.406.153 1.38-.15-.432-3.976-1.38.15.432 3.976Zm3.18 1.846-1.5-4.47-3.792 1.272 1.5 4.47 3.792-1.272Zm.434-1.595-2.52.24.38 3.982 2.52-.24-.38-3.982Zm1.582-1.865c-.03.774-.075 1.238-.138 1.535-.059.278-.098.232.003.123.104-.11.164-.083-.081-.015-.272.076-.688.143-1.406.226l.46 3.974c.707-.082 1.412-.177 2.024-.348.64-.179 1.347-.485 1.927-1.106.577-.619.843-1.35.986-2.026.139-.655.191-1.41.222-2.21l-3.998-.153ZM15.61 22.2v4.83h4V22.2h-4Zm6 7.4c-.348-1.704-1.058-4.383-2.077-7.95l-3.846 1.1c1.02 3.573 1.69 6.114 2.003 7.65l3.92-.8Zm1.295-2.893-3.93 1.41 1.35 3.765 3.93-1.41-1.35-3.765Zm-2.678-1.822c.569 1.586 1.062 3.01 1.435 4.272l3.836-1.134c-.407-1.378-.934-2.894-1.505-4.488l-3.766 1.35Zm-1.543-3.991a62.33 62.33 0 0 1 1.54 3.98l3.773-1.328a66.118 66.118 0 0 0-1.641-4.24l-3.672 1.588Zm-.556 1.918 2.91-.78-1.036-3.864-2.91.78 1.036 3.864ZM15.61 17.28v3.6h4v-3.6h-4Zm-1.42 2h3.42v-4h-3.42v4Zm-.108-4.802c-.486.567-.918 1-1.306 1.388l2.828 2.828c.392-.392.92-.919 1.515-1.612l-3.037-2.604Zm4.818-.698h-3.3v4h3.3v-4Zm5.86 4.894c-1.753-1.233-3.158-2.616-4.257-4.09l-3.206 2.391c1.361 1.827 3.076 3.504 5.163 4.971l2.3-3.272Zm-2.081 4.024 1.53-.48-1.198-3.816-1.53.48 1.198 3.816Zm3.079 1.963c-.667-1.818-1.283-3.392-1.847-4.675l-3.662 1.608c.516 1.176 1.1 2.663 1.753 4.444l3.756-1.377Zm1.79 5.037a119.487 119.487 0 0 0-1.8-5.064l-3.736 1.432a115.253 115.253 0 0 1 1.74 4.896l3.795-1.264Zm1.759-3.098-4.44 1.89 1.566 3.68 4.44-1.89-1.566-3.68Zm-1.447 1.733.398.91 3.664-1.606c-.13-.294-.261-.596-.397-.906l-3.665 1.602Zm-2.164-4.84a224.456 224.456 0 0 1 2.164 4.84l3.665-1.602a224.396 224.396 0 0 0-2.201-4.924l-3.628 1.686Zm4.632-1.625-1.89-.99-1.856 3.544 1.89.99 1.856-3.544ZM21.71 11.52V9.3h-4v2.22h4Zm-7.22 2h5.22v-4h-5.22v4Zm-2-4.22v2.22h4V9.3h-4Zm7.22-2h-5.22v4h5.22v-4Zm16.517 1.34v2.76h4V8.64h-4Zm11.12-2h-9.12v4h9.12v-4Zm-2 .74v1.26h4V7.38h-4Zm-8.26 2h10.26v-4h-10.26v4Zm-2-5.24v3.24h4V4.14h-4Zm12.26-2h-10.26v4h10.26v-4Zm-2 .92v1.08h4V3.06h-4Zm7.177-1.88-5.13-.12-.094 4 5.13.12.094-3.999Zm1.953 2.96v-.96h-4v.96h4Zm8.29-2h-10.29v4h10.29v-4Zm2 5.24V4.14h-4v3.24h4Zm-12.29 2h10.29v-4h-10.29v4Zm2-.74V7.38h-4v1.26h4Zm7.15-2h-9.15v4h9.15v-4Zm2 4.76V8.64h-4v2.76h4Zm-25.4 2h23.4v-4h-23.4v4Zm25.32 3.95h-6.3v4h6.3v-4Zm2 5.3v-3.3h-4v3.3h4Zm-29.24 2h27.24v-4h-27.24v4Zm-2-5.3v3.3h4v-3.3h-4Zm8.15-2h-6.15v4h6.15v-4Zm-2.479 1.514.69 1.38 3.578-1.789-.69-1.38-3.578 1.789Zm-.731 1.106h2.52v-4h-2.52v4Zm-2-7.49v5.49h4v-5.49h-4Zm23.33-2h-21.33v4h21.33v-4Zm2 7.49v-5.49h-4v5.49h4Zm-4.58 2h2.58v-4h-2.58v4Zm1.588-.723.18-.342-3.536-1.871-.189.36 3.545 1.853Zm-.635 1.15c.228-.37.446-.789.635-1.15l-3.545-1.853c-.206.395-.356.68-.496.907l3.406 2.097Zm-5.173-5.817v1.29h4v-1.29h-4Zm-9.73 2h11.73v-4h-11.73v4Zm2-.71v-1.29h-4v1.29h4Zm9.73-2h-11.73v4h11.73v-4Zm-8.97 6.1h6.27v-4h-6.27v4Zm2.493-1.546-.72-1.38-3.546 1.85.72 1.38 3.546-1.85Zm3.027-1.074h-4.8v4h4.8v-4Zm-1.007-.335-.75 1.38 3.514 1.91.75-1.38-3.514-1.91ZM63.027 30.42v-6.63h-4v6.63h4Zm-24.23 2h22.23v-4h-22.23v4Zm-2-8.63v6.63h4v-6.63h-4Zm24.23-2h-22.23v4h22.23v-4Zm-6.8 4.52v1.38h4v-1.38h-4Zm-10.63 2h12.63v-4h-12.63v4Zm2-.62v-1.38h-4v1.38h4Zm10.63-2h-12.63v4h12.63v-4Zm68.184-1.57V3.15h-4v20.97h4Zm-3.56 3.645c.756-.057 1.75-.247 2.53-.984.837-.793 1.03-1.826 1.03-2.66h-4c0 .133-.016.143.004.08a.884.884 0 0 1 .217-.326c.116-.11.212-.142.21-.142a1.381 1.381 0 0 1-.29.043l.299 3.989Zm-2.014.178 2.04-.18-.352-3.985-2.04.18.352 3.985Zm3.212 2.421-1.47-4.98-3.836 1.133 1.47 4.98 3.836-1.133Zm.243-1.636-2.34.21.358 3.984 2.34-.21-.358-3.984Zm2.829-2.118c0 .666-.053 1.057-.121 1.291-.055.193-.104.229-.12.242-.043.038-.196.152-.636.274-.445.124-1.069.227-1.964.313l.382 3.981c1.83-.175 3.626-.476 4.863-1.566 1.389-1.224 1.596-2.962 1.596-4.535h-4Zm0-23.34v23.34h4V3.27h-4Zm-2.761 1.88 4.71.12.102-3.999-4.71-.12-.102 3.999Zm-3.989.43v18.6h4V5.58h-4Zm-2.464 1.88 4.41.12.109-3.999-4.41-.12-.109 3.999Zm2.054 13.51V5.46h-4v15.51h4Zm-5.469-.613c.74.71 1.412 1.356 2.024 1.996l2.89-2.765c-.681-.712-1.417-1.418-2.144-2.116l-2.77 2.885Zm-.046-.044.046.044 2.77-2.885-.046-.044-2.77 2.885Zm-1.544-1.387c.298.23.802.675 1.544 1.387l2.77-2.885c-.758-.728-1.394-1.302-1.875-1.673l-2.439 3.17Zm1.266 1.284 1.41-1.5-2.914-2.74-1.41 1.5 2.914 2.74Zm-3.457-4.88v3.51h4v-3.51h-4Zm5.96-2h-3.96v4h3.96v-4Zm-2-2.53v4.53h4V10.8h-4Zm-1.96 2h3.96v-4h-3.96v4Zm-2-4.55v2.55h4V8.25h-4Zm5.81-2.352-3.99.36.36 3.984 3.99-.36-.36-3.984Zm-2.597-2.089.81 4.44 3.935-.718-.81-4.44-3.935.718Zm-4.028 2.117a217.4 217.4 0 0 0 6.173-.484l-.356-3.984c-1.678.15-3.695.328-6.067.476l.25 3.993Zm-6.179.304c1.702-.03 3.787-.154 6.179-.304l-.25-3.992c-2.408.15-4.403.268-6.001.297l.072 4Zm2.433 2.257-.48-4.47-3.978.427.481 4.47 3.977-.427Zm-.664-1.845-1.41.06.17 3.997 1.41-.06-.17-3.997Zm1.984-.1c-.478.033-1.129.076-1.956.1l.114 3.998c.907-.026 1.621-.074 2.106-.106l-.264-3.991Zm.286-.018-.286.019.264 3.991.272-.018-.25-3.992Zm2.125 4.276V8.52h-4v2.28h4Zm-6.5 2h4.5v-4h-4.5v4Zm2 2.53V10.8h-4v4.53h4Zm2.17-2h-4.17v4h4.17v-4Zm-3.892 9.646c2.242-1.989 4.382-4.464 5.63-6.656l-3.476-1.979c-.972 1.708-2.791 3.853-4.81 5.643l2.656 2.992Zm2.138 3.913-1.53-5.91-3.872 1.003 1.53 5.91 3.872-1.003Zm.44-5.347c-1.292 1.865-2.539 3.32-3.702 4.352l2.653 2.993c1.476-1.308 2.929-3.034 4.338-5.068l-3.289-2.277Zm3.644 9.328v-8.19h-4v8.19h4Zm2.83-2h-4.83v4h4.83v-4Zm-2-6.49v8.49h4v-8.49h-4Zm6.172 1.76c-.633-.833-1.56-1.883-2.705-3.12l-2.934 2.72c1.135 1.224 1.948 2.154 2.455 2.82l3.184-2.42Zm-.493-3.417-2.67 3.39 3.142 2.475 2.67-3.39-3.142-2.475Zm3.571 3.457v-2.22h-4v2.22h4Zm2.41-2h-4.41v4h4.41v-4Zm-28.547-2.14v6.21h4v-6.21h-4Zm-5.32 2h7.32v-4h-7.32v4Zm-.203-5.855-1.56 2.91 3.526 1.89 1.56-2.91-3.526-1.89Zm-2.004 1.372 2.91 1.38 1.714-3.615-2.91-1.38-1.714 3.615Zm2.275-5.752a19.97 19.97 0 0 1-2.618 2.345l2.4 3.2a23.966 23.966 0 0 0 3.142-2.816l-2.924-2.729Zm-.538-.675v2.04h4v-2.04h-4Zm4.34-2h-2.34v4h2.34v-4Zm1.969 2.83.03-.75-3.997-.16-.03.75 3.996.16Zm-.036 1.035c.019-.421.037-.822.037-1.115h-4c0 .18-.012.471-.033.936l3.996.18Zm-.025.558.025-.558-3.996-.18c-.008.174-.017.365-.025.571l3.996.167Zm-3.436 3.282c.583-.071 1.521-.2 2.27-.794.908-.721 1.1-1.726 1.16-2.39l-3.984-.362c-.014.153-.028.14.008.05a1.128 1.128 0 0 1 .328-.43c.148-.118.254-.139.199-.123a3.39 3.39 0 0 1-.465.078l.484 3.97Zm-.754.09.75-.09-.476-3.971-.75.09.476 3.971Zm2.98 1.342-1.32-3.96-3.795 1.265 1.32 3.96 3.794-1.265Zm-1.125-1.449-.96.09.374 3.983.96-.09-.374-3.983Zm2.91-2.431c-.098.87-.183 1.383-.283 1.72-.087.297-.14.293-.088.247.028-.024-.044.06-.49.166-.454.108-1.093.195-2.076.301l.428 3.977c.967-.104 1.843-.212 2.576-.387.743-.177 1.532-.464 2.2-1.05.695-.61 1.063-1.367 1.286-2.118.21-.711.324-1.54.422-2.41l-3.975-.446Zm.349-6.94c-.12 2.872-.24 5.224-.358 7.032l3.992.262c.121-1.853.242-4.24.362-7.128l-3.996-.167ZM90.854 9.53h4.35v-4h-4.35v4Zm-1.537-6.158-.45 3.93 3.974.455.45-3.93-3.974-.455ZM70.514 5.6h20.79v-4h-20.79v4Zm2 2.29V3.6h-4v4.29h4Zm.91-2h-2.91v4h2.91v-4Zm1.892 3.193c.031-.25.078-.622.105-1.076l-3.994-.235c-.018.311-.05.57-.08.815l3.969.496Zm0 .003v-.002l-3.97-.499v.002l3.97.499Zm-.024.194c.005-.05.013-.11.024-.196l-3.97-.496-.03.25 3.976.442Zm-1.607 5.012c.82-1.416 1.333-3.086 1.599-4.95l-3.96-.565c-.214 1.496-.6 2.646-1.1 3.51l3.46 2.005Zm-3.525 4c1.528-1.3 2.711-2.632 3.513-3.98l-3.438-2.044c-.518.871-1.375 1.878-2.667 2.978l2.592 3.047Zm3.521-.006-3.51-3.03-2.614 3.027 3.51 3.03 2.614-3.027Zm.186-3.129c-.662.926-1.59 1.997-2.858 3.18l2.73 2.925c1.432-1.337 2.544-2.606 3.382-3.78l-3.254-2.325Zm1.416-3.053c-.336 1.162-.818 2.19-1.432 3.075l3.286 2.281c.886-1.275 1.544-2.707 1.989-4.245l-3.843-1.11Zm9.391-1.444h-7.47v4h7.47v-4Zm-1.592 5.481c.786-.412 1.736-1.066 2.814-1.898l-2.444-3.167c-1.022.789-1.752 1.274-2.226 1.522l1.856 3.543Zm-4.866-1.343c.623.267 1.649.707 3.088 1.382l1.7-3.62a96.814 96.814 0 0 0-3.212-1.439l-1.576 3.677Zm.817 1.527 1.59-2.19-3.237-2.35-1.59 2.19 3.236 2.35Zm.82-2.177-1.53-.78-1.817 3.563 1.53.78 1.817-3.563ZM75.779 19.2a30.29 30.29 0 0 0 3.982-1.446l-1.634-3.651c-1.05.47-2.192.888-3.458 1.254l1.11 3.843Zm3.096-.604-2.1-2.58-3.102 2.525 2.1 2.58 3.102-2.525Zm2.344-2.71a34.457 34.457 0 0 1-4.594 2.099l1.398 3.748a38.46 38.46 0 0 0 5.126-2.343l-1.93-3.503Zm6.214 2.431a112.508 112.508 0 0 0-4.308-2.443l-1.882 3.53c1.313.7 2.695 1.493 4.152 2.356l2.038-3.442ZM71.474 22.04h14.94v-4h-14.94v4Zm2 4.21v-6.21h-4v6.21h4Zm-4.4 2h2.4v-4h-2.4v4Zm2 2.11v-4.11h-4v4.11h4Zm25.18-2h-27.18v4h27.18v-4Zm-2-2.11v4.11h4v-4.11h-4Zm-.43 2h2.43v-4h-2.43v4ZM77.834 11.6h8.19v-4h-8.19v4Zm-1.95-2.448-.01.05 3.92.795.01-.05-3.92-.795Zm.023-.099 3.875.992-3.875-.992Zm.054-.4c-.017.2-.047.354-.076.497l3.919.799c.035-.17.106-.517.143-.963l-3.986-.332Zm.04-.292-.027.176 3.96.565.02-.13L76 8.361Zm0-.008v.005l3.952.617.001-.006-3.952-.616Zm.005-.027 3.944.67-3.944-.67Zm.05-.215 3.845 1.1V9.21l-3.846-1.099Zm.024-.375a7.876 7.876 0 0 1-.078.618l3.953.613c.03-.201.083-.536.113-.924l-3.988-.307ZM86.294 5.89h-8.22v4h8.22v-4ZM88 9.912l.27-1.71-3.951-.624-.27 1.71 3.95.624ZM79.774 26.25v-2.67h-4v2.67h4Zm-4.04 2h2.04v-4h-2.04v4Zm-2-4.67v2.67h4v-2.67h-4Zm4.04-2h-2.04v4h2.04v-4Zm1.84 2v2.67h4v-2.67h-4Zm4.04-2h-2.04v4h2.04v-4Zm2 4.67v-2.67h-4v2.67h4Zm-4.04 2h2.04v-4h-2.04v4Zm3.85-4.67v2.67h4v-2.67h-4Zm4.07-2h-2.07v4h2.07v-4Zm2 4.67v-2.67h-4v2.67h4Zm-4.07 2h2.07v-4h-2.07v4Z" fill="#fff" mask="url(#b)"/><defs><linearGradient id="a" x1="125.344" y1="16.48" x2="6.344" y2="16.48" gradientUnits="userSpaceOnUse"><stop stop-color="#FFAF2A"/><stop offset="1" stop-color="#00AF70"/></linearGradient></defs></svg>