<svg width="130" height="34" viewBox="0 0 130 34" fill="none" xmlns="http://www.w3.org/2000/svg">
<mask id="path-1-outside-1_3320_26972" maskUnits="userSpaceOnUse" x="0" y="0" width="130" height="34" fill="black">
<rect fill="white" width="130" height="34"/>
<path fill-rule="evenodd" clip-rule="evenodd" d="M29.4 23.64L31.38 19.17C28.47 18.3 26.16 17.16 24.42 15.78H30.24V11.52H24.39V9.3H29.19V5.04H24.39V3.12L19.71 3V5.04H14.49V3.12L9.78 3V5.04H4.98V9.3H9.78V11.52H4.08V15.78H9.9C8.25 17.1 6.12 18.21 3 19.44L5.16 23.79C5.94 23.37 6.72 22.92 7.5 22.44C6.6 24.33 5.46 26.22 4.05 28.05L8.1 30.39C8.73 29.34 9.39 28.02 10.08 26.4C10.77 24.75 11.37 23.22 11.85 21.78L9.87 20.82C10.92 20.1 12 19.26 13.08 18.3V24.66C13.08 25.95 12.81 26.28 11.58 26.43L10.2 26.58L11.7 31.05L14.22 30.81C17.07 30.48 17.49 30.18 17.61 27.03V22.2C18.63 25.77 19.32 28.38 19.65 30L23.58 28.59C23.19 27.27 22.68 25.8 22.11 24.21C21.54 22.59 21 21.21 20.52 20.1L17.61 20.88V17.28H14.19C14.58 16.89 15.06 16.41 15.6 15.78H18.9C20.13 17.43 21.69 18.96 23.61 20.31L22.08 20.79C22.62 22.02 23.22 23.55 23.88 25.35C24.57 27.15 25.14 28.8 25.65 30.33L30.09 28.44C29.9604 28.1444 29.828 27.8417 29.6927 27.5321C29.0451 26.0505 28.3289 24.4118 27.51 22.65L29.4 23.64ZM19.71 9.3V11.52H14.49V9.3H19.71ZM38.227 11.3996V8.63957H47.347V7.37957H37.087V4.13957H47.347V3.05957L52.477 3.17957V4.13957H62.767V7.37957H52.477V8.63957H61.627V11.3996H38.227ZM57.247 19.3496H63.547V22.6496H36.307V19.3496H42.457L41.767 17.9696H39.247V12.4796H60.577V17.9696H57.997C57.934 18.0885 57.8727 18.2058 57.8126 18.3208C57.6151 18.6986 57.431 19.0505 57.247 19.3496ZM55.777 15.8696V14.5796H44.047V15.8696H55.777ZM53.077 17.9696H46.807L47.527 19.3496H52.327L53.077 17.9696ZM61.027 23.7896V30.4196H38.797V23.7896H61.027ZM56.227 27.6896V26.3096H43.597V27.6896H56.227ZM122.411 3.15039V24.1204C122.411 25.2304 121.901 25.6804 120.701 25.7704L118.661 25.9504L120.131 30.9304L122.471 30.7204C126.221 30.3604 127.121 29.5804 127.121 26.6104V3.27039L122.411 3.15039ZM120.371 24.1804V5.58039L115.961 5.46039V20.9704C115.315 20.2945 114.611 19.6186 113.877 18.9145L113.831 18.8704C113.081 18.1504 112.511 17.6404 112.121 17.3404L110.711 18.8404V15.3304H114.671V10.8004H110.711V8.25039L114.701 7.89039L113.891 3.45039C112.211 3.60039 110.171 3.78039 107.771 3.93039C105.371 4.08039 103.331 4.20039 101.681 4.23039L102.161 8.70039L103.571 8.64039C104.438 8.61564 105.12 8.57045 105.602 8.53856C105.704 8.5318 105.797 8.52564 105.881 8.52039V10.8004H101.381V15.3304H105.551C104.441 17.2804 102.461 19.5904 100.331 21.4804L101.861 27.3904C103.181 26.2204 104.531 24.6304 105.881 22.6804V30.8704H110.711V22.3804C111.851 23.6104 112.721 24.6004 113.291 25.3504L115.961 21.9604V24.1804H120.371ZM93.8241 26.2496V20.0396H86.5041L88.0641 17.1296L85.1541 15.7496C86.2341 14.9396 87.1941 14.0696 88.0341 13.1696V11.1296H90.3741L90.3441 11.8796C90.3441 12.1168 90.3286 12.4625 90.3087 12.9055C90.3009 13.0788 90.2925 13.2671 90.2841 13.4696C90.1941 14.4596 89.8341 14.6996 88.6041 14.8496L87.8541 14.9396L89.1741 18.8996L90.1341 18.8096C94.0341 18.3896 94.4541 18.0896 94.8441 14.6096C94.9641 12.7796 95.0841 10.4096 95.2041 7.52961H90.8541L91.3041 3.59961H70.5141V7.88961H73.4241C73.4016 8.27211 73.3622 8.58711 73.3313 8.83461L73.3311 8.83625C73.3208 8.9181 73.3115 8.99256 73.3041 9.05961C73.0641 10.7396 72.6141 12.1496 71.9541 13.2896C71.2941 14.3996 70.2741 15.5696 68.8641 16.7696L72.3741 19.7996C73.7241 18.5396 74.7441 17.3696 75.4941 16.3196C76.2441 15.2396 76.8141 14.0096 77.2041 12.6596H84.6741C83.6241 13.4696 82.7841 14.0396 82.1541 14.3696C80.6841 13.6796 79.6341 13.2296 79.0041 12.9596L77.4141 15.1496L78.9441 15.9296C77.8041 16.4396 76.5741 16.8896 75.2241 17.2796L77.3241 19.8596C79.0941 19.1996 80.7141 18.4496 82.1841 17.6396C83.5341 18.3596 84.9441 19.1696 86.4141 20.0396H71.4741V26.2496H69.0741V30.3596H96.2541V26.2496H93.8241ZM86.0241 9.59961H77.8341L77.8442 9.54954L77.8443 9.54936C77.8761 9.39291 77.9272 9.14245 77.9541 8.81961C77.9606 8.77405 77.9685 8.72284 77.9772 8.66659L77.9781 8.66116L77.9781 8.66062L77.9782 8.66054C78.0095 8.45827 78.0508 8.19197 78.0741 7.88961H86.2941L86.0241 9.59961ZM77.7741 23.5796V26.2496H75.7341V23.5796H77.7741ZM81.6141 26.2496V23.5796H83.6541V26.2496H81.6141ZM87.4641 26.2496V23.5796H89.5341V26.2496H87.4641Z"/>
</mask>
<path fill-rule="evenodd" clip-rule="evenodd" d="M29.4 23.64L31.38 19.17C28.47 18.3 26.16 17.16 24.42 15.78H30.24V11.52H24.39V9.3H29.19V5.04H24.39V3.12L19.71 3V5.04H14.49V3.12L9.78 3V5.04H4.98V9.3H9.78V11.52H4.08V15.78H9.9C8.25 17.1 6.12 18.21 3 19.44L5.16 23.79C5.94 23.37 6.72 22.92 7.5 22.44C6.6 24.33 5.46 26.22 4.05 28.05L8.1 30.39C8.73 29.34 9.39 28.02 10.08 26.4C10.77 24.75 11.37 23.22 11.85 21.78L9.87 20.82C10.92 20.1 12 19.26 13.08 18.3V24.66C13.08 25.95 12.81 26.28 11.58 26.43L10.2 26.58L11.7 31.05L14.22 30.81C17.07 30.48 17.49 30.18 17.61 27.03V22.2C18.63 25.77 19.32 28.38 19.65 30L23.58 28.59C23.19 27.27 22.68 25.8 22.11 24.21C21.54 22.59 21 21.21 20.52 20.1L17.61 20.88V17.28H14.19C14.58 16.89 15.06 16.41 15.6 15.78H18.9C20.13 17.43 21.69 18.96 23.61 20.31L22.08 20.79C22.62 22.02 23.22 23.55 23.88 25.35C24.57 27.15 25.14 28.8 25.65 30.33L30.09 28.44C29.9604 28.1444 29.828 27.8417 29.6927 27.5321C29.0451 26.0505 28.3289 24.4118 27.51 22.65L29.4 23.64ZM19.71 9.3V11.52H14.49V9.3H19.71ZM38.227 11.3996V8.63957H47.347V7.37957H37.087V4.13957H47.347V3.05957L52.477 3.17957V4.13957H62.767V7.37957H52.477V8.63957H61.627V11.3996H38.227ZM57.247 19.3496H63.547V22.6496H36.307V19.3496H42.457L41.767 17.9696H39.247V12.4796H60.577V17.9696H57.997C57.934 18.0885 57.8727 18.2058 57.8126 18.3208C57.6151 18.6986 57.431 19.0505 57.247 19.3496ZM55.777 15.8696V14.5796H44.047V15.8696H55.777ZM53.077 17.9696H46.807L47.527 19.3496H52.327L53.077 17.9696ZM61.027 23.7896V30.4196H38.797V23.7896H61.027ZM56.227 27.6896V26.3096H43.597V27.6896H56.227ZM122.411 3.15039V24.1204C122.411 25.2304 121.901 25.6804 120.701 25.7704L118.661 25.9504L120.131 30.9304L122.471 30.7204C126.221 30.3604 127.121 29.5804 127.121 26.6104V3.27039L122.411 3.15039ZM120.371 24.1804V5.58039L115.961 5.46039V20.9704C115.315 20.2945 114.611 19.6186 113.877 18.9145L113.831 18.8704C113.081 18.1504 112.511 17.6404 112.121 17.3404L110.711 18.8404V15.3304H114.671V10.8004H110.711V8.25039L114.701 7.89039L113.891 3.45039C112.211 3.60039 110.171 3.78039 107.771 3.93039C105.371 4.08039 103.331 4.20039 101.681 4.23039L102.161 8.70039L103.571 8.64039C104.438 8.61564 105.12 8.57045 105.602 8.53856C105.704 8.5318 105.797 8.52564 105.881 8.52039V10.8004H101.381V15.3304H105.551C104.441 17.2804 102.461 19.5904 100.331 21.4804L101.861 27.3904C103.181 26.2204 104.531 24.6304 105.881 22.6804V30.8704H110.711V22.3804C111.851 23.6104 112.721 24.6004 113.291 25.3504L115.961 21.9604V24.1804H120.371ZM93.8241 26.2496V20.0396H86.5041L88.0641 17.1296L85.1541 15.7496C86.2341 14.9396 87.1941 14.0696 88.0341 13.1696V11.1296H90.3741L90.3441 11.8796C90.3441 12.1168 90.3286 12.4625 90.3087 12.9055C90.3009 13.0788 90.2925 13.2671 90.2841 13.4696C90.1941 14.4596 89.8341 14.6996 88.6041 14.8496L87.8541 14.9396L89.1741 18.8996L90.1341 18.8096C94.0341 18.3896 94.4541 18.0896 94.8441 14.6096C94.9641 12.7796 95.0841 10.4096 95.2041 7.52961H90.8541L91.3041 3.59961H70.5141V7.88961H73.4241C73.4016 8.27211 73.3622 8.58711 73.3313 8.83461L73.3311 8.83625C73.3208 8.9181 73.3115 8.99256 73.3041 9.05961C73.0641 10.7396 72.6141 12.1496 71.9541 13.2896C71.2941 14.3996 70.2741 15.5696 68.8641 16.7696L72.3741 19.7996C73.7241 18.5396 74.7441 17.3696 75.4941 16.3196C76.2441 15.2396 76.8141 14.0096 77.2041 12.6596H84.6741C83.6241 13.4696 82.7841 14.0396 82.1541 14.3696C80.6841 13.6796 79.6341 13.2296 79.0041 12.9596L77.4141 15.1496L78.9441 15.9296C77.8041 16.4396 76.5741 16.8896 75.2241 17.2796L77.3241 19.8596C79.0941 19.1996 80.7141 18.4496 82.1841 17.6396C83.5341 18.3596 84.9441 19.1696 86.4141 20.0396H71.4741V26.2496H69.0741V30.3596H96.2541V26.2496H93.8241ZM86.0241 9.59961H77.8341L77.8442 9.54954L77.8443 9.54936C77.8761 9.39291 77.9272 9.14245 77.9541 8.81961C77.9606 8.77405 77.9685 8.72284 77.9772 8.66659L77.9781 8.66116L77.9781 8.66062L77.9782 8.66054C78.0095 8.45827 78.0508 8.19197 78.0741 7.88961H86.2941L86.0241 9.59961ZM77.7741 23.5796V26.2496H75.7341V23.5796H77.7741ZM81.6141 26.2496V23.5796H83.6541V26.2496H81.6141ZM87.4641 26.2496V23.5796H89.5341V26.2496H87.4641Z" fill="url(#paint0_linear_3320_26972)"/>
<path d="M31.38 19.17L33.2086 19.98L34.1281 17.9041L31.9529 17.2538L31.38 19.17ZM29.4 23.64L28.472 25.4117L30.3637 26.4026L31.2286 24.45L29.4 23.64ZM24.42 15.78V13.78H18.6797L23.1772 17.347L24.42 15.78ZM30.24 15.78V17.78H32.24V15.78H30.24ZM30.24 11.52H32.24V9.52H30.24V11.52ZM24.39 11.52H22.39V13.52H24.39V11.52ZM24.39 9.3V7.3H22.39V9.3H24.39ZM29.19 9.3V11.3H31.19V9.3H29.19ZM29.19 5.04H31.19V3.04H29.19V5.04ZM24.39 5.04H22.39V7.04H24.39V5.04ZM24.39 3.12H26.39V1.17063L24.4413 1.12066L24.39 3.12ZM19.71 3L19.7613 1.00066L17.71 0.948061V3H19.71ZM19.71 5.04V7.04H21.71V5.04H19.71ZM14.49 5.04H12.49V7.04H14.49V5.04ZM14.49 3.12H16.49V1.17031L14.5409 1.12065L14.49 3.12ZM9.78 3L9.83094 1.00065L7.78 0.948395V3H9.78ZM9.78 5.04V7.04H11.78V5.04H9.78ZM4.98 5.04V3.04H2.98V5.04H4.98ZM4.98 9.3H2.98V11.3H4.98V9.3ZM9.78 9.3H11.78V7.3H9.78V9.3ZM9.78 11.52V13.52H11.78V11.52H9.78ZM4.08 11.52V9.52H2.08V11.52H4.08ZM4.08 15.78H2.08V17.78H4.08V15.78ZM9.9 15.78L11.1494 17.3417L15.6016 13.78H9.9V15.78ZM3 19.44L2.26648 17.5794L0.239836 18.3783L1.20868 20.3295L3 19.44ZM5.16 23.79L3.36868 24.6795L4.28806 26.531L6.1082 25.5509L5.16 23.79ZM7.5 22.44L9.30572 23.2999L12.2152 17.19L6.45181 20.7367L7.5 22.44ZM4.05 28.05L2.46572 26.8293L1.07146 28.6389L3.04944 29.7817L4.05 28.05ZM8.1 30.39L7.09944 32.1217L8.80283 33.1059L9.81499 31.419L8.1 30.39ZM10.08 26.4L11.9201 27.1837L11.9252 27.1716L10.08 26.4ZM11.85 21.78L13.7474 22.4125L14.3027 20.7465L12.7225 19.9804L11.85 21.78ZM9.87 20.82L8.73894 19.1705L5.8995 21.1176L8.99745 22.6196L9.87 20.82ZM13.08 18.3H15.08V13.8463L11.7513 16.8052L13.08 18.3ZM11.58 26.43L11.7961 28.4183L11.8091 28.4169L11.8221 28.4153L11.58 26.43ZM10.2 26.58L9.98388 24.5917L7.5133 24.8603L8.30391 27.2163L10.2 26.58ZM11.7 31.05L9.80391 31.6863L10.309 33.1915L11.8896 33.041L11.7 31.05ZM14.22 30.81L14.4096 32.801L14.4299 32.7991L14.45 32.7967L14.22 30.81ZM17.61 27.03L19.6086 27.1061L19.61 27.0681V27.03H17.61ZM17.61 22.2L19.533 21.6506L15.61 22.2H17.61ZM19.65 30L17.6902 30.3992L18.1513 32.6625L20.3254 31.8825L19.65 30ZM23.58 28.59L24.2554 30.4725L26.0332 29.8347L25.498 28.0233L23.58 28.59ZM22.11 24.21L20.2233 24.8738L20.2273 24.8849L22.11 24.21ZM20.52 20.1L22.3557 19.3062L21.6703 17.7211L20.0022 18.1682L20.52 20.1ZM17.61 20.88H15.61V23.4867L18.1278 22.8118L17.61 20.88ZM17.61 17.28H19.61V15.28H17.61V17.28ZM14.19 17.28L12.7758 15.8658L9.36157 19.28H14.19V17.28ZM15.6 15.78V13.78H14.6801L14.0815 14.4784L15.6 15.78ZM18.9 15.78L20.5035 14.5847L19.9036 13.78H18.9V15.78ZM23.61 20.31L24.2087 22.2183L28.0758 21.0051L24.7604 18.6739L23.61 20.31ZM22.08 20.79L21.4813 18.8817L19.3513 19.5499L20.2487 21.594L22.08 20.79ZM23.88 25.35L22.0022 26.0385L22.0073 26.0522L22.0125 26.0659L23.88 25.35ZM25.65 30.33L23.7526 30.9625L24.4383 33.0195L26.4333 32.1702L25.65 30.33ZM30.09 28.44L30.8733 30.2802L32.7337 29.4883L31.9216 27.6367L30.09 28.44ZM29.6927 27.5321L31.5253 26.7311L31.5253 26.7311L29.6927 27.5321ZM27.51 22.65L28.438 20.8783L23.2077 18.1387L25.6963 23.493L27.51 22.65ZM19.71 11.52V13.52H21.71V11.52H19.71ZM19.71 9.3H21.71V7.3H19.71V9.3ZM14.49 11.52H12.49V13.52H14.49V11.52ZM14.49 9.3V7.3H12.49V9.3H14.49ZM38.227 8.63957V6.63957H36.227V8.63957H38.227ZM38.227 11.3996H36.227V13.3996H38.227V11.3996ZM47.347 8.63957V10.6396H49.347V8.63957H47.347ZM47.347 7.37957H49.347V5.37957H47.347V7.37957ZM37.087 7.37957H35.087V9.37957H37.087V7.37957ZM37.087 4.13957V2.13957H35.087V4.13957H37.087ZM47.347 4.13957V6.13957H49.347V4.13957H47.347ZM47.347 3.05957L47.3938 1.06012L45.347 1.01224V3.05957H47.347ZM52.477 3.17957H54.477V1.2258L52.5238 1.18012L52.477 3.17957ZM52.477 4.13957H50.477V6.13957H52.477V4.13957ZM62.767 4.13957H64.767V2.13957H62.767V4.13957ZM62.767 7.37957V9.37957H64.767V7.37957H62.767ZM52.477 7.37957V5.37957H50.477V7.37957H52.477ZM52.477 8.63957H50.477V10.6396H52.477V8.63957ZM61.627 8.63957H63.627V6.63957H61.627V8.63957ZM61.627 11.3996V13.3996H63.627V11.3996H61.627ZM63.547 19.3496H65.547V17.3496H63.547V19.3496ZM57.247 19.3496L55.5437 18.3014L53.6679 21.3496H57.247V19.3496ZM63.547 22.6496V24.6496H65.547V22.6496H63.547ZM36.307 22.6496H34.307V24.6496H36.307V22.6496ZM36.307 19.3496V17.3496H34.307V19.3496H36.307ZM42.457 19.3496V21.3496H45.6931L44.2459 18.4551L42.457 19.3496ZM41.767 17.9696L43.5559 17.0751L43.0031 15.9696H41.767V17.9696ZM39.247 17.9696H37.247V19.9696H39.247V17.9696ZM39.247 12.4796V10.4796H37.247V12.4796H39.247ZM60.577 12.4796H62.577V10.4796H60.577V12.4796ZM60.577 17.9696V19.9696H62.577V17.9696H60.577ZM57.997 17.9696V15.9696H56.7928L56.2294 17.0338L57.997 17.9696ZM57.8126 18.3208L59.585 19.2475L59.585 19.2474L57.8126 18.3208ZM55.777 14.5796H57.777V12.5796H55.777V14.5796ZM55.777 15.8696V17.8696H57.777V15.8696H55.777ZM44.047 14.5796V12.5796H42.047V14.5796H44.047ZM44.047 15.8696H42.047V17.8696H44.047V15.8696ZM46.807 17.9696V15.9696H43.5077L45.0338 18.8947L46.807 17.9696ZM53.077 17.9696L54.8343 18.9246L56.4403 15.9696H53.077V17.9696ZM47.527 19.3496L45.7538 20.2747L46.3146 21.3496H47.527V19.3496ZM52.327 19.3496V21.3496H53.5163L54.0842 20.3046L52.327 19.3496ZM61.027 30.4196V32.4196H63.027V30.4196H61.027ZM61.027 23.7896H63.027V21.7896H61.027V23.7896ZM38.797 30.4196H36.797V32.4196H38.797V30.4196ZM38.797 23.7896V21.7896H36.797V23.7896H38.797ZM56.227 26.3096H58.227V24.3096H56.227V26.3096ZM56.227 27.6896V29.6896H58.227V27.6896H56.227ZM43.597 26.3096V24.3096H41.597V26.3096H43.597ZM43.597 27.6896H41.597V29.6896H43.597V27.6896ZM122.411 3.15039L122.462 1.15104L120.411 1.09879V3.15039H122.411ZM120.701 25.7704L120.552 23.776L120.538 23.777L120.525 23.7781L120.701 25.7704ZM118.661 25.9504L118.485 23.9581L116.051 24.1729L116.743 26.5166L118.661 25.9504ZM120.131 30.9304L118.213 31.4966L118.677 33.0689L120.31 32.9224L120.131 30.9304ZM122.471 30.7204L122.65 32.7124L122.662 32.7112L122.471 30.7204ZM127.121 3.27039H129.121V1.3207L127.172 1.27104L127.121 3.27039ZM120.371 5.58039H122.371V3.63407L120.426 3.58113L120.371 5.58039ZM120.371 24.1804V26.1804H122.371V24.1804H120.371ZM115.961 5.46039L116.016 3.46113L113.961 3.40523V5.46039H115.961ZM115.961 20.9704L114.516 22.3528L117.961 25.9547V20.9704H115.961ZM113.877 18.9145L115.262 17.4717L115.262 17.4717L113.877 18.9145ZM113.831 18.8704L112.446 20.3132L112.446 20.3132L113.831 18.8704ZM112.121 17.3404L113.341 15.7551L111.905 14.6506L110.664 15.9706L112.121 17.3404ZM110.711 18.8404H108.711V23.8882L112.168 20.2102L110.711 18.8404ZM110.711 15.3304V13.3304H108.711V15.3304H110.711ZM114.671 15.3304V17.3304H116.671V15.3304H114.671ZM114.671 10.8004H116.671V8.80039H114.671V10.8004ZM110.711 10.8004H108.711V12.8004H110.711V10.8004ZM110.711 8.25039L110.531 6.25848L108.711 6.42272V8.25039H110.711ZM114.701 7.89039L114.881 9.8823L117.062 9.68554L116.669 7.53145L114.701 7.89039ZM113.891 3.45039L115.859 3.09145L115.531 1.29601L113.713 1.45831L113.891 3.45039ZM101.681 4.23039L101.645 2.23072L99.4592 2.27046L99.6925 4.44393L101.681 4.23039ZM102.161 8.70039L100.173 8.91393L100.373 10.7783L102.246 10.6986L102.161 8.70039ZM103.571 8.64039L103.514 6.64121L103.5 6.64161L103.486 6.6422L103.571 8.64039ZM105.602 8.53856L105.734 10.5342H105.734L105.602 8.53856ZM105.881 8.52039H107.881V6.39149L105.756 6.52429L105.881 8.52039ZM105.881 10.8004V12.8004H107.881V10.8004H105.881ZM101.381 10.8004V8.80039H99.3811V10.8004H101.381ZM101.381 15.3304H99.3811V17.3304H101.381V15.3304ZM105.551 15.3304L107.289 16.3198L108.991 13.3304H105.551V15.3304ZM100.331 21.4804L99.0037 19.9844L98.0882 20.7968L98.3949 21.9816L100.331 21.4804ZM101.861 27.3904L99.9249 27.8916L100.744 31.0536L103.188 28.8871L101.861 27.3904ZM105.881 22.6804H107.881V16.2779L104.237 21.542L105.881 22.6804ZM105.881 30.8704H103.881V32.8704H105.881V30.8704ZM110.711 30.8704V32.8704H112.711V30.8704H110.711ZM110.711 22.3804L112.178 21.0209L108.711 17.2803V22.3804H110.711ZM113.291 25.3504L111.699 26.5606L113.263 28.6186L114.862 26.5879L113.291 25.3504ZM115.961 21.9604H117.961V16.1887L114.39 20.7229L115.961 21.9604ZM115.961 24.1804H113.961V26.1804H115.961V24.1804ZM93.8241 20.0396H95.8241V18.0396H93.8241V20.0396ZM93.8241 26.2496H91.8241V28.2496H93.8241V26.2496ZM86.5041 20.0396L84.7414 19.0947L83.1627 22.0396H86.5041V20.0396ZM88.0641 17.1296L89.8268 18.0746L90.8195 16.2228L88.921 15.3225L88.0641 17.1296ZM85.1541 15.7496L83.9541 14.1496L81.3039 16.1372L84.2971 17.5567L85.1541 15.7496ZM88.0341 13.1696L89.4962 14.5342L90.0341 13.9579V13.1696H88.0341ZM88.0341 11.1296V9.12961H86.0341V11.1296H88.0341ZM90.3741 11.1296L92.3725 11.2095L92.4557 9.12961H90.3741V11.1296ZM90.3441 11.8796L88.3457 11.7997L88.3441 11.8396V11.8796H90.3441ZM90.3087 12.9055L92.3067 12.9951V12.9951L90.3087 12.9055ZM90.2841 13.4696L92.2759 13.6507L92.2803 13.6019L92.2823 13.5529L90.2841 13.4696ZM88.6041 14.8496L88.8424 16.8354L88.8462 16.8349L88.6041 14.8496ZM87.8541 14.9396L87.6158 12.9539L85.1814 13.246L85.9567 15.5721L87.8541 14.9396ZM89.1741 18.8996L87.2767 19.5321L87.7791 21.0392L89.3608 20.8909L89.1741 18.8996ZM90.1341 18.8096L90.3208 20.8009L90.3345 20.7996L90.3482 20.7981L90.1341 18.8096ZM94.8441 14.6096L96.8316 14.8324L96.8368 14.7865L96.8398 14.7405L94.8441 14.6096ZM95.2041 7.52961L97.2023 7.61287L97.2891 5.52961H95.2041V7.52961ZM90.8541 7.52961L88.8671 7.30209L88.612 9.52961H90.8541V7.52961ZM91.3041 3.59961L93.2911 3.82713L93.5462 1.59961H91.3041V3.59961ZM70.5141 3.59961V1.59961H68.5141V3.59961H70.5141ZM70.5141 7.88961H68.5141V9.88961H70.5141V7.88961ZM73.4241 7.88961L75.4206 8.00705L75.5452 5.88961H73.4241V7.88961ZM73.3313 8.83461L75.3157 9.08403L75.3158 9.08268L73.3313 8.83461ZM73.3311 8.83625L71.3467 8.58683L71.3465 8.58838L73.3311 8.83625ZM73.3041 9.05961L75.284 9.34246L75.2884 9.31147L75.2919 9.28036L73.3041 9.05961ZM71.9541 13.2896L73.6731 14.3118L73.6791 14.3018L73.6849 14.2917L71.9541 13.2896ZM68.8641 16.7696L67.5678 15.2465L65.7909 16.7588L67.5572 18.2835L68.8641 16.7696ZM72.3741 19.7996L71.0672 21.3135L72.4262 22.4867L73.7387 21.2617L72.3741 19.7996ZM75.4941 16.3196L77.1215 17.4821L77.1293 17.4713L77.1368 17.4604L75.4941 16.3196ZM77.2041 12.6596V10.6596H75.7001L75.2826 12.1045L77.2041 12.6596ZM84.6741 12.6596L85.8957 14.2432L90.541 10.6596H84.6741V12.6596ZM82.1541 14.3696L81.3043 16.1801L82.2028 16.6018L83.0821 16.1413L82.1541 14.3696ZM79.0041 12.9596L79.7919 11.1213L78.324 10.4922L77.3856 11.7846L79.0041 12.9596ZM77.4141 15.1496L75.7956 13.9746L74.4207 15.8685L76.5057 16.9314L77.4141 15.1496ZM78.9441 15.9296L79.7608 17.7552L83.5785 16.0473L79.8525 14.1478L78.9441 15.9296ZM75.2241 17.2796L74.669 15.3582L71.7644 16.1973L73.673 18.5422L75.2241 17.2796ZM77.3241 19.8596L75.773 21.1222L76.6786 22.2348L78.0229 21.7336L77.3241 19.8596ZM82.1841 17.6396L83.1253 15.8749L82.1685 15.3647L81.2189 15.8879L82.1841 17.6396ZM86.4141 20.0396V22.0396H93.7202L87.4327 18.3185L86.4141 20.0396ZM71.4741 20.0396V18.0396H69.4741V20.0396H71.4741ZM71.4741 26.2496V28.2496H73.4741V26.2496H71.4741ZM69.0741 26.2496V24.2496H67.0741V26.2496H69.0741ZM69.0741 30.3596H67.0741V32.3596H69.0741V30.3596ZM96.2541 30.3596V32.3596H98.2541V30.3596H96.2541ZM96.2541 26.2496H98.2541V24.2496H96.2541V26.2496ZM77.8341 9.59961L75.8739 9.2024L75.3881 11.5996H77.8341V9.59961ZM86.0241 9.59961V11.5996H87.7331L87.9996 9.91152L86.0241 9.59961ZM77.8442 9.54954L75.9067 9.05353L75.8941 9.10264L75.8841 9.15232L77.8442 9.54954ZM77.8443 9.54936L79.7818 10.0454L79.7941 9.99728L79.804 9.94865L77.8443 9.54936ZM77.9541 8.81961L75.9742 8.53681L75.9659 8.59498L75.961 8.65353L77.9541 8.81961ZM77.9772 8.66659L76.0011 8.35849L76.0007 8.3607L77.9772 8.66659ZM77.9781 8.66116L76.0062 8.32671L76.004 8.33987L76.0019 8.35306L77.9781 8.66116ZM77.9781 8.66062L76.0551 8.11118L76.0248 8.21733L76.0063 8.32617L77.9781 8.66062ZM77.9782 8.66054L79.9012 9.20998L79.9355 9.09012L79.9546 8.96692L77.9782 8.66054ZM78.0741 7.88961V5.88961H76.2221L76.08 7.73614L78.0741 7.88961ZM86.2941 7.88961L88.2696 8.20152L88.6346 5.88961H86.2941V7.88961ZM77.7741 26.2496V28.2496H79.7741V26.2496H77.7741ZM77.7741 23.5796H79.7741V21.5796H77.7741V23.5796ZM75.7341 26.2496H73.7341V28.2496H75.7341V26.2496ZM75.7341 23.5796V21.5796H73.7341V23.5796H75.7341ZM81.6141 23.5796V21.5796H79.6141V23.5796H81.6141ZM81.6141 26.2496H79.6141V28.2496H81.6141V26.2496ZM83.6541 23.5796H85.6541V21.5796H83.6541V23.5796ZM83.6541 26.2496V28.2496H85.6541V26.2496H83.6541ZM87.4641 23.5796V21.5796H85.4641V23.5796H87.4641ZM87.4641 26.2496H85.4641V28.2496H87.4641V26.2496ZM89.5341 23.5796H91.5341V21.5796H89.5341V23.5796ZM89.5341 26.2496V28.2496H91.5341V26.2496H89.5341ZM29.5514 18.36L27.5714 22.83L31.2286 24.45L33.2086 19.98L29.5514 18.36ZM23.1772 17.347C25.1678 18.9258 27.7258 20.165 30.8071 21.0862L31.9529 17.2538C29.2142 16.435 27.1522 15.3942 25.6628 14.213L23.1772 17.347ZM30.24 13.78H24.42V17.78H30.24V13.78ZM28.24 11.52V15.78H32.24V11.52H28.24ZM24.39 13.52H30.24V9.52H24.39V13.52ZM22.39 9.3V11.52H26.39V9.3H22.39ZM29.19 7.3H24.39V11.3H29.19V7.3ZM27.19 5.04V9.3H31.19V5.04H27.19ZM24.39 7.04H29.19V3.04H24.39V7.04ZM22.39 3.12V5.04H26.39V3.12H22.39ZM19.6587 4.99934L24.3387 5.11934L24.4413 1.12066L19.7613 1.00066L19.6587 4.99934ZM21.71 5.04V3H17.71V5.04H21.71ZM14.49 7.04H19.71V3.04H14.49V7.04ZM12.49 3.12V5.04H16.49V3.12H12.49ZM9.72906 4.99935L14.4391 5.11935L14.5409 1.12065L9.83094 1.00065L9.72906 4.99935ZM11.78 5.04V3H7.78V5.04H11.78ZM4.98 7.04H9.78V3.04H4.98V7.04ZM6.98 9.3V5.04H2.98V9.3H6.98ZM9.78 7.3H4.98V11.3H9.78V7.3ZM11.78 11.52V9.3H7.78V11.52H11.78ZM4.08 13.52H9.78V9.52H4.08V13.52ZM6.08 15.78V11.52H2.08V15.78H6.08ZM9.9 13.78H4.08V17.78H9.9V13.78ZM3.73352 21.3006C6.9285 20.0411 9.27162 18.844 11.1494 17.3417L8.65061 14.2183C7.22838 15.356 5.3115 16.3789 2.26648 17.5794L3.73352 21.3006ZM6.95132 22.9005L4.79132 18.5505L1.20868 20.3295L3.36868 24.6795L6.95132 22.9005ZM6.45181 20.7367C5.70348 21.1972 4.9568 21.6279 4.2118 22.0291L6.1082 25.5509C6.9232 25.1121 7.73653 24.6428 8.54819 24.1433L6.45181 20.7367ZM5.63428 29.2707C7.1327 27.3259 8.34634 25.3146 9.30572 23.2999L5.69428 21.5801C4.85366 23.3454 3.7873 25.1141 2.46572 26.8293L5.63428 29.2707ZM9.10055 28.6583L5.05056 26.3183L3.04944 29.7817L7.09944 32.1217L9.10055 28.6583ZM8.23995 25.6163C7.57454 27.1785 6.95481 28.4114 6.38501 29.361L9.81499 31.419C10.5052 30.2687 11.2055 28.8615 11.92 27.1837L8.23995 25.6163ZM9.95263 21.1475C9.49492 22.5207 8.91599 23.9995 8.23484 25.6284L11.9252 27.1716C12.624 25.5005 13.2451 23.9193 13.7474 22.4125L9.95263 21.1475ZM8.99745 22.6196L10.9775 23.5796L12.7225 19.9804L10.7425 19.0204L8.99745 22.6196ZM11.7513 16.8052C10.7327 17.7106 9.71864 18.4987 8.73894 19.1705L11.0011 22.4695C12.1214 21.7013 13.2673 20.8094 14.4087 19.7948L11.7513 16.8052ZM15.08 24.66V18.3H11.08V24.66H15.08ZM11.8221 28.4153C12.445 28.3393 13.554 28.1708 14.3205 27.2614C15.0583 26.3861 15.08 25.2824 15.08 24.66H11.08C11.08 24.7887 11.0766 24.8835 11.0714 24.9533C11.0689 24.9874 11.0662 25.0123 11.0639 25.0296C11.0617 25.0468 11.0601 25.0542 11.0603 25.0535C11.0608 25.0508 11.0972 24.8791 11.262 24.6836C11.3412 24.5896 11.427 24.5181 11.5049 24.4674C11.5793 24.4191 11.634 24.3977 11.6491 24.3922C11.6627 24.3873 11.6485 24.3937 11.5921 24.4053C11.5362 24.4169 11.4547 24.4305 11.3379 24.4447L11.8221 28.4153ZM10.4161 28.5683L11.7961 28.4183L11.3639 24.4417L9.98388 24.5917L10.4161 28.5683ZM13.5961 30.4137L12.0961 25.9437L8.30391 27.2163L9.80391 31.6863L13.5961 30.4137ZM14.0304 28.819L11.5104 29.059L11.8896 33.041L14.4096 32.801L14.0304 28.819ZM15.6115 26.9539C15.582 27.7279 15.5368 28.1915 15.4738 28.4891C15.4151 28.7667 15.376 28.7207 15.477 28.6125C15.5807 28.5015 15.6412 28.5285 15.396 28.5972C15.124 28.6733 14.7078 28.7402 13.99 28.8233L14.45 32.7967C15.1572 32.7148 15.8623 32.6204 16.4743 32.4491C17.1131 32.2702 17.8206 31.9635 18.4005 31.3425C18.9778 30.7243 19.2443 29.9921 19.3871 29.3172C19.5257 28.6622 19.578 27.9071 19.6086 27.1061L15.6115 26.9539ZM15.61 22.2V27.03H19.61V22.2H15.61ZM21.6098 29.6008C21.2624 27.8958 20.5522 25.2175 19.533 21.6506L15.687 22.7494C16.7078 26.3225 17.3776 28.8642 17.6902 30.3992L21.6098 29.6008ZM22.9046 26.7075L18.9746 28.1175L20.3254 31.8825L24.2554 30.4725L22.9046 26.7075ZM20.2273 24.8849C20.7958 26.4708 21.2892 27.8952 21.662 29.1567L25.498 28.0233C25.0908 26.6448 24.5642 25.1292 23.9927 23.5351L20.2273 24.8849ZM18.6843 20.8938C19.1426 21.9538 19.6659 23.2895 20.2234 24.8738L23.9966 23.5462C23.4141 21.8905 22.8574 20.4662 22.3557 19.3062L18.6843 20.8938ZM18.1278 22.8118L21.0378 22.0318L20.0022 18.1682L17.0922 18.9482L18.1278 22.8118ZM15.61 17.28V20.88H19.61V17.28H15.61ZM14.19 19.28H17.61V15.28H14.19V19.28ZM14.0815 14.4784C13.5959 15.0449 13.1638 15.4778 12.7758 15.8658L15.6042 18.6942C15.9962 18.3022 16.5241 17.7751 17.1185 17.0816L14.0815 14.4784ZM18.9 13.78H15.6V17.78H18.9V13.78ZM24.7604 18.6739C23.0068 17.441 21.6017 16.0579 20.5035 14.5847L17.2965 16.9753C18.6583 18.8021 20.3732 20.479 22.4596 21.9461L24.7604 18.6739ZM22.6787 22.6983L24.2087 22.2183L23.0113 18.4017L21.4813 18.8817L22.6787 22.6983ZM25.7578 24.6615C25.0908 22.8426 24.4748 21.2695 23.9113 19.986L20.2487 21.594C20.7652 22.7705 21.3492 24.2575 22.0022 26.0385L25.7578 24.6615ZM27.5474 29.6975C27.0323 28.1524 26.452 26.472 25.7475 24.6341L22.0125 26.0659C22.688 27.828 23.2477 29.4476 23.7526 30.9625L27.5474 29.6975ZM29.3067 26.5998L24.8667 28.4898L26.4333 32.1702L30.8733 30.2802L29.3067 26.5998ZM27.8601 28.3331C27.9954 28.6425 28.1282 28.9464 28.2584 29.2433L31.9216 27.6367C31.7925 27.3425 31.6607 27.0409 31.5253 26.7311L27.8601 28.3331ZM25.6963 23.493C26.5042 25.2311 27.2118 26.8499 27.8601 28.3331L31.5253 26.7311C30.8785 25.2512 30.1536 23.5926 29.3237 21.807L25.6963 23.493ZM30.328 21.8683L28.438 20.8783L26.582 24.4217L28.472 25.4117L30.328 21.8683ZM21.71 11.52V9.3H17.71V11.52H21.71ZM14.49 13.52H19.71V9.52H14.49V13.52ZM12.49 9.3V11.52H16.49V9.3H12.49ZM19.71 7.3H14.49V11.3H19.71V7.3ZM36.227 8.63957V11.3996H40.227V8.63957H36.227ZM47.347 6.63957H38.227V10.6396H47.347V6.63957ZM45.347 7.37957V8.63957H49.347V7.37957H45.347ZM37.087 9.37957H47.347V5.37957H37.087V9.37957ZM35.087 4.13957V7.37957H39.087V4.13957H35.087ZM47.347 2.13957H37.087V6.13957H47.347V2.13957ZM45.347 3.05957V4.13957H49.347V3.05957H45.347ZM52.5238 1.18012L47.3938 1.06012L47.3002 5.05902L52.4302 5.17902L52.5238 1.18012ZM54.477 4.13957V3.17957H50.477V4.13957H54.477ZM62.767 2.13957H52.477V6.13957H62.767V2.13957ZM64.767 7.37957V4.13957H60.767V7.37957H64.767ZM52.477 9.37957H62.767V5.37957H52.477V9.37957ZM54.477 8.63957V7.37957H50.477V8.63957H54.477ZM61.627 6.63957H52.477V10.6396H61.627V6.63957ZM63.627 11.3996V8.63957H59.627V11.3996H63.627ZM38.227 13.3996H61.627V9.39957H38.227V13.3996ZM63.547 17.3496H57.247V21.3496H63.547V17.3496ZM65.547 22.6496V19.3496H61.547V22.6496H65.547ZM36.307 24.6496H63.547V20.6496H36.307V24.6496ZM34.307 19.3496V22.6496H38.307V19.3496H34.307ZM42.457 17.3496H36.307V21.3496H42.457V17.3496ZM39.9782 18.864L40.6682 20.244L44.2459 18.4551L43.5559 17.0751L39.9782 18.864ZM39.247 19.9696H41.767V15.9696H39.247V19.9696ZM37.247 12.4796V17.9696H41.247V12.4796H37.247ZM60.577 10.4796H39.247V14.4796H60.577V10.4796ZM62.577 17.9696V12.4796H58.577V17.9696H62.577ZM57.997 19.9696H60.577V15.9696H57.997V19.9696ZM59.585 19.2474C59.6454 19.1319 59.7044 19.019 59.7646 18.9053L56.2294 17.0338C56.1637 17.158 56.1 17.2798 56.0402 17.3941L59.585 19.2474ZM58.9503 20.3978C59.1783 20.0273 59.3963 19.6082 59.585 19.2475L56.0403 17.3941C55.8338 17.7889 55.6837 18.0738 55.5437 18.3014L58.9503 20.3978ZM53.777 14.5796V15.8696H57.777V14.5796H53.777ZM44.047 16.5796H55.777V12.5796H44.047V16.5796ZM46.047 15.8696V14.5796H42.047V15.8696H46.047ZM55.777 13.8696H44.047V17.8696H55.777V13.8696ZM46.807 19.9696H53.077V15.9696H46.807V19.9696ZM49.3002 18.4244L48.5802 17.0444L45.0338 18.8947L45.7538 20.2747L49.3002 18.4244ZM52.327 17.3496H47.527V21.3496H52.327V17.3496ZM51.3198 17.0145L50.5698 18.3945L54.0842 20.3046L54.8343 18.9246L51.3198 17.0145ZM63.027 30.4196V23.7896H59.027V30.4196H63.027ZM38.797 32.4196H61.027V28.4196H38.797V32.4196ZM36.797 23.7896V30.4196H40.797V23.7896H36.797ZM61.027 21.7896H38.797V25.7896H61.027V21.7896ZM54.227 26.3096V27.6896H58.227V26.3096H54.227ZM43.597 28.3096H56.227V24.3096H43.597V28.3096ZM45.597 27.6896V26.3096H41.597V27.6896H45.597ZM56.227 25.6896H43.597V29.6896H56.227V25.6896ZM124.411 24.1204V3.15039H120.411V24.1204H124.411ZM120.851 27.7648C121.607 27.708 122.601 27.5183 123.381 26.7808C124.218 25.9882 124.411 24.9548 124.411 24.1204H120.411C120.411 24.2541 120.395 24.2637 120.415 24.2014C120.427 24.1667 120.449 24.1138 120.487 24.052C120.526 23.9891 120.575 23.9286 120.632 23.875C120.748 23.7648 120.844 23.7325 120.842 23.7333C120.831 23.7371 120.748 23.7613 120.552 23.776L120.851 27.7648ZM118.837 27.9427L120.877 27.7627L120.525 23.7781L118.485 23.9581L118.837 27.9427ZM122.049 30.3642L120.579 25.3842L116.743 26.5166L118.213 31.4966L122.049 30.3642ZM122.292 28.7284L119.952 28.9384L120.31 32.9224L122.65 32.7124L122.292 28.7284ZM125.121 26.6104C125.121 27.276 125.068 27.6668 125 27.9014C124.945 28.0937 124.896 28.1297 124.88 28.1435C124.837 28.1814 124.684 28.2948 124.244 28.4171C123.799 28.5409 123.175 28.6437 122.28 28.7295L122.662 32.7112C124.492 32.5356 126.288 32.2346 127.525 31.1448C128.914 29.9208 129.121 28.1834 129.121 26.6104H125.121ZM125.121 3.27039V26.6104H129.121V3.27039H125.121ZM122.36 5.14974L127.07 5.26974L127.172 1.27104L122.462 1.15104L122.36 5.14974ZM118.371 5.58039V24.1804H122.371V5.58039H118.371ZM115.907 7.45965L120.317 7.57965L120.426 3.58113L116.016 3.46113L115.907 7.45965ZM117.961 20.9704V5.46039H113.961V20.9704H117.961ZM112.492 20.3573C113.232 21.0675 113.904 21.7133 114.516 22.3528L117.406 19.5879C116.725 18.8757 115.989 18.1696 115.262 17.4717L112.492 20.3573ZM112.446 20.3132L112.492 20.3573L115.262 17.4717L115.216 17.4276L112.446 20.3132ZM110.902 18.9256C111.2 19.1551 111.704 19.601 112.446 20.3132L115.216 17.4276C114.458 16.6998 113.822 16.1257 113.341 15.7551L110.902 18.9256ZM112.168 20.2102L113.578 18.7102L110.664 15.9706L109.254 17.4706L112.168 20.2102ZM108.711 15.3304V18.8404H112.711V15.3304H108.711ZM114.671 13.3304H110.711V17.3304H114.671V13.3304ZM112.671 10.8004V15.3304H116.671V10.8004H112.671ZM110.711 12.8004H114.671V8.80039H110.711V12.8004ZM108.711 8.25039V10.8004H112.711V8.25039H108.711ZM114.521 5.89848L110.531 6.25848L110.891 10.2423L114.881 9.8823L114.521 5.89848ZM111.924 3.80933L112.734 8.24933L116.669 7.53145L115.859 3.09145L111.924 3.80933ZM107.896 5.9265C110.324 5.77472 112.387 5.59264 114.069 5.44247L113.713 1.45831C112.035 1.60814 110.018 1.78607 107.646 1.93429L107.896 5.9265ZM101.717 6.23006C103.419 6.19912 105.504 6.07597 107.896 5.9265L107.646 1.93429C105.238 2.08481 103.243 2.20167 101.645 2.23072L101.717 6.23006ZM104.15 8.48685L103.67 4.01685L99.6925 4.44393L100.173 8.91393L104.15 8.48685ZM103.486 6.6422L102.076 6.7022L102.246 10.6986L103.656 10.6386L103.486 6.6422ZM105.47 6.54292C104.992 6.57458 104.341 6.61759 103.514 6.64121L103.628 10.6396C104.535 10.6137 105.249 10.5663 105.734 10.5342L105.47 6.54292ZM105.756 6.52429C105.668 6.52981 105.571 6.53623 105.47 6.54292L105.734 10.5342C105.837 10.5274 105.926 10.5215 106.006 10.5165L105.756 6.52429ZM107.881 10.8004V8.52039H103.881V10.8004H107.881ZM101.381 12.8004H105.881V8.80039H101.381V12.8004ZM103.381 15.3304V10.8004H99.3811V15.3304H103.381ZM105.551 13.3304H101.381V17.3304H105.551V13.3304ZM101.659 22.9764C103.901 20.987 106.041 18.512 107.289 16.3198L103.813 14.341C102.841 16.0488 101.022 18.1938 99.0037 19.9844L101.659 22.9764ZM103.797 26.8892L102.267 20.9792L98.3949 21.9816L99.9249 27.8916L103.797 26.8892ZM104.237 21.542C102.945 23.4073 101.698 24.8622 100.535 25.8937L103.188 28.8871C104.664 27.5786 106.117 25.8535 107.526 23.8188L104.237 21.542ZM107.881 30.8704V22.6804H103.881V30.8704H107.881ZM110.711 28.8704H105.881V32.8704H110.711V28.8704ZM108.711 22.3804V30.8704H112.711V22.3804H108.711ZM114.883 24.1402C114.25 23.3072 113.323 22.2568 112.178 21.0209L109.244 23.7399C110.379 24.964 111.192 25.8936 111.699 26.5606L114.883 24.1402ZM114.39 20.7229L111.72 24.1129L114.862 26.5879L117.532 23.1979L114.39 20.7229ZM117.961 24.1804V21.9604H113.961V24.1804H117.961ZM120.371 22.1804H115.961V26.1804H120.371V22.1804ZM91.8241 20.0396V26.2496H95.8241V20.0396H91.8241ZM86.5041 22.0396H93.8241V18.0396H86.5041V22.0396ZM86.3014 16.1847L84.7414 19.0947L88.2668 20.9846L89.8268 18.0746L86.3014 16.1847ZM84.2971 17.5567L87.2071 18.9367L88.921 15.3225L86.011 13.9425L84.2971 17.5567ZM86.572 11.805C85.8118 12.6195 84.9394 13.4106 83.9541 14.1496L86.3541 17.3496C87.5288 16.4686 88.5764 15.5197 89.4962 14.5342L86.572 11.805ZM86.0341 11.1296V13.1696H90.0341V11.1296H86.0341ZM90.3741 9.12961H88.0341V13.1296H90.3741V9.12961ZM92.3425 11.9595L92.3725 11.2095L88.3757 11.0497L88.3457 11.7997L92.3425 11.9595ZM92.3067 12.9951C92.3256 12.574 92.3441 12.173 92.3441 11.8796H88.3441C88.3441 12.0606 88.3316 12.351 88.3107 12.8159L92.3067 12.9951ZM92.2823 13.5529C92.2906 13.354 92.2989 13.1687 92.3067 12.9951L88.3107 12.8159C88.303 12.989 88.2944 13.1803 88.2858 13.3863L92.2823 13.5529ZM88.8462 16.8349C89.429 16.7638 90.3674 16.6348 91.1153 16.0408C92.0236 15.3196 92.2154 14.3155 92.2759 13.6507L88.2923 13.2885C88.2783 13.4421 88.264 13.4281 88.2996 13.339C88.3205 13.2867 88.3572 13.2118 88.4175 13.1285C88.479 13.0437 88.5512 12.9692 88.6278 12.9084C88.7757 12.7909 88.8819 12.7703 88.8268 12.7859C88.7667 12.803 88.6331 12.8313 88.362 12.8643L88.8462 16.8349ZM88.0924 16.9254L88.8424 16.8354L88.3658 12.8639L87.6158 12.9539L88.0924 16.9254ZM91.0714 18.2672L89.7514 14.3072L85.9567 15.5721L87.2767 19.5321L91.0714 18.2672ZM89.9474 16.8183L88.9874 16.9083L89.3608 20.8909L90.3208 20.8009L89.9474 16.8183ZM92.8565 14.3869C92.7591 15.2562 92.6742 15.7698 92.5743 16.1072C92.4865 16.4038 92.4332 16.4003 92.4864 16.3536C92.5138 16.3296 92.4417 16.414 91.9968 16.5201C91.5424 16.6284 90.9033 16.7152 89.9199 16.8211L90.3482 20.7981C91.3148 20.694 92.1908 20.5859 92.9242 20.411C93.6671 20.234 94.4556 19.9472 95.1242 19.3606C95.8187 18.7515 96.1873 17.9941 96.4098 17.2427C96.6202 16.532 96.7341 15.703 96.8316 14.8324L92.8565 14.3869ZM93.2058 7.44635C93.0861 10.3188 92.9669 12.6712 92.8484 14.4787L96.8398 14.7405C96.9613 12.888 97.082 10.5004 97.2023 7.61287L93.2058 7.44635ZM90.8541 9.52961H95.2041V5.52961H90.8541V9.52961ZM89.3171 3.37209L88.8671 7.30209L92.8411 7.75713L93.2911 3.82713L89.3171 3.37209ZM70.5141 5.59961H91.3041V1.59961H70.5141V5.59961ZM72.5141 7.88961V3.59961H68.5141V7.88961H72.5141ZM73.4241 5.88961H70.5141V9.88961H73.4241V5.88961ZM75.3158 9.08268C75.347 8.83292 75.3939 8.46094 75.4206 8.00705L71.4275 7.77217C71.4092 8.08329 71.3774 8.3413 71.3467 8.58654L75.3158 9.08268ZM75.3154 9.08567L75.3157 9.08403L71.3469 8.58519L71.3467 8.58683L75.3154 9.08567ZM75.2919 9.28036C75.2975 9.22964 75.3049 9.16986 75.3156 9.08412L71.3465 8.58838C71.3367 8.66635 71.3256 8.75548 71.3163 8.83886L75.2919 9.28036ZM73.6849 14.2917C74.5043 12.8763 75.0177 11.2061 75.284 9.34246L71.3242 8.77676C71.1104 10.2731 70.7238 11.4229 70.2232 12.2875L73.6849 14.2917ZM70.1603 18.2927C71.6878 16.9927 72.8714 15.6601 73.6731 14.3118L70.235 12.2675C69.7167 13.1391 68.8604 14.1465 67.5678 15.2465L70.1603 18.2927ZM73.681 18.2857L70.171 15.2557L67.5572 18.2835L71.0672 21.3135L73.681 18.2857ZM73.8666 15.1571C73.2051 16.0832 72.2771 17.1544 71.0094 18.3375L73.7387 21.2617C75.1711 19.9248 76.283 18.656 77.1215 17.4821L73.8666 15.1571ZM75.2826 12.1045C74.947 13.2662 74.4654 14.2945 73.8513 15.1788L77.1368 17.4604C78.0227 16.1847 78.6811 14.753 79.1255 13.2147L75.2826 12.1045ZM84.6741 10.6596H77.2041V14.6596H84.6741V10.6596ZM83.0821 16.1413C83.8684 15.7294 84.8179 15.0746 85.8957 14.2432L83.4525 11.076C82.4303 11.8646 81.6998 12.3498 81.2261 12.5979L83.0821 16.1413ZM78.2162 14.7979C78.8394 15.065 79.865 15.5045 81.3043 16.1801L83.0039 12.5591C81.5031 11.8547 80.4287 11.3942 79.7919 11.1213L78.2162 14.7979ZM79.0325 16.3246L80.6225 14.1346L77.3856 11.7846L75.7956 13.9746L79.0325 16.3246ZM79.8525 14.1478L78.3225 13.3678L76.5057 16.9314L78.0357 17.7114L79.8525 14.1478ZM75.7792 19.201C77.2128 18.7869 78.5307 18.3056 79.7608 17.7552L78.1273 14.104C77.0775 14.5737 75.9353 14.9924 74.669 15.3582L75.7792 19.201ZM78.8752 18.5971L76.7752 16.0171L73.673 18.5422L75.773 21.1222L78.8752 18.5971ZM81.2189 15.8879C79.8358 16.6501 78.3049 17.3594 76.6253 17.9857L78.0229 21.7336C79.8833 21.0399 81.5924 20.2492 83.1493 19.3913L81.2189 15.8879ZM87.4327 18.3185C85.9507 17.4413 84.5123 16.6147 83.1253 15.8749L81.2429 19.4043C82.5559 20.1046 83.9375 20.8979 85.3954 21.7608L87.4327 18.3185ZM71.4741 22.0396H86.4141V18.0396H71.4741V22.0396ZM73.4741 26.2496V20.0396H69.4741V26.2496H73.4741ZM69.0741 28.2496H71.4741V24.2496H69.0741V28.2496ZM71.0741 30.3596V26.2496H67.0741V30.3596H71.0741ZM96.2541 28.3596H69.0741V32.3596H96.2541V28.3596ZM94.2541 26.2496V30.3596H98.2541V26.2496H94.2541ZM93.8241 28.2496H96.2541V24.2496H93.8241V28.2496ZM77.8341 11.5996H86.0241V7.59961H77.8341V11.5996ZM75.8841 9.15232L75.8739 9.2024L79.7942 9.99682L79.8044 9.94675L75.8841 9.15232ZM75.9068 9.05335L75.9067 9.05353L79.7817 10.0455L79.7818 10.0454L75.9068 9.05335ZM75.961 8.65353C75.9444 8.85286 75.9136 9.00745 75.8845 9.15007L79.804 9.94865C79.8387 9.77838 79.91 9.43205 79.9472 8.98569L75.961 8.65353ZM76.0007 8.3607C75.9925 8.4137 75.9827 8.47736 75.9742 8.53681L79.934 9.10241C79.9385 9.07074 79.9445 9.03197 79.9537 8.97248L76.0007 8.3607ZM76.0019 8.35306L76.0011 8.35849L79.9533 8.97469L79.9542 8.96926L76.0019 8.35306ZM76.0063 8.32617L76.0062 8.32671L79.9499 8.9956L79.95 8.99506L76.0063 8.32617ZM76.0551 8.1111L76.0551 8.11118L79.9012 9.21006L79.9012 9.20998L76.0551 8.1111ZM76.08 7.73614C76.0633 7.95328 76.0333 8.1509 76.0018 8.35415L79.9546 8.96692C79.9858 8.76563 80.0384 8.43066 80.0682 8.04308L76.08 7.73614ZM86.2941 5.88961H78.0741V9.88961H86.2941V5.88961ZM87.9996 9.91152L88.2696 8.20152L84.3185 7.5777L84.0486 9.2877L87.9996 9.91152ZM79.7741 26.2496V23.5796H75.7741V26.2496H79.7741ZM75.7341 28.2496H77.7741V24.2496H75.7341V28.2496ZM73.7341 23.5796V26.2496H77.7341V23.5796H73.7341ZM77.7741 21.5796H75.7341V25.5796H77.7741V21.5796ZM79.6141 23.5796V26.2496H83.6141V23.5796H79.6141ZM83.6541 21.5796H81.6141V25.5796H83.6541V21.5796ZM85.6541 26.2496V23.5796H81.6541V26.2496H85.6541ZM81.6141 28.2496H83.6541V24.2496H81.6141V28.2496ZM85.4641 23.5796V26.2496H89.4641V23.5796H85.4641ZM89.5341 21.5796H87.4641V25.5796H89.5341V21.5796ZM91.5341 26.2496V23.5796H87.5341V26.2496H91.5341ZM87.4641 28.2496H89.5341V24.2496H87.4641V28.2496Z" fill="white" mask="url(#path-1-outside-1_3320_26972)"/>
<defs>
<linearGradient id="paint0_linear_3320_26972" x1="125.344" y1="16.48" x2="6.34409" y2="16.48" gradientUnits="userSpaceOnUse">
<stop stop-color="#FFAF2A"/>
<stop offset="1" stop-color="#00AF70"/>
</linearGradient>
</defs>
</svg>
