<svg xmlns="http://www.w3.org/2000/svg" width="159" height="68" fill="none"><path stroke="#414345" d="M1 65.5h156M1.5 63v5m78-5v5m78-5v5"/><path d="M1 39c.5-.5 2-1.5 4-1.5 2.5 0 3.5 3 5 0s2.5 0 4.5 0 2-4.5 4.5-4 0 3.5 4.5 0 7-7 8.5-3.5 6 2 8.5 0c4.685-3.749 7-12 10-10s-1.5 8 5 6 8-6 10.5-6 2.5 3.5 6 3.5 5-9.5 8-8 15.5 4.5 18 0 7-6 10.5-3 8.5 2 10 0 6-8 9.5-7.5 3.5 12 9 10.5S155 1 158 1" stroke="#00A609" stroke-width="2" stroke-linecap="round" stroke-linejoin="round"/><path d="M1.5 49.5c-.333.5-.2 1.5 3 1.5 4 0-.5-6 2.5-5.5s1.5 4 3 4 1.5-4.5 4-5 3.5 3.5 5 5 1.5-1 2.5-1.5 4.5-3 5.5 0 .5 0 2 0 1.5-8 3.5-7 9 2.5 12-2S48 28.5 52 30.5s7-9 11.5-13.5 8 5.5 11 9.5S79 38 83.5 38s3.5 3.5 3 5 1 7 5.5 2.5 6-6.5 8-4.5 6 4 9.5 2 4-4 7-4 4.5-2.5 8-5.5 7.5-1.5 10.5 2 10.5-13 15.5-13.5c4-.4 6.667 5.5 7.5 8.5" stroke="#DC5959" stroke-width="2" stroke-linecap="round" stroke-linejoin="round"/></svg>