<svg xmlns="http://www.w3.org/2000/svg" width="26" height="26" viewBox="0 0 26 26" fill="none">
  <g clip-path="url(#clip0_191_2931)">
    <path d="M0 13C0 9.55219 1.36964 6.24558 3.80761 3.80761C6.24558 1.36964 9.55219 0 13 0C16.4478 0 19.7544 1.36964 22.1924 3.80761C24.6304 6.24558 26 9.55219 26 13C26 16.4478 24.6304 19.7544 22.1924 22.1924C19.7544 24.6304 16.4478 26 13 26C9.55219 26 6.24558 24.6304 3.80761 22.1924C1.36964 19.7544 0 16.4478 0 13Z" fill="#171717"/>
    <path fill-rule="evenodd" clip-rule="evenodd" d="M19.9696 18.3185H15.0702V18.3169C15.0119 18.3168 14.9549 18.2994 14.9064 18.267C14.858 18.2346 14.8202 18.1886 14.7978 18.1348C14.7754 18.081 14.7694 18.0217 14.7805 17.9645C14.7917 17.9073 14.8196 17.8546 14.8606 17.8132L16.6128 16.0615L13.8596 13.0665L12.6685 14.2853L12.6441 14.3113C12.386 14.5625 12.0386 14.7008 11.6784 14.696C11.3182 14.6911 10.9747 14.5434 10.7234 14.2853L5.65339 9.08038C5.54509 8.9692 5.45975 8.83777 5.40224 8.69361C5.34473 8.54945 5.31618 8.39537 5.31822 8.24018C5.32233 7.92674 5.45079 7.62778 5.67533 7.40906C5.78651 7.30076 5.91793 7.21542 6.06209 7.15792C6.20625 7.10041 6.36033 7.07186 6.51553 7.07389C6.67072 7.07593 6.824 7.10851 6.9666 7.16979C7.1092 7.23106 7.23834 7.31982 7.34664 7.431H7.34826L11.6984 11.8981L12.9106 10.655C13.0353 10.5272 13.184 10.4252 13.3481 10.3548C13.5122 10.2845 13.6886 10.2472 13.8671 10.2451C14.0457 10.243 14.2229 10.2761 14.3886 10.3425C14.5543 10.409 14.7054 10.5074 14.833 10.6323L14.8834 10.6843L18.2857 14.3892L19.7616 12.9138C19.8029 12.8729 19.8554 12.8451 19.9125 12.8338C19.9696 12.8226 20.0287 12.8285 20.0824 12.8507C20.1362 12.8729 20.1822 12.9104 20.2148 12.9587C20.2473 13.0069 20.2649 13.0636 20.2653 13.1218V18.0228C20.2653 18.1853 20.1321 18.3185 19.9696 18.3185Z" fill="#DC5959"/>
  </g>
  <defs>
    <clipPath id="clip0_191_2931">
      <rect width="26" height="26" fill="white" transform="matrix(1 0 0 -1 0 26)"/>
    </clipPath>
  </defs>
</svg>