<svg width="10" height="10" fill="none" xmlns="http://www.w3.org/2000/svg"><g clip-path="url(#a)" fill="#F89A29"><path d="M2.137 2.856a1.948 1.948 0 1 0 3.895-.001 1.948 1.948 0 0 0-3.895 0z"/><path d="M5.018 4.913h-1.53a3.209 3.209 0 0 0-3.21 3.209c0 .534.433.968.97.97h5.826c.42 0 .762-.34.762-.762v-.6a2.82 2.82 0 0 0-2.818-2.817zM6.282 2.84a2.07 2.07 0 0 1-.499 1.35.108.108 0 0 0 .005.145 1.484 1.484 0 1 0 .448-2.379.145.145 0 0 0-.077.18c.082.225.124.463.123.704z"/><path d="M7.12 5.03h-.428a.087.087 0 0 0-.087.085c0 .03.016.058.042.074A2.905 2.905 0 0 1 8.073 7.69v.618a.781.781 0 0 1-.142.45.087.087 0 0 0 .02.119c.014.01.03.015.049.015h1.02a.703.703 0 0 0 .703-.703v-.554a2.605 2.605 0 0 0-2.602-2.607z"/></g><defs><clipPath id="a"><path fill="#fff" d="M0 0h10v10H0z"/></clipPath></defs></svg>