<svg xmlns="http://www.w3.org/2000/svg" viewBox="0 0 20 20" fill="none"><path d="M10 17.96c-4.39 0-7.96-3.57-7.96-7.96 0-.17.01-.34.02-.51l1.4.09c-.01.14-.01.28-.01.42 0 3.62 2.94 6.56 6.56 6.56 1.69 0 3.29-.64 4.51-1.8l.96 1.02A7.927 7.927 0 0 1 10 17.96ZM17.96 10h-1.4c0-.23-.01-.46-.04-.69a6.536 6.536 0 0 0-6.53-5.87c-1.32 0-2.58.39-3.67 1.12L5.55 3.4A7.887 7.887 0 0 1 10 2.04 7.935 7.935 0 0 1 17.96 10Z" fill="#8F92A1"/><path d="M2.74 5.68.55 9.6c-.06.1.02.23.13.23h4.37c.12 0 .19-.12.13-.23L3 5.68c-.06-.11-.21-.11-.26 0ZM17 13.2l-2.19-3.92c-.06-.1.02-.23.13-.23h4.37c.12 0 .19.12.13.23l-2.18 3.92c-.05.1-.2.1-.26 0ZM5.28 3.95a.7.7 0 1 0 1.4 0 .7.7 0 0 0-1.4 0Zm8.95 11.38a.7.7 0 1 0 1.4 0 .7.7 0 0 0-1.4 0Z" fill="#8F92A1"/></svg>