<svg xmlns="http://www.w3.org/2000/svg" width="158" height="80" fill="none"><path stroke="#414345" d="M0 77.5h156M.5 75v5m78-5v5m78-5v5"/><path d="M13.5 19C11.1 31 4.833 40 1 43v35h155.5V7.5c-2.167 2.667-7.1 8-9.5 8-3 0-14.5 11-22 3.5s-13.5 11-22.5 7.5S96.5 43 89 43s-1.5-7.5-6.5-13S79 35 72 35.5s-8.5-.5-8-9-2-7.5-6.5-11S61 43 49.5 43s-5-11-12.5-19.5-2.5-21-7-22-2 25.5-8 25S16.5 4 13.5 19Z" fill="url(#a)"/><path d="M1 43c3.833-3 10.1-12 12.5-24 3-15 2.5 7 8.5 7.5s3.5-26 8-25-.5 13.5 7 22S38 43 49.5 43s3.5-31 8-27.5 7 2.5 6.5 11 1 9.5 8 9 5.5-11 10.5-5.5-1 13 6.5 13 4.5-20 13.5-16.5 15-15 22.5-7.5 9 2 22-3.5c2.21-.935 7.333-5.333 9.5-8" stroke="#00A609" stroke-width="2" stroke-linecap="round" stroke-linejoin="round"/><defs><linearGradient id="a" x1="58.188" y1="9.125" x2="58.188" y2="78" gradientUnits="userSpaceOnUse"><stop stop-color="#00A609" stop-opacity=".3"/><stop offset="1" stop-color="#00A609" stop-opacity="0"/></linearGradient></defs></svg>