<svg width="16" height="16" viewBox="0 0 16 16" fill="none" xmlns="http://www.w3.org/2000/svg">
<path d="M14.8356 6.9999H1.16895C0.902279 6.9999 0.668945 6.76656 0.668945 6.4999C0.668945 6.23323 0.902279 5.9999 1.16895 5.9999H13.5023L10.7023 3.53323C10.5023 3.33323 10.4689 3.03323 10.6689 2.83323C10.8689 2.63323 11.1689 2.5999 11.3689 2.7999L15.1689 6.13323C15.3689 6.2999 15.4023 6.63323 15.2023 6.83323C15.1356 6.93323 15.0023 6.9999 14.8356 6.9999ZM4.96895 13.3332C4.83561 13.3332 4.73561 13.2999 4.63561 13.1999L0.835612 9.86656C0.668945 9.73323 0.635612 9.4999 0.702279 9.33323C0.768945 9.13323 0.968945 8.9999 1.16895 8.9999H14.8356C15.1023 8.9999 15.3356 9.23323 15.3356 9.4999C15.3356 9.76656 15.1023 9.9999 14.8356 9.9999H2.50228L5.30228 12.4666C5.50228 12.6666 5.53561 12.9666 5.33561 13.1666C5.26895 13.2666 5.13561 13.3332 4.96895 13.3332Z" fill="#8E8E8E"/>
</svg>
