<svg width="26" height="26" fill="none" xmlns="http://www.w3.org/2000/svg"><g clip-path="url(#a)"><path d="M0 13a13 13 0 1 0 26 0 13 13 0 0 0-26 0Z" fill="#fff"/><path fill-rule="evenodd" clip-rule="evenodd" d="M19.97 7.681h-4.9v.002a.296.296 0 0 0-.21.504l1.753 1.751-2.753 2.995-1.191-1.218-.025-.026a1.358 1.358 0 0 0-1.92.026l-5.07 5.205a1.181 1.181 0 1 0 1.693 1.649h.001l4.35-4.467 1.213 1.243a1.358 1.358 0 0 0 1.922.023l.05-.052 3.403-3.705 1.476 1.475a.295.295 0 0 0 .453-.045.296.296 0 0 0 .05-.163v-4.9a.297.297 0 0 0-.295-.297Z" fill="#00D77C"/></g><defs><clipPath id="a"><path fill="#fff" d="M0 0h26v26H0z"/></clipPath></defs></svg>