<svg xmlns="http://www.w3.org/2000/svg" width="26" height="26" viewBox="0 0 26 26" fill="none">
  <g clip-path="url(#clip0_191_2919)">
    <path d="M0 13C0 16.4478 1.36964 19.7544 3.80761 22.1924C6.24558 24.6304 9.55219 26 13 26C16.4478 26 19.7544 24.6304 22.1924 22.1924C24.6304 19.7544 26 16.4478 26 13C26 9.55219 24.6304 6.24558 22.1924 3.80761C19.7544 1.36964 16.4478 0 13 0C9.55219 0 6.24558 1.36964 3.80761 3.80761C1.36964 6.24558 0 9.55219 0 13Z" fill="#171717"/>
    <path fill-rule="evenodd" clip-rule="evenodd" d="M19.9696 7.68146H15.0702V7.68308C15.0119 7.68321 14.9549 7.70056 14.9065 7.73296C14.858 7.76537 14.8202 7.81138 14.7978 7.86521C14.7754 7.91904 14.7694 7.97829 14.7806 8.03551C14.7918 8.09274 14.8196 8.14538 14.8606 8.18683L16.6128 9.93848L13.8597 12.9335L12.6685 11.7147L12.6442 11.6887C12.386 11.4375 12.0386 11.2992 11.6784 11.304C11.3182 11.3089 10.9747 11.4566 10.7234 11.7147L5.65342 16.9196C5.54512 17.0308 5.45978 17.1622 5.40227 17.3064C5.34476 17.4506 5.31621 17.6046 5.31825 17.7598C5.32236 18.0733 5.45082 18.3722 5.67536 18.5909C5.78654 18.6992 5.91796 18.7846 6.06212 18.8421C6.20628 18.8996 6.36036 18.9281 6.51556 18.9261C6.67075 18.9241 6.82403 18.8915 6.96663 18.8302C7.10923 18.7689 7.23837 18.6802 7.34667 18.569H7.34829L11.6984 14.1019L12.9107 15.345C13.0353 15.4728 13.184 15.5748 13.3481 15.6452C13.5122 15.7155 13.6886 15.7528 13.8671 15.7549C14.0457 15.757 14.2229 15.7239 14.3886 15.6575C14.5544 15.591 14.7054 15.4926 14.833 15.3677L14.8834 15.3157L18.2857 11.6108L19.7616 13.0862C19.8029 13.1271 19.8554 13.1549 19.9125 13.1662C19.9696 13.1774 20.0287 13.1715 20.0825 13.1493C20.1362 13.1271 20.1823 13.0896 20.2148 13.0413C20.2473 12.9931 20.2649 12.9364 20.2653 12.8782V7.97721C20.2653 7.81471 20.1321 7.68146 19.9696 7.68146Z" fill="#00A609"/>
  </g>
  <defs>
    <clipPath id="clip0_191_2919">
      <rect width="26" height="26" fill="white"/>
    </clipPath>
  </defs>
</svg>