<svg xmlns="http://www.w3.org/2000/svg" width="91" height="73" fill="none"><path d="m46.456 45.169 11.545-.052 25.01.052-8.938 15.812-8.25 6.94H38.44l8.017-22.752Z" fill="url(#a)"/><path d="m8.762 64.652-.091-.04-.039-.09v-19.34l.039-.091.09-.04.092.04.039.09v19.341l-.04.09-.09.04Z" fill="#525252"/><path d="m8.865 43.106-.038-.039-.026.04-.39.894-1.102 2.984-.87 2.763-.401 1.517-.376 1.557-.454 2.646L5 57.738l.052.636.09.389.17.428.155.272.48.545.298.234.376.207.48.182.48.117.61.09.74.026.557-.039.895-.181.337-.13.441-.26.35-.285.286-.311.22-.363.312-.74.117-.57.052-.532-.013-1.466-.182-1.479-.234-1.18-.298-1.284-.713-2.556-.779-2.425-1.414-3.957Zm73.497-2.883-.04.013-.246.57-.454 1.18-.544 1.61-.532 1.893-.234.999-.337 2.037-.078.96v.466l.052.312.13.311.207.337.182.195.26.181.324.156.337.117.454.078.57.026.468-.04.376-.077.311-.117.506-.337.182-.208.207-.35.13-.363.117-.7.013-.545-.052-.727-.325-1.79-.246-.973-.57-1.906-1.168-3.308Z" fill="#878787"/><path d="m82.297 54.102-.078-.09.026-12.505.052-.026.065.026.026.052v12.453l-.026.064-.065.026Z" fill="#878787"/><path d="m81.13 64.665-.066-.065v-7.03l.065-.078.065.078v7.03l-.065.065Z" fill="#525252"/><path d="m83.348 59.165-.04.402-.103.376-.169.338-.22.31-.26.273-.31.22-.351.17-.363.09-.415.04-.403-.04-.376-.09-.337-.17-.324-.22-.26-.272-.22-.311-.169-.338-.104-.376-.026-.402.026-.415.104-.363.169-.35.22-.312.26-.26.324-.233.337-.155.376-.104.403-.039.415.039.363.104.35.155.311.234.26.26.22.31.169.35.104.364.039.415Z" fill="#878787"/><path d="m56.03 5.865-.04.623-.116.57-.194.559-.26.518-.324.48-.39.441-.427.377-.48.324-.52.26-.557.194-.584.117-.61.039-.622-.04-.584-.116-.557-.195-.52-.26-.48-.323-.427-.377-.39-.44-.31-.48-.273-.52-.182-.557-.13-.571-.038-.623.039-.622.13-.584.18-.545.273-.532.312-.48.389-.428.428-.376.48-.324.519-.26.557-.194.584-.117.623-.052.61.052.583.117.558.195.519.259.48.324.428.376.389.428.324.48.26.532.194.545.117.584.039.622Z" fill="#FFDB80"/><path d="M54.084 8.317h-4.475l-.143-.441-.181-.415-.26-.376-.298-.338-.35-.285-.39-.233-.428-.17-.44-.103-.494-.039-.48.04-.454.103-.415.169-.402.233-.337.285-.311.338-.247.376-.194.415-.13.44h-1.168l-.467.053-.415.104-.402.194-.35.247-.298.298-.247.363-.194.39-.117.414-.039.467.039.454.117.428.194.39.247.35.298.298.35.26.39.181.427.117.467.039h11.597l.467-.04.415-.116.39-.181.362-.26.299-.298.246-.35.182-.39.117-.428.051-.454-.051-.467-.117-.415-.182-.389-.246-.363-.299-.298-.363-.247-.389-.194-.415-.104-.467-.052Z" fill="#E0E5FA"/><path d="m67.081 65.793-38.317-.026-1.18-.194-.558-.156-.74-.285-.674-.363-.649-.415-.597-.493-.532-.532-.492-.597-.415-.648-.364-.688-.285-.726-.156-.558-.194-1.18-.026-24.322.09-1.22.286-1.14.285-.74.364-.675.415-.648.492-.597.532-.532.597-.493.649-.415.687-.363.727-.285.557-.169 1.18-.182 38.318-.026.623.026 1.18.195.558.156.74.285.674.363.649.415.596.493.532.532.493.597.415.648.363.675.286.74.168.557.182 1.18.026 24.322-.091 1.22-.285 1.14-.286.727-.35.688-.428.648-.493.597-.532.532-.596.493-.649.415-.674.363-.74.285-1.141.286-1.22.09Z" fill="#2E2E2E"/><path d="M67.068 65.793H28.154l-.648-.026-.623-.103-.584-.143-.584-.22-.544-.26-.52-.311-.48-.364-.44-.402-.402-.454-.364-.467-.31-.518-.26-.558-.22-.571-.143-.584-.104-.622-.026-.649V34.52l.026-.648.104-.623.142-.584.22-.57.26-.558.311-.52.364-.466.402-.454.44-.402.48-.363.52-.312.544-.26.584-.22.584-.142.623-.104.648-.026h38.914l.649.026.61.104.596.142.571.22.558.26.506.312.48.363.454.402.402.454.363.467.311.519.26.557.207.571.156.584.09.623.04.648v25.022l-.04.649-.09.622-.156.584-.207.57-.26.559-.311.518-.363.467-.402.454-.454.403-.467.363-.52.311-.557.26-.57.22-.584.143-.623.103-.649.026Z" fill="#7E7E7E"/><path d="M21.902 38.112H73.32v4.93H21.9v-4.93Z" fill="#B0B0B0"/><path d="M27.532 51.511h-1.609l-.233-.025-.208-.091-.182-.143-.142-.181-.091-.208-.026-.233v-2.893l.026-.247.09-.207.143-.182.182-.142.208-.091.233-.026h1.609l.233.026.22.09.17.143.142.182.09.207.04.247v2.892l-.04.247-.09.195-.143.181-.169.143-.207.09-.246.026Z" fill="url(#b)"/><path d="M33.122 51.511h-1.608l-.234-.025-.22-.091-.182-.143-.13-.181-.09-.208-.04-.233v-2.893l.04-.247.09-.207.13-.182.182-.142.22-.091.234-.026h1.608l.234.026.207.09.182.143.143.182.09.207.026.247v2.892l-.038.247-.078.195-.143.181-.182.143-.207.09-.234.026Z" fill="url(#c)"/><path d="M38.7 51.511h-1.608l-.234-.025-.207-.091-.182-.143-.143-.181-.09-.208-.026-.233v-2.893l.025-.247.091-.207.143-.182.181-.142.208-.091.234-.026H38.7l.233.026.221.09.182.143.13.182.09.207.039.247v2.892l-.039.247-.09.195-.143.181-.169.143-.208.09-.246.026Z" fill="url(#d)"/><path d="M27.532 51.174h-1.609l-.233-.026-.208-.09-.182-.143-.142-.182-.091-.207-.026-.234v-2.555l.026-.247.09-.207.143-.182.182-.142.208-.091.233-.026h1.609l.233.026.22.09.17.143.142.182.09.207.04.247v2.555l-.04.247-.09.194-.143.182-.169.142-.207.091-.246.026Zm5.59 0h-1.608l-.234-.026-.22-.09-.182-.143-.13-.182-.09-.207-.04-.234v-2.555l.04-.247.09-.207.13-.182.182-.142.22-.091.234-.026h1.608l.234.026.207.09.182.143.143.182.09.207.026.247v2.555l-.038.247-.078.194-.143.182-.182.142-.207.091-.234.026Zm5.578 0h-1.596l-.246-.026-.207-.09-.182-.143-.143-.182-.09-.207-.026-.234v-2.555l.025-.247.091-.207.143-.182.181-.142.208-.091.247-.026H38.7l.246.026.208.09.182.143.13.182.09.207.039.247v2.555l-.039.247-.09.194-.13.182-.182.142-.208.091-.246.026Z" fill="#fff"/><path d="M67.626 51.654H57.353l-.26.026-.207.091-.208.143-.155.181-.117.22-.065.26-.908 6.836.013.415.065.195.155.246.208.208.35.155 10.494.014.247-.026.22-.091.195-.143.155-.194.117-.208.065-.272.92-7.044-.09-.39-.156-.259-.207-.194-.169-.09-.389-.079Z" fill="url(#e)"/><path d="M67.626 51.654H57.353l-.26.026-.22.078-.195.143-.155.168-.117.208-.065.246-.908 6.408.013.39.065.181.155.233.208.195.35.143 10.494.026.247-.04.22-.077.195-.143.155-.168.117-.208.065-.246.92-6.616-.09-.363-.156-.233-.376-.286-.389-.065Z" fill="#fff"/><path d="M58.883 60.099h.895l1.129-8.445h-.895L58.883 60.1Z" fill="url(#f)"/><path d="M63.177 60.099h.908l1.129-8.445h-.895L63.177 60.1Z" fill="url(#g)"/><path d="m61.31 69.464-38.319-.026-1.18-.194-.558-.169-.74-.285-.674-.35-.648-.428-.597-.48-.545-.545-.48-.597-.428-.636-.35-.687-.285-.726-.169-.571-.181-1.18-.026-24.31.09-1.218.286-1.155.285-.726.35-.688.428-.635.48-.597.545-.545.597-.48.648-.428.675-.35.74-.285 1.14-.286 1.22-.104 38.318.026 1.18.195.558.169.726.285.688.35.648.428.597.48.532.545.493.597.415.635.363.688.285.726.156.57.195 1.181.026 24.309-.104 1.22-.273 1.154-.285.726-.363.688-.415.635-.493.597-.532.545-.597.48-.648.428-.688.35-.726.285-1.142.285-1.219.104Z" fill="#505050"/><path d="M61.283 69.464H22.382l-.649-.039-.622-.09-.597-.156-.57-.208-.546-.272-.518-.311-.48-.35-.441-.416-.402-.44-.364-.48-.311-.52-.272-.544-.208-.571-.156-.597-.09-.623-.026-.648V38.19l.026-.649.09-.622.156-.597.208-.57.272-.545.311-.52.363-.48.403-.44.44-.402.48-.364.52-.31.544-.273.571-.208.597-.156.622-.09.649-.04h38.901l.649.04.622.09.597.156.57.208.559.272.506.311.48.364.453.402.403.44.35.48.311.52.273.544.207.571.156.597.09.622.04.649v25.009l-.04.648-.09.623-.156.597-.207.57-.273.558-.311.506-.35.48-.403.441-.453.415-.48.35-.506.312-.558.272-.57.208-.598.156-.622.09-.649.04Z" fill="#8E8E8E"/><path d="M16.13 41.783h51.419v4.93h-51.42v-4.93Z" fill="#B0B0B0"/><path d="M21.76 55.182h-1.61l-.233-.025-.207-.091-.182-.143-.142-.181-.091-.208-.026-.233v-2.906l.026-.234.09-.207.143-.182.182-.142.207-.091.234-.026h1.608l.234.026.207.09.182.143.143.182.09.207.026.234V54.3l-.026.234-.09.208-.143.181-.182.143-.207.09-.234.026Z" fill="url(#h)"/><path d="M27.337 55.182H25.74l-.246-.025-.208-.091-.181-.143-.143-.181-.078-.208-.039-.233v-2.906l.04-.234.077-.207.143-.182.181-.142.208-.091.246-.026h1.596l.246.026.208.09.181.143.13.182.09.207.04.234V54.3l-.04.234-.077.208-.143.181-.181.143-.208.078-.246.038Z" fill="url(#i)"/><path d="M32.928 55.182h-1.609l-.233-.025-.208-.091-.182-.143-.142-.181-.091-.208-.026-.233v-2.906l.026-.234.09-.207.143-.182.182-.142.208-.091.233-.026h1.609l.233.026.208.09.181.143.143.182.09.207.027.234V54.3l-.026.234-.091.208-.143.181-.181.143-.208.078-.233.038Z" fill="url(#j)"/><path d="M21.76 54.845h-1.61l-.233-.026-.207-.09-.182-.143-.142-.182-.091-.207-.026-.234v-2.568l.026-.234.09-.207.143-.182.182-.142.207-.091.234-.026h1.608l.234.026.207.09.182.143.143.182.09.207.026.234v2.568l-.026.234-.09.207-.143.182-.182.142-.207.091-.234.026Zm5.577 0H25.74l-.246-.026-.208-.09-.181-.143-.13-.182-.09-.207-.04-.234v-2.568l.04-.234.09-.207.13-.182.181-.142.208-.091.246-.026h1.596l.246.026.208.09.181.143.143.182.078.207.039.234v2.568l-.04.234-.077.207-.143.182-.181.142-.208.078-.246.04Zm5.591 0h-1.609l-.233-.026-.208-.09-.182-.143-.142-.182-.091-.207-.026-.234v-2.568l.026-.234.09-.207.143-.182.182-.142.208-.091.233-.026h1.609l.233.026.208.09.181.143.143.182.09.207.027.234v2.568l-.026.234-.091.207-.143.182-.181.142-.208.091-.233.026Z" fill="#CCC"/><path d="M61.854 55.312H51.568l-.247.039-.22.078-.195.155-.156.182-.117.22-.064.26-.921 7.044.09.389.156.26.208.194.168.104.39.077h10.273l.246-.039.22-.077.208-.156.156-.182.117-.22.065-.26.92-7.043-.09-.39-.156-.259-.207-.194-.169-.104-.39-.078Z" fill="url(#k)"/><path d="M61.854 55.312H51.568l-.247.039-.22.078-.195.13-.156.181-.117.208-.064.246-.921 6.603.09.376.156.233.376.273.39.078h10.273l.246-.026.22-.091.208-.13.156-.181.117-.208.065-.233.92-6.616-.09-.363-.156-.247-.207-.181-.169-.091-.39-.078Z" fill="#CCC"/><path d="M53.098 63.757h.895l1.142-8.445h-.895l-1.142 8.445Zm4.307 0h.895l1.142-8.445h-.895l-1.142 8.445Z" fill="#7B7B7B"/><path d="m30.826 39.124-.103-.207-.247-.156h-.194l-.208.052-.467.35-.143-.207-.064.207-.04.415.04.791.064.364.065.142.117.091.493.208.389.013.35-.104.143-.09.104-.17.039-.181-.013-.48-.325-1.038Z" fill="url(#l)"/><path d="m29.373 39.915.04.363.077.234.117.22.207.195.156.09.506.091.207-.025.182-.091.143-.143.09-.233.04-.286-.052-.402.09.324.052.506-.13.338-.116.13-.195.09-.298.078h-.298l-.234-.065-.181-.117-.286-.35-.078-.233-.065-.35.026-.364Z" fill="#fff"/><path d="m28.932 27.852-.142.155-.13.325-.143.531-.142.818-.597.557-1.83 1.388-.83.753-.233.272-.285.493-.078.247v.246l.065.233.194.377.792 1.037 1.621 1.764 2.14 2.115 1.57-.091-3.14-5.253 1.324-.7 2.763-1.752.065-.104.09-.324.143-.87.195-2.178-3.412-.04Z" fill="url(#m)"/><path d="m32.681 39.11.117-.207.233-.155.195-.013.181.052.468.363.13-.208.064.208.039.415-.039.791-.065.363-.065.143-.103.104-.493.194-.364.013-.337-.09-.143-.104-.142-.35.013-.48.311-1.038Z" fill="url(#n)"/><path d="m34.095 39.902-.039.364-.065.233-.13.22-.194.195-.156.09-.48.092-.207-.026-.169-.091-.13-.143-.103-.233-.026-.286.039-.415-.091.325-.039.519.117.337.117.13.194.103.286.065h.285l.22-.065.182-.117.272-.35.078-.233.065-.363-.026-.35Z" fill="#fff"/><path d="m34.575 27.852.13.155.142.325.143.531.143.818.596.557 1.83 1.388.83.753.233.272.285.493.078.247v.246l-.065.233-.207.377-.791 1.037-1.622 1.777-2.166 2.115-1.57-.091 3.178-5.266-1.323-.7-2.763-1.752-.065-.104-.09-.324-.143-.87-.195-2.178 3.412-.04Z" fill="url(#o)"/><path d="m30.787 19.706-.635.039-.87.155-.427.156-.493.311-.195.208-.22.389-.195.48-.285 1.012-.22 1.18 1.504-.078-.506 6.162 6.94-.052-.415-6.356 1.375-.234.013-.596-.026-.428-.091-.441-.156-.48-.142-.299-.428-.558-.286-.22-.35-.195-.428-.142-.752-.052-.844.039-.09.311-.234.376-.311.234-.364.052-.285-.065-.194-.117-.156-.156-.182-.35-.052-.285Z" fill="url(#p)"/><path d="m30.995 18.577-.415 1.855.052.169.519.194.622.078.338-.039.31-.104.442-.233.078-.104v-.117l-.675-1.945-.169-.065-.96.168-.09.052-.052.091Z" fill="url(#q)"/><path d="m33.395 17.838.065-.208-.013-.181-.13-.04-.117.079-.013-.714-.065-.57-.116-.221-.169-.195-.285-.181-.506-.143-.363-.026-.39.039-.285.09-.233.13-.286.299-.117.246-.052 1.246-.181-.065-.065.026-.026.077.039.221.117.285.039.454.09.117.13.013.117.337.195.299.246.26.246.194.273.142.233.04.234-.04.272-.142.247-.195.22-.26.182-.298.13-.337.13-.013.064-.039.065-.532.078-.194Z" fill="url(#r)"/><path d="m32.473 15.205-.207-.325-.311-.181-.22-.04-.3.027-.375.104-.234.116-.454.312-.324.065-.286.194-.168.324-.013.208.052.194.104.234.337.428.039.104-.013.35.142.35.052.35.117-.466.039-.403-.065-.415.039-.052.402-.077.623.026.57-.091.377-.182.13-.194.077.324.156.337.298.273.052.13.09.752.066-.506.22-.649.052-.272-.013-.52-.156-.246-.142-.402-.091-.116-.143-.078-.194-.026-.325.039Z" fill="url(#s)"/><path d="m25.495 29.707-.09.492-.507.688-.064.285.142.364.091.116.065.026.09-.104.13.078.065-.052.091.078.143-.13.13.078.103-.155.091-.441.013.337.039.052.052.013.142-.208.065-.194.052-.273-.039-.532.052-.44-.09-.104-.13-.04-.636.066Z" fill="url(#t)"/><path d="m28.57 20.212.233.661.116.48.078.519.026.558-.039.389-.09.363-.143.376-1.025 2.231-.506 1.31-.74 3.049-1.218.013.246-2.024.298-1.673.454-1.686.454-1.427.545-1.414.311-.636.312-.493.246-.298.22-.182.221-.116Z" fill="url(#u)"/><path d="m38.155 29.707.09.492.52.688.052.285-.13.364-.09.116-.066.026-.09-.104-.13.078-.078-.052-.078.078-.143-.13-.142.078-.104-.155-.09-.441-.014.337-.026.052-.065.013-.142-.208-.065-.194-.04-.273.04-.532-.052-.44.09-.104.13-.04.623.066Z" fill="url(#v)"/><path d="m35.159 20.147-.286.791-.181.804-.04.454.053.765.194.597 1.025 2.231.506 1.31.752 3.049 1.22.013-.247-2.024-.195-1.128-.246-1.051-.324-1.18-.441-1.414-.532-1.414-.299-.649-.298-.506-.233-.311-.22-.208-.208-.13Z" fill="url(#w)"/><defs><linearGradient id="a" x1="76.546" y1="45.584" x2="60.725" y2="67.921" gradientUnits="userSpaceOnUse"><stop stop-color="gray" stop-opacity="0"/><stop offset="1" stop-color="#787878"/></linearGradient><linearGradient id="b" x1="927.411" y1="2234.34" x2="807.421" y2="2147.35" gradientUnits="userSpaceOnUse"><stop offset=".15" stop-color="#AFC5D8"/><stop offset="1" stop-color="#DFE8F9"/></linearGradient><linearGradient id="c" x1="1078.76" y1="2234.34" x2="958.765" y2="2147.35" gradientUnits="userSpaceOnUse"><stop offset=".15" stop-color="#AFC5D8"/><stop offset="1" stop-color="#DFE8F9"/></linearGradient><linearGradient id="d" x1="1230.1" y1="2234.34" x2="1110.11" y2="2147.35" gradientUnits="userSpaceOnUse"><stop offset=".15" stop-color="#AFC5D8"/><stop offset="1" stop-color="#DFE8F9"/></linearGradient><linearGradient id="e" x1="6990.14" y1="4935.83" x2="6990.14" y2="4312.12" gradientUnits="userSpaceOnUse"><stop offset=".15" stop-color="#AFC5D8"/><stop offset="1" stop-color="#DFE8F9"/></linearGradient><linearGradient id="f" x1="1115.38" y1="4394.18" x2="1044.39" y2="4384.36" gradientUnits="userSpaceOnUse"><stop offset=".15" stop-color="#AFC5D8"/><stop offset="1" stop-color="#DFE8F9"/></linearGradient><linearGradient id="g" x1="1194.01" y1="4394.18" x2="1122.59" y2="4384.23" gradientUnits="userSpaceOnUse"><stop offset=".15" stop-color="#AFC5D8"/><stop offset="1" stop-color="#DFE8F9"/></linearGradient><linearGradient id="h" x1="768.025" y1="2369.95" x2="648.179" y2="2283.4" gradientUnits="userSpaceOnUse"><stop offset=".15" stop-color="#AFC5D8"/><stop offset="1" stop-color="#DFE8F9"/></linearGradient><linearGradient id="i" x1="922.249" y1="2369.95" x2="802.259" y2="2282.96" gradientUnits="userSpaceOnUse"><stop offset=".15" stop-color="#AFC5D8"/><stop offset="1" stop-color="#DFE8F9"/></linearGradient><linearGradient id="j" x1="1069.59" y1="2369.95" x2="949.748" y2="2283.4" gradientUnits="userSpaceOnUse"><stop offset=".15" stop-color="#CACACA"/><stop offset="1" stop-color="#FCFCFC"/></linearGradient><linearGradient id="k" x1="6402.66" y1="5200.89" x2="6402.66" y2="4576.28" gradientUnits="userSpaceOnUse"><stop offset=".15" stop-color="#AFC5D8"/><stop offset="1" stop-color="#DFE8F9"/></linearGradient><linearGradient id="l" x1="-5841.54" y1="992.943" x2="-5841.54" y2="947.243" gradientUnits="userSpaceOnUse"><stop stop-color="#4673BC"/><stop offset=".652" stop-color="#6A94E0"/></linearGradient><linearGradient id="m" x1="2105.98" y1="4300.15" x2="2105.98" y2="3314.05" gradientUnits="userSpaceOnUse"><stop stop-color="#515151"/><stop offset=".652" stop-color="#2D3C65"/></linearGradient><linearGradient id="n" x1="-3187.18" y1="997.854" x2="-3187.18" y2="951.643" gradientUnits="userSpaceOnUse"><stop stop-color="#4673BC"/><stop offset=".652" stop-color="#6A94E0"/></linearGradient><linearGradient id="o" x1="-8975.95" y1="4305.94" x2="-8975.95" y2="3317.81" gradientUnits="userSpaceOnUse"><stop stop-color="#18264B"/><stop offset=".652" stop-color="#2D3C65"/></linearGradient><linearGradient id="p" x1="2623.93" y1="3084.79" x2="2623.93" y2="2305.55" gradientUnits="userSpaceOnUse"><stop stop-color="#FAD96E"/><stop offset="1" stop-color="#FFB32C"/></linearGradient><linearGradient id="q" x1="719.431" y1="582.931" x2="719.431" y2="635.536" gradientUnits="userSpaceOnUse"><stop stop-color="#F4AE98"/><stop offset="1" stop-color="#FAD1BB"/></linearGradient><linearGradient id="r" x1="1070.53" y1="958.429" x2="980.573" y2="958.429" gradientUnits="userSpaceOnUse"><stop stop-color="#F4B9A4"/><stop offset=".652" stop-color="#FAD1BB"/></linearGradient><linearGradient id="s" x1="1117.54" y1="692.472" x2="1238.66" y2="692.472" gradientUnits="userSpaceOnUse"><stop stop-color="#4F5C7C"/><stop offset="1" stop-color="#274168"/></linearGradient><linearGradient id="t" x1="395.513" y1="649.221" x2="395.513" y2="681.293" gradientUnits="userSpaceOnUse"><stop stop-color="#F4B9A4"/><stop offset=".652" stop-color="#FAD1BB"/></linearGradient><linearGradient id="u" x1="988.955" y1="3087.43" x2="988.955" y2="2324.51" gradientUnits="userSpaceOnUse"><stop stop-color="#FAD96E"/><stop offset="1" stop-color="#FFA91F"/></linearGradient><linearGradient id="v" x1="-1585.59" y1="649.221" x2="-1585.59" y2="681.293" gradientUnits="userSpaceOnUse"><stop stop-color="#F4B9A4"/><stop offset=".652" stop-color="#FAD1BB"/></linearGradient><linearGradient id="w" x1="-3964.05" y1="3107.36" x2="-3964.05" y2="2334.08" gradientUnits="userSpaceOnUse"><stop stop-color="#FAD96E"/><stop offset="1" stop-color="#FFA91F"/></linearGradient></defs></svg>