<svg xmlns="http://www.w3.org/2000/svg" width="91" height="73" viewBox="0 0 91 73" fill="none">
  <path d="M46.4565 45.1688L58.0011 45.1169L83.0101 45.1688L74.0728 60.981L65.8229 67.9208H38.4402L46.4565 45.1688Z" fill="url(#paint0_linear_46_1659)"/>
  <path d="M8.76179 64.6517L8.67099 64.6128L8.63208 64.522V45.1816L8.67099 45.0908L8.76179 45.0519L8.85259 45.0908L8.89151 45.1816V64.522L8.85259 64.6128L8.76179 64.6517Z" fill="#525252"/>
  <path d="M8.86549 43.1063L8.82658 43.0674L8.80064 43.1063L8.41149 44.0013L7.30892 46.9848L6.43983 49.7477L6.03772 51.2653L5.66154 52.8219L5.20754 55.4681L5 57.7381L5.05189 58.3737L5.14269 58.7628L5.31132 59.1909L5.46697 59.4633L5.94692 60.0081L6.24526 60.2416L6.62143 60.4491L7.10137 60.6307L7.58132 60.7475L8.19098 60.8383L8.93035 60.8642L9.48812 60.8253L10.3832 60.6437L10.7204 60.514L11.1614 60.2546L11.5117 59.9692L11.797 59.6579L12.0176 59.2947L12.3289 58.5553L12.4456 57.9845L12.4975 57.4527L12.4845 55.9869L12.3029 54.5082L12.0694 53.3278L11.7711 52.0436L11.0577 49.4882L10.2794 47.0626L8.86549 43.1063Z" fill="#878787"/>
  <path d="M82.3618 40.2228L82.3229 40.2358L82.0764 40.8065L81.6224 41.9869L81.0776 43.5954L80.5458 45.4892L80.3123 46.488L79.9751 48.5245L79.8972 49.4844V49.9514L79.9491 50.2627L80.0788 50.574L80.2864 50.9113L80.468 51.1058L80.7274 51.2874L81.0517 51.4431L81.3889 51.5598L81.8429 51.6377L82.4137 51.6636L82.8807 51.6247L83.2568 51.5469L83.5681 51.4301L84.074 51.0929L84.2556 50.8853L84.4632 50.5351L84.5929 50.1719L84.7096 49.4714L84.7226 48.9266L84.6707 48.2002L84.3464 46.4102L84.1 45.4373L83.5292 43.5305L82.3618 40.2228Z" fill="#878787"/>
  <path d="M82.2968 54.1023L82.219 54.0115L82.2449 41.507L82.2968 41.4811L82.3617 41.507L82.3876 41.5589V54.0115L82.3617 54.0764L82.2968 54.1023Z" fill="#878787"/>
  <path d="M81.1293 64.665L81.0645 64.6002V57.5696L81.1293 57.4918L81.1942 57.5696V64.6002L81.1293 64.665Z" fill="#525252"/>
  <path d="M83.3476 59.1651L83.3087 59.5672L83.205 59.9433L83.0363 60.2806L82.8158 60.5919L82.5564 60.8643L82.2451 61.0848L81.8948 61.2535L81.5316 61.3443L81.1166 61.3832L80.7144 61.3443L80.3383 61.2535L80.001 61.0848L79.6767 60.8643L79.4173 60.5919L79.1968 60.2806L79.0282 59.9433L78.9244 59.5672L78.8984 59.1651L78.9244 58.75L79.0282 58.3868L79.1968 58.0365L79.4173 57.7252L79.6767 57.4658L80.001 57.2323L80.3383 57.0766L80.7144 56.9729L81.1166 56.934L81.5316 56.9729L81.8948 57.0766L82.2451 57.2323L82.5564 57.4658L82.8158 57.7252L83.0363 58.0365L83.205 58.3868L83.3087 58.75L83.3476 59.1651Z" fill="#878787"/>
  <path d="M56.0298 5.86538L55.9909 6.48801L55.8742 7.05876L55.6796 7.61653L55.4201 8.13539L55.0959 8.61533L54.7067 9.05636L54.2787 9.43253L53.7987 9.75682L53.2799 10.0162L52.7221 10.2108L52.1384 10.3276L51.5287 10.3665L50.9061 10.3276L50.3224 10.2108L49.7646 10.0162L49.2457 9.75682L48.7658 9.43253L48.3377 9.05636L47.9486 8.61533L47.6373 8.13539L47.3649 7.61653L47.1833 7.05876L47.0536 6.48801L47.0146 5.86538L47.0536 5.24275L47.1833 4.65904L47.3649 4.11424L47.6373 3.58241L47.9486 3.10246L48.3377 2.67441L48.7658 2.29823L49.2457 1.97395L49.7646 1.71452L50.3224 1.51995L50.9061 1.4032L51.5287 1.35132L52.1384 1.4032L52.7221 1.51995L53.2799 1.71452L53.7987 1.97395L54.2787 2.29823L54.7067 2.67441L55.0959 3.10246L55.4201 3.58241L55.6796 4.11424L55.8742 4.65904L55.9909 5.24275L56.0298 5.86538Z" fill="#FFDB80"/>
  <path d="M54.0839 8.31695H49.6088L49.4661 7.87592L49.2845 7.46084L49.0251 7.08467L48.7267 6.74741L48.3765 6.46204L47.9873 6.22855L47.5593 6.05992L47.1182 5.95615L46.6253 5.91724L46.1454 5.95615L45.6914 6.05992L45.2763 6.22855L44.8742 6.46204L44.5369 6.74741L44.2256 7.08467L43.9792 7.46084L43.7846 7.87592L43.6549 8.31695H42.4874L42.0205 8.36884L41.6054 8.47261L41.2033 8.66718L40.853 8.91364L40.5547 9.21198L40.3082 9.57519L40.1137 9.96433L39.9969 10.3794L39.958 10.8464L39.9969 11.3004L40.1137 11.7284L40.3082 12.1176L40.5547 12.4678L40.853 12.7662L41.2033 13.0256L41.5924 13.2072L42.0205 13.3239L42.4874 13.3628H54.0839L54.5509 13.3239L54.966 13.2072L55.3551 13.0256L55.7183 12.7662L56.0167 12.4678L56.2631 12.1176L56.4447 11.7284L56.5615 11.3004L56.6133 10.8464L56.5615 10.3794L56.4447 9.96433L56.2631 9.57519L56.0167 9.21198L55.7183 8.91364L55.3551 8.66718L54.966 8.47261L54.5509 8.36884L54.0839 8.31695Z" fill="#E0E5FA"/>
  <path d="M67.0813 65.7934L28.7636 65.7674L27.5832 65.5729L27.0255 65.4172L26.2861 65.1318L25.6116 64.7686L24.963 64.3536L24.3663 63.8606L23.8345 63.3288L23.3416 62.7321L22.9265 62.0835L22.5633 61.3961L22.2779 60.6697L22.1222 60.1119L21.9277 58.9315L21.9017 34.61L21.9925 33.3907L22.2779 32.2492L22.5633 31.5098L22.9265 30.8353L23.3416 30.1868L23.8345 29.5901L24.3663 29.0582L24.963 28.5653L25.6116 28.1502L26.2991 27.787L27.0255 27.5017L27.5832 27.333L28.7636 27.1514L67.0813 27.1255L67.7039 27.1514L68.8843 27.346L69.4421 27.5017L70.1815 27.787L70.856 28.1502L71.5046 28.5653L72.1012 29.0582L72.6331 29.5901L73.126 30.1868L73.5411 30.8353L73.9043 31.5098L74.1897 32.2492L74.3583 32.807L74.5399 33.9874L74.5658 58.3089L74.475 59.5282L74.1897 60.6697L73.9043 61.3961L73.5541 62.0835L73.126 62.7321L72.6331 63.3288L72.1012 63.8606L71.5046 64.3536L70.856 64.7686L70.1815 65.1318L69.4421 65.4172L68.3006 65.7026L67.0813 65.7934Z" fill="#2E2E2E"/>
  <path d="M67.0684 65.7934H28.1541L27.5055 65.7674L26.8829 65.6637L26.2992 65.521L25.7155 65.3005L25.1707 65.041L24.6518 64.7297L24.1719 64.3665L23.7308 63.9644L23.3287 63.5104L22.9655 63.0434L22.6542 62.5246L22.3948 61.9668L22.1743 61.396L22.0316 60.8123L21.9278 60.1897L21.9019 59.5411V34.5192L21.9278 33.8706L22.0316 33.248L22.1743 32.6643L22.3948 32.0935L22.6542 31.5358L22.9655 31.0169L23.3287 30.5499L23.7308 30.0959L24.1719 29.6938L24.6518 29.3306L25.1707 29.0193L25.7155 28.7599L26.2992 28.5394L26.8829 28.3967L27.5055 28.2929L28.1541 28.267H67.0684L67.717 28.2929L68.3267 28.3967L68.9234 28.5394L69.4941 28.7599L70.0519 29.0193L70.5578 29.3306L71.0377 29.6938L71.4917 30.0959L71.8938 30.5499L72.257 31.0169L72.5683 31.5358L72.8278 32.0935L73.0353 32.6643L73.191 33.248L73.2818 33.8706L73.3207 34.5192V59.5411L73.2818 60.1897L73.191 60.8123L73.0353 61.396L72.8278 61.9668L72.5683 62.5246L72.257 63.0434L71.8938 63.5104L71.4917 63.9644L71.0377 64.3665L70.5707 64.7297L70.0519 65.041L69.4941 65.3005L68.9234 65.521L68.3396 65.6637L67.717 65.7674L67.0684 65.7934Z" fill="#7E7E7E"/>
  <path d="M21.9019 38.1123H73.3207V43.0415H21.9019V38.1123Z" fill="#B0B0B0"/>
  <path d="M27.5315 51.5115H25.9231L25.6896 51.4856L25.482 51.3948L25.3004 51.2521L25.1578 51.0705L25.067 50.8629L25.041 50.6295V47.7368L25.067 47.4904L25.1578 47.2828L25.3004 47.1012L25.482 46.9585L25.6896 46.8677L25.9231 46.8418H27.5315L27.765 46.8677L27.9855 46.9585L28.1542 47.1012L28.2969 47.2828L28.3876 47.4904L28.4266 47.7368V50.6295L28.3876 50.8759L28.2969 51.0705L28.1542 51.2521L27.9855 51.3948L27.778 51.4856L27.5315 51.5115Z" fill="url(#paint1_linear_46_1659)"/>
  <path d="M33.1224 51.5115H31.5139L31.2804 51.4856L31.0599 51.3948L30.8783 51.2521L30.7486 51.0705L30.6578 50.8629L30.6189 50.6295V47.7368L30.6578 47.4904L30.7486 47.2828L30.8783 47.1012L31.0599 46.9585L31.2804 46.8677L31.5139 46.8418H33.1224L33.3559 46.8677L33.5634 46.9585L33.745 47.1012L33.8877 47.2828L33.9785 47.4904L34.0044 47.7368V50.6295L33.9655 50.8759L33.8877 51.0705L33.745 51.2521L33.5634 51.3948L33.3559 51.4856L33.1224 51.5115Z" fill="url(#paint2_linear_46_1659)"/>
  <path d="M38.7 51.5115H37.0915L36.858 51.4856L36.6505 51.3948L36.4689 51.2521L36.3262 51.0705L36.2354 50.8629L36.2095 50.6295V47.7368L36.2354 47.4904L36.3262 47.2828L36.4689 47.1012L36.6505 46.9585L36.858 46.8677L37.0915 46.8418H38.7L38.9335 46.8677L39.154 46.9585L39.3356 47.1012L39.4653 47.2828L39.5561 47.4904L39.595 47.7368V50.6295L39.5561 50.8759L39.4653 51.0705L39.3226 51.2521L39.154 51.3948L38.9464 51.4856L38.7 51.5115Z" fill="url(#paint3_linear_46_1659)"/>
  <path d="M27.5315 51.1743H25.9231L25.6896 51.1483L25.482 51.0575L25.3004 50.9148L25.1578 50.7332L25.067 50.5257L25.041 50.2922V47.7368L25.067 47.4904L25.1578 47.2828L25.3004 47.1012L25.482 46.9585L25.6896 46.8677L25.9231 46.8418H27.5315L27.765 46.8677L27.9855 46.9585L28.1542 47.1012L28.2969 47.2828L28.3876 47.4904L28.4266 47.7368V50.2922L28.3876 50.5387L28.2969 50.7332L28.1542 50.9148L27.9855 51.0575L27.778 51.1483L27.5315 51.1743Z" fill="white"/>
  <path d="M33.1224 51.1743H31.5139L31.2804 51.1483L31.0599 51.0575L30.8783 50.9148L30.7486 50.7332L30.6578 50.5257L30.6189 50.2922V47.7368L30.6578 47.4904L30.7486 47.2828L30.8783 47.1012L31.0599 46.9585L31.2804 46.8677L31.5139 46.8418H33.1224L33.3559 46.8677L33.5634 46.9585L33.745 47.1012L33.8877 47.2828L33.9785 47.4904L34.0044 47.7368V50.2922L33.9655 50.5387L33.8877 50.7332L33.745 50.9148L33.5634 51.0575L33.3559 51.1483L33.1224 51.1743Z" fill="white"/>
  <path d="M38.7 51.1743H37.1045L36.858 51.1483L36.6505 51.0575L36.4689 50.9148L36.3262 50.7332L36.2354 50.5257L36.2095 50.2922V47.7368L36.2354 47.4904L36.3262 47.2828L36.4689 47.1012L36.6505 46.9585L36.858 46.8677L37.1045 46.8418H38.7L38.9464 46.8677L39.154 46.9585L39.3356 47.1012L39.4653 47.2828L39.5561 47.4904L39.595 47.7368V50.2922L39.5561 50.5387L39.4653 50.7332L39.3356 50.9148L39.154 51.0575L38.9464 51.1483L38.7 51.1743Z" fill="white"/>
  <path d="M67.6261 51.6543H57.3528L57.0933 51.6802L56.8858 51.771L56.6782 51.9137L56.5226 52.0953L56.4058 52.3158L56.341 52.5753L55.433 59.4112L55.446 59.8263L55.5108 60.0209L55.6665 60.2673L55.874 60.4749L56.2242 60.6305L66.7181 60.6435L66.9646 60.6176L67.1851 60.5268L67.3797 60.3841L67.5353 60.1895L67.6521 59.982L67.7169 59.7096L68.6379 52.6661L68.5471 52.2769L68.3915 52.0175L68.1839 51.8229L68.0153 51.7321L67.6261 51.6543Z" fill="url(#paint4_linear_46_1659)"/>
  <path d="M67.6261 51.6543H57.3528L57.0933 51.6802L56.8728 51.7581L56.6782 51.9008L56.5226 52.0694L56.4058 52.2769L56.341 52.5234L55.433 58.9313L55.446 59.3204L55.5108 59.502L55.6665 59.7355L55.874 59.9301L56.2242 60.0728L66.7181 60.0987L66.9646 60.0598L67.1851 59.982L67.3797 59.8393L67.5353 59.6707L67.6521 59.4631L67.7169 59.2167L68.6379 52.6012L68.5471 52.238L68.3915 52.0045L68.0153 51.7192L67.6261 51.6543Z" fill="white"/>
  <path d="M58.8834 60.0987H59.7785L60.907 51.6543H60.0119L58.8834 60.0987Z" fill="url(#paint5_linear_46_1659)"/>
  <path d="M63.1772 60.0987H64.0852L65.2138 51.6543H64.3187L63.1772 60.0987Z" fill="url(#paint6_linear_46_1659)"/>
  <path d="M61.3091 69.4643L22.9914 69.4384L21.811 69.2438L21.2532 69.0752L20.5139 68.7898L19.8394 68.4396L19.1908 68.0115L18.5941 67.5316L18.0493 66.9868L17.5693 66.3901L17.1413 65.7545L16.7911 65.067L16.5057 64.3406L16.3371 63.7698L16.1555 62.5894L16.1295 38.2809L16.2203 37.0616L16.5057 35.9072L16.7911 35.1808L17.1413 34.4933L17.5693 33.8577L18.0493 33.261L18.5941 32.7162L19.1908 32.2362L19.8394 31.8082L20.5139 31.458L21.2532 31.1726L22.3947 30.8872L23.614 30.7834L61.9317 30.8094L63.1121 31.004L63.6699 31.1726L64.3963 31.458L65.0838 31.8082L65.7323 32.2362L66.329 32.7162L66.8609 33.261L67.3538 33.8577L67.7689 34.4933L68.1321 35.1808L68.4174 35.9072L68.5731 36.4779L68.7677 37.6583L68.7936 61.9668L68.6898 63.1861L68.4174 64.3406L68.1321 65.067L67.7689 65.7545L67.3538 66.3901L66.8609 66.9868L66.329 67.5316L65.7323 68.0115L65.0838 68.4396L64.3963 68.7898L63.6699 69.0752L62.5284 69.3605L61.3091 69.4643Z" fill="#505050"/>
  <path d="M61.2833 69.4642H22.3819L21.7333 69.4253L21.1107 69.3345L20.514 69.1788L19.9432 68.9713L19.3984 68.6989L18.8796 68.3876L18.3996 68.0373L17.9586 67.6222L17.5565 67.1812L17.1933 66.7013L16.882 66.1824L16.6096 65.6376L16.402 65.0669L16.2464 64.4702L16.1556 63.8475L16.1296 63.199V38.19L16.1556 37.5414L16.2464 36.9188L16.402 36.3221L16.6096 35.7514L16.882 35.2066L17.1933 34.6877L17.5565 34.2078L17.9586 33.7668L18.3996 33.3646L18.8796 33.0014L19.3984 32.6901L19.9432 32.4177L20.514 32.2102L21.1107 32.0545L21.7333 31.9637L22.3819 31.9248H61.2833L61.9318 31.9637L62.5545 32.0545L63.1511 32.2102L63.7219 32.4177L64.2797 32.6901L64.7856 33.0014L65.2655 33.3646L65.7195 33.7668L66.1216 34.2078L66.4718 34.6877L66.7832 35.2066L67.0556 35.7514L67.2631 36.3221L67.4188 36.9188L67.5096 37.5414L67.5485 38.19V63.199L67.5096 63.8475L67.4188 64.4702L67.2631 65.0669L67.0556 65.6376L66.7832 66.1954L66.4718 66.7013L66.1216 67.1812L65.7195 67.6222L65.2655 68.0373L64.7856 68.3876L64.2797 68.6989L63.7219 68.9713L63.1511 69.1788L62.5545 69.3345L61.9318 69.4253L61.2833 69.4642Z" fill="#8E8E8E"/>
  <path d="M16.1296 41.783H67.5485V46.7121H16.1296V41.783Z" fill="#B0B0B0"/>
  <path d="M21.7593 55.1825H20.1509L19.9174 55.1566L19.7098 55.0658L19.5282 54.9231L19.3855 54.7415L19.2947 54.534L19.2688 54.3005V51.3949L19.2947 51.1614L19.3855 50.9538L19.5282 50.7722L19.7098 50.6296L19.9174 50.5388L20.1509 50.5128H21.7593L21.9928 50.5388L22.2003 50.6296L22.3819 50.7722L22.5246 50.9538L22.6154 51.1614L22.6414 51.3949V54.3005L22.6154 54.534L22.5246 54.7415L22.3819 54.9231L22.2003 55.0658L21.9928 55.1566L21.7593 55.1825Z" fill="url(#paint7_linear_46_1659)"/>
  <path d="M27.3368 55.1825H25.7413L25.4949 55.1566L25.2873 55.0658L25.1057 54.9231L24.9631 54.7415L24.8852 54.534L24.8463 54.3005V51.3949L24.8852 51.1614L24.9631 50.9538L25.1057 50.7722L25.2873 50.6296L25.4949 50.5388L25.7413 50.5128H27.3368L27.5833 50.5388L27.7908 50.6296L27.9724 50.7722L28.1021 50.9538L28.1929 51.1614L28.2319 51.3949V54.3005L28.1929 54.534L28.1151 54.7415L27.9724 54.9231L27.7908 55.0658L27.5833 55.1436L27.3368 55.1825Z" fill="url(#paint8_linear_46_1659)"/>
  <path d="M32.9275 55.1825H31.3191L31.0856 55.1566L30.878 55.0658L30.6964 54.9231L30.5538 54.7415L30.463 54.534L30.437 54.3005V51.3949L30.463 51.1614L30.5538 50.9538L30.6964 50.7722L30.878 50.6296L31.0856 50.5388L31.3191 50.5128H32.9275L33.161 50.5388L33.3686 50.6296L33.5502 50.7722L33.6928 50.9538L33.7836 51.1614L33.8096 51.3949V54.3005L33.7836 54.534L33.6928 54.7415L33.5502 54.9231L33.3686 55.0658L33.161 55.1436L32.9275 55.1825Z" fill="url(#paint9_linear_46_1659)"/>
  <path d="M21.7593 54.8453H20.1509L19.9174 54.8193L19.7098 54.7285L19.5282 54.5859L19.3855 54.4043L19.2947 54.1967L19.2688 53.9632V51.3949L19.2947 51.1614L19.3855 50.9538L19.5282 50.7722L19.7098 50.6296L19.9174 50.5388L20.1509 50.5128H21.7593L21.9928 50.5388L22.2003 50.6296L22.3819 50.7722L22.5246 50.9538L22.6154 51.1614L22.6414 51.3949V53.9632L22.6154 54.1967L22.5246 54.4043L22.3819 54.5859L22.2003 54.7285L21.9928 54.8193L21.7593 54.8453Z" fill="#CCCCCC"/>
  <path d="M27.3368 54.8453H25.7413L25.4949 54.8193L25.2873 54.7285L25.1057 54.5859L24.976 54.4043L24.8852 54.1967L24.8463 53.9632V51.3949L24.8852 51.1614L24.976 50.9538L25.1057 50.7722L25.2873 50.6296L25.4949 50.5388L25.7413 50.5128H27.3368L27.5833 50.5388L27.7908 50.6296L27.9724 50.7722L28.1151 50.9538L28.1929 51.1614L28.2319 51.3949V53.9632L28.1929 54.1967L28.1151 54.4043L27.9724 54.5859L27.7908 54.7285L27.5833 54.8064L27.3368 54.8453Z" fill="#CCCCCC"/>
  <path d="M32.9275 54.8453H31.3191L31.0856 54.8193L30.878 54.7285L30.6964 54.5859L30.5538 54.4043L30.463 54.1967L30.437 53.9632V51.3949L30.463 51.1614L30.5538 50.9538L30.6964 50.7722L30.878 50.6296L31.0856 50.5388L31.3191 50.5128H32.9275L33.161 50.5388L33.3686 50.6296L33.5502 50.7722L33.6928 50.9538L33.7836 51.1614L33.8096 51.3949V53.9632L33.7836 54.1967L33.6928 54.4043L33.5502 54.5859L33.3686 54.7285L33.161 54.8193L32.9275 54.8453Z" fill="#CCCCCC"/>
  <path d="M61.8538 55.3121H51.5675L51.321 55.351L51.1005 55.4289L50.9059 55.5845L50.7503 55.7661L50.6335 55.9866L50.5687 56.2461L49.6477 63.2896L49.7385 63.6787L49.8942 63.9381L50.1017 64.1327L50.2703 64.2365L50.6595 64.3143H60.9329L61.1793 64.2754L61.3998 64.1976L61.6074 64.0419L61.763 63.8603L61.8798 63.6398L61.9446 63.3804L62.8656 56.3369L62.7748 55.9477L62.6192 55.6883L62.4116 55.4937L62.243 55.39L61.8538 55.3121Z" fill="url(#paint10_linear_46_1659)"/>
  <path d="M61.8538 55.3121H51.5675L51.321 55.351L51.1005 55.4289L50.9059 55.5586L50.7503 55.7402L50.6335 55.9477L50.5687 56.1942L49.6477 62.7967L49.7385 63.1728L49.8942 63.4063L50.2703 63.6787L50.6595 63.7565H60.9329L61.1793 63.7306L61.3998 63.6398L61.6074 63.5101L61.763 63.3285L61.8798 63.1209L61.9446 62.8875L62.8656 56.272L62.7748 55.9088L62.6192 55.6624L62.4116 55.4808L62.243 55.39L61.8538 55.3121Z" fill="#CCCCCC"/>
  <path d="M53.0981 63.7565H53.9932L55.1347 55.3121H54.2396L53.0981 63.7565Z" fill="#7B7B7B"/>
  <path d="M57.405 63.7565H58.3001L59.4415 55.3121H58.5465L57.405 63.7565Z" fill="#7B7B7B"/>
  <path d="M30.8264 39.1242L30.7226 38.9166L30.4761 38.761H30.2816L30.074 38.8129L29.6071 39.1631L29.4644 38.9556L29.3995 39.1631L29.3606 39.5782L29.3995 40.3694L29.4644 40.7326L29.5292 40.8753L29.646 40.9661L30.1389 41.1737L30.528 41.1866L30.8783 41.0829L31.0209 40.9921L31.1247 40.8234L31.1636 40.6418L31.1507 40.1619L30.8264 39.1242Z" fill="url(#paint11_linear_46_1659)"/>
  <path d="M29.3734 39.9152L29.4123 40.2784L29.4901 40.5118L29.6068 40.7324L29.8144 40.9269L29.97 41.0177L30.4759 41.1085L30.6835 41.0826L30.8651 40.9918L31.0078 40.8491L31.0986 40.6156L31.1375 40.3302L31.0856 39.9281L31.1764 40.2524L31.2283 40.7583L31.0986 41.0956L30.9818 41.2253L30.7872 41.3161L30.4889 41.3939H30.1906L29.9571 41.329L29.7755 41.2123L29.4901 40.8621L29.4123 40.6286L29.3474 40.2784L29.3734 39.9152Z" fill="white"/>
  <path d="M28.9323 27.8517L28.7896 28.0073L28.6599 28.3316L28.5172 28.8635L28.3745 29.6807L27.7778 30.2384L25.9488 31.6264L25.1187 32.3787L24.8852 32.6511L24.5998 33.144L24.522 33.3905V33.637L24.5868 33.8704L24.7814 34.2466L25.5727 35.2843L27.1941 37.0484L29.3344 39.1628L30.9039 39.072L27.7648 33.8186L29.0879 33.1181L31.8508 31.3669L31.9157 31.2632L32.0065 30.9389L32.1492 30.0698L32.3438 27.8906L28.9323 27.8517Z" fill="url(#paint12_linear_46_1659)"/>
  <path d="M32.6811 39.1109L32.7978 38.9034L33.0313 38.7477L33.2259 38.7347L33.4075 38.7866L33.8745 39.1498L34.0042 38.9423L34.069 39.1498L34.108 39.5649L34.069 40.3562L34.0042 40.7194L33.9393 40.8621L33.8356 40.9658L33.3426 41.1604L32.9794 41.1734L32.6422 41.0826L32.4995 40.9788L32.3568 40.6286L32.3698 40.1486L32.6811 39.1109Z" fill="url(#paint13_linear_46_1659)"/>
  <path d="M34.0951 39.9023L34.0562 40.2655L33.9913 40.499L33.8616 40.7195L33.6671 40.9141L33.5114 41.0049L33.0315 41.0957L32.8239 41.0698L32.6553 40.979L32.5256 40.8363L32.4218 40.6028L32.3959 40.3174L32.4348 39.9023L32.344 40.2266L32.3051 40.7455L32.4218 41.0827L32.5385 41.2125L32.7331 41.3162L33.0185 41.3811H33.3039L33.5244 41.3162L33.706 41.1995L33.9784 40.8493L34.0562 40.6158L34.1211 40.2526L34.0951 39.9023Z" fill="white"/>
  <path d="M34.5748 27.8517L34.7045 28.0073L34.8472 28.3316L34.9899 28.8635L35.1326 29.6807L35.7293 30.2384L37.5583 31.6264L38.3884 32.3787L38.6219 32.6511L38.9073 33.144L38.9851 33.3905V33.637L38.9203 33.8704L38.7127 34.2466L37.9215 35.2843L36.3 37.0614L34.1338 39.1758L32.5642 39.085L35.7422 33.8186L34.4192 33.1181L31.6562 31.3669L31.5914 31.2632L31.5006 30.9389L31.3579 30.0698L31.1633 27.8906L34.5748 27.8517Z" fill="url(#paint14_linear_46_1659)"/>
  <path d="M30.7874 19.7057L30.1518 19.7446L29.2827 19.9002L28.8547 20.0559L28.3618 20.3672L28.1672 20.5747L27.9467 20.9639L27.7521 21.4438L27.4667 22.4556L27.2462 23.636L28.7509 23.5582L28.245 29.7196L35.1847 29.6677L34.7697 23.3117L36.1446 23.0782L36.1576 22.4816L36.1317 22.0535L36.0409 21.6125L35.8852 21.1325L35.7425 20.8342L35.3145 20.2764L35.0291 20.0559L34.6789 19.8613L34.2508 19.7186L33.4985 19.6667L32.6553 19.7057L32.5645 20.017L32.331 20.3932L32.0197 20.6266L31.6565 20.6785L31.3711 20.6137L31.1766 20.4969L31.0209 20.3413L30.8393 19.991L30.7874 19.7057Z" fill="url(#paint15_linear_46_1659)"/>
  <path d="M30.9949 18.5771L30.5798 20.432L30.6317 20.6006L31.1506 20.7952L31.7732 20.873L32.1105 20.8341L32.4218 20.7303L32.8628 20.4968L32.9406 20.3931V20.2763L32.2661 18.3306L32.0975 18.2657L31.1376 18.4344L31.0468 18.4863L30.9949 18.5771Z" fill="url(#paint16_linear_46_1659)"/>
  <path d="M33.3947 17.8378L33.4596 17.6303L33.4466 17.4487L33.3169 17.4098L33.2002 17.4876L33.1872 16.7742L33.1223 16.2034L33.0056 15.9829L32.837 15.7883L32.5516 15.6067L32.0457 15.4641L31.6825 15.4381L31.2934 15.477L31.008 15.5678L30.7745 15.6975L30.4891 15.9959L30.3724 16.2423L30.3205 17.4876L30.1389 17.4227L30.074 17.4487L30.0481 17.5265L30.087 17.747L30.2038 18.0324L30.2427 18.4864L30.3335 18.6031L30.4632 18.6161L30.5799 18.9534L30.7745 19.2517L31.021 19.5111L31.2674 19.7057L31.5398 19.8484L31.7733 19.8873L32.0068 19.8484L32.2792 19.7057L32.5256 19.5111L32.7462 19.2517L32.9278 18.9534L33.0575 18.6161L33.1872 18.6031L33.252 18.5642L33.3169 18.0324L33.3947 17.8378Z" fill="url(#paint17_linear_46_1659)"/>
  <path d="M32.4734 15.2047L32.2659 14.8804L31.9546 14.6988L31.7341 14.6599L31.4357 14.6859L31.0596 14.7896L30.8261 14.9064L30.3721 15.2177L30.0478 15.2825L29.7624 15.4771L29.5938 15.8014L29.5808 16.0089L29.6327 16.2035L29.7365 16.437L30.0737 16.8651L30.1126 16.9688L30.0997 17.3191L30.2424 17.6693L30.2942 18.0195L30.411 17.5525L30.4499 17.1504L30.385 16.7353L30.424 16.6835L30.8261 16.6056L31.4487 16.6316L32.0194 16.5408L32.3956 16.3592L32.5253 16.1646L32.6032 16.4889L32.7588 16.8261L33.0572 17.0985L33.109 17.2283L33.1998 17.9806L33.2647 17.4747L33.4852 16.8261L33.5371 16.5537L33.5241 16.0349L33.3685 15.7884L33.2258 15.3863L33.135 15.2696L32.9923 15.1917L32.7977 15.1658L32.4734 15.2047Z" fill="url(#paint18_linear_46_1659)"/>
  <path d="M25.495 29.7066L25.4042 30.1995L24.8984 30.887L24.8335 31.1724L24.9762 31.5356L25.067 31.6523L25.1318 31.6782L25.2226 31.5745L25.3524 31.6523L25.4172 31.6004L25.508 31.6782L25.6507 31.5485L25.7804 31.6264L25.8842 31.4707L25.975 31.0297L25.988 31.3669L26.0269 31.4188L26.0788 31.4318L26.2214 31.2242L26.2863 31.0297L26.3382 30.7573L26.2993 30.2254L26.3512 29.7844L26.2604 29.6806L26.1306 29.6417L25.495 29.7066Z" fill="url(#paint19_linear_46_1659)"/>
  <path d="M28.5692 20.2115L28.8027 20.8731L28.9194 21.353L28.9973 21.8719L29.0232 22.4297L28.9843 22.8188L28.8935 23.182L28.7508 23.5582L27.7261 25.7893L27.2202 27.0994L26.4808 30.1477L25.2615 30.1606L25.5079 28.1371L25.8063 26.4638L26.2603 24.7775L26.7143 23.3506L27.2591 21.9367L27.5704 21.3011L27.8817 20.8082L28.1282 20.5099L28.3487 20.3283L28.5692 20.2115Z" fill="url(#paint20_linear_46_1659)"/>
  <path d="M38.155 29.7066L38.2458 30.1995L38.7647 30.887L38.8166 31.1724L38.6869 31.5356L38.5961 31.6523L38.5312 31.6782L38.4404 31.5745L38.3107 31.6523L38.2329 31.6004L38.155 31.6782L38.0123 31.5485L37.8697 31.6264L37.7659 31.4707L37.6751 31.0297L37.6621 31.3669L37.6362 31.4188L37.5713 31.4318L37.4286 31.2242L37.3638 31.0297L37.3249 30.7573L37.3638 30.2254L37.3119 29.7844L37.4027 29.6806L37.5324 29.6417L38.155 29.7066Z" fill="url(#paint21_linear_46_1659)"/>
  <path d="M35.1586 20.1467L34.8732 20.938L34.6916 21.7422L34.6527 22.1962L34.7046 22.9615L34.8992 23.5582L35.9239 25.7893L36.4298 27.0994L37.1821 30.1477L38.4015 30.1607L38.155 28.1371L37.9604 27.0086L37.714 25.9579L37.3897 24.7775L36.9487 23.3636L36.4168 21.9498L36.1185 21.3012L35.8201 20.7953L35.5867 20.484L35.3661 20.2764L35.1586 20.1467Z" fill="url(#paint22_linear_46_1659)"/>
  <defs>
    <linearGradient id="paint0_linear_46_1659" x1="76.5462" y1="45.5842" x2="60.7251" y2="67.9208" gradientUnits="userSpaceOnUse">
      <stop stop-color="#808080" stop-opacity="0"/>
      <stop offset="1" stop-color="#787878"/>
    </linearGradient>
    <linearGradient id="paint1_linear_46_1659" x1="927.411" y1="2234.34" x2="807.421" y2="2147.35" gradientUnits="userSpaceOnUse">
      <stop offset="0.15" stop-color="#AFC5D8"/>
      <stop offset="1" stop-color="#DFE8F9"/>
    </linearGradient>
    <linearGradient id="paint2_linear_46_1659" x1="1078.76" y1="2234.34" x2="958.765" y2="2147.35" gradientUnits="userSpaceOnUse">
      <stop offset="0.15" stop-color="#AFC5D8"/>
      <stop offset="1" stop-color="#DFE8F9"/>
    </linearGradient>
    <linearGradient id="paint3_linear_46_1659" x1="1230.1" y1="2234.34" x2="1110.11" y2="2147.35" gradientUnits="userSpaceOnUse">
      <stop offset="0.15" stop-color="#AFC5D8"/>
      <stop offset="1" stop-color="#DFE8F9"/>
    </linearGradient>
    <linearGradient id="paint4_linear_46_1659" x1="6990.14" y1="4935.83" x2="6990.14" y2="4312.12" gradientUnits="userSpaceOnUse">
      <stop offset="0.15" stop-color="#AFC5D8"/>
      <stop offset="1" stop-color="#DFE8F9"/>
    </linearGradient>
    <linearGradient id="paint5_linear_46_1659" x1="1115.38" y1="4394.18" x2="1044.39" y2="4384.36" gradientUnits="userSpaceOnUse">
      <stop offset="0.15" stop-color="#AFC5D8"/>
      <stop offset="1" stop-color="#DFE8F9"/>
    </linearGradient>
    <linearGradient id="paint6_linear_46_1659" x1="1194.01" y1="4394.18" x2="1122.59" y2="4384.23" gradientUnits="userSpaceOnUse">
      <stop offset="0.15" stop-color="#AFC5D8"/>
      <stop offset="1" stop-color="#DFE8F9"/>
    </linearGradient>
    <linearGradient id="paint7_linear_46_1659" x1="768.025" y1="2369.95" x2="648.179" y2="2283.4" gradientUnits="userSpaceOnUse">
      <stop offset="0.15" stop-color="#AFC5D8"/>
      <stop offset="1" stop-color="#DFE8F9"/>
    </linearGradient>
    <linearGradient id="paint8_linear_46_1659" x1="922.249" y1="2369.95" x2="802.259" y2="2282.96" gradientUnits="userSpaceOnUse">
      <stop offset="0.15" stop-color="#AFC5D8"/>
      <stop offset="1" stop-color="#DFE8F9"/>
    </linearGradient>
    <linearGradient id="paint9_linear_46_1659" x1="1069.59" y1="2369.95" x2="949.748" y2="2283.4" gradientUnits="userSpaceOnUse">
      <stop offset="0.15" stop-color="#CACACA"/>
      <stop offset="1" stop-color="#FCFCFC"/>
    </linearGradient>
    <linearGradient id="paint10_linear_46_1659" x1="6402.66" y1="5200.89" x2="6402.66" y2="4576.28" gradientUnits="userSpaceOnUse">
      <stop offset="0.15" stop-color="#AFC5D8"/>
      <stop offset="1" stop-color="#DFE8F9"/>
    </linearGradient>
    <linearGradient id="paint11_linear_46_1659" x1="-5841.54" y1="992.943" x2="-5841.54" y2="947.243" gradientUnits="userSpaceOnUse">
      <stop stop-color="#4673BC"/>
      <stop offset="0.652" stop-color="#6A94E0"/>
    </linearGradient>
    <linearGradient id="paint12_linear_46_1659" x1="2105.98" y1="4300.15" x2="2105.98" y2="3314.05" gradientUnits="userSpaceOnUse">
      <stop stop-color="#515151"/>
      <stop offset="0.652" stop-color="#2D3C65"/>
    </linearGradient>
    <linearGradient id="paint13_linear_46_1659" x1="-3187.18" y1="997.854" x2="-3187.18" y2="951.643" gradientUnits="userSpaceOnUse">
      <stop stop-color="#4673BC"/>
      <stop offset="0.652" stop-color="#6A94E0"/>
    </linearGradient>
    <linearGradient id="paint14_linear_46_1659" x1="-8975.95" y1="4305.94" x2="-8975.95" y2="3317.81" gradientUnits="userSpaceOnUse">
      <stop stop-color="#18264B"/>
      <stop offset="0.652" stop-color="#2D3C65"/>
    </linearGradient>
    <linearGradient id="paint15_linear_46_1659" x1="2623.93" y1="3084.79" x2="2623.93" y2="2305.55" gradientUnits="userSpaceOnUse">
      <stop stop-color="#FAD96E"/>
      <stop offset="1" stop-color="#FFB32C"/>
    </linearGradient>
    <linearGradient id="paint16_linear_46_1659" x1="719.431" y1="582.931" x2="719.431" y2="635.536" gradientUnits="userSpaceOnUse">
      <stop stop-color="#F4AE98"/>
      <stop offset="1" stop-color="#FAD1BB"/>
    </linearGradient>
    <linearGradient id="paint17_linear_46_1659" x1="1070.53" y1="958.429" x2="980.573" y2="958.429" gradientUnits="userSpaceOnUse">
      <stop stop-color="#F4B9A4"/>
      <stop offset="0.652" stop-color="#FAD1BB"/>
    </linearGradient>
    <linearGradient id="paint18_linear_46_1659" x1="1117.54" y1="692.472" x2="1238.66" y2="692.472" gradientUnits="userSpaceOnUse">
      <stop stop-color="#4F5C7C"/>
      <stop offset="1" stop-color="#274168"/>
    </linearGradient>
    <linearGradient id="paint19_linear_46_1659" x1="395.513" y1="649.221" x2="395.513" y2="681.293" gradientUnits="userSpaceOnUse">
      <stop stop-color="#F4B9A4"/>
      <stop offset="0.652" stop-color="#FAD1BB"/>
    </linearGradient>
    <linearGradient id="paint20_linear_46_1659" x1="988.955" y1="3087.43" x2="988.955" y2="2324.51" gradientUnits="userSpaceOnUse">
      <stop stop-color="#FAD96E"/>
      <stop offset="1" stop-color="#FFA91F"/>
    </linearGradient>
    <linearGradient id="paint21_linear_46_1659" x1="-1585.59" y1="649.221" x2="-1585.59" y2="681.293" gradientUnits="userSpaceOnUse">
      <stop stop-color="#F4B9A4"/>
      <stop offset="0.652" stop-color="#FAD1BB"/>
    </linearGradient>
    <linearGradient id="paint22_linear_46_1659" x1="-3964.05" y1="3107.36" x2="-3964.05" y2="2334.08" gradientUnits="userSpaceOnUse">
      <stop stop-color="#FAD96E"/>
      <stop offset="1" stop-color="#FFA91F"/>
    </linearGradient>
  </defs>
</svg>