<svg width="331" height="86" fill="none" xmlns="http://www.w3.org/2000/svg"><path d="M.705 86 0 20.615 11.624 23.1l5.46-3.4L36.19 33.3l24.567 6.8 16.379-11.9 16.378-1.7 10.919 5.1 21.838-15.3 21.837 1.7 24.568-6.8h19.108l10.919-5.1 21.837 3.4 13.649-3.4 21.837 3.4L284.595 1l19.108 5.1L317.351 1 331 2.7V86H.705Z" fill="url(#a)"/><path d="M0 9.766h330.295" stroke="#00D77C" stroke-opacity=".5" stroke-dasharray="3 3"/><path d="m0 20.258 12.104 2.512 4.598-3.176 19.932 13.223 24.53 6.699 17.031-11.722 15.677-1.675 10.902 5.024 5.452-3.35 16.353-10.047h19.079l29.982-6.698h16.354l10.902-5.024 19.08 3.349 13.628-3.35 13.628 1.675 11.165 1.675L284.665 1l16.353 5.024L314.646 1 331 2.328" stroke="#00D77C" stroke-width="1.5"/><defs><linearGradient id="a" x1="121.731" y1="9.5" x2="121.731" y2="86" gradientUnits="userSpaceOnUse"><stop stop-color="#00D77C" stop-opacity=".3"/><stop offset="1" stop-color="#00D77C" stop-opacity="0"/></linearGradient></defs></svg>