<svg width="33" height="24" fill="none" xmlns="http://www.w3.org/2000/svg"><path d="M0 0h17c8.837 0 16 7.163 16 16v8H16C7.163 24 0 16.837 0 8V0Z" fill="url(#a)"/><path fill-rule="evenodd" clip-rule="evenodd" d="M21.657 7.738c.692.674 1.268 1.462 1.614 2.362.345.9.576 1.912.576 2.925a6.895 6.895 0 0 1-2.076 4.95 7.396 7.396 0 0 1-2.189 1.462c-.807.338-1.73.563-2.651.563-.922 0-1.845-.225-2.651-.562a6.934 6.934 0 0 1-3.689-3.713c-.806-1.912-.806-4.05.116-5.85.46-1.013 1.152-1.8 1.959-2.475.361-.24.674-.545.923-.9.46-.45.691-1.012.922-1.575.23-.45.23-1.012.23-1.687V2.113c0-.113.116-.113.231-.113l.807.562c1.152.676 1.959 1.575 2.65 2.813.808 1.463 1.153 2.813 1.038 4.05v.112h.23c.346-.45.692-1.012.807-1.462l.346-.787c.044 0 .071-.017.095-.03.037-.023.064-.04.135.03l.577.45Zm-9.236 3.461h-.648v3.955h.648v-1.75h2.005v1.75h.648v-3.955h-.648v1.65H12.42V11.2Zm6.267.51c-.347-.391-.823-.587-1.43-.587-.612 0-1.089.198-1.428.592-.329.374-.493.862-.493 1.468 0 .602.164 1.09.493 1.462.347.392.823.587 1.429.587.605 0 1.082-.194 1.429-.581.332-.373.498-.862.498-1.468 0-.613-.166-1.104-.498-1.473Zm-2.382.399c.23-.277.546-.416.953-.416.414 0 .729.131.947.393.218.27.327.635.327 1.097 0 .462-.109.823-.327 1.086-.222.261-.537.393-.947.393-.413 0-.731-.136-.953-.41-.214-.262-.321-.619-.321-1.069 0-.454.107-.812.321-1.074Zm6.079-.909h-3.24v.554h1.296v3.4h.648v-3.4h1.296V11.2Z" fill="#fff"/><defs><linearGradient id="a" x1="16.5" y1="0" x2="16.5" y2="24" gradientUnits="userSpaceOnUse"><stop stop-color="#FFA346"/><stop offset="1" stop-color="#FC2600"/></linearGradient></defs></svg>